G04 #@! TF.FileFunction,Copper,L1,Top,Signal*
%FSLAX46Y46*%
G04 Gerber Fmt 4.6, Leading zero omitted, Abs format (unit mm)*
G04 Created by KiCad (PCBNEW 4.0.6-e0-6349~53~ubuntu14.04.1) date Sun Apr 30 16:03:09 2017*
%MOMM*%
%LPD*%
G01*
G04 APERTURE LIST*
%ADD10C,0.100000*%
%ADD11R,1.300000X1.300000*%
%ADD12C,1.300000*%
%ADD13R,2.000000X1.900000*%
%ADD14C,1.900000*%
%ADD15C,1.524000*%
%ADD16C,2.700020*%
%ADD17R,2.032000X1.727200*%
%ADD18O,2.032000X1.727200*%
%ADD19C,1.998980*%
%ADD20O,2.300000X1.600000*%
%ADD21O,2.540000X2.032000*%
%ADD22O,1.600000X2.300000*%
%ADD23O,2.499360X1.998980*%
%ADD24C,1.200000*%
%ADD25C,1.200000*%
%ADD26C,1.000000*%
G04 APERTURE END LIST*
D10*
D11*
X114795300Y-117576600D03*
D12*
X117295300Y-117576600D03*
D11*
X114757200Y-113042700D03*
D12*
X117257200Y-113042700D03*
D11*
X117983000Y-104775000D03*
D12*
X115483000Y-104775000D03*
D11*
X91821000Y-110680500D03*
D12*
X91821000Y-108180500D03*
D11*
X94488000Y-139954000D03*
D12*
X96988000Y-139954000D03*
D11*
X91821000Y-102336600D03*
D12*
X91821000Y-104836600D03*
D11*
X88890000Y-138570000D03*
D12*
X88890000Y-136070000D03*
D11*
X81277460Y-136291320D03*
D12*
X81277460Y-138791320D03*
D11*
X84015580Y-133581140D03*
D12*
X81515580Y-133581140D03*
D11*
X84201000Y-136271000D03*
D12*
X84201000Y-138771000D03*
D13*
X84582000Y-105283000D03*
D14*
X84582000Y-102743000D03*
D15*
X91480000Y-118810000D03*
X91480000Y-121350000D03*
X89481020Y-121350000D03*
X89481020Y-118810000D03*
D16*
X86781000Y-114080520D03*
X86781000Y-126079480D03*
D17*
X110307120Y-140985240D03*
D18*
X110307120Y-138445240D03*
X110307120Y-135905240D03*
X110307120Y-133365240D03*
X110307120Y-130825240D03*
D17*
X134467600Y-115364260D03*
D18*
X134467600Y-112824260D03*
X134467600Y-110284260D03*
X134467600Y-107744260D03*
X134467600Y-105204260D03*
X134467600Y-102664260D03*
D17*
X134439660Y-118968520D03*
D18*
X134439660Y-121508520D03*
X134439660Y-124048520D03*
X134439660Y-126588520D03*
X134439660Y-129128520D03*
X134439660Y-131668520D03*
D19*
X95504000Y-142748000D03*
X105664000Y-142748000D03*
X96469200Y-100228400D03*
X96469200Y-110388400D03*
D20*
X106680000Y-135750000D03*
X106680000Y-133210000D03*
X106680000Y-130670000D03*
X106680000Y-128130000D03*
X106680000Y-125590000D03*
X106680000Y-123050000D03*
X106680000Y-120510000D03*
X106680000Y-117970000D03*
X106680000Y-115430000D03*
X106680000Y-112890000D03*
X106680000Y-110350000D03*
X106680000Y-107810000D03*
X106680000Y-105270000D03*
X106680000Y-102730000D03*
X99060000Y-102730000D03*
X99060000Y-105270000D03*
X99060000Y-107810000D03*
X99060000Y-110350000D03*
X99060000Y-112890000D03*
X99060000Y-115430000D03*
X99060000Y-117970000D03*
X99060000Y-120510000D03*
X99060000Y-123050000D03*
X99060000Y-125590000D03*
X99060000Y-128130000D03*
X99060000Y-130670000D03*
X99060000Y-133210000D03*
X99060000Y-135750000D03*
D21*
X94070000Y-133240000D03*
X94070000Y-135780000D03*
X94070000Y-130700000D03*
D22*
X128905000Y-94742000D03*
X126365000Y-94742000D03*
X123825000Y-94742000D03*
X121285000Y-94742000D03*
X121285000Y-102362000D03*
X123825000Y-102362000D03*
X126365000Y-102362000D03*
X128905000Y-102362000D03*
X129286000Y-133858000D03*
X126746000Y-133858000D03*
X124206000Y-133858000D03*
X121666000Y-133858000D03*
X121666000Y-141478000D03*
X124206000Y-141478000D03*
X126746000Y-141478000D03*
X129286000Y-141478000D03*
D20*
X129616200Y-129527300D03*
X129616200Y-126987300D03*
X129616200Y-124447300D03*
X129616200Y-121907300D03*
X129616200Y-119367300D03*
X129616200Y-116827300D03*
X129616200Y-114287300D03*
X129616200Y-111747300D03*
X129616200Y-109207300D03*
X129616200Y-106667300D03*
X121996200Y-106667300D03*
X121996200Y-109207300D03*
X121996200Y-111747300D03*
X121996200Y-114287300D03*
X121996200Y-116827300D03*
X121996200Y-119367300D03*
X121996200Y-121907300D03*
X121996200Y-124447300D03*
X121996200Y-126987300D03*
X121996200Y-129527300D03*
D23*
X111290100Y-117464840D03*
X111290100Y-112582960D03*
D24*
X136794240Y-115112800D03*
X133096000Y-99568000D03*
X113665000Y-130556000D03*
X115189000Y-138430000D03*
X115951000Y-98552000D03*
X108585000Y-97802700D03*
X112369600Y-100604320D03*
X132461000Y-143891000D03*
D25*
X136144000Y-99441000D02*
X136144000Y-99458780D01*
X133096000Y-99568000D02*
X133223000Y-99441000D01*
X133223000Y-99441000D02*
X136144000Y-99441000D01*
X136794240Y-100109020D02*
X136794240Y-115112800D01*
X136144000Y-99458780D02*
X136794240Y-100109020D01*
X133096000Y-99568000D02*
X133096000Y-93345000D01*
X121285000Y-93345000D02*
X121285000Y-94742000D01*
X122301000Y-92329000D02*
X121285000Y-93345000D01*
X132080000Y-92329000D02*
X122301000Y-92329000D01*
X133096000Y-93345000D02*
X132080000Y-92329000D01*
X117983000Y-104775000D02*
X117983000Y-98933000D01*
X117983000Y-98933000D02*
X119507000Y-97409000D01*
X119507000Y-97409000D02*
X120777000Y-97409000D01*
X120777000Y-97409000D02*
X121285000Y-96901000D01*
X121285000Y-96901000D02*
X121285000Y-94742000D01*
X106680000Y-105270000D02*
X105296000Y-105270000D01*
X101473000Y-121158000D02*
X99581000Y-123050000D01*
X101473000Y-109093000D02*
X101473000Y-121158000D01*
X105296000Y-105270000D02*
X101473000Y-109093000D01*
X99581000Y-123050000D02*
X99060000Y-123050000D01*
X110307120Y-138445240D02*
X112125760Y-138445240D01*
X113665000Y-136906000D02*
X113665000Y-130556000D01*
X112125760Y-138445240D02*
X113665000Y-136906000D01*
X115173760Y-138445240D02*
X110307120Y-138445240D01*
X115173760Y-138445240D02*
X115189000Y-138430000D01*
X115483000Y-99020000D02*
X115483000Y-104775000D01*
X115951000Y-98552000D02*
X115483000Y-99020000D01*
X99060000Y-135750000D02*
X97269000Y-135750000D01*
X97803000Y-123050000D02*
X99060000Y-123050000D01*
X96520000Y-124333000D02*
X97803000Y-123050000D01*
X96520000Y-135001000D02*
X96520000Y-124333000D01*
X97269000Y-135750000D02*
X96520000Y-135001000D01*
X115483000Y-104775000D02*
X115483000Y-105196000D01*
X115483000Y-105196000D02*
X116954300Y-106667300D01*
X116954300Y-106667300D02*
X121996200Y-106667300D01*
X81515580Y-133581140D02*
X81515580Y-132860420D01*
X81515580Y-132860420D02*
X82550000Y-131826000D01*
X82550000Y-131826000D02*
X86360000Y-131826000D01*
X86360000Y-131826000D02*
X88392000Y-133858000D01*
X88392000Y-133858000D02*
X90170000Y-133858000D01*
X90170000Y-133858000D02*
X92092000Y-135780000D01*
X92092000Y-135780000D02*
X94070000Y-135780000D01*
D26*
X94070000Y-130700000D02*
X94070000Y-103923000D01*
X95263000Y-102730000D02*
X99060000Y-102730000D01*
X94070000Y-103923000D02*
X95263000Y-102730000D01*
X86781000Y-126079480D02*
X86781000Y-114080520D01*
D25*
X106680000Y-135750000D02*
X106680000Y-141859000D01*
X106680000Y-141859000D02*
X105537000Y-143002000D01*
X136514840Y-97370900D02*
X136514840Y-93334840D01*
X133985000Y-90805000D02*
X121285000Y-90805000D01*
X115582700Y-90805000D02*
X121285000Y-90805000D01*
X108585000Y-97802700D02*
X115582700Y-90805000D01*
X136514840Y-93334840D02*
X133985000Y-90805000D01*
X137922000Y-118110000D02*
X137922000Y-116387880D01*
X134439660Y-118968520D02*
X137063480Y-118968520D01*
X137063480Y-118968520D02*
X137922000Y-118110000D01*
X136514840Y-97370900D02*
X136514840Y-97287080D01*
X138242040Y-99098100D02*
X136514840Y-97370900D01*
X138242040Y-116067840D02*
X138242040Y-99098100D01*
X137922000Y-116387880D02*
X138242040Y-116067840D01*
X121666000Y-141478000D02*
X120523000Y-141478000D01*
X120523000Y-141478000D02*
X115697000Y-136652000D01*
X115697000Y-136652000D02*
X115697000Y-129667000D01*
X115697000Y-129667000D02*
X114160000Y-128130000D01*
X114160000Y-128130000D02*
X106680000Y-128130000D01*
X124206000Y-133858000D02*
X124206000Y-135255000D01*
X120789700Y-121907300D02*
X121996200Y-121907300D01*
X119761000Y-122936000D02*
X120789700Y-121907300D01*
X119761000Y-134747000D02*
X119761000Y-122936000D01*
X121031000Y-136017000D02*
X119761000Y-134747000D01*
X123444000Y-136017000D02*
X121031000Y-136017000D01*
X124206000Y-135255000D02*
X123444000Y-136017000D01*
X126746000Y-141478000D02*
X126746000Y-138938000D01*
X120789700Y-119367300D02*
X121996200Y-119367300D01*
X118110000Y-122047000D02*
X120789700Y-119367300D01*
X118110000Y-135509000D02*
X118110000Y-122047000D01*
X120142000Y-137541000D02*
X118110000Y-135509000D01*
X125349000Y-137541000D02*
X120142000Y-137541000D01*
X126746000Y-138938000D02*
X125349000Y-137541000D01*
D26*
X121043700Y-119367300D02*
X121996200Y-119367300D01*
X121996200Y-114287300D02*
X123964700Y-114287300D01*
X126365000Y-96520000D02*
X126365000Y-94742000D01*
X126873000Y-97028000D02*
X126365000Y-96520000D01*
X129032000Y-97028000D02*
X126873000Y-97028000D01*
X130498998Y-98494998D02*
X129032000Y-97028000D01*
X130498998Y-103632000D02*
X130498998Y-98494998D01*
X129355998Y-104775000D02*
X130498998Y-103632000D01*
X126746000Y-104775000D02*
X129355998Y-104775000D01*
X125730000Y-105791000D02*
X126746000Y-104775000D01*
X125730000Y-112522000D02*
X125730000Y-105791000D01*
X123964700Y-114287300D02*
X125730000Y-112522000D01*
X106680000Y-102730000D02*
X108445000Y-102730000D01*
X119494300Y-114287300D02*
X121996200Y-114287300D01*
X119253000Y-114046000D02*
X119494300Y-114287300D01*
X119253000Y-112268000D02*
X119253000Y-114046000D01*
X118110000Y-111125000D02*
X119253000Y-112268000D01*
X114935000Y-111125000D02*
X118110000Y-111125000D01*
X109093000Y-105283000D02*
X114935000Y-111125000D01*
X109093000Y-103378000D02*
X109093000Y-105283000D01*
X108445000Y-102730000D02*
X109093000Y-103378000D01*
D25*
X112288320Y-100604320D02*
X112522000Y-100838000D01*
X112369600Y-100604320D02*
X112288320Y-100604320D01*
X99060000Y-105270000D02*
X100470000Y-105270000D01*
X101092000Y-100457000D02*
X102362000Y-99187000D01*
D26*
X110871000Y-99187000D02*
X104521000Y-99187000D01*
X116205000Y-108077000D02*
X112522000Y-104394000D01*
X119126000Y-108077000D02*
X116205000Y-108077000D01*
X120256300Y-109207300D02*
X121996200Y-109207300D01*
X112522000Y-100838000D02*
X110871000Y-99187000D01*
X120256300Y-109207300D02*
X119126000Y-108077000D01*
X112522000Y-104394000D02*
X112522000Y-100838000D01*
D25*
X102362000Y-99187000D02*
X104521000Y-99187000D01*
X101092000Y-104648000D02*
X101092000Y-100457000D01*
X100470000Y-105270000D02*
X101092000Y-104648000D01*
X99060000Y-107810000D02*
X100724000Y-107810000D01*
X110767030Y-102004030D02*
X110767030Y-104925030D01*
X109601000Y-100838000D02*
X110767030Y-102004030D01*
X104267000Y-100838000D02*
X109601000Y-100838000D01*
X102997000Y-102108000D02*
X104267000Y-100838000D01*
X102997000Y-105537000D02*
X102997000Y-102108000D01*
X100724000Y-107810000D02*
X102997000Y-105537000D01*
D26*
X121996200Y-111747300D02*
X123583700Y-111747300D01*
X123825000Y-97917000D02*
X123825000Y-94742000D01*
X122809000Y-98933000D02*
X123825000Y-97917000D01*
X121031000Y-98933000D02*
X122809000Y-98933000D01*
X119507000Y-100457000D02*
X121031000Y-98933000D01*
X119507000Y-104140000D02*
X119507000Y-100457000D01*
X120142000Y-104775000D02*
X119507000Y-104140000D01*
X123571000Y-104775000D02*
X120142000Y-104775000D01*
X124333000Y-105537000D02*
X123571000Y-104775000D01*
X124333000Y-110998000D02*
X124333000Y-105537000D01*
X123583700Y-111747300D02*
X124333000Y-110998000D01*
X121996200Y-111747300D02*
X120510300Y-111747300D01*
X115766998Y-109924998D02*
X110767030Y-104925030D01*
X110767030Y-104925030D02*
X110744000Y-104902000D01*
X118687998Y-109924998D02*
X115766998Y-109924998D01*
X120510300Y-111747300D02*
X118687998Y-109924998D01*
D25*
X124206000Y-141478000D02*
X124206000Y-143256000D01*
X103238000Y-125590000D02*
X99060000Y-125590000D01*
X104140000Y-126492000D02*
X103238000Y-125590000D01*
X104140000Y-139700000D02*
X104140000Y-126492000D01*
X103124000Y-140716000D02*
X104140000Y-139700000D01*
X103124000Y-143764000D02*
X103124000Y-140716000D01*
X104263998Y-144903998D02*
X103124000Y-143764000D01*
X122558002Y-144903998D02*
X104263998Y-144903998D01*
X124206000Y-143256000D02*
X122558002Y-144903998D01*
X132461000Y-143891000D02*
X130048000Y-146304000D01*
X130048000Y-146304000D02*
X102489000Y-146304000D01*
X102489000Y-146304000D02*
X100965000Y-144780000D01*
X100965000Y-144780000D02*
X100965000Y-140335000D01*
X99060000Y-128130000D02*
X100317000Y-128130000D01*
X102616000Y-138684000D02*
X100965000Y-140335000D01*
X102616000Y-130429000D02*
X102616000Y-138684000D01*
X100317000Y-128130000D02*
X102616000Y-130429000D01*
X98933000Y-145288000D02*
X98933000Y-145669000D01*
X100444000Y-130670000D02*
X101092000Y-131318000D01*
X101092000Y-131318000D02*
X101092000Y-137160000D01*
X101092000Y-137160000D02*
X98933000Y-139319000D01*
X98933000Y-139319000D02*
X98933000Y-145288000D01*
X99060000Y-130670000D02*
X100444000Y-130670000D01*
X132842000Y-133858000D02*
X129286000Y-133858000D01*
X133985000Y-135001000D02*
X132842000Y-133858000D01*
X133985000Y-145415000D02*
X133985000Y-135001000D01*
X131572000Y-147828000D02*
X133985000Y-145415000D01*
X101092000Y-147828000D02*
X131572000Y-147828000D01*
X98933000Y-145669000D02*
X101092000Y-147828000D01*
D26*
X129286000Y-133731000D02*
X131699000Y-131318000D01*
X131191000Y-94742000D02*
X128905000Y-94742000D01*
X131699000Y-95250000D02*
X131191000Y-94742000D01*
X131699000Y-131318000D02*
X131699000Y-95250000D01*
X129286000Y-133858000D02*
X129286000Y-133731000D01*
M02*
