G04 #@! TF.FileFunction,Soldermask,Top*
%FSLAX46Y46*%
G04 Gerber Fmt 4.6, Leading zero omitted, Abs format (unit mm)*
G04 Created by KiCad (PCBNEW 4.0.6-e0-6349~53~ubuntu14.04.1) date Sun Apr 30 16:03:09 2017*
%MOMM*%
%LPD*%
G01*
G04 APERTURE LIST*
%ADD10C,0.100000*%
%ADD11R,1.700000X1.700000*%
%ADD12C,1.700000*%
%ADD13R,2.400000X2.300000*%
%ADD14C,2.300000*%
%ADD15C,1.924000*%
%ADD16C,3.100020*%
%ADD17R,2.432000X2.127200*%
%ADD18O,2.432000X2.127200*%
%ADD19C,2.398980*%
%ADD20O,2.700000X2.000000*%
%ADD21O,2.940000X2.432000*%
%ADD22O,2.000000X2.700000*%
%ADD23O,2.899360X2.398980*%
G04 APERTURE END LIST*
D10*
D11*
X114795300Y-117576600D03*
D12*
X117295300Y-117576600D03*
D11*
X114757200Y-113042700D03*
D12*
X117257200Y-113042700D03*
D11*
X117983000Y-104775000D03*
D12*
X115483000Y-104775000D03*
D11*
X91821000Y-110680500D03*
D12*
X91821000Y-108180500D03*
D11*
X94488000Y-139954000D03*
D12*
X96988000Y-139954000D03*
D11*
X91821000Y-102336600D03*
D12*
X91821000Y-104836600D03*
D11*
X88890000Y-138570000D03*
D12*
X88890000Y-136070000D03*
D11*
X81277460Y-136291320D03*
D12*
X81277460Y-138791320D03*
D11*
X84015580Y-133581140D03*
D12*
X81515580Y-133581140D03*
D11*
X84201000Y-136271000D03*
D12*
X84201000Y-138771000D03*
D13*
X84582000Y-105283000D03*
D14*
X84582000Y-102743000D03*
D15*
X91480000Y-118810000D03*
X91480000Y-121350000D03*
X89481020Y-121350000D03*
X89481020Y-118810000D03*
D16*
X86781000Y-114080520D03*
X86781000Y-126079480D03*
D17*
X110307120Y-140985240D03*
D18*
X110307120Y-138445240D03*
X110307120Y-135905240D03*
X110307120Y-133365240D03*
X110307120Y-130825240D03*
D17*
X134467600Y-115364260D03*
D18*
X134467600Y-112824260D03*
X134467600Y-110284260D03*
X134467600Y-107744260D03*
X134467600Y-105204260D03*
X134467600Y-102664260D03*
D17*
X134439660Y-118968520D03*
D18*
X134439660Y-121508520D03*
X134439660Y-124048520D03*
X134439660Y-126588520D03*
X134439660Y-129128520D03*
X134439660Y-131668520D03*
D19*
X95504000Y-142748000D03*
X105664000Y-142748000D03*
X96469200Y-100228400D03*
X96469200Y-110388400D03*
D20*
X106680000Y-135750000D03*
X106680000Y-133210000D03*
X106680000Y-130670000D03*
X106680000Y-128130000D03*
X106680000Y-125590000D03*
X106680000Y-123050000D03*
X106680000Y-120510000D03*
X106680000Y-117970000D03*
X106680000Y-115430000D03*
X106680000Y-112890000D03*
X106680000Y-110350000D03*
X106680000Y-107810000D03*
X106680000Y-105270000D03*
X106680000Y-102730000D03*
X99060000Y-102730000D03*
X99060000Y-105270000D03*
X99060000Y-107810000D03*
X99060000Y-110350000D03*
X99060000Y-112890000D03*
X99060000Y-115430000D03*
X99060000Y-117970000D03*
X99060000Y-120510000D03*
X99060000Y-123050000D03*
X99060000Y-125590000D03*
X99060000Y-128130000D03*
X99060000Y-130670000D03*
X99060000Y-133210000D03*
X99060000Y-135750000D03*
D21*
X94070000Y-133240000D03*
X94070000Y-135780000D03*
X94070000Y-130700000D03*
D22*
X128905000Y-94742000D03*
X126365000Y-94742000D03*
X123825000Y-94742000D03*
X121285000Y-94742000D03*
X121285000Y-102362000D03*
X123825000Y-102362000D03*
X126365000Y-102362000D03*
X128905000Y-102362000D03*
X129286000Y-133858000D03*
X126746000Y-133858000D03*
X124206000Y-133858000D03*
X121666000Y-133858000D03*
X121666000Y-141478000D03*
X124206000Y-141478000D03*
X126746000Y-141478000D03*
X129286000Y-141478000D03*
D20*
X129616200Y-129527300D03*
X129616200Y-126987300D03*
X129616200Y-124447300D03*
X129616200Y-121907300D03*
X129616200Y-119367300D03*
X129616200Y-116827300D03*
X129616200Y-114287300D03*
X129616200Y-111747300D03*
X129616200Y-109207300D03*
X129616200Y-106667300D03*
X121996200Y-106667300D03*
X121996200Y-109207300D03*
X121996200Y-111747300D03*
X121996200Y-114287300D03*
X121996200Y-116827300D03*
X121996200Y-119367300D03*
X121996200Y-121907300D03*
X121996200Y-124447300D03*
X121996200Y-126987300D03*
X121996200Y-129527300D03*
D23*
X111290100Y-117464840D03*
X111290100Y-112582960D03*
M02*
