M48
;DRILL file {KiCad 4.0.6-e0-6349~53~ubuntu14.04.1} date Sun Apr 30 16:03:04 2017
;FORMAT={-:-/ absolute / metric / decimal}
FMAT,2
METRIC,TZ
T1C0.800
T2C0.800
T3C0.813
T4C0.900
T5C1.001
T6C1.016
T7C1.143
T8C1.199
T9C2.301
%
G90
G05
M71
T1
X81.277Y-136.291
X84.016Y-133.581
X84.201Y-136.271
X88.89Y-136.07
X88.89Y-138.57
X91.821Y-102.337
X91.821Y-104.837
X91.821Y-108.18
X91.821Y-110.68
X94.488Y-139.954
X99.06Y-102.73
X99.06Y-105.27
X99.06Y-107.81
X99.06Y-110.35
X99.06Y-112.89
X99.06Y-115.43
X99.06Y-117.97
X99.06Y-120.51
X99.06Y-123.05
X99.06Y-125.59
X99.06Y-128.13
X99.06Y-130.67
X99.06Y-133.21
X99.06Y-135.75
X106.68Y-102.73
X106.68Y-105.27
X106.68Y-107.81
X106.68Y-110.35
X106.68Y-112.89
X106.68Y-115.43
X106.68Y-117.97
X106.68Y-120.51
X106.68Y-123.05
X106.68Y-125.59
X106.68Y-128.13
X106.68Y-130.67
X106.68Y-133.21
X106.68Y-135.75
X114.757Y-113.043
X114.795Y-117.577
X117.983Y-104.775
X121.285Y-94.742
X121.285Y-102.362
X121.666Y-133.858
X121.666Y-141.478
X121.996Y-106.667
X121.996Y-109.207
X121.996Y-111.747
X121.996Y-114.287
X121.996Y-116.827
X121.996Y-119.367
X121.996Y-121.907
X121.996Y-124.447
X121.996Y-126.987
X121.996Y-129.527
X123.825Y-94.742
X123.825Y-102.362
X124.206Y-133.858
X124.206Y-141.478
X126.365Y-94.742
X126.365Y-102.362
X126.746Y-133.858
X126.746Y-141.478
X128.905Y-94.742
X128.905Y-102.362
X129.286Y-133.858
X129.286Y-141.478
X129.616Y-106.667
X129.616Y-109.207
X129.616Y-111.747
X129.616Y-114.287
X129.616Y-116.827
X129.616Y-119.367
X129.616Y-121.907
X129.616Y-124.447
X129.616Y-126.987
X129.616Y-129.527
T2
X81.277Y-138.791
X81.516Y-133.581
X84.201Y-138.771
X96.988Y-139.954
X115.483Y-104.775
X117.257Y-113.043
X117.295Y-117.577
T3
X89.481Y-118.81
X89.481Y-121.35
X91.48Y-118.81
X91.48Y-121.35
T4
X108.585Y-97.803
X112.37Y-100.604
X113.665Y-130.556
X115.189Y-138.43
X115.951Y-98.552
X132.461Y-143.891
X133.096Y-99.568
X136.794Y-115.113
T5
X84.582Y-102.743
X84.582Y-105.283
X95.504Y-142.748
X96.469Y-100.228
X96.469Y-110.388
X105.664Y-142.748
T6
X110.307Y-130.825
X110.307Y-133.365
X110.307Y-135.905
X110.307Y-138.445
X110.307Y-140.985
X134.44Y-118.969
X134.44Y-121.509
X134.44Y-124.049
X134.44Y-126.589
X134.44Y-129.129
X134.44Y-131.669
X134.468Y-102.664
X134.468Y-105.204
X134.468Y-107.744
X134.468Y-110.284
X134.468Y-112.824
X134.468Y-115.364
T7
X94.07Y-130.7
X94.07Y-133.24
X94.07Y-135.78
T8
X111.29Y-112.583
X111.29Y-117.465
T9
X86.781Y-114.081
X86.781Y-126.079
T0
M30
