G75*
G70*
%OFA0B0*%
%FSLAX24Y24*%
%IPPOS*%
%LPD*%
%AMOC8*
5,1,8,0,0,1.08239X$1,22.5*
%
%ADD10C,0.0000*%
%ADD11R,0.0512X0.0591*%
%ADD12R,0.0984X0.0787*%
%ADD13R,0.0906X0.0197*%
%ADD14OC8,0.0480*%
%ADD15R,0.0787X0.0591*%
%ADD16R,0.0787X0.1496*%
%ADD17R,0.0551X0.0630*%
%ADD18R,0.0354X0.0236*%
%ADD19R,0.0236X0.0354*%
%ADD20OC8,0.0600*%
%ADD21R,0.0137X0.0550*%
%ADD22R,0.0630X0.0551*%
%ADD23R,0.2100X0.0760*%
%ADD24R,0.0591X0.0512*%
%ADD25R,0.0173X0.0453*%
%ADD26R,0.0248X0.0453*%
%ADD27R,0.0472X0.0472*%
%ADD28R,0.0866X0.0236*%
%ADD29R,0.0551X0.0394*%
%ADD30C,0.0120*%
%ADD31C,0.0310*%
%ADD32C,0.0160*%
D10*
X000232Y004243D02*
X000232Y012243D01*
X029232Y012243D01*
X029232Y004243D01*
X000232Y004243D01*
X002305Y005877D02*
X002307Y005903D01*
X002313Y005929D01*
X002323Y005954D01*
X002336Y005977D01*
X002352Y005997D01*
X002372Y006015D01*
X002394Y006030D01*
X002417Y006042D01*
X002443Y006050D01*
X002469Y006054D01*
X002495Y006054D01*
X002521Y006050D01*
X002547Y006042D01*
X002571Y006030D01*
X002592Y006015D01*
X002612Y005997D01*
X002628Y005977D01*
X002641Y005954D01*
X002651Y005929D01*
X002657Y005903D01*
X002659Y005877D01*
X002657Y005851D01*
X002651Y005825D01*
X002641Y005800D01*
X002628Y005777D01*
X002612Y005757D01*
X002592Y005739D01*
X002570Y005724D01*
X002547Y005712D01*
X002521Y005704D01*
X002495Y005700D01*
X002469Y005700D01*
X002443Y005704D01*
X002417Y005712D01*
X002393Y005724D01*
X002372Y005739D01*
X002352Y005757D01*
X002336Y005777D01*
X002323Y005800D01*
X002313Y005825D01*
X002307Y005851D01*
X002305Y005877D01*
X002305Y007609D02*
X002307Y007635D01*
X002313Y007661D01*
X002323Y007686D01*
X002336Y007709D01*
X002352Y007729D01*
X002372Y007747D01*
X002394Y007762D01*
X002417Y007774D01*
X002443Y007782D01*
X002469Y007786D01*
X002495Y007786D01*
X002521Y007782D01*
X002547Y007774D01*
X002571Y007762D01*
X002592Y007747D01*
X002612Y007729D01*
X002628Y007709D01*
X002641Y007686D01*
X002651Y007661D01*
X002657Y007635D01*
X002659Y007609D01*
X002657Y007583D01*
X002651Y007557D01*
X002641Y007532D01*
X002628Y007509D01*
X002612Y007489D01*
X002592Y007471D01*
X002570Y007456D01*
X002547Y007444D01*
X002521Y007436D01*
X002495Y007432D01*
X002469Y007432D01*
X002443Y007436D01*
X002417Y007444D01*
X002393Y007456D01*
X002372Y007471D01*
X002352Y007489D01*
X002336Y007509D01*
X002323Y007532D01*
X002313Y007557D01*
X002307Y007583D01*
X002305Y007609D01*
D11*
X004558Y004993D03*
X005306Y004993D03*
X015997Y004943D03*
X016666Y004943D03*
X016666Y006343D03*
X015997Y006343D03*
D12*
X003466Y004991D03*
X001301Y004991D03*
X001301Y008495D03*
X003466Y008495D03*
D13*
X003505Y007373D03*
X003505Y007058D03*
X003505Y006743D03*
X003505Y006428D03*
X003505Y006113D03*
D14*
X013482Y008793D03*
X014482Y008793D03*
X015482Y008793D03*
X016482Y008793D03*
X017482Y008793D03*
X018482Y008793D03*
X019482Y008793D03*
X020482Y008793D03*
X021482Y008793D03*
X022482Y008793D03*
X023482Y008793D03*
X024482Y008793D03*
X025482Y008793D03*
X026482Y008793D03*
X027482Y008793D03*
X028482Y008793D03*
D15*
X003472Y009588D03*
X003472Y010493D03*
X003472Y011399D03*
D16*
X000992Y010493D03*
D17*
X004832Y010453D03*
X004832Y009334D03*
X004832Y008153D03*
X004832Y011634D03*
D18*
X013938Y006431D03*
X013938Y006116D03*
X013938Y005801D03*
X013938Y005486D03*
X013938Y005171D03*
X013938Y004856D03*
X014726Y004856D03*
X014726Y005171D03*
X014726Y005486D03*
X014726Y005801D03*
X014726Y006116D03*
X014726Y006431D03*
D19*
X014332Y006431D03*
X014332Y004856D03*
D20*
X010782Y004993D03*
X009782Y004993D03*
X008782Y004993D03*
X007782Y004993D03*
X006782Y004993D03*
X024132Y005343D03*
X025132Y005343D03*
X026132Y005343D03*
X027132Y005343D03*
X028132Y005343D03*
X028132Y006343D03*
X027132Y006343D03*
X026132Y006343D03*
X025132Y006343D03*
X024132Y006343D03*
D21*
X010145Y006304D03*
X009889Y006304D03*
X009633Y006304D03*
X009377Y006304D03*
X009122Y006304D03*
X008866Y006304D03*
X008610Y006304D03*
X008354Y006304D03*
X008098Y006304D03*
X007842Y006304D03*
X007586Y006304D03*
X007330Y006304D03*
X007074Y006304D03*
X006818Y006304D03*
X006818Y009183D03*
X007074Y009183D03*
X007330Y009183D03*
X007586Y009183D03*
X007842Y009183D03*
X008098Y009183D03*
X008354Y009183D03*
X008610Y009183D03*
X008866Y009183D03*
X009122Y009183D03*
X009377Y009183D03*
X009633Y009183D03*
X009889Y009183D03*
X010145Y009183D03*
D22*
X011241Y009443D03*
X012422Y009443D03*
D23*
X011232Y010993D03*
X007432Y010993D03*
D24*
X005732Y011278D03*
X005732Y010609D03*
X005732Y009178D03*
X005732Y008509D03*
X005732Y007678D03*
X005732Y007009D03*
X012932Y010609D03*
X014132Y010569D03*
X015332Y010569D03*
X015332Y011317D03*
X014132Y011317D03*
X012932Y011278D03*
X022282Y006178D03*
X022282Y005509D03*
D25*
X021539Y010509D03*
X021224Y010509D03*
X021224Y011277D03*
X021539Y011277D03*
X019139Y011277D03*
X018824Y011277D03*
X018824Y010509D03*
X019139Y010509D03*
D26*
X019492Y010509D03*
X018472Y010509D03*
X018472Y011277D03*
X019492Y011277D03*
X020872Y011277D03*
X021892Y011277D03*
X021892Y010509D03*
X020872Y010509D03*
D27*
X020445Y007643D03*
X019618Y007643D03*
X018445Y007643D03*
X017618Y007643D03*
X016445Y007643D03*
X015618Y007643D03*
X014445Y007643D03*
X013618Y007643D03*
X021618Y007643D03*
X022445Y007643D03*
X023618Y007643D03*
X024445Y007643D03*
X025618Y007643D03*
X026445Y007643D03*
X027618Y007643D03*
X028445Y007643D03*
D28*
X020755Y006493D03*
X020755Y005993D03*
X020755Y005493D03*
X020755Y004993D03*
X018708Y004993D03*
X018708Y005493D03*
X018708Y005993D03*
X018708Y006493D03*
D29*
X016499Y010569D03*
X017365Y010943D03*
X016499Y011317D03*
D30*
X016914Y011356D02*
X017933Y011356D01*
X017815Y011237D02*
X017741Y011237D01*
X017778Y011200D02*
X017698Y011280D01*
X017031Y011280D01*
X016949Y011198D01*
X016949Y010688D01*
X017031Y010606D01*
X017698Y010606D01*
X017780Y010688D01*
X017780Y010723D01*
X017923Y010723D01*
X018208Y011008D01*
X018208Y010993D01*
X018290Y010911D01*
X018654Y010911D01*
X018667Y010924D01*
X018680Y010911D01*
X018969Y010911D01*
X018982Y010924D01*
X018995Y010911D01*
X019284Y010911D01*
X019297Y010924D01*
X019310Y010911D01*
X019674Y010911D01*
X019756Y010993D01*
X019756Y011057D01*
X020608Y011057D01*
X020608Y010993D01*
X020690Y010911D01*
X021054Y010911D01*
X021067Y010924D01*
X021080Y010911D01*
X021369Y010911D01*
X021382Y010924D01*
X021395Y010911D01*
X021684Y010911D01*
X021697Y010924D01*
X021710Y010911D01*
X022074Y010911D01*
X022156Y010993D01*
X022156Y011561D01*
X022074Y011643D01*
X021710Y011643D01*
X021697Y011630D01*
X021684Y011643D01*
X021395Y011643D01*
X021382Y011630D01*
X021369Y011643D01*
X021080Y011643D01*
X021067Y011630D01*
X021054Y011643D01*
X020690Y011643D01*
X020608Y011561D01*
X020608Y011497D01*
X019756Y011497D01*
X019756Y011561D01*
X019674Y011643D01*
X019310Y011643D01*
X019297Y011630D01*
X019284Y011643D01*
X018995Y011643D01*
X018982Y011630D01*
X018969Y011643D01*
X018680Y011643D01*
X018667Y011630D01*
X018654Y011643D01*
X018290Y011643D01*
X018208Y011561D01*
X018208Y011497D01*
X018075Y011497D01*
X017778Y011200D01*
X018052Y011474D02*
X016914Y011474D01*
X016914Y011572D02*
X016832Y011654D01*
X016165Y011654D01*
X016083Y011572D01*
X016083Y011537D01*
X015767Y011537D01*
X015767Y011631D01*
X015685Y011713D01*
X014979Y011713D01*
X014897Y011631D01*
X014897Y011537D01*
X014567Y011537D01*
X014567Y011631D01*
X014485Y011713D01*
X013779Y011713D01*
X013697Y011631D01*
X013697Y011003D01*
X013757Y010943D01*
X013697Y010883D01*
X013697Y010255D01*
X013779Y010173D01*
X012877Y009271D01*
X012877Y009383D01*
X012482Y009383D01*
X012482Y009028D01*
X012633Y009028D01*
X012449Y008843D01*
X010347Y008843D01*
X010354Y008849D01*
X010354Y008904D01*
X010365Y008893D01*
X010473Y008848D01*
X010590Y008848D01*
X010699Y008893D01*
X010782Y008976D01*
X010822Y009074D01*
X010868Y009028D01*
X011614Y009028D01*
X011696Y009110D01*
X011696Y009777D01*
X011614Y009859D01*
X010868Y009859D01*
X010786Y009777D01*
X010786Y009643D01*
X010715Y009643D01*
X010415Y009943D01*
X010249Y009943D01*
X008949Y009943D01*
X008832Y009826D01*
X008666Y009660D01*
X008666Y009597D01*
X008483Y009597D01*
X008474Y009589D01*
X008441Y009597D01*
X008354Y009597D01*
X008354Y009183D01*
X008354Y009183D01*
X008354Y009597D01*
X008298Y009597D01*
X008298Y009626D01*
X009465Y010793D01*
X010042Y010793D01*
X010042Y010555D01*
X010124Y010473D01*
X012340Y010473D01*
X012410Y010543D01*
X012497Y010543D01*
X012497Y010295D01*
X012579Y010213D01*
X013285Y010213D01*
X013367Y010295D01*
X013367Y010922D01*
X013344Y010945D01*
X013358Y010968D01*
X013367Y011003D01*
X013367Y011218D01*
X012992Y011218D01*
X012992Y011338D01*
X012872Y011338D01*
X012872Y011674D01*
X012618Y011674D01*
X012582Y011664D01*
X012551Y011646D01*
X012524Y011620D01*
X012506Y011588D01*
X012497Y011552D01*
X012497Y011338D01*
X012872Y011338D01*
X012872Y011218D01*
X012497Y011218D01*
X012497Y011003D01*
X012506Y010968D01*
X012519Y010945D01*
X012517Y010943D01*
X012422Y010943D01*
X012422Y011431D01*
X012340Y011513D01*
X010124Y011513D01*
X010042Y011431D01*
X010042Y011193D01*
X009465Y011193D01*
X009299Y011193D01*
X008042Y009936D01*
X008042Y010473D01*
X008540Y010473D01*
X008622Y010555D01*
X008622Y011431D01*
X008540Y011513D01*
X006324Y011513D01*
X006242Y011431D01*
X006242Y010943D01*
X006146Y010943D01*
X006144Y010945D01*
X006158Y010968D01*
X006167Y011003D01*
X006167Y011218D01*
X005792Y011218D01*
X005792Y011338D01*
X005672Y011338D01*
X005672Y011674D01*
X005418Y011674D01*
X005382Y011664D01*
X005351Y011646D01*
X005324Y011620D01*
X005306Y011588D01*
X005297Y011552D01*
X005297Y011338D01*
X005672Y011338D01*
X005672Y011218D01*
X005297Y011218D01*
X005297Y011003D01*
X005306Y010968D01*
X005319Y010945D01*
X005297Y010922D01*
X005297Y010463D01*
X005247Y010463D01*
X005247Y010826D01*
X005165Y010908D01*
X004498Y010908D01*
X004416Y010826D01*
X004416Y010713D01*
X004323Y010713D01*
X004006Y010713D01*
X004006Y010846D01*
X003924Y010928D01*
X003020Y010928D01*
X002938Y010846D01*
X002938Y010140D01*
X003020Y010058D01*
X003924Y010058D01*
X004006Y010140D01*
X004006Y010273D01*
X004032Y010273D01*
X004032Y009660D01*
X003982Y009610D01*
X003948Y009528D01*
X003532Y009528D01*
X003532Y009648D01*
X003412Y009648D01*
X003412Y010023D01*
X003060Y010023D01*
X003024Y010013D01*
X002992Y009995D01*
X002966Y009969D01*
X002948Y009937D01*
X002938Y009901D01*
X002938Y009648D01*
X003412Y009648D01*
X003412Y009528D01*
X002938Y009528D01*
X002938Y009274D01*
X002948Y009238D01*
X002966Y009206D01*
X002992Y009180D01*
X003024Y009162D01*
X003060Y009152D01*
X003412Y009152D01*
X003412Y009527D01*
X003532Y009527D01*
X003532Y009152D01*
X003884Y009152D01*
X003920Y009162D01*
X003952Y009180D01*
X003978Y009206D01*
X003996Y009238D01*
X004001Y009257D01*
X004065Y009193D01*
X004173Y009148D01*
X004290Y009148D01*
X004399Y009193D01*
X004416Y009210D01*
X004416Y009000D01*
X004426Y008965D01*
X004444Y008933D01*
X004470Y008907D01*
X004502Y008888D01*
X004538Y008879D01*
X004772Y008879D01*
X004772Y009274D01*
X004892Y009274D01*
X004892Y009394D01*
X004772Y009394D01*
X004772Y009789D01*
X004538Y009789D01*
X004502Y009779D01*
X004470Y009761D01*
X004444Y009735D01*
X004432Y009713D01*
X004432Y010064D01*
X004498Y009998D01*
X005165Y009998D01*
X005166Y009998D01*
X005512Y009652D01*
X005512Y009574D01*
X005379Y009574D01*
X005297Y009492D01*
X005297Y008864D01*
X005319Y008841D01*
X005306Y008818D01*
X005297Y008783D01*
X005297Y008568D01*
X005672Y008568D01*
X005672Y008449D01*
X005297Y008449D01*
X005297Y008234D01*
X005306Y008199D01*
X005324Y008167D01*
X005351Y008141D01*
X005382Y008122D01*
X005418Y008113D01*
X005672Y008113D01*
X005672Y008448D01*
X005792Y008448D01*
X005792Y008113D01*
X006046Y008113D01*
X006081Y008122D01*
X006113Y008141D01*
X006139Y008167D01*
X006158Y008199D01*
X006167Y008234D01*
X006167Y008449D01*
X005792Y008449D01*
X005792Y008568D01*
X006167Y008568D01*
X006167Y008783D01*
X006158Y008818D01*
X006144Y008841D01*
X006167Y008864D01*
X006167Y008958D01*
X006212Y008958D01*
X006212Y007534D01*
X006212Y007234D01*
X006206Y007228D01*
X006167Y007228D01*
X006167Y007322D01*
X006144Y007345D01*
X006158Y007368D01*
X006167Y007403D01*
X006167Y007618D01*
X005792Y007618D01*
X005792Y007738D01*
X005672Y007738D01*
X005672Y008074D01*
X005418Y008074D01*
X005382Y008064D01*
X005351Y008046D01*
X005324Y008020D01*
X005306Y007988D01*
X005297Y007952D01*
X005297Y007738D01*
X005672Y007738D01*
X005672Y007618D01*
X005297Y007618D01*
X005297Y007403D01*
X005306Y007368D01*
X005319Y007345D01*
X005297Y007322D01*
X005297Y006695D01*
X005379Y006613D01*
X006085Y006613D01*
X006167Y006695D01*
X006167Y006789D01*
X006206Y006789D01*
X006388Y006789D01*
X006652Y007052D01*
X006652Y007223D01*
X007898Y007223D01*
X007898Y006719D01*
X007842Y006719D01*
X007755Y006719D01*
X007722Y006710D01*
X007713Y006719D01*
X007460Y006719D01*
X007458Y006717D01*
X007457Y006719D01*
X007204Y006719D01*
X007202Y006717D01*
X007201Y006719D01*
X006948Y006719D01*
X006946Y006717D01*
X006945Y006719D01*
X006692Y006719D01*
X006610Y006637D01*
X006610Y006504D01*
X005054Y006504D01*
X004405Y007153D01*
X004471Y007153D01*
X004653Y007153D01*
X004828Y007328D01*
X004853Y007318D01*
X004970Y007318D01*
X005079Y007363D01*
X005162Y007446D01*
X005207Y007554D01*
X005207Y007672D01*
X005187Y007719D01*
X005247Y007780D01*
X005247Y008526D01*
X005165Y008608D01*
X004498Y008608D01*
X004416Y008526D01*
X004416Y007780D01*
X004498Y007698D01*
X004575Y007698D01*
X004471Y007593D01*
X004035Y007593D01*
X004016Y007611D01*
X003725Y007611D01*
X003725Y007761D01*
X003423Y008063D01*
X003406Y008063D01*
X003406Y008435D01*
X003526Y008435D01*
X003526Y007961D01*
X003977Y007961D01*
X004012Y007971D01*
X004044Y007989D01*
X004070Y008015D01*
X004089Y008047D01*
X004098Y008083D01*
X004098Y008435D01*
X003526Y008435D01*
X003526Y008555D01*
X004098Y008555D01*
X004098Y008907D01*
X004089Y008943D01*
X004070Y008975D01*
X004044Y009001D01*
X004012Y009019D01*
X003977Y009029D01*
X003526Y009029D01*
X003526Y008555D01*
X003406Y008555D01*
X003406Y008435D01*
X002834Y008435D01*
X002834Y008152D01*
X002752Y008234D01*
X002752Y011052D01*
X002878Y011179D01*
X002938Y011179D01*
X002938Y011045D01*
X003020Y010963D01*
X003924Y010963D01*
X004006Y011045D01*
X004006Y011752D01*
X003924Y011834D01*
X003020Y011834D01*
X002938Y011752D01*
X002938Y011619D01*
X002878Y011619D01*
X002696Y011619D01*
X002441Y011363D01*
X002312Y011234D01*
X002312Y008234D01*
X002312Y008052D01*
X002417Y007946D01*
X002415Y007946D01*
X002291Y007895D01*
X002196Y007800D01*
X002145Y007676D01*
X002145Y007542D01*
X002196Y007418D01*
X002291Y007323D01*
X002415Y007272D01*
X002549Y007272D01*
X002673Y007323D01*
X002768Y007418D01*
X002819Y007542D01*
X002819Y007623D01*
X003241Y007623D01*
X003252Y007611D01*
X002995Y007611D01*
X002913Y007529D01*
X002913Y007217D01*
X002914Y007216D01*
X002913Y007215D01*
X002913Y006902D01*
X002914Y006901D01*
X002913Y006900D01*
X002913Y006587D01*
X002914Y006586D01*
X002913Y006585D01*
X002913Y006272D01*
X002921Y006263D01*
X002913Y006230D01*
X002913Y006113D01*
X002913Y005996D01*
X002922Y005961D01*
X002941Y005929D01*
X002967Y005903D01*
X002819Y005903D01*
X002819Y005944D02*
X002768Y006068D01*
X002673Y006163D01*
X002549Y006214D01*
X002415Y006214D01*
X002291Y006163D01*
X002196Y006068D01*
X002145Y005944D01*
X002145Y005810D01*
X002196Y005686D01*
X002291Y005591D01*
X002415Y005540D01*
X002549Y005540D01*
X002673Y005591D01*
X002768Y005686D01*
X002819Y005810D01*
X002819Y005944D01*
X002787Y006021D02*
X002913Y006021D01*
X002913Y006113D02*
X003505Y006113D01*
X003505Y006113D01*
X003506Y006113D01*
X003506Y006113D01*
X004098Y006113D01*
X004098Y005996D01*
X004089Y005961D01*
X004070Y005929D01*
X004044Y005903D01*
X004689Y005903D01*
X004571Y006021D02*
X004098Y006021D01*
X004098Y006113D02*
X004098Y006230D01*
X004089Y006263D01*
X004098Y006272D01*
X004098Y006494D01*
X004999Y005593D01*
X005165Y005593D01*
X007015Y005593D01*
X007057Y005636D01*
X007082Y005576D01*
X007165Y005493D01*
X007221Y005470D01*
X007244Y005446D01*
X007246Y005446D01*
X007247Y005445D01*
X007328Y005445D01*
X007410Y005443D01*
X007411Y005445D01*
X007413Y005445D01*
X007435Y005467D01*
X007499Y005493D01*
X007542Y005536D01*
X007615Y005463D01*
X007687Y005433D01*
X007600Y005433D01*
X007342Y005175D01*
X007342Y004836D01*
X007149Y004643D01*
X007054Y004643D01*
X007222Y004811D01*
X007222Y005175D01*
X006964Y005433D01*
X006600Y005433D01*
X006360Y005193D01*
X005702Y005193D01*
X005702Y005346D01*
X005620Y005428D01*
X004992Y005428D01*
X004932Y005368D01*
X004872Y005428D01*
X004244Y005428D01*
X004162Y005346D01*
X004162Y004640D01*
X004244Y004558D01*
X004358Y004558D01*
X004358Y004534D01*
X004489Y004403D01*
X000392Y004403D01*
X000392Y012083D01*
X004517Y012083D01*
X004502Y012079D01*
X004470Y012061D01*
X004444Y012035D01*
X004426Y012003D01*
X004416Y011967D01*
X004416Y011694D01*
X004772Y011694D01*
X004772Y011574D01*
X004416Y011574D01*
X004416Y011300D01*
X004426Y011265D01*
X004444Y011233D01*
X004470Y011207D01*
X004502Y011188D01*
X004538Y011179D01*
X004772Y011179D01*
X004772Y011574D01*
X004892Y011574D01*
X004892Y011694D01*
X005247Y011694D01*
X005247Y011967D01*
X005238Y012003D01*
X005219Y012035D01*
X005193Y012061D01*
X005161Y012079D01*
X005146Y012083D01*
X029072Y012083D01*
X029072Y004403D01*
X025475Y004403D01*
X025975Y004903D01*
X026314Y004903D01*
X026572Y005161D01*
X026572Y005525D01*
X026454Y005643D01*
X026715Y005643D01*
X026832Y005760D01*
X026975Y005903D01*
X027314Y005903D01*
X027572Y006161D01*
X027572Y006525D01*
X027314Y006783D01*
X026950Y006783D01*
X026692Y006525D01*
X026692Y006186D01*
X026549Y006043D01*
X026454Y006043D01*
X026572Y006161D01*
X026572Y006525D01*
X026314Y006783D01*
X025950Y006783D01*
X025692Y006525D01*
X025692Y006161D01*
X025810Y006043D01*
X025454Y006043D01*
X025572Y006161D01*
X025572Y006525D01*
X025314Y006783D01*
X024950Y006783D01*
X024692Y006525D01*
X024692Y006161D01*
X024810Y006043D01*
X024454Y006043D01*
X024572Y006161D01*
X024572Y006525D01*
X024314Y006783D01*
X023975Y006783D01*
X023491Y007267D01*
X023913Y007267D01*
X023995Y007349D01*
X023995Y007937D01*
X023913Y008019D01*
X023838Y008019D01*
X023838Y008565D01*
X023838Y008612D01*
X023862Y008636D01*
X023862Y008951D01*
X023639Y009173D01*
X023413Y009173D01*
X023163Y009423D01*
X024541Y009423D01*
X025102Y008862D01*
X025102Y008636D01*
X025324Y008413D01*
X025398Y008413D01*
X025398Y008019D01*
X025324Y008019D01*
X025242Y007937D01*
X025242Y007349D01*
X025324Y007267D01*
X025913Y007267D01*
X025995Y007349D01*
X025995Y007937D01*
X025913Y008019D01*
X025838Y008019D01*
X025838Y008565D01*
X025838Y008612D01*
X025862Y008636D01*
X025862Y008951D01*
X025639Y009173D01*
X025413Y009173D01*
X024863Y009723D01*
X026241Y009723D01*
X027102Y008862D01*
X027102Y008636D01*
X027324Y008413D01*
X027398Y008413D01*
X027398Y008019D01*
X027324Y008019D01*
X027242Y007937D01*
X027242Y007349D01*
X027324Y007267D01*
X027913Y007267D01*
X027995Y007349D01*
X027995Y007937D01*
X027913Y008019D01*
X027838Y008019D01*
X027838Y008565D01*
X027838Y008612D01*
X027862Y008636D01*
X027862Y008951D01*
X027639Y009173D01*
X027413Y009173D01*
X026423Y010163D01*
X026241Y010163D01*
X022223Y010163D01*
X022156Y010230D01*
X022156Y010794D01*
X022074Y010876D01*
X021710Y010876D01*
X021697Y010863D01*
X021684Y010876D01*
X021395Y010876D01*
X021382Y010863D01*
X021369Y010876D01*
X021080Y010876D01*
X021067Y010863D01*
X021054Y010876D01*
X020690Y010876D01*
X020608Y010794D01*
X020608Y010225D01*
X020652Y010181D01*
X020652Y010094D01*
X020652Y009912D01*
X021262Y009302D01*
X021262Y009110D01*
X021102Y008951D01*
X021102Y008636D01*
X021324Y008413D01*
X021398Y008413D01*
X021398Y008019D01*
X021324Y008019D01*
X021242Y007937D01*
X021242Y007349D01*
X021324Y007267D01*
X021913Y007267D01*
X021995Y007349D01*
X021995Y007937D01*
X021913Y008019D01*
X021838Y008019D01*
X021838Y008565D01*
X021838Y008612D01*
X021862Y008636D01*
X021862Y008951D01*
X021702Y009110D01*
X021702Y009262D01*
X021712Y009252D01*
X021841Y009123D01*
X022274Y009123D01*
X022102Y008951D01*
X022102Y008636D01*
X022225Y008512D01*
X022225Y008019D01*
X022151Y008019D01*
X022069Y007937D01*
X022069Y007349D01*
X022151Y007267D01*
X022739Y007267D01*
X022772Y007300D01*
X022782Y007276D01*
X022865Y007193D01*
X022973Y007148D01*
X023044Y007148D01*
X023692Y006500D01*
X023692Y006161D01*
X023810Y006043D01*
X023515Y006043D01*
X023377Y006181D01*
X023377Y006252D01*
X023332Y006360D01*
X023249Y006443D01*
X023140Y006488D01*
X023023Y006488D01*
X022915Y006443D01*
X022832Y006360D01*
X022795Y006272D01*
X022725Y006343D01*
X022717Y006343D01*
X022717Y006492D01*
X022635Y006574D01*
X021929Y006574D01*
X021847Y006492D01*
X021847Y006398D01*
X021788Y006398D01*
X021473Y006713D01*
X021291Y006713D01*
X021285Y006713D01*
X021246Y006751D01*
X020975Y006751D01*
X020975Y006828D01*
X020975Y007011D01*
X020719Y007267D01*
X020739Y007267D01*
X020821Y007349D01*
X020821Y007937D01*
X020739Y008019D01*
X020665Y008019D01*
X020665Y008439D01*
X020862Y008636D01*
X020862Y008951D01*
X020639Y009173D01*
X020324Y009173D01*
X020102Y008951D01*
X020102Y008636D01*
X020225Y008512D01*
X020225Y008019D01*
X020151Y008019D01*
X020069Y007937D01*
X020069Y007363D01*
X019995Y007363D01*
X019995Y007937D01*
X019913Y008019D01*
X019838Y008019D01*
X019838Y008565D01*
X019838Y008612D01*
X019862Y008636D01*
X019862Y008951D01*
X019712Y009101D01*
X019712Y010181D01*
X019756Y010225D01*
X019756Y010794D01*
X019674Y010876D01*
X019310Y010876D01*
X019297Y010863D01*
X019284Y010876D01*
X018995Y010876D01*
X018982Y010863D01*
X018969Y010876D01*
X018680Y010876D01*
X018667Y010863D01*
X018654Y010876D01*
X018290Y010876D01*
X018208Y010794D01*
X018208Y010225D01*
X018252Y010181D01*
X018252Y010074D01*
X018241Y010063D01*
X014441Y010063D01*
X014312Y009934D01*
X013551Y009173D01*
X013345Y009173D01*
X014332Y010160D01*
X014332Y010173D01*
X014485Y010173D01*
X014567Y010255D01*
X014567Y010883D01*
X014507Y010943D01*
X014567Y011003D01*
X014567Y011097D01*
X014897Y011097D01*
X014897Y011003D01*
X014958Y010941D01*
X014951Y010937D01*
X014924Y010911D01*
X014906Y010879D01*
X014897Y010843D01*
X014897Y010629D01*
X015272Y010629D01*
X015272Y010509D01*
X015392Y010509D01*
X015392Y010629D01*
X015767Y010629D01*
X015767Y010843D01*
X015758Y010879D01*
X015739Y010911D01*
X015713Y010937D01*
X015705Y010941D01*
X015767Y011003D01*
X015767Y011097D01*
X016083Y011097D01*
X016083Y011062D01*
X016165Y010980D01*
X016832Y010980D01*
X016914Y011062D01*
X016914Y011572D01*
X016893Y011593D02*
X018239Y011593D01*
X018208Y011000D02*
X018200Y011000D01*
X018081Y010882D02*
X029072Y010882D01*
X029072Y011000D02*
X022156Y011000D01*
X022156Y011119D02*
X029072Y011119D01*
X029072Y011237D02*
X022156Y011237D01*
X022156Y011356D02*
X029072Y011356D01*
X029072Y011474D02*
X022156Y011474D01*
X022124Y011593D02*
X029072Y011593D01*
X029072Y011711D02*
X015687Y011711D01*
X015767Y011593D02*
X016104Y011593D01*
X016914Y011237D02*
X016989Y011237D01*
X016949Y011119D02*
X016914Y011119D01*
X016949Y011000D02*
X016852Y011000D01*
X016828Y010896D02*
X016793Y010906D01*
X016537Y010906D01*
X016537Y010608D01*
X016460Y010608D01*
X016460Y010906D01*
X016205Y010906D01*
X016169Y010896D01*
X016137Y010878D01*
X016111Y010852D01*
X016093Y010820D01*
X016083Y010784D01*
X016083Y010608D01*
X016460Y010608D01*
X016460Y010531D01*
X016083Y010531D01*
X016083Y010354D01*
X016093Y010318D01*
X016111Y010286D01*
X016137Y010260D01*
X016169Y010242D01*
X016205Y010232D01*
X016460Y010232D01*
X016460Y010530D01*
X016537Y010530D01*
X016537Y010232D01*
X016793Y010232D01*
X016828Y010242D01*
X016860Y010260D01*
X016886Y010286D01*
X016905Y010318D01*
X016914Y010354D01*
X016914Y010531D01*
X016537Y010531D01*
X016537Y010608D01*
X016914Y010608D01*
X016914Y010784D01*
X016905Y010820D01*
X016886Y010852D01*
X016860Y010878D01*
X016828Y010896D01*
X016854Y010882D02*
X016949Y010882D01*
X016949Y010763D02*
X016914Y010763D01*
X016914Y010644D02*
X016993Y010644D01*
X016914Y010526D02*
X018208Y010526D01*
X018208Y010644D02*
X017737Y010644D01*
X017963Y010763D02*
X018208Y010763D01*
X018208Y010407D02*
X016914Y010407D01*
X016888Y010289D02*
X018208Y010289D01*
X018252Y010170D02*
X014332Y010170D01*
X014429Y010052D02*
X014223Y010052D01*
X014312Y009934D02*
X014312Y009934D01*
X014311Y009933D02*
X014105Y009933D01*
X014192Y009815D02*
X013986Y009815D01*
X014074Y009696D02*
X013868Y009696D01*
X013955Y009578D02*
X013749Y009578D01*
X013837Y009459D02*
X013631Y009459D01*
X013718Y009341D02*
X013512Y009341D01*
X013600Y009222D02*
X013393Y009222D01*
X013065Y009459D02*
X012482Y009459D01*
X012482Y009503D02*
X012482Y009383D01*
X012362Y009383D01*
X011967Y009383D01*
X011967Y009149D01*
X011977Y009114D01*
X011995Y009082D01*
X012021Y009056D01*
X012053Y009037D01*
X012089Y009028D01*
X012362Y009028D01*
X012362Y009383D01*
X012362Y009503D01*
X011967Y009503D01*
X011967Y009737D01*
X011977Y009773D01*
X011995Y009805D01*
X012021Y009831D01*
X012053Y009849D01*
X012089Y009859D01*
X012362Y009859D01*
X012362Y009503D01*
X012482Y009503D01*
X012482Y009859D01*
X012756Y009859D01*
X012791Y009849D01*
X012823Y009831D01*
X012849Y009805D01*
X012868Y009773D01*
X012877Y009737D01*
X012877Y009503D01*
X012482Y009503D01*
X012482Y009578D02*
X012362Y009578D01*
X012362Y009696D02*
X012482Y009696D01*
X012482Y009815D02*
X012362Y009815D01*
X012839Y009815D02*
X013421Y009815D01*
X013539Y009933D02*
X010425Y009933D01*
X010543Y009815D02*
X010824Y009815D01*
X010786Y009696D02*
X010662Y009696D01*
X010632Y009443D02*
X010332Y009743D01*
X009032Y009743D01*
X008866Y009577D01*
X008866Y009183D01*
X008610Y009183D02*
X008610Y008365D01*
X008632Y008343D01*
X008410Y008538D02*
X008382Y008510D01*
X008337Y008402D01*
X008337Y008284D01*
X008382Y008176D01*
X008465Y008093D01*
X008469Y008091D01*
X008041Y007663D01*
X006652Y007663D01*
X006652Y008808D01*
X006692Y008768D01*
X006874Y008768D01*
X006874Y008292D01*
X006837Y008202D01*
X006837Y008084D01*
X006882Y007976D01*
X006965Y007893D01*
X007073Y007848D01*
X007190Y007848D01*
X007299Y007893D01*
X007382Y007976D01*
X007421Y008070D01*
X007473Y008048D01*
X007590Y008048D01*
X007699Y008093D01*
X007782Y008176D01*
X007785Y008185D01*
X007873Y008148D01*
X007990Y008148D01*
X008099Y008193D01*
X008182Y008276D01*
X008227Y008384D01*
X008227Y008502D01*
X008182Y008610D01*
X008099Y008693D01*
X007990Y008738D01*
X007920Y008738D01*
X007890Y008768D01*
X007969Y008768D01*
X007970Y008769D01*
X007971Y008768D01*
X008224Y008768D01*
X008233Y008776D01*
X008267Y008768D01*
X008354Y008768D01*
X008410Y008768D01*
X008410Y008538D01*
X008382Y008511D02*
X008223Y008511D01*
X008227Y008392D02*
X008337Y008392D01*
X008341Y008274D02*
X008179Y008274D01*
X008007Y008155D02*
X008403Y008155D01*
X008414Y008037D02*
X007407Y008037D01*
X007324Y007918D02*
X008296Y007918D01*
X008177Y007799D02*
X006652Y007799D01*
X006652Y007681D02*
X008059Y007681D01*
X008132Y007443D02*
X008098Y007409D01*
X008098Y006304D01*
X008098Y005309D01*
X007782Y004993D01*
X007232Y004443D01*
X004732Y004443D01*
X004558Y004617D01*
X004558Y004993D01*
X004162Y004954D02*
X003526Y004954D01*
X003526Y004931D02*
X003526Y005051D01*
X004098Y005051D01*
X004098Y005403D01*
X004089Y005439D01*
X004070Y005471D01*
X004044Y005497D01*
X004012Y005515D01*
X003977Y005525D01*
X003526Y005525D01*
X003526Y005051D01*
X003406Y005051D01*
X003406Y004931D01*
X003526Y004931D01*
X003526Y004457D01*
X003977Y004457D01*
X004012Y004467D01*
X004044Y004485D01*
X004070Y004511D01*
X004089Y004543D01*
X004098Y004579D01*
X004098Y004931D01*
X003526Y004931D01*
X003526Y004836D02*
X003406Y004836D01*
X003406Y004931D02*
X003406Y004457D01*
X002955Y004457D01*
X002920Y004467D01*
X002888Y004485D01*
X002862Y004511D01*
X002843Y004543D01*
X002834Y004579D01*
X002834Y004931D01*
X003406Y004931D01*
X003406Y004954D02*
X001361Y004954D01*
X001361Y004931D02*
X001361Y005051D01*
X001933Y005051D01*
X001933Y005403D01*
X001923Y005439D01*
X001905Y005471D01*
X001879Y005497D01*
X001847Y005515D01*
X001811Y005525D01*
X001361Y005525D01*
X001361Y005051D01*
X001241Y005051D01*
X001241Y005525D01*
X000790Y005525D01*
X000755Y005515D01*
X000723Y005497D01*
X000697Y005471D01*
X000678Y005439D01*
X000669Y005403D01*
X000669Y005051D01*
X001241Y005051D01*
X001241Y004931D01*
X001361Y004931D01*
X001933Y004931D01*
X001933Y004579D01*
X001923Y004543D01*
X001905Y004511D01*
X001879Y004485D01*
X001847Y004467D01*
X001811Y004457D01*
X001361Y004457D01*
X001361Y004931D01*
X001361Y004836D02*
X001241Y004836D01*
X001241Y004931D02*
X001241Y004457D01*
X000790Y004457D01*
X000755Y004467D01*
X000723Y004485D01*
X000697Y004511D01*
X000678Y004543D01*
X000669Y004579D01*
X000669Y004931D01*
X001241Y004931D01*
X001241Y004954D02*
X000392Y004954D01*
X000392Y004836D02*
X000669Y004836D01*
X000669Y004717D02*
X000392Y004717D01*
X000392Y004599D02*
X000669Y004599D01*
X000732Y004480D02*
X000392Y004480D01*
X001241Y004480D02*
X001361Y004480D01*
X001361Y004599D02*
X001241Y004599D01*
X001241Y004717D02*
X001361Y004717D01*
X001870Y004480D02*
X002897Y004480D01*
X002834Y004599D02*
X001933Y004599D01*
X001933Y004717D02*
X002834Y004717D01*
X002834Y004836D02*
X001933Y004836D01*
X001933Y005073D02*
X002834Y005073D01*
X002834Y005051D02*
X003406Y005051D01*
X003406Y005525D01*
X002955Y005525D01*
X002920Y005515D01*
X002888Y005497D01*
X002862Y005471D01*
X002843Y005439D01*
X002834Y005403D01*
X002834Y005051D01*
X002834Y005191D02*
X001933Y005191D01*
X001933Y005310D02*
X002834Y005310D01*
X002841Y005429D02*
X001926Y005429D01*
X002216Y005666D02*
X000392Y005666D01*
X000392Y005784D02*
X002155Y005784D01*
X002145Y005903D02*
X000392Y005903D01*
X000392Y006021D02*
X002177Y006021D01*
X002268Y006140D02*
X000392Y006140D01*
X000392Y006258D02*
X002920Y006258D01*
X002913Y006140D02*
X002696Y006140D01*
X002913Y006113D02*
X003505Y006113D01*
X003505Y005875D01*
X003034Y005875D01*
X002999Y005884D01*
X002967Y005903D01*
X002808Y005784D02*
X004808Y005784D01*
X004926Y005666D02*
X002747Y005666D01*
X002566Y005547D02*
X007111Y005547D01*
X006969Y005429D02*
X007595Y005429D01*
X007476Y005310D02*
X007087Y005310D01*
X007206Y005191D02*
X007358Y005191D01*
X007342Y005073D02*
X007222Y005073D01*
X007222Y004954D02*
X007342Y004954D01*
X007342Y004836D02*
X007222Y004836D01*
X007223Y004717D02*
X007128Y004717D01*
X007475Y004403D02*
X007625Y004553D01*
X007964Y004553D01*
X008222Y004811D01*
X008222Y005150D01*
X008298Y005226D01*
X008298Y005392D01*
X008298Y005889D01*
X008480Y005889D01*
X008482Y005890D01*
X008483Y005889D01*
X008736Y005889D01*
X008738Y005890D01*
X008739Y005889D01*
X008992Y005889D01*
X008994Y005890D01*
X008995Y005889D01*
X009248Y005889D01*
X009250Y005890D01*
X009251Y005889D01*
X009504Y005889D01*
X009505Y005890D01*
X009507Y005889D01*
X009560Y005889D01*
X009482Y005810D01*
X009437Y005702D01*
X009437Y005584D01*
X009482Y005476D01*
X009562Y005396D01*
X009342Y005175D01*
X009342Y004848D01*
X009283Y004848D01*
X009222Y004823D01*
X009222Y004953D01*
X008822Y004953D01*
X008822Y005033D01*
X009222Y005033D01*
X009222Y005175D01*
X008964Y005433D01*
X008822Y005433D01*
X008822Y005033D01*
X008742Y005033D01*
X008742Y004953D01*
X008822Y004953D01*
X008822Y004553D01*
X008964Y004553D01*
X009064Y004653D01*
X009047Y004612D01*
X009047Y004494D01*
X009085Y004403D01*
X007475Y004403D01*
X007552Y004480D02*
X009053Y004480D01*
X009047Y004599D02*
X009010Y004599D01*
X008822Y004599D02*
X008742Y004599D01*
X008742Y004553D02*
X008742Y004953D01*
X008342Y004953D01*
X008342Y004811D01*
X008600Y004553D01*
X008742Y004553D01*
X008742Y004717D02*
X008822Y004717D01*
X008822Y004836D02*
X008742Y004836D01*
X008742Y004954D02*
X008222Y004954D01*
X008222Y004836D02*
X008342Y004836D01*
X008435Y004717D02*
X008128Y004717D01*
X008010Y004599D02*
X008554Y004599D01*
X009222Y004836D02*
X009254Y004836D01*
X009342Y004954D02*
X008822Y004954D01*
X008742Y005033D02*
X008342Y005033D01*
X008342Y005175D01*
X008600Y005433D01*
X008742Y005433D01*
X008742Y005033D01*
X008742Y005073D02*
X008822Y005073D01*
X008822Y005191D02*
X008742Y005191D01*
X008742Y005310D02*
X008822Y005310D01*
X008822Y005429D02*
X008742Y005429D01*
X008595Y005429D02*
X008298Y005429D01*
X008298Y005547D02*
X009452Y005547D01*
X009437Y005666D02*
X008298Y005666D01*
X008298Y005784D02*
X009471Y005784D01*
X009732Y005643D02*
X009889Y005801D01*
X009889Y006304D01*
X009633Y006304D02*
X009633Y006645D01*
X009732Y006743D01*
X012332Y006743D01*
X012632Y007043D01*
X012182Y007093D02*
X012032Y006943D01*
X009632Y006943D01*
X009377Y006689D01*
X009377Y006304D01*
X009122Y006304D02*
X009122Y006733D01*
X009532Y007143D01*
X011732Y007143D01*
X012132Y007543D01*
X011632Y007543D02*
X011432Y007343D01*
X009432Y007343D01*
X008866Y006777D01*
X008866Y006304D01*
X008610Y006304D02*
X008610Y006821D01*
X009332Y007543D01*
X011132Y007543D01*
X011532Y007943D01*
X011032Y007943D02*
X010832Y007743D01*
X009232Y007743D01*
X008354Y006865D01*
X008354Y006304D01*
X007842Y006304D02*
X007842Y006304D01*
X007842Y006719D01*
X007842Y006304D01*
X007842Y006377D02*
X007842Y006377D01*
X007842Y006495D02*
X007842Y006495D01*
X007842Y006614D02*
X007842Y006614D01*
X007898Y006733D02*
X006167Y006733D01*
X006086Y006614D02*
X006610Y006614D01*
X006451Y006851D02*
X007898Y006851D01*
X007898Y006970D02*
X006569Y006970D01*
X006652Y007088D02*
X007898Y007088D01*
X007898Y007207D02*
X006652Y007207D01*
X006212Y007325D02*
X006164Y007325D01*
X006167Y007444D02*
X006212Y007444D01*
X006212Y007562D02*
X006167Y007562D01*
X006212Y007681D02*
X005792Y007681D01*
X005792Y007738D02*
X006167Y007738D01*
X006167Y007952D01*
X006158Y007988D01*
X006139Y008020D01*
X006113Y008046D01*
X006081Y008064D01*
X006046Y008074D01*
X005792Y008074D01*
X005792Y007738D01*
X005792Y007799D02*
X005672Y007799D01*
X005672Y007681D02*
X005203Y007681D01*
X005207Y007562D02*
X005297Y007562D01*
X005297Y007444D02*
X005160Y007444D01*
X005299Y007325D02*
X004988Y007325D01*
X004836Y007325D02*
X004825Y007325D01*
X004706Y007207D02*
X005297Y007207D01*
X005297Y007088D02*
X004470Y007088D01*
X004588Y006970D02*
X005297Y006970D01*
X005297Y006851D02*
X004707Y006851D01*
X004825Y006733D02*
X005297Y006733D01*
X005377Y006614D02*
X004944Y006614D01*
X004971Y006304D02*
X004217Y007058D01*
X003505Y007058D01*
X002913Y007088D02*
X000392Y007088D01*
X000392Y006970D02*
X002913Y006970D01*
X002913Y006851D02*
X000392Y006851D01*
X000392Y006733D02*
X002913Y006733D01*
X002913Y006614D02*
X000392Y006614D01*
X000392Y006495D02*
X002913Y006495D01*
X002913Y006377D02*
X000392Y006377D01*
X000392Y005547D02*
X002397Y005547D01*
X003406Y005429D02*
X003526Y005429D01*
X003526Y005310D02*
X003406Y005310D01*
X003406Y005191D02*
X003526Y005191D01*
X003526Y005073D02*
X003406Y005073D01*
X004098Y005073D02*
X004162Y005073D01*
X004162Y005191D02*
X004098Y005191D01*
X004098Y005310D02*
X004162Y005310D01*
X004091Y005429D02*
X006595Y005429D01*
X006477Y005310D02*
X005702Y005310D01*
X005306Y004993D02*
X006782Y004993D01*
X008222Y005073D02*
X008342Y005073D01*
X008358Y005191D02*
X008263Y005191D01*
X008298Y005310D02*
X008476Y005310D01*
X008969Y005429D02*
X009529Y005429D01*
X009476Y005310D02*
X009087Y005310D01*
X009206Y005191D02*
X009358Y005191D01*
X009342Y005073D02*
X009222Y005073D01*
X009782Y004993D02*
X010145Y005357D01*
X010145Y006304D01*
X010532Y006043D02*
X010732Y006043D01*
X012019Y004756D01*
X012319Y004756D01*
X012419Y004856D01*
X013938Y004856D01*
X014332Y004856D02*
X014332Y004443D01*
X019032Y004443D01*
X020082Y005493D01*
X020755Y005493D01*
X021282Y005493D01*
X022132Y004643D01*
X024432Y004643D01*
X025132Y005343D01*
X024810Y005643D02*
X024692Y005525D01*
X024692Y005186D01*
X024349Y004843D01*
X023027Y004843D01*
X023099Y004873D01*
X023182Y004956D01*
X023227Y005064D01*
X023227Y005182D01*
X023182Y005290D01*
X023132Y005340D01*
X023132Y005770D01*
X023132Y005860D01*
X023349Y005643D01*
X023515Y005643D01*
X023810Y005643D01*
X023692Y005525D01*
X023692Y005161D01*
X023950Y004903D01*
X024314Y004903D01*
X024572Y005161D01*
X024572Y005525D01*
X024454Y005643D01*
X024810Y005643D01*
X024714Y005547D02*
X024550Y005547D01*
X024572Y005429D02*
X024692Y005429D01*
X024692Y005310D02*
X024572Y005310D01*
X024572Y005191D02*
X024692Y005191D01*
X024579Y005073D02*
X024484Y005073D01*
X024460Y004954D02*
X024365Y004954D01*
X023898Y004954D02*
X023180Y004954D01*
X023227Y005073D02*
X023780Y005073D01*
X023692Y005191D02*
X023223Y005191D01*
X023162Y005310D02*
X023692Y005310D01*
X023692Y005429D02*
X023132Y005429D01*
X023132Y005547D02*
X023714Y005547D01*
X023326Y005666D02*
X023132Y005666D01*
X023132Y005784D02*
X023208Y005784D01*
X023432Y005843D02*
X023082Y006193D01*
X023315Y006377D02*
X023692Y006377D01*
X023692Y006495D02*
X022713Y006495D01*
X022717Y006377D02*
X022848Y006377D01*
X022642Y006143D02*
X022352Y006143D01*
X022282Y006178D01*
X022642Y006143D02*
X022932Y005853D01*
X022932Y005123D01*
X022637Y005125D02*
X022637Y005064D01*
X022682Y004956D01*
X022765Y004873D01*
X022837Y004843D01*
X022215Y004843D01*
X021937Y005121D01*
X021968Y005113D01*
X022222Y005113D01*
X022222Y005448D01*
X022342Y005448D01*
X022342Y005113D01*
X022596Y005113D01*
X022631Y005122D01*
X022637Y005125D01*
X022637Y005073D02*
X021985Y005073D01*
X022103Y004954D02*
X022683Y004954D01*
X022342Y005191D02*
X022222Y005191D01*
X022222Y005310D02*
X022342Y005310D01*
X022342Y005429D02*
X022222Y005429D01*
X022222Y005449D02*
X021847Y005449D01*
X021847Y005234D01*
X021855Y005203D01*
X021365Y005693D01*
X021305Y005693D01*
X021255Y005743D01*
X021328Y005817D01*
X021328Y006169D01*
X021255Y006243D01*
X021285Y006273D01*
X021291Y006273D01*
X021606Y005958D01*
X021788Y005958D01*
X021847Y005958D01*
X021847Y005864D01*
X021869Y005841D01*
X021856Y005818D01*
X021847Y005783D01*
X021847Y005568D01*
X022222Y005568D01*
X022222Y005449D01*
X022222Y005547D02*
X021511Y005547D01*
X021629Y005429D02*
X021847Y005429D01*
X021847Y005310D02*
X021748Y005310D01*
X021382Y004993D02*
X021932Y004443D01*
X025232Y004443D01*
X026132Y005343D01*
X026572Y005310D02*
X026692Y005310D01*
X026692Y005191D02*
X026572Y005191D01*
X026692Y005161D02*
X026950Y004903D01*
X027314Y004903D01*
X027572Y005161D01*
X027572Y005525D01*
X027314Y005783D01*
X026950Y005783D01*
X026692Y005525D01*
X026692Y005161D01*
X026780Y005073D02*
X026484Y005073D01*
X026365Y004954D02*
X026898Y004954D01*
X027365Y004954D02*
X027898Y004954D01*
X027950Y004903D02*
X028092Y004903D01*
X028092Y005303D01*
X028172Y005303D01*
X028172Y005383D01*
X028572Y005383D01*
X028572Y005525D01*
X028314Y005783D01*
X028172Y005783D01*
X028172Y005383D01*
X028092Y005383D01*
X028092Y005303D01*
X027692Y005303D01*
X027692Y005161D01*
X027950Y004903D01*
X028092Y004954D02*
X028172Y004954D01*
X028172Y004903D02*
X028314Y004903D01*
X028572Y005161D01*
X028572Y005303D01*
X028172Y005303D01*
X028172Y004903D01*
X028172Y005073D02*
X028092Y005073D01*
X028092Y005191D02*
X028172Y005191D01*
X028172Y005310D02*
X029072Y005310D01*
X029072Y005191D02*
X028572Y005191D01*
X028484Y005073D02*
X029072Y005073D01*
X029072Y004954D02*
X028365Y004954D01*
X027780Y005073D02*
X027484Y005073D01*
X027572Y005191D02*
X027692Y005191D01*
X027572Y005310D02*
X028092Y005310D01*
X028092Y005383D02*
X027692Y005383D01*
X027692Y005525D01*
X027950Y005783D01*
X028092Y005783D01*
X028092Y005383D01*
X028092Y005429D02*
X028172Y005429D01*
X028172Y005547D02*
X028092Y005547D01*
X028092Y005666D02*
X028172Y005666D01*
X028431Y005666D02*
X029072Y005666D01*
X029072Y005784D02*
X026856Y005784D01*
X026832Y005666D02*
X026737Y005666D01*
X026714Y005547D02*
X026550Y005547D01*
X026572Y005429D02*
X026692Y005429D01*
X026632Y005843D02*
X023432Y005843D01*
X023418Y006140D02*
X023713Y006140D01*
X023692Y006258D02*
X023374Y006258D01*
X023578Y006614D02*
X021572Y006614D01*
X021691Y006495D02*
X021850Y006495D01*
X021305Y006258D02*
X021270Y006258D01*
X021328Y006140D02*
X021424Y006140D01*
X021328Y006021D02*
X021543Y006021D01*
X021328Y005903D02*
X021847Y005903D01*
X021847Y005784D02*
X021296Y005784D01*
X021392Y005666D02*
X021847Y005666D01*
X022342Y005568D02*
X022717Y005568D01*
X022717Y005783D01*
X022716Y005786D01*
X022732Y005770D01*
X022732Y005340D01*
X022717Y005326D01*
X022717Y005449D01*
X022342Y005449D01*
X022342Y005568D01*
X022342Y005547D02*
X022732Y005547D01*
X022717Y005429D02*
X022732Y005429D01*
X022717Y005666D02*
X022732Y005666D01*
X022717Y005784D02*
X022718Y005784D01*
X024132Y006343D02*
X023032Y007443D01*
X022851Y007207D02*
X020779Y007207D01*
X020798Y007325D02*
X021266Y007325D01*
X021242Y007444D02*
X020821Y007444D01*
X020821Y007562D02*
X021242Y007562D01*
X021242Y007681D02*
X020821Y007681D01*
X020821Y007799D02*
X021242Y007799D01*
X021242Y007918D02*
X020821Y007918D01*
X020665Y008037D02*
X021398Y008037D01*
X021398Y008155D02*
X020665Y008155D01*
X020665Y008274D02*
X021398Y008274D01*
X021398Y008392D02*
X020665Y008392D01*
X020737Y008511D02*
X021227Y008511D01*
X021108Y008629D02*
X020855Y008629D01*
X020862Y008748D02*
X021102Y008748D01*
X021102Y008866D02*
X020862Y008866D01*
X020827Y008985D02*
X021136Y008985D01*
X021255Y009103D02*
X020709Y009103D01*
X020255Y009103D02*
X019712Y009103D01*
X019712Y009222D02*
X021262Y009222D01*
X021223Y009341D02*
X019712Y009341D01*
X019712Y009459D02*
X021105Y009459D01*
X020986Y009578D02*
X019712Y009578D01*
X019712Y009696D02*
X020868Y009696D01*
X020749Y009815D02*
X019712Y009815D01*
X019712Y009933D02*
X020652Y009933D01*
X020652Y010052D02*
X019712Y010052D01*
X019712Y010170D02*
X020652Y010170D01*
X020608Y010289D02*
X019756Y010289D01*
X019756Y010407D02*
X020608Y010407D01*
X020608Y010526D02*
X019756Y010526D01*
X019756Y010644D02*
X020608Y010644D01*
X020608Y010763D02*
X019756Y010763D01*
X019756Y011000D02*
X020608Y011000D01*
X020639Y011593D02*
X019724Y011593D01*
X022156Y010763D02*
X029072Y010763D01*
X029072Y010644D02*
X022156Y010644D01*
X022156Y010526D02*
X029072Y010526D01*
X029072Y010407D02*
X022156Y010407D01*
X022156Y010289D02*
X029072Y010289D01*
X029072Y010170D02*
X022216Y010170D01*
X021742Y009222D02*
X021702Y009222D01*
X021709Y009103D02*
X022255Y009103D01*
X022136Y008985D02*
X021827Y008985D01*
X021862Y008866D02*
X022102Y008866D01*
X022102Y008748D02*
X021862Y008748D01*
X021855Y008629D02*
X022108Y008629D01*
X022225Y008511D02*
X021838Y008511D01*
X021838Y008392D02*
X022225Y008392D01*
X022225Y008274D02*
X021838Y008274D01*
X021838Y008155D02*
X022225Y008155D01*
X022225Y008037D02*
X021838Y008037D01*
X021995Y007918D02*
X022069Y007918D01*
X022069Y007799D02*
X021995Y007799D01*
X021995Y007681D02*
X022069Y007681D01*
X022069Y007562D02*
X021995Y007562D01*
X021995Y007444D02*
X022069Y007444D01*
X022093Y007325D02*
X021971Y007325D01*
X020975Y006970D02*
X023222Y006970D01*
X023104Y007088D02*
X020898Y007088D01*
X020975Y006851D02*
X023341Y006851D01*
X023460Y006733D02*
X021265Y006733D01*
X020535Y006751D02*
X020264Y006751D01*
X020182Y006669D01*
X020182Y006317D01*
X020256Y006243D01*
X020226Y006213D01*
X020073Y006213D01*
X019891Y006213D01*
X019391Y005713D01*
X019237Y005713D01*
X019207Y005743D01*
X019281Y005817D01*
X019281Y006169D01*
X019207Y006243D01*
X019281Y006317D01*
X019281Y006669D01*
X019199Y006751D01*
X018217Y006751D01*
X018209Y006743D01*
X018119Y006743D01*
X018069Y006793D01*
X017960Y006838D01*
X017843Y006838D01*
X017735Y006793D01*
X017652Y006710D01*
X017607Y006602D01*
X017607Y006484D01*
X017652Y006376D01*
X017735Y006293D01*
X017843Y006248D01*
X017960Y006248D01*
X018069Y006293D01*
X018119Y006343D01*
X018135Y006343D01*
X018135Y006317D01*
X018209Y006243D01*
X018159Y006193D01*
X017999Y006193D01*
X017732Y005926D01*
X017732Y005760D01*
X017682Y005710D01*
X017637Y005602D01*
X017637Y005484D01*
X017682Y005376D01*
X017765Y005293D01*
X017873Y005248D01*
X017990Y005248D01*
X018099Y005293D01*
X018135Y005329D01*
X018135Y005317D01*
X018214Y005238D01*
X018189Y005223D01*
X018163Y005197D01*
X018145Y005165D01*
X018135Y005130D01*
X018135Y004993D01*
X018135Y004857D01*
X018145Y004821D01*
X018163Y004789D01*
X018189Y004763D01*
X018221Y004745D01*
X018257Y004735D01*
X018708Y004735D01*
X018708Y004993D01*
X018135Y004993D01*
X018708Y004993D01*
X018708Y004993D01*
X018708Y004993D01*
X018708Y004735D01*
X019041Y004735D01*
X018949Y004643D01*
X017062Y004643D01*
X017062Y004883D01*
X016727Y004883D01*
X016727Y005003D01*
X017062Y005003D01*
X017062Y005257D01*
X017053Y005292D01*
X017034Y005324D01*
X017008Y005350D01*
X016976Y005369D01*
X016941Y005378D01*
X016726Y005378D01*
X016726Y005003D01*
X016606Y005003D01*
X016606Y005378D01*
X016392Y005378D01*
X016356Y005369D01*
X016334Y005356D01*
X016311Y005378D01*
X016217Y005378D01*
X016217Y005834D01*
X016217Y005908D01*
X016311Y005908D01*
X016334Y005931D01*
X016356Y005917D01*
X016392Y005908D01*
X016606Y005908D01*
X016606Y006283D01*
X016726Y006283D01*
X016726Y005908D01*
X016941Y005908D01*
X016976Y005917D01*
X017008Y005936D01*
X017034Y005962D01*
X017053Y005994D01*
X017062Y006029D01*
X017062Y006283D01*
X016727Y006283D01*
X016727Y006403D01*
X017062Y006403D01*
X017062Y006657D01*
X017053Y006692D01*
X017034Y006724D01*
X017008Y006750D01*
X016976Y006769D01*
X016941Y006778D01*
X016726Y006778D01*
X016726Y006403D01*
X016606Y006403D01*
X016606Y006778D01*
X016392Y006778D01*
X016356Y006769D01*
X016334Y006756D01*
X016311Y006778D01*
X016217Y006778D01*
X016217Y006923D01*
X020441Y006923D01*
X020535Y006828D01*
X020535Y006751D01*
X020513Y006851D02*
X016217Y006851D01*
X016606Y006733D02*
X016726Y006733D01*
X016726Y006614D02*
X016606Y006614D01*
X016606Y006495D02*
X016726Y006495D01*
X016727Y006377D02*
X017651Y006377D01*
X017607Y006495D02*
X017062Y006495D01*
X017062Y006614D02*
X017612Y006614D01*
X017674Y006733D02*
X017026Y006733D01*
X017902Y006543D02*
X018652Y006543D01*
X018702Y006493D01*
X018708Y006493D01*
X019218Y006733D02*
X020246Y006733D01*
X020182Y006614D02*
X019281Y006614D01*
X019281Y006495D02*
X020182Y006495D01*
X020182Y006377D02*
X019281Y006377D01*
X019223Y006258D02*
X020241Y006258D01*
X019817Y006140D02*
X019281Y006140D01*
X019281Y006021D02*
X019699Y006021D01*
X019580Y005903D02*
X019281Y005903D01*
X019248Y005784D02*
X019462Y005784D01*
X019965Y005666D02*
X019972Y005666D01*
X019999Y005693D02*
X019281Y004975D01*
X019281Y004993D01*
X018709Y004993D01*
X018709Y004993D01*
X019281Y004993D01*
X019281Y005130D01*
X019272Y005165D01*
X019253Y005197D01*
X019227Y005223D01*
X019202Y005238D01*
X019237Y005273D01*
X019391Y005273D01*
X019573Y005273D01*
X020073Y005773D01*
X020226Y005773D01*
X020256Y005743D01*
X020206Y005693D01*
X020165Y005693D01*
X019999Y005693D01*
X019853Y005547D02*
X019847Y005547D01*
X019734Y005429D02*
X019728Y005429D01*
X019616Y005310D02*
X019610Y005310D01*
X019497Y005191D02*
X019257Y005191D01*
X019281Y005073D02*
X019379Y005073D01*
X019832Y004743D02*
X020082Y004993D01*
X020755Y004993D01*
X021382Y004993D01*
X019023Y004717D02*
X017062Y004717D01*
X017062Y004836D02*
X018141Y004836D01*
X018135Y004954D02*
X016727Y004954D01*
X016726Y005073D02*
X016606Y005073D01*
X016606Y005191D02*
X016726Y005191D01*
X016726Y005310D02*
X016606Y005310D01*
X016217Y005429D02*
X017660Y005429D01*
X017637Y005547D02*
X016217Y005547D01*
X016217Y005666D02*
X017663Y005666D01*
X017732Y005784D02*
X016217Y005784D01*
X016217Y005903D02*
X017732Y005903D01*
X017827Y006021D02*
X017060Y006021D01*
X017062Y006140D02*
X017946Y006140D01*
X017985Y006258D02*
X018194Y006258D01*
X017818Y006258D02*
X017062Y006258D01*
X016726Y006258D02*
X016606Y006258D01*
X016606Y006140D02*
X016726Y006140D01*
X016726Y006021D02*
X016606Y006021D01*
X015601Y006021D02*
X015043Y006021D01*
X015043Y006115D01*
X014726Y006115D01*
X014726Y006116D01*
X015043Y006116D01*
X015043Y006252D01*
X015042Y006254D01*
X015043Y006254D01*
X015043Y006607D01*
X014961Y006689D01*
X014945Y006689D01*
X014945Y006923D01*
X015777Y006923D01*
X015777Y006778D01*
X015683Y006778D01*
X015601Y006696D01*
X015601Y006021D01*
X015043Y006021D01*
X015043Y006140D02*
X015601Y006140D01*
X015601Y006258D02*
X015043Y006258D01*
X015043Y006377D02*
X015601Y006377D01*
X015601Y006495D02*
X015043Y006495D01*
X015035Y006614D02*
X015601Y006614D01*
X015637Y006733D02*
X014945Y006733D01*
X014945Y006851D02*
X015777Y006851D01*
X014332Y006743D02*
X014332Y006431D01*
X013938Y006431D02*
X013319Y006431D01*
X013032Y006143D01*
X013032Y005843D01*
X011832Y005843D01*
X011532Y006143D01*
X011532Y006443D01*
X011982Y006443D02*
X012832Y006443D01*
X013282Y006893D01*
X014182Y006893D01*
X014332Y006743D01*
X013938Y006116D02*
X013604Y006116D01*
X013432Y005943D01*
X013432Y005593D01*
X013332Y005493D01*
X011882Y005493D01*
X011132Y006243D01*
X011132Y006443D01*
X010632Y006443D02*
X011904Y005171D01*
X012832Y005171D01*
X013938Y005171D01*
X014726Y005171D02*
X015043Y005171D01*
X015043Y005307D01*
X015042Y005309D01*
X015043Y005310D01*
X015615Y005310D01*
X015601Y005296D02*
X015601Y005076D01*
X015043Y005076D01*
X015043Y005170D01*
X014726Y005170D01*
X014726Y005171D01*
X015043Y005191D02*
X015601Y005191D01*
X015601Y005296D02*
X015683Y005378D01*
X015777Y005378D01*
X015777Y005581D01*
X015043Y005581D01*
X015043Y005310D01*
X015043Y005429D02*
X015777Y005429D01*
X015777Y005547D02*
X015043Y005547D01*
X017043Y005310D02*
X017748Y005310D01*
X018116Y005310D02*
X018142Y005310D01*
X018160Y005191D02*
X017062Y005191D01*
X017062Y005073D02*
X018135Y005073D01*
X018708Y004954D02*
X018708Y004954D01*
X018708Y004836D02*
X018708Y004836D01*
X017932Y005543D02*
X017932Y005843D01*
X018082Y005993D01*
X018708Y005993D01*
X019995Y007444D02*
X020069Y007444D01*
X020069Y007562D02*
X019995Y007562D01*
X019995Y007681D02*
X020069Y007681D01*
X020069Y007799D02*
X019995Y007799D01*
X019995Y007918D02*
X020069Y007918D01*
X020225Y008037D02*
X019838Y008037D01*
X019838Y008155D02*
X020225Y008155D01*
X020225Y008274D02*
X019838Y008274D01*
X019838Y008392D02*
X020225Y008392D01*
X020225Y008511D02*
X019838Y008511D01*
X019855Y008629D02*
X020108Y008629D01*
X020102Y008748D02*
X019862Y008748D01*
X019862Y008866D02*
X020102Y008866D01*
X020136Y008985D02*
X019827Y008985D01*
X016537Y010289D02*
X016460Y010289D01*
X016460Y010407D02*
X016537Y010407D01*
X016537Y010526D02*
X016460Y010526D01*
X016460Y010644D02*
X016537Y010644D01*
X016537Y010763D02*
X016460Y010763D01*
X016460Y010882D02*
X016537Y010882D01*
X016143Y010882D02*
X015756Y010882D01*
X015764Y011000D02*
X016145Y011000D01*
X016083Y010763D02*
X015767Y010763D01*
X015767Y010644D02*
X016083Y010644D01*
X016083Y010526D02*
X015392Y010526D01*
X015392Y010509D02*
X015767Y010509D01*
X015767Y010295D01*
X015758Y010259D01*
X015739Y010227D01*
X015713Y010201D01*
X015681Y010183D01*
X015646Y010173D01*
X015392Y010173D01*
X015392Y010509D01*
X015392Y010407D02*
X015272Y010407D01*
X015272Y010509D02*
X015272Y010173D01*
X015018Y010173D01*
X014982Y010183D01*
X014951Y010201D01*
X014924Y010227D01*
X014906Y010259D01*
X014897Y010295D01*
X014897Y010509D01*
X015272Y010509D01*
X015272Y010526D02*
X014567Y010526D01*
X014567Y010644D02*
X014897Y010644D01*
X014897Y010763D02*
X014567Y010763D01*
X014567Y010882D02*
X014908Y010882D01*
X014900Y011000D02*
X014564Y011000D01*
X014132Y010569D02*
X014132Y010243D01*
X012532Y008643D01*
X010032Y008643D01*
X009889Y008786D01*
X009889Y009183D01*
X009633Y009183D02*
X009633Y008445D01*
X009732Y008343D01*
X009377Y008789D02*
X009232Y008643D01*
X009377Y008789D02*
X009377Y009183D01*
X010145Y009183D02*
X010492Y009183D01*
X010532Y009143D01*
X010786Y008985D02*
X012591Y008985D01*
X012482Y009103D02*
X012362Y009103D01*
X012362Y009222D02*
X012482Y009222D01*
X012482Y009341D02*
X012362Y009341D01*
X012362Y009459D02*
X011696Y009459D01*
X011696Y009341D02*
X011967Y009341D01*
X011967Y009222D02*
X011696Y009222D01*
X011690Y009103D02*
X011983Y009103D01*
X012472Y008866D02*
X010634Y008866D01*
X010429Y008866D02*
X010354Y008866D01*
X010632Y009443D02*
X011241Y009443D01*
X011696Y009578D02*
X011967Y009578D01*
X011967Y009696D02*
X011696Y009696D01*
X011658Y009815D02*
X012005Y009815D01*
X012877Y009696D02*
X013302Y009696D01*
X013183Y009578D02*
X012877Y009578D01*
X012877Y009341D02*
X012946Y009341D01*
X013658Y010052D02*
X008723Y010052D01*
X008605Y009933D02*
X008939Y009933D01*
X008821Y009815D02*
X008486Y009815D01*
X008368Y009696D02*
X008702Y009696D01*
X008354Y009578D02*
X008354Y009578D01*
X008354Y009459D02*
X008354Y009459D01*
X008354Y009341D02*
X008354Y009341D01*
X008354Y009222D02*
X008354Y009222D01*
X008354Y009182D02*
X008354Y008768D01*
X008354Y009182D01*
X008354Y009182D01*
X008354Y009103D02*
X008354Y009103D01*
X008354Y008985D02*
X008354Y008985D01*
X008354Y008866D02*
X008354Y008866D01*
X008410Y008748D02*
X007910Y008748D01*
X008163Y008629D02*
X008410Y008629D01*
X007932Y008443D02*
X007586Y008789D01*
X007586Y009183D01*
X007330Y009183D02*
X007330Y008545D01*
X007532Y008343D01*
X007761Y008155D02*
X007856Y008155D01*
X007132Y008143D02*
X007074Y008186D01*
X007074Y009183D01*
X006818Y009183D02*
X006779Y009143D01*
X006432Y009143D01*
X006543Y009343D02*
X006523Y009363D01*
X006488Y009398D01*
X006306Y009398D01*
X006167Y009398D01*
X006167Y009492D01*
X006085Y009574D01*
X005952Y009574D01*
X005952Y009834D01*
X005823Y009963D01*
X005573Y010213D01*
X006085Y010213D01*
X006167Y010295D01*
X006167Y010543D01*
X006254Y010543D01*
X006324Y010473D01*
X007642Y010473D01*
X007642Y009597D01*
X007460Y009597D01*
X007458Y009596D01*
X007457Y009597D01*
X007204Y009597D01*
X007202Y009596D01*
X007201Y009597D01*
X006948Y009597D01*
X006946Y009596D01*
X006945Y009597D01*
X006692Y009597D01*
X006610Y009516D01*
X006610Y009343D01*
X006543Y009343D01*
X006610Y009459D02*
X006167Y009459D01*
X005952Y009578D02*
X006672Y009578D01*
X005952Y009696D02*
X007642Y009696D01*
X007642Y009815D02*
X005952Y009815D01*
X005853Y009933D02*
X007642Y009933D01*
X007642Y010052D02*
X005734Y010052D01*
X005616Y010170D02*
X007642Y010170D01*
X007642Y010289D02*
X006161Y010289D01*
X006167Y010407D02*
X007642Y010407D01*
X008042Y010407D02*
X008513Y010407D01*
X008593Y010526D02*
X008632Y010526D01*
X008622Y010644D02*
X008750Y010644D01*
X008869Y010763D02*
X008622Y010763D01*
X008622Y010882D02*
X008987Y010882D01*
X009106Y011000D02*
X008622Y011000D01*
X008622Y011119D02*
X009225Y011119D01*
X009382Y010993D02*
X008098Y009709D01*
X008098Y009183D01*
X007842Y009183D02*
X007842Y010933D01*
X007832Y010943D01*
X007482Y010943D01*
X007432Y010993D01*
X007182Y010743D01*
X005832Y010743D01*
X005747Y010659D01*
X005732Y010609D01*
X005297Y010644D02*
X005247Y010644D01*
X005247Y010526D02*
X005297Y010526D01*
X005297Y010763D02*
X005247Y010763D01*
X005297Y010882D02*
X005191Y010882D01*
X005297Y011000D02*
X003960Y011000D01*
X003970Y010882D02*
X004472Y010882D01*
X004416Y010763D02*
X004006Y010763D01*
X004006Y011119D02*
X005297Y011119D01*
X005193Y011207D02*
X005219Y011233D01*
X005238Y011265D01*
X005247Y011300D01*
X005247Y011574D01*
X004892Y011574D01*
X004892Y011179D01*
X005126Y011179D01*
X005161Y011188D01*
X005193Y011207D01*
X005222Y011237D02*
X005672Y011237D01*
X005672Y011356D02*
X005792Y011356D01*
X005792Y011338D02*
X005792Y011674D01*
X006046Y011674D01*
X006081Y011664D01*
X006113Y011646D01*
X006139Y011620D01*
X006158Y011588D01*
X006167Y011552D01*
X006167Y011338D01*
X005792Y011338D01*
X005792Y011237D02*
X006242Y011237D01*
X006242Y011119D02*
X006167Y011119D01*
X006166Y011000D02*
X006242Y011000D01*
X006242Y011356D02*
X006167Y011356D01*
X006167Y011474D02*
X006285Y011474D01*
X006155Y011593D02*
X012509Y011593D01*
X012497Y011474D02*
X012379Y011474D01*
X012422Y011356D02*
X012497Y011356D01*
X012422Y011237D02*
X012872Y011237D01*
X012872Y011356D02*
X012992Y011356D01*
X012992Y011338D02*
X012992Y011674D01*
X013246Y011674D01*
X013281Y011664D01*
X013313Y011646D01*
X013339Y011620D01*
X013358Y011588D01*
X013367Y011552D01*
X013367Y011338D01*
X012992Y011338D01*
X012992Y011237D02*
X013697Y011237D01*
X013697Y011119D02*
X013367Y011119D01*
X013366Y011000D02*
X013700Y011000D01*
X013697Y010882D02*
X013367Y010882D01*
X013367Y010763D02*
X013697Y010763D01*
X013697Y010644D02*
X013367Y010644D01*
X013367Y010526D02*
X013697Y010526D01*
X013697Y010407D02*
X013367Y010407D01*
X013361Y010289D02*
X013697Y010289D01*
X013779Y010173D02*
X013779Y010173D01*
X013776Y010170D02*
X008842Y010170D01*
X008960Y010289D02*
X012502Y010289D01*
X012497Y010407D02*
X009079Y010407D01*
X009197Y010526D02*
X010071Y010526D01*
X010042Y010644D02*
X009316Y010644D01*
X009435Y010763D02*
X010042Y010763D01*
X010042Y011237D02*
X008622Y011237D01*
X008622Y011356D02*
X010042Y011356D01*
X010085Y011474D02*
X008579Y011474D01*
X009382Y010993D02*
X011232Y010993D01*
X011482Y010743D01*
X012832Y010743D01*
X012916Y010659D01*
X012932Y010609D01*
X012497Y010526D02*
X012393Y010526D01*
X012422Y011000D02*
X012497Y011000D01*
X012497Y011119D02*
X012422Y011119D01*
X012872Y011474D02*
X012992Y011474D01*
X012992Y011593D02*
X012872Y011593D01*
X013355Y011593D02*
X013697Y011593D01*
X013697Y011474D02*
X013367Y011474D01*
X013367Y011356D02*
X013697Y011356D01*
X013777Y011711D02*
X005247Y011711D01*
X005247Y011830D02*
X029072Y011830D01*
X029072Y011948D02*
X005247Y011948D01*
X005182Y012067D02*
X029072Y012067D01*
X029072Y010052D02*
X026534Y010052D01*
X026653Y009933D02*
X029072Y009933D01*
X029072Y009815D02*
X026771Y009815D01*
X026890Y009696D02*
X029072Y009696D01*
X029072Y009578D02*
X027008Y009578D01*
X027127Y009459D02*
X029072Y009459D01*
X029072Y009341D02*
X027246Y009341D01*
X027364Y009222D02*
X029072Y009222D01*
X029072Y009103D02*
X028709Y009103D01*
X028639Y009173D02*
X028324Y009173D01*
X028102Y008951D01*
X028102Y008636D01*
X028225Y008512D01*
X028225Y008019D01*
X028151Y008019D01*
X028069Y007937D01*
X028069Y007349D01*
X028151Y007267D01*
X028739Y007267D01*
X028821Y007349D01*
X028821Y007937D01*
X028739Y008019D01*
X028665Y008019D01*
X028665Y008439D01*
X028862Y008636D01*
X028862Y008951D01*
X028639Y009173D01*
X028827Y008985D02*
X029072Y008985D01*
X029072Y008866D02*
X028862Y008866D01*
X028862Y008748D02*
X029072Y008748D01*
X029072Y008629D02*
X028855Y008629D01*
X028737Y008511D02*
X029072Y008511D01*
X029072Y008392D02*
X028665Y008392D01*
X028665Y008274D02*
X029072Y008274D01*
X029072Y008155D02*
X028665Y008155D01*
X028665Y008037D02*
X029072Y008037D01*
X029072Y007918D02*
X028821Y007918D01*
X028821Y007799D02*
X029072Y007799D01*
X029072Y007681D02*
X028821Y007681D01*
X028821Y007562D02*
X029072Y007562D01*
X029072Y007444D02*
X028821Y007444D01*
X028798Y007325D02*
X029072Y007325D01*
X029072Y007207D02*
X023551Y007207D01*
X023670Y007088D02*
X029072Y007088D01*
X029072Y006970D02*
X023788Y006970D01*
X023907Y006851D02*
X029072Y006851D01*
X029072Y006733D02*
X028365Y006733D01*
X028314Y006783D02*
X027950Y006783D01*
X027692Y006525D01*
X027692Y006161D01*
X027950Y005903D01*
X028314Y005903D01*
X028572Y006161D01*
X028572Y006525D01*
X028314Y006783D01*
X028483Y006614D02*
X029072Y006614D01*
X029072Y006495D02*
X028572Y006495D01*
X028572Y006377D02*
X029072Y006377D01*
X029072Y006258D02*
X028572Y006258D01*
X028551Y006140D02*
X029072Y006140D01*
X029072Y006021D02*
X028432Y006021D01*
X027831Y006021D02*
X027432Y006021D01*
X027551Y006140D02*
X027713Y006140D01*
X027692Y006258D02*
X027572Y006258D01*
X027572Y006377D02*
X027692Y006377D01*
X027692Y006495D02*
X027572Y006495D01*
X027483Y006614D02*
X027780Y006614D01*
X027899Y006733D02*
X027365Y006733D01*
X026899Y006733D02*
X026365Y006733D01*
X026483Y006614D02*
X026780Y006614D01*
X026692Y006495D02*
X026572Y006495D01*
X026572Y006377D02*
X026692Y006377D01*
X026692Y006258D02*
X026572Y006258D01*
X026551Y006140D02*
X026646Y006140D01*
X026974Y005903D02*
X029072Y005903D01*
X029072Y005547D02*
X028550Y005547D01*
X028572Y005429D02*
X029072Y005429D01*
X027832Y005666D02*
X027431Y005666D01*
X027550Y005547D02*
X027714Y005547D01*
X027692Y005429D02*
X027572Y005429D01*
X027132Y006343D02*
X026632Y005843D01*
X025713Y006140D02*
X025551Y006140D01*
X025572Y006258D02*
X025692Y006258D01*
X025692Y006377D02*
X025572Y006377D01*
X025572Y006495D02*
X025692Y006495D01*
X025780Y006614D02*
X025483Y006614D01*
X025365Y006733D02*
X025899Y006733D01*
X026151Y007267D02*
X026739Y007267D01*
X026821Y007349D01*
X026821Y007937D01*
X026739Y008019D01*
X026665Y008019D01*
X026665Y008439D01*
X026862Y008636D01*
X026862Y008951D01*
X026639Y009173D01*
X026324Y009173D01*
X026102Y008951D01*
X026102Y008636D01*
X026225Y008512D01*
X026225Y008019D01*
X026151Y008019D01*
X026069Y007937D01*
X026069Y007349D01*
X026151Y007267D01*
X026093Y007325D02*
X025971Y007325D01*
X025995Y007444D02*
X026069Y007444D01*
X026069Y007562D02*
X025995Y007562D01*
X025995Y007681D02*
X026069Y007681D01*
X026069Y007799D02*
X025995Y007799D01*
X025995Y007918D02*
X026069Y007918D01*
X026225Y008037D02*
X025838Y008037D01*
X025838Y008155D02*
X026225Y008155D01*
X026225Y008274D02*
X025838Y008274D01*
X025838Y008392D02*
X026225Y008392D01*
X026225Y008511D02*
X025838Y008511D01*
X025855Y008629D02*
X026108Y008629D01*
X026102Y008748D02*
X025862Y008748D01*
X025862Y008866D02*
X026102Y008866D01*
X026136Y008985D02*
X025827Y008985D01*
X025709Y009103D02*
X026255Y009103D01*
X026623Y009341D02*
X025246Y009341D01*
X025127Y009459D02*
X026505Y009459D01*
X026386Y009578D02*
X025008Y009578D01*
X024890Y009696D02*
X026268Y009696D01*
X026742Y009222D02*
X025364Y009222D01*
X024979Y008985D02*
X024827Y008985D01*
X024862Y008951D02*
X024639Y009173D01*
X024324Y009173D01*
X024102Y008951D01*
X024102Y008636D01*
X024225Y008512D01*
X024225Y008019D01*
X024151Y008019D01*
X024069Y007937D01*
X024069Y007349D01*
X024151Y007267D01*
X024739Y007267D01*
X024821Y007349D01*
X024821Y007937D01*
X024739Y008019D01*
X024665Y008019D01*
X024665Y008439D01*
X024862Y008636D01*
X024862Y008951D01*
X024862Y008866D02*
X025097Y008866D01*
X025102Y008748D02*
X024862Y008748D01*
X024855Y008629D02*
X025108Y008629D01*
X025227Y008511D02*
X024737Y008511D01*
X024665Y008392D02*
X025398Y008392D01*
X025398Y008274D02*
X024665Y008274D01*
X024665Y008155D02*
X025398Y008155D01*
X025398Y008037D02*
X024665Y008037D01*
X024821Y007918D02*
X025242Y007918D01*
X025242Y007799D02*
X024821Y007799D01*
X024821Y007681D02*
X025242Y007681D01*
X025242Y007562D02*
X024821Y007562D01*
X024821Y007444D02*
X025242Y007444D01*
X025266Y007325D02*
X024798Y007325D01*
X024093Y007325D02*
X023971Y007325D01*
X023995Y007444D02*
X024069Y007444D01*
X024069Y007562D02*
X023995Y007562D01*
X023995Y007681D02*
X024069Y007681D01*
X024069Y007799D02*
X023995Y007799D01*
X023995Y007918D02*
X024069Y007918D01*
X024225Y008037D02*
X023838Y008037D01*
X023838Y008155D02*
X024225Y008155D01*
X024225Y008274D02*
X023838Y008274D01*
X023838Y008392D02*
X024225Y008392D01*
X024225Y008511D02*
X023838Y008511D01*
X023855Y008629D02*
X024108Y008629D01*
X024102Y008748D02*
X023862Y008748D01*
X023862Y008866D02*
X024102Y008866D01*
X024136Y008985D02*
X023827Y008985D01*
X023709Y009103D02*
X024255Y009103D01*
X024623Y009341D02*
X023246Y009341D01*
X023364Y009222D02*
X024742Y009222D01*
X024709Y009103D02*
X024860Y009103D01*
X026709Y009103D02*
X026860Y009103D01*
X026827Y008985D02*
X026979Y008985D01*
X026862Y008866D02*
X027097Y008866D01*
X027102Y008748D02*
X026862Y008748D01*
X026855Y008629D02*
X027108Y008629D01*
X027227Y008511D02*
X026737Y008511D01*
X026665Y008392D02*
X027398Y008392D01*
X027398Y008274D02*
X026665Y008274D01*
X026665Y008155D02*
X027398Y008155D01*
X027398Y008037D02*
X026665Y008037D01*
X026821Y007918D02*
X027242Y007918D01*
X027242Y007799D02*
X026821Y007799D01*
X026821Y007681D02*
X027242Y007681D01*
X027242Y007562D02*
X026821Y007562D01*
X026821Y007444D02*
X027242Y007444D01*
X027266Y007325D02*
X026798Y007325D01*
X027971Y007325D02*
X028093Y007325D01*
X028069Y007444D02*
X027995Y007444D01*
X027995Y007562D02*
X028069Y007562D01*
X028069Y007681D02*
X027995Y007681D01*
X027995Y007799D02*
X028069Y007799D01*
X028069Y007918D02*
X027995Y007918D01*
X027838Y008037D02*
X028225Y008037D01*
X028225Y008155D02*
X027838Y008155D01*
X027838Y008274D02*
X028225Y008274D01*
X028225Y008392D02*
X027838Y008392D01*
X027838Y008511D02*
X028225Y008511D01*
X028108Y008629D02*
X027855Y008629D01*
X027862Y008748D02*
X028102Y008748D01*
X028102Y008866D02*
X027862Y008866D01*
X027827Y008985D02*
X028136Y008985D01*
X028255Y009103D02*
X027709Y009103D01*
X024899Y006733D02*
X024365Y006733D01*
X024483Y006614D02*
X024780Y006614D01*
X024692Y006495D02*
X024572Y006495D01*
X024572Y006377D02*
X024692Y006377D01*
X024692Y006258D02*
X024572Y006258D01*
X024551Y006140D02*
X024713Y006140D01*
X025907Y004836D02*
X029072Y004836D01*
X029072Y004717D02*
X025789Y004717D01*
X025670Y004599D02*
X029072Y004599D01*
X029072Y004480D02*
X025552Y004480D01*
X014332Y004443D02*
X012032Y004443D01*
X010832Y005643D01*
X010632Y005643D01*
X011442Y004553D02*
X011382Y004493D01*
X009402Y004493D01*
X009342Y004553D01*
X011442Y004553D02*
X011462Y004553D01*
X007782Y005713D02*
X007592Y005903D01*
X007592Y006303D01*
X007586Y006304D01*
X007330Y006304D02*
X007330Y005645D01*
X007332Y005743D01*
X007074Y005936D02*
X006932Y005793D01*
X005082Y005793D01*
X004132Y006743D01*
X003505Y006743D01*
X004098Y006377D02*
X004215Y006377D01*
X004334Y006258D02*
X004091Y006258D01*
X004098Y006140D02*
X004452Y006140D01*
X004098Y006113D02*
X003506Y006113D01*
X003506Y005875D01*
X003977Y005875D01*
X004012Y005884D01*
X004044Y005903D01*
X003506Y005903D02*
X003505Y005903D01*
X003505Y006021D02*
X003506Y006021D01*
X004971Y006304D02*
X006818Y006304D01*
X007074Y006304D02*
X007074Y005936D01*
X004162Y004836D02*
X004098Y004836D01*
X004098Y004717D02*
X004162Y004717D01*
X004203Y004599D02*
X004098Y004599D01*
X004035Y004480D02*
X004412Y004480D01*
X003526Y004480D02*
X003406Y004480D01*
X003406Y004599D02*
X003526Y004599D01*
X003526Y004717D02*
X003406Y004717D01*
X001361Y005073D02*
X001241Y005073D01*
X001241Y005191D02*
X001361Y005191D01*
X001361Y005310D02*
X001241Y005310D01*
X001241Y005429D02*
X001361Y005429D01*
X000675Y005429D02*
X000392Y005429D01*
X000392Y005310D02*
X000669Y005310D01*
X000669Y005191D02*
X000392Y005191D01*
X000392Y005073D02*
X000669Y005073D01*
X000392Y007207D02*
X002913Y007207D01*
X002913Y007325D02*
X002675Y007325D01*
X002778Y007444D02*
X002913Y007444D01*
X002946Y007562D02*
X002819Y007562D01*
X002289Y007325D02*
X000392Y007325D01*
X000392Y007444D02*
X002185Y007444D01*
X002145Y007562D02*
X000392Y007562D01*
X000392Y007681D02*
X002147Y007681D01*
X002196Y007799D02*
X000392Y007799D01*
X000392Y007918D02*
X002346Y007918D01*
X002327Y008037D02*
X001917Y008037D01*
X001923Y008047D02*
X001933Y008083D01*
X001933Y008435D01*
X001361Y008435D01*
X001361Y008555D01*
X001933Y008555D01*
X001933Y008907D01*
X001923Y008943D01*
X001905Y008975D01*
X001879Y009001D01*
X001847Y009019D01*
X001811Y009029D01*
X001361Y009029D01*
X001361Y008555D01*
X001241Y008555D01*
X001241Y009029D01*
X000790Y009029D01*
X000755Y009019D01*
X000723Y009001D01*
X000697Y008975D01*
X000678Y008943D01*
X000669Y008907D01*
X000669Y008555D01*
X001241Y008555D01*
X001241Y008435D01*
X001361Y008435D01*
X001361Y007961D01*
X001811Y007961D01*
X001847Y007971D01*
X001879Y007989D01*
X001905Y008015D01*
X001923Y008047D01*
X001933Y008155D02*
X002312Y008155D01*
X002312Y008274D02*
X001933Y008274D01*
X001933Y008392D02*
X002312Y008392D01*
X002312Y008511D02*
X001361Y008511D01*
X001361Y008629D02*
X001241Y008629D01*
X001241Y008511D02*
X000392Y008511D01*
X000392Y008629D02*
X000669Y008629D01*
X000669Y008748D02*
X000392Y008748D01*
X000392Y008866D02*
X000669Y008866D01*
X000707Y008985D02*
X000392Y008985D01*
X000392Y009103D02*
X002312Y009103D01*
X002312Y008985D02*
X001895Y008985D01*
X001933Y008866D02*
X002312Y008866D01*
X002312Y008748D02*
X001933Y008748D01*
X001933Y008629D02*
X002312Y008629D01*
X002752Y008629D02*
X002834Y008629D01*
X002834Y008555D02*
X003406Y008555D01*
X003406Y009029D01*
X002955Y009029D01*
X002920Y009019D01*
X002888Y009001D01*
X002862Y008975D01*
X002843Y008943D01*
X002834Y008907D01*
X002834Y008555D01*
X002752Y008511D02*
X003406Y008511D01*
X003406Y008629D02*
X003526Y008629D01*
X003526Y008511D02*
X004416Y008511D01*
X004416Y008392D02*
X004098Y008392D01*
X004098Y008274D02*
X004416Y008274D01*
X004416Y008155D02*
X004098Y008155D01*
X004082Y008037D02*
X004416Y008037D01*
X004416Y007918D02*
X003568Y007918D01*
X003526Y008037D02*
X003449Y008037D01*
X003406Y008155D02*
X003526Y008155D01*
X003526Y008274D02*
X003406Y008274D01*
X003406Y008392D02*
X003526Y008392D01*
X004098Y008629D02*
X005297Y008629D01*
X005297Y008748D02*
X004098Y008748D01*
X004098Y008866D02*
X005297Y008866D01*
X005219Y008933D02*
X005238Y008965D01*
X005247Y009000D01*
X005247Y009274D01*
X004892Y009274D01*
X004892Y008879D01*
X005126Y008879D01*
X005161Y008888D01*
X005193Y008907D01*
X005219Y008933D01*
X005243Y008985D02*
X005297Y008985D01*
X005297Y009103D02*
X005247Y009103D01*
X005247Y009222D02*
X005297Y009222D01*
X005297Y009341D02*
X004892Y009341D01*
X004892Y009394D02*
X005247Y009394D01*
X005247Y009667D01*
X005238Y009703D01*
X005219Y009735D01*
X005193Y009761D01*
X005161Y009779D01*
X005126Y009789D01*
X004892Y009789D01*
X004892Y009394D01*
X004892Y009459D02*
X004772Y009459D01*
X004772Y009578D02*
X004892Y009578D01*
X004892Y009696D02*
X004772Y009696D01*
X004432Y009815D02*
X005349Y009815D01*
X005240Y009696D02*
X005468Y009696D01*
X005512Y009578D02*
X005247Y009578D01*
X005247Y009459D02*
X005297Y009459D01*
X004892Y009222D02*
X004772Y009222D01*
X004772Y009103D02*
X004892Y009103D01*
X004892Y008985D02*
X004772Y008985D01*
X004420Y008985D02*
X004060Y008985D01*
X004036Y009222D02*
X003987Y009222D01*
X004232Y009443D02*
X004232Y010493D01*
X004032Y010170D02*
X004006Y010170D01*
X004032Y010052D02*
X002752Y010052D01*
X002752Y010170D02*
X002938Y010170D01*
X002938Y010289D02*
X002752Y010289D01*
X002752Y010407D02*
X002938Y010407D01*
X002938Y010526D02*
X002752Y010526D01*
X002752Y010644D02*
X002938Y010644D01*
X002938Y010763D02*
X002752Y010763D01*
X002752Y010882D02*
X002973Y010882D01*
X002984Y011000D02*
X002752Y011000D01*
X002818Y011119D02*
X002938Y011119D01*
X002433Y011356D02*
X001469Y011356D01*
X001443Y011381D02*
X001525Y011299D01*
X001525Y009687D01*
X001443Y009605D01*
X000540Y009605D01*
X000458Y009687D01*
X000458Y011299D01*
X000540Y011381D01*
X001443Y011381D01*
X001525Y011237D02*
X002315Y011237D01*
X002312Y011119D02*
X001525Y011119D01*
X001525Y011000D02*
X002312Y011000D01*
X002312Y010882D02*
X001525Y010882D01*
X001525Y010763D02*
X002312Y010763D01*
X002312Y010644D02*
X001525Y010644D01*
X001525Y010526D02*
X002312Y010526D01*
X002312Y010407D02*
X001525Y010407D01*
X001525Y010289D02*
X002312Y010289D01*
X002312Y010170D02*
X001525Y010170D01*
X001525Y010052D02*
X002312Y010052D01*
X002312Y009933D02*
X001525Y009933D01*
X001525Y009815D02*
X002312Y009815D01*
X002312Y009696D02*
X001525Y009696D01*
X002312Y009578D02*
X000392Y009578D01*
X000392Y009696D02*
X000458Y009696D01*
X000458Y009815D02*
X000392Y009815D01*
X000392Y009933D02*
X000458Y009933D01*
X000458Y010052D02*
X000392Y010052D01*
X000392Y010170D02*
X000458Y010170D01*
X000458Y010289D02*
X000392Y010289D01*
X000392Y010407D02*
X000458Y010407D01*
X000458Y010526D02*
X000392Y010526D01*
X000392Y010644D02*
X000458Y010644D01*
X000458Y010763D02*
X000392Y010763D01*
X000392Y010882D02*
X000458Y010882D01*
X000458Y011000D02*
X000392Y011000D01*
X000392Y011119D02*
X000458Y011119D01*
X000458Y011237D02*
X000392Y011237D01*
X000392Y011356D02*
X000515Y011356D01*
X000392Y011474D02*
X002552Y011474D01*
X002670Y011593D02*
X000392Y011593D01*
X000392Y011711D02*
X002938Y011711D01*
X003016Y011830D02*
X000392Y011830D01*
X000392Y011948D02*
X004416Y011948D01*
X004416Y011830D02*
X003928Y011830D01*
X004006Y011711D02*
X004416Y011711D01*
X004772Y011593D02*
X004006Y011593D01*
X004006Y011474D02*
X004416Y011474D01*
X004416Y011356D02*
X004006Y011356D01*
X004006Y011237D02*
X004442Y011237D01*
X004772Y011237D02*
X004892Y011237D01*
X004892Y011356D02*
X004772Y011356D01*
X004772Y011474D02*
X004892Y011474D01*
X004892Y011593D02*
X005309Y011593D01*
X005297Y011474D02*
X005247Y011474D01*
X005247Y011356D02*
X005297Y011356D01*
X005672Y011474D02*
X005792Y011474D01*
X005792Y011593D02*
X005672Y011593D01*
X004481Y012067D02*
X000392Y012067D01*
X003532Y010023D02*
X003532Y009648D01*
X004006Y009648D01*
X004006Y009901D01*
X003996Y009937D01*
X003978Y009969D01*
X003952Y009995D01*
X003920Y010013D01*
X003884Y010023D01*
X003532Y010023D01*
X003532Y009933D02*
X003412Y009933D01*
X003412Y009815D02*
X003532Y009815D01*
X003532Y009696D02*
X003412Y009696D01*
X003412Y009578D02*
X002752Y009578D01*
X002752Y009696D02*
X002938Y009696D01*
X002938Y009815D02*
X002752Y009815D01*
X002752Y009933D02*
X002947Y009933D01*
X003532Y009578D02*
X003968Y009578D01*
X004006Y009696D02*
X004032Y009696D01*
X004032Y009815D02*
X004006Y009815D01*
X003997Y009933D02*
X004032Y009933D01*
X004432Y009933D02*
X005231Y009933D01*
X004444Y010052D02*
X004432Y010052D01*
X003532Y009459D02*
X003412Y009459D01*
X003412Y009341D02*
X003532Y009341D01*
X003532Y009222D02*
X003412Y009222D01*
X002957Y009222D02*
X002752Y009222D01*
X002752Y009341D02*
X002938Y009341D01*
X002938Y009459D02*
X002752Y009459D01*
X002752Y009103D02*
X004416Y009103D01*
X003526Y008985D02*
X003406Y008985D01*
X003406Y008866D02*
X003526Y008866D01*
X003526Y008748D02*
X003406Y008748D01*
X002834Y008748D02*
X002752Y008748D01*
X002752Y008866D02*
X002834Y008866D01*
X002872Y008985D02*
X002752Y008985D01*
X002312Y009222D02*
X000392Y009222D01*
X000392Y009341D02*
X002312Y009341D01*
X002312Y009459D02*
X000392Y009459D01*
X001241Y008985D02*
X001361Y008985D01*
X001361Y008866D02*
X001241Y008866D01*
X001241Y008748D02*
X001361Y008748D01*
X001241Y008435D02*
X000669Y008435D01*
X000669Y008083D01*
X000678Y008047D01*
X000697Y008015D01*
X000723Y007989D01*
X000755Y007971D01*
X000790Y007961D01*
X001241Y007961D01*
X001241Y008435D01*
X001241Y008392D02*
X001361Y008392D01*
X001361Y008274D02*
X001241Y008274D01*
X001241Y008155D02*
X001361Y008155D01*
X001361Y008037D02*
X001241Y008037D01*
X000684Y008037D02*
X000392Y008037D01*
X000392Y008155D02*
X000669Y008155D01*
X000669Y008274D02*
X000392Y008274D01*
X000392Y008392D02*
X000669Y008392D01*
X002752Y008392D02*
X002834Y008392D01*
X002834Y008274D02*
X002752Y008274D01*
X002831Y008155D02*
X002834Y008155D01*
X003687Y007799D02*
X004416Y007799D01*
X004559Y007681D02*
X003725Y007681D01*
X004832Y007643D02*
X004902Y007613D01*
X004912Y007613D01*
X005247Y007799D02*
X005297Y007799D01*
X005297Y007918D02*
X005247Y007918D01*
X005247Y008037D02*
X005341Y008037D01*
X005336Y008155D02*
X005247Y008155D01*
X005247Y008274D02*
X005297Y008274D01*
X005297Y008392D02*
X005247Y008392D01*
X005247Y008511D02*
X005672Y008511D01*
X005672Y008392D02*
X005792Y008392D01*
X005792Y008274D02*
X005672Y008274D01*
X005672Y008155D02*
X005792Y008155D01*
X005792Y008037D02*
X005672Y008037D01*
X005672Y007918D02*
X005792Y007918D01*
X006122Y008037D02*
X006212Y008037D01*
X006212Y008155D02*
X006128Y008155D01*
X006167Y008274D02*
X006212Y008274D01*
X006212Y008392D02*
X006167Y008392D01*
X006212Y008511D02*
X005792Y008511D01*
X006167Y008629D02*
X006212Y008629D01*
X006212Y008748D02*
X006167Y008748D01*
X006167Y008866D02*
X006212Y008866D01*
X006652Y008748D02*
X006874Y008748D01*
X006874Y008629D02*
X006652Y008629D01*
X006652Y008511D02*
X006874Y008511D01*
X006874Y008392D02*
X006652Y008392D01*
X006652Y008274D02*
X006867Y008274D01*
X006837Y008155D02*
X006652Y008155D01*
X006652Y008037D02*
X006857Y008037D01*
X006940Y007918D02*
X006652Y007918D01*
X006212Y007918D02*
X006167Y007918D01*
X006167Y007799D02*
X006212Y007799D01*
X008042Y010052D02*
X008158Y010052D01*
X008042Y010170D02*
X008276Y010170D01*
X008395Y010289D02*
X008042Y010289D01*
X006271Y010526D02*
X006167Y010526D01*
X014567Y010407D02*
X014897Y010407D01*
X014898Y010289D02*
X014567Y010289D01*
X015272Y010289D02*
X015392Y010289D01*
X015765Y010289D02*
X016110Y010289D01*
X016083Y010407D02*
X015767Y010407D01*
X014897Y011593D02*
X014567Y011593D01*
X014487Y011711D02*
X014977Y011711D01*
D31*
X017532Y011543D03*
X011932Y010143D03*
X010532Y009143D03*
X009232Y008643D03*
X009732Y008343D03*
X008632Y008343D03*
X007932Y008443D03*
X007532Y008343D03*
X007132Y008143D03*
X007132Y007043D03*
X007632Y007043D03*
X004932Y007043D03*
X004912Y007613D03*
X004132Y007843D03*
X002532Y006743D03*
X004232Y005743D03*
X002232Y004743D03*
X000832Y005743D03*
X007332Y005743D03*
X007782Y005713D03*
X009732Y005643D03*
X010532Y006043D03*
X010632Y005643D03*
X010632Y006443D03*
X011132Y006443D03*
X011532Y006443D03*
X011982Y006443D03*
X012182Y007093D03*
X012632Y007043D03*
X012132Y007543D03*
X011632Y007543D03*
X011532Y007943D03*
X011032Y007943D03*
X015432Y006143D03*
X015532Y005443D03*
X017282Y005093D03*
X017882Y005093D03*
X017932Y005543D03*
X017232Y006193D03*
X017902Y006543D03*
X019832Y004743D03*
X022382Y004993D03*
X022932Y005123D03*
X023482Y004993D03*
X023082Y006193D03*
X023032Y007443D03*
X028532Y010043D03*
X027832Y011443D03*
X013332Y005493D03*
X012832Y005171D03*
X012319Y004756D03*
X011462Y004553D03*
X009342Y004553D03*
X013032Y005843D03*
X004232Y009443D03*
X006332Y010343D03*
X004232Y011843D03*
X000632Y011843D03*
X000732Y009343D03*
X028832Y004743D03*
D32*
X028445Y007643D02*
X028445Y008757D01*
X028482Y008793D01*
X027618Y008657D02*
X027482Y008793D01*
X026332Y009943D01*
X022132Y009943D01*
X021892Y010183D01*
X021892Y010509D01*
X021539Y010509D02*
X021539Y010136D01*
X022032Y009643D01*
X024632Y009643D01*
X025482Y008793D01*
X025618Y008657D01*
X025618Y007643D01*
X026445Y007643D02*
X026445Y008757D01*
X026482Y008793D01*
X027618Y008657D02*
X027618Y007643D01*
X024445Y007643D02*
X024445Y008757D01*
X024482Y008793D01*
X023618Y008657D02*
X023482Y008793D01*
X022932Y009343D01*
X021932Y009343D01*
X021224Y010051D01*
X021224Y010509D01*
X020872Y010509D02*
X020872Y010003D01*
X021482Y009393D01*
X021482Y008793D01*
X021618Y008657D01*
X021618Y007643D01*
X022445Y007643D02*
X022445Y008757D01*
X022482Y008793D01*
X023618Y008657D02*
X023618Y007643D01*
X021697Y006178D02*
X021382Y006493D01*
X020755Y006493D01*
X020755Y006920D01*
X020532Y007143D01*
X016032Y007143D01*
X015997Y007109D01*
X015997Y006343D01*
X015997Y005743D01*
X015940Y005801D01*
X014726Y005801D01*
X015997Y005743D02*
X015997Y004943D01*
X015910Y004856D01*
X014726Y004856D01*
X014726Y006431D02*
X014726Y007137D01*
X014732Y007143D01*
X016032Y007143D01*
X016445Y007643D02*
X016445Y008757D01*
X016482Y008793D01*
X015618Y008657D02*
X015482Y008793D01*
X016232Y009543D01*
X018632Y009543D01*
X018824Y009736D01*
X018824Y010509D01*
X019139Y010509D02*
X019139Y009451D01*
X018932Y009243D01*
X017932Y009243D01*
X017482Y008793D01*
X017618Y008657D01*
X017618Y007643D01*
X018445Y007643D02*
X018445Y008757D01*
X018482Y008793D01*
X019482Y008793D02*
X019618Y008657D01*
X019618Y007643D01*
X020445Y007643D02*
X020445Y008757D01*
X020482Y008793D01*
X019492Y008803D02*
X019482Y008793D01*
X019492Y008803D02*
X019492Y010509D01*
X018472Y010509D02*
X018472Y009983D01*
X018332Y009843D01*
X014532Y009843D01*
X013482Y008793D01*
X013618Y008657D01*
X013618Y007643D01*
X014445Y007643D02*
X014445Y008757D01*
X014482Y008793D01*
X015618Y008657D02*
X015618Y007643D01*
X014732Y007143D02*
X013232Y007143D01*
X012032Y008343D01*
X010932Y008343D01*
X010582Y007993D01*
X008682Y007993D01*
X008132Y007443D01*
X006432Y007443D01*
X006432Y009143D01*
X006397Y009178D01*
X005732Y009178D01*
X005732Y009743D01*
X005232Y010243D01*
X004832Y010243D01*
X004732Y010343D01*
X004832Y010453D01*
X004641Y010493D01*
X004232Y010493D01*
X003472Y010493D01*
X002787Y011399D02*
X002532Y011143D01*
X002532Y008143D01*
X002832Y007843D01*
X003332Y007843D01*
X003505Y007670D01*
X003505Y007373D01*
X004562Y007373D01*
X004832Y007643D01*
X004832Y008153D01*
X006432Y007443D02*
X006432Y007143D01*
X006297Y007009D01*
X005732Y007009D01*
X014132Y011317D02*
X015332Y011317D01*
X016499Y011317D01*
X017365Y010943D02*
X017832Y010943D01*
X018166Y011277D01*
X018472Y011277D01*
X018824Y011277D01*
X019139Y011277D01*
X019492Y011277D01*
X020872Y011277D01*
X021224Y011277D01*
X021539Y011277D01*
X021892Y011277D01*
X020755Y006493D02*
X020755Y005993D01*
X019982Y005993D01*
X019482Y005493D01*
X018708Y005493D01*
X021697Y006178D02*
X022282Y006178D01*
X003472Y011399D02*
X002787Y011399D01*
M02*
