G75*
G70*
%OFA0B0*%
%FSLAX24Y24*%
%IPPOS*%
%LPD*%
%AMOC8*
5,1,8,0,0,1.08239X$1,22.5*
%
%ADD10C,0.1340*%
%ADD11R,0.0592X0.0671*%
%ADD12R,0.0671X0.0592*%
%ADD13R,0.0631X0.0710*%
%ADD14R,0.0946X0.0316*%
%ADD15R,0.0867X0.0671*%
%ADD16R,0.0867X0.1576*%
%ADD17R,0.0186X0.0474*%
%ADD18R,0.0474X0.0186*%
%ADD19C,0.0720*%
%ADD20R,0.0552X0.0552*%
%ADD21R,0.0395X0.0237*%
%ADD22R,0.0631X0.0474*%
%ADD23R,0.0643X0.0218*%
%ADD24C,0.0714*%
%ADD25R,0.0880X0.0880*%
%ADD26R,0.1064X0.0867*%
%ADD27R,0.0986X0.0277*%
%ADD28C,0.0434*%
D10*
X004558Y003852D03*
X026058Y003852D03*
X032558Y003852D03*
X032558Y015852D03*
X026058Y015852D03*
X004558Y015852D03*
D11*
X017492Y012152D03*
X018161Y012152D03*
X018161Y011152D03*
X017492Y011152D03*
X017492Y010152D03*
X018161Y010152D03*
X018161Y009152D03*
X017492Y009152D03*
X017492Y008152D03*
X018161Y008152D03*
X018161Y007152D03*
X017492Y007152D03*
X010792Y006352D03*
X010123Y006352D03*
X010142Y005452D03*
X010811Y005452D03*
X010811Y004552D03*
X010142Y004552D03*
X024892Y008402D03*
X025561Y008402D03*
X025492Y013184D03*
X024823Y013184D03*
D12*
X023226Y014418D03*
X022326Y014418D03*
X022326Y015087D03*
X023226Y015087D03*
X019726Y015087D03*
X019726Y014418D03*
X017926Y014418D03*
X017026Y014418D03*
X017026Y015087D03*
X017926Y015087D03*
X015026Y015087D03*
X014058Y015087D03*
X014058Y014418D03*
X015026Y014418D03*
X011626Y013687D03*
X011626Y013018D03*
X010458Y011487D03*
X010458Y010818D03*
X008258Y010818D03*
X008258Y011487D03*
X007308Y013018D03*
X007308Y013687D03*
X006058Y013687D03*
X006058Y013018D03*
X008258Y008687D03*
X008258Y008018D03*
X010458Y008018D03*
X010458Y008687D03*
X012458Y005905D03*
X012458Y005236D03*
X013826Y005218D03*
X013826Y005887D03*
X015226Y005887D03*
X015226Y005218D03*
X019426Y006018D03*
X019426Y006687D03*
X019426Y007718D03*
X019426Y008387D03*
X019426Y009418D03*
X019426Y010087D03*
X022526Y011418D03*
X022526Y012087D03*
D13*
X024126Y014062D03*
X024126Y015243D03*
X015926Y015243D03*
X015926Y014062D03*
X009358Y011943D03*
X009358Y010762D03*
X009358Y008943D03*
X009358Y007762D03*
D14*
X019403Y011002D03*
X019403Y011502D03*
X019403Y012002D03*
X019403Y012502D03*
X021450Y012502D03*
X021450Y012002D03*
X021450Y011502D03*
X021450Y011002D03*
D15*
X008866Y006358D03*
X008866Y005452D03*
X008866Y004547D03*
D16*
X006386Y005452D03*
D17*
X012450Y007548D03*
X012647Y007548D03*
X012844Y007548D03*
X013040Y007548D03*
X013237Y007548D03*
X013434Y007548D03*
X013631Y007548D03*
X013828Y007548D03*
X014025Y007548D03*
X014222Y007548D03*
X014418Y007548D03*
X014615Y007548D03*
X014812Y007548D03*
X015009Y007548D03*
X015206Y007548D03*
X015403Y007548D03*
X015403Y011957D03*
X015206Y011957D03*
X015009Y011957D03*
X014812Y011957D03*
X014615Y011957D03*
X014418Y011957D03*
X014222Y011957D03*
X014025Y011957D03*
X013828Y011957D03*
X013631Y011957D03*
X013434Y011957D03*
X013237Y011957D03*
X013040Y011957D03*
X012844Y011957D03*
X012647Y011957D03*
X012450Y011957D03*
D18*
X011722Y011229D03*
X011722Y011032D03*
X011722Y010835D03*
X011722Y010638D03*
X011722Y010441D03*
X011722Y010244D03*
X011722Y010048D03*
X011722Y009851D03*
X011722Y009654D03*
X011722Y009457D03*
X011722Y009260D03*
X011722Y009063D03*
X011722Y008866D03*
X011722Y008670D03*
X011722Y008473D03*
X011722Y008276D03*
X016131Y008276D03*
X016131Y008473D03*
X016131Y008670D03*
X016131Y008866D03*
X016131Y009063D03*
X016131Y009260D03*
X016131Y009457D03*
X016131Y009654D03*
X016131Y009851D03*
X016131Y010048D03*
X016131Y010244D03*
X016131Y010441D03*
X016131Y010638D03*
X016131Y010835D03*
X016131Y011032D03*
X016131Y011229D03*
D19*
X011126Y015032D02*
X011126Y015672D01*
X010126Y015672D02*
X010126Y015032D01*
X009126Y015032D02*
X009126Y015672D01*
X008126Y015672D02*
X008126Y015032D01*
X007126Y015032D02*
X007126Y015672D01*
D20*
X013052Y015197D03*
X013052Y014370D03*
X018826Y014339D03*
X018826Y015166D03*
D21*
X020588Y010136D03*
X020588Y009880D03*
X020588Y009624D03*
X020588Y009368D03*
X022064Y009368D03*
X022064Y009624D03*
X022064Y009880D03*
X022064Y010136D03*
X022064Y008436D03*
X022064Y008180D03*
X022064Y007924D03*
X022064Y007668D03*
X020588Y007668D03*
X020588Y007924D03*
X020588Y008180D03*
X020588Y008436D03*
X020588Y006736D03*
X020588Y006480D03*
X020588Y006224D03*
X020588Y005968D03*
X022064Y005968D03*
X022064Y006224D03*
X022064Y006480D03*
X022064Y006736D03*
D22*
X021459Y014378D03*
X020593Y014752D03*
X021459Y015126D03*
D23*
X024163Y012448D03*
X024163Y012192D03*
X024163Y011936D03*
X024163Y011680D03*
X024163Y011424D03*
X024163Y011168D03*
X024163Y010913D03*
X024163Y010657D03*
X026289Y010657D03*
X026289Y010913D03*
X026289Y011168D03*
X026289Y011424D03*
X026289Y011680D03*
X026289Y011936D03*
X026289Y012192D03*
X026289Y012448D03*
X026289Y007748D03*
X026289Y007492D03*
X026289Y007236D03*
X026289Y006980D03*
X026289Y006724D03*
X026289Y006468D03*
X026289Y006213D03*
X026289Y005957D03*
X024163Y005957D03*
X024163Y006213D03*
X024163Y006468D03*
X024163Y006724D03*
X024163Y006980D03*
X024163Y007236D03*
X024163Y007492D03*
X024163Y007748D03*
D24*
X028858Y007352D03*
X029858Y007352D03*
X029858Y006352D03*
X028858Y006352D03*
X028858Y005352D03*
X029858Y005352D03*
X029858Y008352D03*
X028858Y008352D03*
X028858Y009352D03*
X029858Y009352D03*
X029858Y010352D03*
X028858Y010352D03*
X028858Y011352D03*
X029858Y011352D03*
X029858Y012352D03*
X028858Y012352D03*
X028858Y013352D03*
X029858Y013352D03*
X029858Y014352D03*
X028858Y014352D03*
D25*
X010458Y013352D03*
X008458Y013352D03*
D26*
X006642Y011504D03*
X004477Y011504D03*
X004477Y008000D03*
X006642Y008000D03*
D27*
X006681Y009122D03*
X006681Y009437D03*
X006681Y009752D03*
X006681Y010067D03*
X006681Y010382D03*
D28*
X005658Y010618D03*
X005658Y008886D03*
M02*
