G75*
G70*
%OFA0B0*%
%FSLAX24Y24*%
%IPPOS*%
%LPD*%
%AMOC8*
5,1,8,0,0,1.08239X$1,22.5*
%
%ADD10C,0.0000*%
%ADD11R,0.0600X0.0600*%
%ADD12OC8,0.0600*%
%ADD13OC8,0.0520*%
%ADD14C,0.0520*%
%ADD15C,0.0600*%
%ADD16C,0.0560*%
%ADD17C,0.1300*%
%ADD18OC8,0.0630*%
%ADD19C,0.0700*%
%ADD20C,0.0669*%
%ADD21R,0.1000X0.1000*%
%ADD22C,0.1000*%
%ADD23R,0.0515X0.0515*%
%ADD24C,0.0705*%
%ADD25C,0.0700*%
%ADD26R,0.0700X0.0700*%
%ADD27C,0.0515*%
%ADD28R,0.0650X0.0650*%
%ADD29C,0.0650*%
%ADD30C,0.0240*%
%ADD31C,0.0450*%
%ADD32C,0.0500*%
%ADD33C,0.0320*%
%ADD34C,0.0100*%
%ADD35C,0.0160*%
D10*
X000353Y000353D02*
X000353Y031853D01*
X031753Y031853D01*
X031753Y000353D01*
X000353Y000353D01*
X001302Y001853D02*
X001304Y001900D01*
X001310Y001946D01*
X001320Y001992D01*
X001333Y002037D01*
X001351Y002080D01*
X001372Y002122D01*
X001396Y002162D01*
X001424Y002199D01*
X001455Y002234D01*
X001489Y002267D01*
X001525Y002296D01*
X001564Y002322D01*
X001605Y002345D01*
X001648Y002364D01*
X001692Y002380D01*
X001737Y002392D01*
X001783Y002400D01*
X001830Y002404D01*
X001876Y002404D01*
X001923Y002400D01*
X001969Y002392D01*
X002014Y002380D01*
X002058Y002364D01*
X002101Y002345D01*
X002142Y002322D01*
X002181Y002296D01*
X002217Y002267D01*
X002251Y002234D01*
X002282Y002199D01*
X002310Y002162D01*
X002334Y002122D01*
X002355Y002080D01*
X002373Y002037D01*
X002386Y001992D01*
X002396Y001946D01*
X002402Y001900D01*
X002404Y001853D01*
X002402Y001806D01*
X002396Y001760D01*
X002386Y001714D01*
X002373Y001669D01*
X002355Y001626D01*
X002334Y001584D01*
X002310Y001544D01*
X002282Y001507D01*
X002251Y001472D01*
X002217Y001439D01*
X002181Y001410D01*
X002142Y001384D01*
X002101Y001361D01*
X002058Y001342D01*
X002014Y001326D01*
X001969Y001314D01*
X001923Y001306D01*
X001876Y001302D01*
X001830Y001302D01*
X001783Y001306D01*
X001737Y001314D01*
X001692Y001326D01*
X001648Y001342D01*
X001605Y001361D01*
X001564Y001384D01*
X001525Y001410D01*
X001489Y001439D01*
X001455Y001472D01*
X001424Y001507D01*
X001396Y001544D01*
X001372Y001584D01*
X001351Y001626D01*
X001333Y001669D01*
X001320Y001714D01*
X001310Y001760D01*
X001304Y001806D01*
X001302Y001853D01*
X001302Y030353D02*
X001304Y030400D01*
X001310Y030446D01*
X001320Y030492D01*
X001333Y030537D01*
X001351Y030580D01*
X001372Y030622D01*
X001396Y030662D01*
X001424Y030699D01*
X001455Y030734D01*
X001489Y030767D01*
X001525Y030796D01*
X001564Y030822D01*
X001605Y030845D01*
X001648Y030864D01*
X001692Y030880D01*
X001737Y030892D01*
X001783Y030900D01*
X001830Y030904D01*
X001876Y030904D01*
X001923Y030900D01*
X001969Y030892D01*
X002014Y030880D01*
X002058Y030864D01*
X002101Y030845D01*
X002142Y030822D01*
X002181Y030796D01*
X002217Y030767D01*
X002251Y030734D01*
X002282Y030699D01*
X002310Y030662D01*
X002334Y030622D01*
X002355Y030580D01*
X002373Y030537D01*
X002386Y030492D01*
X002396Y030446D01*
X002402Y030400D01*
X002404Y030353D01*
X002402Y030306D01*
X002396Y030260D01*
X002386Y030214D01*
X002373Y030169D01*
X002355Y030126D01*
X002334Y030084D01*
X002310Y030044D01*
X002282Y030007D01*
X002251Y029972D01*
X002217Y029939D01*
X002181Y029910D01*
X002142Y029884D01*
X002101Y029861D01*
X002058Y029842D01*
X002014Y029826D01*
X001969Y029814D01*
X001923Y029806D01*
X001876Y029802D01*
X001830Y029802D01*
X001783Y029806D01*
X001737Y029814D01*
X001692Y029826D01*
X001648Y029842D01*
X001605Y029861D01*
X001564Y029884D01*
X001525Y029910D01*
X001489Y029939D01*
X001455Y029972D01*
X001424Y030007D01*
X001396Y030044D01*
X001372Y030084D01*
X001351Y030126D01*
X001333Y030169D01*
X001320Y030214D01*
X001310Y030260D01*
X001304Y030306D01*
X001302Y030353D01*
X029702Y030353D02*
X029704Y030400D01*
X029710Y030446D01*
X029720Y030492D01*
X029733Y030537D01*
X029751Y030580D01*
X029772Y030622D01*
X029796Y030662D01*
X029824Y030699D01*
X029855Y030734D01*
X029889Y030767D01*
X029925Y030796D01*
X029964Y030822D01*
X030005Y030845D01*
X030048Y030864D01*
X030092Y030880D01*
X030137Y030892D01*
X030183Y030900D01*
X030230Y030904D01*
X030276Y030904D01*
X030323Y030900D01*
X030369Y030892D01*
X030414Y030880D01*
X030458Y030864D01*
X030501Y030845D01*
X030542Y030822D01*
X030581Y030796D01*
X030617Y030767D01*
X030651Y030734D01*
X030682Y030699D01*
X030710Y030662D01*
X030734Y030622D01*
X030755Y030580D01*
X030773Y030537D01*
X030786Y030492D01*
X030796Y030446D01*
X030802Y030400D01*
X030804Y030353D01*
X030802Y030306D01*
X030796Y030260D01*
X030786Y030214D01*
X030773Y030169D01*
X030755Y030126D01*
X030734Y030084D01*
X030710Y030044D01*
X030682Y030007D01*
X030651Y029972D01*
X030617Y029939D01*
X030581Y029910D01*
X030542Y029884D01*
X030501Y029861D01*
X030458Y029842D01*
X030414Y029826D01*
X030369Y029814D01*
X030323Y029806D01*
X030276Y029802D01*
X030230Y029802D01*
X030183Y029806D01*
X030137Y029814D01*
X030092Y029826D01*
X030048Y029842D01*
X030005Y029861D01*
X029964Y029884D01*
X029925Y029910D01*
X029889Y029939D01*
X029855Y029972D01*
X029824Y030007D01*
X029796Y030044D01*
X029772Y030084D01*
X029751Y030126D01*
X029733Y030169D01*
X029720Y030214D01*
X029710Y030260D01*
X029704Y030306D01*
X029702Y030353D01*
X029652Y001853D02*
X029654Y001900D01*
X029660Y001946D01*
X029670Y001992D01*
X029683Y002037D01*
X029701Y002080D01*
X029722Y002122D01*
X029746Y002162D01*
X029774Y002199D01*
X029805Y002234D01*
X029839Y002267D01*
X029875Y002296D01*
X029914Y002322D01*
X029955Y002345D01*
X029998Y002364D01*
X030042Y002380D01*
X030087Y002392D01*
X030133Y002400D01*
X030180Y002404D01*
X030226Y002404D01*
X030273Y002400D01*
X030319Y002392D01*
X030364Y002380D01*
X030408Y002364D01*
X030451Y002345D01*
X030492Y002322D01*
X030531Y002296D01*
X030567Y002267D01*
X030601Y002234D01*
X030632Y002199D01*
X030660Y002162D01*
X030684Y002122D01*
X030705Y002080D01*
X030723Y002037D01*
X030736Y001992D01*
X030746Y001946D01*
X030752Y001900D01*
X030754Y001853D01*
X030752Y001806D01*
X030746Y001760D01*
X030736Y001714D01*
X030723Y001669D01*
X030705Y001626D01*
X030684Y001584D01*
X030660Y001544D01*
X030632Y001507D01*
X030601Y001472D01*
X030567Y001439D01*
X030531Y001410D01*
X030492Y001384D01*
X030451Y001361D01*
X030408Y001342D01*
X030364Y001326D01*
X030319Y001314D01*
X030273Y001306D01*
X030226Y001302D01*
X030180Y001302D01*
X030133Y001306D01*
X030087Y001314D01*
X030042Y001326D01*
X029998Y001342D01*
X029955Y001361D01*
X029914Y001384D01*
X029875Y001410D01*
X029839Y001439D01*
X029805Y001472D01*
X029774Y001507D01*
X029746Y001544D01*
X029722Y001584D01*
X029701Y001626D01*
X029683Y001669D01*
X029670Y001714D01*
X029660Y001760D01*
X029654Y001806D01*
X029652Y001853D01*
D11*
X004803Y029953D03*
D12*
X005803Y029953D03*
X006803Y029953D03*
X007803Y029953D03*
X008803Y029953D03*
X002853Y010353D03*
X002853Y009353D03*
X002853Y008353D03*
X002853Y007353D03*
X002853Y006353D03*
X002853Y005353D03*
X002853Y004353D03*
X001853Y004353D03*
X001853Y005353D03*
X001853Y006353D03*
X001853Y007353D03*
X001853Y008353D03*
X001853Y009353D03*
X001853Y010353D03*
D13*
X004153Y009353D03*
X004153Y008353D03*
X004153Y007353D03*
X004153Y006353D03*
X004153Y005353D03*
X004153Y004353D03*
X004853Y002853D03*
X005853Y001853D03*
X006853Y002353D03*
X007853Y002353D03*
X008853Y001353D03*
X009853Y001353D03*
X010853Y002353D03*
X011853Y002353D03*
X012453Y005303D03*
X014203Y007453D03*
X012453Y009303D03*
X015353Y010353D03*
X016353Y010353D03*
X017353Y010353D03*
X018353Y010353D03*
X019353Y010353D03*
X020353Y013303D03*
X021353Y013303D03*
X022403Y012103D03*
X019353Y014353D03*
X018353Y014353D03*
X017353Y014353D03*
X016353Y014353D03*
X015353Y014353D03*
X014453Y016853D03*
X014453Y020853D03*
X014203Y021653D03*
X012103Y021653D03*
X012103Y025653D03*
X014203Y025653D03*
X016853Y026753D03*
X016853Y027753D03*
X020853Y027753D03*
X020853Y026753D03*
X021553Y026353D03*
X021553Y022353D03*
X022603Y022353D03*
X022603Y018353D03*
X021353Y017303D03*
X020353Y017303D03*
X026703Y010853D03*
X026703Y009853D03*
X028303Y008703D03*
X030703Y009853D03*
X030703Y010853D03*
X028303Y004703D03*
X022403Y008103D03*
X020103Y006703D03*
X019603Y005953D03*
X019103Y006703D03*
X018203Y007453D03*
X009853Y005353D03*
X008853Y005353D03*
X008153Y005353D03*
X008153Y006353D03*
X008153Y007353D03*
X008153Y008353D03*
X008153Y009353D03*
X008153Y004353D03*
X004853Y000853D03*
X003153Y014453D03*
X003153Y018453D03*
X006903Y025103D03*
X005503Y027603D03*
X004503Y028603D03*
X003503Y027603D03*
X006903Y028103D03*
D14*
X007803Y027893D02*
X007803Y028413D01*
X007803Y025413D02*
X007803Y024893D01*
X007593Y023853D02*
X008113Y023853D01*
X008113Y022853D02*
X007593Y022853D01*
X007593Y021853D02*
X008113Y021853D01*
X008113Y020853D02*
X007593Y020853D01*
X007593Y019853D02*
X008113Y019853D01*
X008113Y018853D02*
X007593Y018853D01*
X007593Y017853D02*
X008113Y017853D01*
X008113Y016853D02*
X007593Y016853D01*
X007593Y015853D02*
X008113Y015853D01*
X008113Y014853D02*
X007593Y014853D01*
X007593Y013853D02*
X008113Y013853D01*
X008113Y012853D02*
X007593Y012853D01*
X007593Y011853D02*
X008113Y011853D01*
X008113Y010853D02*
X007593Y010853D01*
X010593Y010853D02*
X011113Y010853D01*
X011113Y011853D02*
X010593Y011853D01*
X010593Y012853D02*
X011113Y012853D01*
X011113Y013853D02*
X010593Y013853D01*
X010593Y014853D02*
X011113Y014853D01*
X011113Y015853D02*
X010593Y015853D01*
X010593Y016853D02*
X011113Y016853D01*
X011113Y017853D02*
X010593Y017853D01*
X010593Y018853D02*
X011113Y018853D01*
X011113Y019853D02*
X010593Y019853D01*
X010593Y020853D02*
X011113Y020853D01*
X011113Y021853D02*
X010593Y021853D01*
X010593Y022853D02*
X011113Y022853D01*
X011113Y023853D02*
X010593Y023853D01*
X015743Y024353D02*
X016263Y024353D01*
X017093Y024353D02*
X017613Y024353D01*
X017613Y023353D02*
X017093Y023353D01*
X016263Y023353D02*
X015743Y023353D01*
X017093Y022353D02*
X017613Y022353D01*
X017613Y021353D02*
X017093Y021353D01*
X017093Y020353D02*
X017613Y020353D01*
X017613Y019353D02*
X017093Y019353D01*
X017093Y018353D02*
X017613Y018353D01*
X020093Y018353D02*
X020613Y018353D01*
X020613Y019353D02*
X020093Y019353D01*
X020093Y020353D02*
X020613Y020353D01*
X020613Y021353D02*
X020093Y021353D01*
X020093Y022353D02*
X020613Y022353D01*
X020613Y023353D02*
X020093Y023353D01*
X020093Y024353D02*
X020613Y024353D01*
X016263Y025353D02*
X015743Y025353D01*
X026143Y012303D02*
X026663Y012303D01*
X030143Y012303D02*
X030663Y012303D01*
X026273Y007153D02*
X025753Y007153D01*
X025753Y006153D02*
X026273Y006153D01*
X026273Y005153D02*
X025753Y005153D01*
X022753Y005153D02*
X022233Y005153D01*
X022233Y006153D02*
X022753Y006153D01*
X022753Y007153D02*
X022233Y007153D01*
X020103Y008293D02*
X020103Y008813D01*
X019103Y008813D02*
X019103Y008293D01*
X018103Y008293D02*
X018103Y008813D01*
X020293Y010103D02*
X020813Y010103D01*
X020813Y011103D02*
X020293Y011103D01*
X020293Y012103D02*
X020813Y012103D01*
X003463Y012253D02*
X002943Y012253D01*
X002943Y013253D02*
X003463Y013253D01*
X002113Y012853D02*
X001593Y012853D01*
X001593Y013853D02*
X002113Y013853D01*
X002113Y014853D02*
X001593Y014853D01*
X001593Y015853D02*
X002113Y015853D01*
X002113Y016853D02*
X001593Y016853D01*
X001593Y017853D02*
X002113Y017853D01*
X002113Y018853D02*
X001593Y018853D01*
X001593Y019853D02*
X002113Y019853D01*
X002113Y020853D02*
X001593Y020853D01*
X001593Y021853D02*
X002113Y021853D01*
X002113Y022853D02*
X001593Y022853D01*
X001593Y023853D02*
X002113Y023853D01*
X002113Y024853D02*
X001593Y024853D01*
X001593Y025853D02*
X002113Y025853D01*
X002113Y026853D02*
X001593Y026853D01*
X001593Y027853D02*
X002113Y027853D01*
X002943Y011253D02*
X003463Y011253D01*
D15*
X010003Y009353D02*
X010603Y009353D01*
X010603Y008353D02*
X010003Y008353D01*
X010003Y007353D02*
X010603Y007353D01*
X010603Y006353D02*
X010003Y006353D01*
X006783Y021863D02*
X006183Y021863D01*
X006183Y023643D02*
X006783Y023643D01*
X004223Y023643D02*
X003623Y023643D01*
X003623Y021863D02*
X004223Y021863D01*
X029953Y007103D02*
X030553Y007103D01*
X030553Y006103D02*
X029953Y006103D01*
X029953Y005103D02*
X030553Y005103D01*
D16*
X013095Y027123D03*
X013095Y027903D03*
X012111Y027903D03*
X012111Y027123D03*
D17*
X010233Y028973D03*
X014973Y028973D03*
D18*
X016003Y027753D03*
X016003Y026753D03*
X019353Y025603D03*
X020353Y025603D03*
X022603Y024403D03*
X022603Y023403D03*
X021503Y021353D03*
X021503Y020353D03*
X021503Y019353D03*
X021503Y018353D03*
X019353Y016353D03*
X019353Y015353D03*
X017453Y015353D03*
X017453Y016353D03*
X016253Y016353D03*
X016253Y015353D03*
X012003Y015853D03*
X012003Y014853D03*
X006753Y011753D03*
X006753Y010653D03*
X005753Y010653D03*
X005753Y011753D03*
X004353Y013853D03*
X004353Y014853D03*
X004353Y015853D03*
X004353Y016853D03*
X004603Y025003D03*
X005603Y025003D03*
X024603Y018303D03*
X025603Y018303D03*
X026503Y013753D03*
X027503Y013753D03*
X029653Y008803D03*
X030653Y008803D03*
X025903Y024353D03*
X025903Y025353D03*
D19*
X025353Y016953D03*
X006103Y016303D03*
X006103Y014403D03*
D20*
X024303Y026953D03*
X024303Y027853D03*
X027303Y027853D03*
X028103Y027853D03*
X028103Y026953D03*
X027303Y026953D03*
X031103Y026953D03*
X031103Y027853D03*
X025903Y022603D03*
X024853Y022553D03*
X024853Y019553D03*
X025903Y019603D03*
D21*
X027603Y024353D03*
D22*
X029603Y024353D03*
D23*
X022753Y031103D03*
X021753Y031103D03*
X018353Y029353D03*
X017353Y025553D03*
X029103Y017003D03*
X029103Y015003D03*
X014353Y002353D03*
X013353Y002353D03*
D24*
X016369Y002000D02*
X016369Y002705D01*
X018337Y002705D02*
X018337Y002000D01*
X020869Y002000D02*
X020869Y002705D01*
X022837Y002705D02*
X022837Y002000D01*
X025869Y002000D02*
X025869Y002705D01*
X027837Y002705D02*
X027837Y002000D01*
X027837Y030000D02*
X027837Y030705D01*
X025869Y030705D02*
X025869Y030000D01*
D25*
X026853Y021603D02*
X027553Y021603D01*
X027553Y020603D02*
X026853Y020603D01*
X026853Y019603D02*
X027553Y019603D01*
X027553Y018603D02*
X026853Y018603D01*
X029853Y018603D02*
X030553Y018603D01*
X030553Y019603D02*
X029853Y019603D01*
X029853Y020603D02*
X030553Y020603D01*
X030553Y021603D02*
X029853Y021603D01*
D26*
X025353Y015953D03*
D27*
X017353Y029353D03*
X016353Y029353D03*
D28*
X015753Y021953D03*
X024553Y013203D03*
D29*
X024553Y014203D03*
X015753Y020953D03*
D30*
X019353Y024803D02*
X019353Y025603D01*
X019353Y025753D01*
X018353Y026753D01*
X016853Y026753D01*
X016003Y026753D02*
X015503Y026753D01*
X015303Y026953D01*
X015303Y027953D01*
X016353Y029003D01*
X016353Y029353D01*
X018353Y029353D02*
X018353Y026753D01*
X019353Y024803D02*
X019803Y024353D01*
X020353Y024353D01*
X021753Y030853D02*
X021503Y031103D01*
X021303Y031103D01*
X020803Y031603D01*
X005803Y031603D01*
X005803Y029953D01*
X005803Y031603D02*
X004503Y031603D01*
X003503Y030603D01*
X003503Y027603D01*
X002853Y026853D01*
X001853Y026853D01*
X004353Y016853D02*
X005303Y016853D01*
X006103Y016303D01*
X006753Y015853D01*
X007853Y015853D01*
X007853Y014853D02*
X006753Y014853D01*
X006103Y014403D01*
X005303Y013853D01*
X004353Y013853D01*
X006753Y011753D02*
X006753Y010653D01*
X007053Y010653D01*
X007253Y010853D01*
X007853Y010853D01*
X008153Y009353D02*
X008153Y008353D01*
X008153Y007353D01*
X008153Y006353D01*
X008153Y005353D01*
X008853Y005353D01*
X009853Y005353D01*
X010103Y005353D01*
X010303Y005553D01*
X010303Y006353D01*
X008153Y005353D02*
X008153Y004353D01*
X007603Y004353D01*
X006103Y002853D01*
X004853Y002853D01*
X004353Y002853D01*
X002853Y004353D01*
X008153Y009353D02*
X009153Y009353D01*
X009503Y009703D01*
X009503Y015353D01*
X010003Y015853D01*
X010853Y015853D01*
X012003Y015853D01*
X017353Y010353D02*
X017353Y009853D01*
X016353Y008853D01*
X016353Y002369D01*
X016369Y002353D01*
X018337Y002353D02*
X018353Y002369D01*
X018353Y003353D01*
X016803Y004903D01*
X016803Y008553D01*
X018353Y010103D01*
X018353Y010353D01*
X019353Y010353D02*
X018103Y009103D01*
X018103Y008553D01*
X017503Y008553D01*
X017253Y008303D01*
X017253Y005153D01*
X018053Y004353D01*
X019853Y004353D01*
X020853Y003353D01*
X020853Y002369D01*
X020869Y002353D01*
X020253Y005953D02*
X019603Y005953D01*
X020253Y005953D02*
X020653Y006353D01*
X020653Y007903D01*
X021803Y009053D01*
X021803Y011803D01*
X021503Y012103D01*
X020553Y012103D01*
X020553Y012503D01*
X021353Y013303D01*
X021153Y011103D02*
X020553Y011103D01*
X021153Y011103D02*
X021353Y010903D01*
X021353Y009253D01*
X020653Y008553D01*
X020103Y008553D01*
X020103Y006703D01*
X019103Y006703D02*
X018503Y006703D01*
X018203Y007003D01*
X018203Y007453D01*
X019103Y006703D02*
X019103Y008553D01*
X025753Y007153D02*
X025753Y010303D01*
X026303Y010853D01*
X026703Y010853D01*
D31*
X027503Y012953D03*
X028253Y013803D03*
X027503Y014603D03*
X025403Y014503D03*
X024553Y015103D03*
X026253Y017003D03*
X022853Y019353D03*
X022353Y019853D03*
X022853Y020353D03*
X025853Y023353D03*
X026603Y022603D03*
X028603Y024353D03*
X029603Y025353D03*
X030603Y024353D03*
X029603Y023353D03*
X025903Y026103D03*
X026603Y027853D03*
X027553Y028503D03*
X028353Y028503D03*
X029103Y027853D03*
X008653Y020353D03*
X004503Y021103D03*
X003903Y019803D03*
X004003Y024603D03*
X006353Y030853D03*
X005753Y009353D03*
D32*
X005763Y009327D02*
X005393Y009327D01*
X005393Y009825D02*
X005773Y009825D01*
X005763Y009800D02*
X005837Y009980D01*
X005845Y009988D01*
X005753Y009988D01*
X005753Y010652D01*
X005753Y010652D01*
X005753Y009988D01*
X005477Y009988D01*
X005393Y010072D01*
X005393Y007200D01*
X005393Y007005D01*
X005318Y006825D01*
X004823Y006330D01*
X004823Y006075D01*
X004600Y005853D01*
X004610Y005843D01*
X005400Y005843D01*
X005763Y006206D01*
X005763Y009800D01*
X005753Y010324D02*
X005753Y010324D01*
X005753Y010653D02*
X005753Y011318D01*
X005753Y011752D01*
X005753Y011752D01*
X005753Y011318D01*
X005753Y010653D01*
X005753Y010653D01*
X005753Y010822D02*
X005753Y010822D01*
X005753Y011321D02*
X005753Y011321D01*
X003202Y011253D02*
X002333Y011253D01*
X003202Y011253D01*
X003202Y011253D01*
X002538Y011710D02*
X002477Y011650D01*
X002421Y011572D01*
X002377Y011487D01*
X002348Y011396D01*
X002333Y011301D01*
X002333Y011253D01*
X002333Y011205D01*
X002348Y011110D01*
X002377Y011019D01*
X002421Y010933D01*
X002424Y010928D01*
X002310Y010814D01*
X002122Y011003D01*
X001853Y011003D01*
X001853Y010353D01*
X001853Y010353D01*
X001853Y011003D01*
X001584Y011003D01*
X001203Y010622D01*
X001203Y010353D01*
X001852Y010353D01*
X001852Y010353D01*
X001203Y010353D01*
X001203Y010084D01*
X001434Y009853D01*
X001203Y009622D01*
X001203Y009353D01*
X001852Y009353D01*
X001852Y009353D01*
X001853Y009353D02*
X001853Y009703D01*
X001853Y010352D01*
X001853Y010352D01*
X001853Y009703D01*
X001853Y009353D01*
X001853Y009353D01*
X001853Y009352D02*
X001853Y008703D01*
X001853Y008353D01*
X001853Y008353D01*
X001853Y008703D01*
X001853Y009352D01*
X001853Y009352D01*
X001852Y009353D02*
X001203Y009353D01*
X001203Y009084D01*
X001434Y008853D01*
X001203Y008622D01*
X001203Y008353D01*
X001852Y008353D01*
X001852Y008353D01*
X001203Y008353D01*
X001203Y008084D01*
X001434Y007853D01*
X001203Y007622D01*
X001203Y007353D01*
X001852Y007353D01*
X001852Y007353D01*
X001853Y007353D02*
X001853Y008003D01*
X001853Y008352D01*
X001853Y008352D01*
X001853Y008003D01*
X001853Y007353D01*
X001853Y007353D01*
X001853Y007352D02*
X001853Y006703D01*
X001853Y006353D01*
X001853Y006353D01*
X001853Y007003D01*
X001853Y007352D01*
X001853Y007352D01*
X001852Y007353D02*
X001203Y007353D01*
X001203Y007084D01*
X001434Y006853D01*
X001203Y006622D01*
X001203Y006353D01*
X001852Y006353D01*
X001852Y006353D01*
X001203Y006353D01*
X001203Y006084D01*
X001434Y005853D01*
X001203Y005622D01*
X001203Y005353D01*
X001852Y005353D01*
X001852Y005353D01*
X001853Y005353D02*
X001853Y005703D01*
X001853Y006352D01*
X001853Y006352D01*
X001853Y005703D01*
X001853Y005353D01*
X001853Y005353D01*
X001853Y005352D02*
X001853Y004703D01*
X001853Y004353D01*
X001853Y004353D01*
X001853Y004703D01*
X001853Y005352D01*
X001853Y005352D01*
X001852Y005353D02*
X001203Y005353D01*
X001203Y005084D01*
X001434Y004853D01*
X001215Y004634D01*
X001093Y004756D01*
X001093Y012405D01*
X001213Y012285D01*
X001459Y012183D01*
X002246Y012183D01*
X002273Y012194D01*
X002273Y012119D01*
X002375Y011873D01*
X002538Y011710D01*
X002429Y011819D02*
X001093Y011819D01*
X001093Y011321D02*
X002336Y011321D01*
X002318Y010822D02*
X002303Y010822D01*
X001853Y010822D02*
X001853Y010822D01*
X001403Y010822D02*
X001093Y010822D01*
X001093Y010324D02*
X001203Y010324D01*
X001093Y009825D02*
X001406Y009825D01*
X001853Y009825D02*
X001853Y009825D01*
X001853Y009327D02*
X001853Y009327D01*
X001853Y008828D02*
X001853Y008828D01*
X001409Y008828D02*
X001093Y008828D01*
X001093Y008329D02*
X001203Y008329D01*
X001093Y007831D02*
X001412Y007831D01*
X001853Y007831D02*
X001853Y007831D01*
X001853Y007332D02*
X001853Y007332D01*
X001853Y006834D02*
X001853Y006834D01*
X001415Y006834D02*
X001093Y006834D01*
X001093Y006335D02*
X001203Y006335D01*
X001093Y005837D02*
X001418Y005837D01*
X001853Y005837D02*
X001853Y005837D01*
X001853Y005338D02*
X001853Y005338D01*
X001853Y004840D02*
X001853Y004840D01*
X001420Y004840D02*
X001093Y004840D01*
X001093Y005338D02*
X001203Y005338D01*
X001853Y006335D02*
X001853Y006335D01*
X001203Y007332D02*
X001093Y007332D01*
X001853Y008329D02*
X001853Y008329D01*
X001203Y009327D02*
X001093Y009327D01*
X001853Y010324D02*
X001853Y010324D01*
X001180Y012318D02*
X001093Y012318D01*
X000763Y014106D02*
X000763Y028924D01*
X001101Y028706D01*
X001595Y028561D01*
X001595Y028561D01*
X002110Y028561D01*
X002110Y028561D01*
X002605Y028706D01*
X002973Y028943D01*
X002973Y028020D01*
X002833Y027880D01*
X002833Y027639D01*
X002611Y027383D01*
X002530Y027383D01*
X002518Y027395D01*
X002578Y027455D01*
X002634Y027533D01*
X002678Y027619D01*
X002708Y027710D01*
X002723Y027805D01*
X002723Y027853D01*
X002723Y027901D01*
X002708Y027996D01*
X002678Y028087D01*
X002634Y028172D01*
X002578Y028250D01*
X002510Y028318D01*
X002432Y028374D01*
X002347Y028418D01*
X002256Y028448D01*
X002161Y028463D01*
X001853Y028463D01*
X001853Y027853D01*
X001853Y027853D01*
X002723Y027853D01*
X001853Y027853D01*
X001853Y027853D01*
X001853Y028463D01*
X001545Y028463D01*
X001450Y028448D01*
X001359Y028418D01*
X001273Y028374D01*
X001195Y028318D01*
X001127Y028250D01*
X001071Y028172D01*
X001027Y028087D01*
X000998Y027996D01*
X000983Y027901D01*
X000983Y027853D01*
X001852Y027853D01*
X001852Y027853D01*
X000983Y027853D01*
X000983Y027805D01*
X000998Y027710D01*
X001027Y027619D01*
X001071Y027533D01*
X001127Y027455D01*
X001188Y027395D01*
X001025Y027232D01*
X000923Y026986D01*
X000923Y026719D01*
X001025Y026473D01*
X001145Y026353D01*
X001025Y026232D01*
X000923Y025986D01*
X000923Y025719D01*
X001025Y025473D01*
X001145Y025353D01*
X001025Y025232D01*
X000923Y024986D01*
X000923Y024719D01*
X001025Y024473D01*
X001188Y024310D01*
X001127Y024250D01*
X001071Y024172D01*
X001027Y024087D01*
X000998Y023996D01*
X000983Y023901D01*
X000983Y023853D01*
X001852Y023853D01*
X001852Y023853D01*
X000983Y023853D01*
X000983Y023805D01*
X000998Y023710D01*
X001027Y023619D01*
X001071Y023533D01*
X001127Y023455D01*
X001188Y023395D01*
X001025Y023232D01*
X000923Y022986D01*
X000923Y022719D01*
X001025Y022473D01*
X001188Y022310D01*
X001127Y022250D01*
X001071Y022172D01*
X001027Y022087D01*
X000998Y021996D01*
X000983Y021901D01*
X000983Y021853D01*
X001852Y021853D01*
X001852Y021853D01*
X000983Y021853D01*
X000983Y021805D01*
X000998Y021710D01*
X001027Y021619D01*
X001071Y021533D01*
X001127Y021455D01*
X001195Y021387D01*
X001243Y021353D01*
X001195Y021318D01*
X001127Y021250D01*
X001071Y021172D01*
X001027Y021087D01*
X000998Y020996D01*
X000983Y020901D01*
X000983Y020853D01*
X001852Y020853D01*
X001852Y020853D01*
X001853Y020853D02*
X001853Y021463D01*
X001853Y020853D01*
X001853Y020853D01*
X002723Y020853D01*
X002723Y020901D01*
X002708Y020996D01*
X002678Y021087D01*
X002634Y021172D01*
X002578Y021250D01*
X002510Y021318D01*
X002462Y021353D01*
X002510Y021387D01*
X002578Y021455D01*
X002634Y021533D01*
X002678Y021619D01*
X002708Y021710D01*
X002723Y021805D01*
X002723Y021853D01*
X002723Y021901D01*
X002708Y021996D01*
X002679Y022083D01*
X002687Y022075D01*
X002825Y021937D01*
X002973Y021876D01*
X002973Y021863D01*
X003005Y021863D01*
X003005Y021863D01*
X003922Y021863D01*
X003922Y021863D01*
X002973Y021863D01*
X002973Y021820D01*
X002984Y021736D01*
X003006Y021653D01*
X003039Y021575D01*
X003081Y021501D01*
X003133Y021433D01*
X003193Y021373D01*
X003261Y021321D01*
X003335Y021279D01*
X003413Y021246D01*
X003496Y021224D01*
X003580Y021213D01*
X003923Y021213D01*
X004265Y021213D01*
X004350Y021224D01*
X004432Y021246D01*
X004511Y021279D01*
X004585Y021321D01*
X004652Y021373D01*
X004663Y021384D01*
X004687Y021325D01*
X004937Y021075D01*
X005075Y020937D01*
X005255Y020863D01*
X005570Y020863D01*
X003630Y018923D01*
X003430Y019123D01*
X002875Y019123D01*
X002713Y018961D01*
X002708Y018996D01*
X002678Y019087D01*
X002634Y019172D01*
X002578Y019250D01*
X002510Y019318D01*
X002462Y019353D01*
X002510Y019387D01*
X002578Y019455D01*
X002634Y019533D01*
X002678Y019619D01*
X002708Y019710D01*
X002723Y019805D01*
X002723Y019853D01*
X002723Y019901D01*
X002708Y019996D01*
X002678Y020087D01*
X002634Y020172D01*
X002578Y020250D01*
X002510Y020318D01*
X002462Y020353D01*
X002510Y020387D01*
X002578Y020455D01*
X002634Y020533D01*
X002678Y020619D01*
X002708Y020710D01*
X002723Y020805D01*
X002723Y020853D01*
X001853Y020853D01*
X001853Y020853D01*
X001853Y020852D02*
X001853Y020463D01*
X001853Y019853D01*
X001853Y019853D01*
X002723Y019853D01*
X001853Y019853D01*
X001853Y019853D01*
X001853Y020463D01*
X001853Y020852D01*
X001853Y020852D01*
X001852Y020853D02*
X000983Y020853D01*
X000983Y020805D01*
X000998Y020710D01*
X001027Y020619D01*
X001071Y020533D01*
X001127Y020455D01*
X001195Y020387D01*
X001243Y020353D01*
X001195Y020318D01*
X001127Y020250D01*
X001071Y020172D01*
X001027Y020087D01*
X000998Y019996D01*
X000983Y019901D01*
X000983Y019853D01*
X001852Y019853D01*
X001852Y019853D01*
X000983Y019853D01*
X000983Y019805D01*
X000998Y019710D01*
X001027Y019619D01*
X001071Y019533D01*
X001127Y019455D01*
X001195Y019387D01*
X001243Y019353D01*
X001195Y019318D01*
X001127Y019250D01*
X001071Y019172D01*
X001027Y019087D01*
X000998Y018996D01*
X000983Y018901D01*
X000983Y018853D01*
X001852Y018853D01*
X001852Y018853D01*
X001853Y018853D02*
X001853Y019463D01*
X001853Y018853D01*
X001853Y018853D01*
X001852Y018853D02*
X000983Y018853D01*
X000983Y018805D01*
X000998Y018710D01*
X001027Y018619D01*
X001071Y018533D01*
X001127Y018455D01*
X001188Y018395D01*
X001025Y018232D01*
X000923Y017986D01*
X000923Y017719D01*
X001025Y017473D01*
X001145Y017353D01*
X001025Y017232D01*
X000923Y016986D01*
X000923Y016719D01*
X001025Y016473D01*
X001145Y016353D01*
X001025Y016232D01*
X000923Y015986D01*
X000923Y015719D01*
X001025Y015473D01*
X001145Y015353D01*
X001025Y015232D01*
X000923Y014986D01*
X000923Y014719D01*
X001025Y014473D01*
X001145Y014353D01*
X001135Y014343D01*
X001105Y014343D01*
X000925Y014268D01*
X000763Y014106D01*
X000763Y014312D02*
X001031Y014312D01*
X000923Y014811D02*
X000763Y014811D01*
X000763Y015309D02*
X001102Y015309D01*
X000923Y015808D02*
X000763Y015808D01*
X000763Y016306D02*
X001099Y016306D01*
X000923Y016805D02*
X000763Y016805D01*
X000763Y017303D02*
X001096Y017303D01*
X000923Y017802D02*
X000763Y017802D01*
X000763Y018300D02*
X001093Y018300D01*
X000984Y018799D02*
X000763Y018799D01*
X000763Y019297D02*
X001175Y019297D01*
X000984Y019796D02*
X000763Y019796D01*
X000763Y020294D02*
X001172Y020294D01*
X000985Y020793D02*
X000763Y020793D01*
X000763Y021292D02*
X001169Y021292D01*
X000985Y021790D02*
X000763Y021790D01*
X000763Y022289D02*
X001166Y022289D01*
X000923Y022787D02*
X000763Y022787D01*
X000763Y023286D02*
X001078Y023286D01*
X000986Y023784D02*
X000763Y023784D01*
X000763Y024283D02*
X001160Y024283D01*
X000923Y024781D02*
X000763Y024781D01*
X000763Y025280D02*
X001072Y025280D01*
X000923Y025778D02*
X000763Y025778D01*
X000763Y026277D02*
X001070Y026277D01*
X000923Y026776D02*
X000763Y026776D01*
X000763Y027274D02*
X001067Y027274D01*
X000988Y027773D02*
X000763Y027773D01*
X000763Y028271D02*
X001149Y028271D01*
X001101Y028706D02*
X001101Y028706D01*
X001002Y028770D02*
X000763Y028770D01*
X001853Y028271D02*
X001853Y028271D01*
X002557Y028271D02*
X002973Y028271D01*
X002833Y027773D02*
X002718Y027773D01*
X002605Y028706D02*
X002605Y028706D01*
X002703Y028770D02*
X002973Y028770D01*
X004993Y028145D02*
X004993Y027955D01*
X005250Y028213D01*
X005503Y028213D01*
X005503Y027603D01*
X005503Y027603D01*
X005503Y028213D01*
X005713Y028213D01*
X005713Y028300D01*
X005173Y028840D01*
X005173Y028325D01*
X004993Y028145D01*
X005119Y028271D02*
X005713Y028271D01*
X005503Y027773D02*
X005503Y027773D01*
X005503Y027602D02*
X005503Y026993D01*
X005713Y026993D01*
X005713Y025861D01*
X005710Y025772D01*
X005713Y025764D01*
X005713Y025755D01*
X005747Y025673D01*
X005749Y025668D01*
X005603Y025668D01*
X005603Y025003D01*
X005603Y025003D01*
X005603Y025668D01*
X005327Y025668D01*
X005145Y025486D01*
X004903Y025728D01*
X004302Y025728D01*
X003878Y025303D01*
X003878Y024702D01*
X004063Y024517D01*
X004063Y024353D01*
X003493Y024353D01*
X003493Y024450D01*
X003418Y024630D01*
X003280Y024768D01*
X002780Y025268D01*
X002600Y025343D01*
X002570Y025343D01*
X002560Y025353D01*
X002570Y025363D01*
X003205Y025363D01*
X003400Y025363D01*
X003580Y025437D01*
X004918Y026775D01*
X004993Y026955D01*
X004993Y027150D01*
X004993Y027250D01*
X005250Y026993D01*
X005503Y026993D01*
X005503Y027602D01*
X005503Y027602D01*
X005503Y027274D02*
X005503Y027274D01*
X005713Y026776D02*
X004918Y026776D01*
X004420Y026277D02*
X005713Y026277D01*
X005710Y025778D02*
X003921Y025778D01*
X003878Y025280D02*
X002752Y025280D01*
X003267Y024781D02*
X003878Y024781D01*
X005043Y024417D02*
X005043Y024133D01*
X005669Y024133D01*
X005781Y024245D01*
X005963Y024320D01*
X005963Y024350D01*
X006014Y024473D01*
X005878Y024338D01*
X005603Y024338D01*
X005603Y025002D01*
X005603Y025002D01*
X005603Y024338D01*
X005327Y024338D01*
X005145Y024520D01*
X005043Y024417D01*
X005043Y024283D02*
X005873Y024283D01*
X005603Y024781D02*
X005603Y024781D01*
X005603Y025280D02*
X005603Y025280D01*
X003923Y021862D02*
X003923Y021213D01*
X003923Y021862D01*
X003923Y021862D01*
X003923Y021790D02*
X003923Y021790D01*
X003923Y021292D02*
X003923Y021292D01*
X004533Y021292D02*
X004721Y021292D01*
X005500Y020793D02*
X002721Y020793D01*
X002537Y021292D02*
X003312Y021292D01*
X002977Y021790D02*
X002720Y021790D01*
X002723Y021853D02*
X001853Y021853D01*
X002723Y021853D01*
X001853Y021853D02*
X001853Y021853D01*
X001853Y021852D02*
X001853Y021463D01*
X001853Y021852D01*
X001853Y021852D01*
X001853Y021790D02*
X001853Y021790D01*
X001853Y021292D02*
X001853Y021292D01*
X001853Y020793D02*
X001853Y020793D01*
X001853Y020294D02*
X001853Y020294D01*
X001853Y019852D02*
X001853Y019463D01*
X001853Y019852D01*
X001853Y019852D01*
X001853Y019796D02*
X001853Y019796D01*
X001853Y019297D02*
X001853Y019297D01*
X002531Y019297D02*
X004004Y019297D01*
X004503Y019796D02*
X002721Y019796D01*
X002534Y020294D02*
X005002Y020294D01*
X005456Y017363D02*
X007135Y017363D01*
X007188Y017310D01*
X007127Y017250D01*
X007071Y017172D01*
X007027Y017087D01*
X006998Y016996D01*
X006983Y016901D01*
X006983Y016853D01*
X007852Y016853D01*
X007852Y016853D01*
X006983Y016853D01*
X006983Y016805D01*
X006998Y016710D01*
X007027Y016619D01*
X007071Y016533D01*
X007127Y016455D01*
X007188Y016395D01*
X007175Y016383D01*
X006918Y016383D01*
X006863Y016421D01*
X006863Y016454D01*
X006747Y016733D01*
X006533Y016947D01*
X006254Y017063D01*
X005952Y017063D01*
X005940Y017058D01*
X005643Y017262D01*
X005603Y017302D01*
X005557Y017321D01*
X005516Y017349D01*
X005461Y017361D01*
X005456Y017363D01*
X005600Y017303D02*
X007181Y017303D01*
X006983Y016805D02*
X006676Y016805D01*
X006264Y015547D02*
X006412Y015444D01*
X006453Y015403D01*
X006498Y015385D01*
X006538Y015357D01*
X006557Y015353D01*
X006538Y015349D01*
X006498Y015321D01*
X006453Y015302D01*
X006412Y015261D01*
X006264Y015159D01*
X006254Y015163D01*
X005952Y015163D01*
X005672Y015047D01*
X005458Y014833D01*
X005343Y014554D01*
X005343Y014523D01*
X005138Y014383D01*
X004848Y014383D01*
X004836Y014395D01*
X005018Y014577D01*
X005018Y014853D01*
X005018Y015128D01*
X004793Y015353D01*
X005018Y015577D01*
X005018Y015853D01*
X005018Y016128D01*
X004836Y016310D01*
X004848Y016323D01*
X005138Y016323D01*
X005343Y016182D01*
X005343Y016152D01*
X005458Y015872D01*
X005672Y015658D01*
X005952Y015543D01*
X006254Y015543D01*
X006264Y015547D01*
X006469Y015309D02*
X004837Y015309D01*
X005018Y014853D02*
X004353Y014853D01*
X004353Y014853D01*
X004353Y015518D01*
X004353Y015852D01*
X004353Y015852D01*
X004353Y015853D02*
X004353Y015853D01*
X005018Y015853D01*
X004353Y015853D01*
X004353Y015852D02*
X004353Y015518D01*
X004353Y014853D01*
X004353Y014853D01*
X005018Y014853D01*
X005018Y014811D02*
X005449Y014811D01*
X005523Y015808D02*
X005018Y015808D01*
X005162Y016306D02*
X004840Y016306D01*
X004353Y015808D02*
X004353Y015808D01*
X004353Y015309D02*
X004353Y015309D01*
X009258Y008823D02*
X009449Y008902D01*
X009499Y008853D01*
X009401Y008755D01*
X009293Y008494D01*
X009293Y008211D01*
X009401Y007951D01*
X009541Y007810D01*
X009513Y007782D01*
X009461Y007715D01*
X009419Y007641D01*
X009386Y007562D01*
X009364Y007480D01*
X009353Y007395D01*
X009353Y007353D01*
X010302Y007353D01*
X010302Y007353D01*
X009353Y007353D01*
X009353Y007310D01*
X009364Y007226D01*
X009386Y007143D01*
X009419Y007065D01*
X009461Y006991D01*
X009513Y006923D01*
X009541Y006895D01*
X009401Y006755D01*
X009293Y006494D01*
X009293Y006211D01*
X009401Y005951D01*
X009452Y005899D01*
X009435Y005883D01*
X009270Y005883D01*
X009130Y006023D01*
X008770Y006023D01*
X008823Y006075D01*
X008823Y006630D01*
X008683Y006770D01*
X008683Y006935D01*
X008823Y007075D01*
X008823Y007630D01*
X008683Y007770D01*
X008683Y007935D01*
X008823Y008075D01*
X008823Y008630D01*
X008683Y008770D01*
X008683Y008823D01*
X009047Y008823D01*
X009258Y008823D01*
X009271Y008828D02*
X009474Y008828D01*
X009293Y008329D02*
X008823Y008329D01*
X008683Y007831D02*
X009520Y007831D01*
X009353Y007332D02*
X008823Y007332D01*
X008683Y006834D02*
X009480Y006834D01*
X009293Y006335D02*
X008823Y006335D01*
X009270Y004823D02*
X009435Y004823D01*
X009575Y004683D01*
X010130Y004683D01*
X010314Y004867D01*
X010403Y004903D01*
X010552Y005053D01*
X010752Y005253D01*
X010833Y005447D01*
X010833Y005658D01*
X010833Y005680D01*
X011005Y005751D01*
X011037Y005783D01*
X011124Y005783D01*
X011783Y005154D01*
X011783Y005025D01*
X011883Y004925D01*
X011883Y002963D01*
X011853Y002963D01*
X011853Y002353D01*
X011853Y002353D01*
X011853Y002963D01*
X011600Y002963D01*
X011395Y002758D01*
X011130Y003023D01*
X010575Y003023D01*
X010395Y002843D01*
X010255Y002843D01*
X010075Y002768D01*
X009575Y002268D01*
X009437Y002130D01*
X009363Y001950D01*
X009363Y001810D01*
X009353Y001800D01*
X009343Y001810D01*
X009343Y001950D01*
X009268Y002130D01*
X009130Y002268D01*
X008630Y002768D01*
X008450Y002843D01*
X008310Y002843D01*
X008130Y003023D01*
X007575Y003023D01*
X007353Y002800D01*
X007130Y003023D01*
X007022Y003023D01*
X007779Y003779D01*
X007875Y003683D01*
X008430Y003683D01*
X008823Y004075D01*
X008823Y004630D01*
X008770Y004683D01*
X009130Y004683D01*
X009270Y004823D01*
X008823Y004341D02*
X011883Y004341D01*
X011883Y004840D02*
X010287Y004840D01*
X010788Y005338D02*
X011590Y005338D01*
X011963Y006558D02*
X011752Y006760D01*
X011676Y006836D01*
X011669Y006839D01*
X011664Y006843D01*
X011565Y006882D01*
X011466Y006923D01*
X011459Y006923D01*
X011453Y006925D01*
X011346Y006923D01*
X011092Y006923D01*
X011092Y006923D01*
X011144Y006991D01*
X011187Y007065D01*
X011220Y007143D01*
X011242Y007226D01*
X011253Y007310D01*
X011253Y007353D01*
X011253Y007395D01*
X011242Y007480D01*
X011220Y007562D01*
X011187Y007641D01*
X011144Y007715D01*
X011092Y007782D01*
X011064Y007810D01*
X011117Y007863D01*
X011150Y007863D01*
X011330Y007937D01*
X011468Y008075D01*
X011668Y008275D01*
X011743Y008455D01*
X011743Y008650D01*
X011743Y009550D01*
X011668Y009730D01*
X011530Y009868D01*
X011216Y010183D01*
X011246Y010183D01*
X011492Y010285D01*
X011570Y010363D01*
X011900Y010363D01*
X012053Y010426D01*
X012053Y009850D01*
X011783Y009580D01*
X011783Y009025D01*
X011963Y008845D01*
X011963Y006558D01*
X011963Y006834D02*
X011678Y006834D01*
X011963Y007332D02*
X011253Y007332D01*
X011253Y007353D02*
X010303Y007353D01*
X011253Y007353D01*
X011085Y007831D02*
X011963Y007831D01*
X011963Y008329D02*
X011691Y008329D01*
X011743Y008828D02*
X011963Y008828D01*
X011783Y009327D02*
X011743Y009327D01*
X011573Y009825D02*
X012028Y009825D01*
X012053Y010324D02*
X011531Y010324D01*
X011752Y012645D02*
X012113Y013006D01*
X012113Y014188D01*
X012003Y014188D01*
X012003Y014852D01*
X012003Y014852D01*
X012003Y014188D01*
X011727Y014188D01*
X011519Y014396D01*
X011518Y014395D01*
X011681Y014232D01*
X011783Y013986D01*
X011783Y013719D01*
X011681Y013473D01*
X011560Y013353D01*
X011681Y013232D01*
X011783Y012986D01*
X011783Y012719D01*
X011752Y012645D01*
X011783Y012816D02*
X011923Y012816D01*
X012113Y013315D02*
X011598Y013315D01*
X011783Y013813D02*
X012113Y013813D01*
X012003Y014312D02*
X012003Y014312D01*
X011603Y014312D02*
X011601Y014312D01*
X012003Y014811D02*
X012003Y014811D01*
X012002Y014853D02*
X011338Y014853D01*
X012002Y014853D01*
X012002Y014853D01*
X011338Y014853D02*
X010853Y014853D01*
X010853Y014853D01*
X011338Y014853D01*
X005763Y008828D02*
X005393Y008828D01*
X005393Y008329D02*
X005763Y008329D01*
X005763Y007831D02*
X005393Y007831D01*
X005393Y007332D02*
X005763Y007332D01*
X005763Y006834D02*
X005322Y006834D01*
X005763Y006335D02*
X004828Y006335D01*
X007344Y003344D02*
X011883Y003344D01*
X011883Y003843D02*
X008590Y003843D01*
X008307Y002845D02*
X010398Y002845D01*
X009654Y002347D02*
X009051Y002347D01*
X009343Y001848D02*
X009363Y001848D01*
X010423Y001730D02*
X010523Y001630D01*
X010523Y001343D01*
X012053Y001343D01*
X012053Y001397D01*
X011970Y001480D01*
X011883Y001689D01*
X011883Y001743D01*
X011853Y001743D01*
X011853Y002352D01*
X011853Y002352D01*
X011853Y001743D01*
X011600Y001743D01*
X011395Y001948D01*
X011130Y001683D01*
X010575Y001683D01*
X010475Y001783D01*
X010423Y001730D01*
X010523Y001350D02*
X012053Y001350D01*
X011853Y001848D02*
X011853Y001848D01*
X011494Y001848D02*
X011296Y001848D01*
X011853Y002347D02*
X011853Y002347D01*
X011853Y002845D02*
X011853Y002845D01*
X011483Y002845D02*
X011307Y002845D01*
X007398Y002845D02*
X007307Y002845D01*
X010303Y007353D02*
X010303Y007353D01*
X024553Y013203D02*
X025103Y013203D01*
X025653Y013753D01*
X026503Y013753D01*
X026503Y013203D01*
X026353Y013053D01*
X026353Y012353D01*
X026403Y012303D01*
X026703Y009853D02*
X027403Y009853D01*
X027253Y009703D01*
X027253Y006753D01*
X027903Y006103D01*
X030253Y006103D01*
X030253Y007103D02*
X029103Y007103D01*
X028303Y007903D01*
X028303Y008703D01*
X027853Y009853D02*
X027403Y009853D01*
X027853Y009853D02*
X028853Y010853D01*
X030703Y010853D01*
X030853Y010853D01*
X031353Y011353D01*
X031353Y025603D01*
X031103Y025853D01*
X031103Y026953D01*
X031103Y027853D01*
X031053Y027903D01*
X030103Y027903D01*
X027837Y030169D01*
X027837Y030353D01*
X025869Y030353D02*
X025103Y030353D01*
X024603Y029853D01*
X024603Y027903D01*
X024303Y027853D01*
X024303Y026953D01*
X025353Y024353D02*
X024853Y023853D01*
X024853Y022553D01*
X025353Y024353D02*
X025903Y024353D01*
X027603Y024353D01*
X027553Y024403D01*
X027553Y025403D01*
X027353Y025603D01*
X027353Y026903D01*
X027303Y026953D01*
X028103Y026953D01*
X027603Y024353D02*
X027603Y022803D01*
X027203Y022403D01*
X027203Y021603D01*
X027203Y019603D02*
X025903Y019603D01*
X027203Y019603D02*
X028103Y019603D01*
X028753Y019203D01*
X029103Y018853D01*
X029103Y017003D01*
X030203Y015653D02*
X029553Y015003D01*
X029103Y015003D01*
X029103Y012703D01*
X029503Y012303D01*
X030403Y012303D01*
X030703Y009853D02*
X029853Y009853D01*
X029653Y009653D01*
X029653Y008803D01*
X030653Y008803D02*
X030703Y008853D01*
X031103Y008853D01*
X031353Y008603D01*
X031353Y007103D01*
X030253Y007103D01*
X031353Y007103D02*
X031353Y004353D01*
X030853Y003853D01*
X028353Y003853D01*
X027853Y003353D01*
X027853Y002369D01*
X027837Y002353D01*
X028303Y004703D02*
X028303Y004953D01*
X028353Y005153D01*
X029803Y005153D01*
X030253Y005103D01*
X028353Y005153D02*
X025753Y005153D01*
X028203Y015003D02*
X027253Y015953D01*
X025353Y015953D01*
X024953Y015953D01*
X024603Y016303D01*
X024603Y018303D01*
X028203Y015003D02*
X029103Y015003D01*
X030203Y015653D02*
X030203Y018603D01*
X024353Y031103D02*
X022803Y031103D01*
X014703Y030853D02*
X013103Y030853D01*
X013514Y030764D02*
X006333Y030764D01*
X006534Y030603D02*
X006345Y030414D01*
X006333Y030427D01*
X006333Y031073D01*
X013511Y031073D01*
X013516Y030643D01*
X009805Y030643D01*
X009625Y030568D01*
X009487Y030430D01*
X009408Y030351D01*
X009097Y030663D01*
X008509Y030663D01*
X008303Y030457D01*
X008097Y030663D01*
X007509Y030663D01*
X007260Y030414D01*
X007072Y030603D01*
X006803Y030603D01*
X006803Y029953D01*
X006803Y029953D01*
X006803Y030603D01*
X006534Y030603D01*
X006803Y030265D02*
X006803Y030265D01*
X005243Y028770D02*
X005173Y028770D01*
D33*
X020353Y021353D02*
X021503Y021353D01*
X023653Y021353D01*
X023653Y029103D01*
X023403Y029353D01*
X022353Y029353D01*
X021753Y029953D01*
X021753Y030853D01*
X021753Y031103D01*
X024353Y031251D02*
X025464Y031251D01*
X025488Y031275D02*
X025298Y031086D01*
X025231Y030923D01*
X025216Y030923D01*
X024989Y030923D01*
X024780Y030836D01*
X024353Y030409D01*
X024353Y031533D01*
X029005Y031533D01*
X028992Y031523D01*
X028992Y031523D01*
X028703Y031099D01*
X028552Y030609D01*
X028552Y030260D01*
X028509Y030302D01*
X028509Y030839D01*
X028407Y031086D01*
X028218Y031275D01*
X027971Y031378D01*
X027703Y031378D01*
X027456Y031275D01*
X027267Y031086D01*
X027164Y030839D01*
X027164Y029866D01*
X027267Y029619D01*
X027456Y029430D01*
X027703Y029328D01*
X027872Y029328D01*
X029780Y027420D01*
X029989Y027333D01*
X030216Y027333D01*
X030533Y027333D01*
X030533Y027287D01*
X030448Y027083D01*
X030448Y026823D01*
X030533Y026618D01*
X030533Y025966D01*
X030533Y025739D01*
X030620Y025530D01*
X030783Y025367D01*
X030783Y022169D01*
X030696Y022198D01*
X030601Y022213D01*
X030203Y022213D01*
X030203Y021603D01*
X030203Y021603D01*
X030203Y022213D01*
X029805Y022213D01*
X029710Y022198D01*
X029619Y022168D01*
X029533Y022124D01*
X029455Y022068D01*
X029387Y022000D01*
X029331Y021922D01*
X029287Y021837D01*
X029258Y021746D01*
X029243Y021651D01*
X029243Y021603D01*
X030202Y021603D01*
X030202Y021603D01*
X029243Y021603D01*
X029243Y021555D01*
X029258Y021460D01*
X029287Y021369D01*
X029331Y021283D01*
X029387Y021205D01*
X029455Y021137D01*
X029503Y021103D01*
X029455Y021068D01*
X029387Y021000D01*
X029331Y020922D01*
X029287Y020837D01*
X029258Y020746D01*
X029243Y020651D01*
X029243Y020603D01*
X030202Y020603D01*
X030202Y020603D01*
X030203Y020603D02*
X030203Y020993D01*
X030203Y021602D01*
X030203Y021602D01*
X030203Y020993D01*
X030203Y020603D01*
X030203Y020603D01*
X030203Y020602D02*
X030203Y019993D01*
X030203Y019603D01*
X030203Y019603D01*
X030203Y019993D01*
X030203Y020602D01*
X030203Y020602D01*
X030202Y020603D02*
X029243Y020603D01*
X029243Y020555D01*
X029258Y020460D01*
X029287Y020369D01*
X029331Y020283D01*
X029387Y020205D01*
X029455Y020137D01*
X029503Y020103D01*
X029455Y020068D01*
X029387Y020000D01*
X029331Y019922D01*
X029287Y019837D01*
X029258Y019746D01*
X029243Y019651D01*
X029243Y019603D01*
X030202Y019603D01*
X030202Y019603D01*
X029243Y019603D01*
X029243Y019555D01*
X029250Y019512D01*
X029188Y019574D01*
X029148Y019629D01*
X029109Y019653D01*
X029076Y019686D01*
X029013Y019712D01*
X028458Y020053D01*
X028426Y020086D01*
X028363Y020112D01*
X028305Y020148D01*
X028259Y020155D01*
X028216Y020173D01*
X028148Y020173D01*
X028081Y020183D01*
X028036Y020173D01*
X027985Y020173D01*
X028018Y020205D01*
X028074Y020283D01*
X028118Y020369D01*
X028148Y020460D01*
X028163Y020555D01*
X028163Y020603D01*
X028163Y020651D01*
X028148Y020746D01*
X028118Y020837D01*
X028074Y020922D01*
X028018Y021000D01*
X027958Y021060D01*
X028121Y021223D01*
X028223Y021469D01*
X028223Y021736D01*
X028121Y021982D01*
X027932Y022171D01*
X027822Y022216D01*
X027926Y022320D01*
X028086Y022480D01*
X028173Y022689D01*
X028173Y023535D01*
X028284Y023581D01*
X028374Y023671D01*
X028423Y023789D01*
X028423Y024916D01*
X028374Y025034D01*
X028284Y025124D01*
X028166Y025173D01*
X028123Y025173D01*
X028123Y025289D01*
X028123Y025516D01*
X028036Y025726D01*
X027923Y025839D01*
X027923Y026319D01*
X027973Y026298D01*
X028233Y026298D01*
X028474Y026398D01*
X028658Y026582D01*
X028757Y026823D01*
X028757Y027083D01*
X028658Y027324D01*
X028536Y027445D01*
X028556Y027465D01*
X028611Y027541D01*
X028654Y027624D01*
X028683Y027713D01*
X028697Y027806D01*
X028697Y027853D01*
X028697Y027900D01*
X028683Y027992D01*
X028654Y028081D01*
X028611Y028164D01*
X028556Y028240D01*
X028490Y028306D01*
X028414Y028361D01*
X028331Y028404D01*
X028242Y028433D01*
X028150Y028447D01*
X028103Y028447D01*
X028103Y027853D01*
X028103Y027853D01*
X028697Y027853D01*
X028103Y027853D01*
X028103Y027853D01*
X028103Y028447D01*
X028056Y028447D01*
X027963Y028433D01*
X027874Y028404D01*
X027791Y028361D01*
X027715Y028306D01*
X027703Y028294D01*
X027690Y028306D01*
X027614Y028361D01*
X027531Y028404D01*
X027442Y028433D01*
X027350Y028447D01*
X027303Y028447D01*
X027303Y027853D01*
X027508Y027853D01*
X028102Y027853D01*
X028102Y027853D01*
X027508Y027853D01*
X027303Y027853D01*
X027303Y027853D01*
X027303Y027853D01*
X027303Y028447D01*
X027256Y028447D01*
X027163Y028433D01*
X027074Y028404D01*
X026991Y028361D01*
X026915Y028306D01*
X026849Y028240D01*
X026794Y028164D01*
X026752Y028081D01*
X026723Y027992D01*
X026708Y027900D01*
X026708Y027853D01*
X027302Y027853D01*
X027302Y027853D01*
X026708Y027853D01*
X026708Y027806D01*
X026723Y027713D01*
X026752Y027624D01*
X026794Y027541D01*
X026849Y027465D01*
X026869Y027445D01*
X026748Y027324D01*
X026648Y027083D01*
X026648Y026823D01*
X026748Y026582D01*
X026783Y026547D01*
X026783Y025489D01*
X026870Y025280D01*
X026983Y025167D01*
X026983Y025149D01*
X026921Y025124D01*
X026831Y025034D01*
X026785Y024923D01*
X026286Y024923D01*
X026478Y025115D01*
X026478Y025353D01*
X026478Y025591D01*
X026141Y025928D01*
X025903Y025928D01*
X025903Y025353D01*
X025903Y025353D01*
X026478Y025353D01*
X025903Y025353D01*
X025903Y025353D01*
X025903Y025928D01*
X025665Y025928D01*
X025328Y025591D01*
X025328Y025353D01*
X025902Y025353D01*
X025902Y025353D01*
X025328Y025353D01*
X025328Y025115D01*
X025520Y024923D01*
X025466Y024923D01*
X025239Y024923D01*
X025030Y024836D01*
X024530Y024336D01*
X024370Y024176D01*
X024353Y024135D01*
X024353Y026298D01*
X024433Y026298D01*
X024674Y026398D01*
X024858Y026582D01*
X024957Y026823D01*
X024957Y027083D01*
X024873Y027287D01*
X024873Y027398D01*
X024926Y027420D01*
X024960Y027454D01*
X025001Y027479D01*
X025039Y027533D01*
X025086Y027580D01*
X025104Y027624D01*
X025132Y027664D01*
X025147Y027728D01*
X025173Y027789D01*
X025173Y027838D01*
X025184Y027885D01*
X025173Y027950D01*
X025173Y029617D01*
X025262Y029706D01*
X025298Y029619D01*
X025488Y029430D01*
X025735Y029328D01*
X026002Y029328D01*
X026249Y029430D01*
X026439Y029619D01*
X026541Y029866D01*
X026541Y030839D01*
X026439Y031086D01*
X026249Y031275D01*
X026002Y031378D01*
X025735Y031378D01*
X025488Y031275D01*
X025235Y030933D02*
X024353Y030933D01*
X024353Y030614D02*
X024558Y030614D01*
X025215Y029659D02*
X025282Y029659D01*
X025173Y029340D02*
X025705Y029340D01*
X026032Y029340D02*
X027673Y029340D01*
X027250Y029659D02*
X026455Y029659D01*
X026541Y029977D02*
X027164Y029977D01*
X027164Y030296D02*
X026541Y030296D01*
X026541Y030614D02*
X027164Y030614D01*
X027203Y030933D02*
X026502Y030933D01*
X026273Y031251D02*
X027432Y031251D01*
X028242Y031251D02*
X028807Y031251D01*
X028703Y031099D02*
X028703Y031099D01*
X028652Y030933D02*
X028471Y030933D01*
X028509Y030614D02*
X028554Y030614D01*
X028552Y030609D02*
X028552Y030609D01*
X028552Y030296D02*
X028516Y030296D01*
X028178Y029022D02*
X025173Y029022D01*
X025173Y028703D02*
X028496Y028703D01*
X028369Y028385D02*
X028815Y028385D01*
X028659Y028066D02*
X029133Y028066D01*
X029452Y027747D02*
X028688Y027747D01*
X028552Y027429D02*
X029770Y027429D01*
X030459Y027110D02*
X028746Y027110D01*
X028745Y026792D02*
X030461Y026792D01*
X030533Y026473D02*
X028549Y026473D01*
X027923Y026155D02*
X030533Y026155D01*
X030533Y025836D02*
X027925Y025836D01*
X028122Y025518D02*
X030632Y025518D01*
X030783Y025199D02*
X028123Y025199D01*
X028423Y024881D02*
X029056Y024881D01*
X029030Y024855D02*
X028969Y024776D01*
X028920Y024690D01*
X028882Y024598D01*
X028856Y024501D01*
X028843Y024403D01*
X028843Y024353D01*
X029602Y024353D01*
X029602Y024353D01*
X029603Y024353D02*
X029603Y025113D01*
X029603Y024353D01*
X029603Y024353D01*
X030363Y024353D01*
X030363Y024403D01*
X030350Y024501D01*
X030324Y024598D01*
X030286Y024690D01*
X030236Y024776D01*
X030175Y024855D01*
X030105Y024925D01*
X030026Y024986D01*
X029940Y025036D01*
X029848Y025074D01*
X029751Y025100D01*
X029653Y025113D01*
X029603Y025113D01*
X029553Y025113D01*
X029454Y025100D01*
X029358Y025074D01*
X029266Y025036D01*
X029180Y024986D01*
X029101Y024925D01*
X029030Y024855D01*
X028872Y024562D02*
X028423Y024562D01*
X028423Y024244D02*
X028851Y024244D01*
X028856Y024204D02*
X028882Y024108D01*
X028920Y024016D01*
X028969Y023930D01*
X029030Y023851D01*
X029101Y023780D01*
X029180Y023719D01*
X029266Y023670D01*
X029358Y023632D01*
X029454Y023606D01*
X029553Y023593D01*
X029603Y023593D01*
X029653Y023593D01*
X029751Y023606D01*
X029848Y023632D01*
X029940Y023670D01*
X030026Y023719D01*
X030105Y023780D01*
X030175Y023851D01*
X030236Y023930D01*
X030286Y024016D01*
X030324Y024108D01*
X030350Y024204D01*
X030363Y024303D01*
X030363Y024353D01*
X029603Y024353D01*
X029603Y024353D01*
X029603Y024352D02*
X029603Y023593D01*
X029603Y024352D01*
X029603Y024352D01*
X029602Y024353D02*
X028843Y024353D01*
X028843Y024303D01*
X028856Y024204D01*
X028973Y023925D02*
X028423Y023925D01*
X028309Y023606D02*
X029452Y023606D01*
X029603Y023606D02*
X029603Y023606D01*
X029754Y023606D02*
X030783Y023606D01*
X030783Y023288D02*
X028173Y023288D01*
X028173Y022969D02*
X030783Y022969D01*
X030783Y022651D02*
X028157Y022651D01*
X027938Y022332D02*
X030783Y022332D01*
X030203Y022014D02*
X030203Y022014D01*
X030203Y021695D02*
X030203Y021695D01*
X030203Y021377D02*
X030203Y021377D01*
X030203Y021058D02*
X030203Y021058D01*
X030203Y020740D02*
X030203Y020740D01*
X030203Y020421D02*
X030203Y020421D01*
X030203Y020102D02*
X030203Y020102D01*
X030203Y019784D02*
X030203Y019784D01*
X029503Y020102D02*
X028386Y020102D01*
X028135Y020421D02*
X029270Y020421D01*
X029257Y020740D02*
X028149Y020740D01*
X028163Y020603D02*
X027203Y020603D01*
X027203Y020603D01*
X028163Y020603D01*
X027960Y021058D02*
X029445Y021058D01*
X029285Y021377D02*
X028184Y021377D01*
X028223Y021695D02*
X029250Y021695D01*
X029401Y022014D02*
X028089Y022014D01*
X027033Y023039D02*
X026880Y022886D01*
X026720Y022726D01*
X026633Y022516D01*
X026633Y022237D01*
X026473Y022171D01*
X026285Y021982D01*
X026183Y021736D01*
X026183Y021469D01*
X026285Y021223D01*
X026448Y021060D01*
X026387Y021000D01*
X026331Y020922D01*
X026287Y020837D01*
X026258Y020746D01*
X026243Y020651D01*
X026243Y020603D01*
X027202Y020603D01*
X027202Y020603D01*
X026243Y020603D01*
X026243Y020555D01*
X026258Y020460D01*
X026287Y020369D01*
X026331Y020283D01*
X026387Y020205D01*
X026420Y020173D01*
X026237Y020173D01*
X026033Y020257D01*
X025773Y020257D01*
X025532Y020158D01*
X025353Y019979D01*
X025224Y020108D01*
X024983Y020207D01*
X024723Y020207D01*
X024482Y020108D01*
X024407Y020033D01*
X024353Y020033D01*
X024353Y022127D01*
X024482Y021998D01*
X024723Y021898D01*
X024983Y021898D01*
X025224Y021998D01*
X025408Y022182D01*
X025432Y022240D01*
X025449Y022215D01*
X025515Y022149D01*
X025591Y022094D01*
X025674Y022052D01*
X025763Y022023D01*
X025856Y022008D01*
X025903Y022008D01*
X025950Y022008D01*
X026042Y022023D01*
X026131Y022052D01*
X026214Y022094D01*
X026290Y022149D01*
X026356Y022215D01*
X026411Y022291D01*
X026454Y022374D01*
X026483Y022463D01*
X026497Y022556D01*
X026497Y022603D01*
X026497Y022650D01*
X026483Y022742D01*
X026454Y022831D01*
X026411Y022914D01*
X026356Y022990D01*
X026290Y023056D01*
X026214Y023111D01*
X026131Y023154D01*
X026042Y023183D01*
X025950Y023197D01*
X025903Y023197D01*
X025903Y022603D01*
X025903Y022603D01*
X026497Y022603D01*
X025903Y022603D01*
X025903Y022603D01*
X025903Y023197D01*
X025856Y023197D01*
X025763Y023183D01*
X025674Y023154D01*
X025591Y023111D01*
X025515Y023056D01*
X025449Y022990D01*
X025423Y022954D01*
X025423Y023617D01*
X025582Y023776D01*
X025640Y023718D01*
X026166Y023718D01*
X026231Y023783D01*
X026785Y023783D01*
X026831Y023671D01*
X026921Y023581D01*
X027033Y023535D01*
X027033Y023039D01*
X026963Y022969D02*
X026371Y022969D01*
X026497Y022651D02*
X026689Y022651D01*
X026633Y022332D02*
X026432Y022332D01*
X026316Y022014D02*
X025985Y022014D01*
X025903Y022014D02*
X025903Y022014D01*
X025903Y022008D02*
X025903Y022602D01*
X025903Y022602D01*
X025903Y022008D01*
X025821Y022014D02*
X025239Y022014D01*
X025903Y022332D02*
X025903Y022332D01*
X025903Y022651D02*
X025903Y022651D01*
X025903Y022969D02*
X025903Y022969D01*
X025434Y022969D02*
X025423Y022969D01*
X025423Y023288D02*
X027033Y023288D01*
X026896Y023606D02*
X025423Y023606D01*
X024756Y024562D02*
X024353Y024562D01*
X024353Y024244D02*
X024437Y024244D01*
X024353Y024881D02*
X025138Y024881D01*
X025328Y025199D02*
X024353Y025199D01*
X024353Y025518D02*
X025328Y025518D01*
X025573Y025836D02*
X024353Y025836D01*
X024353Y026155D02*
X026783Y026155D01*
X026783Y026473D02*
X024749Y026473D01*
X024945Y026792D02*
X026661Y026792D01*
X026659Y027110D02*
X024946Y027110D01*
X024935Y027429D02*
X026853Y027429D01*
X026717Y027747D02*
X025155Y027747D01*
X025173Y028066D02*
X026747Y028066D01*
X027037Y028385D02*
X025173Y028385D01*
X027303Y028385D02*
X027303Y028385D01*
X027569Y028385D02*
X027837Y028385D01*
X028103Y028385D02*
X028103Y028385D01*
X028103Y028066D02*
X028103Y028066D01*
X027303Y028066D02*
X027303Y028066D01*
X026783Y025836D02*
X026232Y025836D01*
X025903Y025836D02*
X025903Y025836D01*
X025903Y025518D02*
X025903Y025518D01*
X026478Y025518D02*
X026783Y025518D01*
X026950Y025199D02*
X026478Y025199D01*
X029603Y024881D02*
X029603Y024881D01*
X029603Y024562D02*
X029603Y024562D01*
X029603Y024244D02*
X029603Y024244D01*
X029603Y023925D02*
X029603Y023925D01*
X030232Y023925D02*
X030783Y023925D01*
X030783Y024244D02*
X030355Y024244D01*
X030333Y024562D02*
X030783Y024562D01*
X030783Y024881D02*
X030150Y024881D01*
X026445Y021058D02*
X024353Y021058D01*
X024353Y020740D02*
X026257Y020740D01*
X026270Y020421D02*
X024353Y020421D01*
X024353Y020102D02*
X024477Y020102D01*
X024853Y019553D02*
X023653Y019553D01*
X023653Y021353D01*
X024353Y021377D02*
X026221Y021377D01*
X026183Y021695D02*
X024353Y021695D01*
X024353Y022014D02*
X024466Y022014D01*
X025229Y020102D02*
X025477Y020102D01*
X025403Y019177D02*
X025532Y019048D01*
X025773Y018948D01*
X026033Y018948D01*
X026237Y019033D01*
X026420Y019033D01*
X026387Y019000D01*
X026331Y018922D01*
X026287Y018837D01*
X026258Y018746D01*
X026243Y018651D01*
X026243Y018603D01*
X027202Y018603D01*
X027202Y018603D01*
X026243Y018603D01*
X026243Y018555D01*
X026258Y018460D01*
X026287Y018369D01*
X026331Y018283D01*
X026387Y018205D01*
X026455Y018137D01*
X026533Y018081D01*
X026619Y018037D01*
X026710Y018008D01*
X026805Y017993D01*
X027203Y017993D01*
X027601Y017993D01*
X027696Y018008D01*
X027787Y018037D01*
X027872Y018081D01*
X027950Y018137D01*
X028018Y018205D01*
X028074Y018283D01*
X028118Y018369D01*
X028148Y018460D01*
X028163Y018555D01*
X028163Y018603D01*
X028163Y018651D01*
X028148Y018746D01*
X028118Y018837D01*
X028074Y018922D01*
X028037Y018974D01*
X028397Y018752D01*
X028533Y018617D01*
X028533Y017342D01*
X028525Y017324D01*
X028525Y016682D01*
X028574Y016564D01*
X028664Y016474D01*
X028782Y016425D01*
X029424Y016425D01*
X029541Y016474D01*
X029631Y016564D01*
X029633Y016567D01*
X029633Y015889D01*
X029324Y015580D01*
X028782Y015580D01*
X028764Y015573D01*
X028439Y015573D01*
X027736Y016276D01*
X027576Y016436D01*
X027366Y016523D01*
X025935Y016523D01*
X025884Y016574D01*
X025844Y016591D01*
X025874Y016633D01*
X025918Y016719D01*
X025948Y016810D01*
X025963Y016905D01*
X025963Y016953D01*
X025963Y017001D01*
X025948Y017096D01*
X025918Y017187D01*
X025874Y017272D01*
X025818Y017350D01*
X025750Y017418D01*
X025672Y017474D01*
X025587Y017518D01*
X025496Y017548D01*
X025401Y017563D01*
X025353Y017563D01*
X025353Y016953D01*
X025353Y016953D01*
X025963Y016953D01*
X025353Y016953D01*
X025353Y016953D01*
X025353Y017563D01*
X025305Y017563D01*
X025210Y017548D01*
X025173Y017536D01*
X025173Y017920D01*
X025365Y017728D01*
X025603Y017728D01*
X025841Y017728D01*
X026178Y018065D01*
X026178Y018303D01*
X026178Y018541D01*
X025841Y018878D01*
X025603Y018878D01*
X025603Y018303D01*
X025603Y018303D01*
X026178Y018303D01*
X025603Y018303D01*
X025603Y018303D01*
X025603Y018878D01*
X025365Y018878D01*
X025145Y018658D01*
X024905Y018898D01*
X024983Y018898D01*
X025224Y018998D01*
X025403Y019177D01*
X025373Y019147D02*
X025433Y019147D01*
X025315Y018828D02*
X024975Y018828D01*
X025603Y018828D02*
X025603Y018828D01*
X025890Y018828D02*
X026285Y018828D01*
X026250Y018510D02*
X026178Y018510D01*
X026178Y018191D02*
X026402Y018191D01*
X025986Y017873D02*
X028533Y017873D01*
X028533Y018191D02*
X028004Y018191D01*
X028156Y018510D02*
X028533Y018510D01*
X028274Y018828D02*
X028121Y018828D01*
X028163Y018603D02*
X027203Y018603D01*
X027203Y018603D01*
X028163Y018603D01*
X027203Y018602D02*
X027203Y017993D01*
X027203Y018602D01*
X027203Y018602D01*
X027203Y018510D02*
X027203Y018510D01*
X027203Y018191D02*
X027203Y018191D01*
X025893Y017236D02*
X028525Y017236D01*
X028533Y017554D02*
X025455Y017554D01*
X025353Y017554D02*
X025353Y017554D01*
X025250Y017554D02*
X025173Y017554D01*
X025173Y017873D02*
X025220Y017873D01*
X025603Y017873D02*
X025603Y017873D01*
X025603Y017728D02*
X025603Y018302D01*
X025603Y018302D01*
X025603Y017728D01*
X025353Y017236D02*
X025353Y017236D01*
X025963Y016917D02*
X028525Y016917D01*
X028560Y016598D02*
X025849Y016598D01*
X025935Y015383D02*
X027017Y015383D01*
X027880Y014520D01*
X028089Y014433D01*
X028316Y014433D01*
X028533Y014433D01*
X028533Y012589D01*
X028620Y012380D01*
X028780Y012220D01*
X029180Y011820D01*
X029389Y011733D01*
X029616Y011733D01*
X030003Y011733D01*
X030027Y011723D01*
X030778Y011723D01*
X030783Y011725D01*
X030783Y011589D01*
X030627Y011433D01*
X030463Y011433D01*
X030453Y011423D01*
X028739Y011423D01*
X028530Y011336D01*
X028370Y011176D01*
X027617Y010423D01*
X027516Y010423D01*
X027289Y010423D01*
X027093Y010423D01*
X027283Y010613D01*
X027283Y011093D01*
X026943Y011433D01*
X026463Y011433D01*
X026323Y011293D01*
X026215Y011293D01*
X026054Y011226D01*
X025504Y010676D01*
X025380Y010552D01*
X025313Y010390D01*
X025313Y007533D01*
X025261Y007481D01*
X025173Y007268D01*
X025173Y007037D01*
X025261Y006824D01*
X025424Y006661D01*
X025444Y006653D01*
X025424Y006644D01*
X025261Y006481D01*
X025173Y006268D01*
X025173Y006037D01*
X025261Y005824D01*
X025424Y005661D01*
X025444Y005653D01*
X025424Y005644D01*
X025261Y005481D01*
X025173Y005268D01*
X025173Y005037D01*
X025261Y004824D01*
X025424Y004661D01*
X025637Y004573D01*
X026388Y004573D01*
X026412Y004583D01*
X027723Y004583D01*
X027723Y004463D01*
X027940Y004246D01*
X027530Y003836D01*
X027370Y003676D01*
X027283Y003466D01*
X027283Y003102D01*
X027267Y003086D01*
X027164Y002839D01*
X027164Y001866D01*
X027267Y001619D01*
X027456Y001430D01*
X027703Y001328D01*
X027971Y001328D01*
X028218Y001430D01*
X028407Y001619D01*
X028502Y001848D01*
X028502Y001596D01*
X028653Y001106D01*
X028942Y000683D01*
X028955Y000673D01*
X024353Y000673D01*
X024353Y012558D01*
X024941Y012558D01*
X025059Y012606D01*
X025085Y012633D01*
X025216Y012633D01*
X025426Y012720D01*
X025783Y013077D01*
X025783Y012763D01*
X025651Y012631D01*
X025563Y012418D01*
X025563Y012187D01*
X025651Y011974D01*
X025814Y011811D01*
X026027Y011723D01*
X026778Y011723D01*
X026991Y011811D01*
X027154Y011974D01*
X027243Y012187D01*
X027243Y012418D01*
X027154Y012631D01*
X026991Y012794D01*
X026927Y012821D01*
X026986Y012880D01*
X027073Y013089D01*
X027073Y013316D01*
X027073Y013370D01*
X027265Y013178D01*
X027503Y013178D01*
X027741Y013178D01*
X028078Y013515D01*
X028078Y013753D01*
X028078Y013991D01*
X027741Y014328D01*
X027503Y014328D01*
X027503Y013753D01*
X027503Y013753D01*
X028078Y013753D01*
X027503Y013753D01*
X027503Y013753D01*
X027503Y014328D01*
X027265Y014328D01*
X027045Y014108D01*
X026766Y014388D01*
X026240Y014388D01*
X026175Y014323D01*
X025539Y014323D01*
X025330Y014236D01*
X025170Y014076D01*
X025106Y014012D01*
X025123Y014066D01*
X025138Y014157D01*
X025138Y014203D01*
X025138Y014249D01*
X025123Y014340D01*
X025095Y014427D01*
X025053Y014509D01*
X024999Y014584D01*
X024934Y014649D01*
X024859Y014703D01*
X024777Y014745D01*
X024690Y014773D01*
X024599Y014788D01*
X024553Y014788D01*
X024553Y014203D01*
X024553Y014203D01*
X025138Y014203D01*
X024553Y014203D01*
X024553Y014203D01*
X024553Y014788D01*
X024507Y014788D01*
X024416Y014773D01*
X024353Y014753D01*
X024353Y015747D01*
X024630Y015470D01*
X024728Y015429D01*
X024731Y015421D01*
X024821Y015331D01*
X024939Y015283D01*
X025766Y015283D01*
X025884Y015331D01*
X025935Y015383D01*
X025867Y015324D02*
X027075Y015324D01*
X027394Y015006D02*
X024353Y015006D01*
X024353Y015324D02*
X024839Y015324D01*
X024457Y015643D02*
X024353Y015643D01*
X024553Y014687D02*
X024553Y014687D01*
X024553Y014369D02*
X024553Y014369D01*
X024881Y014687D02*
X027712Y014687D01*
X027503Y014050D02*
X027503Y014050D01*
X027503Y013752D02*
X027503Y013178D01*
X027503Y013752D01*
X027503Y013752D01*
X027503Y013732D02*
X027503Y013732D01*
X027503Y013413D02*
X027503Y013413D01*
X027073Y013094D02*
X028533Y013094D01*
X028533Y012776D02*
X027010Y012776D01*
X027226Y012457D02*
X028587Y012457D01*
X028861Y012139D02*
X027223Y012139D01*
X027001Y011820D02*
X029179Y011820D01*
X028377Y011183D02*
X027192Y011183D01*
X027283Y010865D02*
X028059Y010865D01*
X028370Y011176D02*
X028370Y011176D01*
X027740Y010546D02*
X027216Y010546D01*
X026011Y011183D02*
X024353Y011183D01*
X024353Y010865D02*
X025692Y010865D01*
X025377Y010546D02*
X024353Y010546D01*
X024353Y010228D02*
X025313Y010228D01*
X025313Y009909D02*
X024353Y009909D01*
X024353Y009591D02*
X025313Y009591D01*
X025313Y009272D02*
X024353Y009272D01*
X024353Y008953D02*
X025313Y008953D01*
X025313Y008635D02*
X024353Y008635D01*
X024353Y008316D02*
X025313Y008316D01*
X025313Y007998D02*
X024353Y007998D01*
X024353Y007679D02*
X025313Y007679D01*
X025211Y007361D02*
X024353Y007361D01*
X024353Y007042D02*
X025173Y007042D01*
X025362Y006724D02*
X024353Y006724D01*
X024353Y006405D02*
X025230Y006405D01*
X025173Y006087D02*
X024353Y006087D01*
X024353Y005768D02*
X025317Y005768D01*
X025248Y005449D02*
X024353Y005449D01*
X024353Y005131D02*
X025173Y005131D01*
X025273Y004812D02*
X024353Y004812D01*
X024353Y004494D02*
X027723Y004494D01*
X027869Y004175D02*
X024353Y004175D01*
X024353Y003857D02*
X027551Y003857D01*
X027313Y003538D02*
X024353Y003538D01*
X024353Y003220D02*
X025432Y003220D01*
X025488Y003275D02*
X025298Y003086D01*
X025196Y002839D01*
X025196Y001866D01*
X025298Y001619D01*
X025488Y001430D01*
X025735Y001328D01*
X026002Y001328D01*
X026249Y001430D01*
X026439Y001619D01*
X026541Y001866D01*
X026541Y002839D01*
X026439Y003086D01*
X026249Y003275D01*
X026002Y003378D01*
X025735Y003378D01*
X025488Y003275D01*
X025222Y002901D02*
X024353Y002901D01*
X024353Y002583D02*
X025196Y002583D01*
X025196Y002264D02*
X024353Y002264D01*
X024353Y001945D02*
X025196Y001945D01*
X025295Y001627D02*
X024353Y001627D01*
X024353Y001308D02*
X028591Y001308D01*
X028653Y001106D02*
X028653Y001106D01*
X028733Y000990D02*
X024353Y000990D01*
X026442Y001627D02*
X027264Y001627D01*
X027164Y001945D02*
X026541Y001945D01*
X026541Y002264D02*
X027164Y002264D01*
X027164Y002583D02*
X026541Y002583D01*
X026515Y002901D02*
X027190Y002901D01*
X027283Y003220D02*
X026305Y003220D01*
X028410Y001627D02*
X028502Y001627D01*
X028502Y001596D02*
X028502Y001596D01*
X028942Y000683D02*
X028942Y000683D01*
X028942Y000683D01*
X021653Y001653D02*
X021353Y001353D01*
X012903Y001353D01*
X012453Y001803D01*
X012453Y005303D01*
X011353Y006353D01*
X010303Y006353D01*
X021203Y007753D02*
X021203Y003853D01*
X021653Y003403D01*
X021653Y001653D01*
X021203Y007753D02*
X022403Y008953D01*
X022403Y012103D01*
X022403Y012903D01*
X022703Y013203D01*
X023553Y013203D01*
X023653Y013303D01*
X023653Y017353D01*
X023603Y017303D01*
X021353Y017303D01*
X023653Y017353D02*
X023653Y019553D01*
X025603Y018510D02*
X025603Y018510D01*
X025603Y018191D02*
X025603Y018191D01*
X027732Y016280D02*
X029633Y016280D01*
X029633Y015961D02*
X028050Y015961D01*
X028369Y015643D02*
X029387Y015643D01*
X028533Y014369D02*
X026785Y014369D01*
X026221Y014369D02*
X025114Y014369D01*
X025118Y014050D02*
X025144Y014050D01*
X024553Y013203D02*
X023553Y013203D01*
X024353Y012457D02*
X025579Y012457D01*
X025583Y012139D02*
X024353Y012139D01*
X024353Y011820D02*
X025805Y011820D01*
X025783Y012776D02*
X025482Y012776D01*
X024353Y011502D02*
X030696Y011502D01*
X028533Y013413D02*
X027976Y013413D01*
X028078Y013732D02*
X028533Y013732D01*
X028533Y014050D02*
X028019Y014050D01*
X028896Y019784D02*
X029270Y019784D01*
D34*
X023283Y019766D02*
X021832Y019766D01*
X021734Y019864D02*
X023283Y019864D01*
X023283Y019963D02*
X021770Y019963D01*
X021720Y019878D02*
X021285Y019878D01*
X021050Y019643D01*
X020987Y019643D01*
X020879Y019751D01*
X020706Y019823D01*
X019999Y019823D01*
X019826Y019751D01*
X019718Y019643D01*
X019710Y019643D01*
X019595Y019643D01*
X019488Y019599D01*
X019343Y019453D01*
X019343Y020033D01*
X019373Y020063D01*
X019718Y020063D01*
X019826Y019954D01*
X019999Y019883D01*
X020706Y019883D01*
X020879Y019954D01*
X021011Y020086D01*
X021041Y020157D01*
X021310Y019888D01*
X021473Y019888D01*
X021473Y020322D01*
X021533Y020322D01*
X021533Y019888D01*
X021695Y019888D01*
X021968Y020160D01*
X021968Y020323D01*
X021533Y020323D01*
X021533Y020383D01*
X021473Y020383D01*
X021473Y020818D01*
X021310Y020818D01*
X021041Y020548D01*
X021011Y020619D01*
X020879Y020751D01*
X020706Y020823D01*
X019999Y020823D01*
X019826Y020751D01*
X019718Y020643D01*
X019195Y020643D01*
X019088Y020599D01*
X019007Y020517D01*
X018903Y020413D01*
X018843Y020473D01*
X018843Y022553D01*
X018888Y022507D01*
X019288Y022107D01*
X019395Y022063D01*
X019510Y022063D01*
X019718Y022063D01*
X019826Y021954D01*
X019999Y021883D01*
X020706Y021883D01*
X020879Y021954D01*
X020987Y022063D01*
X021178Y022063D01*
X021358Y021883D01*
X021747Y021883D01*
X021927Y022063D01*
X022228Y022063D01*
X022408Y021883D01*
X022797Y021883D01*
X023073Y022158D01*
X023073Y022547D01*
X022893Y022727D01*
X022893Y022950D01*
X023128Y023185D01*
X023128Y023620D01*
X022820Y023928D01*
X022385Y023928D01*
X022078Y023620D01*
X022078Y023185D01*
X022313Y022950D01*
X022313Y022727D01*
X022228Y022643D01*
X021927Y022643D01*
X021747Y022823D01*
X021358Y022823D01*
X021178Y022643D01*
X020987Y022643D01*
X020879Y022751D01*
X020706Y022823D01*
X019999Y022823D01*
X019826Y022751D01*
X019718Y022643D01*
X019573Y022643D01*
X019343Y022873D01*
X019343Y024346D01*
X019616Y024073D01*
X019737Y024023D01*
X019758Y024023D01*
X019826Y023954D01*
X019999Y023883D01*
X020706Y023883D01*
X020879Y023954D01*
X021011Y024086D01*
X021013Y024090D01*
X021013Y023873D01*
X020885Y023745D01*
X020879Y023751D01*
X020706Y023823D01*
X019999Y023823D01*
X019826Y023751D01*
X019694Y023619D01*
X019623Y023446D01*
X019623Y023259D01*
X019694Y023086D01*
X019826Y022954D01*
X019999Y022883D01*
X020706Y022883D01*
X020879Y022954D01*
X021007Y023082D01*
X021067Y023107D01*
X021467Y023507D01*
X021549Y023588D01*
X021593Y023695D01*
X021593Y025145D01*
X021593Y025260D01*
X021549Y025367D01*
X021149Y025767D01*
X021067Y025849D01*
X020960Y025893D01*
X020805Y025893D01*
X020804Y025894D01*
X021099Y026188D01*
X021143Y026295D01*
X021143Y026378D01*
X021147Y026383D01*
X021522Y026383D01*
X021522Y026323D01*
X021143Y026323D01*
X021143Y026183D01*
X021383Y025943D01*
X021523Y025943D01*
X021523Y026322D01*
X021583Y026322D01*
X021583Y025943D01*
X021723Y025943D01*
X021963Y026183D01*
X021963Y026323D01*
X021583Y026323D01*
X021583Y026383D01*
X021523Y026383D01*
X021523Y026763D01*
X021383Y026763D01*
X021323Y026702D01*
X021323Y026947D01*
X021143Y027127D01*
X021143Y027378D01*
X021323Y027558D01*
X021323Y027947D01*
X021047Y028223D01*
X020658Y028223D01*
X020383Y027947D01*
X020383Y027558D01*
X020563Y027378D01*
X020563Y027127D01*
X020383Y026947D01*
X020383Y026558D01*
X020515Y026425D01*
X020218Y026128D01*
X020135Y026128D01*
X019853Y025845D01*
X019570Y026128D01*
X019444Y026128D01*
X018683Y026889D01*
X018683Y028885D01*
X018697Y028885D01*
X018820Y029008D01*
X018820Y029697D01*
X018697Y029820D01*
X018008Y029820D01*
X017885Y029697D01*
X017885Y029008D01*
X018008Y028885D01*
X018023Y028885D01*
X018023Y027083D01*
X017187Y027083D01*
X017047Y027223D01*
X016658Y027223D01*
X016467Y027031D01*
X016220Y027278D01*
X015785Y027278D01*
X015633Y027125D01*
X015633Y027465D01*
X015810Y027288D01*
X015973Y027288D01*
X015973Y027722D01*
X016033Y027722D01*
X016033Y027288D01*
X016195Y027288D01*
X016467Y027559D01*
X016683Y027343D01*
X016823Y027343D01*
X016823Y027722D01*
X016883Y027722D01*
X016883Y027343D01*
X017023Y027343D01*
X017263Y027583D01*
X017263Y027723D01*
X016883Y027723D01*
X016883Y027783D01*
X016823Y027783D01*
X016823Y028163D01*
X016683Y028163D01*
X016467Y027946D01*
X016195Y028218D01*
X016034Y028218D01*
X016540Y028723D01*
X016632Y028816D01*
X016683Y028937D01*
X016683Y029022D01*
X016749Y029088D01*
X016820Y029260D01*
X016820Y029446D01*
X016749Y029618D01*
X016618Y029749D01*
X016446Y029820D01*
X016260Y029820D01*
X016088Y029749D01*
X015956Y029618D01*
X015885Y029446D01*
X015885Y029260D01*
X015956Y029088D01*
X015964Y029081D01*
X015833Y028949D01*
X015833Y029144D01*
X015702Y029460D01*
X015460Y029702D01*
X015144Y029833D01*
X014802Y029833D01*
X014486Y029702D01*
X014403Y029619D01*
X014403Y029863D01*
X016983Y029863D01*
X017063Y029783D01*
X017063Y029724D01*
X016956Y029618D01*
X016885Y029446D01*
X016885Y029260D01*
X016956Y029088D01*
X017088Y028956D01*
X017260Y028885D01*
X017446Y028885D01*
X017618Y028956D01*
X017749Y029088D01*
X017820Y029260D01*
X017820Y029446D01*
X017749Y029618D01*
X017643Y029724D01*
X017643Y029960D01*
X017599Y030067D01*
X017517Y030149D01*
X017267Y030399D01*
X017160Y030443D01*
X017045Y030443D01*
X014403Y030443D01*
X014403Y031273D01*
X020666Y031273D01*
X021023Y030916D01*
X021023Y030916D01*
X021116Y030823D01*
X021237Y030773D01*
X021285Y030773D01*
X021285Y030758D01*
X021383Y030661D01*
X021383Y029879D01*
X021439Y029743D01*
X021543Y029639D01*
X021543Y029639D01*
X022039Y029143D01*
X022143Y029039D01*
X022279Y028983D01*
X023249Y028983D01*
X023283Y028949D01*
X023283Y021723D01*
X021875Y021723D01*
X021720Y021878D01*
X021285Y021878D01*
X021130Y021723D01*
X020907Y021723D01*
X020879Y021751D01*
X020706Y021823D01*
X019999Y021823D01*
X019826Y021751D01*
X019694Y021619D01*
X019623Y021446D01*
X019623Y021259D01*
X019694Y021086D01*
X019826Y020954D01*
X019999Y020883D01*
X020706Y020883D01*
X020879Y020954D01*
X020907Y020983D01*
X021130Y020983D01*
X021285Y020828D01*
X021720Y020828D01*
X021875Y020983D01*
X023283Y020983D01*
X023283Y019626D01*
X023283Y019479D01*
X023283Y017673D01*
X021647Y017673D01*
X021547Y017773D01*
X021283Y017773D01*
X021293Y017795D01*
X021293Y017828D01*
X021720Y017828D01*
X021955Y018063D01*
X022228Y018063D01*
X022408Y017883D01*
X022797Y017883D01*
X023073Y018158D01*
X023073Y018547D01*
X022797Y018823D01*
X022408Y018823D01*
X022228Y018643D01*
X021955Y018643D01*
X021745Y018853D01*
X022028Y019135D01*
X022028Y019570D01*
X021720Y019878D01*
X021533Y019963D02*
X021473Y019963D01*
X021473Y020061D02*
X021533Y020061D01*
X021533Y020160D02*
X021473Y020160D01*
X021473Y020259D02*
X021533Y020259D01*
X021533Y020357D02*
X023283Y020357D01*
X023283Y020259D02*
X021968Y020259D01*
X021968Y020160D02*
X023283Y020160D01*
X023283Y020061D02*
X021869Y020061D01*
X021968Y020383D02*
X021533Y020383D01*
X021533Y020818D01*
X021695Y020818D01*
X021968Y020545D01*
X021968Y020383D01*
X021968Y020456D02*
X023283Y020456D01*
X023283Y020554D02*
X021959Y020554D01*
X021860Y020653D02*
X023283Y020653D01*
X023283Y020751D02*
X021762Y020751D01*
X021742Y020850D02*
X023283Y020850D01*
X023283Y020948D02*
X021841Y020948D01*
X021533Y020751D02*
X021473Y020751D01*
X021473Y020653D02*
X021533Y020653D01*
X021533Y020554D02*
X021473Y020554D01*
X021473Y020456D02*
X021533Y020456D01*
X021244Y020751D02*
X020879Y020751D01*
X020977Y020653D02*
X021145Y020653D01*
X021047Y020554D02*
X021038Y020554D01*
X021263Y020850D02*
X018843Y020850D01*
X018843Y020948D02*
X019841Y020948D01*
X019734Y021047D02*
X018843Y021047D01*
X018843Y021145D02*
X019670Y021145D01*
X019629Y021244D02*
X018843Y021244D01*
X018843Y021342D02*
X019623Y021342D01*
X019623Y021441D02*
X018843Y021441D01*
X018843Y021540D02*
X019661Y021540D01*
X019713Y021638D02*
X018843Y021638D01*
X018843Y021737D02*
X019812Y021737D01*
X019876Y021934D02*
X018843Y021934D01*
X018843Y022032D02*
X019749Y022032D01*
X019265Y022131D02*
X018843Y022131D01*
X018843Y022229D02*
X019166Y022229D01*
X019067Y022328D02*
X018843Y022328D01*
X018843Y022426D02*
X018969Y022426D01*
X018870Y022525D02*
X018843Y022525D01*
X019395Y022821D02*
X019994Y022821D01*
X019911Y022919D02*
X019343Y022919D01*
X019343Y023018D02*
X019763Y023018D01*
X019682Y023116D02*
X019343Y023116D01*
X019343Y023215D02*
X019641Y023215D01*
X019623Y023313D02*
X019343Y023313D01*
X019343Y023412D02*
X019623Y023412D01*
X019649Y023510D02*
X019343Y023510D01*
X019343Y023609D02*
X019690Y023609D01*
X019783Y023708D02*
X019343Y023708D01*
X019343Y023806D02*
X019959Y023806D01*
X019946Y023905D02*
X019343Y023905D01*
X019343Y024003D02*
X019778Y024003D01*
X019587Y024102D02*
X019343Y024102D01*
X019343Y024200D02*
X019489Y024200D01*
X019390Y024299D02*
X019343Y024299D01*
X020759Y023905D02*
X021013Y023905D01*
X021013Y024003D02*
X020928Y024003D01*
X020946Y023806D02*
X020746Y023806D01*
X021273Y023313D02*
X022078Y023313D01*
X022078Y023215D02*
X021175Y023215D01*
X021076Y023116D02*
X022147Y023116D01*
X022245Y023018D02*
X020942Y023018D01*
X020794Y022919D02*
X022313Y022919D01*
X022313Y022821D02*
X021749Y022821D01*
X021848Y022722D02*
X022307Y022722D01*
X022898Y022722D02*
X023283Y022722D01*
X023283Y022624D02*
X022997Y022624D01*
X023073Y022525D02*
X023283Y022525D01*
X023283Y022426D02*
X023073Y022426D01*
X023073Y022328D02*
X023283Y022328D01*
X023283Y022229D02*
X023073Y022229D01*
X023045Y022131D02*
X023283Y022131D01*
X023283Y022032D02*
X022947Y022032D01*
X022848Y021934D02*
X023283Y021934D01*
X023283Y021835D02*
X021763Y021835D01*
X021798Y021934D02*
X022357Y021934D01*
X022259Y022032D02*
X021897Y022032D01*
X021861Y021737D02*
X023283Y021737D01*
X023283Y022821D02*
X022893Y022821D01*
X022893Y022919D02*
X023283Y022919D01*
X023283Y023018D02*
X022960Y023018D01*
X023059Y023116D02*
X023283Y023116D01*
X023283Y023215D02*
X023128Y023215D01*
X023128Y023313D02*
X023283Y023313D01*
X023283Y023412D02*
X023128Y023412D01*
X023128Y023510D02*
X023283Y023510D01*
X023283Y023609D02*
X023128Y023609D01*
X023040Y023708D02*
X023283Y023708D01*
X023283Y023806D02*
X022942Y023806D01*
X022843Y023905D02*
X023283Y023905D01*
X023283Y024003D02*
X022861Y024003D01*
X022795Y023938D02*
X023068Y024210D01*
X023068Y024373D01*
X022633Y024373D01*
X022633Y024433D01*
X022573Y024433D01*
X022573Y024868D01*
X022410Y024868D01*
X022138Y024595D01*
X022138Y024433D01*
X022572Y024433D01*
X022572Y024373D01*
X022138Y024373D01*
X022138Y024210D01*
X022410Y023938D01*
X022573Y023938D01*
X022573Y024372D01*
X022633Y024372D01*
X022633Y023938D01*
X022795Y023938D01*
X022633Y024003D02*
X022573Y024003D01*
X022573Y024102D02*
X022633Y024102D01*
X022633Y024200D02*
X022573Y024200D01*
X022573Y024299D02*
X022633Y024299D01*
X022633Y024397D02*
X023283Y024397D01*
X023283Y024299D02*
X023068Y024299D01*
X023058Y024200D02*
X023283Y024200D01*
X023283Y024102D02*
X022959Y024102D01*
X023068Y024433D02*
X022633Y024433D01*
X022633Y024868D01*
X022795Y024868D01*
X023068Y024595D01*
X023068Y024433D01*
X023068Y024496D02*
X023283Y024496D01*
X023283Y024594D02*
X023068Y024594D01*
X022970Y024693D02*
X023283Y024693D01*
X023283Y024791D02*
X022872Y024791D01*
X022633Y024791D02*
X022573Y024791D01*
X022573Y024693D02*
X022633Y024693D01*
X022633Y024594D02*
X022573Y024594D01*
X022573Y024496D02*
X022633Y024496D01*
X022572Y024397D02*
X021593Y024397D01*
X021593Y024299D02*
X022138Y024299D01*
X022148Y024200D02*
X021593Y024200D01*
X021593Y024102D02*
X022246Y024102D01*
X022345Y024003D02*
X021593Y024003D01*
X021593Y023905D02*
X022362Y023905D01*
X022264Y023806D02*
X021593Y023806D01*
X021593Y023708D02*
X022165Y023708D01*
X022078Y023609D02*
X021557Y023609D01*
X021471Y023510D02*
X022078Y023510D01*
X022078Y023412D02*
X021372Y023412D01*
X021356Y022821D02*
X020711Y022821D01*
X020908Y022722D02*
X021257Y022722D01*
X021209Y022032D02*
X020957Y022032D01*
X020829Y021934D02*
X021307Y021934D01*
X021243Y021835D02*
X018843Y021835D01*
X017963Y021835D02*
X016495Y021835D01*
X016449Y021788D02*
X016720Y022060D01*
X016826Y021954D01*
X016999Y021883D01*
X017706Y021883D01*
X017879Y021954D01*
X017960Y022035D01*
X017963Y022033D01*
X017963Y021568D01*
X017925Y021620D01*
X017880Y021665D01*
X017828Y021703D01*
X017770Y021733D01*
X017709Y021753D01*
X017645Y021763D01*
X017383Y021763D01*
X017383Y021383D01*
X017323Y021383D01*
X017323Y021763D01*
X017060Y021763D01*
X016997Y021753D01*
X016935Y021733D01*
X016878Y021703D01*
X016826Y021665D01*
X016780Y021620D01*
X016742Y021568D01*
X016713Y021510D01*
X016693Y021449D01*
X016683Y021385D01*
X016683Y021383D01*
X017322Y021383D01*
X017322Y021323D01*
X016683Y021323D01*
X016683Y021320D01*
X016693Y021257D01*
X016713Y021195D01*
X016742Y021138D01*
X016780Y021086D01*
X016826Y021040D01*
X016878Y021002D01*
X016935Y020973D01*
X016997Y020953D01*
X017060Y020943D01*
X017323Y020943D01*
X017323Y021322D01*
X017383Y021322D01*
X017383Y020943D01*
X017645Y020943D01*
X017709Y020953D01*
X017770Y020973D01*
X017828Y021002D01*
X017880Y021040D01*
X017925Y021086D01*
X017963Y021137D01*
X017963Y020667D01*
X017879Y020751D01*
X017706Y020823D01*
X016999Y020823D01*
X016826Y020751D01*
X016694Y020619D01*
X016623Y020446D01*
X016623Y020259D01*
X016694Y020086D01*
X016826Y019954D01*
X016999Y019883D01*
X017706Y019883D01*
X017711Y019885D01*
X017820Y019776D01*
X017706Y019823D01*
X016999Y019823D01*
X016826Y019751D01*
X016718Y019643D01*
X014673Y019643D01*
X014403Y019913D01*
X014403Y020383D01*
X014647Y020383D01*
X014923Y020658D01*
X014923Y020913D01*
X015267Y021257D01*
X015349Y021338D01*
X015381Y021418D01*
X015653Y021418D01*
X015641Y021416D01*
X015570Y021393D01*
X015504Y021359D01*
X015443Y021315D01*
X015390Y021262D01*
X015346Y021202D01*
X015313Y021135D01*
X015289Y021064D01*
X015278Y020990D01*
X015278Y020972D01*
X015734Y020972D01*
X015734Y020934D01*
X015772Y020934D01*
X015772Y020972D01*
X016228Y020972D01*
X016228Y020990D01*
X016216Y021064D01*
X016193Y021135D01*
X016159Y021202D01*
X016115Y021262D01*
X016062Y021315D01*
X016002Y021359D01*
X015935Y021393D01*
X015864Y021416D01*
X015853Y021418D01*
X016165Y021418D01*
X016288Y021541D01*
X016288Y021674D01*
X016367Y021707D01*
X016449Y021788D01*
X016397Y021737D02*
X016948Y021737D01*
X016798Y021638D02*
X016288Y021638D01*
X016287Y021540D02*
X016728Y021540D01*
X016692Y021441D02*
X016188Y021441D01*
X016024Y021342D02*
X017322Y021342D01*
X017323Y021244D02*
X017383Y021244D01*
X017383Y021145D02*
X017323Y021145D01*
X017323Y021047D02*
X017383Y021047D01*
X017383Y020948D02*
X017323Y020948D01*
X017025Y020948D02*
X015772Y020948D01*
X015772Y020934D02*
X016228Y020934D01*
X016228Y020915D01*
X016216Y020841D01*
X016193Y020770D01*
X016159Y020704D01*
X016115Y020643D01*
X016062Y020590D01*
X016002Y020546D01*
X015935Y020513D01*
X015864Y020489D01*
X015790Y020478D01*
X015772Y020478D01*
X015772Y020934D01*
X015734Y020934D02*
X015734Y020478D01*
X015715Y020478D01*
X015641Y020489D01*
X015570Y020513D01*
X015504Y020546D01*
X015443Y020590D01*
X015390Y020643D01*
X015346Y020704D01*
X015313Y020770D01*
X015289Y020841D01*
X015278Y020915D01*
X015278Y020934D01*
X015734Y020934D01*
X015734Y020948D02*
X014958Y020948D01*
X014923Y020850D02*
X015288Y020850D01*
X015322Y020751D02*
X014923Y020751D01*
X014917Y020653D02*
X015384Y020653D01*
X015493Y020554D02*
X014819Y020554D01*
X014720Y020456D02*
X016627Y020456D01*
X016623Y020357D02*
X014403Y020357D01*
X014403Y020259D02*
X016623Y020259D01*
X016664Y020160D02*
X014403Y020160D01*
X014403Y020061D02*
X016719Y020061D01*
X016818Y019963D02*
X014403Y019963D01*
X014451Y019864D02*
X017731Y019864D01*
X017879Y020751D02*
X017963Y020751D01*
X017963Y020850D02*
X016217Y020850D01*
X016183Y020751D02*
X016827Y020751D01*
X016728Y020653D02*
X016122Y020653D01*
X016012Y020554D02*
X016667Y020554D01*
X016819Y021047D02*
X016219Y021047D01*
X016188Y021145D02*
X016738Y021145D01*
X016697Y021244D02*
X016128Y021244D01*
X015772Y020850D02*
X015734Y020850D01*
X015734Y020751D02*
X015772Y020751D01*
X015772Y020653D02*
X015734Y020653D01*
X015734Y020554D02*
X015772Y020554D01*
X015287Y021047D02*
X015057Y021047D01*
X015156Y021145D02*
X015318Y021145D01*
X015377Y021244D02*
X015254Y021244D01*
X015350Y021342D02*
X015481Y021342D01*
X016594Y021934D02*
X016876Y021934D01*
X016749Y022032D02*
X016692Y022032D01*
X017323Y021737D02*
X017383Y021737D01*
X017383Y021638D02*
X017323Y021638D01*
X017323Y021540D02*
X017383Y021540D01*
X017383Y021441D02*
X017323Y021441D01*
X017758Y021737D02*
X017963Y021737D01*
X017963Y021638D02*
X017907Y021638D01*
X017963Y021934D02*
X017829Y021934D01*
X017957Y022032D02*
X017963Y022032D01*
X017963Y021047D02*
X017887Y021047D01*
X017963Y020948D02*
X017680Y020948D01*
X018843Y020751D02*
X019827Y020751D01*
X019728Y020653D02*
X018843Y020653D01*
X018843Y020554D02*
X019044Y020554D01*
X018945Y020456D02*
X018860Y020456D01*
X019372Y020061D02*
X019719Y020061D01*
X019818Y019963D02*
X019343Y019963D01*
X019343Y019864D02*
X021272Y019864D01*
X021235Y019963D02*
X020888Y019963D01*
X020986Y020061D02*
X021136Y020061D01*
X021173Y019766D02*
X020844Y019766D01*
X020963Y019667D02*
X021075Y019667D01*
X021771Y018879D02*
X023283Y018879D01*
X023283Y018977D02*
X021870Y018977D01*
X021968Y019076D02*
X023283Y019076D01*
X023283Y019175D02*
X022028Y019175D01*
X022028Y019273D02*
X023283Y019273D01*
X023283Y019372D02*
X022028Y019372D01*
X022028Y019470D02*
X023283Y019470D01*
X023283Y019569D02*
X022028Y019569D01*
X021931Y019667D02*
X023283Y019667D01*
X023283Y018780D02*
X022840Y018780D01*
X022938Y018682D02*
X023283Y018682D01*
X023283Y018583D02*
X023037Y018583D01*
X023073Y018485D02*
X023283Y018485D01*
X023283Y018386D02*
X023073Y018386D01*
X023073Y018288D02*
X023283Y018288D01*
X023283Y018189D02*
X023073Y018189D01*
X023005Y018091D02*
X023283Y018091D01*
X023283Y017992D02*
X022907Y017992D01*
X022808Y017893D02*
X023283Y017893D01*
X023283Y017795D02*
X021293Y017795D01*
X021624Y017696D02*
X023283Y017696D01*
X022397Y017893D02*
X021786Y017893D01*
X021884Y017992D02*
X022299Y017992D01*
X022267Y018682D02*
X021916Y018682D01*
X021818Y018780D02*
X022366Y018780D01*
X021165Y020948D02*
X020864Y020948D01*
X020894Y021737D02*
X021144Y021737D01*
X019797Y022722D02*
X019494Y022722D01*
X021593Y024496D02*
X022138Y024496D01*
X022138Y024594D02*
X021593Y024594D01*
X021593Y024693D02*
X022235Y024693D01*
X022334Y024791D02*
X021593Y024791D01*
X021593Y024890D02*
X023283Y024890D01*
X023283Y024989D02*
X021593Y024989D01*
X021593Y025087D02*
X023283Y025087D01*
X023283Y025186D02*
X021593Y025186D01*
X021583Y025284D02*
X023283Y025284D01*
X023283Y025383D02*
X021533Y025383D01*
X021434Y025481D02*
X023283Y025481D01*
X023283Y025580D02*
X021336Y025580D01*
X021237Y025678D02*
X023283Y025678D01*
X023283Y025777D02*
X021139Y025777D01*
X021002Y025875D02*
X023283Y025875D01*
X023283Y025974D02*
X021754Y025974D01*
X021852Y026073D02*
X023283Y026073D01*
X023283Y026171D02*
X021951Y026171D01*
X021963Y026270D02*
X023283Y026270D01*
X023283Y026368D02*
X021583Y026368D01*
X021583Y026383D02*
X021963Y026383D01*
X021963Y026523D01*
X021723Y026763D01*
X021583Y026763D01*
X021583Y026383D01*
X021522Y026368D02*
X021143Y026368D01*
X021132Y026270D02*
X021143Y026270D01*
X021155Y026171D02*
X021081Y026171D01*
X020983Y026073D02*
X021253Y026073D01*
X021352Y025974D02*
X020884Y025974D01*
X020458Y026368D02*
X019204Y026368D01*
X019302Y026270D02*
X020360Y026270D01*
X020261Y026171D02*
X019401Y026171D01*
X019625Y026073D02*
X020080Y026073D01*
X019982Y025974D02*
X019724Y025974D01*
X019822Y025875D02*
X019883Y025875D01*
X020474Y026467D02*
X019105Y026467D01*
X019007Y026565D02*
X020383Y026565D01*
X020383Y026664D02*
X018908Y026664D01*
X018810Y026762D02*
X020383Y026762D01*
X020383Y026861D02*
X018711Y026861D01*
X018683Y026959D02*
X020395Y026959D01*
X020493Y027058D02*
X018683Y027058D01*
X018683Y027157D02*
X020563Y027157D01*
X020563Y027255D02*
X018683Y027255D01*
X018683Y027354D02*
X020563Y027354D01*
X020489Y027452D02*
X018683Y027452D01*
X018683Y027551D02*
X020390Y027551D01*
X020383Y027649D02*
X018683Y027649D01*
X018683Y027748D02*
X020383Y027748D01*
X020383Y027846D02*
X018683Y027846D01*
X018683Y027945D02*
X020383Y027945D01*
X020479Y028043D02*
X018683Y028043D01*
X018683Y028142D02*
X020577Y028142D01*
X021128Y028142D02*
X023283Y028142D01*
X023283Y028241D02*
X018683Y028241D01*
X018683Y028339D02*
X023283Y028339D01*
X023283Y028438D02*
X018683Y028438D01*
X018683Y028536D02*
X023283Y028536D01*
X023283Y028635D02*
X018683Y028635D01*
X018683Y028733D02*
X023283Y028733D01*
X023283Y028832D02*
X018683Y028832D01*
X018742Y028930D02*
X023283Y028930D01*
X023283Y028043D02*
X021227Y028043D01*
X021323Y027945D02*
X023283Y027945D01*
X023283Y027846D02*
X021323Y027846D01*
X021323Y027748D02*
X023283Y027748D01*
X023283Y027649D02*
X021323Y027649D01*
X021315Y027551D02*
X023283Y027551D01*
X023283Y027452D02*
X021217Y027452D01*
X021143Y027354D02*
X023283Y027354D01*
X023283Y027255D02*
X021143Y027255D01*
X021143Y027157D02*
X023283Y027157D01*
X023283Y027058D02*
X021212Y027058D01*
X021311Y026959D02*
X023283Y026959D01*
X023283Y026861D02*
X021323Y026861D01*
X021323Y026762D02*
X021383Y026762D01*
X021523Y026762D02*
X021583Y026762D01*
X021583Y026664D02*
X021523Y026664D01*
X021523Y026565D02*
X021583Y026565D01*
X021583Y026467D02*
X021523Y026467D01*
X021523Y026270D02*
X021583Y026270D01*
X021583Y026171D02*
X021523Y026171D01*
X021523Y026073D02*
X021583Y026073D01*
X021583Y025974D02*
X021523Y025974D01*
X021963Y026467D02*
X023283Y026467D01*
X023283Y026565D02*
X021920Y026565D01*
X021821Y026664D02*
X023283Y026664D01*
X023283Y026762D02*
X021723Y026762D01*
X022168Y029029D02*
X018820Y029029D01*
X018820Y029127D02*
X022055Y029127D01*
X022039Y029143D02*
X022039Y029143D01*
X021956Y029226D02*
X018820Y029226D01*
X018820Y029324D02*
X021858Y029324D01*
X021759Y029423D02*
X018820Y029423D01*
X018820Y029522D02*
X021661Y029522D01*
X021562Y029620D02*
X018820Y029620D01*
X018799Y029719D02*
X021464Y029719D01*
X021408Y029817D02*
X018700Y029817D01*
X018005Y029817D02*
X017643Y029817D01*
X017648Y029719D02*
X017907Y029719D01*
X017885Y029620D02*
X017746Y029620D01*
X017789Y029522D02*
X017885Y029522D01*
X017885Y029423D02*
X017820Y029423D01*
X017820Y029324D02*
X017885Y029324D01*
X017885Y029226D02*
X017806Y029226D01*
X017765Y029127D02*
X017885Y029127D01*
X017885Y029029D02*
X017690Y029029D01*
X017554Y028930D02*
X017963Y028930D01*
X018023Y028832D02*
X016639Y028832D01*
X016680Y028930D02*
X017151Y028930D01*
X017016Y029029D02*
X016690Y029029D01*
X016765Y029127D02*
X016940Y029127D01*
X016899Y029226D02*
X016806Y029226D01*
X016820Y029324D02*
X016885Y029324D01*
X016885Y029423D02*
X016820Y029423D01*
X016789Y029522D02*
X016917Y029522D01*
X016959Y029620D02*
X016746Y029620D01*
X016648Y029719D02*
X017058Y029719D01*
X017028Y029817D02*
X016453Y029817D01*
X016253Y029817D02*
X015181Y029817D01*
X015419Y029719D02*
X016058Y029719D01*
X015959Y029620D02*
X015542Y029620D01*
X015640Y029522D02*
X015917Y029522D01*
X015885Y029423D02*
X015717Y029423D01*
X015758Y029324D02*
X015885Y029324D01*
X015899Y029226D02*
X015799Y029226D01*
X015833Y029127D02*
X015940Y029127D01*
X015912Y029029D02*
X015833Y029029D01*
X016353Y028536D02*
X018023Y028536D01*
X018023Y028438D02*
X016254Y028438D01*
X016156Y028339D02*
X018023Y028339D01*
X018023Y028241D02*
X016057Y028241D01*
X016271Y028142D02*
X016662Y028142D01*
X016564Y028043D02*
X016370Y028043D01*
X016443Y027783D02*
X016033Y027783D01*
X016033Y027723D01*
X016443Y027723D01*
X016822Y027723D01*
X016822Y027783D01*
X016443Y027783D01*
X016458Y027551D02*
X016475Y027551D01*
X016574Y027452D02*
X016360Y027452D01*
X016261Y027354D02*
X016672Y027354D01*
X016823Y027354D02*
X016883Y027354D01*
X016883Y027452D02*
X016823Y027452D01*
X016823Y027551D02*
X016883Y027551D01*
X016883Y027649D02*
X016823Y027649D01*
X016822Y027748D02*
X016033Y027748D01*
X016033Y027649D02*
X015973Y027649D01*
X015973Y027551D02*
X016033Y027551D01*
X016033Y027452D02*
X015973Y027452D01*
X015973Y027354D02*
X016033Y027354D01*
X016243Y027255D02*
X018023Y027255D01*
X018023Y027157D02*
X017114Y027157D01*
X017033Y027354D02*
X018023Y027354D01*
X018023Y027452D02*
X017132Y027452D01*
X017231Y027551D02*
X018023Y027551D01*
X018023Y027649D02*
X017263Y027649D01*
X017263Y027783D02*
X016883Y027783D01*
X016883Y028163D01*
X017023Y028163D01*
X017263Y027923D01*
X017263Y027783D01*
X017263Y027846D02*
X018023Y027846D01*
X018023Y027748D02*
X016883Y027748D01*
X016883Y027846D02*
X016823Y027846D01*
X016823Y027945D02*
X016883Y027945D01*
X016883Y028043D02*
X016823Y028043D01*
X016823Y028142D02*
X016883Y028142D01*
X017043Y028142D02*
X018023Y028142D01*
X018023Y028043D02*
X017142Y028043D01*
X017240Y027945D02*
X018023Y027945D01*
X018023Y028635D02*
X016451Y028635D01*
X016550Y028733D02*
X018023Y028733D01*
X017643Y029916D02*
X021383Y029916D01*
X021383Y030014D02*
X017620Y030014D01*
X017553Y030113D02*
X021383Y030113D01*
X021383Y030211D02*
X017454Y030211D01*
X017356Y030310D02*
X021383Y030310D01*
X021383Y030408D02*
X017243Y030408D01*
X014764Y029817D02*
X014403Y029817D01*
X014403Y029719D02*
X014526Y029719D01*
X014403Y029620D02*
X014404Y029620D01*
X014403Y030507D02*
X021383Y030507D01*
X021383Y030606D02*
X014403Y030606D01*
X014403Y030704D02*
X021339Y030704D01*
X021165Y030803D02*
X014403Y030803D01*
X014403Y030901D02*
X021038Y030901D01*
X020939Y031000D02*
X014403Y031000D01*
X014403Y031098D02*
X020841Y031098D01*
X020742Y031197D02*
X014403Y031197D01*
X015633Y027452D02*
X015646Y027452D01*
X015633Y027354D02*
X015744Y027354D01*
X015763Y027255D02*
X015633Y027255D01*
X015633Y027157D02*
X015664Y027157D01*
X016341Y027157D02*
X016592Y027157D01*
X016493Y027058D02*
X016440Y027058D01*
X021229Y031643D02*
X021355Y031517D01*
X021408Y031570D01*
X022097Y031570D01*
X022220Y031447D01*
X022220Y030758D01*
X022123Y030661D01*
X022123Y030106D01*
X022506Y029723D01*
X023329Y029723D01*
X023353Y029723D01*
X023353Y031643D01*
X021229Y031643D01*
X021281Y031591D02*
X023353Y031591D01*
X023353Y031492D02*
X023081Y031492D01*
X023068Y031500D02*
X023030Y031510D01*
X022781Y031510D01*
X022781Y031132D01*
X022724Y031132D01*
X022724Y031510D01*
X022476Y031510D01*
X022437Y031500D01*
X022403Y031480D01*
X022375Y031452D01*
X022356Y031418D01*
X022345Y031380D01*
X022345Y031131D01*
X022724Y031131D01*
X022724Y031074D01*
X022781Y031074D01*
X022781Y030695D01*
X023030Y030695D01*
X023068Y030706D01*
X023102Y030725D01*
X023130Y030753D01*
X023150Y030787D01*
X023160Y030826D01*
X023160Y031074D01*
X022782Y031074D01*
X022782Y031131D01*
X023160Y031131D01*
X023160Y031380D01*
X023150Y031418D01*
X023130Y031452D01*
X023102Y031480D01*
X023068Y031500D01*
X023156Y031394D02*
X023353Y031394D01*
X023353Y031295D02*
X023160Y031295D01*
X023160Y031197D02*
X023353Y031197D01*
X023353Y031098D02*
X022782Y031098D01*
X022724Y031098D02*
X022220Y031098D01*
X022220Y031000D02*
X022345Y031000D01*
X022345Y031074D02*
X022345Y030826D01*
X022356Y030787D01*
X022375Y030753D01*
X022403Y030725D01*
X022437Y030706D01*
X022476Y030695D01*
X022724Y030695D01*
X022724Y031074D01*
X022345Y031074D01*
X022345Y031197D02*
X022220Y031197D01*
X022220Y031295D02*
X022345Y031295D01*
X022349Y031394D02*
X022220Y031394D01*
X022175Y031492D02*
X022424Y031492D01*
X022724Y031492D02*
X022781Y031492D01*
X022781Y031394D02*
X022724Y031394D01*
X022724Y031295D02*
X022781Y031295D01*
X022781Y031197D02*
X022724Y031197D01*
X022724Y031000D02*
X022781Y031000D01*
X022781Y030901D02*
X022724Y030901D01*
X022724Y030803D02*
X022781Y030803D01*
X022781Y030704D02*
X022724Y030704D01*
X022443Y030704D02*
X022166Y030704D01*
X022123Y030606D02*
X023353Y030606D01*
X023353Y030704D02*
X023063Y030704D01*
X023154Y030803D02*
X023353Y030803D01*
X023353Y030901D02*
X023160Y030901D01*
X023160Y031000D02*
X023353Y031000D01*
X023353Y030507D02*
X022123Y030507D01*
X022123Y030408D02*
X023353Y030408D01*
X023353Y030310D02*
X022123Y030310D01*
X022123Y030211D02*
X023353Y030211D01*
X023353Y030113D02*
X022123Y030113D01*
X022214Y030014D02*
X023353Y030014D01*
X023353Y029916D02*
X022313Y029916D01*
X022411Y029817D02*
X023353Y029817D01*
X022351Y030803D02*
X022220Y030803D01*
X022220Y030901D02*
X022345Y030901D01*
X019862Y019766D02*
X019343Y019766D01*
X019343Y019667D02*
X019743Y019667D01*
X019459Y019569D02*
X019343Y019569D01*
X019343Y019470D02*
X019360Y019470D01*
X017063Y018883D02*
X017063Y018823D01*
X016999Y018823D01*
X016826Y018751D01*
X016694Y018619D01*
X016623Y018446D01*
X016623Y018259D01*
X016694Y018086D01*
X016826Y017954D01*
X016855Y017943D01*
X016195Y017943D01*
X016088Y017899D01*
X016007Y017817D01*
X014403Y016213D01*
X014403Y016443D01*
X014423Y016443D01*
X014423Y016822D01*
X014483Y016822D01*
X014483Y016443D01*
X014623Y016443D01*
X014863Y016683D01*
X014863Y016823D01*
X014483Y016823D01*
X014483Y016883D01*
X014423Y016883D01*
X014423Y017263D01*
X014403Y017263D01*
X014403Y019101D01*
X014495Y019063D01*
X014610Y019063D01*
X016718Y019063D01*
X016826Y018954D01*
X016999Y018883D01*
X017063Y018883D01*
X017063Y018879D02*
X014403Y018879D01*
X014403Y018977D02*
X016803Y018977D01*
X016897Y018780D02*
X014403Y018780D01*
X014403Y018682D02*
X016757Y018682D01*
X016680Y018583D02*
X014403Y018583D01*
X014403Y018485D02*
X016639Y018485D01*
X016623Y018386D02*
X014403Y018386D01*
X014403Y018288D02*
X016623Y018288D01*
X016652Y018189D02*
X014403Y018189D01*
X014403Y018091D02*
X016693Y018091D01*
X016789Y017992D02*
X014403Y017992D01*
X014403Y017893D02*
X016083Y017893D01*
X015985Y017795D02*
X014403Y017795D01*
X014403Y017696D02*
X015886Y017696D01*
X015788Y017598D02*
X014403Y017598D01*
X014403Y017499D02*
X015689Y017499D01*
X015591Y017401D02*
X014403Y017401D01*
X014403Y017302D02*
X015492Y017302D01*
X015394Y017204D02*
X014682Y017204D01*
X014623Y017263D02*
X014483Y017263D01*
X014483Y016883D01*
X014863Y016883D01*
X014863Y017023D01*
X014623Y017263D01*
X014483Y017204D02*
X014423Y017204D01*
X014423Y017105D02*
X014483Y017105D01*
X014483Y017007D02*
X014423Y017007D01*
X014423Y016908D02*
X014483Y016908D01*
X014483Y016809D02*
X014423Y016809D01*
X014423Y016711D02*
X014483Y016711D01*
X014483Y016612D02*
X014423Y016612D01*
X014423Y016514D02*
X014483Y016514D01*
X014403Y016415D02*
X014605Y016415D01*
X014694Y016514D02*
X014704Y016514D01*
X014792Y016612D02*
X014802Y016612D01*
X014863Y016711D02*
X014901Y016711D01*
X014863Y016809D02*
X014999Y016809D01*
X015098Y016908D02*
X014863Y016908D01*
X014863Y017007D02*
X015196Y017007D01*
X015295Y017105D02*
X014780Y017105D01*
X014507Y016317D02*
X014403Y016317D01*
X014403Y016218D02*
X014408Y016218D01*
X015749Y014839D02*
X016024Y014839D01*
X016035Y014828D02*
X016470Y014828D01*
X016778Y015135D01*
X016778Y015570D01*
X016495Y015853D01*
X016778Y016135D01*
X016778Y016368D01*
X016973Y016563D01*
X017005Y016563D01*
X016988Y016545D01*
X016988Y016383D01*
X017422Y016383D01*
X017422Y016323D01*
X016988Y016323D01*
X016988Y016160D01*
X017260Y015888D01*
X017423Y015888D01*
X017423Y016322D01*
X017483Y016322D01*
X017483Y015888D01*
X017628Y015888D01*
X017618Y015878D01*
X017235Y015878D01*
X016928Y015570D01*
X016928Y015135D01*
X017163Y014900D01*
X017163Y014823D01*
X017158Y014823D01*
X016978Y014643D01*
X016727Y014643D01*
X016547Y014823D01*
X016158Y014823D01*
X015883Y014547D01*
X015883Y014233D01*
X015823Y014293D01*
X015823Y014547D01*
X015643Y014727D01*
X015643Y014733D01*
X015887Y014976D01*
X016035Y014828D01*
X016075Y014740D02*
X015650Y014740D01*
X015729Y014642D02*
X015977Y014642D01*
X015883Y014543D02*
X015823Y014543D01*
X015823Y014444D02*
X015883Y014444D01*
X015883Y014346D02*
X015823Y014346D01*
X015868Y014247D02*
X015883Y014247D01*
X015442Y013853D02*
X015043Y013853D01*
X015043Y013755D02*
X015541Y013755D01*
X015607Y013688D02*
X015688Y013607D01*
X015795Y013563D01*
X018795Y013563D01*
X018910Y013563D01*
X019017Y013607D01*
X019293Y013883D01*
X019547Y013883D01*
X019823Y014158D01*
X019823Y014547D01*
X019547Y014823D01*
X019233Y014823D01*
X019238Y014828D01*
X019570Y014828D01*
X019805Y015063D01*
X019860Y015063D01*
X019967Y015107D01*
X020063Y015203D01*
X020063Y015145D01*
X020063Y013677D01*
X019883Y013497D01*
X019883Y013108D01*
X020158Y012833D01*
X020416Y012833D01*
X020366Y012782D01*
X020273Y012690D01*
X020225Y012573D01*
X020199Y012573D01*
X020026Y012501D01*
X019894Y012369D01*
X019823Y012196D01*
X019823Y012009D01*
X019894Y011836D01*
X020026Y011704D01*
X020199Y011633D01*
X020906Y011633D01*
X021079Y011704D01*
X021147Y011773D01*
X021366Y011773D01*
X021473Y011666D01*
X021473Y011249D01*
X021432Y011290D01*
X021340Y011382D01*
X021218Y011433D01*
X021147Y011433D01*
X021079Y011501D01*
X020906Y011573D01*
X020199Y011573D01*
X020026Y011501D01*
X019894Y011369D01*
X019823Y011196D01*
X019823Y011009D01*
X019894Y010836D01*
X020026Y010704D01*
X020199Y010633D01*
X020906Y010633D01*
X021023Y010681D01*
X021023Y010524D01*
X020906Y010573D01*
X020199Y010573D01*
X020026Y010501D01*
X019894Y010369D01*
X019823Y010196D01*
X019823Y010009D01*
X019894Y009836D01*
X020026Y009704D01*
X020199Y009633D01*
X020906Y009633D01*
X021023Y009681D01*
X021023Y009389D01*
X020563Y008930D01*
X020501Y009079D01*
X020369Y009211D01*
X020196Y009283D01*
X020009Y009283D01*
X019836Y009211D01*
X019704Y009079D01*
X019633Y008906D01*
X019633Y008199D01*
X019704Y008026D01*
X019773Y007958D01*
X019773Y007037D01*
X019633Y006897D01*
X019633Y006508D01*
X019718Y006423D01*
X019487Y006423D01*
X019573Y006508D01*
X019573Y006897D01*
X019433Y007037D01*
X019433Y007958D01*
X019501Y008026D01*
X019573Y008199D01*
X019573Y008906D01*
X019501Y009079D01*
X019369Y009211D01*
X019196Y009283D01*
X019009Y009283D01*
X018836Y009211D01*
X018704Y009079D01*
X018633Y008906D01*
X018633Y008199D01*
X018704Y008026D01*
X018773Y007958D01*
X018773Y007037D01*
X018768Y007033D01*
X018639Y007033D01*
X018543Y007129D01*
X018673Y007258D01*
X018673Y007647D01*
X018397Y007923D01*
X018501Y008026D01*
X018573Y008199D01*
X018573Y008906D01*
X018514Y009048D01*
X019349Y009883D01*
X019547Y009883D01*
X019823Y010158D01*
X019823Y010547D01*
X019547Y010823D01*
X019158Y010823D01*
X018883Y010547D01*
X018883Y010349D01*
X018823Y010289D01*
X018823Y010547D01*
X018547Y010823D01*
X018158Y010823D01*
X017883Y010547D01*
X017883Y010158D01*
X017912Y010129D01*
X017683Y009899D01*
X017683Y009918D01*
X017683Y010018D01*
X017823Y010158D01*
X017823Y010547D01*
X017547Y010823D01*
X017158Y010823D01*
X016883Y010547D01*
X016883Y010158D01*
X017023Y010018D01*
X017023Y009989D01*
X016166Y009132D01*
X016073Y009040D01*
X016023Y008918D01*
X016023Y003155D01*
X015892Y003024D01*
X015806Y002817D01*
X015806Y001888D01*
X015875Y001723D01*
X013056Y001723D01*
X012996Y001783D01*
X012995Y001899D01*
X013008Y001885D01*
X013697Y001885D01*
X013820Y002008D01*
X013820Y002697D01*
X013697Y002820D01*
X013643Y002820D01*
X013643Y005349D01*
X013644Y005403D01*
X013643Y005406D01*
X013643Y005410D01*
X013622Y005460D01*
X013603Y005510D01*
X013600Y005513D01*
X013599Y005517D01*
X013560Y005555D01*
X012973Y006175D01*
X012959Y009013D01*
X013795Y009013D01*
X013910Y009013D01*
X014017Y009057D01*
X014617Y009657D01*
X014699Y009738D01*
X014743Y009845D01*
X014743Y012453D01*
X015063Y012133D01*
X015063Y010727D01*
X014883Y010547D01*
X014883Y010158D01*
X015158Y009883D01*
X015547Y009883D01*
X015823Y010158D01*
X015823Y010547D01*
X015643Y010727D01*
X015643Y012195D01*
X015643Y012310D01*
X015599Y012417D01*
X015043Y012973D01*
X015043Y013998D01*
X015158Y013883D01*
X015413Y013883D01*
X015607Y013688D01*
X015639Y013656D02*
X015043Y013656D01*
X015043Y013558D02*
X019943Y013558D01*
X019883Y013459D02*
X015043Y013459D01*
X015043Y013360D02*
X019883Y013360D01*
X019883Y013262D02*
X015043Y013262D01*
X015043Y013163D02*
X019883Y013163D01*
X019926Y013065D02*
X015043Y013065D01*
X015049Y012966D02*
X020025Y012966D01*
X020123Y012868D02*
X015148Y012868D01*
X015246Y012769D02*
X020353Y012769D01*
X020265Y012671D02*
X015345Y012671D01*
X015443Y012572D02*
X020198Y012572D01*
X019999Y012474D02*
X015542Y012474D01*
X015616Y012375D02*
X019900Y012375D01*
X019856Y012276D02*
X015643Y012276D01*
X015643Y012178D02*
X019823Y012178D01*
X019823Y012079D02*
X015643Y012079D01*
X015643Y011981D02*
X019834Y011981D01*
X019875Y011882D02*
X015643Y011882D01*
X015643Y011784D02*
X019947Y011784D01*
X020072Y011685D02*
X015643Y011685D01*
X015643Y011587D02*
X021473Y011587D01*
X021473Y011488D02*
X021092Y011488D01*
X021033Y011685D02*
X021454Y011685D01*
X021473Y011390D02*
X021322Y011390D01*
X021431Y011291D02*
X021473Y011291D01*
X021023Y010601D02*
X019769Y010601D01*
X019823Y010503D02*
X020030Y010503D01*
X019929Y010404D02*
X019823Y010404D01*
X019823Y010306D02*
X019868Y010306D01*
X019827Y010207D02*
X019823Y010207D01*
X019823Y010109D02*
X019773Y010109D01*
X019823Y010010D02*
X019675Y010010D01*
X019576Y009911D02*
X019863Y009911D01*
X019918Y009813D02*
X019280Y009813D01*
X019181Y009714D02*
X020016Y009714D01*
X019862Y009222D02*
X019344Y009222D01*
X019457Y009123D02*
X019748Y009123D01*
X019682Y009025D02*
X019524Y009025D01*
X019565Y008926D02*
X019641Y008926D01*
X019633Y008827D02*
X019573Y008827D01*
X019573Y008729D02*
X019633Y008729D01*
X019633Y008630D02*
X019573Y008630D01*
X019573Y008532D02*
X019633Y008532D01*
X019633Y008433D02*
X019573Y008433D01*
X019573Y008335D02*
X019633Y008335D01*
X019633Y008236D02*
X019573Y008236D01*
X019547Y008138D02*
X019658Y008138D01*
X019699Y008039D02*
X019506Y008039D01*
X019433Y007941D02*
X019773Y007941D01*
X019773Y007842D02*
X019433Y007842D01*
X019433Y007744D02*
X019773Y007744D01*
X019773Y007645D02*
X019433Y007645D01*
X019433Y007546D02*
X019773Y007546D01*
X019773Y007448D02*
X019433Y007448D01*
X019433Y007349D02*
X019773Y007349D01*
X019773Y007251D02*
X019433Y007251D01*
X019433Y007152D02*
X019773Y007152D01*
X019773Y007054D02*
X019433Y007054D01*
X019515Y006955D02*
X019691Y006955D01*
X019633Y006857D02*
X019573Y006857D01*
X019573Y006758D02*
X019633Y006758D01*
X019633Y006660D02*
X019573Y006660D01*
X019573Y006561D02*
X019633Y006561D01*
X019678Y006462D02*
X019527Y006462D01*
X018773Y007054D02*
X018618Y007054D01*
X018567Y007152D02*
X018773Y007152D01*
X018773Y007251D02*
X018665Y007251D01*
X018673Y007349D02*
X018773Y007349D01*
X018773Y007448D02*
X018673Y007448D01*
X018673Y007546D02*
X018773Y007546D01*
X018773Y007645D02*
X018673Y007645D01*
X018577Y007744D02*
X018773Y007744D01*
X018773Y007842D02*
X018478Y007842D01*
X018397Y007923D02*
X018397Y007923D01*
X018415Y007941D02*
X018773Y007941D01*
X018699Y008039D02*
X018506Y008039D01*
X018547Y008138D02*
X018658Y008138D01*
X018633Y008236D02*
X018573Y008236D01*
X018573Y008335D02*
X018633Y008335D01*
X018633Y008433D02*
X018573Y008433D01*
X018573Y008532D02*
X018633Y008532D01*
X018633Y008630D02*
X018573Y008630D01*
X018573Y008729D02*
X018633Y008729D01*
X018633Y008827D02*
X018573Y008827D01*
X018565Y008926D02*
X018641Y008926D01*
X018682Y009025D02*
X018524Y009025D01*
X018590Y009123D02*
X018748Y009123D01*
X018688Y009222D02*
X018862Y009222D01*
X018787Y009320D02*
X020954Y009320D01*
X021023Y009419D02*
X018885Y009419D01*
X018984Y009517D02*
X021023Y009517D01*
X021023Y009616D02*
X019082Y009616D01*
X018839Y010306D02*
X018823Y010306D01*
X018823Y010404D02*
X018883Y010404D01*
X018883Y010503D02*
X018823Y010503D01*
X018769Y010601D02*
X018937Y010601D01*
X019035Y010700D02*
X018670Y010700D01*
X018572Y010798D02*
X019134Y010798D01*
X019572Y010798D02*
X019932Y010798D01*
X019869Y010897D02*
X015643Y010897D01*
X015643Y010995D02*
X019828Y010995D01*
X019823Y011094D02*
X015643Y011094D01*
X015643Y011193D02*
X019823Y011193D01*
X019862Y011291D02*
X015643Y011291D01*
X015643Y011390D02*
X019915Y011390D01*
X020013Y011488D02*
X015643Y011488D01*
X015063Y011488D02*
X014743Y011488D01*
X014743Y011390D02*
X015063Y011390D01*
X015063Y011291D02*
X014743Y011291D01*
X014743Y011193D02*
X015063Y011193D01*
X015063Y011094D02*
X014743Y011094D01*
X014743Y010995D02*
X015063Y010995D01*
X015063Y010897D02*
X014743Y010897D01*
X014743Y010798D02*
X015063Y010798D01*
X015035Y010700D02*
X014743Y010700D01*
X014743Y010601D02*
X014937Y010601D01*
X014883Y010503D02*
X014743Y010503D01*
X014743Y010404D02*
X014883Y010404D01*
X014883Y010306D02*
X014743Y010306D01*
X014743Y010207D02*
X014883Y010207D01*
X014932Y010109D02*
X014743Y010109D01*
X014743Y010010D02*
X015031Y010010D01*
X015129Y009911D02*
X014743Y009911D01*
X014729Y009813D02*
X016846Y009813D01*
X016748Y009714D02*
X014674Y009714D01*
X014576Y009616D02*
X016649Y009616D01*
X016551Y009517D02*
X014477Y009517D01*
X014379Y009419D02*
X016452Y009419D01*
X016354Y009320D02*
X014280Y009320D01*
X014182Y009222D02*
X016255Y009222D01*
X016156Y009123D02*
X014083Y009123D01*
X013939Y009025D02*
X016067Y009025D01*
X016026Y008926D02*
X012960Y008926D01*
X012960Y008827D02*
X016023Y008827D01*
X016023Y008729D02*
X012961Y008729D01*
X012961Y008630D02*
X016023Y008630D01*
X016023Y008532D02*
X012962Y008532D01*
X012962Y008433D02*
X016023Y008433D01*
X016023Y008335D02*
X012963Y008335D01*
X012963Y008236D02*
X016023Y008236D01*
X016023Y008138D02*
X012964Y008138D01*
X012964Y008039D02*
X016023Y008039D01*
X016023Y007941D02*
X012965Y007941D01*
X012965Y007842D02*
X014012Y007842D01*
X014033Y007863D02*
X013793Y007623D01*
X013793Y007483D01*
X014172Y007483D01*
X014172Y007423D01*
X013793Y007423D01*
X013793Y007283D01*
X014033Y007043D01*
X014173Y007043D01*
X014173Y007422D01*
X014233Y007422D01*
X014233Y007043D01*
X014373Y007043D01*
X014613Y007283D01*
X014613Y007423D01*
X014233Y007423D01*
X014233Y007483D01*
X014613Y007483D01*
X014613Y007623D01*
X014373Y007863D01*
X014233Y007863D01*
X014233Y007483D01*
X014173Y007483D01*
X014173Y007863D01*
X014033Y007863D01*
X014173Y007842D02*
X014233Y007842D01*
X014233Y007744D02*
X014173Y007744D01*
X014173Y007645D02*
X014233Y007645D01*
X014233Y007546D02*
X014173Y007546D01*
X014172Y007448D02*
X012967Y007448D01*
X012967Y007546D02*
X013793Y007546D01*
X013815Y007645D02*
X012966Y007645D01*
X012966Y007744D02*
X013914Y007744D01*
X013793Y007349D02*
X012968Y007349D01*
X012968Y007251D02*
X013825Y007251D01*
X013923Y007152D02*
X012969Y007152D01*
X012969Y007054D02*
X014022Y007054D01*
X014173Y007054D02*
X014233Y007054D01*
X014233Y007152D02*
X014173Y007152D01*
X014173Y007251D02*
X014233Y007251D01*
X014233Y007349D02*
X014173Y007349D01*
X014233Y007448D02*
X016023Y007448D01*
X016023Y007546D02*
X014613Y007546D01*
X014590Y007645D02*
X016023Y007645D01*
X016023Y007744D02*
X014492Y007744D01*
X014393Y007842D02*
X016023Y007842D01*
X016023Y007349D02*
X014613Y007349D01*
X014581Y007251D02*
X016023Y007251D01*
X016023Y007152D02*
X014482Y007152D01*
X014384Y007054D02*
X016023Y007054D01*
X016023Y006955D02*
X012970Y006955D01*
X012970Y006857D02*
X016023Y006857D01*
X016023Y006758D02*
X012971Y006758D01*
X012971Y006660D02*
X016023Y006660D01*
X016023Y006561D02*
X012972Y006561D01*
X012972Y006462D02*
X016023Y006462D01*
X016023Y006364D02*
X012973Y006364D01*
X012973Y006265D02*
X016023Y006265D01*
X016023Y006167D02*
X012981Y006167D01*
X013074Y006068D02*
X016023Y006068D01*
X016023Y005970D02*
X013168Y005970D01*
X013261Y005871D02*
X016023Y005871D01*
X016023Y005773D02*
X013354Y005773D01*
X013448Y005674D02*
X016023Y005674D01*
X016023Y005576D02*
X013541Y005576D01*
X013616Y005477D02*
X016023Y005477D01*
X016023Y005378D02*
X013644Y005378D01*
X013643Y005280D02*
X016023Y005280D01*
X016023Y005181D02*
X013643Y005181D01*
X013643Y005083D02*
X016023Y005083D01*
X016023Y004984D02*
X013643Y004984D01*
X013643Y004886D02*
X016023Y004886D01*
X016023Y004787D02*
X013643Y004787D01*
X013643Y004689D02*
X016023Y004689D01*
X016023Y004590D02*
X013643Y004590D01*
X013643Y004492D02*
X016023Y004492D01*
X016023Y004393D02*
X013643Y004393D01*
X013643Y004294D02*
X016023Y004294D01*
X016023Y004196D02*
X013643Y004196D01*
X013643Y004097D02*
X016023Y004097D01*
X016023Y003999D02*
X013643Y003999D01*
X013643Y003900D02*
X016023Y003900D01*
X016023Y003802D02*
X013643Y003802D01*
X013643Y003703D02*
X016023Y003703D01*
X016023Y003605D02*
X013643Y003605D01*
X013643Y003506D02*
X016023Y003506D01*
X016023Y003408D02*
X013643Y003408D01*
X013643Y003309D02*
X016023Y003309D01*
X016023Y003211D02*
X013643Y003211D01*
X013643Y003112D02*
X015980Y003112D01*
X015887Y003013D02*
X013643Y003013D01*
X013643Y002915D02*
X015846Y002915D01*
X015806Y002816D02*
X013701Y002816D01*
X013800Y002718D02*
X013991Y002718D01*
X014003Y002730D02*
X013975Y002702D01*
X013956Y002668D01*
X013945Y002630D01*
X013945Y002381D01*
X014324Y002381D01*
X014324Y002324D01*
X014381Y002324D01*
X014381Y001945D01*
X014630Y001945D01*
X014668Y001956D01*
X014702Y001975D01*
X014730Y002003D01*
X014750Y002037D01*
X014760Y002076D01*
X014760Y002324D01*
X014382Y002324D01*
X014382Y002381D01*
X014760Y002381D01*
X014760Y002630D01*
X014750Y002668D01*
X014730Y002702D01*
X014702Y002730D01*
X014668Y002750D01*
X014630Y002760D01*
X014381Y002760D01*
X014381Y002382D01*
X014324Y002382D01*
X014324Y002760D01*
X014076Y002760D01*
X014037Y002750D01*
X014003Y002730D01*
X013945Y002619D02*
X013820Y002619D01*
X013820Y002521D02*
X013945Y002521D01*
X013945Y002422D02*
X013820Y002422D01*
X013820Y002324D02*
X013945Y002324D01*
X013945Y002076D01*
X013956Y002037D01*
X013975Y002003D01*
X014003Y001975D01*
X014037Y001956D01*
X014076Y001945D01*
X014324Y001945D01*
X014324Y002324D01*
X013945Y002324D01*
X013945Y002225D02*
X013820Y002225D01*
X013820Y002127D02*
X013945Y002127D01*
X013961Y002028D02*
X013820Y002028D01*
X013741Y001929D02*
X015806Y001929D01*
X015806Y002028D02*
X014745Y002028D01*
X014760Y002127D02*
X015806Y002127D01*
X015806Y002225D02*
X014760Y002225D01*
X014760Y002324D02*
X015806Y002324D01*
X015806Y002422D02*
X014760Y002422D01*
X014760Y002521D02*
X015806Y002521D01*
X015806Y002619D02*
X014760Y002619D01*
X014715Y002718D02*
X015806Y002718D01*
X015830Y001831D02*
X012995Y001831D01*
X013046Y001732D02*
X015871Y001732D01*
X014381Y002028D02*
X014324Y002028D01*
X014324Y002127D02*
X014381Y002127D01*
X014381Y002225D02*
X014324Y002225D01*
X014324Y002324D02*
X014381Y002324D01*
X014381Y002422D02*
X014324Y002422D01*
X014324Y002521D02*
X014381Y002521D01*
X014381Y002619D02*
X014324Y002619D01*
X014324Y002718D02*
X014381Y002718D01*
X013002Y000563D02*
X021495Y000563D01*
X021610Y000563D01*
X021717Y000607D01*
X022349Y001238D01*
X022393Y001345D01*
X022393Y001460D01*
X022393Y001765D01*
X022407Y001737D01*
X022454Y001673D01*
X022510Y001617D01*
X022574Y001570D01*
X022644Y001535D01*
X022719Y001510D01*
X022787Y001499D01*
X022787Y002303D01*
X022887Y002303D01*
X022887Y002403D01*
X022787Y002403D01*
X022787Y003206D01*
X022719Y003195D01*
X022644Y003171D01*
X022574Y003135D01*
X022510Y003089D01*
X022454Y003033D01*
X022407Y002969D01*
X022393Y002940D01*
X022393Y003660D01*
X022349Y003767D01*
X022267Y003849D01*
X021943Y004173D01*
X021943Y004778D01*
X021966Y004754D01*
X022139Y004683D01*
X022846Y004683D01*
X023019Y004754D01*
X023151Y004886D01*
X023223Y005059D01*
X023223Y005246D01*
X023151Y005419D01*
X023019Y005551D01*
X022846Y005623D01*
X022139Y005623D01*
X021966Y005551D01*
X021943Y005527D01*
X021943Y005733D01*
X021965Y005755D01*
X021966Y005754D01*
X022139Y005683D01*
X022846Y005683D01*
X023019Y005754D01*
X023151Y005886D01*
X023223Y006059D01*
X023223Y006246D01*
X023151Y006419D01*
X023019Y006551D01*
X022846Y006623D01*
X022139Y006623D01*
X021966Y006551D01*
X021834Y006419D01*
X021834Y006417D01*
X021788Y006399D01*
X021573Y006183D01*
X021573Y007599D01*
X021933Y007960D01*
X021933Y007908D01*
X022208Y007633D01*
X022463Y007633D01*
X022463Y007623D01*
X022139Y007623D01*
X021966Y007551D01*
X021834Y007419D01*
X021763Y007246D01*
X021763Y007059D01*
X021834Y006886D01*
X021966Y006754D01*
X022139Y006683D01*
X022846Y006683D01*
X023019Y006754D01*
X023151Y006886D01*
X023223Y007059D01*
X023223Y007246D01*
X023151Y007419D01*
X023043Y007527D01*
X023043Y007810D01*
X022999Y007917D01*
X022917Y007999D01*
X022873Y008043D01*
X022873Y008297D01*
X022597Y008573D01*
X022546Y008573D01*
X022716Y008743D01*
X022773Y008879D01*
X022773Y009026D01*
X022773Y011808D01*
X022873Y011908D01*
X022873Y012297D01*
X022773Y012397D01*
X022773Y012749D01*
X022856Y012833D01*
X023353Y012833D01*
X023353Y000563D01*
X013002Y000563D01*
X013002Y000563D01*
X020524Y009025D02*
X020658Y009025D01*
X020756Y009123D02*
X020457Y009123D01*
X020344Y009222D02*
X020855Y009222D01*
X021914Y007941D02*
X021933Y007941D01*
X021999Y007842D02*
X021815Y007842D01*
X021717Y007744D02*
X022097Y007744D01*
X022196Y007645D02*
X021618Y007645D01*
X021573Y007546D02*
X021962Y007546D01*
X021863Y007448D02*
X021573Y007448D01*
X021573Y007349D02*
X021805Y007349D01*
X021765Y007251D02*
X021573Y007251D01*
X021573Y007152D02*
X021763Y007152D01*
X021765Y007054D02*
X021573Y007054D01*
X021573Y006955D02*
X021806Y006955D01*
X021864Y006857D02*
X021573Y006857D01*
X021573Y006758D02*
X021963Y006758D01*
X021990Y006561D02*
X021573Y006561D01*
X021573Y006462D02*
X021878Y006462D01*
X021754Y006364D02*
X021573Y006364D01*
X021573Y006265D02*
X021655Y006265D01*
X021573Y006660D02*
X023353Y006660D01*
X023353Y006758D02*
X023023Y006758D01*
X023121Y006857D02*
X023353Y006857D01*
X023353Y006955D02*
X023180Y006955D01*
X023220Y007054D02*
X023353Y007054D01*
X023353Y007152D02*
X023223Y007152D01*
X023221Y007251D02*
X023353Y007251D01*
X023353Y007349D02*
X023180Y007349D01*
X023122Y007448D02*
X023353Y007448D01*
X023353Y007546D02*
X023043Y007546D01*
X023043Y007645D02*
X023353Y007645D01*
X023353Y007744D02*
X023043Y007744D01*
X023030Y007842D02*
X023353Y007842D01*
X023353Y007941D02*
X022975Y007941D01*
X022876Y008039D02*
X023353Y008039D01*
X023353Y008138D02*
X022873Y008138D01*
X022873Y008236D02*
X023353Y008236D01*
X023353Y008335D02*
X022835Y008335D01*
X022737Y008433D02*
X023353Y008433D01*
X023353Y008532D02*
X022638Y008532D01*
X022604Y008630D02*
X023353Y008630D01*
X023353Y008729D02*
X022702Y008729D01*
X022751Y008827D02*
X023353Y008827D01*
X023353Y008926D02*
X022773Y008926D01*
X022773Y009025D02*
X023353Y009025D01*
X023353Y009123D02*
X022773Y009123D01*
X022773Y009222D02*
X023353Y009222D01*
X023353Y009320D02*
X022773Y009320D01*
X022773Y009419D02*
X023353Y009419D01*
X023353Y009517D02*
X022773Y009517D01*
X022773Y009616D02*
X023353Y009616D01*
X023353Y009714D02*
X022773Y009714D01*
X022773Y009813D02*
X023353Y009813D01*
X023353Y009911D02*
X022773Y009911D01*
X022773Y010010D02*
X023353Y010010D01*
X023353Y010109D02*
X022773Y010109D01*
X022773Y010207D02*
X023353Y010207D01*
X023353Y010306D02*
X022773Y010306D01*
X022773Y010404D02*
X023353Y010404D01*
X023353Y010503D02*
X022773Y010503D01*
X022773Y010601D02*
X023353Y010601D01*
X023353Y010700D02*
X022773Y010700D01*
X022773Y010798D02*
X023353Y010798D01*
X023353Y010897D02*
X022773Y010897D01*
X022773Y010995D02*
X023353Y010995D01*
X023353Y011094D02*
X022773Y011094D01*
X022773Y011193D02*
X023353Y011193D01*
X023353Y011291D02*
X022773Y011291D01*
X022773Y011390D02*
X023353Y011390D01*
X023353Y011488D02*
X022773Y011488D01*
X022773Y011587D02*
X023353Y011587D01*
X023353Y011685D02*
X022773Y011685D01*
X022773Y011784D02*
X023353Y011784D01*
X023353Y011882D02*
X022847Y011882D01*
X022873Y011981D02*
X023353Y011981D01*
X023353Y012079D02*
X022873Y012079D01*
X022873Y012178D02*
X023353Y012178D01*
X023353Y012276D02*
X022873Y012276D01*
X022795Y012375D02*
X023353Y012375D01*
X023353Y012474D02*
X022773Y012474D01*
X022773Y012572D02*
X023353Y012572D01*
X023353Y012671D02*
X022773Y012671D01*
X022792Y012769D02*
X023353Y012769D01*
X020041Y013656D02*
X019066Y013656D01*
X019165Y013755D02*
X020063Y013755D01*
X020063Y013853D02*
X019263Y013853D01*
X019616Y013952D02*
X020063Y013952D01*
X020063Y014050D02*
X019715Y014050D01*
X019813Y014149D02*
X020063Y014149D01*
X020063Y014247D02*
X019823Y014247D01*
X019823Y014346D02*
X020063Y014346D01*
X020063Y014444D02*
X019823Y014444D01*
X019823Y014543D02*
X020063Y014543D01*
X020063Y014642D02*
X019729Y014642D01*
X019630Y014740D02*
X020063Y014740D01*
X020063Y014839D02*
X019581Y014839D01*
X019680Y014937D02*
X020063Y014937D01*
X020063Y015036D02*
X019778Y015036D01*
X019994Y015134D02*
X020063Y015134D01*
X019744Y015704D02*
X019570Y015878D01*
X019135Y015878D01*
X018828Y015570D01*
X018828Y015238D01*
X018413Y014823D01*
X018158Y014823D01*
X017883Y014547D01*
X017883Y014158D01*
X017898Y014143D01*
X017807Y014143D01*
X017823Y014158D01*
X017823Y014547D01*
X017743Y014627D01*
X017743Y014900D01*
X017978Y015135D01*
X017978Y015418D01*
X018943Y016383D01*
X019322Y016383D01*
X019322Y016323D01*
X018888Y016323D01*
X018888Y016160D01*
X019160Y015888D01*
X019323Y015888D01*
X019323Y016322D01*
X019383Y016322D01*
X019383Y015888D01*
X019545Y015888D01*
X019818Y016160D01*
X019818Y016323D01*
X019383Y016323D01*
X019383Y016383D01*
X019323Y016383D01*
X019323Y016797D01*
X019343Y016845D01*
X019343Y016960D01*
X019343Y017014D01*
X019345Y017013D01*
X019978Y017013D01*
X020063Y016928D01*
X020063Y016023D01*
X019744Y015704D01*
X019765Y015726D02*
X019722Y015726D01*
X019624Y015824D02*
X019864Y015824D01*
X019962Y015923D02*
X019580Y015923D01*
X019679Y016021D02*
X020061Y016021D01*
X020063Y016120D02*
X019777Y016120D01*
X019818Y016218D02*
X020063Y016218D01*
X020063Y016317D02*
X019818Y016317D01*
X019818Y016383D02*
X019818Y016545D01*
X019545Y016818D01*
X019383Y016818D01*
X019383Y016383D01*
X019818Y016383D01*
X019818Y016415D02*
X020063Y016415D01*
X020063Y016514D02*
X019818Y016514D01*
X019751Y016612D02*
X020063Y016612D01*
X020063Y016711D02*
X019652Y016711D01*
X019554Y016809D02*
X020063Y016809D01*
X020063Y016908D02*
X019343Y016908D01*
X019343Y017007D02*
X019984Y017007D01*
X019383Y016809D02*
X019328Y016809D01*
X019323Y016711D02*
X019383Y016711D01*
X019383Y016612D02*
X019323Y016612D01*
X019323Y016514D02*
X019383Y016514D01*
X019383Y016415D02*
X019323Y016415D01*
X019323Y016317D02*
X019383Y016317D01*
X019383Y016218D02*
X019323Y016218D01*
X019323Y016120D02*
X019383Y016120D01*
X019383Y016021D02*
X019323Y016021D01*
X019323Y015923D02*
X019383Y015923D01*
X019125Y015923D02*
X018483Y015923D01*
X018581Y016021D02*
X019027Y016021D01*
X018928Y016120D02*
X018680Y016120D01*
X018778Y016218D02*
X018888Y016218D01*
X018877Y016317D02*
X018888Y016317D01*
X019082Y015824D02*
X018384Y015824D01*
X018286Y015726D02*
X018983Y015726D01*
X018885Y015627D02*
X018187Y015627D01*
X018089Y015528D02*
X018828Y015528D01*
X018828Y015430D02*
X017990Y015430D01*
X017978Y015331D02*
X018828Y015331D01*
X018823Y015233D02*
X017978Y015233D01*
X017977Y015134D02*
X018724Y015134D01*
X018626Y015036D02*
X017878Y015036D01*
X017780Y014937D02*
X018527Y014937D01*
X018429Y014839D02*
X017743Y014839D01*
X017743Y014740D02*
X018075Y014740D01*
X017977Y014642D02*
X017743Y014642D01*
X017823Y014543D02*
X017883Y014543D01*
X017883Y014444D02*
X017823Y014444D01*
X017823Y014346D02*
X017883Y014346D01*
X017883Y014247D02*
X017823Y014247D01*
X017813Y014149D02*
X017892Y014149D01*
X017075Y014740D02*
X016630Y014740D01*
X016481Y014839D02*
X017163Y014839D01*
X017126Y014937D02*
X016580Y014937D01*
X016678Y015036D02*
X017027Y015036D01*
X016929Y015134D02*
X016777Y015134D01*
X016778Y015233D02*
X016928Y015233D01*
X016928Y015331D02*
X016778Y015331D01*
X016778Y015430D02*
X016928Y015430D01*
X016928Y015528D02*
X016778Y015528D01*
X016721Y015627D02*
X016985Y015627D01*
X017083Y015726D02*
X016622Y015726D01*
X016524Y015824D02*
X017182Y015824D01*
X017225Y015923D02*
X016565Y015923D01*
X016664Y016021D02*
X017127Y016021D01*
X017028Y016120D02*
X016762Y016120D01*
X016778Y016218D02*
X016988Y016218D01*
X016988Y016317D02*
X016778Y016317D01*
X016825Y016415D02*
X016988Y016415D01*
X016988Y016514D02*
X016924Y016514D01*
X017423Y016317D02*
X017483Y016317D01*
X017483Y016323D02*
X017483Y016383D01*
X017918Y016383D01*
X017918Y016545D01*
X017900Y016563D01*
X018303Y016563D01*
X017918Y016178D01*
X017918Y016323D01*
X017483Y016323D01*
X017483Y016218D02*
X017423Y016218D01*
X017423Y016120D02*
X017483Y016120D01*
X017483Y016021D02*
X017423Y016021D01*
X017423Y015923D02*
X017483Y015923D01*
X017918Y016218D02*
X017958Y016218D01*
X017918Y016317D02*
X018057Y016317D01*
X018155Y016415D02*
X017918Y016415D01*
X017918Y016514D02*
X018254Y016514D01*
X015926Y014937D02*
X015847Y014937D01*
X015089Y013952D02*
X015043Y013952D01*
X014820Y012375D02*
X014743Y012375D01*
X014743Y012276D02*
X014919Y012276D01*
X015017Y012178D02*
X014743Y012178D01*
X014743Y012079D02*
X015063Y012079D01*
X015063Y011981D02*
X014743Y011981D01*
X014743Y011882D02*
X015063Y011882D01*
X015063Y011784D02*
X014743Y011784D01*
X014743Y011685D02*
X015063Y011685D01*
X015063Y011587D02*
X014743Y011587D01*
X015643Y010798D02*
X017134Y010798D01*
X017035Y010700D02*
X016585Y010700D01*
X016523Y010763D02*
X016383Y010763D01*
X016383Y010383D01*
X016323Y010383D01*
X016323Y010763D01*
X016183Y010763D01*
X015943Y010523D01*
X015943Y010383D01*
X016322Y010383D01*
X016322Y010323D01*
X015943Y010323D01*
X015943Y010183D01*
X016183Y009943D01*
X016323Y009943D01*
X016323Y010322D01*
X016383Y010322D01*
X016383Y009943D01*
X016523Y009943D01*
X016763Y010183D01*
X016763Y010323D01*
X016383Y010323D01*
X016383Y010383D01*
X016763Y010383D01*
X016763Y010523D01*
X016523Y010763D01*
X016383Y010700D02*
X016323Y010700D01*
X016323Y010601D02*
X016383Y010601D01*
X016383Y010503D02*
X016323Y010503D01*
X016323Y010404D02*
X016383Y010404D01*
X016383Y010306D02*
X016323Y010306D01*
X016323Y010207D02*
X016383Y010207D01*
X016383Y010109D02*
X016323Y010109D01*
X016323Y010010D02*
X016383Y010010D01*
X016590Y010010D02*
X017023Y010010D01*
X016945Y009911D02*
X015576Y009911D01*
X015675Y010010D02*
X016116Y010010D01*
X016017Y010109D02*
X015773Y010109D01*
X015823Y010207D02*
X015943Y010207D01*
X015943Y010306D02*
X015823Y010306D01*
X015823Y010404D02*
X015943Y010404D01*
X015943Y010503D02*
X015823Y010503D01*
X015769Y010601D02*
X016021Y010601D01*
X016120Y010700D02*
X015670Y010700D01*
X016684Y010601D02*
X016937Y010601D01*
X016883Y010503D02*
X016763Y010503D01*
X016763Y010404D02*
X016883Y010404D01*
X016883Y010306D02*
X016763Y010306D01*
X016763Y010207D02*
X016883Y010207D01*
X016932Y010109D02*
X016688Y010109D01*
X017572Y010798D02*
X018134Y010798D01*
X018035Y010700D02*
X017670Y010700D01*
X017769Y010601D02*
X017937Y010601D01*
X017883Y010503D02*
X017823Y010503D01*
X017823Y010404D02*
X017883Y010404D01*
X017883Y010306D02*
X017823Y010306D01*
X017823Y010207D02*
X017883Y010207D01*
X017892Y010109D02*
X017773Y010109D01*
X017793Y010010D02*
X017683Y010010D01*
X017683Y009911D02*
X017695Y009911D01*
X019670Y010700D02*
X020037Y010700D01*
X022463Y007633D02*
X022463Y007633D01*
X022995Y006561D02*
X023353Y006561D01*
X023353Y006462D02*
X023108Y006462D01*
X023174Y006364D02*
X023353Y006364D01*
X023353Y006265D02*
X023215Y006265D01*
X023223Y006167D02*
X023353Y006167D01*
X023353Y006068D02*
X023223Y006068D01*
X023186Y005970D02*
X023353Y005970D01*
X023353Y005871D02*
X023136Y005871D01*
X023037Y005773D02*
X023353Y005773D01*
X023353Y005674D02*
X021943Y005674D01*
X021943Y005576D02*
X022025Y005576D01*
X021943Y004689D02*
X022125Y004689D01*
X021943Y004590D02*
X023353Y004590D01*
X023353Y004492D02*
X021943Y004492D01*
X021943Y004393D02*
X023353Y004393D01*
X023353Y004294D02*
X021943Y004294D01*
X021943Y004196D02*
X023353Y004196D01*
X023353Y004097D02*
X022018Y004097D01*
X022117Y003999D02*
X023353Y003999D01*
X023353Y003900D02*
X022215Y003900D01*
X022314Y003802D02*
X023353Y003802D01*
X023353Y003703D02*
X022375Y003703D01*
X022393Y003605D02*
X023353Y003605D01*
X023353Y003506D02*
X022393Y003506D01*
X022393Y003408D02*
X023353Y003408D01*
X023353Y003309D02*
X022393Y003309D01*
X022393Y003211D02*
X023353Y003211D01*
X023353Y003112D02*
X023132Y003112D01*
X023100Y003135D02*
X023030Y003171D01*
X022955Y003195D01*
X022887Y003206D01*
X022887Y002403D01*
X023339Y002403D01*
X023339Y002745D01*
X023327Y002823D01*
X023303Y002898D01*
X023267Y002969D01*
X023220Y003033D01*
X023164Y003089D01*
X023100Y003135D01*
X023234Y003013D02*
X023353Y003013D01*
X023353Y002915D02*
X023294Y002915D01*
X023328Y002816D02*
X023353Y002816D01*
X023339Y002718D02*
X023353Y002718D01*
X023339Y002619D02*
X023353Y002619D01*
X023339Y002521D02*
X023353Y002521D01*
X023339Y002422D02*
X023353Y002422D01*
X023353Y002324D02*
X022887Y002324D01*
X022887Y002303D02*
X023339Y002303D01*
X023339Y001961D01*
X023327Y001883D01*
X023303Y001807D01*
X023267Y001737D01*
X023220Y001673D01*
X023164Y001617D01*
X023100Y001570D01*
X023030Y001535D01*
X022955Y001510D01*
X022887Y001499D01*
X022887Y002303D01*
X022887Y002225D02*
X022787Y002225D01*
X022787Y002127D02*
X022887Y002127D01*
X022887Y002028D02*
X022787Y002028D01*
X022787Y001929D02*
X022887Y001929D01*
X022887Y001831D02*
X022787Y001831D01*
X022787Y001732D02*
X022887Y001732D01*
X022887Y001634D02*
X022787Y001634D01*
X022787Y001535D02*
X022887Y001535D01*
X023031Y001535D02*
X023353Y001535D01*
X023353Y001437D02*
X022393Y001437D01*
X022393Y001535D02*
X022643Y001535D01*
X022493Y001634D02*
X022393Y001634D01*
X022393Y001732D02*
X022410Y001732D01*
X022390Y001338D02*
X023353Y001338D01*
X023353Y001240D02*
X022349Y001240D01*
X022251Y001141D02*
X023353Y001141D01*
X023353Y001043D02*
X022153Y001043D01*
X022054Y000944D02*
X023353Y000944D01*
X023353Y000845D02*
X021956Y000845D01*
X021857Y000747D02*
X023353Y000747D01*
X023353Y000648D02*
X021759Y000648D01*
X023181Y001634D02*
X023353Y001634D01*
X023353Y001732D02*
X023264Y001732D01*
X023310Y001831D02*
X023353Y001831D01*
X023353Y001929D02*
X023335Y001929D01*
X023339Y002028D02*
X023353Y002028D01*
X023339Y002127D02*
X023353Y002127D01*
X023339Y002225D02*
X023353Y002225D01*
X022887Y002422D02*
X022787Y002422D01*
X022787Y002521D02*
X022887Y002521D01*
X022887Y002619D02*
X022787Y002619D01*
X022787Y002718D02*
X022887Y002718D01*
X022887Y002816D02*
X022787Y002816D01*
X022787Y002915D02*
X022887Y002915D01*
X022887Y003013D02*
X022787Y003013D01*
X022787Y003112D02*
X022887Y003112D01*
X022542Y003112D02*
X022393Y003112D01*
X022393Y003013D02*
X022440Y003013D01*
X022860Y004689D02*
X023353Y004689D01*
X023353Y004787D02*
X023052Y004787D01*
X023150Y004886D02*
X023353Y004886D01*
X023353Y004984D02*
X023192Y004984D01*
X023223Y005083D02*
X023353Y005083D01*
X023353Y005181D02*
X023223Y005181D01*
X023209Y005280D02*
X023353Y005280D01*
X023353Y005378D02*
X023168Y005378D01*
X023093Y005477D02*
X023353Y005477D01*
X023353Y005576D02*
X022960Y005576D01*
X014463Y019076D02*
X014403Y019076D01*
X014648Y019667D02*
X016743Y019667D01*
X016862Y019766D02*
X014550Y019766D01*
D35*
X014553Y019353D02*
X013553Y020353D01*
X013553Y025703D01*
X014203Y026353D01*
X014203Y028253D01*
X013653Y028803D01*
X012103Y028803D01*
X011303Y028003D01*
X011303Y025703D01*
X012303Y024653D01*
X012303Y022653D01*
X011603Y021953D01*
X011603Y021653D01*
X011303Y021353D01*
X009353Y021353D01*
X008853Y021853D01*
X007853Y021853D01*
X008603Y021353D02*
X009103Y020853D01*
X010853Y020853D01*
X010853Y021853D02*
X009553Y021853D01*
X009053Y022353D01*
X006103Y022353D01*
X005503Y022953D01*
X003203Y022953D01*
X003003Y023153D01*
X003003Y024353D01*
X002503Y024853D01*
X001853Y024853D01*
X001853Y025853D02*
X003303Y025853D01*
X004503Y027053D01*
X004503Y028603D01*
X004803Y029903D02*
X006203Y028503D01*
X006203Y025853D01*
X006903Y025103D01*
X006903Y024703D01*
X006453Y024253D01*
X006453Y023673D01*
X006483Y023643D01*
X004553Y023643D01*
X004553Y024953D01*
X004603Y025003D01*
X004553Y023643D02*
X003923Y023643D01*
X003103Y022353D02*
X004853Y022353D01*
X005103Y022103D01*
X005103Y021603D01*
X005353Y021353D01*
X008603Y021353D01*
X007853Y020853D02*
X006253Y020853D01*
X003253Y017853D01*
X001853Y017853D01*
X001853Y016853D02*
X002703Y016853D01*
X005703Y019853D01*
X007853Y019853D01*
X008653Y020353D02*
X009603Y020353D01*
X010103Y019853D01*
X010853Y019853D01*
X010853Y018853D02*
X010353Y018853D01*
X008553Y017053D01*
X008553Y012653D01*
X008253Y012353D01*
X007403Y012353D01*
X006653Y013103D01*
X005803Y013103D01*
X004903Y012203D01*
X004903Y007103D01*
X004153Y006353D01*
X003153Y007353D01*
X002853Y007353D01*
X002853Y008353D02*
X003153Y008353D01*
X004153Y007353D01*
X004153Y008353D02*
X003153Y009353D01*
X002853Y009353D01*
X002853Y010353D02*
X003153Y010353D01*
X004153Y009353D01*
X004553Y009753D01*
X004553Y012403D01*
X005703Y013553D01*
X006703Y013553D01*
X007403Y012853D01*
X007853Y012853D01*
X009853Y013303D02*
X009853Y010303D01*
X010303Y009853D01*
X010303Y009353D01*
X011253Y009453D02*
X011253Y008553D01*
X011053Y008353D01*
X010303Y008353D01*
X011253Y009453D02*
X010153Y010553D01*
X010153Y012603D01*
X010403Y012853D01*
X010853Y012853D01*
X010853Y011853D02*
X011653Y011853D01*
X012603Y012803D01*
X012603Y027411D01*
X013095Y027903D01*
X013095Y027123D02*
X013095Y012145D01*
X011803Y010853D01*
X010853Y010853D01*
X009153Y010653D02*
X008303Y009803D01*
X007253Y009803D01*
X006703Y009253D01*
X006703Y004703D01*
X006353Y004353D01*
X004153Y004353D01*
X003153Y005353D01*
X002853Y005353D01*
X002853Y006353D02*
X003853Y005353D01*
X004153Y005353D01*
X005603Y005353D01*
X006253Y006003D01*
X006253Y009703D01*
X006653Y010103D01*
X008203Y010103D01*
X008853Y010753D01*
X008853Y016353D01*
X010353Y017853D01*
X010853Y017853D01*
X010853Y016853D02*
X010303Y016853D01*
X009153Y015703D01*
X009153Y010653D01*
X009853Y013303D02*
X010403Y013853D01*
X010853Y013853D01*
X014453Y015853D02*
X014453Y009903D01*
X013853Y009303D01*
X012453Y009303D01*
X012453Y006303D01*
X013353Y005353D01*
X013353Y002353D01*
X010853Y002353D02*
X010353Y002353D01*
X009853Y001853D01*
X009853Y001353D01*
X008853Y001353D02*
X008853Y001853D01*
X008353Y002353D01*
X007853Y002353D01*
X006853Y002353D02*
X006803Y002303D01*
X006803Y002253D01*
X006853Y002203D01*
X006853Y001353D01*
X007353Y000853D01*
X021553Y000853D01*
X022103Y001403D01*
X022103Y003603D01*
X021653Y004053D01*
X021653Y005853D01*
X021953Y006153D01*
X022753Y006153D01*
X022753Y007153D02*
X022753Y007753D01*
X022403Y008103D01*
X020353Y013303D02*
X020353Y015203D01*
X020853Y015703D01*
X020853Y017703D01*
X021003Y017853D01*
X021003Y018303D01*
X020953Y018353D01*
X021503Y018353D01*
X022603Y018353D01*
X021503Y019353D02*
X020353Y019353D01*
X019653Y019353D01*
X019403Y019103D01*
X019403Y017303D01*
X020353Y017303D01*
X020353Y015903D01*
X019803Y015353D01*
X019353Y015353D01*
X018353Y014353D01*
X018853Y013853D02*
X019353Y014353D01*
X018853Y013853D02*
X015853Y013853D01*
X015353Y014353D01*
X015353Y014853D01*
X015853Y015353D01*
X016253Y015353D01*
X016253Y016253D02*
X016253Y016353D01*
X016253Y016253D02*
X016853Y016853D01*
X018353Y016853D01*
X018753Y017253D01*
X018753Y020153D01*
X018553Y020353D01*
X018553Y023853D01*
X018053Y024353D01*
X017353Y024353D01*
X016753Y024953D01*
X016753Y025803D01*
X016453Y026103D01*
X016203Y026103D01*
X016053Y026253D01*
X016053Y026703D01*
X016003Y026753D01*
X015603Y026353D01*
X014903Y026353D01*
X014203Y025653D01*
X014853Y024353D02*
X016003Y024353D01*
X016003Y023353D02*
X015353Y023353D01*
X015103Y023103D01*
X015103Y021503D01*
X014453Y020853D01*
X014203Y021653D02*
X014203Y023703D01*
X014853Y024353D01*
X016003Y023353D02*
X017353Y023353D01*
X017353Y022353D02*
X016603Y022353D01*
X016203Y021953D01*
X015753Y021953D01*
X017353Y022353D02*
X018053Y022353D01*
X018253Y022153D01*
X018253Y020153D01*
X018453Y019953D01*
X018453Y017953D01*
X017853Y017353D01*
X016353Y017353D01*
X014753Y015753D01*
X014753Y012853D01*
X015353Y012253D01*
X015353Y010353D01*
X016353Y014353D02*
X017353Y014353D01*
X017453Y014453D01*
X017453Y015353D01*
X017503Y015353D01*
X019053Y016903D01*
X019053Y020153D01*
X019253Y020353D01*
X020353Y020353D01*
X020353Y022353D02*
X019453Y022353D01*
X019053Y022753D01*
X019053Y024653D01*
X018153Y025553D01*
X017353Y025553D01*
X020353Y025603D02*
X020903Y025603D01*
X021303Y025203D01*
X021303Y023753D01*
X020903Y023353D01*
X020353Y023353D01*
X020353Y022353D02*
X021553Y022353D01*
X022603Y022353D01*
X022603Y023403D01*
X020353Y025603D02*
X020353Y025853D01*
X020853Y026353D01*
X020853Y026753D01*
X020853Y027753D01*
X017353Y029353D02*
X017353Y029903D01*
X017103Y030153D01*
X009903Y030153D01*
X009103Y029353D01*
X009103Y026553D01*
X009753Y025903D01*
X010603Y025903D01*
X012003Y024503D01*
X012003Y022853D01*
X011503Y022353D01*
X009953Y022353D01*
X009453Y022853D01*
X007853Y022853D01*
X007153Y023653D02*
X006493Y023653D01*
X006483Y023643D01*
X007153Y023653D02*
X007353Y023853D01*
X007853Y023853D01*
X007803Y025153D02*
X007803Y026153D01*
X006903Y027053D01*
X006903Y028103D01*
X007803Y028153D02*
X007803Y028853D01*
X007603Y029103D01*
X006103Y029103D01*
X005803Y029403D01*
X005803Y029953D01*
X004803Y029953D02*
X004803Y029903D01*
X007803Y029903D02*
X008503Y029203D01*
X008503Y025253D01*
X009903Y023853D01*
X010853Y023853D01*
X011653Y024353D02*
X011653Y023103D01*
X011403Y022853D01*
X010853Y022853D01*
X011653Y024353D02*
X010403Y025603D01*
X009653Y025603D01*
X008803Y026453D01*
X008803Y029953D01*
X007803Y029953D02*
X007803Y029903D01*
X012111Y027123D02*
X012111Y025661D01*
X012103Y025653D01*
X017353Y020353D02*
X017653Y020353D01*
X018153Y019853D01*
X018153Y018203D01*
X017603Y017653D01*
X016253Y017653D01*
X014453Y015853D01*
X017353Y018353D02*
X017353Y019353D01*
X014553Y019353D01*
X020353Y018353D02*
X020953Y018353D01*
X007853Y017853D02*
X004603Y017853D01*
X003803Y017053D01*
X003803Y016003D01*
X002653Y014853D01*
X001853Y014853D01*
X001853Y015853D02*
X003003Y015853D01*
X003453Y016303D01*
X003453Y017153D01*
X005203Y018903D01*
X007803Y018903D01*
X007853Y018853D01*
X003253Y014353D02*
X003153Y014453D01*
X003253Y014353D02*
X003253Y014203D01*
X004053Y013403D01*
X004053Y012403D01*
X003903Y012253D01*
X003203Y012253D01*
X003203Y013253D02*
X002753Y013253D01*
X002353Y012853D01*
X001853Y012853D01*
X001853Y013853D02*
X001203Y013853D01*
X000603Y013253D01*
X000603Y004553D01*
X001603Y003553D01*
X002653Y003553D01*
X004353Y001853D01*
X005853Y001853D01*
X003103Y022353D02*
X002603Y022853D01*
X001853Y022853D01*
M02*
