<?xml version="1.0" standalone="no"?>
<!DOCTYPE svg PUBLIC "-//W3C//DTD SVG 1.1//EN" "http://www.w3.org/Graphics/SVG/1.1/DTD/svg11.dtd">
<svg width="60.83mm" height="87.5mm"
 viewBox="0 0 60.83 87.5"
 xmlns="http://www.w3.org/2000/svg" version="1.1"
 xmlns:xlink="http://www.w3.org/1999/xlink">
<desc>Output from Flights of Ideas SVG Sketchup Plugin</desc>

<g id="text_annotations" font-size="10" stroke="rgb(255,0,0)" stroke-width="0">
</g>
  <path id="face0-cut"
 style="fill:none;stroke:rgb(0,0,255);stroke-width:0;stroke-miterlimit:4;stroke-dasharray:none;stroke-linejoin:round;stroke-linecap:round"
        d="M 13.8952922067685,77.4986292999022 L 14.0,77.5 L 46.8300000285234,77.4986292999022 L 46.9347077932315,77.4986292999022 L 47.0393440799443,77.4986292999022 L 47.1438381893187,77.4986292999022 L 47.2481201788046,77.4986292999022 L 47.35212089583,77.4986292999022 L 47.4557378601609,77.4507533623791 L 47.5589421019686,77.4330196302547 L 47.661646763271,77.4125904029369 L 47.7637814554236,77.3894796815898 L 47.8652761804101,77.3637033051557 L 47.9660613788157,77.3352789394731 L 48.0660679774998,77.304226065181 L 48.1652274369351,77.2705659643695 L 48.2634717981812,77.234321705989 L 48.3607337294604,77.1955181300457 L 48.4569465723032,77.1541818305706 L 48.5520443872332,77.1103411373995 L 48.6459619989582,77.0640260967535 L 48.7386350410384,77.0152684506477 L 48.83,76.9641016151377 L 48.9199942588638,76.9105606574163 L 49.0085561400601,76.8546822717817 L 49.0956249476993,76.7965047544882 L 49.1811410091699,76.7360679774997 L 49.2650457160349,76.6734133611648 L 49.3472815641993,76.6085838458276 L 49.4277921933207,76.5416238624001 L 49.5065224254354,76.4725793019096 L 49.583418302775,76.401497484049 L 49.6584271247462,76.3284271247462 L 49.7314974840492,76.2534183027749 L 49.8025793019096,76.1765224254355 L 49.8716238624001,76.0977921933208 L 49.9385838458279,76.0172815641994 L 50.003413361165,75.9350457160349 L 50.0660679774998,75.8511410091699 L 50.1265047544881,75.7656249476992 L 50.1846822717817,75.67855614006 L 50.2405606574164,75.5899942588639 L 50.2941016151378,75.5 L 50.3452684506479,75.4086350410383 L 50.3940260967535,75.3159619989582 L 50.4403411373995,75.2220443872332 L 50.4841818305704,75.1269465723032 L 50.5255181300452,75.0307337294604 L 50.5643217059888,74.9334717981813 L 50.6005659643687,74.8352274369351 L 50.6342260651806,74.7360679774998 L 50.6652789394728,74.6360613788157 L 50.6937033051563,74.5352761804101 L 50.7194796815907,74.4337814554237 L 50.7425904029352,74.331646763271 L 50.7630196302558,74.2289421019686 L 50.7807533623806,74.125737860161 L 50.7957794454952,74.0221047688802 L 50.8080875814731,73.9181138530707 L 50.8176693349325,73.8138363829113 L 50.8245181390183,73.7093438249717 L 50.8286292999022,73.6047077932315 L 50.83,73.5 L 50.83,14.0 L 50.8286292999022,13.8952922067685 L 50.8245181390183,13.7906561750282 L 50.8176693349325,13.6861636170886 L 50.8080875814731,13.5818861469294 L 50.7957794454952,13.4778952311198 L 50.7807533623806,13.3742621398391 L 50.7630196302558,13.2710578980314 L 50.7425904029352,13.168353236729 L 50.7194796815907,13.0662185445764 L 50.6937033051563,12.9647238195899 L 50.6652789394728,12.8639386211843 L 50.6342260651806,12.7639320225002 L 50.6005659643687,12.6647725630649 L 50.5643217059888,12.5665282018188 L 50.5255181300452,12.4692662705396 L 50.4841818305704,12.3730534276968 L 50.4403411373994,12.2779556127668 L 50.3940260967535,12.1840380010418 L 50.3452684506479,12.0913649589616 L 50.2941016151378,12.0 L 50.2405606574164,11.9100057411362 L 50.1846822717817,11.8214438599399 L 50.1265047544881,11.7343750523007 L 50.0660679774998,11.6488589908301 L 50.003413361165,11.5649542839651 L 49.9385838458279,11.4827184358006 L 49.8716238624001,11.4022078066793 L 49.8025793019096,11.3234775745646 L 49.7314974840492,11.246581697225 L 49.6584271247462,11.1715728752538 L 49.583418302775,11.0985025159509 L 49.5065224254354,11.0274206980904 L 49.4277921933207,10.9583761375999 L 49.3472815641994,10.8914161541721 L 49.2650457160349,10.8265866388351 L 49.1811410091699,10.7639320225002 L 49.0956249476993,10.7034952455119 L 49.0085561400601,10.6453177282183 L 48.9199942588638,10.5894393425836 L 48.83,10.5358983848623 L 48.7386350410384,10.4847315493521 L 48.6459619989582,10.4359739032465 L 48.5520443872332,10.3896588626006 L 48.4569465723032,10.3458181694296 L 48.3607337294604,10.3044818699549 L 48.2634717981812,10.2656782940112 L 48.1652274369351,10.2294340356313 L 48.0660679774998,10.1957739348194 L 47.9660613788157,10.1647210605272 L 47.8652761804101,10.1362966948437 L 47.7637814554236,10.1105203184093 L 47.6616467632711,10.0874095970648 L 47.5589421019686,10.0669803697442 L 47.4557378601609,10.0492466376194 L 47.3521047688802,10.0342205545048 L 47.2481138530706,10.0219124185269 L 47.1438363829114,10.0123306650675 L 47.0393438249718,10.0054818609817 L 46.9347077932315,10.0013707000978 L 46.83,10.0 L 14.0,10.0 L 13.8952922067685,10.0013707000978 L 13.7906561750282,10.0054818609817 L 13.6861636170886,10.0123306650675 L 13.5818861469294,10.0219124185269 L 13.4778952311198,10.0342205545048 L 13.3742621398391,10.0492466376194 L 13.2710578980314,10.0669803697442 L 13.168353236729,10.0874095970648 L 13.0662185445764,10.1105203184093 L 12.9647238195899,10.1362966948437 L 12.8639386211843,10.1647210605272 L 12.7639320225002,10.1957739348194 L 12.6647725630649,10.2294340356313 L 12.5665282018188,10.2656782940112 L 12.4692662705396,10.3044818699549 L 12.3730534276968,10.3458181694296 L 12.2779556127668,10.3896588626006 L 12.1840380010418,10.4359739032465 L 12.0913649589616,10.4847315493521 L 12.0,10.5358983848623 L 11.9100057411362,10.5894393425836 L 11.8214438599399,10.6453177282183 L 11.7343750523007,10.7034952455119 L 11.6488589908301,10.7639320225002 L 11.5649542839651,10.8265866388351 L 11.4827184358006,10.8914161541721 L 11.4022078066793,10.9583761375999 L 11.3234775745646,11.0274206980904 L 11.246581697225,11.0985025159509 L 11.1715728752538,11.1715728752538 L 11.0985025159509,11.246581697225 L 11.0274206980904,11.3234775745646 L 10.9583761375999,11.4022078066793 L 10.8914161541721,11.4827184358006 L 10.8265866388351,11.5649542839651 L 10.7639320225002,11.6488589908301 L 10.7034952455119,11.7343750523007 L 10.6453177282183,11.8214438599399 L 10.5894393425836,11.9100057411362 L 10.5358983848623,12.0 L 10.4847315493521,12.0913649589616 L 10.4359739032465,12.1840380010418 L 10.3896588626006,12.2779556127668 L 10.3458181694296,12.3730534276968 L 10.3044818699549,12.4692662705397 L 10.2656782940112,12.5665282018188 L 10.2294340356313,12.6647725630649 L 10.1957739348194,12.7639320225002 L 10.1647210605272,12.8639386211843 L 10.1362966948437,12.9647238195899 L 10.1105203184093,13.0662185445764 L 10.0874095970648,13.168353236729 L 10.0669803697442,13.2710578980314 L 10.0492466376195,13.3742621398391 L 10.0342205545048,13.4778952311198 L 10.0219124185269,13.5818861469294 L 10.0123306650675,13.6861636170886 L 10.0054818609817,13.7906561750282 L 10.0013707000978,13.8952922067685 L 10.0,14.0 L 10.0,73.5 L 10.0013707000978,73.6047077932315 L 10.0054818609817,73.7093438249718 L 10.0123306650675,73.8138363829114 L 10.0219124185269,73.9181138530706 L 10.0342205545048,74.0221047688802 L 10.0492466376195,74.1257378601609 L 10.0669803697442,74.2289421019686 L 10.0874095970648,74.331646763271 L 10.1105203184093,74.4337814554236 L 10.1362966948437,74.5352761804101 L 10.1647210605272,74.6360613788157 L 10.1957739348194,74.7360679774998 L 10.2294340356313,74.8352274369351 L 10.2656782940112,74.9334717981812 L 10.3044818699549,75.0307337294604 L 10.3458181694296,75.1269465723032 L 10.3896588626006,75.2220443872332 L 10.4359739032465,75.3159619989582 L 10.4847315493521,75.4086350410384 L 10.5358983848623,75.5 L 10.5894393425836,75.5899942588638 L 10.6453177282183,75.6785561400601 L 10.7034952455119,75.7656249476993 L 10.7639320225002,75.8511410091699 L 10.8265866388351,75.9350457160349 L 10.8914161541721,76.0172815641994 L 10.9583761375999,76.0977921933207 L 11.0274206980904,76.1765224254354 L 11.0985025159509,76.253418302775 L 11.1715728752538,76.3284271247462 L 11.246581697225,76.4014974840491 L 11.3234775745646,76.4725793019096 L 11.4022078066793,76.5416238624001 L 11.4827184358007,76.6085838458279 L 11.5649542839651,76.6734133611649 L 11.6488589908301,76.7360679774998 L 11.7343750523007,76.7965047544881 L 11.8214438599399,76.8546822717817 L 11.9100057411362,76.9105606574164 L 12.0,76.9641016151378 L 12.0913649589616,77.0152684506479 L 12.1840380010418,77.0640260967535 L 12.2779556127668,77.1103411373994 L 12.3730534276968,77.1541818305704 L 12.4692662705396,77.1955181300451 L 12.5665282018188,77.2343217059888 L 12.6647725630649,77.2705659643687 L 12.7639320225002,77.3042260651806 L 12.8639386211843,77.3352789394728 L 12.9647238195899,77.3637033051563 L 13.0662185445764,77.3894796815907 L 13.168353236729,77.4125904029352 L 13.2710578980314,77.4330196302558 L 13.3742621398391,77.4507533623806 L 13.4778952311198,77.4657794454952 L 13.5818861469294,77.4780875814731 L 13.6861636170886,77.4876693349325 L 13.7906561750282,77.4945181390183 L 13.8952922067685,77.4986292999022 M 45.655,70.725 L 46.069110472164,70.7795186779375 L 46.455,70.9393593539449 L 46.7863708498985,71.1936291501015 L 47.0406406460551,71.525 L 47.2004813220625,71.910889527836 L 47.255,72.325 L 47.2004813220625,72.739110472164 L 47.0406406460551,73.125 L 46.7863708498985,73.4563708498985 L 46.455,73.7106406460551 L 46.069110472164,73.8704813220625 L 45.655,73.925 L 45.240889527836,73.8704813220625 L 44.855,73.7106406460551 L 44.5236291501015,73.4563708498985 L 44.2693593539449,73.125 L 44.1095186779375,72.739110472164 L 44.055,72.325 L 44.1095186779375,71.910889527836 L 44.2693593539449,71.525 L 44.5236291501015,71.1936291501015 L 44.855,70.9393593539449 L 45.240889527836,70.7795186779375 L 45.655,70.725 M 45.655,13.575 L 46.069110472164,13.6295186779375 L 46.455,13.7893593539449 L 46.7863708498985,14.0436291501015 L 47.0406406460551,14.375 L 47.2004813220625,14.760889527836 L 47.255,15.175 L 47.2004813220625,15.589110472164 L 47.0406406460551,15.975 L 46.7863708498985,16.3063708498985 L 46.455,16.5606406460551 L 46.069110472164,16.7204813220625 L 45.655,16.775 L 45.240889527836,16.7204813220625 L 44.855,16.5606406460551 L 44.5236291501015,16.3063708498985 L 44.2693593539449,15.975 L 44.1095186779375,15.589110472164 L 44.055,15.175 L 44.1095186779375,14.760889527836 L 44.2693593539449,14.375 L 44.5236291501015,14.0436291501015 L 44.855,13.7893593539449 L 45.240889527836,13.6295186779375 L 45.655,13.575 M 15.175,70.725 L 15.589110472164,70.7795186779375 L 15.975,70.9393593539449 L 16.3063708498985,71.1936291501015 L 16.5606406460551,71.525 L 16.7204813220625,71.910889527836 L 16.775,72.325 L 16.7204813220625,72.739110472164 L 16.5606406460551,73.125 L 16.3063708498985,73.4563708498985 L 15.975,73.7106406460551 L 15.589110472164,73.8704813220625 L 15.175,73.925 L 14.760889527836,73.8704813220625 L 14.375,73.7106406460551 L 14.0436291501015,73.4563708498985 L 13.7893593539449,73.125 L 13.6295186779375,72.739110472164 L 13.575,72.325 L 13.6295186779375,71.910889527836 L 13.7893593539449,71.525 L 14.0436291501015,71.1936291501015 L 14.375,70.9393593539449 L 14.760889527836,70.7795186779375 L 15.175,70.725 M 16.5147608592589,14.3003338694119 L 16.6954898677117,14.6768930213438 L 16.7726000044083,15.0873973407103 L 16.7408363409633,15.5038716365372 L 16.6023635185486,15.8979338738202 L 16.3666182311745,16.242729362307 L 16.0496661305881,16.5147608592589 L 15.6731069786563,16.6954898677117 L 15.2626026592897,16.7726000044083 L 14.8461283634628,16.7408363409633 L 14.4520661261798,16.6023635185486 L 14.107270637693,16.3666182311745 L 13.8352391407411,16.0496661305881 L 13.6545101322883,15.6731069786562 L 13.5773999955917,15.2626026592897 L 13.6091636590367,14.8461283634628 L 13.7476364814514,14.4520661261798 L 13.9833817688255,14.107270637693 L 14.3003338694119,13.8352391407411 L 14.6768930213438,13.6545101322883 L 15.0873973407103,13.5773999955917 L 15.5038716365372,13.6091636590367 L 15.8979338738202,13.7476364814514 L 16.2427293623071,13.9833817688255 L 16.5147608592589,14.3003338694119 "
  />
</svg>
