<?xml version="1.0" standalone="no"?>
<!DOCTYPE svg PUBLIC "-//W3C//DTD SVG 1.1//EN" "http://www.w3.org/Graphics/SVG/1.1/DTD/svg11.dtd">
<svg width="61.0mm" height="84.0mm"
 viewBox="0 0 61.0 84.0"
 xmlns="http://www.w3.org/2000/svg" version="1.1"
 xmlns:xlink="http://www.w3.org/1999/xlink">
<desc>Output from Flights of Ideas SVG Sketchup Plugin</desc>

<g id="text_annotations" font-size="10" stroke="rgb(255,0,0)" stroke-width="0.3">
</g>
  <path id="face0-cut"
 style="fill:none;stroke:rgb(0,0,255);stroke-width:0.3;stroke-miterlimit:4;stroke-dasharray:none;stroke-linejoin:round;stroke-linecap:round"
        d="M 47.0,74.0 L 47.5221047688802,73.9657794454952 L 48.0352761804101,73.8637033051563 L 48.5307337294604,73.6955181300451 L 49.0,73.4641016151378 L 49.4350457160349,73.1734133611649 L 49.8284271247462,72.8284271247462 L 50.1734133611649,72.4350457160349 L 50.4641016151378,72.0 L 50.6955181300451,71.5307337294604 L 50.8637033051563,71.0352761804101 L 50.9657794454952,70.5221047688802 L 51.0,70.0 L 51.0,14.0 L 50.9657794454953,13.4778952311198 L 50.8637033051563,12.9647238195899 L 50.6955181300452,12.4692662705396 L 50.4641016151378,12.0 L 50.1734133611649,11.5649542839651 L 49.8284271247462,11.1715728752538 L 49.4350457160349,10.8265866388351 L 49.0,10.5358983848622 L 48.5307337294604,10.3044818699549 L 48.0352761804101,10.1362966948437 L 47.5221047688802,10.0342205545048 L 47.0,10.0 L 14.0,10.0 L 13.4778952311198,10.0342205545047 L 12.9647238195899,10.1362966948437 L 12.4692662705396,10.3044818699549 L 12.0,10.5358983848622 L 11.5649542839651,10.8265866388351 L 11.1715728752538,11.1715728752538 L 10.8265866388351,11.5649542839651 L 10.5358983848622,12.0 L 10.3044818699548,12.4692662705396 L 10.1362966948437,12.9647238195899 L 10.0342205545048,13.4778952311198 L 10.0,14.0 L 10.0,70.0 L 10.0342205545048,70.5221047688802 L 10.1362966948437,71.0352761804101 L 10.3044818699548,71.5307337294604 L 10.5358983848622,72.0000000000001 L 10.8265866388351,72.4350457160348 L 11.1715728752538,72.8284271247461 L 11.5649542839651,73.173413361165 L 12.0,73.4641016151377 L 12.4692662705396,73.695518130045 L 12.9647238195899,73.8637033051574 L 13.4778952311198,73.9657794454983 L 14.0,74.0 L 47.0,74.0 M 45.6934624228771,65.5981028606417 L 45.8429104024282,65.6463853217915 L 45.9890317997101,65.703956424812 L 46.1312499403242,65.7705889628612 L 46.2690035542428,65.8460199677529 L 46.4017489908853,65.9299517477721 L 46.5289623646591,66.0220530625277 L 46.6501416224959,66.1219604302075 L 46.7648085252268,66.2292795620746 L 46.872510534973,66.343586918545 L 46.9728226011063,66.4644313807047 L 47.0653488377299,66.5913360306703 L 47.1497240860591,66.7238000337654 L 47.2256153555362,66.8613006150869 L 47.2927231379919,67.0032951226584 L 47.3507825896676,67.1492231690297 L 47.3995645764322,67.2985088428698 L 47.4388765780704,67.4505629818263 L 47.4685634480717,67.6047854976797 L 47.4885080259228,67.7605677446173 L 47.4986315994868,67.9172949212808 L 47.4988942156438,68.0743484971056 L 47.4892948379678,68.2311086533789 L 47.4698713508171,68.3869567293809 L 47.4407004098215,68.5412776639557 L 47.4018971393583,68.6934624228771 L 47.3536146782085,68.8429104024282 L 47.296043575188,68.9890317997101 L 47.2294110371388,69.1312499403242 L 47.1539800322471,69.2690035542428 L 47.0700482522279,69.4017489908853 L 46.9779469374723,69.5289623646591 L 46.8780395697925,69.650141622496 L 46.7707204379254,69.7648085252268 L 46.656413081455,69.872510534973 L 46.5355686192953,69.9728226011062 L 46.4086639693297,70.0653488377299 L 46.2761999662346,70.1497240860591 L 46.1386993849131,70.2256153555362 L 45.9967048773415,70.2927231379919 L 45.8507768309703,70.3507825896676 L 45.7014911571302,70.3995645764322 L 45.5494370181737,70.4388765780704 L 45.3952145023203,70.4685634480717 L 45.2394322553827,70.4885080259228 L 45.0827050787192,70.4986315994868 L 44.9256515028944,70.4988942156438 L 44.7688913466211,70.4892948379678 L 44.6130432706191,70.469871350817 L 44.4587223360443,70.4407004098215 L 44.3065375771229,70.4018971393583 L 44.1570895975718,70.3536146782084 L 44.0109682002899,70.296043575188 L 43.8687500596758,70.2294110371388 L 43.7309964457572,70.1539800322471 L 43.5982510091147,70.0700482522279 L 43.4710376353409,69.9779469374723 L 43.349858377504,69.8780395697925 L 43.2351914747732,69.7707204379254 L 43.127489465027,69.656413081455 L 43.0271773988937,69.5355686192953 L 42.9346511622701,69.4086639693297 L 42.8502759139409,69.2761999662346 L 42.7743846444638,69.1386993849131 L 42.7072768620081,68.9967048773415 L 42.6492174103324,68.8507768309703 L 42.6004354235678,68.7014911571302 L 42.5611234219296,68.5494370181737 L 42.5314365519283,68.3952145023203 L 42.5114919740772,68.2394322553827 L 42.5013684005132,68.0827050787192 L 42.5011057843562,67.9256515028944 L 42.5107051620321,67.7688913466211 L 42.5301286491829,67.6130432706191 L 42.5592995901785,67.4587223360443 L 42.5981028606417,67.3065375771229 L 42.6463853217915,67.1570895975718 L 42.703956424812,67.0109682002899 L 42.7705889628612,66.8687500596758 L 42.8460199677529,66.7309964457572 L 42.9299517477721,66.5982510091146 L 43.0220530625277,66.4710376353409 L 43.1219604302075,66.349858377504 L 43.2292795620746,66.2351914747732 L 43.343586918545,66.127489465027 L 43.4644313807047,66.0271773988937 L 43.5913360306703,65.9346511622701 L 43.7238000337654,65.8502759139409 L 43.8613006150869,65.7743846444638 L 44.0032951226585,65.7072768620081 L 44.1492231690297,65.6492174103324 L 44.2985088428698,65.6004354235678 L 44.4505629818263,65.5611234219296 L 44.6047854976797,65.5314365519283 L 44.7605677446173,65.5114919740772 L 44.9172949212808,65.5013684005132 L 45.0743484971056,65.5011057843562 L 45.2311086533789,65.5107051620321 L 45.3869567293809,65.5301286491829 L 45.5412776639557,65.5592995901785 L 45.6934624228771,65.5981028606417 M 45.8370229176909,13.6442851116359 L 45.9832878058659,13.701490680716 L 46.1256721062926,13.7677674159902 L 46.2636138931864,13.8428537534635 L 46.396568773334,13.9264533616655 L 46.5240120345649,14.0182363111356 L 46.6454407165503,14.117840376504 L 46.7603755957578,14.2248724660294 L 46.8683630767279,14.3389101729527 L 46.9689769822081,14.4595034425437 L 47.0618202350795,14.5861763482609 L 47.1465264254391,14.718428970017 L 47.2227612566522,14.8557393671344 L 47.2902238646683,14.9975656382067 L 47.3486480053943,15.1433480597363 L 47.3978031054382,15.2925112951071 L 47.437495172077,15.4444666651752 L 47.4675675588572,15.5986144715169 L 47.487901583807,15.7543463631639 L 47.4984169978196,15.911047737487 L 47.49907230136,16.0681001657518 L 47.4898649082444,16.2248838337744 L 47.4708311558471,16.3807799880447 L 47.442046161693,16.5351733776641 L 47.4036235270035,16.6874546824593 L 47.3557148883641,16.8370229176909 L 47.298509319284,16.9832878058659 L 47.2322325840098,17.1256721062926 L 47.1571462465365,17.2636138931864 L 47.0735466383345,17.396568773334 L 46.9817636888644,17.5240120345649 L 46.882159623496,17.6454407165503 L 46.7751275339706,17.7603755957578 L 46.6610898270473,17.8683630767279 L 46.5404965574563,17.9689769822081 L 46.4138236517391,18.0618202350795 L 46.2815710299829,18.1465264254391 L 46.1442606328656,18.2227612566522 L 46.0024343617933,18.2902238646683 L 45.8566519402637,18.3486480053943 L 45.7074887048929,18.3978031054382 L 45.5555333348248,18.437495172077 L 45.4013855284831,18.4675675588572 L 45.2456536368361,18.487901583807 L 45.088952262513,18.4984169978196 L 44.9318998342482,18.49907230136 L 44.7751161662256,18.4898649082444 L 44.6192200119553,18.4708311558471 L 44.4648266223359,18.442046161693 L 44.3125453175407,18.4036235270035 L 44.162977082309,18.3557148883641 L 44.0167121941341,18.298509319284 L 43.8743278937074,18.2322325840097 L 43.7363861068136,18.1571462465365 L 43.603431226666,18.0735466383345 L 43.4759879654351,17.9817636888644 L 43.3545592834497,17.882159623496 L 43.2396244042422,17.7751275339706 L 43.1316369232721,17.6610898270473 L 43.0310230177919,17.5404965574563 L 42.9381797649205,17.4138236517391 L 42.8534735745609,17.281571029983 L 42.7772387433478,17.1442606328656 L 42.7097761353317,17.0024343617933 L 42.6513519946057,16.8566519402637 L 42.6021968945618,16.7074887048929 L 42.562504827923,16.5555333348248 L 42.5324324411428,16.4013855284831 L 42.512098416193,16.2456536368361 L 42.5015830021804,16.088952262513 L 42.50092769864,15.9318998342482 L 42.5101350917556,15.7751161662256 L 42.5291688441529,15.6192200119553 L 42.557953838307,15.4648266223359 L 42.5963764729965,15.3125453175407 L 42.6442851116359,15.1629770823091 L 42.701490680716,15.0167121941341 L 42.7677674159902,14.8743278937074 L 42.8428537534635,14.7363861068136 L 42.9264533616655,14.603431226666 L 43.0182363111356,14.4759879654351 L 43.117840376504,14.3545592834497 L 43.2248724660294,14.2396244042422 L 43.3389101729527,14.1316369232721 L 43.4595034425437,14.0310230177919 L 43.5861763482609,13.9381797649205 L 43.718428970017,13.8534735745609 L 43.8557393671344,13.7772387433478 L 43.9975656382067,13.7097761353317 L 44.1433480597363,13.6513519946057 L 44.2925112951071,13.6021968945618 L 44.4444666651752,13.562504827923 L 44.5986144715169,13.5324324411428 L 44.7543463631639,13.512098416193 L 44.911047737487,13.5015830021804 L 45.0681001657518,13.50092769864 L 45.2248838337744,13.5101350917556 L 45.3807799880447,13.5291688441529 L 45.5351733776641,13.557953838307 L 45.6874546824593,13.5963764729965 L 45.8370229176909,13.6442851116359 M 14.5305368692688,13.9774575140626 L 14.6604330125525,13.889180186245 L 14.7956158147457,13.8092332998903 L 14.9355517710873,13.737932368835 L 15.0796886182883,13.6755587852794 L 15.2274575140626,13.6223587092621 L 15.3782752820879,13.5785420971784 L 15.5315467135357,13.5442818731783 L 15.6866669160892,13.5197132467138 L 15.8430237011767,13.5049331789293 L 16.0,13.5 L 16.1569762988233,13.5049331789293 L 16.3133330839108,13.5197132467138 L 16.4684532864643,13.5442818731783 L 16.6217247179121,13.5785420971784 L 16.7725424859374,13.6223587092621 L 16.9203113817117,13.6755587852794 L 17.0644482289127,13.7379323688349 L 17.2043841852543,13.8092332998903 L 17.3395669874475,13.889180186245 L 17.4694631307312,13.9774575140626 L 17.5935599743717,14.0737168930605 L 17.7113677648217,14.1775784314465 L 17.8224215685535,14.2886322351783 L 17.9262831069395,14.4064400256283 L 18.0225424859374,14.5305368692688 L 18.110819813755,14.6604330125525 L 18.1907667001097,14.7956158147457 L 18.262067631165,14.9355517710873 L 18.3244412147206,15.0796886182883 L 18.3776412907379,15.2274575140626 L 18.4214579028216,15.3782752820879 L 18.4557181268217,15.5315467135357 L 18.4802867532862,15.6866669160892 L 18.4950668210707,15.8430237011767 L 18.5,16.0 L 18.4950668210707,16.1569762988233 L 18.4802867532862,16.3133330839107 L 18.4557181268217,16.4684532864643 L 18.4214579028216,16.6217247179121 L 18.3776412907379,16.7725424859374 L 18.3244412147206,16.9203113817117 L 18.262067631165,17.0644482289127 L 18.1907667001097,17.2043841852543 L 18.110819813755,17.3395669874475 L 18.0225424859374,17.4694631307312 L 17.9262831069395,17.5935599743717 L 17.8224215685535,17.7113677648217 L 17.7113677648217,17.8224215685535 L 17.5935599743717,17.9262831069395 L 17.4694631307312,18.0225424859374 L 17.3395669874475,18.110819813755 L 17.2043841852543,18.1907667001097 L 17.0644482289127,18.262067631165 L 16.9203113817117,18.3244412147206 L 16.7725424859374,18.3776412907379 L 16.6217247179121,18.4214579028216 L 16.4684532864643,18.4557181268217 L 16.3133330839108,18.4802867532862 L 16.1569762988233,18.4950668210707 L 16.0,18.5 L 15.8430237011767,18.4950668210707 L 15.6866669160893,18.4802867532862 L 15.5315467135357,18.4557181268217 L 15.3782752820879,18.4214579028216 L 15.2274575140626,18.3776412907379 L 15.0796886182883,18.3244412147206 L 14.9355517710873,18.2620676311651 L 14.7956158147457,18.1907667001097 L 14.6604330125525,18.110819813755 L 14.5305368692688,18.0225424859374 L 14.4064400256283,17.9262831069395 L 14.2886322351783,17.8224215685535 L 14.1775784314465,17.7113677648217 L 14.0737168930605,17.5935599743717 L 13.9774575140626,17.4694631307312 L 13.889180186245,17.3395669874475 L 13.8092332998904,17.2043841852543 L 13.7379323688349,17.0644482289127 L 13.6755587852794,16.9203113817117 L 13.6223587092621,16.7725424859374 L 13.5785420971784,16.6217247179121 L 13.5442818731783,16.4684532864643 L 13.5197132467138,16.3133330839108 L 13.5049331789293,16.1569762988233 L 13.5,16.0 L 13.5049331789293,15.8430237011767 L 13.5197132467138,15.6866669160892 L 13.5442818731783,15.5315467135357 L 13.5785420971784,15.3782752820879 L 13.6223587092621,15.2274575140626 L 13.6755587852794,15.0796886182883 L 13.7379323688349,14.9355517710873 L 13.8092332998904,14.7956158147457 L 13.889180186245,14.6604330125525 L 13.9774575140626,14.5305368692688 L 14.0737168930605,14.4064400256283 L 14.1775784314465,14.2886322351783 L 14.2886322351783,14.1775784314465 L 14.4064400256283,14.0737168930605 L 14.5305368692688,13.9774575140626 M 17.3368503374689,65.8874585979893 L 17.4668599408617,65.9755687431046 L 17.5910805182126,66.0716683935162 L 17.7090218276536,66.1753782878076 L 17.8202184087186,66.2862891304068 L 17.9242314193031,66.4039632068882 L 18.0206503675734,66.5279361114321 L 18.1090947319902,66.6577185796222 L 18.1892154630535,66.7927984193485 L 18.2606963608416,66.9326425321957 L 18.3232553229074,67.0766990173391 L 18.376645457608,67.2243993496449 L 18.4206560584735,67.3751606233794 L 18.4551134357688,67.5283878526716 L 18.4798816019677,67.6834763196501 L 18.4948628084338,67.839813960989 L 18.4999979311894,67.9967837834419 L 18.495266704251,68.1537662988322 L 18.4806877996098,68.3101419688902 L 18.4563187535421,68.4652936502872 L 18.4222557395394,68.6186090302191 L 18.3786331887561,68.7694830429243 L 18.3256232594709,68.9173202576025 L 18.2634351576568,69.0615372283076 L 18.1923143113406,69.2015647965428 L 18.1125414020107,69.3368503374689 L 18.0244312568954,69.4668599408617 L 17.9283316064838,69.5910805182126 L 17.8246217121924,69.7090218276535 L 17.7137108695932,69.8202184087186 L 17.5960367931118,69.9242314193031 L 17.4720638885679,70.0206503675734 L 17.3422814203778,70.1090947319902 L 17.2072015806515,70.1892154630535 L 17.0673574678043,70.2606963608416 L 16.9233009826609,70.3232553229074 L 16.7756006503551,70.376645457608 L 16.6248393766206,70.4206560584735 L 16.4716121473284,70.4551134357688 L 16.3165236803499,70.4798816019677 L 16.160186039011,70.4948628084337 L 16.0032162165581,70.4999979311894 L 15.8462337011678,70.495266704251 L 15.6898580311099,70.4806877996098 L 15.5347063497127,70.456318753542 L 15.3813909697808,70.4222557395394 L 15.2305169570757,70.378633188756 L 15.0826797423975,70.3256232594709 L 14.9384627716924,70.2634351576569 L 14.7984352034572,70.1923143113406 L 14.6631496625311,70.1125414020107 L 14.5331400591383,70.0244312568954 L 14.4089194817875,69.9283316064838 L 14.2909781723465,69.8246217121923 L 14.1797815912814,69.7137108695932 L 14.0757685806969,69.5960367931118 L 13.9793496324266,69.4720638885679 L 13.8909052680098,69.3422814203778 L 13.8107845369465,69.2072015806515 L 13.7393036391584,69.0673574678043 L 13.6767446770926,68.9233009826609 L 13.623354542392,68.7756006503551 L 13.5793439415265,68.6248393766205 L 13.5448865642312,68.4716121473284 L 13.5201183980323,68.3165236803499 L 13.5051371915662,68.160186039011 L 13.5000020688106,68.0032162165581 L 13.504733295749,67.8462337011678 L 13.5193122003902,67.6898580311099 L 13.543681246458,67.5347063497127 L 13.5777442604607,67.3813909697809 L 13.6213668112439,67.2305169570757 L 13.6743767405291,67.0826797423975 L 13.7365648423432,66.9384627716924 L 13.8076856886594,66.7984352034571 L 13.8874585979893,66.6631496625311 L 13.9755687431046,66.5331400591383 L 14.0716683935162,66.4089194817875 L 14.1753782878077,66.2909781723465 L 14.2862891304068,66.1797815912814 L 14.4039632068882,66.0757685806969 L 14.5279361114321,65.9793496324266 L 14.6577185796222,65.8909052680098 L 14.7927984193485,65.8107845369465 L 14.9326425321957,65.7393036391584 L 15.0766990173391,65.6767446770926 L 15.2243993496449,65.623354542392 L 15.3751606233795,65.5793439415265 L 15.5283878526716,65.5448865642312 L 15.6834763196501,65.5201183980323 L 15.839813960989,65.5051371915662 L 15.9967837834419,65.5000020688107 L 16.1537662988322,65.504733295749 L 16.3101419688902,65.5193122003902 L 16.4652936502873,65.5436812464579 L 16.6186090302192,65.5777442604606 L 16.7694830429243,65.6213668112439 L 16.9173202576025,65.6743767405291 L 17.0615372283076,65.7365648423432 L 17.2015647965428,65.8076856886593 L 17.3368503374689,65.8874585979893 "
  />
  <path id="face0-interior"
 style="fill:none;stroke:rgb(0,255,0);stroke-width:0.3;stroke-miterlimit:4;stroke-dasharray:none;stroke-linejoin:round;stroke-linecap:round"
        d="M 47.0,74.0 M 47.5221047688802,73.9657794454952 M 48.0352761804101,73.8637033051563 M 48.5307337294604,73.6955181300451 M 49.0,73.4641016151378 M 49.4350457160349,73.1734133611649 M 49.8284271247462,72.8284271247462 M 50.1734133611649,72.4350457160349 M 50.4641016151378,72.0 M 50.6955181300451,71.5307337294604 M 50.8637033051563,71.0352761804101 M 50.9657794454952,70.5221047688802 M 51.0,70.0 M 51.0,14.0 M 50.9657794454953,13.4778952311198 M 50.8637033051563,12.9647238195899 M 50.6955181300452,12.4692662705396 M 50.4641016151378,12.0 M 50.1734133611649,11.5649542839651 M 49.8284271247462,11.1715728752538 M 49.4350457160349,10.8265866388351 M 49.0,10.5358983848622 M 48.5307337294604,10.3044818699549 M 48.0352761804101,10.1362966948437 M 47.5221047688802,10.0342205545048 M 47.0,10.0 M 14.0,10.0 M 13.4778952311198,10.0342205545047 M 12.9647238195899,10.1362966948437 M 12.4692662705396,10.3044818699549 M 12.0,10.5358983848622 M 11.5649542839651,10.8265866388351 M 11.1715728752538,11.1715728752538 M 10.8265866388351,11.5649542839651 M 10.5358983848622,12.0 M 10.3044818699548,12.4692662705396 M 10.1362966948437,12.9647238195899 M 10.0342205545048,13.4778952311198 M 10.0,14.0 M 10.0,70.0 M 10.0342205545048,70.5221047688802 M 10.1362966948437,71.0352761804101 M 10.3044818699548,71.5307337294604 M 10.5358983848622,72.0000000000001 M 10.8265866388351,72.4350457160348 M 11.1715728752538,72.8284271247461 M 11.5649542839651,73.173413361165 M 12.0,73.4641016151377 M 12.4692662705396,73.695518130045 M 12.9647238195899,73.8637033051574 M 13.4778952311198,73.9657794454983 M 14.0,74.0 M 45.6934624228771,65.5981028606417 M 45.8429104024282,65.6463853217915 M 45.9890317997101,65.703956424812 M 46.1312499403242,65.7705889628612 M 46.2690035542428,65.8460199677529 M 46.4017489908853,65.9299517477721 M 46.5289623646591,66.0220530625277 M 46.6501416224959,66.1219604302075 M 46.7648085252268,66.2292795620746 M 46.872510534973,66.343586918545 M 46.9728226011063,66.4644313807047 M 47.0653488377299,66.5913360306703 M 47.1497240860591,66.7238000337654 M 47.2256153555362,66.8613006150869 M 47.2927231379919,67.0032951226584 M 47.3507825896676,67.1492231690297 M 47.3995645764322,67.2985088428698 M 47.4388765780704,67.4505629818263 M 47.4685634480717,67.6047854976797 M 47.4885080259228,67.7605677446173 M 47.4986315994868,67.9172949212808 M 47.4988942156438,68.0743484971056 M 47.4892948379678,68.2311086533789 M 47.4698713508171,68.3869567293809 M 47.4407004098215,68.5412776639557 M 47.4018971393583,68.6934624228771 M 47.3536146782085,68.8429104024282 M 47.296043575188,68.9890317997101 M 47.2294110371388,69.1312499403242 M 47.1539800322471,69.2690035542428 M 47.0700482522279,69.4017489908853 M 46.9779469374723,69.5289623646591 M 46.8780395697925,69.650141622496 M 46.7707204379254,69.7648085252268 M 46.656413081455,69.872510534973 M 46.5355686192953,69.9728226011062 M 46.4086639693297,70.0653488377299 M 46.2761999662346,70.1497240860591 M 46.1386993849131,70.2256153555362 M 45.9967048773415,70.2927231379919 M 45.8507768309703,70.3507825896676 M 45.7014911571302,70.3995645764322 M 45.5494370181737,70.4388765780704 M 45.3952145023203,70.4685634480717 M 45.2394322553827,70.4885080259228 M 45.0827050787192,70.4986315994868 M 44.9256515028944,70.4988942156438 M 44.7688913466211,70.4892948379678 M 44.6130432706191,70.469871350817 M 44.4587223360443,70.4407004098215 M 44.3065375771229,70.4018971393583 M 44.1570895975718,70.3536146782084 M 44.0109682002899,70.296043575188 M 43.8687500596758,70.2294110371388 M 43.7309964457572,70.1539800322471 M 43.5982510091147,70.0700482522279 M 43.4710376353409,69.9779469374723 M 43.349858377504,69.8780395697925 M 43.2351914747732,69.7707204379254 M 43.127489465027,69.656413081455 M 43.0271773988937,69.5355686192953 M 42.9346511622701,69.4086639693297 M 42.8502759139409,69.2761999662346 M 42.7743846444638,69.1386993849131 M 42.7072768620081,68.9967048773415 M 42.6492174103324,68.8507768309703 M 42.6004354235678,68.7014911571302 M 42.5611234219296,68.5494370181737 M 42.5314365519283,68.3952145023203 M 42.5114919740772,68.2394322553827 M 42.5013684005132,68.0827050787192 M 42.5011057843562,67.9256515028944 M 42.5107051620321,67.7688913466211 M 42.5301286491829,67.6130432706191 M 42.5592995901785,67.4587223360443 M 42.5981028606417,67.3065375771229 M 42.6463853217915,67.1570895975718 M 42.703956424812,67.0109682002899 M 42.7705889628612,66.8687500596758 M 42.8460199677529,66.7309964457572 M 42.9299517477721,66.5982510091146 M 43.0220530625277,66.4710376353409 M 43.1219604302075,66.349858377504 M 43.2292795620746,66.2351914747732 M 43.343586918545,66.127489465027 M 43.4644313807047,66.0271773988937 M 43.5913360306703,65.9346511622701 M 43.7238000337654,65.8502759139409 M 43.8613006150869,65.7743846444638 M 44.0032951226585,65.7072768620081 M 44.1492231690297,65.6492174103324 M 44.2985088428698,65.6004354235678 M 44.4505629818263,65.5611234219296 M 44.6047854976797,65.5314365519283 M 44.7605677446173,65.5114919740772 M 44.9172949212808,65.5013684005132 M 45.0743484971056,65.5011057843562 M 45.2311086533789,65.5107051620321 M 45.3869567293809,65.5301286491829 M 45.5412776639557,65.5592995901785 M 45.8370229176909,13.6442851116359 M 45.9832878058659,13.701490680716 M 46.1256721062926,13.7677674159902 M 46.2636138931864,13.8428537534635 M 46.396568773334,13.9264533616655 M 46.5240120345649,14.0182363111356 M 46.6454407165503,14.117840376504 M 46.7603755957578,14.2248724660294 M 46.8683630767279,14.3389101729527 M 46.9689769822081,14.4595034425437 M 47.0618202350795,14.5861763482609 M 47.1465264254391,14.718428970017 M 47.2227612566522,14.8557393671344 M 47.2902238646683,14.9975656382067 M 47.3486480053943,15.1433480597363 M 47.3978031054382,15.2925112951071 M 47.437495172077,15.4444666651752 M 47.4675675588572,15.5986144715169 M 47.487901583807,15.7543463631639 M 47.4984169978196,15.911047737487 M 47.49907230136,16.0681001657518 M 47.4898649082444,16.2248838337744 M 47.4708311558471,16.3807799880447 M 47.442046161693,16.5351733776641 M 47.4036235270035,16.6874546824593 M 47.3557148883641,16.8370229176909 M 47.298509319284,16.9832878058659 M 47.2322325840098,17.1256721062926 M 47.1571462465365,17.2636138931864 M 47.0735466383345,17.396568773334 M 46.9817636888644,17.5240120345649 M 46.882159623496,17.6454407165503 M 46.7751275339706,17.7603755957578 M 46.6610898270473,17.8683630767279 M 46.5404965574563,17.9689769822081 M 46.4138236517391,18.0618202350795 M 46.2815710299829,18.1465264254391 M 46.1442606328656,18.2227612566522 M 46.0024343617933,18.2902238646683 M 45.8566519402637,18.3486480053943 M 45.7074887048929,18.3978031054382 M 45.5555333348248,18.437495172077 M 45.4013855284831,18.4675675588572 M 45.2456536368361,18.487901583807 M 45.088952262513,18.4984169978196 M 44.9318998342482,18.49907230136 M 44.7751161662256,18.4898649082444 M 44.6192200119553,18.4708311558471 M 44.4648266223359,18.442046161693 M 44.3125453175407,18.4036235270035 M 44.162977082309,18.3557148883641 M 44.0167121941341,18.298509319284 M 43.8743278937074,18.2322325840097 M 43.7363861068136,18.1571462465365 M 43.603431226666,18.0735466383345 M 43.4759879654351,17.9817636888644 M 43.3545592834497,17.882159623496 M 43.2396244042422,17.7751275339706 M 43.1316369232721,17.6610898270473 M 43.0310230177919,17.5404965574563 M 42.9381797649205,17.4138236517391 M 42.8534735745609,17.281571029983 M 42.7772387433478,17.1442606328656 M 42.7097761353317,17.0024343617933 M 42.6513519946057,16.8566519402637 M 42.6021968945618,16.7074887048929 M 42.562504827923,16.5555333348248 M 42.5324324411428,16.4013855284831 M 42.512098416193,16.2456536368361 M 42.5015830021804,16.088952262513 M 42.50092769864,15.9318998342482 M 42.5101350917556,15.7751161662256 M 42.5291688441529,15.6192200119553 M 42.557953838307,15.4648266223359 M 42.5963764729965,15.3125453175407 M 42.6442851116359,15.1629770823091 M 42.701490680716,15.0167121941341 M 42.7677674159902,14.8743278937074 M 42.8428537534635,14.7363861068136 M 42.9264533616655,14.603431226666 M 43.0182363111356,14.4759879654351 M 43.117840376504,14.3545592834497 M 43.2248724660294,14.2396244042422 M 43.3389101729527,14.1316369232721 M 43.4595034425437,14.0310230177919 M 43.5861763482609,13.9381797649205 M 43.718428970017,13.8534735745609 M 43.8557393671344,13.7772387433478 M 43.9975656382067,13.7097761353317 M 44.1433480597363,13.6513519946057 M 44.2925112951071,13.6021968945618 M 44.4444666651752,13.562504827923 M 44.5986144715169,13.5324324411428 M 44.7543463631639,13.512098416193 M 44.911047737487,13.5015830021804 M 45.0681001657518,13.50092769864 M 45.2248838337744,13.5101350917556 M 45.3807799880447,13.5291688441529 M 45.5351733776641,13.557953838307 M 45.6874546824593,13.5963764729965 M 14.5305368692688,13.9774575140626 M 14.6604330125525,13.889180186245 M 14.7956158147457,13.8092332998903 M 14.9355517710873,13.737932368835 M 15.0796886182883,13.6755587852794 M 15.2274575140626,13.6223587092621 M 15.3782752820879,13.5785420971784 M 15.5315467135357,13.5442818731783 M 15.6866669160892,13.5197132467138 M 15.8430237011767,13.5049331789293 M 16.0,13.5 M 16.1569762988233,13.5049331789293 M 16.3133330839108,13.5197132467138 M 16.4684532864643,13.5442818731783 M 16.6217247179121,13.5785420971784 M 16.7725424859374,13.6223587092621 M 16.9203113817117,13.6755587852794 M 17.0644482289127,13.7379323688349 M 17.2043841852543,13.8092332998903 M 17.3395669874475,13.889180186245 M 17.4694631307312,13.9774575140626 M 17.5935599743717,14.0737168930605 M 17.7113677648217,14.1775784314465 M 17.8224215685535,14.2886322351783 M 17.9262831069395,14.4064400256283 M 18.0225424859374,14.5305368692688 M 18.110819813755,14.6604330125525 M 18.1907667001097,14.7956158147457 M 18.262067631165,14.9355517710873 M 18.3244412147206,15.0796886182883 M 18.3776412907379,15.2274575140626 M 18.4214579028216,15.3782752820879 M 18.4557181268217,15.5315467135357 M 18.4802867532862,15.6866669160892 M 18.4950668210707,15.8430237011767 M 18.5,16.0 M 18.4950668210707,16.1569762988233 M 18.4802867532862,16.3133330839107 M 18.4557181268217,16.4684532864643 M 18.4214579028216,16.6217247179121 M 18.3776412907379,16.7725424859374 M 18.3244412147206,16.9203113817117 M 18.262067631165,17.0644482289127 M 18.1907667001097,17.2043841852543 M 18.110819813755,17.3395669874475 M 18.0225424859374,17.4694631307312 M 17.9262831069395,17.5935599743717 M 17.8224215685535,17.7113677648217 M 17.7113677648217,17.8224215685535 M 17.5935599743717,17.9262831069395 M 17.4694631307312,18.0225424859374 M 17.3395669874475,18.110819813755 M 17.2043841852543,18.1907667001097 M 17.0644482289127,18.262067631165 M 16.9203113817117,18.3244412147206 M 16.7725424859374,18.3776412907379 M 16.6217247179121,18.4214579028216 M 16.4684532864643,18.4557181268217 M 16.3133330839108,18.4802867532862 M 16.1569762988233,18.4950668210707 M 16.0,18.5 M 15.8430237011767,18.4950668210707 M 15.6866669160893,18.4802867532862 M 15.5315467135357,18.4557181268217 M 15.3782752820879,18.4214579028216 M 15.2274575140626,18.3776412907379 M 15.0796886182883,18.3244412147206 M 14.9355517710873,18.2620676311651 M 14.7956158147457,18.1907667001097 M 14.6604330125525,18.110819813755 M 14.5305368692688,18.0225424859374 M 14.4064400256283,17.9262831069395 M 14.2886322351783,17.8224215685535 M 14.1775784314465,17.7113677648217 M 14.0737168930605,17.5935599743717 M 13.9774575140626,17.4694631307312 M 13.889180186245,17.3395669874475 M 13.8092332998904,17.2043841852543 M 13.7379323688349,17.0644482289127 M 13.6755587852794,16.9203113817117 M 13.6223587092621,16.7725424859374 M 13.5785420971784,16.6217247179121 M 13.5442818731783,16.4684532864643 M 13.5197132467138,16.3133330839108 M 13.5049331789293,16.1569762988233 M 13.5,16.0 M 13.5049331789293,15.8430237011767 M 13.5197132467138,15.6866669160892 M 13.5442818731783,15.5315467135357 M 13.5785420971784,15.3782752820879 M 13.6223587092621,15.2274575140626 M 13.6755587852794,15.0796886182883 M 13.7379323688349,14.9355517710873 M 13.8092332998904,14.7956158147457 M 13.889180186245,14.6604330125525 M 13.9774575140626,14.5305368692688 M 14.0737168930605,14.4064400256283 M 14.1775784314465,14.2886322351783 M 14.2886322351783,14.1775784314465 M 14.4064400256283,14.0737168930605 M 17.3368503374689,65.8874585979893 M 17.4668599408617,65.9755687431046 M 17.5910805182126,66.0716683935162 M 17.7090218276536,66.1753782878076 M 17.8202184087186,66.2862891304068 M 17.9242314193031,66.4039632068882 M 18.0206503675734,66.5279361114321 M 18.1090947319902,66.6577185796222 M 18.1892154630535,66.7927984193485 M 18.2606963608416,66.9326425321957 M 18.3232553229074,67.0766990173391 M 18.376645457608,67.2243993496449 M 18.4206560584735,67.3751606233794 M 18.4551134357688,67.5283878526716 M 18.4798816019677,67.6834763196501 M 18.4948628084338,67.839813960989 M 18.4999979311894,67.9967837834419 M 18.495266704251,68.1537662988322 M 18.4806877996098,68.3101419688902 M 18.4563187535421,68.4652936502872 M 18.4222557395394,68.6186090302191 M 18.3786331887561,68.7694830429243 M 18.3256232594709,68.9173202576025 M 18.2634351576568,69.0615372283076 M 18.1923143113406,69.2015647965428 M 18.1125414020107,69.3368503374689 M 18.0244312568954,69.4668599408617 M 17.9283316064838,69.5910805182126 M 17.8246217121924,69.7090218276535 M 17.7137108695932,69.8202184087186 M 17.5960367931118,69.9242314193031 M 17.4720638885679,70.0206503675734 M 17.3422814203778,70.1090947319902 M 17.2072015806515,70.1892154630535 M 17.0673574678043,70.2606963608416 M 16.9233009826609,70.3232553229074 M 16.7756006503551,70.376645457608 M 16.6248393766206,70.4206560584735 M 16.4716121473284,70.4551134357688 M 16.3165236803499,70.4798816019677 M 16.160186039011,70.4948628084337 M 16.0032162165581,70.4999979311894 M 15.8462337011678,70.495266704251 M 15.6898580311099,70.4806877996098 M 15.5347063497127,70.456318753542 M 15.3813909697808,70.4222557395394 M 15.2305169570757,70.378633188756 M 15.0826797423975,70.3256232594709 M 14.9384627716924,70.2634351576569 M 14.7984352034572,70.1923143113406 M 14.6631496625311,70.1125414020107 M 14.5331400591383,70.0244312568954 M 14.4089194817875,69.9283316064838 M 14.2909781723465,69.8246217121923 M 14.1797815912814,69.7137108695932 M 14.0757685806969,69.5960367931118 M 13.9793496324266,69.4720638885679 M 13.8909052680098,69.3422814203778 M 13.8107845369465,69.2072015806515 M 13.7393036391584,69.0673574678043 M 13.6767446770926,68.9233009826609 M 13.623354542392,68.7756006503551 M 13.5793439415265,68.6248393766205 M 13.5448865642312,68.4716121473284 M 13.5201183980323,68.3165236803499 M 13.5051371915662,68.160186039011 M 13.5000020688106,68.0032162165581 M 13.504733295749,67.8462337011678 M 13.5193122003902,67.6898580311099 M 13.543681246458,67.5347063497127 M 13.5777442604607,67.3813909697809 M 13.6213668112439,67.2305169570757 M 13.6743767405291,67.0826797423975 M 13.7365648423432,66.9384627716924 M 13.8076856886594,66.7984352034571 M 13.8874585979893,66.6631496625311 M 13.9755687431046,66.5331400591383 M 14.0716683935162,66.4089194817875 M 14.1753782878077,66.2909781723465 M 14.2862891304068,66.1797815912814 M 14.4039632068882,66.0757685806969 M 14.5279361114321,65.9793496324266 M 14.6577185796222,65.8909052680098 M 14.7927984193485,65.8107845369465 M 14.9326425321957,65.7393036391584 M 15.0766990173391,65.6767446770926 M 15.2243993496449,65.623354542392 M 15.3751606233795,65.5793439415265 M 15.5283878526716,65.5448865642312 M 15.6834763196501,65.5201183980323 M 15.839813960989,65.5051371915662 M 15.9967837834419,65.5000020688107 M 16.1537662988322,65.504733295749 M 16.3101419688902,65.5193122003902 M 16.4652936502873,65.5436812464579 M 16.6186090302192,65.5777442604606 M 16.7694830429243,65.6213668112439 M 16.9173202576025,65.6743767405291 M 17.0615372283076,65.7365648423432 M 17.2015647965428,65.8076856886593 "
  />
</svg>
