G75*
G70*
%OFA0B0*%
%FSLAX24Y24*%
%IPPOS*%
%LPD*%
%AMOC8*
5,1,8,0,0,1.08239X$1,22.5*
%
%ADD10C,0.0000*%
%ADD11C,0.0060*%
%ADD12C,0.0030*%
%ADD13C,0.0050*%
%ADD14R,0.0250X0.1000*%
%ADD15R,0.0250X0.0350*%
%ADD16C,0.0040*%
%ADD17C,0.0080*%
%ADD18C,0.0118*%
D10*
X000163Y000100D02*
X000163Y011096D01*
X013533Y011096D01*
X013533Y000100D01*
X000163Y000100D01*
D11*
X005839Y003571D02*
X005839Y003891D01*
X006059Y003891D01*
X006739Y003891D02*
X006959Y003891D01*
X006959Y003571D01*
X011474Y002372D02*
X011474Y002172D01*
X011474Y002372D02*
X011674Y002372D01*
X012274Y002372D02*
X012474Y002372D01*
X012474Y002172D01*
X012474Y001572D02*
X012474Y001372D01*
X012274Y001372D01*
X011674Y001372D02*
X011474Y001372D01*
X011474Y001572D01*
X011474Y006687D02*
X011674Y006687D01*
X011474Y006687D02*
X011474Y006887D01*
X011474Y007487D02*
X011474Y007687D01*
X011674Y007687D01*
X012274Y007687D02*
X012474Y007687D01*
X012474Y007487D01*
X012474Y006887D02*
X012474Y006687D01*
X012274Y006687D01*
X012274Y009049D02*
X012474Y009049D01*
X012474Y009249D01*
X012474Y009849D02*
X012474Y010049D01*
X012274Y010049D01*
X011674Y010049D02*
X011474Y010049D01*
X011474Y009849D01*
X011474Y009249D02*
X011474Y009049D01*
X011674Y009049D01*
X009324Y009049D02*
X009324Y009249D01*
X009324Y009049D02*
X009124Y009049D01*
X008524Y009049D02*
X008324Y009049D01*
X008324Y009249D01*
X008324Y009849D02*
X008324Y010049D01*
X008524Y010049D01*
X009124Y010049D02*
X009324Y010049D01*
X009324Y009849D01*
X007600Y010549D02*
X007600Y008549D01*
X000600Y008549D01*
X000600Y010549D01*
X007600Y010549D01*
D12*
X008343Y008267D02*
X008528Y008267D01*
X008589Y008205D01*
X008589Y008082D01*
X008528Y008020D01*
X008343Y008020D01*
X008466Y008020D02*
X008589Y007897D01*
X008711Y007897D02*
X008958Y007897D01*
X008834Y007897D02*
X008834Y008267D01*
X008711Y008144D01*
X008343Y008267D02*
X008343Y007897D01*
X009417Y007061D02*
X009417Y006938D01*
X009479Y006876D01*
X009479Y006755D02*
X009602Y006755D01*
X009664Y006693D01*
X009664Y006508D01*
X009664Y006631D02*
X009787Y006755D01*
X009787Y006876D02*
X009540Y007123D01*
X009479Y007123D01*
X009417Y007061D01*
X009787Y007123D02*
X009787Y006876D01*
X009479Y006755D02*
X009417Y006693D01*
X009417Y006508D01*
X009787Y006508D01*
X009602Y005745D02*
X009602Y005498D01*
X009417Y005683D01*
X009787Y005683D01*
X009787Y005377D02*
X009664Y005253D01*
X009664Y005315D02*
X009664Y005130D01*
X009787Y005130D02*
X009417Y005130D01*
X009417Y005315D01*
X009479Y005377D01*
X009602Y005377D01*
X009664Y005315D01*
X009098Y005315D02*
X009098Y005192D01*
X009037Y005130D01*
X008790Y005130D01*
X008728Y005192D01*
X008728Y005315D01*
X008790Y005377D01*
X008728Y005498D02*
X008913Y005498D01*
X008852Y005622D01*
X008852Y005683D01*
X008913Y005745D01*
X009037Y005745D01*
X009098Y005683D01*
X009098Y005560D01*
X009037Y005498D01*
X009037Y005377D02*
X009098Y005315D01*
X008728Y005498D02*
X008728Y005745D01*
X007286Y004940D02*
X007039Y004940D01*
X007039Y004755D01*
X007163Y004817D01*
X007225Y004817D01*
X007286Y004755D01*
X007286Y004631D01*
X007225Y004570D01*
X007101Y004570D01*
X007039Y004631D01*
X006918Y004570D02*
X006671Y004570D01*
X006918Y004817D01*
X006918Y004878D01*
X006856Y004940D01*
X006733Y004940D01*
X006671Y004878D01*
X006550Y004878D02*
X006303Y004631D01*
X006365Y004570D01*
X006488Y004570D01*
X006550Y004631D01*
X006550Y004878D01*
X006488Y004940D01*
X006365Y004940D01*
X006303Y004878D01*
X006303Y004631D01*
X006181Y004631D02*
X006181Y004693D01*
X006120Y004755D01*
X005935Y004755D01*
X005935Y004631D01*
X005996Y004570D01*
X006120Y004570D01*
X006181Y004631D01*
X006058Y004878D02*
X005935Y004755D01*
X006058Y004878D02*
X006181Y004940D01*
X005813Y004940D02*
X005813Y004570D01*
X005566Y004570D02*
X005566Y004940D01*
X005690Y004817D01*
X005813Y004940D01*
X005445Y004878D02*
X005383Y004940D01*
X005260Y004940D01*
X005198Y004878D01*
X005198Y004817D01*
X005260Y004755D01*
X005383Y004755D01*
X005445Y004693D01*
X005445Y004631D01*
X005383Y004570D01*
X005260Y004570D01*
X005198Y004631D01*
X004953Y004570D02*
X004953Y004940D01*
X004830Y004940D02*
X005076Y004940D01*
X004916Y004106D02*
X004792Y004106D01*
X004731Y004044D01*
X004609Y004044D02*
X004547Y004106D01*
X004424Y004106D01*
X004362Y004044D01*
X004362Y003797D01*
X004424Y003735D01*
X004547Y003735D01*
X004609Y003797D01*
X004731Y003797D02*
X004792Y003735D01*
X004916Y003735D01*
X004977Y003797D01*
X004977Y003859D01*
X004916Y003921D01*
X004854Y003921D01*
X004916Y003921D02*
X004977Y003982D01*
X004977Y004044D01*
X004916Y004106D01*
X004849Y005863D02*
X004849Y006233D01*
X004972Y006233D02*
X004725Y006233D01*
X005094Y006172D02*
X005094Y006110D01*
X005155Y006048D01*
X005279Y006048D01*
X005340Y005986D01*
X005340Y005925D01*
X005279Y005863D01*
X005155Y005863D01*
X005094Y005925D01*
X005094Y006172D02*
X005155Y006233D01*
X005279Y006233D01*
X005340Y006172D01*
X005462Y006110D02*
X005585Y006233D01*
X005585Y005863D01*
X005462Y005863D02*
X005709Y005863D01*
X005830Y005925D02*
X006077Y006172D01*
X006077Y005925D01*
X006015Y005863D01*
X005892Y005863D01*
X005830Y005925D01*
X005830Y006172D01*
X005892Y006233D01*
X006015Y006233D01*
X006077Y006172D01*
X006198Y006172D02*
X006260Y006233D01*
X006384Y006233D01*
X006445Y006172D01*
X006198Y005925D01*
X006260Y005863D01*
X006384Y005863D01*
X006445Y005925D01*
X006445Y006172D01*
X006567Y006110D02*
X006690Y006233D01*
X006690Y005863D01*
X006567Y005863D02*
X006814Y005863D01*
X006198Y005925D02*
X006198Y006172D01*
X006202Y007314D02*
X005955Y007314D01*
X006202Y007561D01*
X006202Y007623D01*
X006140Y007685D01*
X006017Y007685D01*
X005955Y007623D01*
X005834Y007623D02*
X005772Y007685D01*
X005648Y007685D01*
X005587Y007623D01*
X005587Y007376D01*
X005648Y007314D01*
X005772Y007314D01*
X005834Y007376D01*
X008055Y003827D02*
X007993Y003765D01*
X007993Y003518D01*
X008055Y003457D01*
X008178Y003457D01*
X008240Y003518D01*
X008362Y003642D02*
X008609Y003642D01*
X008547Y003827D02*
X008362Y003642D01*
X008240Y003765D02*
X008178Y003827D01*
X008055Y003827D01*
X008547Y003827D02*
X008547Y003457D01*
X011208Y005190D02*
X011208Y005375D01*
X011269Y005437D01*
X011393Y005437D01*
X011454Y005375D01*
X011454Y005190D01*
X011454Y005314D02*
X011578Y005437D01*
X011516Y005558D02*
X011578Y005620D01*
X011578Y005744D01*
X011516Y005805D01*
X011393Y005805D01*
X011331Y005744D01*
X011331Y005682D01*
X011393Y005558D01*
X011208Y005558D01*
X011208Y005805D01*
X011208Y006371D02*
X011208Y006556D01*
X011269Y006618D01*
X011393Y006618D01*
X011454Y006556D01*
X011454Y006371D01*
X011454Y006495D02*
X011578Y006618D01*
X011516Y006740D02*
X011578Y006801D01*
X011578Y006925D01*
X011516Y006986D01*
X011454Y006986D01*
X011393Y006925D01*
X011393Y006863D01*
X011393Y006925D02*
X011331Y006986D01*
X011269Y006986D01*
X011208Y006925D01*
X011208Y006801D01*
X011269Y006740D01*
X011208Y006371D02*
X011578Y006371D01*
X010679Y007509D02*
X010433Y007509D01*
X010556Y007509D02*
X010556Y007880D01*
X010433Y007756D01*
X010311Y007880D02*
X010064Y007880D01*
X010188Y007880D02*
X010188Y007509D01*
X011208Y005190D02*
X011578Y005190D01*
D13*
X012599Y005250D02*
X012599Y004949D01*
X013049Y004949D01*
X013049Y005250D01*
X013049Y005410D02*
X012749Y005410D01*
X012599Y005560D01*
X012749Y005710D01*
X013049Y005710D01*
X012974Y005870D02*
X013049Y005945D01*
X013049Y006095D01*
X012974Y006170D01*
X012899Y006170D01*
X012824Y006095D01*
X012824Y005945D01*
X012749Y005870D01*
X012674Y005870D01*
X012599Y005945D01*
X012599Y006095D01*
X012674Y006170D01*
X012599Y006330D02*
X012974Y006330D01*
X013049Y006405D01*
X013049Y006556D01*
X012974Y006631D01*
X012599Y006631D01*
X012599Y006791D02*
X012599Y007016D01*
X012674Y007091D01*
X012824Y007091D01*
X012899Y007016D01*
X012899Y006791D01*
X013049Y006791D02*
X012599Y006791D01*
X012899Y006941D02*
X013049Y007091D01*
X013049Y007251D02*
X013049Y007551D01*
X012824Y007401D02*
X012824Y007251D01*
X012599Y007251D02*
X013049Y007251D01*
X012599Y007251D02*
X012599Y007551D01*
X012824Y005710D02*
X012824Y005410D01*
X012824Y005099D02*
X012824Y004949D01*
X012599Y004789D02*
X013049Y004789D01*
X012749Y004639D02*
X012599Y004789D01*
X012749Y004639D02*
X012599Y004489D01*
X013049Y004489D01*
X012974Y002237D02*
X012674Y002237D01*
X012599Y002161D01*
X012599Y001936D01*
X013049Y001936D01*
X013049Y002161D01*
X012974Y002237D01*
X013049Y001776D02*
X012599Y001776D01*
X012599Y001476D02*
X013049Y001776D01*
X013049Y001476D02*
X012599Y001476D01*
X012674Y001316D02*
X012599Y001241D01*
X012599Y001091D01*
X012674Y001015D01*
X012974Y001015D01*
X013049Y001091D01*
X013049Y001241D01*
X012974Y001316D01*
X012824Y001316D01*
X012824Y001166D01*
X011799Y010174D02*
X011499Y010174D01*
X011499Y010624D01*
X011959Y010399D02*
X012260Y010399D01*
X009110Y010399D02*
X008810Y010399D01*
X008960Y010549D02*
X008960Y010249D01*
X008650Y010174D02*
X008349Y010174D01*
X008349Y010624D01*
X002041Y007399D02*
X002041Y006399D01*
X001041Y006399D01*
X001041Y007399D01*
X002041Y007399D01*
X002041Y006399D02*
X002041Y005399D01*
X001041Y005399D01*
X001041Y006399D01*
X000927Y005082D02*
X001927Y005082D01*
X001927Y004582D01*
X000927Y004582D01*
X000927Y005082D01*
X001114Y004895D02*
X001239Y004895D01*
X001239Y004782D01*
X001114Y004782D01*
X001114Y004882D01*
X001239Y004882D01*
X001239Y004832D01*
X001114Y004832D01*
X001114Y004882D01*
X001114Y004895D01*
X001114Y004832D02*
X001114Y004782D01*
X001114Y004770D01*
X001239Y004770D01*
X001239Y004782D01*
X001239Y004832D01*
X001239Y004882D02*
X001239Y004895D01*
X001614Y004895D02*
X001739Y004895D01*
X001739Y004882D01*
X001739Y004782D01*
X001614Y004782D01*
X001614Y004832D01*
X001739Y004832D01*
X001739Y004782D01*
X001739Y004770D01*
X001614Y004770D01*
X001614Y004882D01*
X001739Y004882D01*
X001739Y004832D01*
X001614Y004832D02*
X001614Y004882D01*
X001614Y004895D01*
X001614Y004782D02*
X001614Y004770D01*
X001927Y004332D02*
X001927Y003832D01*
X000927Y003832D01*
X000927Y004332D01*
X001927Y004332D01*
X001802Y004207D02*
X001802Y003957D01*
X001052Y003957D01*
X001052Y004207D01*
X001802Y004207D01*
X001552Y004207D02*
X001552Y003982D01*
X001302Y003982D01*
X001302Y004182D01*
X001552Y004182D01*
X001552Y004132D01*
X001302Y004132D01*
X001302Y004182D01*
X001302Y004207D01*
X001552Y004207D01*
X001552Y004182D01*
X001552Y004132D02*
X001552Y004082D01*
X001302Y004082D01*
X001302Y004132D01*
X001302Y004082D02*
X001302Y004032D01*
X001552Y004032D01*
X001552Y003982D01*
X001552Y003957D01*
X001302Y003957D01*
X001302Y003982D01*
X001302Y004032D01*
X001552Y004032D02*
X001552Y004082D01*
D14*
X000475Y009549D03*
D15*
X000225Y009874D03*
X000225Y009224D03*
D16*
X002521Y006187D02*
X002521Y005880D01*
X002521Y006033D02*
X002061Y006033D01*
X002214Y005880D01*
X002061Y005726D02*
X002061Y005573D01*
X002061Y005649D02*
X002444Y005649D01*
X002521Y005573D01*
X002521Y005496D01*
X002444Y005419D01*
X002524Y004909D02*
X002447Y004832D01*
X002447Y004679D01*
X002524Y004602D01*
X002677Y004602D01*
X002754Y004679D01*
X002754Y004832D01*
X002677Y004909D01*
X002524Y004909D01*
X002907Y004832D02*
X003061Y004832D01*
X003214Y004832D02*
X003368Y004832D01*
X003291Y004986D02*
X003368Y005063D01*
X003291Y004986D02*
X003291Y004602D01*
X002984Y004602D02*
X002984Y004986D01*
X003061Y005063D01*
X003137Y004159D02*
X002907Y004159D01*
X002907Y003852D01*
X002754Y003929D02*
X002754Y004082D01*
X002677Y004159D01*
X002524Y004159D01*
X002447Y004082D01*
X002447Y003929D01*
X002524Y003852D01*
X002677Y003852D01*
X002754Y003929D01*
X003137Y004159D02*
X003214Y004082D01*
X003214Y003852D01*
X007004Y008063D02*
X007004Y008423D01*
X007184Y008423D01*
X007244Y008363D01*
X007244Y008243D01*
X007184Y008183D01*
X007004Y008183D01*
X007124Y008183D02*
X007244Y008063D01*
X007372Y008063D02*
X007372Y008123D01*
X007612Y008363D01*
X007612Y008423D01*
X007372Y008423D01*
D17*
X007683Y006202D02*
X007683Y005809D01*
X006817Y005809D02*
X006817Y006202D01*
D18*
X006994Y005927D03*
M02*
