G75*
G70*
%OFA0B0*%
%FSLAX24Y24*%
%IPPOS*%
%LPD*%
%AMOC8*
5,1,8,0,0,1.08239X$1,22.5*
%
%ADD10R,0.0640X0.0640*%
%ADD11OC8,0.0640*%
%ADD12C,0.2100*%
%ADD13C,0.0640*%
%ADD14C,0.0120*%
%ADD15C,0.0400*%
%ADD16C,0.0160*%
D10*
X015474Y007697D03*
X029974Y007697D03*
X033474Y014447D03*
X027974Y017197D03*
D11*
X028974Y017197D03*
X029974Y017197D03*
X030974Y017197D03*
X031974Y017197D03*
X033474Y013447D03*
X033474Y012447D03*
X033474Y011447D03*
X033474Y010447D03*
D12*
X034349Y007947D03*
X034349Y016947D03*
X001974Y016947D03*
X001974Y007947D03*
D13*
X011474Y007697D03*
X012474Y007697D03*
X013474Y007697D03*
X014474Y007697D03*
D14*
X000634Y006607D02*
X000634Y018283D01*
X035684Y018283D01*
X035684Y006607D01*
X000634Y006607D01*
X000634Y006648D02*
X035684Y006648D01*
X035684Y006766D02*
X034613Y006766D01*
X034552Y006752D02*
X034684Y006782D01*
X034812Y006827D01*
X034935Y006886D01*
X035050Y006959D01*
X035156Y007043D01*
X035252Y007139D01*
X035337Y007246D01*
X035409Y007361D01*
X035468Y007483D01*
X035513Y007611D01*
X035543Y007744D01*
X035559Y007879D01*
X035559Y007887D01*
X034409Y007887D01*
X034409Y008007D01*
X035559Y008007D01*
X035559Y008015D01*
X035543Y008150D01*
X035513Y008282D01*
X035468Y008411D01*
X035409Y008533D01*
X035337Y008648D01*
X035252Y008754D01*
X035156Y008851D01*
X035050Y008935D01*
X034935Y009008D01*
X034812Y009067D01*
X034684Y009111D01*
X034552Y009142D01*
X034417Y009157D01*
X034409Y009157D01*
X034409Y008007D01*
X034289Y008007D01*
X034289Y009157D01*
X034281Y009157D01*
X034146Y009142D01*
X034013Y009111D01*
X033885Y009067D01*
X033762Y009008D01*
X033647Y008935D01*
X033541Y008851D01*
X033445Y008754D01*
X033360Y008648D01*
X033288Y008533D01*
X033229Y008411D01*
X033184Y008282D01*
X033154Y008150D01*
X033139Y008015D01*
X033139Y008007D01*
X034289Y008007D01*
X034289Y007887D01*
X034409Y007887D01*
X034409Y006737D01*
X034417Y006737D01*
X034552Y006752D01*
X034409Y006766D02*
X034289Y006766D01*
X034289Y006737D02*
X034289Y007887D01*
X033139Y007887D01*
X033139Y007879D01*
X033154Y007744D01*
X033184Y007611D01*
X033229Y007483D01*
X033288Y007361D01*
X033360Y007246D01*
X033445Y007139D01*
X033541Y007043D01*
X033647Y006959D01*
X033762Y006886D01*
X033885Y006827D01*
X034013Y006782D01*
X034146Y006752D01*
X034281Y006737D01*
X034289Y006737D01*
X034289Y006885D02*
X034409Y006885D01*
X034409Y007003D02*
X034289Y007003D01*
X034289Y007122D02*
X034409Y007122D01*
X034409Y007240D02*
X034289Y007240D01*
X034289Y007359D02*
X034409Y007359D01*
X034409Y007477D02*
X034289Y007477D01*
X034289Y007596D02*
X034409Y007596D01*
X034409Y007714D02*
X034289Y007714D01*
X034289Y007833D02*
X034409Y007833D01*
X034409Y007952D02*
X035684Y007952D01*
X035684Y008070D02*
X035552Y008070D01*
X035535Y008189D02*
X035684Y008189D01*
X035684Y008307D02*
X035505Y008307D01*
X035461Y008426D02*
X035684Y008426D01*
X035684Y008544D02*
X035402Y008544D01*
X035325Y008663D02*
X035684Y008663D01*
X035684Y008781D02*
X035225Y008781D01*
X035094Y008900D02*
X035684Y008900D01*
X035684Y009018D02*
X034912Y009018D01*
X034572Y009137D02*
X035684Y009137D01*
X035684Y009256D02*
X030174Y009256D01*
X030174Y009374D02*
X035684Y009374D01*
X035684Y009493D02*
X030174Y009493D01*
X030174Y009611D02*
X035684Y009611D01*
X035684Y009730D02*
X030174Y009730D01*
X030174Y009848D02*
X035684Y009848D01*
X035684Y009967D02*
X030174Y009967D01*
X030174Y010085D02*
X033156Y010085D01*
X033038Y010204D02*
X030174Y010204D01*
X030174Y010322D02*
X032994Y010322D01*
X032994Y010248D02*
X032994Y010407D01*
X033433Y010407D01*
X033433Y010487D01*
X032994Y010487D01*
X032994Y010646D01*
X033275Y010927D01*
X033434Y010927D01*
X033434Y010487D01*
X033514Y010487D01*
X033954Y010487D01*
X033954Y010646D01*
X033672Y010927D01*
X033514Y010927D01*
X033514Y010487D01*
X033514Y010407D01*
X033954Y010407D01*
X033954Y010248D01*
X033672Y009967D01*
X033514Y009967D01*
X033514Y010407D01*
X033434Y010407D01*
X033434Y009967D01*
X033275Y009967D01*
X032994Y010248D01*
X033434Y010204D02*
X033514Y010204D01*
X033514Y010322D02*
X033434Y010322D01*
X033433Y010441D02*
X030174Y010441D01*
X030174Y010560D02*
X032994Y010560D01*
X033026Y010678D02*
X030174Y010678D01*
X030174Y010797D02*
X033145Y010797D01*
X033263Y010915D02*
X030174Y010915D01*
X030174Y011034D02*
X033236Y011034D01*
X033283Y010987D02*
X033014Y011256D01*
X033014Y011637D01*
X033283Y011907D01*
X033664Y011907D01*
X033934Y011637D01*
X033934Y011256D01*
X033664Y010987D01*
X033283Y010987D01*
X033434Y010915D02*
X033514Y010915D01*
X033514Y010797D02*
X033434Y010797D01*
X033434Y010678D02*
X033514Y010678D01*
X033514Y010560D02*
X033434Y010560D01*
X033514Y010441D02*
X035684Y010441D01*
X035684Y010322D02*
X033954Y010322D01*
X033909Y010204D02*
X035684Y010204D01*
X035684Y010085D02*
X033791Y010085D01*
X033514Y010085D02*
X033434Y010085D01*
X033954Y010560D02*
X035684Y010560D01*
X035684Y010678D02*
X033921Y010678D01*
X033803Y010797D02*
X035684Y010797D01*
X035684Y010915D02*
X033684Y010915D01*
X033711Y011034D02*
X035684Y011034D01*
X035684Y011152D02*
X033830Y011152D01*
X033934Y011271D02*
X035684Y011271D01*
X035684Y011389D02*
X033934Y011389D01*
X033934Y011508D02*
X035684Y011508D01*
X035684Y011626D02*
X033934Y011626D01*
X033826Y011745D02*
X035684Y011745D01*
X035684Y011864D02*
X033708Y011864D01*
X033664Y011987D02*
X033283Y011987D01*
X033014Y012256D01*
X033014Y012637D01*
X033283Y012907D01*
X033664Y012907D01*
X033934Y012637D01*
X033934Y012256D01*
X033664Y011987D01*
X033778Y012101D02*
X035684Y012101D01*
X035684Y012219D02*
X033896Y012219D01*
X033934Y012338D02*
X035684Y012338D01*
X035684Y012456D02*
X033934Y012456D01*
X033934Y012575D02*
X035684Y012575D01*
X035684Y012693D02*
X033878Y012693D01*
X033759Y012812D02*
X035684Y012812D01*
X035684Y012930D02*
X030174Y012930D01*
X030174Y012864D02*
X030174Y013030D01*
X030049Y013155D01*
X029932Y013272D01*
X024504Y013272D01*
X024416Y013360D01*
X024291Y013412D01*
X024156Y013412D01*
X024031Y013360D01*
X023943Y013272D01*
X021004Y013272D01*
X020916Y013360D01*
X020791Y013412D01*
X020656Y013412D01*
X020531Y013360D01*
X020443Y013272D01*
X017504Y013272D01*
X017416Y013360D01*
X017291Y013412D01*
X017156Y013412D01*
X017031Y013360D01*
X016943Y013272D01*
X014004Y013272D01*
X013916Y013360D01*
X013791Y013412D01*
X013656Y013412D01*
X013531Y013360D01*
X013443Y013272D01*
X008557Y013272D01*
X008549Y013280D01*
X008549Y014291D01*
X008637Y014379D01*
X008689Y014504D01*
X008689Y014640D01*
X008637Y014764D01*
X008541Y014860D01*
X008416Y014912D01*
X008281Y014912D01*
X008156Y014860D01*
X008060Y014764D01*
X008009Y014640D01*
X008009Y014504D01*
X008060Y014379D01*
X008149Y014291D01*
X008149Y013280D01*
X008149Y013114D01*
X008149Y013030D01*
X008149Y012864D01*
X008149Y011353D01*
X008060Y011264D01*
X008009Y011140D01*
X008009Y011004D01*
X008048Y010909D01*
X008041Y010912D01*
X007906Y010912D01*
X007781Y010860D01*
X007685Y010764D01*
X007634Y010640D01*
X007634Y010504D01*
X007672Y010412D01*
X007656Y010412D01*
X007549Y010367D01*
X007549Y012166D01*
X007637Y012254D01*
X007689Y012379D01*
X007689Y012515D01*
X007637Y012639D01*
X007541Y012735D01*
X007416Y012787D01*
X007281Y012787D01*
X007156Y012735D01*
X007060Y012639D01*
X007049Y012611D01*
X007049Y014155D01*
X006932Y014272D01*
X006931Y014272D01*
X006174Y015030D01*
X006174Y016364D01*
X007057Y017247D01*
X008443Y017247D01*
X008531Y017159D01*
X008656Y017107D01*
X008791Y017107D01*
X008916Y017159D01*
X009012Y017254D01*
X009064Y017379D01*
X009064Y017515D01*
X009012Y017639D01*
X008916Y017735D01*
X008791Y017787D01*
X008656Y017787D01*
X008531Y017735D01*
X008443Y017647D01*
X006891Y017647D01*
X006774Y017530D01*
X005774Y016530D01*
X005774Y016364D01*
X005774Y014864D01*
X005891Y014747D01*
X006649Y013989D01*
X006649Y011742D01*
X006541Y011787D01*
X006406Y011787D01*
X006281Y011735D01*
X006185Y011639D01*
X006134Y011515D01*
X006134Y011379D01*
X006185Y011254D01*
X006254Y011186D01*
X006254Y007413D01*
X006254Y007231D01*
X006383Y007102D01*
X007338Y007102D01*
X007406Y007034D01*
X007531Y006982D01*
X007666Y006982D01*
X007791Y007034D01*
X007887Y007129D01*
X007939Y007254D01*
X007939Y007390D01*
X007887Y007514D01*
X007791Y007610D01*
X007666Y007662D01*
X007531Y007662D01*
X007406Y007610D01*
X007338Y007542D01*
X006694Y007542D01*
X006694Y009893D01*
X006781Y009857D01*
X006916Y009857D01*
X007041Y009909D01*
X007137Y010004D01*
X007149Y010033D01*
X007149Y008478D01*
X007060Y008389D01*
X007009Y008265D01*
X007009Y008129D01*
X007060Y008004D01*
X007156Y007909D01*
X007281Y007857D01*
X007416Y007857D01*
X007541Y007909D01*
X007637Y008004D01*
X007689Y008129D01*
X007689Y008265D01*
X007637Y008389D01*
X007549Y008478D01*
X007549Y009776D01*
X007656Y009732D01*
X007791Y009732D01*
X007916Y009784D01*
X008004Y009872D01*
X008891Y009872D01*
X010116Y008647D01*
X009891Y008647D01*
X009872Y008628D01*
X009791Y008662D01*
X009656Y008662D01*
X009531Y008610D01*
X009435Y008514D01*
X009384Y008390D01*
X009384Y008254D01*
X009435Y008129D01*
X009531Y008034D01*
X009656Y007982D01*
X009791Y007982D01*
X009916Y008034D01*
X010012Y008129D01*
X010061Y008247D01*
X025891Y008247D01*
X026057Y008247D01*
X027057Y009247D01*
X028766Y009247D01*
X028932Y009247D01*
X029292Y009607D01*
X029416Y009607D01*
X029541Y009659D01*
X029637Y009754D01*
X029689Y009879D01*
X029689Y010015D01*
X029637Y010139D01*
X029541Y010235D01*
X029416Y010287D01*
X029281Y010287D01*
X029156Y010235D01*
X029060Y010139D01*
X029009Y010015D01*
X029009Y009890D01*
X028766Y009647D01*
X026894Y009647D01*
X026939Y009754D01*
X026939Y009890D01*
X026887Y010014D01*
X026799Y010103D01*
X026799Y012166D01*
X026887Y012254D01*
X026939Y012379D01*
X026939Y012515D01*
X026887Y012639D01*
X026791Y012735D01*
X026666Y012787D01*
X026531Y012787D01*
X026406Y012735D01*
X026310Y012639D01*
X026259Y012515D01*
X026259Y012379D01*
X026310Y012254D01*
X026399Y012166D01*
X026399Y010103D01*
X026310Y010014D01*
X026259Y009890D01*
X026259Y009754D01*
X026310Y009629D01*
X026406Y009534D01*
X026531Y009482D01*
X026666Y009482D01*
X026768Y009524D01*
X025891Y008647D01*
X023581Y008647D01*
X023674Y008739D01*
X023674Y012405D01*
X023557Y012522D01*
X023432Y012647D01*
X023379Y012647D01*
X023291Y012735D01*
X023166Y012787D01*
X023031Y012787D01*
X022906Y012735D01*
X022810Y012639D01*
X022759Y012515D01*
X022759Y012379D01*
X022810Y012254D01*
X022906Y012159D01*
X023031Y012107D01*
X023166Y012107D01*
X023274Y012151D01*
X023274Y011992D01*
X023166Y012037D01*
X023031Y012037D01*
X022906Y011985D01*
X022810Y011889D01*
X022759Y011765D01*
X022759Y011629D01*
X022810Y011504D01*
X022899Y011416D01*
X022899Y010478D01*
X022810Y010389D01*
X022759Y010265D01*
X022759Y010129D01*
X022810Y010004D01*
X022906Y009909D01*
X023031Y009857D01*
X023166Y009857D01*
X023274Y009901D01*
X023274Y008905D01*
X023266Y008897D01*
X020081Y008897D01*
X020174Y008989D01*
X020174Y009155D01*
X020174Y012405D01*
X020057Y012522D01*
X020056Y012522D01*
X019932Y012647D01*
X019879Y012647D01*
X019791Y012735D01*
X019666Y012787D01*
X019531Y012787D01*
X019406Y012735D01*
X019310Y012639D01*
X019259Y012515D01*
X019259Y012379D01*
X019310Y012254D01*
X019406Y012159D01*
X019531Y012107D01*
X019666Y012107D01*
X019774Y012151D01*
X019774Y011992D01*
X019666Y012037D01*
X019531Y012037D01*
X019406Y011985D01*
X019310Y011889D01*
X019259Y011765D01*
X019259Y011629D01*
X019310Y011504D01*
X019399Y011416D01*
X019399Y010853D01*
X019310Y010764D01*
X019259Y010640D01*
X019259Y010504D01*
X019310Y010379D01*
X019406Y010284D01*
X019531Y010232D01*
X019666Y010232D01*
X019774Y010276D01*
X019774Y009155D01*
X019766Y009147D01*
X016581Y009147D01*
X016674Y009239D01*
X016674Y009405D01*
X016674Y012280D01*
X016557Y012397D01*
X016432Y012522D01*
X016379Y012522D01*
X016291Y012610D01*
X016166Y012662D01*
X016031Y012662D01*
X015906Y012610D01*
X015810Y012514D01*
X015759Y012390D01*
X015759Y012254D01*
X015810Y012129D01*
X015906Y012034D01*
X015965Y012009D01*
X015906Y011985D01*
X015810Y011889D01*
X015759Y011765D01*
X015759Y011629D01*
X015810Y011504D01*
X015899Y011416D01*
X015899Y011228D01*
X015810Y011139D01*
X015759Y011015D01*
X015759Y010879D01*
X015810Y010754D01*
X015906Y010659D01*
X016031Y010607D01*
X016166Y010607D01*
X016274Y010651D01*
X016274Y009405D01*
X016266Y009397D01*
X015769Y009397D01*
X015814Y009504D01*
X015814Y009640D01*
X015762Y009764D01*
X015666Y009860D01*
X015541Y009912D01*
X015406Y009912D01*
X015281Y009860D01*
X015193Y009772D01*
X010932Y009772D01*
X010924Y009780D01*
X010924Y011666D01*
X011012Y011754D01*
X011064Y011879D01*
X011064Y012015D01*
X011012Y012139D01*
X010916Y012235D01*
X010791Y012287D01*
X010656Y012287D01*
X010531Y012235D01*
X010435Y012139D01*
X010384Y012015D01*
X010384Y011879D01*
X010435Y011754D01*
X010524Y011666D01*
X010524Y009780D01*
X010524Y009614D01*
X010649Y009489D01*
X010741Y009397D01*
X010682Y009397D01*
X009189Y010890D01*
X009189Y011015D01*
X009137Y011139D01*
X009041Y011235D01*
X008916Y011287D01*
X008781Y011287D01*
X008656Y011235D01*
X008651Y011230D01*
X008637Y011264D01*
X008549Y011353D01*
X008549Y012864D01*
X008557Y012872D01*
X013443Y012872D01*
X013531Y012784D01*
X013656Y012732D01*
X013791Y012732D01*
X013916Y012784D01*
X014004Y012872D01*
X016943Y012872D01*
X017031Y012784D01*
X017156Y012732D01*
X017291Y012732D01*
X017416Y012784D01*
X017504Y012872D01*
X020443Y012872D01*
X020531Y012784D01*
X020656Y012732D01*
X020791Y012732D01*
X020916Y012784D01*
X021004Y012872D01*
X023943Y012872D01*
X024031Y012784D01*
X024156Y012732D01*
X024291Y012732D01*
X024416Y012784D01*
X024504Y012872D01*
X029766Y012872D01*
X029774Y012864D01*
X029774Y008157D01*
X029596Y008157D01*
X029514Y008075D01*
X029514Y007319D01*
X029596Y007237D01*
X030352Y007237D01*
X030434Y007319D01*
X030434Y008075D01*
X030352Y008157D01*
X030174Y008157D01*
X030174Y012864D01*
X030174Y012812D02*
X033188Y012812D01*
X033070Y012693D02*
X030174Y012693D01*
X030174Y012575D02*
X033014Y012575D01*
X033014Y012456D02*
X030174Y012456D01*
X030174Y012338D02*
X033014Y012338D01*
X033051Y012219D02*
X030174Y012219D01*
X030174Y012101D02*
X033169Y012101D01*
X033240Y011864D02*
X030174Y011864D01*
X030174Y011982D02*
X035684Y011982D01*
X035684Y013049D02*
X033726Y013049D01*
X033664Y012987D02*
X033934Y013256D01*
X033934Y013637D01*
X033664Y013907D01*
X033283Y013907D01*
X033014Y013637D01*
X033014Y013256D01*
X033283Y012987D01*
X033664Y012987D01*
X033845Y013167D02*
X035684Y013167D01*
X035684Y013286D02*
X033934Y013286D01*
X033934Y013405D02*
X035684Y013405D01*
X035684Y013523D02*
X033934Y013523D01*
X033929Y013642D02*
X035684Y013642D01*
X035684Y013760D02*
X033811Y013760D01*
X033692Y013879D02*
X035684Y013879D01*
X035684Y013997D02*
X033862Y013997D01*
X033852Y013987D02*
X033934Y014069D01*
X033934Y014825D01*
X033852Y014907D01*
X033096Y014907D01*
X033014Y014825D01*
X033014Y014069D01*
X033096Y013987D01*
X033852Y013987D01*
X033934Y014116D02*
X035684Y014116D01*
X035684Y014234D02*
X033934Y014234D01*
X033934Y014353D02*
X035684Y014353D01*
X035684Y014471D02*
X033934Y014471D01*
X033934Y014590D02*
X035684Y014590D01*
X035684Y014709D02*
X033934Y014709D01*
X033931Y014827D02*
X035684Y014827D01*
X035684Y014946D02*
X029206Y014946D01*
X029166Y014985D02*
X029041Y015037D01*
X028906Y015037D01*
X028781Y014985D01*
X028685Y014889D01*
X028634Y014765D01*
X028634Y014629D01*
X028685Y014504D01*
X028754Y014436D01*
X028754Y014167D01*
X026234Y014167D01*
X026166Y014235D01*
X026041Y014287D01*
X025906Y014287D01*
X025781Y014235D01*
X025713Y014167D01*
X022734Y014167D01*
X022666Y014235D01*
X022541Y014287D01*
X022406Y014287D01*
X022281Y014235D01*
X022213Y014167D01*
X019234Y014167D01*
X019166Y014235D01*
X019041Y014287D01*
X018906Y014287D01*
X018781Y014235D01*
X018713Y014167D01*
X015734Y014167D01*
X015666Y014235D01*
X015541Y014287D01*
X015406Y014287D01*
X015281Y014235D01*
X015213Y014167D01*
X013194Y014167D01*
X013194Y015356D01*
X013194Y015538D01*
X013065Y015667D01*
X007234Y015667D01*
X007166Y015735D01*
X007041Y015787D01*
X006906Y015787D01*
X006781Y015735D01*
X006685Y015639D01*
X006634Y015515D01*
X006634Y015379D01*
X006685Y015254D01*
X006781Y015159D01*
X006906Y015107D01*
X007041Y015107D01*
X007166Y015159D01*
X007234Y015227D01*
X012754Y015227D01*
X012754Y014038D01*
X012754Y013856D01*
X012883Y013727D01*
X015213Y013727D01*
X015281Y013659D01*
X015406Y013607D01*
X015541Y013607D01*
X015666Y013659D01*
X015734Y013727D01*
X018713Y013727D01*
X018781Y013659D01*
X018906Y013607D01*
X019041Y013607D01*
X019166Y013659D01*
X019234Y013727D01*
X022213Y013727D01*
X022281Y013659D01*
X022406Y013607D01*
X022541Y013607D01*
X022666Y013659D01*
X022734Y013727D01*
X025713Y013727D01*
X025781Y013659D01*
X025906Y013607D01*
X026041Y013607D01*
X026166Y013659D01*
X026234Y013727D01*
X029065Y013727D01*
X029194Y013856D01*
X029194Y014038D01*
X029194Y014436D01*
X029262Y014504D01*
X029314Y014629D01*
X029314Y014765D01*
X029262Y014889D01*
X029166Y014985D01*
X029288Y014827D02*
X033016Y014827D01*
X033014Y014709D02*
X029314Y014709D01*
X029297Y014590D02*
X033014Y014590D01*
X033014Y014471D02*
X029229Y014471D01*
X029194Y014353D02*
X033014Y014353D01*
X033014Y014234D02*
X029194Y014234D01*
X029194Y014116D02*
X033014Y014116D01*
X033085Y013997D02*
X029194Y013997D01*
X029194Y013879D02*
X033255Y013879D01*
X033136Y013760D02*
X029098Y013760D01*
X028754Y014234D02*
X026167Y014234D01*
X025780Y014234D02*
X022667Y014234D01*
X022280Y014234D02*
X019167Y014234D01*
X018780Y014234D02*
X015667Y014234D01*
X015280Y014234D02*
X013194Y014234D01*
X013194Y014353D02*
X028754Y014353D01*
X028718Y014471D02*
X021479Y014471D01*
X021512Y014504D02*
X021564Y014629D01*
X021564Y014765D01*
X021512Y014889D01*
X021424Y014978D01*
X021424Y015416D01*
X021512Y015504D01*
X021564Y015629D01*
X021564Y015765D01*
X021512Y015889D01*
X021416Y015985D01*
X021291Y016037D01*
X021156Y016037D01*
X021031Y015985D01*
X020935Y015889D01*
X020884Y015765D01*
X020884Y015629D01*
X020935Y015504D01*
X021024Y015416D01*
X021024Y014978D01*
X020935Y014889D01*
X020884Y014765D01*
X020884Y014629D01*
X020935Y014504D01*
X021031Y014409D01*
X021156Y014357D01*
X021291Y014357D01*
X021416Y014409D01*
X021512Y014504D01*
X021547Y014590D02*
X028650Y014590D01*
X028634Y014709D02*
X021564Y014709D01*
X021538Y014827D02*
X028660Y014827D01*
X028742Y014946D02*
X021456Y014946D01*
X021424Y015064D02*
X035684Y015064D01*
X035684Y015183D02*
X021424Y015183D01*
X021424Y015301D02*
X035684Y015301D01*
X035684Y015420D02*
X021427Y015420D01*
X021526Y015538D02*
X035684Y015538D01*
X035684Y015657D02*
X021564Y015657D01*
X021559Y015775D02*
X034044Y015775D01*
X034013Y015782D02*
X034146Y015752D01*
X034281Y015737D01*
X034289Y015737D01*
X034289Y016887D01*
X034409Y016887D01*
X034409Y017007D01*
X035559Y017007D01*
X035559Y017015D01*
X035543Y017150D01*
X035513Y017282D01*
X035468Y017411D01*
X035409Y017533D01*
X035337Y017648D01*
X035252Y017754D01*
X035156Y017851D01*
X035050Y017935D01*
X034935Y018008D01*
X034812Y018067D01*
X034684Y018111D01*
X034552Y018142D01*
X034417Y018157D01*
X034409Y018157D01*
X034409Y017007D01*
X034289Y017007D01*
X034289Y018157D01*
X034281Y018157D01*
X034146Y018142D01*
X034013Y018111D01*
X033885Y018067D01*
X033762Y018008D01*
X033647Y017935D01*
X033541Y017851D01*
X033445Y017754D01*
X033360Y017648D01*
X033288Y017533D01*
X033229Y017411D01*
X033184Y017282D01*
X033154Y017150D01*
X033139Y017015D01*
X033139Y017007D01*
X034289Y017007D01*
X034289Y016887D01*
X033139Y016887D01*
X033139Y016879D01*
X033154Y016744D01*
X033184Y016611D01*
X033229Y016483D01*
X033288Y016361D01*
X033360Y016246D01*
X033445Y016139D01*
X033541Y016043D01*
X033647Y015959D01*
X033762Y015886D01*
X033885Y015827D01*
X034013Y015782D01*
X034289Y015775D02*
X034409Y015775D01*
X034409Y015737D02*
X034417Y015737D01*
X034552Y015752D01*
X034684Y015782D01*
X034812Y015827D01*
X034935Y015886D01*
X035050Y015959D01*
X035156Y016043D01*
X035252Y016139D01*
X035337Y016246D01*
X035409Y016361D01*
X035468Y016483D01*
X035513Y016611D01*
X035543Y016744D01*
X035559Y016879D01*
X035559Y016887D01*
X034409Y016887D01*
X034409Y015737D01*
X034409Y015894D02*
X034289Y015894D01*
X034289Y016013D02*
X034409Y016013D01*
X034409Y016131D02*
X034289Y016131D01*
X034289Y016250D02*
X034409Y016250D01*
X034409Y016368D02*
X034289Y016368D01*
X034289Y016487D02*
X034409Y016487D01*
X034409Y016605D02*
X034289Y016605D01*
X034289Y016724D02*
X034409Y016724D01*
X034409Y016842D02*
X034289Y016842D01*
X034289Y016961D02*
X032416Y016961D01*
X032454Y016998D02*
X032172Y016717D01*
X032014Y016717D01*
X032014Y017157D01*
X032014Y017237D01*
X032454Y017237D01*
X032454Y017396D01*
X032172Y017677D01*
X032014Y017677D01*
X032014Y017237D01*
X031934Y017237D01*
X031934Y017677D01*
X031775Y017677D01*
X031494Y017396D01*
X031494Y017237D01*
X031933Y017237D01*
X031933Y017157D01*
X031494Y017157D01*
X031494Y016998D01*
X031775Y016717D01*
X031934Y016717D01*
X031934Y017157D01*
X032014Y017157D01*
X032454Y017157D01*
X032454Y016998D01*
X032454Y017079D02*
X033146Y017079D01*
X033165Y017198D02*
X032014Y017198D01*
X031933Y017198D02*
X031434Y017198D01*
X031434Y017316D02*
X031494Y017316D01*
X031434Y017387D02*
X031434Y017006D01*
X031164Y016737D01*
X030783Y016737D01*
X030514Y017006D01*
X030514Y017387D01*
X030783Y017657D01*
X031164Y017657D01*
X031434Y017387D01*
X031386Y017435D02*
X031533Y017435D01*
X031652Y017554D02*
X031268Y017554D01*
X031770Y017672D02*
X008979Y017672D01*
X009048Y017554D02*
X027514Y017554D01*
X027514Y017575D02*
X027514Y016819D01*
X027596Y016737D01*
X028352Y016737D01*
X028434Y016819D01*
X028434Y017575D01*
X028352Y017657D01*
X027596Y017657D01*
X027514Y017575D01*
X027514Y017435D02*
X009064Y017435D01*
X009038Y017316D02*
X027514Y017316D01*
X027514Y017198D02*
X008956Y017198D01*
X008724Y017447D02*
X006974Y017447D01*
X005974Y016447D01*
X005974Y014947D01*
X006849Y014072D01*
X006849Y010197D01*
X007099Y009967D02*
X007149Y009967D01*
X007149Y009848D02*
X006694Y009848D01*
X006694Y009730D02*
X007149Y009730D01*
X007149Y009611D02*
X006694Y009611D01*
X006694Y009493D02*
X007149Y009493D01*
X007149Y009374D02*
X006694Y009374D01*
X006694Y009256D02*
X007149Y009256D01*
X007149Y009137D02*
X006694Y009137D01*
X006694Y009018D02*
X007149Y009018D01*
X007149Y008900D02*
X006694Y008900D01*
X006694Y008781D02*
X007149Y008781D01*
X007149Y008663D02*
X006694Y008663D01*
X006694Y008544D02*
X007149Y008544D01*
X007097Y008426D02*
X006694Y008426D01*
X006694Y008307D02*
X007026Y008307D01*
X007009Y008189D02*
X006694Y008189D01*
X006694Y008070D02*
X007033Y008070D01*
X007113Y007952D02*
X006694Y007952D01*
X006694Y007833D02*
X011032Y007833D01*
X011014Y007788D02*
X011014Y007605D01*
X011084Y007436D01*
X011213Y007307D01*
X011382Y007237D01*
X011565Y007237D01*
X011734Y007307D01*
X011864Y007436D01*
X011934Y007605D01*
X011934Y007788D01*
X011864Y007957D01*
X011734Y008087D01*
X011565Y008157D01*
X011382Y008157D01*
X011213Y008087D01*
X011084Y007957D01*
X011014Y007788D01*
X011014Y007714D02*
X006694Y007714D01*
X006694Y007596D02*
X007392Y007596D01*
X007805Y007596D02*
X011018Y007596D01*
X011067Y007477D02*
X007902Y007477D01*
X007939Y007359D02*
X011161Y007359D01*
X011374Y007240D02*
X007933Y007240D01*
X007879Y007122D02*
X033463Y007122D01*
X033365Y007240D02*
X030355Y007240D01*
X030434Y007359D02*
X033289Y007359D01*
X033232Y007477D02*
X030434Y007477D01*
X030434Y007596D02*
X033190Y007596D01*
X033161Y007714D02*
X030434Y007714D01*
X030434Y007833D02*
X033144Y007833D01*
X033145Y008070D02*
X030434Y008070D01*
X030434Y007952D02*
X034289Y007952D01*
X034289Y008070D02*
X034409Y008070D01*
X034409Y008189D02*
X034289Y008189D01*
X034289Y008307D02*
X034409Y008307D01*
X034409Y008426D02*
X034289Y008426D01*
X034289Y008544D02*
X034409Y008544D01*
X034409Y008663D02*
X034289Y008663D01*
X034289Y008781D02*
X034409Y008781D01*
X034409Y008900D02*
X034289Y008900D01*
X034289Y009018D02*
X034409Y009018D01*
X034409Y009137D02*
X034289Y009137D01*
X034125Y009137D02*
X030174Y009137D01*
X030174Y009018D02*
X033785Y009018D01*
X033603Y008900D02*
X030174Y008900D01*
X030174Y008781D02*
X033472Y008781D01*
X033372Y008663D02*
X030174Y008663D01*
X030174Y008544D02*
X033295Y008544D01*
X033236Y008426D02*
X030174Y008426D01*
X030174Y008307D02*
X033193Y008307D01*
X033163Y008189D02*
X030174Y008189D01*
X029774Y008189D02*
X010036Y008189D01*
X009953Y008070D02*
X011196Y008070D01*
X011081Y007952D02*
X007584Y007952D01*
X007664Y008070D02*
X009495Y008070D01*
X009411Y008189D02*
X007689Y008189D01*
X007671Y008307D02*
X009384Y008307D01*
X009399Y008426D02*
X007601Y008426D01*
X007549Y008544D02*
X009465Y008544D01*
X009724Y008322D02*
X009849Y008322D01*
X009974Y008447D01*
X025974Y008447D01*
X026974Y009447D01*
X028849Y009447D01*
X029349Y009947D01*
X029659Y010085D02*
X029774Y010085D01*
X029774Y009967D02*
X029689Y009967D01*
X029676Y009848D02*
X029774Y009848D01*
X029774Y009730D02*
X029612Y009730D01*
X029774Y009611D02*
X029427Y009611D01*
X029177Y009493D02*
X029774Y009493D01*
X029774Y009374D02*
X029059Y009374D01*
X028940Y009256D02*
X029774Y009256D01*
X029774Y009137D02*
X026947Y009137D01*
X026828Y009018D02*
X029774Y009018D01*
X029774Y008900D02*
X026710Y008900D01*
X026591Y008781D02*
X029774Y008781D01*
X029774Y008663D02*
X026472Y008663D01*
X026354Y008544D02*
X029774Y008544D01*
X029774Y008426D02*
X026235Y008426D01*
X026117Y008307D02*
X029774Y008307D01*
X029514Y008070D02*
X015934Y008070D01*
X015934Y008075D02*
X015852Y008157D01*
X015096Y008157D01*
X015014Y008075D01*
X015014Y007319D01*
X015096Y007237D01*
X015852Y007237D01*
X015934Y007319D01*
X015934Y008075D01*
X015934Y007952D02*
X029514Y007952D01*
X029514Y007833D02*
X015934Y007833D01*
X015934Y007714D02*
X029514Y007714D01*
X029514Y007596D02*
X015934Y007596D01*
X015934Y007477D02*
X029514Y007477D01*
X029514Y007359D02*
X015934Y007359D01*
X015855Y007240D02*
X029592Y007240D01*
X029974Y007697D02*
X029974Y012947D01*
X029849Y013072D01*
X024224Y013072D01*
X020724Y013072D01*
X017224Y013072D01*
X013724Y013072D01*
X008474Y013072D01*
X008349Y012947D01*
X008349Y013072D01*
X008349Y013197D01*
X008474Y013072D01*
X008349Y013072D01*
X008349Y013197D02*
X008349Y014572D01*
X008660Y014709D02*
X012754Y014709D01*
X012754Y014827D02*
X008574Y014827D01*
X008689Y014590D02*
X012754Y014590D01*
X012754Y014471D02*
X008675Y014471D01*
X008610Y014353D02*
X012754Y014353D01*
X012754Y014234D02*
X008549Y014234D01*
X008549Y014116D02*
X012754Y014116D01*
X012754Y013997D02*
X008549Y013997D01*
X008549Y013879D02*
X012754Y013879D01*
X012849Y013760D02*
X008549Y013760D01*
X008549Y013642D02*
X015322Y013642D01*
X015625Y013642D02*
X018822Y013642D01*
X019125Y013642D02*
X022322Y013642D01*
X022625Y013642D02*
X025822Y013642D01*
X026125Y013642D02*
X033018Y013642D01*
X033014Y013523D02*
X008549Y013523D01*
X008549Y013405D02*
X013638Y013405D01*
X013809Y013405D02*
X017138Y013405D01*
X017309Y013405D02*
X020638Y013405D01*
X020809Y013405D02*
X024138Y013405D01*
X024309Y013405D02*
X033014Y013405D01*
X033014Y013286D02*
X024490Y013286D01*
X023957Y013286D02*
X020990Y013286D01*
X020457Y013286D02*
X017490Y013286D01*
X016957Y013286D02*
X013990Y013286D01*
X013457Y013286D02*
X008549Y013286D01*
X008149Y013286D02*
X007049Y013286D01*
X007049Y013167D02*
X008149Y013167D01*
X008149Y013049D02*
X007049Y013049D01*
X007049Y012930D02*
X008149Y012930D01*
X008149Y012812D02*
X007049Y012812D01*
X007049Y012693D02*
X007114Y012693D01*
X007349Y012447D02*
X007349Y008197D01*
X007549Y008663D02*
X010100Y008663D01*
X009981Y008781D02*
X007549Y008781D01*
X007549Y008900D02*
X009863Y008900D01*
X009744Y009018D02*
X007549Y009018D01*
X007549Y009137D02*
X009626Y009137D01*
X009507Y009256D02*
X007549Y009256D01*
X007549Y009374D02*
X009389Y009374D01*
X009270Y009493D02*
X007549Y009493D01*
X007549Y009611D02*
X009152Y009611D01*
X009033Y009730D02*
X007549Y009730D01*
X007724Y010072D02*
X008974Y010072D01*
X010349Y008697D01*
X023349Y008697D01*
X023474Y008822D01*
X023474Y012322D01*
X023349Y012447D01*
X023099Y012447D01*
X023333Y012693D02*
X026364Y012693D01*
X026284Y012575D02*
X023504Y012575D01*
X023622Y012456D02*
X026259Y012456D01*
X026276Y012338D02*
X023674Y012338D01*
X023674Y012219D02*
X026346Y012219D01*
X026399Y012101D02*
X023674Y012101D01*
X023674Y011982D02*
X026399Y011982D01*
X026399Y011864D02*
X023674Y011864D01*
X023674Y011745D02*
X026399Y011745D01*
X026399Y011626D02*
X023674Y011626D01*
X023674Y011508D02*
X026399Y011508D01*
X026399Y011389D02*
X023674Y011389D01*
X023674Y011271D02*
X026399Y011271D01*
X026399Y011152D02*
X023674Y011152D01*
X023674Y011034D02*
X026399Y011034D01*
X026399Y010915D02*
X023674Y010915D01*
X023674Y010797D02*
X026399Y010797D01*
X026399Y010678D02*
X023674Y010678D01*
X023674Y010560D02*
X026399Y010560D01*
X026399Y010441D02*
X023674Y010441D01*
X023674Y010322D02*
X026399Y010322D01*
X026399Y010204D02*
X023674Y010204D01*
X023674Y010085D02*
X026381Y010085D01*
X026291Y009967D02*
X023674Y009967D01*
X023674Y009848D02*
X026259Y009848D01*
X026269Y009730D02*
X023674Y009730D01*
X023674Y009611D02*
X026329Y009611D01*
X026505Y009493D02*
X023674Y009493D01*
X023674Y009374D02*
X026618Y009374D01*
X026692Y009493D02*
X026737Y009493D01*
X026500Y009256D02*
X023674Y009256D01*
X023674Y009137D02*
X026381Y009137D01*
X026262Y009018D02*
X023674Y009018D01*
X023674Y008900D02*
X026144Y008900D01*
X026025Y008781D02*
X023674Y008781D01*
X023597Y008663D02*
X025907Y008663D01*
X026599Y009822D02*
X026599Y012447D01*
X026914Y012575D02*
X029774Y012575D01*
X029774Y012693D02*
X026833Y012693D01*
X026939Y012456D02*
X029774Y012456D01*
X029774Y012338D02*
X026921Y012338D01*
X026852Y012219D02*
X029774Y012219D01*
X029774Y012101D02*
X026799Y012101D01*
X026799Y011982D02*
X029774Y011982D01*
X029774Y011864D02*
X026799Y011864D01*
X026799Y011745D02*
X029774Y011745D01*
X029774Y011626D02*
X026799Y011626D01*
X026799Y011508D02*
X029774Y011508D01*
X029774Y011389D02*
X026799Y011389D01*
X026799Y011271D02*
X029774Y011271D01*
X029774Y011152D02*
X026799Y011152D01*
X026799Y011034D02*
X029774Y011034D01*
X029774Y010915D02*
X026799Y010915D01*
X026799Y010797D02*
X029774Y010797D01*
X029774Y010678D02*
X026799Y010678D01*
X026799Y010560D02*
X029774Y010560D01*
X029774Y010441D02*
X026799Y010441D01*
X026799Y010322D02*
X029774Y010322D01*
X029774Y010204D02*
X029572Y010204D01*
X029125Y010204D02*
X026799Y010204D01*
X026816Y010085D02*
X029038Y010085D01*
X029009Y009967D02*
X026907Y009967D01*
X026939Y009848D02*
X028967Y009848D01*
X028849Y009730D02*
X026928Y009730D01*
X030174Y011152D02*
X033118Y011152D01*
X033014Y011271D02*
X030174Y011271D01*
X030174Y011389D02*
X033014Y011389D01*
X033014Y011508D02*
X030174Y011508D01*
X030174Y011626D02*
X033014Y011626D01*
X033121Y011745D02*
X030174Y011745D01*
X029774Y012812D02*
X024444Y012812D01*
X024003Y012812D02*
X020944Y012812D01*
X020503Y012812D02*
X017444Y012812D01*
X017003Y012812D02*
X013944Y012812D01*
X013503Y012812D02*
X008549Y012812D01*
X008549Y012693D02*
X019364Y012693D01*
X019284Y012575D02*
X016327Y012575D01*
X016497Y012456D02*
X019259Y012456D01*
X019276Y012338D02*
X016616Y012338D01*
X016674Y012219D02*
X019346Y012219D01*
X019403Y011982D02*
X016674Y011982D01*
X016674Y011864D02*
X019300Y011864D01*
X019259Y011745D02*
X016674Y011745D01*
X016674Y011626D02*
X019260Y011626D01*
X019309Y011508D02*
X016674Y011508D01*
X016674Y011389D02*
X019399Y011389D01*
X019399Y011271D02*
X016674Y011271D01*
X016674Y011152D02*
X019399Y011152D01*
X019399Y011034D02*
X016674Y011034D01*
X016674Y010915D02*
X019399Y010915D01*
X019343Y010797D02*
X016674Y010797D01*
X016674Y010678D02*
X019275Y010678D01*
X019259Y010560D02*
X016674Y010560D01*
X016674Y010441D02*
X019285Y010441D01*
X019367Y010322D02*
X016674Y010322D01*
X016674Y010204D02*
X019774Y010204D01*
X019774Y010085D02*
X016674Y010085D01*
X016674Y009967D02*
X019774Y009967D01*
X019774Y009848D02*
X016674Y009848D01*
X016674Y009730D02*
X019774Y009730D01*
X019774Y009611D02*
X016674Y009611D01*
X016674Y009493D02*
X019774Y009493D01*
X019774Y009374D02*
X016674Y009374D01*
X016674Y009256D02*
X019774Y009256D01*
X019974Y009072D02*
X019849Y008947D01*
X010474Y008947D01*
X008849Y010572D01*
X007974Y010572D01*
X007660Y010441D02*
X007549Y010441D01*
X007549Y010560D02*
X007634Y010560D01*
X007650Y010678D02*
X007549Y010678D01*
X007549Y010797D02*
X007718Y010797D01*
X007549Y010915D02*
X008046Y010915D01*
X008009Y011034D02*
X007549Y011034D01*
X007549Y011152D02*
X008014Y011152D01*
X008067Y011271D02*
X007549Y011271D01*
X007549Y011389D02*
X008149Y011389D01*
X008149Y011508D02*
X007549Y011508D01*
X007549Y011626D02*
X008149Y011626D01*
X008149Y011745D02*
X007549Y011745D01*
X007549Y011864D02*
X008149Y011864D01*
X008149Y011982D02*
X007549Y011982D01*
X007549Y012101D02*
X008149Y012101D01*
X008149Y012219D02*
X007602Y012219D01*
X007671Y012338D02*
X008149Y012338D01*
X008149Y012456D02*
X007689Y012456D01*
X007664Y012575D02*
X008149Y012575D01*
X008149Y012693D02*
X007583Y012693D01*
X006649Y012693D02*
X000634Y012693D01*
X000634Y012575D02*
X006649Y012575D01*
X006649Y012456D02*
X000634Y012456D01*
X000634Y012338D02*
X006649Y012338D01*
X006649Y012219D02*
X000634Y012219D01*
X000634Y012101D02*
X006649Y012101D01*
X006649Y011982D02*
X000634Y011982D01*
X000634Y011864D02*
X002280Y011864D01*
X002283Y011867D02*
X002188Y011772D01*
X002137Y011648D01*
X002137Y011514D01*
X002188Y011390D01*
X002283Y011295D01*
X002407Y011244D01*
X002541Y011244D01*
X002665Y011295D01*
X002759Y011390D01*
X002811Y011514D01*
X002811Y011648D01*
X002759Y011772D01*
X002665Y011867D01*
X002541Y011918D01*
X002407Y011918D01*
X002283Y011867D01*
X002177Y011745D02*
X000634Y011745D01*
X000634Y011626D02*
X002137Y011626D01*
X002139Y011508D02*
X000634Y011508D01*
X000634Y011389D02*
X002188Y011389D01*
X002341Y011271D02*
X000634Y011271D01*
X000634Y011152D02*
X006254Y011152D01*
X006254Y011034D02*
X000634Y011034D01*
X000634Y010915D02*
X006254Y010915D01*
X006254Y010797D02*
X000634Y010797D01*
X000634Y010678D02*
X006254Y010678D01*
X006254Y010560D02*
X000634Y010560D01*
X000634Y010441D02*
X006254Y010441D01*
X006254Y010322D02*
X000634Y010322D01*
X000634Y010204D02*
X006254Y010204D01*
X006254Y010085D02*
X000634Y010085D01*
X000634Y009967D02*
X006254Y009967D01*
X006254Y009848D02*
X000634Y009848D01*
X000634Y009730D02*
X006254Y009730D01*
X006254Y009611D02*
X000634Y009611D01*
X000634Y009493D02*
X006254Y009493D01*
X006254Y009374D02*
X000634Y009374D01*
X000634Y009256D02*
X006254Y009256D01*
X006254Y009137D02*
X002197Y009137D01*
X002177Y009142D02*
X002042Y009157D01*
X002034Y009157D01*
X002034Y008007D01*
X003184Y008007D01*
X003184Y008015D01*
X003168Y008150D01*
X003138Y008282D01*
X003093Y008411D01*
X003034Y008533D01*
X002962Y008648D01*
X002877Y008754D01*
X002781Y008851D01*
X002675Y008935D01*
X002560Y009008D01*
X002437Y009067D01*
X002309Y009111D01*
X002177Y009142D01*
X002034Y009137D02*
X001914Y009137D01*
X001914Y009157D02*
X001906Y009157D01*
X001771Y009142D01*
X001638Y009111D01*
X001510Y009067D01*
X001387Y009008D01*
X001272Y008935D01*
X001166Y008851D01*
X001070Y008754D01*
X000985Y008648D01*
X000913Y008533D01*
X000854Y008411D01*
X000809Y008282D01*
X000779Y008150D01*
X000764Y008015D01*
X000764Y008007D01*
X001914Y008007D01*
X001914Y009157D01*
X001914Y009018D02*
X002034Y009018D01*
X002034Y008900D02*
X001914Y008900D01*
X001914Y008781D02*
X002034Y008781D01*
X002034Y008663D02*
X001914Y008663D01*
X001914Y008544D02*
X002034Y008544D01*
X002034Y008426D02*
X001914Y008426D01*
X001914Y008307D02*
X002034Y008307D01*
X002034Y008189D02*
X001914Y008189D01*
X001914Y008070D02*
X002034Y008070D01*
X002034Y008007D02*
X001914Y008007D01*
X001914Y007887D01*
X002034Y007887D01*
X002034Y008007D01*
X002034Y007952D02*
X006254Y007952D01*
X006254Y008070D02*
X003177Y008070D01*
X003160Y008189D02*
X006254Y008189D01*
X006254Y008307D02*
X003130Y008307D01*
X003086Y008426D02*
X006254Y008426D01*
X006254Y008544D02*
X003027Y008544D01*
X002950Y008663D02*
X006254Y008663D01*
X006254Y008781D02*
X002850Y008781D01*
X002719Y008900D02*
X006254Y008900D01*
X006254Y009018D02*
X002537Y009018D01*
X001750Y009137D02*
X000634Y009137D01*
X000634Y009018D02*
X001410Y009018D01*
X001228Y008900D02*
X000634Y008900D01*
X000634Y008781D02*
X001097Y008781D01*
X000997Y008663D02*
X000634Y008663D01*
X000634Y008544D02*
X000920Y008544D01*
X000861Y008426D02*
X000634Y008426D01*
X000634Y008307D02*
X000818Y008307D01*
X000788Y008189D02*
X000634Y008189D01*
X000634Y008070D02*
X000770Y008070D01*
X000634Y007952D02*
X001914Y007952D01*
X001914Y007887D02*
X000764Y007887D01*
X000764Y007879D01*
X000779Y007744D01*
X000809Y007611D01*
X000854Y007483D01*
X000913Y007361D01*
X000985Y007246D01*
X001070Y007139D01*
X001166Y007043D01*
X001272Y006959D01*
X001387Y006886D01*
X001510Y006827D01*
X001638Y006782D01*
X001771Y006752D01*
X001906Y006737D01*
X001914Y006737D01*
X001914Y007887D01*
X001914Y007833D02*
X002034Y007833D01*
X002034Y007887D02*
X002034Y006737D01*
X002042Y006737D01*
X002177Y006752D01*
X002309Y006782D01*
X002437Y006827D01*
X002560Y006886D01*
X002675Y006959D01*
X002781Y007043D01*
X002877Y007139D01*
X002962Y007246D01*
X003034Y007361D01*
X003093Y007483D01*
X003138Y007611D01*
X003168Y007744D01*
X003184Y007879D01*
X003184Y007887D01*
X002034Y007887D01*
X002034Y007714D02*
X001914Y007714D01*
X001914Y007596D02*
X002034Y007596D01*
X002034Y007477D02*
X001914Y007477D01*
X001914Y007359D02*
X002034Y007359D01*
X002034Y007240D02*
X001914Y007240D01*
X001914Y007122D02*
X002034Y007122D01*
X002034Y007003D02*
X001914Y007003D01*
X001914Y006885D02*
X002034Y006885D01*
X002034Y006766D02*
X001914Y006766D01*
X001709Y006766D02*
X000634Y006766D01*
X000634Y006885D02*
X001391Y006885D01*
X001216Y007003D02*
X000634Y007003D01*
X000634Y007122D02*
X001088Y007122D01*
X000990Y007240D02*
X000634Y007240D01*
X000634Y007359D02*
X000914Y007359D01*
X000857Y007477D02*
X000634Y007477D01*
X000634Y007596D02*
X000815Y007596D01*
X000786Y007714D02*
X000634Y007714D01*
X000634Y007833D02*
X000769Y007833D01*
X002238Y006766D02*
X034084Y006766D01*
X033766Y006885D02*
X002557Y006885D01*
X002731Y007003D02*
X007480Y007003D01*
X007718Y007003D02*
X033591Y007003D01*
X034932Y006885D02*
X035684Y006885D01*
X035684Y007003D02*
X035106Y007003D01*
X035235Y007122D02*
X035684Y007122D01*
X035684Y007240D02*
X035333Y007240D01*
X035408Y007359D02*
X035684Y007359D01*
X035684Y007477D02*
X035466Y007477D01*
X035508Y007596D02*
X035684Y007596D01*
X035684Y007714D02*
X035537Y007714D01*
X035553Y007833D02*
X035684Y007833D01*
X033221Y013049D02*
X030154Y013049D01*
X030036Y013167D02*
X033103Y013167D01*
X034654Y015775D02*
X035684Y015775D01*
X035684Y015894D02*
X034947Y015894D01*
X035118Y016013D02*
X035684Y016013D01*
X035684Y016131D02*
X035244Y016131D01*
X035340Y016250D02*
X035684Y016250D01*
X035684Y016368D02*
X035413Y016368D01*
X035470Y016487D02*
X035684Y016487D01*
X035684Y016605D02*
X035511Y016605D01*
X035539Y016724D02*
X035684Y016724D01*
X035684Y016842D02*
X035555Y016842D01*
X035684Y016961D02*
X034409Y016961D01*
X034409Y017079D02*
X034289Y017079D01*
X034289Y017198D02*
X034409Y017198D01*
X034409Y017316D02*
X034289Y017316D01*
X034289Y017435D02*
X034409Y017435D01*
X034409Y017554D02*
X034289Y017554D01*
X034289Y017672D02*
X034409Y017672D01*
X034409Y017791D02*
X034289Y017791D01*
X034289Y017909D02*
X034409Y017909D01*
X034409Y018028D02*
X034289Y018028D01*
X034289Y018146D02*
X034409Y018146D01*
X034511Y018146D02*
X035684Y018146D01*
X035684Y018028D02*
X034893Y018028D01*
X035083Y017909D02*
X035684Y017909D01*
X035684Y017791D02*
X035216Y017791D01*
X035318Y017672D02*
X035684Y017672D01*
X035684Y017554D02*
X035397Y017554D01*
X035457Y017435D02*
X035684Y017435D01*
X035684Y017316D02*
X035501Y017316D01*
X035533Y017198D02*
X035684Y017198D01*
X035684Y017079D02*
X035551Y017079D01*
X033804Y018028D02*
X002518Y018028D01*
X002560Y018008D02*
X002437Y018067D01*
X002309Y018111D01*
X002177Y018142D01*
X002042Y018157D01*
X002034Y018157D01*
X002034Y017007D01*
X003184Y017007D01*
X003184Y017015D01*
X003168Y017150D01*
X003138Y017282D01*
X003093Y017411D01*
X003034Y017533D01*
X002962Y017648D01*
X002877Y017754D01*
X002781Y017851D01*
X002675Y017935D01*
X002560Y018008D01*
X002708Y017909D02*
X033615Y017909D01*
X033481Y017791D02*
X002841Y017791D01*
X002943Y017672D02*
X008468Y017672D01*
X008492Y017198D02*
X007008Y017198D01*
X006889Y017079D02*
X027514Y017079D01*
X027514Y016961D02*
X006770Y016961D01*
X006652Y016842D02*
X027514Y016842D01*
X028434Y016842D02*
X028678Y016842D01*
X028783Y016737D02*
X028514Y017006D01*
X028514Y017387D01*
X028783Y017657D01*
X029164Y017657D01*
X029434Y017387D01*
X029434Y017006D01*
X029164Y016737D01*
X028783Y016737D01*
X028559Y016961D02*
X028434Y016961D01*
X028434Y017079D02*
X028514Y017079D01*
X028514Y017198D02*
X028434Y017198D01*
X028434Y017316D02*
X028514Y017316D01*
X028561Y017435D02*
X028434Y017435D01*
X028434Y017554D02*
X028680Y017554D01*
X029268Y017554D02*
X029680Y017554D01*
X029783Y017657D02*
X029514Y017387D01*
X029514Y017006D01*
X029783Y016737D01*
X030164Y016737D01*
X030434Y017006D01*
X030434Y017387D01*
X030164Y017657D01*
X029783Y017657D01*
X029561Y017435D02*
X029386Y017435D01*
X029434Y017316D02*
X029514Y017316D01*
X029514Y017198D02*
X029434Y017198D01*
X029434Y017079D02*
X029514Y017079D01*
X029559Y016961D02*
X029388Y016961D01*
X029270Y016842D02*
X029678Y016842D01*
X030270Y016842D02*
X030678Y016842D01*
X030559Y016961D02*
X030388Y016961D01*
X030434Y017079D02*
X030514Y017079D01*
X030514Y017198D02*
X030434Y017198D01*
X030434Y017316D02*
X030514Y017316D01*
X030561Y017435D02*
X030386Y017435D01*
X030268Y017554D02*
X030680Y017554D01*
X031434Y017079D02*
X031494Y017079D01*
X031531Y016961D02*
X031388Y016961D01*
X031270Y016842D02*
X031649Y016842D01*
X031768Y016724D02*
X014428Y016724D01*
X014416Y016735D02*
X014291Y016787D01*
X014156Y016787D01*
X014031Y016735D01*
X013935Y016639D01*
X013884Y016515D01*
X013884Y016379D01*
X013935Y016254D01*
X014024Y016166D01*
X014024Y014978D01*
X013935Y014889D01*
X013884Y014765D01*
X013884Y014629D01*
X013935Y014504D01*
X014031Y014409D01*
X014156Y014357D01*
X014291Y014357D01*
X014416Y014409D01*
X014512Y014504D01*
X014564Y014629D01*
X014564Y014765D01*
X014512Y014889D01*
X014424Y014978D01*
X014424Y016166D01*
X014512Y016254D01*
X014564Y016379D01*
X014564Y016515D01*
X014512Y016639D01*
X014416Y016735D01*
X014526Y016605D02*
X033186Y016605D01*
X033158Y016724D02*
X032179Y016724D01*
X032014Y016724D02*
X031934Y016724D01*
X031934Y016842D02*
X032014Y016842D01*
X032014Y016961D02*
X031934Y016961D01*
X031934Y017079D02*
X032014Y017079D01*
X032014Y017316D02*
X031934Y017316D01*
X031934Y017435D02*
X032014Y017435D01*
X032014Y017554D02*
X031934Y017554D01*
X031934Y017672D02*
X032014Y017672D01*
X032177Y017672D02*
X033379Y017672D01*
X033301Y017554D02*
X032296Y017554D01*
X032414Y017435D02*
X033241Y017435D01*
X033196Y017316D02*
X032454Y017316D01*
X032298Y016842D02*
X033143Y016842D01*
X033228Y016487D02*
X014564Y016487D01*
X014559Y016368D02*
X017551Y016368D01*
X017531Y016360D02*
X017435Y016264D01*
X017384Y016140D01*
X017384Y016004D01*
X017435Y015879D01*
X017524Y015791D01*
X017524Y014978D01*
X017435Y014889D01*
X017384Y014765D01*
X017384Y014629D01*
X017435Y014504D01*
X017531Y014409D01*
X017656Y014357D01*
X017791Y014357D01*
X017916Y014409D01*
X018012Y014504D01*
X018064Y014629D01*
X018064Y014765D01*
X018012Y014889D01*
X017924Y014978D01*
X017924Y015791D01*
X018012Y015879D01*
X018064Y016004D01*
X018064Y016140D01*
X018012Y016264D01*
X017916Y016360D01*
X017791Y016412D01*
X017656Y016412D01*
X017531Y016360D01*
X017429Y016250D02*
X014507Y016250D01*
X014424Y016131D02*
X017384Y016131D01*
X017384Y016013D02*
X014424Y016013D01*
X014424Y015894D02*
X017429Y015894D01*
X017524Y015775D02*
X014424Y015775D01*
X014424Y015657D02*
X017524Y015657D01*
X017524Y015538D02*
X014424Y015538D01*
X014424Y015420D02*
X017524Y015420D01*
X017524Y015301D02*
X014424Y015301D01*
X014424Y015183D02*
X017524Y015183D01*
X017524Y015064D02*
X014424Y015064D01*
X014456Y014946D02*
X017492Y014946D01*
X017410Y014827D02*
X014538Y014827D01*
X014564Y014709D02*
X017384Y014709D01*
X017400Y014590D02*
X014547Y014590D01*
X014479Y014471D02*
X017468Y014471D01*
X017724Y014697D02*
X017724Y016072D01*
X017897Y016368D02*
X033284Y016368D01*
X033358Y016250D02*
X018018Y016250D01*
X018064Y016131D02*
X033453Y016131D01*
X033580Y016013D02*
X021350Y016013D01*
X021507Y015894D02*
X033750Y015894D01*
X034187Y018146D02*
X002136Y018146D01*
X002034Y018146D02*
X001914Y018146D01*
X001914Y018157D02*
X001906Y018157D01*
X001771Y018142D01*
X001638Y018111D01*
X001510Y018067D01*
X001387Y018008D01*
X001272Y017935D01*
X001166Y017851D01*
X001070Y017754D01*
X000985Y017648D01*
X000913Y017533D01*
X000854Y017411D01*
X000809Y017282D01*
X000779Y017150D01*
X000764Y017015D01*
X000764Y017007D01*
X001914Y017007D01*
X001914Y018157D01*
X001812Y018146D02*
X000634Y018146D01*
X000634Y018028D02*
X001429Y018028D01*
X001240Y017909D02*
X000634Y017909D01*
X000634Y017791D02*
X001106Y017791D01*
X001004Y017672D02*
X000634Y017672D01*
X000634Y017554D02*
X000926Y017554D01*
X000866Y017435D02*
X000634Y017435D01*
X000634Y017316D02*
X000821Y017316D01*
X000790Y017198D02*
X000634Y017198D01*
X000634Y017079D02*
X000771Y017079D01*
X000634Y016961D02*
X001914Y016961D01*
X001914Y017007D02*
X001914Y016887D01*
X002034Y016887D01*
X002034Y017007D01*
X001914Y017007D01*
X001914Y017079D02*
X002034Y017079D01*
X002034Y016961D02*
X006205Y016961D01*
X006323Y017079D02*
X003176Y017079D01*
X003158Y017198D02*
X006442Y017198D01*
X006560Y017316D02*
X003126Y017316D01*
X003082Y017435D02*
X006679Y017435D01*
X006798Y017554D02*
X003022Y017554D01*
X002034Y017554D02*
X001914Y017554D01*
X001914Y017672D02*
X002034Y017672D01*
X002034Y017791D02*
X001914Y017791D01*
X001914Y017909D02*
X002034Y017909D01*
X002034Y018028D02*
X001914Y018028D01*
X001914Y017435D02*
X002034Y017435D01*
X002034Y017316D02*
X001914Y017316D01*
X001914Y017198D02*
X002034Y017198D01*
X002034Y016887D02*
X003184Y016887D01*
X003184Y016879D01*
X003168Y016744D01*
X003138Y016611D01*
X003093Y016483D01*
X003034Y016361D01*
X002962Y016246D01*
X002877Y016139D01*
X002781Y016043D01*
X002675Y015959D01*
X002560Y015886D01*
X002437Y015827D01*
X002309Y015782D01*
X002177Y015752D01*
X002042Y015737D01*
X002034Y015737D01*
X002034Y016887D01*
X002034Y016842D02*
X001914Y016842D01*
X001914Y016887D02*
X001914Y015737D01*
X001906Y015737D01*
X001771Y015752D01*
X001638Y015782D01*
X001510Y015827D01*
X001387Y015886D01*
X001272Y015959D01*
X001166Y016043D01*
X001070Y016139D01*
X000985Y016246D01*
X000913Y016361D01*
X000854Y016483D01*
X000809Y016611D01*
X000779Y016744D01*
X000764Y016879D01*
X000764Y016887D01*
X001914Y016887D01*
X001914Y016724D02*
X002034Y016724D01*
X002034Y016605D02*
X001914Y016605D01*
X001914Y016487D02*
X002034Y016487D01*
X002034Y016368D02*
X001914Y016368D01*
X001914Y016250D02*
X002034Y016250D01*
X002034Y016131D02*
X001914Y016131D01*
X001914Y016013D02*
X002034Y016013D01*
X002034Y015894D02*
X001914Y015894D01*
X001914Y015775D02*
X002034Y015775D01*
X002279Y015775D02*
X005774Y015775D01*
X005774Y015657D02*
X000634Y015657D01*
X000634Y015775D02*
X001669Y015775D01*
X001375Y015894D02*
X000634Y015894D01*
X000634Y016013D02*
X001205Y016013D01*
X001078Y016131D02*
X000634Y016131D01*
X000634Y016250D02*
X000983Y016250D01*
X000909Y016368D02*
X000634Y016368D01*
X000634Y016487D02*
X000853Y016487D01*
X000811Y016605D02*
X000634Y016605D01*
X000634Y016724D02*
X000783Y016724D01*
X000768Y016842D02*
X000634Y016842D01*
X002572Y015894D02*
X005774Y015894D01*
X005774Y016013D02*
X002743Y016013D01*
X002869Y016131D02*
X005774Y016131D01*
X005774Y016250D02*
X002965Y016250D01*
X003038Y016368D02*
X005774Y016368D01*
X005774Y016487D02*
X003095Y016487D01*
X003136Y016605D02*
X005849Y016605D01*
X005968Y016724D02*
X003164Y016724D01*
X003180Y016842D02*
X006086Y016842D01*
X006415Y016605D02*
X013921Y016605D01*
X013884Y016487D02*
X006296Y016487D01*
X006178Y016368D02*
X013888Y016368D01*
X013940Y016250D02*
X006174Y016250D01*
X006174Y016131D02*
X014024Y016131D01*
X014024Y016013D02*
X006174Y016013D01*
X006174Y015894D02*
X014024Y015894D01*
X014024Y015775D02*
X007069Y015775D01*
X006878Y015775D02*
X006174Y015775D01*
X006174Y015657D02*
X006703Y015657D01*
X006644Y015538D02*
X006174Y015538D01*
X006174Y015420D02*
X006634Y015420D01*
X006666Y015301D02*
X006174Y015301D01*
X006174Y015183D02*
X006757Y015183D01*
X007190Y015183D02*
X012754Y015183D01*
X012754Y015064D02*
X006174Y015064D01*
X006258Y014946D02*
X012754Y014946D01*
X013194Y014946D02*
X013992Y014946D01*
X014024Y015064D02*
X013194Y015064D01*
X013194Y015183D02*
X014024Y015183D01*
X014024Y015301D02*
X013194Y015301D01*
X013194Y015420D02*
X014024Y015420D01*
X014024Y015538D02*
X013193Y015538D01*
X013075Y015657D02*
X014024Y015657D01*
X013910Y014827D02*
X013194Y014827D01*
X013194Y014709D02*
X013884Y014709D01*
X013900Y014590D02*
X013194Y014590D01*
X013194Y014471D02*
X013968Y014471D01*
X014224Y014697D02*
X014224Y016447D01*
X014020Y016724D02*
X006533Y016724D01*
X005774Y015538D02*
X000634Y015538D01*
X000634Y015420D02*
X005774Y015420D01*
X005774Y015301D02*
X000634Y015301D01*
X000634Y015183D02*
X005774Y015183D01*
X005774Y015064D02*
X000634Y015064D01*
X000634Y014946D02*
X005774Y014946D01*
X005811Y014827D02*
X000634Y014827D01*
X000634Y014709D02*
X005929Y014709D01*
X006048Y014590D02*
X000634Y014590D01*
X000634Y014471D02*
X006166Y014471D01*
X006285Y014353D02*
X000634Y014353D01*
X000634Y014234D02*
X006403Y014234D01*
X006522Y014116D02*
X000634Y014116D01*
X000634Y013997D02*
X006640Y013997D01*
X006649Y013879D02*
X000634Y013879D01*
X000634Y013760D02*
X006649Y013760D01*
X006649Y013642D02*
X002561Y013642D01*
X002541Y013650D02*
X002407Y013650D01*
X002283Y013599D01*
X002188Y013504D01*
X002137Y013380D01*
X002137Y013246D01*
X002188Y013122D01*
X002283Y013027D01*
X002407Y012976D01*
X002541Y012976D01*
X002665Y013027D01*
X002759Y013122D01*
X002811Y013246D01*
X002811Y013380D01*
X002759Y013504D01*
X002665Y013599D01*
X002541Y013650D01*
X002386Y013642D02*
X000634Y013642D01*
X000634Y013523D02*
X002207Y013523D01*
X002147Y013405D02*
X000634Y013405D01*
X000634Y013286D02*
X002137Y013286D01*
X002169Y013167D02*
X000634Y013167D01*
X000634Y013049D02*
X002261Y013049D01*
X002686Y013049D02*
X006649Y013049D01*
X006649Y013167D02*
X002778Y013167D01*
X002811Y013286D02*
X006649Y013286D01*
X006649Y013405D02*
X002801Y013405D01*
X002740Y013523D02*
X006649Y013523D01*
X007049Y013523D02*
X008149Y013523D01*
X008149Y013405D02*
X007049Y013405D01*
X007049Y013642D02*
X008149Y013642D01*
X008149Y013760D02*
X007049Y013760D01*
X007049Y013879D02*
X008149Y013879D01*
X008149Y013997D02*
X007049Y013997D01*
X007049Y014116D02*
X008149Y014116D01*
X008149Y014234D02*
X006969Y014234D01*
X006851Y014353D02*
X008087Y014353D01*
X008022Y014471D02*
X006732Y014471D01*
X006613Y014590D02*
X008009Y014590D01*
X008037Y014709D02*
X006495Y014709D01*
X006376Y014827D02*
X008123Y014827D01*
X008349Y012947D02*
X008349Y011072D01*
X008631Y011271D02*
X008742Y011271D01*
X008955Y011271D02*
X010524Y011271D01*
X010524Y011389D02*
X008549Y011389D01*
X008549Y011508D02*
X010524Y011508D01*
X010524Y011626D02*
X008549Y011626D01*
X008549Y011745D02*
X010445Y011745D01*
X010390Y011864D02*
X008549Y011864D01*
X008549Y011982D02*
X010384Y011982D01*
X010419Y012101D02*
X008549Y012101D01*
X008549Y012219D02*
X010515Y012219D01*
X010932Y012219D02*
X015773Y012219D01*
X015759Y012338D02*
X008549Y012338D01*
X008549Y012456D02*
X015786Y012456D01*
X015871Y012575D02*
X008549Y012575D01*
X006649Y012812D02*
X000634Y012812D01*
X000634Y012930D02*
X006649Y012930D01*
X006649Y011864D02*
X002668Y011864D01*
X002771Y011745D02*
X006305Y011745D01*
X006180Y011626D02*
X002811Y011626D01*
X002808Y011508D02*
X006134Y011508D01*
X006134Y011389D02*
X002759Y011389D01*
X002606Y011271D02*
X006179Y011271D01*
X006642Y011745D02*
X006649Y011745D01*
X008849Y010947D02*
X010599Y009197D01*
X016349Y009197D01*
X016474Y009322D01*
X016474Y012197D01*
X016349Y012322D01*
X016099Y012322D01*
X015839Y012101D02*
X011028Y012101D01*
X011064Y011982D02*
X015903Y011982D01*
X015800Y011864D02*
X011057Y011864D01*
X011003Y011745D02*
X015759Y011745D01*
X015760Y011626D02*
X010924Y011626D01*
X010924Y011508D02*
X015809Y011508D01*
X015899Y011389D02*
X010924Y011389D01*
X010924Y011271D02*
X015899Y011271D01*
X015823Y011152D02*
X010924Y011152D01*
X010924Y011034D02*
X015767Y011034D01*
X015759Y010915D02*
X010924Y010915D01*
X010924Y010797D02*
X015793Y010797D01*
X015887Y010678D02*
X010924Y010678D01*
X010924Y010560D02*
X016274Y010560D01*
X016274Y010441D02*
X010924Y010441D01*
X010924Y010322D02*
X016274Y010322D01*
X016274Y010204D02*
X010924Y010204D01*
X010924Y010085D02*
X016274Y010085D01*
X016274Y009967D02*
X010924Y009967D01*
X010924Y009848D02*
X015269Y009848D01*
X015474Y009572D02*
X010849Y009572D01*
X010724Y009697D01*
X010724Y011947D01*
X010524Y011152D02*
X009124Y011152D01*
X009181Y011034D02*
X010524Y011034D01*
X010524Y010915D02*
X009189Y010915D01*
X009282Y010797D02*
X010524Y010797D01*
X010524Y010678D02*
X009400Y010678D01*
X009519Y010560D02*
X010524Y010560D01*
X010524Y010441D02*
X009637Y010441D01*
X009756Y010322D02*
X010524Y010322D01*
X010524Y010204D02*
X009875Y010204D01*
X009993Y010085D02*
X010524Y010085D01*
X010524Y009967D02*
X010112Y009967D01*
X010230Y009848D02*
X010524Y009848D01*
X010524Y009730D02*
X010349Y009730D01*
X010467Y009611D02*
X010527Y009611D01*
X010586Y009493D02*
X010645Y009493D01*
X008914Y009848D02*
X007981Y009848D01*
X011751Y008070D02*
X012196Y008070D01*
X012213Y008087D02*
X012084Y007957D01*
X012014Y007788D01*
X012014Y007605D01*
X012084Y007436D01*
X012213Y007307D01*
X012382Y007237D01*
X012565Y007237D01*
X012734Y007307D01*
X012864Y007436D01*
X012934Y007605D01*
X012934Y007788D01*
X012864Y007957D01*
X012734Y008087D01*
X012565Y008157D01*
X012382Y008157D01*
X012213Y008087D01*
X012081Y007952D02*
X011866Y007952D01*
X011915Y007833D02*
X012032Y007833D01*
X012014Y007714D02*
X011934Y007714D01*
X011930Y007596D02*
X012018Y007596D01*
X012067Y007477D02*
X011881Y007477D01*
X011786Y007359D02*
X012161Y007359D01*
X012374Y007240D02*
X011573Y007240D01*
X012573Y007240D02*
X013326Y007240D01*
X013361Y007229D02*
X013434Y007217D01*
X013434Y007657D01*
X013514Y007657D01*
X013514Y007737D01*
X013953Y007737D01*
X013942Y007809D01*
X013919Y007881D01*
X013884Y007948D01*
X013840Y008010D01*
X013786Y008063D01*
X013725Y008107D01*
X013658Y008142D01*
X013586Y008165D01*
X013514Y008176D01*
X013514Y007737D01*
X013434Y007737D01*
X013434Y008176D01*
X013361Y008165D01*
X013289Y008142D01*
X013222Y008107D01*
X013161Y008063D01*
X013108Y008010D01*
X013063Y007948D01*
X013029Y007881D01*
X013006Y007809D01*
X012994Y007737D01*
X013433Y007737D01*
X013433Y007657D01*
X012994Y007657D01*
X013006Y007584D01*
X013029Y007513D01*
X013063Y007445D01*
X013108Y007384D01*
X013161Y007331D01*
X013222Y007286D01*
X013289Y007252D01*
X013361Y007229D01*
X013434Y007240D02*
X013514Y007240D01*
X013514Y007217D02*
X013586Y007229D01*
X013658Y007252D01*
X013725Y007286D01*
X013786Y007331D01*
X013840Y007384D01*
X013884Y007445D01*
X013919Y007513D01*
X013942Y007584D01*
X013953Y007657D01*
X013514Y007657D01*
X013514Y007217D01*
X013622Y007240D02*
X014374Y007240D01*
X014382Y007237D02*
X014565Y007237D01*
X014734Y007307D01*
X014864Y007436D01*
X014934Y007605D01*
X014934Y007788D01*
X014864Y007957D01*
X014734Y008087D01*
X014565Y008157D01*
X014382Y008157D01*
X014213Y008087D01*
X014084Y007957D01*
X014014Y007788D01*
X014014Y007605D01*
X014084Y007436D01*
X014213Y007307D01*
X014382Y007237D01*
X014573Y007240D02*
X015092Y007240D01*
X015014Y007359D02*
X014786Y007359D01*
X014881Y007477D02*
X015014Y007477D01*
X015014Y007596D02*
X014930Y007596D01*
X014934Y007714D02*
X015014Y007714D01*
X015014Y007833D02*
X014915Y007833D01*
X014866Y007952D02*
X015014Y007952D01*
X015014Y008070D02*
X014751Y008070D01*
X014196Y008070D02*
X013777Y008070D01*
X013882Y007952D02*
X014081Y007952D01*
X014032Y007833D02*
X013934Y007833D01*
X014014Y007714D02*
X013514Y007714D01*
X013433Y007714D02*
X012934Y007714D01*
X012930Y007596D02*
X013004Y007596D01*
X013047Y007477D02*
X012881Y007477D01*
X012786Y007359D02*
X013133Y007359D01*
X013434Y007359D02*
X013514Y007359D01*
X013514Y007477D02*
X013434Y007477D01*
X013434Y007596D02*
X013514Y007596D01*
X013514Y007833D02*
X013434Y007833D01*
X013434Y007952D02*
X013514Y007952D01*
X013514Y008070D02*
X013434Y008070D01*
X013171Y008070D02*
X012751Y008070D01*
X012866Y007952D02*
X013065Y007952D01*
X013013Y007833D02*
X012915Y007833D01*
X013814Y007359D02*
X014161Y007359D01*
X014067Y007477D02*
X013901Y007477D01*
X013944Y007596D02*
X014018Y007596D01*
X015809Y009493D02*
X016274Y009493D01*
X016274Y009611D02*
X015814Y009611D01*
X015776Y009730D02*
X016274Y009730D01*
X016274Y009848D02*
X015678Y009848D01*
X016099Y010947D02*
X016099Y011697D01*
X016674Y012101D02*
X019774Y012101D01*
X019974Y012322D02*
X019974Y009072D01*
X020084Y008900D02*
X023269Y008900D01*
X023274Y009018D02*
X020174Y009018D01*
X020174Y009137D02*
X023274Y009137D01*
X023274Y009256D02*
X020174Y009256D01*
X020174Y009374D02*
X023274Y009374D01*
X023274Y009493D02*
X020174Y009493D01*
X020174Y009611D02*
X023274Y009611D01*
X023274Y009730D02*
X020174Y009730D01*
X020174Y009848D02*
X023274Y009848D01*
X022848Y009967D02*
X020174Y009967D01*
X020174Y010085D02*
X022777Y010085D01*
X022759Y010204D02*
X020174Y010204D01*
X020174Y010322D02*
X022783Y010322D01*
X022862Y010441D02*
X020174Y010441D01*
X020174Y010560D02*
X022899Y010560D01*
X022899Y010678D02*
X020174Y010678D01*
X020174Y010797D02*
X022899Y010797D01*
X022899Y010915D02*
X020174Y010915D01*
X020174Y011034D02*
X022899Y011034D01*
X022899Y011152D02*
X020174Y011152D01*
X020174Y011271D02*
X022899Y011271D01*
X022899Y011389D02*
X020174Y011389D01*
X020174Y011508D02*
X022809Y011508D01*
X022760Y011626D02*
X020174Y011626D01*
X020174Y011745D02*
X022759Y011745D01*
X022800Y011864D02*
X020174Y011864D01*
X020174Y011982D02*
X022903Y011982D01*
X022846Y012219D02*
X020174Y012219D01*
X020174Y012101D02*
X023274Y012101D01*
X023099Y011697D02*
X023099Y010197D01*
X019599Y010572D02*
X019599Y011697D01*
X019974Y012322D02*
X019849Y012447D01*
X019599Y012447D01*
X019833Y012693D02*
X022864Y012693D01*
X022784Y012575D02*
X020004Y012575D01*
X020122Y012456D02*
X022759Y012456D01*
X022776Y012338D02*
X020174Y012338D01*
X020968Y014471D02*
X017979Y014471D01*
X018047Y014590D02*
X020900Y014590D01*
X020884Y014709D02*
X018064Y014709D01*
X018038Y014827D02*
X020910Y014827D01*
X020992Y014946D02*
X017956Y014946D01*
X017924Y015064D02*
X021024Y015064D01*
X021024Y015183D02*
X017924Y015183D01*
X017924Y015301D02*
X021024Y015301D01*
X021020Y015420D02*
X017924Y015420D01*
X017924Y015538D02*
X020921Y015538D01*
X020884Y015657D02*
X017924Y015657D01*
X017924Y015775D02*
X020888Y015775D01*
X020940Y015894D02*
X018018Y015894D01*
X018064Y016013D02*
X021097Y016013D01*
X021224Y015697D02*
X021224Y014697D01*
X035684Y018265D02*
X000634Y018265D01*
X003178Y007833D02*
X006254Y007833D01*
X006254Y007714D02*
X003162Y007714D01*
X003133Y007596D02*
X006254Y007596D01*
X006254Y007477D02*
X003091Y007477D01*
X003033Y007359D02*
X006254Y007359D01*
X006254Y007240D02*
X002958Y007240D01*
X002860Y007122D02*
X006363Y007122D01*
D15*
X007599Y007322D03*
X007349Y008197D03*
X009724Y008322D03*
X007849Y009572D03*
X007724Y010072D03*
X007974Y010572D03*
X008849Y010947D03*
X008349Y011072D03*
X006849Y010197D03*
X006474Y011447D03*
X007349Y012447D03*
X010724Y011947D03*
X012849Y012572D03*
X013724Y013072D03*
X015474Y013947D03*
X014224Y014697D03*
X013474Y014947D03*
X014224Y016447D03*
X016724Y014947D03*
X017724Y014697D03*
X018974Y013947D03*
X020724Y013072D03*
X019599Y012447D03*
X018974Y011947D03*
X019599Y011697D03*
X019599Y010572D03*
X022474Y011947D03*
X023099Y011697D03*
X023099Y012447D03*
X024224Y013072D03*
X022474Y013947D03*
X021224Y014697D03*
X020224Y014947D03*
X021224Y015697D03*
X023724Y014947D03*
X025974Y013947D03*
X026599Y012447D03*
X025974Y011947D03*
X023099Y010197D03*
X026599Y009822D03*
X029349Y009947D03*
X028974Y014697D03*
X030974Y014697D03*
X017724Y016072D03*
X017224Y013072D03*
X016099Y012322D03*
X015474Y011947D03*
X016099Y011697D03*
X016099Y010947D03*
X015474Y009572D03*
X010099Y014572D03*
X008349Y014572D03*
X006974Y015447D03*
X008724Y017447D03*
X003474Y009447D03*
D16*
X006474Y011447D02*
X006474Y007322D01*
X007599Y007322D01*
X012974Y013947D02*
X012974Y015447D01*
X006974Y015447D01*
X012974Y013947D02*
X015474Y013947D01*
X018974Y013947D01*
X022474Y013947D01*
X025974Y013947D01*
X028974Y013947D01*
X028974Y014697D01*
M02*
