G75*
G70*
%OFA0B0*%
%FSLAX24Y24*%
%IPPOS*%
%LPD*%
%AMOC8*
5,1,8,0,0,1.08239X$1,22.5*
%
%ADD10C,0.0000*%
%ADD11R,0.0236X0.0866*%
%ADD12R,0.0640X0.0640*%
%ADD13OC8,0.0640*%
%ADD14R,0.0394X0.0433*%
%ADD15R,0.0984X0.0197*%
%ADD16R,0.0984X0.0787*%
%ADD17R,0.0472X0.0217*%
%ADD18R,0.0551X0.0630*%
%ADD19R,0.0433X0.0394*%
%ADD20R,0.0137X0.0550*%
%ADD21R,0.0630X0.0551*%
%ADD22R,0.0787X0.0709*%
%ADD23R,0.0217X0.0472*%
%ADD24C,0.2100*%
%ADD25C,0.0640*%
%ADD26R,0.0472X0.0472*%
%ADD27R,0.0800X0.0260*%
%ADD28C,0.0160*%
%ADD29C,0.0400*%
%ADD30C,0.0120*%
D10*
X000474Y006447D02*
X000474Y018443D01*
X035844Y018443D01*
X035844Y006447D01*
X000474Y006447D01*
X002297Y011581D02*
X002299Y011607D01*
X002305Y011633D01*
X002315Y011658D01*
X002328Y011681D01*
X002344Y011701D01*
X002364Y011719D01*
X002386Y011734D01*
X002409Y011746D01*
X002435Y011754D01*
X002461Y011758D01*
X002487Y011758D01*
X002513Y011754D01*
X002539Y011746D01*
X002563Y011734D01*
X002584Y011719D01*
X002604Y011701D01*
X002620Y011681D01*
X002633Y011658D01*
X002643Y011633D01*
X002649Y011607D01*
X002651Y011581D01*
X002649Y011555D01*
X002643Y011529D01*
X002633Y011504D01*
X002620Y011481D01*
X002604Y011461D01*
X002584Y011443D01*
X002562Y011428D01*
X002539Y011416D01*
X002513Y011408D01*
X002487Y011404D01*
X002461Y011404D01*
X002435Y011408D01*
X002409Y011416D01*
X002385Y011428D01*
X002364Y011443D01*
X002344Y011461D01*
X002328Y011481D01*
X002315Y011504D01*
X002305Y011529D01*
X002299Y011555D01*
X002297Y011581D01*
X002297Y013313D02*
X002299Y013339D01*
X002305Y013365D01*
X002315Y013390D01*
X002328Y013413D01*
X002344Y013433D01*
X002364Y013451D01*
X002386Y013466D01*
X002409Y013478D01*
X002435Y013486D01*
X002461Y013490D01*
X002487Y013490D01*
X002513Y013486D01*
X002539Y013478D01*
X002563Y013466D01*
X002584Y013451D01*
X002604Y013433D01*
X002620Y013413D01*
X002633Y013390D01*
X002643Y013365D01*
X002649Y013339D01*
X002651Y013313D01*
X002649Y013287D01*
X002643Y013261D01*
X002633Y013236D01*
X002620Y013213D01*
X002604Y013193D01*
X002584Y013175D01*
X002562Y013160D01*
X002539Y013148D01*
X002513Y013140D01*
X002487Y013136D01*
X002461Y013136D01*
X002435Y013140D01*
X002409Y013148D01*
X002385Y013160D01*
X002364Y013175D01*
X002344Y013193D01*
X002328Y013213D01*
X002315Y013236D01*
X002305Y013261D01*
X002299Y013287D01*
X002297Y013313D01*
D11*
X013224Y013971D03*
X013724Y013971D03*
X014224Y013971D03*
X014724Y013971D03*
X016724Y013971D03*
X017224Y013971D03*
X017724Y013971D03*
X018224Y013971D03*
X020224Y013971D03*
X020724Y013971D03*
X021224Y013971D03*
X021724Y013971D03*
X023724Y013971D03*
X024224Y013971D03*
X024724Y013971D03*
X025224Y013971D03*
X025224Y011923D03*
X024724Y011923D03*
X024224Y011923D03*
X023724Y011923D03*
X021724Y011923D03*
X021224Y011923D03*
X020724Y011923D03*
X020224Y011923D03*
X018224Y011923D03*
X017724Y011923D03*
X017224Y011923D03*
X016724Y011923D03*
X014724Y011923D03*
X014224Y011923D03*
X013724Y011923D03*
X013224Y011923D03*
D12*
X015474Y007697D03*
X029974Y007697D03*
X033474Y014447D03*
X027974Y017197D03*
D13*
X028974Y017197D03*
X029974Y017197D03*
X030974Y017197D03*
X031974Y017197D03*
X033474Y013447D03*
X033474Y012447D03*
X033474Y011447D03*
X033474Y010447D03*
D14*
X028558Y007697D03*
X027889Y007697D03*
X025974Y012612D03*
X025974Y013282D03*
X022474Y013282D03*
X022474Y012612D03*
X018974Y012612D03*
X018974Y013282D03*
X015474Y013282D03*
X015474Y012612D03*
X007849Y015612D03*
X007849Y016282D03*
X009639Y017447D03*
X010308Y017447D03*
X005808Y017447D03*
X005139Y017447D03*
X005849Y013657D03*
X005849Y012987D03*
X016639Y007697D03*
X017308Y007697D03*
D15*
X003458Y011817D03*
X003458Y012132D03*
X003458Y012447D03*
X003458Y012762D03*
X003458Y013077D03*
D16*
X003458Y014219D03*
X001293Y014219D03*
X001293Y010675D03*
X003458Y010675D03*
D17*
X005337Y014448D03*
X005337Y014822D03*
X005337Y015196D03*
X006361Y015196D03*
X006361Y014448D03*
D18*
X004474Y014856D03*
X004474Y016037D03*
D19*
X005514Y016072D03*
X006183Y016072D03*
X006849Y013657D03*
X006849Y012987D03*
X008139Y007697D03*
X008808Y007697D03*
X027889Y009197D03*
X028558Y009197D03*
D20*
X010137Y009008D03*
X009881Y009008D03*
X009625Y009008D03*
X009369Y009008D03*
X009113Y009008D03*
X008858Y009008D03*
X008602Y009008D03*
X008346Y009008D03*
X008090Y009008D03*
X007834Y009008D03*
X007578Y009008D03*
X007322Y009008D03*
X007066Y009008D03*
X006810Y009008D03*
X006810Y011886D03*
X007066Y011886D03*
X007322Y011886D03*
X007578Y011886D03*
X007834Y011886D03*
X008090Y011886D03*
X008346Y011886D03*
X008602Y011886D03*
X008858Y011886D03*
X009113Y011886D03*
X009369Y011886D03*
X009625Y011886D03*
X009881Y011886D03*
X010137Y011886D03*
D21*
X010689Y012822D03*
X009508Y012822D03*
D22*
X009272Y013947D03*
X010925Y013947D03*
X010925Y015947D03*
X009272Y015947D03*
D23*
X008348Y013959D03*
X007600Y013959D03*
X007600Y012935D03*
X007974Y012935D03*
X008348Y012935D03*
D24*
X001974Y016947D03*
X001974Y007947D03*
X034349Y007947D03*
X034349Y016947D03*
D25*
X014474Y007697D03*
X013474Y007697D03*
X012474Y007697D03*
X011474Y007697D03*
D26*
X011560Y017447D03*
X012387Y017447D03*
X007887Y017447D03*
X007060Y017447D03*
D27*
X027994Y014697D03*
X027994Y014197D03*
X027994Y013697D03*
X027994Y013197D03*
X027994Y012697D03*
X027994Y012197D03*
X027994Y011697D03*
X027994Y011197D03*
X027994Y010697D03*
X027994Y010197D03*
X031954Y010197D03*
X031954Y010697D03*
X031954Y011197D03*
X031954Y011697D03*
X031954Y012197D03*
X031954Y012697D03*
X031954Y013197D03*
X031954Y013697D03*
X031954Y014197D03*
X031954Y014697D03*
D28*
X032534Y014697D01*
X032534Y014851D01*
X032521Y014896D01*
X032498Y014937D01*
X032464Y014971D01*
X032423Y014995D01*
X032377Y015007D01*
X031954Y015007D01*
X031954Y014697D01*
X031954Y014697D01*
X031953Y014697D01*
X031953Y014697D01*
X031374Y014697D01*
X031374Y014851D01*
X031386Y014896D01*
X031410Y014937D01*
X031443Y014971D01*
X031484Y014995D01*
X031530Y015007D01*
X031953Y015007D01*
X031953Y014697D01*
X031374Y014697D01*
X031374Y014543D01*
X031386Y014497D01*
X031410Y014456D01*
X031419Y014447D01*
X031410Y014437D01*
X031386Y014396D01*
X031374Y014351D01*
X031374Y014197D01*
X031953Y014197D01*
X031953Y014197D01*
X031374Y014197D01*
X031374Y014043D01*
X031386Y013997D01*
X031410Y013956D01*
X031419Y013947D01*
X031410Y013937D01*
X031386Y013896D01*
X031374Y013851D01*
X031374Y013697D01*
X031953Y013697D01*
X031953Y013697D01*
X031374Y013697D01*
X031374Y013543D01*
X031386Y013497D01*
X031410Y013456D01*
X031419Y013447D01*
X031410Y013437D01*
X031386Y013396D01*
X031374Y013351D01*
X031374Y013197D01*
X031953Y013197D01*
X031953Y013197D01*
X031374Y013197D01*
X031374Y013043D01*
X031386Y012997D01*
X031410Y012956D01*
X031419Y012947D01*
X031410Y012937D01*
X031386Y012896D01*
X031374Y012851D01*
X031374Y012697D01*
X031953Y012697D01*
X031953Y012697D01*
X031374Y012697D01*
X031374Y012543D01*
X031386Y012497D01*
X031410Y012456D01*
X031433Y012433D01*
X031394Y012393D01*
X031394Y012001D01*
X031447Y011947D01*
X031394Y011893D01*
X031394Y011501D01*
X031447Y011447D01*
X031394Y011393D01*
X031394Y011001D01*
X031447Y010947D01*
X031394Y010893D01*
X031394Y010501D01*
X031447Y010447D01*
X031417Y010417D01*
X029690Y010417D01*
X029508Y010417D01*
X029398Y010307D01*
X029277Y010307D01*
X029145Y010252D01*
X029044Y010151D01*
X028989Y010019D01*
X028989Y009875D01*
X029044Y009743D01*
X029145Y009642D01*
X029277Y009587D01*
X029420Y009587D01*
X029553Y009642D01*
X029654Y009743D01*
X029709Y009875D01*
X029709Y009977D01*
X031417Y009977D01*
X031487Y009907D01*
X032420Y009907D01*
X032514Y010001D01*
X032514Y010393D01*
X032460Y010447D01*
X032490Y010477D01*
X032565Y010477D01*
X032694Y010606D01*
X033165Y011077D01*
X033275Y010967D01*
X033672Y010967D01*
X033954Y011248D01*
X033954Y011646D01*
X033672Y011927D01*
X033515Y011927D01*
X033555Y011967D01*
X033672Y011967D01*
X033954Y012248D01*
X033954Y012646D01*
X033672Y012927D01*
X033275Y012927D01*
X033069Y012721D01*
X033069Y012731D01*
X033305Y012967D01*
X033672Y012967D01*
X033954Y013248D01*
X033954Y013646D01*
X033672Y013927D01*
X033275Y013927D01*
X032994Y013646D01*
X032994Y013278D01*
X032819Y013103D01*
X032819Y013481D01*
X033305Y013967D01*
X033860Y013967D01*
X033954Y014061D01*
X033954Y014833D01*
X033860Y014927D01*
X033087Y014927D01*
X032994Y014833D01*
X032994Y014278D01*
X032534Y013818D01*
X032534Y013851D01*
X032521Y013896D01*
X032498Y013937D01*
X032488Y013947D01*
X032498Y013956D01*
X032521Y013997D01*
X032534Y014043D01*
X032534Y014197D01*
X032534Y014351D01*
X032521Y014396D01*
X032498Y014437D01*
X032488Y014447D01*
X032498Y014456D01*
X032521Y014497D01*
X032534Y014543D01*
X032534Y014697D01*
X031954Y014697D01*
X031954Y014696D02*
X031954Y014387D01*
X031954Y014197D01*
X032534Y014197D01*
X031954Y014197D01*
X031954Y014197D01*
X031953Y014197D01*
X031953Y014387D01*
X031953Y014696D01*
X031954Y014696D01*
X031953Y014704D02*
X031954Y014704D01*
X031953Y014862D02*
X031954Y014862D01*
X032531Y014862D02*
X033023Y014862D01*
X032994Y014704D02*
X032534Y014704D01*
X032534Y014545D02*
X032994Y014545D01*
X032994Y014386D02*
X032524Y014386D01*
X032534Y014228D02*
X032944Y014228D01*
X032785Y014069D02*
X032534Y014069D01*
X032513Y013911D02*
X032626Y013911D01*
X033090Y013752D02*
X033100Y013752D01*
X032994Y013594D02*
X032932Y013594D01*
X032994Y013435D02*
X032819Y013435D01*
X032819Y013277D02*
X032992Y013277D01*
X032834Y013118D02*
X032819Y013118D01*
X033139Y012801D02*
X033149Y012801D01*
X033297Y012960D02*
X035664Y012960D01*
X035664Y013118D02*
X033824Y013118D01*
X033954Y013277D02*
X035664Y013277D01*
X035664Y013435D02*
X033954Y013435D01*
X033954Y013594D02*
X035664Y013594D01*
X035664Y013752D02*
X033847Y013752D01*
X033689Y013911D02*
X035664Y013911D01*
X035664Y014069D02*
X033954Y014069D01*
X033954Y014228D02*
X035664Y014228D01*
X035664Y014386D02*
X033954Y014386D01*
X033954Y014545D02*
X035664Y014545D01*
X035664Y014704D02*
X033954Y014704D01*
X033925Y014862D02*
X035664Y014862D01*
X035664Y015021D02*
X029133Y015021D01*
X029178Y015002D02*
X029045Y015057D01*
X028902Y015057D01*
X028770Y015002D01*
X028705Y014937D01*
X028510Y014937D01*
X028460Y014987D01*
X027527Y014987D01*
X027434Y014893D01*
X027434Y014501D01*
X027487Y014447D01*
X027434Y014393D01*
X027434Y014001D01*
X027487Y013947D01*
X027434Y013893D01*
X027434Y013501D01*
X027487Y013447D01*
X027434Y013393D01*
X027434Y013001D01*
X027487Y012947D01*
X027434Y012893D01*
X027434Y012501D01*
X027487Y012447D01*
X027457Y012417D01*
X027383Y012417D01*
X027254Y012288D01*
X026508Y011542D01*
X025502Y011542D01*
X025502Y012423D01*
X025464Y012461D01*
X025464Y012722D01*
X025598Y012857D01*
X025597Y012853D01*
X025597Y012631D01*
X025955Y012631D01*
X025955Y012594D01*
X025597Y012594D01*
X025597Y012372D01*
X025609Y012326D01*
X025633Y012285D01*
X025666Y012252D01*
X025707Y012228D01*
X025753Y012216D01*
X025955Y012216D01*
X025955Y012594D01*
X025992Y012594D01*
X025992Y012216D01*
X026194Y012216D01*
X026240Y012228D01*
X026281Y012252D01*
X026287Y012258D01*
X026294Y012243D01*
X026395Y012142D01*
X026527Y012087D01*
X026670Y012087D01*
X026803Y012142D01*
X026904Y012243D01*
X026959Y012375D01*
X026959Y012519D01*
X026904Y012651D01*
X026819Y012736D01*
X026819Y014106D01*
X026819Y014288D01*
X026694Y014413D01*
X026565Y014542D01*
X025430Y014542D01*
X025408Y014564D01*
X025039Y014564D01*
X024974Y014498D01*
X024944Y014528D01*
X024944Y015102D01*
X029008Y015102D01*
X029190Y015102D01*
X030805Y016717D01*
X031172Y016717D01*
X031454Y016998D01*
X031454Y017396D01*
X031172Y017677D01*
X030775Y017677D01*
X030494Y017396D01*
X030494Y017028D01*
X029008Y015542D01*
X028630Y015542D01*
X029805Y016717D01*
X030172Y016717D01*
X030454Y016998D01*
X030454Y017396D01*
X030172Y017677D01*
X029775Y017677D01*
X029494Y017396D01*
X029494Y017028D01*
X028383Y015917D01*
X028005Y015917D01*
X028805Y016717D01*
X029172Y016717D01*
X029454Y016998D01*
X029454Y017396D01*
X029172Y017677D01*
X028775Y017677D01*
X028494Y017396D01*
X028494Y017028D01*
X028454Y016988D01*
X028454Y017583D01*
X028360Y017677D01*
X027587Y017677D01*
X027494Y017583D01*
X027494Y017028D01*
X027133Y016667D01*
X014513Y016667D01*
X014428Y016752D01*
X014295Y016807D01*
X014152Y016807D01*
X014020Y016752D01*
X013935Y016667D01*
X012383Y016667D01*
X012254Y016538D01*
X011633Y015917D01*
X011633Y015917D01*
X011504Y015788D01*
X011504Y012288D01*
X011078Y011863D01*
X011084Y011875D01*
X011084Y012019D01*
X011029Y012151D01*
X010928Y012252D01*
X010795Y012307D01*
X010652Y012307D01*
X010520Y012252D01*
X010419Y012151D01*
X010400Y012106D01*
X010366Y012106D01*
X010366Y012228D01*
X010272Y012321D01*
X010016Y012321D01*
X009760Y012321D01*
X009504Y012321D01*
X009248Y012321D01*
X009078Y012321D01*
X009078Y012365D01*
X009113Y012400D01*
X009127Y012386D01*
X009889Y012386D01*
X009983Y012480D01*
X009983Y013164D01*
X009889Y013257D01*
X009127Y013257D01*
X009033Y013164D01*
X009033Y012917D01*
X009008Y012917D01*
X008879Y012788D01*
X008638Y012547D01*
X008638Y012365D01*
X008638Y012321D01*
X008497Y012321D01*
X008484Y012329D01*
X008438Y012341D01*
X008346Y012341D01*
X008346Y011887D01*
X008346Y011887D01*
X008346Y012341D01*
X008310Y012341D01*
X008310Y012422D01*
X008212Y012520D01*
X008216Y012519D01*
X008347Y012519D01*
X008347Y012935D01*
X008348Y012935D01*
X008348Y012935D01*
X008636Y012935D01*
X008636Y012675D01*
X008624Y012629D01*
X008600Y012588D01*
X008566Y012555D01*
X008525Y012531D01*
X008480Y012519D01*
X008348Y012519D01*
X008348Y012935D01*
X008636Y012935D01*
X008636Y013195D01*
X008624Y013241D01*
X008600Y013282D01*
X008566Y013315D01*
X008525Y013339D01*
X008480Y013351D01*
X008348Y013351D01*
X008348Y012936D01*
X008347Y012936D01*
X008347Y013351D01*
X008216Y013351D01*
X008194Y013345D01*
X008194Y013563D01*
X008522Y013563D01*
X008616Y013656D01*
X008616Y014261D01*
X008581Y014296D01*
X008654Y014368D01*
X008709Y014500D01*
X008709Y014644D01*
X008674Y014727D01*
X010508Y014727D01*
X010705Y014529D01*
X010705Y014461D01*
X010465Y014461D01*
X010372Y014368D01*
X010372Y013526D01*
X010465Y013433D01*
X011385Y013433D01*
X011479Y013526D01*
X011479Y014368D01*
X011385Y014461D01*
X011145Y014461D01*
X011145Y014529D01*
X011145Y014711D01*
X010819Y015038D01*
X010690Y015167D01*
X008315Y015167D01*
X008133Y015167D01*
X007883Y014917D01*
X007754Y014788D01*
X007754Y014667D01*
X007633Y014667D01*
X007444Y014667D01*
X007444Y015332D01*
X007492Y015332D01*
X007492Y015329D01*
X007586Y015236D01*
X008112Y015236D01*
X008206Y015329D01*
X008206Y015332D01*
X008271Y015332D01*
X008360Y015368D01*
X008427Y015436D01*
X008698Y015707D01*
X008718Y015707D01*
X008718Y015526D01*
X008812Y015433D01*
X009732Y015433D01*
X009826Y015526D01*
X009826Y015707D01*
X010372Y015707D01*
X010372Y015526D01*
X010465Y015433D01*
X011385Y015433D01*
X011479Y015526D01*
X011479Y016368D01*
X011385Y016461D01*
X010465Y016461D01*
X010372Y016368D01*
X010372Y016187D01*
X009826Y016187D01*
X009826Y016368D01*
X009732Y016461D01*
X008812Y016461D01*
X008718Y016368D01*
X008718Y016187D01*
X008646Y016187D01*
X008551Y016187D01*
X008463Y016150D01*
X008206Y015893D01*
X008206Y015895D01*
X008168Y015933D01*
X008190Y015954D01*
X008213Y015996D01*
X008226Y016041D01*
X008226Y016263D01*
X007867Y016263D01*
X007867Y016300D01*
X007830Y016300D01*
X007830Y016263D01*
X007472Y016263D01*
X007472Y016041D01*
X007484Y015996D01*
X007508Y015954D01*
X007530Y015933D01*
X007492Y015895D01*
X007492Y015812D01*
X007444Y015812D01*
X007444Y016413D01*
X007315Y016542D01*
X007194Y016542D01*
X007194Y016912D01*
X007065Y017041D01*
X006883Y017041D01*
X005334Y017041D01*
X005336Y017070D01*
X005402Y017070D01*
X005474Y017142D01*
X005545Y017070D01*
X006071Y017070D01*
X006165Y017164D01*
X006165Y017227D01*
X006664Y017227D01*
X006664Y017144D01*
X006758Y017051D01*
X007363Y017051D01*
X007456Y017144D01*
X007456Y017749D01*
X007363Y017843D01*
X006758Y017843D01*
X006664Y017749D01*
X006664Y017667D01*
X006165Y017667D01*
X006165Y017730D01*
X006071Y017823D01*
X005545Y017823D01*
X005474Y017752D01*
X005402Y017823D01*
X004876Y017823D01*
X004782Y017730D01*
X004782Y017164D01*
X004876Y017070D01*
X004895Y017070D01*
X004885Y016918D01*
X004880Y016912D01*
X004880Y016828D01*
X004874Y016744D01*
X004880Y016738D01*
X004880Y016730D01*
X004939Y016670D01*
X004995Y016607D01*
X005003Y016607D01*
X005009Y016601D01*
X005093Y016601D01*
X005177Y016596D01*
X005183Y016601D01*
X006754Y016601D01*
X006754Y016542D01*
X006315Y016542D01*
X006133Y016542D01*
X006019Y016429D01*
X005901Y016429D01*
X005863Y016391D01*
X005841Y016413D01*
X005800Y016436D01*
X005754Y016449D01*
X005532Y016449D01*
X005532Y016091D01*
X005496Y016091D01*
X005496Y016449D01*
X005274Y016449D01*
X005228Y016436D01*
X005187Y016413D01*
X005153Y016379D01*
X005130Y016338D01*
X005118Y016292D01*
X005118Y016090D01*
X005495Y016090D01*
X005495Y016053D01*
X005118Y016053D01*
X005118Y015851D01*
X005130Y015806D01*
X005153Y015765D01*
X005187Y015731D01*
X005228Y015707D01*
X005274Y015695D01*
X005496Y015695D01*
X005496Y016053D01*
X005532Y016053D01*
X005532Y015695D01*
X005754Y015695D01*
X005800Y015707D01*
X005841Y015731D01*
X005863Y015753D01*
X005901Y015715D01*
X006004Y015715D01*
X006004Y015410D01*
X005964Y015370D01*
X005964Y015021D01*
X006004Y014982D01*
X006004Y014662D01*
X005964Y014622D01*
X005964Y014273D01*
X006004Y014234D01*
X006004Y014053D01*
X005867Y014053D01*
X005867Y013675D01*
X005830Y013675D01*
X005830Y013638D01*
X005472Y013638D01*
X005472Y013416D01*
X005484Y013371D01*
X005508Y013329D01*
X005530Y013308D01*
X005514Y013292D01*
X005508Y013292D01*
X005379Y013163D01*
X005379Y012981D01*
X005379Y012856D01*
X005492Y012743D01*
X005492Y012704D01*
X005586Y012611D01*
X006004Y012611D01*
X006004Y011106D01*
X006133Y010977D01*
X006315Y010977D01*
X006846Y010977D01*
X006846Y010821D01*
X006846Y010638D01*
X006933Y010552D01*
X006920Y010557D01*
X006777Y010557D01*
X006645Y010502D01*
X006544Y010401D01*
X006489Y010269D01*
X006489Y010125D01*
X006544Y009993D01*
X006645Y009892D01*
X006777Y009837D01*
X006898Y009837D01*
X007102Y009632D01*
X007102Y009443D01*
X006945Y009443D01*
X006676Y009443D01*
X006582Y009349D01*
X006582Y009275D01*
X004819Y011038D01*
X004819Y012538D01*
X004690Y012667D01*
X004375Y012982D01*
X004195Y012982D01*
X005065Y013852D01*
X005472Y013852D01*
X005472Y013675D01*
X005830Y013675D01*
X005830Y014053D01*
X005694Y014053D01*
X005694Y014163D01*
X005694Y014234D01*
X005733Y014273D01*
X005733Y014622D01*
X005730Y014625D01*
X005741Y014644D01*
X005753Y014690D01*
X005753Y014822D01*
X005753Y014954D01*
X005741Y015000D01*
X005730Y015018D01*
X005733Y015021D01*
X005733Y015370D01*
X005694Y015410D01*
X005694Y015413D01*
X005565Y015542D01*
X005383Y015542D01*
X004008Y015542D01*
X003879Y015413D01*
X003879Y015231D01*
X003879Y014772D01*
X002900Y014772D01*
X002806Y014679D01*
X002806Y014090D01*
X002754Y014038D01*
X002754Y013856D01*
X002754Y013538D01*
X002676Y013616D01*
X002545Y013670D01*
X002403Y013670D01*
X002271Y013616D01*
X002171Y013515D01*
X002117Y013384D01*
X002117Y013242D01*
X002171Y013111D01*
X002271Y013010D01*
X002403Y012956D01*
X002545Y012956D01*
X002676Y013010D01*
X002754Y013088D01*
X002754Y012981D01*
X002806Y012929D01*
X002806Y012912D01*
X002806Y012597D01*
X002806Y012297D01*
X002806Y011998D01*
X002798Y011985D01*
X002786Y011939D01*
X002786Y011817D01*
X003458Y011817D01*
X003458Y011539D01*
X003974Y011539D01*
X004020Y011551D01*
X004061Y011575D01*
X004094Y011608D01*
X004118Y011649D01*
X004129Y011690D01*
X004129Y010913D01*
X004129Y010731D01*
X006508Y008352D01*
X006690Y008352D01*
X007023Y008352D01*
X006989Y008269D01*
X006989Y008125D01*
X007044Y007993D01*
X007145Y007892D01*
X007277Y007837D01*
X007420Y007837D01*
X007553Y007892D01*
X007654Y007993D01*
X007709Y008125D01*
X007709Y008246D01*
X007798Y008335D01*
X007798Y008517D01*
X007798Y008553D01*
X007834Y008553D01*
X007870Y008553D01*
X007870Y008054D01*
X007856Y008054D01*
X007763Y007960D01*
X007763Y007937D01*
X007676Y007937D01*
X007588Y007900D01*
X007520Y007833D01*
X007395Y007708D01*
X007359Y007620D01*
X007359Y007591D01*
X007294Y007526D01*
X007239Y007394D01*
X007239Y007250D01*
X007294Y007118D01*
X007359Y007053D01*
X007359Y006995D01*
X007359Y006899D01*
X007395Y006811D01*
X007463Y006743D01*
X007551Y006707D01*
X014426Y006707D01*
X017521Y006707D01*
X017610Y006743D01*
X017677Y006811D01*
X017714Y006899D01*
X017714Y006995D01*
X017714Y007745D01*
X017677Y007833D01*
X017665Y007845D01*
X017665Y007980D01*
X017571Y008073D01*
X017045Y008073D01*
X016974Y008002D01*
X016902Y008073D01*
X016376Y008073D01*
X016282Y007980D01*
X016282Y007917D01*
X015954Y007917D01*
X015954Y008083D01*
X015860Y008177D01*
X015694Y008177D01*
X015694Y009283D01*
X015779Y009368D01*
X015834Y009500D01*
X015834Y009644D01*
X015799Y009727D01*
X016008Y009727D01*
X016133Y009602D01*
X016315Y009602D01*
X026310Y009602D01*
X026395Y009517D01*
X026527Y009462D01*
X026670Y009462D01*
X026803Y009517D01*
X026904Y009618D01*
X026959Y009750D01*
X026959Y009894D01*
X026924Y009977D01*
X027065Y009977D01*
X027434Y010346D01*
X027434Y010001D01*
X027527Y009907D01*
X027754Y009907D01*
X027754Y009554D01*
X027606Y009554D01*
X027513Y009460D01*
X027513Y008934D01*
X027606Y008840D01*
X028172Y008840D01*
X028210Y008878D01*
X028231Y008856D01*
X028272Y008832D01*
X028318Y008820D01*
X028540Y008820D01*
X028540Y009178D01*
X028577Y009178D01*
X028577Y008820D01*
X028799Y008820D01*
X028844Y008832D01*
X028885Y008856D01*
X028919Y008890D01*
X028943Y008931D01*
X028955Y008976D01*
X028955Y009178D01*
X028577Y009178D01*
X028577Y009215D01*
X028955Y009215D01*
X028955Y009417D01*
X028943Y009463D01*
X028919Y009504D01*
X028885Y009538D01*
X028844Y009561D01*
X028799Y009574D01*
X028577Y009574D01*
X028577Y009216D01*
X028540Y009216D01*
X028540Y009574D01*
X028318Y009574D01*
X028272Y009561D01*
X028234Y009539D01*
X028234Y009907D01*
X028460Y009907D01*
X028510Y009957D01*
X028771Y009957D01*
X028860Y009993D01*
X028927Y010061D01*
X029110Y010243D01*
X029177Y010311D01*
X029214Y010399D01*
X029214Y014428D01*
X029279Y014493D01*
X029334Y014625D01*
X029334Y014769D01*
X029279Y014901D01*
X029178Y015002D01*
X029295Y014862D02*
X031377Y014862D01*
X031374Y014704D02*
X029334Y014704D01*
X029300Y014545D02*
X031374Y014545D01*
X031383Y014386D02*
X029214Y014386D01*
X029214Y014228D02*
X031374Y014228D01*
X031374Y014069D02*
X029214Y014069D01*
X029214Y013911D02*
X031394Y013911D01*
X031374Y013752D02*
X029214Y013752D01*
X029214Y013594D02*
X031374Y013594D01*
X031408Y013435D02*
X029214Y013435D01*
X029214Y013277D02*
X031374Y013277D01*
X031374Y013118D02*
X029214Y013118D01*
X029214Y012960D02*
X031408Y012960D01*
X031374Y012801D02*
X029214Y012801D01*
X029214Y012642D02*
X031374Y012642D01*
X031394Y012484D02*
X029214Y012484D01*
X029214Y012325D02*
X031394Y012325D01*
X031394Y012167D02*
X029214Y012167D01*
X029214Y012008D02*
X031394Y012008D01*
X031394Y011850D02*
X029214Y011850D01*
X029214Y011691D02*
X031394Y011691D01*
X031394Y011533D02*
X029214Y011533D01*
X029214Y011374D02*
X031394Y011374D01*
X031394Y011216D02*
X029214Y011216D01*
X029214Y011057D02*
X031394Y011057D01*
X031399Y010898D02*
X029214Y010898D01*
X029214Y010740D02*
X031394Y010740D01*
X031394Y010581D02*
X029214Y010581D01*
X029214Y010423D02*
X031423Y010423D01*
X031447Y009947D02*
X029709Y009947D01*
X029673Y009789D02*
X035664Y009789D01*
X035664Y009947D02*
X033681Y009947D01*
X033974Y010240D01*
X033974Y010427D01*
X033494Y010427D01*
X033494Y010467D01*
X033974Y010467D01*
X033974Y010654D01*
X033681Y010947D01*
X033494Y010947D01*
X033494Y010467D01*
X033454Y010467D01*
X033454Y010947D01*
X033267Y010947D01*
X032974Y010654D01*
X032974Y010467D01*
X033453Y010467D01*
X033453Y010427D01*
X032974Y010427D01*
X032974Y010240D01*
X033267Y009947D01*
X033454Y009947D01*
X033454Y010427D01*
X033494Y010427D01*
X033494Y009947D01*
X033681Y009947D01*
X033494Y009947D02*
X033454Y009947D01*
X033454Y010106D02*
X033494Y010106D01*
X033494Y010264D02*
X033454Y010264D01*
X033454Y010423D02*
X033494Y010423D01*
X033494Y010581D02*
X033454Y010581D01*
X033454Y010740D02*
X033494Y010740D01*
X033494Y010898D02*
X033454Y010898D01*
X033218Y010898D02*
X032986Y010898D01*
X033060Y010740D02*
X032828Y010740D01*
X032974Y010581D02*
X032669Y010581D01*
X032484Y010423D02*
X032974Y010423D01*
X032974Y010264D02*
X032514Y010264D01*
X032514Y010106D02*
X033108Y010106D01*
X033266Y009947D02*
X032460Y009947D01*
X033840Y010106D02*
X035664Y010106D01*
X035664Y010264D02*
X033974Y010264D01*
X033974Y010423D02*
X035664Y010423D01*
X035664Y010581D02*
X033974Y010581D01*
X033888Y010740D02*
X035664Y010740D01*
X035664Y010898D02*
X033729Y010898D01*
X033763Y011057D02*
X035664Y011057D01*
X035664Y011216D02*
X033921Y011216D01*
X033954Y011374D02*
X035664Y011374D01*
X035664Y011533D02*
X033954Y011533D01*
X033908Y011691D02*
X035664Y011691D01*
X035664Y011850D02*
X033750Y011850D01*
X033714Y012008D02*
X035664Y012008D01*
X035664Y012167D02*
X033872Y012167D01*
X033954Y012325D02*
X035664Y012325D01*
X035664Y012484D02*
X033954Y012484D01*
X033954Y012642D02*
X035664Y012642D01*
X035664Y012801D02*
X033798Y012801D01*
X031954Y012801D02*
X031953Y012801D01*
X031953Y012887D02*
X031953Y012697D01*
X031954Y012697D01*
X031954Y012887D01*
X031954Y013196D01*
X031953Y013196D01*
X031953Y012887D01*
X031953Y012960D02*
X031954Y012960D01*
X031953Y013118D02*
X031954Y013118D01*
X031953Y013197D02*
X031953Y013387D01*
X031953Y013696D01*
X031954Y013696D01*
X031954Y013387D01*
X031954Y013197D01*
X031953Y013197D01*
X031953Y013277D02*
X031954Y013277D01*
X031953Y013435D02*
X031954Y013435D01*
X031953Y013594D02*
X031954Y013594D01*
X031953Y013697D02*
X031953Y014007D01*
X031953Y014196D01*
X031954Y014196D01*
X031954Y014007D01*
X031954Y013697D01*
X031953Y013697D01*
X031953Y013752D02*
X031954Y013752D01*
X031953Y013911D02*
X031954Y013911D01*
X031953Y014069D02*
X031954Y014069D01*
X031953Y014228D02*
X031954Y014228D01*
X031953Y014386D02*
X031954Y014386D01*
X031953Y014545D02*
X031954Y014545D01*
X033249Y013911D02*
X033259Y013911D01*
X035664Y015179D02*
X029267Y015179D01*
X029426Y015338D02*
X035664Y015338D01*
X035664Y015496D02*
X029584Y015496D01*
X029743Y015655D02*
X035664Y015655D01*
X035664Y015813D02*
X034829Y015813D01*
X034820Y015809D02*
X034945Y015869D01*
X035062Y015942D01*
X035170Y016028D01*
X035267Y016126D01*
X035353Y016234D01*
X035427Y016351D01*
X035487Y016475D01*
X035532Y016606D01*
X035664Y016606D01*
X035532Y016606D02*
X035563Y016741D01*
X035577Y016867D01*
X034429Y016867D01*
X034429Y017027D01*
X035577Y017027D01*
X035563Y017153D01*
X035532Y017288D01*
X035487Y017418D01*
X035427Y017543D01*
X035353Y017660D01*
X035267Y017768D01*
X035170Y017865D01*
X035062Y017952D01*
X034945Y018025D01*
X034820Y018085D01*
X034690Y018131D01*
X034555Y018161D01*
X034429Y018176D01*
X034429Y017027D01*
X034269Y017027D01*
X034269Y018176D01*
X034142Y018161D01*
X034008Y018131D01*
X033877Y018085D01*
X033753Y018025D01*
X033636Y017952D01*
X033528Y017865D01*
X033430Y017768D01*
X033344Y017660D01*
X033270Y017543D01*
X033211Y017418D01*
X033165Y017288D01*
X033134Y017153D01*
X033120Y017027D01*
X034269Y017027D01*
X034269Y016867D01*
X034429Y016867D01*
X034429Y015718D01*
X034555Y015732D01*
X034690Y015763D01*
X034820Y015809D01*
X035099Y015972D02*
X035664Y015972D01*
X035664Y016130D02*
X035271Y016130D01*
X035388Y016289D02*
X035664Y016289D01*
X035664Y016447D02*
X035473Y016447D01*
X035566Y016765D02*
X035664Y016765D01*
X035664Y016923D02*
X034429Y016923D01*
X034429Y016765D02*
X034269Y016765D01*
X034269Y016867D02*
X034269Y015718D01*
X034142Y015732D01*
X034008Y015763D01*
X033877Y015809D01*
X033753Y015869D01*
X033636Y015942D01*
X033528Y016028D01*
X033430Y016126D01*
X033344Y016234D01*
X033270Y016351D01*
X033211Y016475D01*
X033165Y016606D01*
X030694Y016606D01*
X030535Y016447D02*
X033224Y016447D01*
X033165Y016606D02*
X033134Y016741D01*
X033120Y016867D01*
X034269Y016867D01*
X034269Y016923D02*
X032407Y016923D01*
X032474Y016990D02*
X032474Y017177D01*
X031994Y017177D01*
X031994Y017217D01*
X032474Y017217D01*
X032474Y017404D01*
X032181Y017697D01*
X031994Y017697D01*
X031994Y017217D01*
X031954Y017217D01*
X031954Y017697D01*
X031767Y017697D01*
X031474Y017404D01*
X031474Y017217D01*
X031953Y017217D01*
X031953Y017177D01*
X031474Y017177D01*
X031474Y016990D01*
X031767Y016697D01*
X031954Y016697D01*
X031954Y017177D01*
X031994Y017177D01*
X031994Y016697D01*
X032181Y016697D01*
X032474Y016990D01*
X032474Y017082D02*
X033126Y017082D01*
X033154Y017240D02*
X032474Y017240D01*
X032474Y017399D02*
X033204Y017399D01*
X033280Y017557D02*
X032320Y017557D01*
X031994Y017557D02*
X031954Y017557D01*
X031954Y017399D02*
X031994Y017399D01*
X031994Y017240D02*
X031954Y017240D01*
X031954Y017082D02*
X031994Y017082D01*
X031994Y016923D02*
X031954Y016923D01*
X031954Y016765D02*
X031994Y016765D01*
X032248Y016765D02*
X033131Y016765D01*
X033309Y016289D02*
X030377Y016289D01*
X030218Y016130D02*
X033427Y016130D01*
X033599Y015972D02*
X030060Y015972D01*
X029901Y015813D02*
X033868Y015813D01*
X034269Y015813D02*
X034429Y015813D01*
X034429Y015972D02*
X034269Y015972D01*
X034269Y016130D02*
X034429Y016130D01*
X034429Y016289D02*
X034269Y016289D01*
X034269Y016447D02*
X034429Y016447D01*
X034429Y016606D02*
X034269Y016606D01*
X034269Y017082D02*
X034429Y017082D01*
X034429Y017240D02*
X034269Y017240D01*
X034269Y017399D02*
X034429Y017399D01*
X034429Y017557D02*
X034269Y017557D01*
X034269Y017716D02*
X034429Y017716D01*
X034429Y017874D02*
X034269Y017874D01*
X034269Y018033D02*
X034429Y018033D01*
X034928Y018033D02*
X035664Y018033D01*
X035664Y018191D02*
X000654Y018191D01*
X000654Y018263D02*
X035664Y018263D01*
X035664Y006627D01*
X000654Y006627D01*
X000654Y010202D01*
X000734Y010122D01*
X001851Y010122D01*
X001945Y010215D01*
X001945Y011135D01*
X001851Y011229D01*
X000734Y011229D01*
X000654Y011148D01*
X000654Y013745D01*
X000734Y013665D01*
X001851Y013665D01*
X001945Y013759D01*
X001945Y014679D01*
X001851Y014772D01*
X000734Y014772D01*
X000654Y014692D01*
X000654Y018263D01*
X000654Y018033D02*
X001394Y018033D01*
X001378Y018025D02*
X001261Y017952D01*
X001153Y017865D01*
X001055Y017768D01*
X000969Y017660D01*
X000895Y017543D01*
X000836Y017418D01*
X000790Y017288D01*
X000759Y017153D01*
X000745Y017027D01*
X001894Y017027D01*
X001894Y018176D01*
X001767Y018161D01*
X001633Y018131D01*
X001502Y018085D01*
X001378Y018025D01*
X001164Y017874D02*
X000654Y017874D01*
X000654Y017716D02*
X001014Y017716D01*
X000905Y017557D02*
X000654Y017557D01*
X000654Y017399D02*
X000829Y017399D01*
X000779Y017240D02*
X000654Y017240D01*
X000654Y017082D02*
X000751Y017082D01*
X000654Y016923D02*
X001894Y016923D01*
X001894Y016867D02*
X000745Y016867D01*
X000759Y016741D01*
X000790Y016606D01*
X000654Y016606D01*
X000790Y016606D02*
X000836Y016475D01*
X000895Y016351D01*
X000969Y016234D01*
X001055Y016126D01*
X001153Y016028D01*
X001261Y015942D01*
X001378Y015869D01*
X001502Y015809D01*
X001633Y015763D01*
X001767Y015732D01*
X001894Y015718D01*
X001894Y016867D01*
X002054Y016867D01*
X002054Y017027D01*
X003202Y017027D01*
X003188Y017153D01*
X003157Y017288D01*
X003112Y017418D01*
X003052Y017543D01*
X002978Y017660D01*
X002892Y017768D01*
X002795Y017865D01*
X002687Y017952D01*
X002570Y018025D01*
X002445Y018085D01*
X002315Y018131D01*
X002180Y018161D01*
X002054Y018176D01*
X002054Y017027D01*
X001894Y017027D01*
X001894Y016867D01*
X001894Y016765D02*
X002054Y016765D01*
X002054Y016867D02*
X002054Y015718D01*
X002180Y015732D01*
X002315Y015763D01*
X002445Y015809D01*
X002570Y015869D01*
X002687Y015942D01*
X002795Y016028D01*
X002892Y016126D01*
X002978Y016234D01*
X003052Y016351D01*
X003112Y016475D01*
X003157Y016606D01*
X005003Y016606D01*
X004893Y016463D02*
X004860Y016496D01*
X004819Y016520D01*
X004773Y016532D01*
X004531Y016532D01*
X004531Y016096D01*
X004416Y016096D01*
X004416Y016532D01*
X004174Y016532D01*
X004129Y016520D01*
X004088Y016496D01*
X004054Y016463D01*
X004030Y016422D01*
X004018Y016376D01*
X004018Y016095D01*
X004416Y016095D01*
X004416Y015980D01*
X004018Y015980D01*
X004018Y015699D01*
X004030Y015653D01*
X004054Y015612D01*
X004088Y015578D01*
X004129Y015555D01*
X004174Y015543D01*
X004416Y015543D01*
X004416Y015979D01*
X004531Y015979D01*
X004531Y015543D01*
X004773Y015543D01*
X004819Y015555D01*
X004860Y015578D01*
X004893Y015612D01*
X004917Y015653D01*
X004929Y015699D01*
X004929Y015980D01*
X004532Y015980D01*
X004532Y016095D01*
X004929Y016095D01*
X004929Y016376D01*
X004917Y016422D01*
X004893Y016463D01*
X004902Y016447D02*
X005269Y016447D01*
X005118Y016289D02*
X004929Y016289D01*
X004929Y016130D02*
X005118Y016130D01*
X005118Y015972D02*
X004929Y015972D01*
X004929Y015813D02*
X005128Y015813D01*
X004917Y015655D02*
X006004Y015655D01*
X006004Y015496D02*
X005610Y015496D01*
X005733Y015338D02*
X005964Y015338D01*
X005964Y015179D02*
X005733Y015179D01*
X005732Y015021D02*
X005965Y015021D01*
X006004Y014862D02*
X005753Y014862D01*
X005753Y014822D02*
X005337Y014822D01*
X005337Y014822D01*
X005753Y014822D01*
X005753Y014704D02*
X006004Y014704D01*
X005964Y014545D02*
X005733Y014545D01*
X005733Y014386D02*
X005964Y014386D01*
X006004Y014228D02*
X005694Y014228D01*
X005694Y014069D02*
X006004Y014069D01*
X005867Y013911D02*
X005830Y013911D01*
X005830Y013752D02*
X005867Y013752D01*
X005472Y013752D02*
X004965Y013752D01*
X004807Y013594D02*
X005472Y013594D01*
X005472Y013435D02*
X004648Y013435D01*
X004489Y013277D02*
X005492Y013277D01*
X005379Y013118D02*
X004331Y013118D01*
X004397Y012960D02*
X005379Y012960D01*
X005434Y012801D02*
X004556Y012801D01*
X004714Y012642D02*
X005554Y012642D01*
X006004Y012484D02*
X004819Y012484D01*
X004819Y012325D02*
X006004Y012325D01*
X006004Y012167D02*
X004819Y012167D01*
X004819Y012008D02*
X006004Y012008D01*
X006004Y011850D02*
X004819Y011850D01*
X004819Y011691D02*
X006004Y011691D01*
X006004Y011533D02*
X004819Y011533D01*
X004819Y011374D02*
X006004Y011374D01*
X006004Y011216D02*
X004819Y011216D01*
X004819Y011057D02*
X006052Y011057D01*
X006474Y011447D02*
X006474Y011822D01*
X006538Y011886D01*
X006810Y011886D01*
X008248Y012484D02*
X008638Y012484D01*
X008638Y012325D02*
X008490Y012325D01*
X008346Y012325D02*
X008346Y012325D01*
X008346Y012167D02*
X008346Y012167D01*
X008346Y012008D02*
X008346Y012008D01*
X009078Y012325D02*
X011504Y012325D01*
X011504Y012484D02*
X011174Y012484D01*
X011172Y012477D02*
X011184Y012523D01*
X011184Y012764D01*
X010747Y012764D01*
X010747Y012366D01*
X011028Y012366D01*
X011074Y012379D01*
X011115Y012402D01*
X011148Y012436D01*
X011172Y012477D01*
X011184Y012642D02*
X011504Y012642D01*
X011504Y012801D02*
X010747Y012801D01*
X010747Y012764D02*
X010747Y012880D01*
X010631Y012880D01*
X010631Y012764D01*
X010194Y012764D01*
X010194Y012523D01*
X010207Y012477D01*
X010230Y012436D01*
X010264Y012402D01*
X010305Y012379D01*
X010351Y012366D01*
X010631Y012366D01*
X010631Y012764D01*
X010747Y012764D01*
X010747Y012880D02*
X011184Y012880D01*
X011184Y013121D01*
X011172Y013167D01*
X011148Y013208D01*
X011115Y013242D01*
X011074Y013265D01*
X011028Y013277D01*
X010747Y013277D01*
X010631Y013277D01*
X010351Y013277D01*
X010305Y013265D01*
X010264Y013242D01*
X010230Y013208D01*
X010207Y013167D01*
X010194Y013121D01*
X010194Y012880D01*
X010631Y012880D01*
X010631Y013277D01*
X010747Y013277D02*
X010747Y012880D01*
X010747Y012960D02*
X010631Y012960D01*
X010631Y013118D02*
X010747Y013118D01*
X011031Y013277D02*
X011504Y013277D01*
X011504Y013435D02*
X011388Y013435D01*
X011479Y013594D02*
X011504Y013594D01*
X011504Y013752D02*
X011479Y013752D01*
X011479Y013911D02*
X011504Y013911D01*
X011504Y014069D02*
X011479Y014069D01*
X011479Y014228D02*
X011504Y014228D01*
X011504Y014386D02*
X011460Y014386D01*
X011504Y014545D02*
X011145Y014545D01*
X011145Y014704D02*
X011504Y014704D01*
X011504Y014862D02*
X010995Y014862D01*
X010836Y015021D02*
X011504Y015021D01*
X011504Y015179D02*
X007444Y015179D01*
X007444Y015021D02*
X007986Y015021D01*
X007828Y014862D02*
X007444Y014862D01*
X007444Y014704D02*
X007754Y014704D01*
X008661Y014386D02*
X008720Y014386D01*
X008711Y014371D02*
X008734Y014412D01*
X008768Y014445D01*
X008809Y014469D01*
X008854Y014481D01*
X009192Y014481D01*
X009192Y014027D01*
X009352Y014027D01*
X009352Y014481D01*
X009689Y014481D01*
X009735Y014469D01*
X009776Y014445D01*
X009810Y014412D01*
X009833Y014371D01*
X009846Y014325D01*
X009846Y014027D01*
X009352Y014027D01*
X009352Y013867D01*
X009846Y013867D01*
X009846Y013569D01*
X009833Y013523D01*
X009810Y013482D01*
X009776Y013449D01*
X009735Y013425D01*
X009689Y013413D01*
X009352Y013413D01*
X009352Y013867D01*
X009192Y013867D01*
X009192Y013413D01*
X008854Y013413D01*
X008809Y013425D01*
X008768Y013449D01*
X008734Y013482D01*
X008711Y013523D01*
X008698Y013569D01*
X008698Y013867D01*
X009192Y013867D01*
X009192Y014027D01*
X008698Y014027D01*
X008698Y014325D01*
X008711Y014371D01*
X008698Y014228D02*
X008616Y014228D01*
X008616Y014069D02*
X008698Y014069D01*
X008616Y013911D02*
X009192Y013911D01*
X009192Y014069D02*
X009352Y014069D01*
X009352Y013911D02*
X010372Y013911D01*
X010372Y014069D02*
X009846Y014069D01*
X009846Y014228D02*
X010372Y014228D01*
X010391Y014386D02*
X009824Y014386D01*
X009352Y014386D02*
X009192Y014386D01*
X009192Y014228D02*
X009352Y014228D01*
X008709Y014545D02*
X010690Y014545D01*
X010531Y014704D02*
X008684Y014704D01*
X008285Y015338D02*
X011504Y015338D01*
X011504Y015496D02*
X011449Y015496D01*
X011479Y015655D02*
X011504Y015655D01*
X011479Y015813D02*
X011529Y015813D01*
X011479Y015972D02*
X011688Y015972D01*
X011846Y016130D02*
X011479Y016130D01*
X011479Y016289D02*
X012005Y016289D01*
X012163Y016447D02*
X011399Y016447D01*
X012254Y016538D02*
X012254Y016538D01*
X012322Y016606D02*
X008191Y016606D01*
X008190Y016609D02*
X008156Y016642D01*
X008115Y016666D01*
X008069Y016678D01*
X007867Y016678D01*
X007867Y016300D01*
X008226Y016300D01*
X008226Y016522D01*
X008213Y016568D01*
X008190Y016609D01*
X008226Y016447D02*
X008798Y016447D01*
X008718Y016289D02*
X007867Y016289D01*
X007830Y016289D02*
X007444Y016289D01*
X007472Y016300D02*
X007830Y016300D01*
X007830Y016678D01*
X007628Y016678D01*
X007582Y016666D01*
X007541Y016642D01*
X007508Y016609D01*
X007484Y016568D01*
X007472Y016522D01*
X007472Y016300D01*
X007472Y016447D02*
X007409Y016447D01*
X007506Y016606D02*
X007194Y016606D01*
X007194Y016765D02*
X014050Y016765D01*
X014397Y016765D02*
X027230Y016765D01*
X027389Y016923D02*
X007183Y016923D01*
X007394Y017082D02*
X007525Y017082D01*
X007540Y017067D02*
X007581Y017043D01*
X007627Y017031D01*
X007849Y017031D01*
X007849Y017409D01*
X007471Y017409D01*
X007471Y017187D01*
X007483Y017141D01*
X007507Y017100D01*
X007540Y017067D01*
X007471Y017240D02*
X007456Y017240D01*
X007456Y017399D02*
X007471Y017399D01*
X007471Y017485D02*
X007849Y017485D01*
X007849Y017863D01*
X007627Y017863D01*
X007581Y017851D01*
X007540Y017827D01*
X007507Y017794D01*
X007483Y017753D01*
X007471Y017707D01*
X007471Y017485D01*
X007471Y017557D02*
X007456Y017557D01*
X007456Y017716D02*
X007473Y017716D01*
X007849Y017716D02*
X007925Y017716D01*
X007925Y017863D02*
X007925Y017485D01*
X007849Y017485D01*
X007849Y017409D01*
X007925Y017409D01*
X007925Y017031D01*
X008147Y017031D01*
X008193Y017043D01*
X008234Y017067D01*
X008267Y017100D01*
X008291Y017141D01*
X008303Y017187D01*
X008303Y017409D01*
X007925Y017409D01*
X007925Y017485D01*
X008303Y017485D01*
X008303Y017707D01*
X008291Y017753D01*
X008267Y017794D01*
X008234Y017827D01*
X008193Y017851D01*
X008147Y017863D01*
X007925Y017863D01*
X007925Y017557D02*
X007849Y017557D01*
X007849Y017399D02*
X007925Y017399D01*
X007925Y017240D02*
X007849Y017240D01*
X007849Y017082D02*
X007925Y017082D01*
X008249Y017082D02*
X009365Y017082D01*
X009376Y017070D02*
X009902Y017070D01*
X009974Y017142D01*
X010045Y017070D01*
X010571Y017070D01*
X010665Y017164D01*
X010665Y017227D01*
X011164Y017227D01*
X011164Y017144D01*
X011258Y017051D01*
X011863Y017051D01*
X011956Y017144D01*
X011956Y017749D01*
X011863Y017843D01*
X011258Y017843D01*
X011164Y017749D01*
X011164Y017667D01*
X010665Y017667D01*
X010665Y017730D01*
X010571Y017823D01*
X010045Y017823D01*
X009974Y017752D01*
X009902Y017823D01*
X009376Y017823D01*
X009282Y017730D01*
X009282Y017667D01*
X009013Y017667D01*
X008928Y017752D01*
X008795Y017807D01*
X008652Y017807D01*
X008520Y017752D01*
X008419Y017651D01*
X008364Y017519D01*
X008364Y017375D01*
X008419Y017243D01*
X008520Y017142D01*
X008652Y017087D01*
X008795Y017087D01*
X008928Y017142D01*
X009013Y017227D01*
X009282Y017227D01*
X009282Y017164D01*
X009376Y017070D01*
X009913Y017082D02*
X010034Y017082D01*
X010583Y017082D02*
X011227Y017082D01*
X011894Y017082D02*
X012025Y017082D01*
X012040Y017067D02*
X012081Y017043D01*
X012127Y017031D01*
X012349Y017031D01*
X012349Y017409D01*
X011971Y017409D01*
X011971Y017187D01*
X011983Y017141D01*
X012007Y017100D01*
X012040Y017067D01*
X011971Y017240D02*
X011956Y017240D01*
X011956Y017399D02*
X011971Y017399D01*
X011971Y017485D02*
X012349Y017485D01*
X012349Y017863D01*
X012127Y017863D01*
X012081Y017851D01*
X012040Y017827D01*
X012007Y017794D01*
X011983Y017753D01*
X011971Y017707D01*
X011971Y017485D01*
X011971Y017557D02*
X011956Y017557D01*
X011956Y017716D02*
X011973Y017716D01*
X012349Y017716D02*
X012425Y017716D01*
X012425Y017863D02*
X012425Y017485D01*
X012349Y017485D01*
X012349Y017409D01*
X012425Y017409D01*
X012425Y017031D01*
X012647Y017031D01*
X012693Y017043D01*
X012734Y017067D01*
X012767Y017100D01*
X012791Y017141D01*
X012803Y017187D01*
X012803Y017409D01*
X012425Y017409D01*
X012425Y017485D01*
X012803Y017485D01*
X012803Y017707D01*
X012791Y017753D01*
X012767Y017794D01*
X012734Y017827D01*
X012693Y017851D01*
X012647Y017863D01*
X012425Y017863D01*
X012425Y017557D02*
X012349Y017557D01*
X012349Y017399D02*
X012425Y017399D01*
X012425Y017240D02*
X012349Y017240D01*
X012349Y017082D02*
X012425Y017082D01*
X012749Y017082D02*
X027494Y017082D01*
X027494Y017240D02*
X012803Y017240D01*
X012803Y017399D02*
X027494Y017399D01*
X027494Y017557D02*
X012803Y017557D01*
X012801Y017716D02*
X033389Y017716D01*
X033539Y017874D02*
X002783Y017874D01*
X002934Y017716D02*
X004782Y017716D01*
X004782Y017557D02*
X003043Y017557D01*
X003119Y017399D02*
X004782Y017399D01*
X004782Y017240D02*
X003168Y017240D01*
X003196Y017082D02*
X004865Y017082D01*
X004886Y016923D02*
X002054Y016923D01*
X002054Y016867D02*
X003202Y016867D01*
X003188Y016741D01*
X003157Y016606D01*
X003191Y016765D02*
X004876Y016765D01*
X004531Y016447D02*
X004416Y016447D01*
X004416Y016289D02*
X004531Y016289D01*
X004531Y016130D02*
X004416Y016130D01*
X004416Y015972D02*
X004531Y015972D01*
X004531Y015813D02*
X004416Y015813D01*
X004416Y015655D02*
X004531Y015655D01*
X004030Y015655D02*
X000654Y015655D01*
X000654Y015813D02*
X001493Y015813D01*
X001224Y015972D02*
X000654Y015972D01*
X000654Y016130D02*
X001052Y016130D01*
X000934Y016289D02*
X000654Y016289D01*
X000654Y016447D02*
X000849Y016447D01*
X000756Y016765D02*
X000654Y016765D01*
X001894Y016606D02*
X002054Y016606D01*
X002054Y016447D02*
X001894Y016447D01*
X001894Y016289D02*
X002054Y016289D01*
X002054Y016130D02*
X001894Y016130D01*
X001894Y015972D02*
X002054Y015972D01*
X002054Y015813D02*
X001894Y015813D01*
X002454Y015813D02*
X004018Y015813D01*
X004018Y015972D02*
X002724Y015972D01*
X002896Y016130D02*
X004018Y016130D01*
X004018Y016289D02*
X003013Y016289D01*
X003098Y016447D02*
X004045Y016447D01*
X005413Y017082D02*
X005534Y017082D01*
X006083Y017082D02*
X006727Y017082D01*
X006664Y017716D02*
X006165Y017716D01*
X008301Y017716D02*
X008484Y017716D01*
X008380Y017557D02*
X008303Y017557D01*
X008303Y017399D02*
X008364Y017399D01*
X008421Y017240D02*
X008303Y017240D01*
X008964Y017716D02*
X009282Y017716D01*
X010665Y017716D02*
X011164Y017716D01*
X010452Y016447D02*
X009746Y016447D01*
X009826Y016289D02*
X010372Y016289D01*
X010925Y015947D02*
X009272Y015947D01*
X008599Y015947D01*
X008224Y015572D01*
X007889Y015572D01*
X007849Y015612D01*
X007849Y015572D01*
X007099Y015572D01*
X006974Y015447D01*
X007444Y015813D02*
X007492Y015813D01*
X007498Y015972D02*
X007444Y015972D01*
X007444Y016130D02*
X007472Y016130D01*
X007830Y016447D02*
X007867Y016447D01*
X007867Y016606D02*
X007830Y016606D01*
X008226Y016130D02*
X008443Y016130D01*
X008284Y015972D02*
X008200Y015972D01*
X008646Y015655D02*
X008718Y015655D01*
X008748Y015496D02*
X008487Y015496D01*
X009796Y015496D02*
X010402Y015496D01*
X010372Y015655D02*
X009826Y015655D01*
X012694Y014731D02*
X013065Y015102D01*
X024504Y015102D01*
X024504Y014528D01*
X024474Y014498D01*
X024408Y014564D01*
X024039Y014564D01*
X023987Y014512D01*
X023986Y014514D01*
X023952Y014548D01*
X023911Y014571D01*
X023866Y014584D01*
X023724Y014584D01*
X023724Y013971D01*
X023723Y013971D01*
X023723Y013970D01*
X023426Y013970D01*
X023426Y013514D01*
X023438Y013468D01*
X023462Y013427D01*
X023495Y013393D01*
X023536Y013370D01*
X023582Y013357D01*
X023723Y013357D01*
X023723Y013970D01*
X023724Y013970D01*
X023724Y013357D01*
X023866Y013357D01*
X023911Y013370D01*
X023952Y013393D01*
X023986Y013427D01*
X023987Y013430D01*
X024034Y013383D01*
X024020Y013377D01*
X023919Y013276D01*
X023864Y013144D01*
X023864Y013000D01*
X023919Y012868D01*
X024004Y012783D01*
X024004Y012481D01*
X023974Y012451D01*
X023908Y012516D01*
X023539Y012516D01*
X023459Y012436D01*
X023459Y012519D01*
X023404Y012651D01*
X023319Y012736D01*
X023319Y014106D01*
X023319Y014288D01*
X023194Y014413D01*
X023065Y014542D01*
X021930Y014542D01*
X021908Y014564D01*
X021558Y014564D01*
X021584Y014625D01*
X021584Y014769D01*
X021529Y014901D01*
X021428Y015002D01*
X021295Y015057D01*
X021152Y015057D01*
X021020Y015002D01*
X020919Y014901D01*
X020864Y014769D01*
X020864Y014625D01*
X020889Y014564D01*
X020539Y014564D01*
X020487Y014512D01*
X020486Y014514D01*
X020452Y014548D01*
X020411Y014571D01*
X020366Y014584D01*
X020224Y014584D01*
X020224Y013971D01*
X020223Y013971D01*
X020223Y013970D01*
X019926Y013970D01*
X019926Y013514D01*
X019938Y013468D01*
X019962Y013427D01*
X019995Y013393D01*
X020036Y013370D01*
X020082Y013357D01*
X020223Y013357D01*
X020223Y013970D01*
X020224Y013970D01*
X020224Y013357D01*
X020366Y013357D01*
X020411Y013370D01*
X020452Y013393D01*
X020486Y013427D01*
X020487Y013429D01*
X020534Y013383D01*
X020520Y013377D01*
X020419Y013276D01*
X020364Y013144D01*
X020364Y013000D01*
X020419Y012868D01*
X020504Y012783D01*
X020504Y012481D01*
X020474Y012451D01*
X020408Y012516D01*
X020039Y012516D01*
X019959Y012436D01*
X019959Y012519D01*
X019904Y012651D01*
X019819Y012736D01*
X019819Y014106D01*
X019819Y014288D01*
X019694Y014413D01*
X019565Y014542D01*
X018430Y014542D01*
X018408Y014564D01*
X018058Y014564D01*
X018084Y014625D01*
X018084Y014769D01*
X018029Y014901D01*
X017928Y015002D01*
X017795Y015057D01*
X017652Y015057D01*
X017520Y015002D01*
X017419Y014901D01*
X017364Y014769D01*
X017364Y014625D01*
X017389Y014564D01*
X017039Y014564D01*
X016987Y014512D01*
X016986Y014514D01*
X016952Y014548D01*
X016911Y014571D01*
X016866Y014584D01*
X016724Y014584D01*
X016724Y013971D01*
X016723Y013971D01*
X016723Y013970D01*
X016426Y013970D01*
X016426Y013514D01*
X016438Y013468D01*
X016462Y013427D01*
X016495Y013393D01*
X016536Y013370D01*
X016582Y013357D01*
X016723Y013357D01*
X016723Y013970D01*
X016724Y013970D01*
X016724Y013357D01*
X016866Y013357D01*
X016911Y013370D01*
X016952Y013393D01*
X016986Y013427D01*
X016987Y013430D01*
X017034Y013383D01*
X017020Y013377D01*
X016919Y013276D01*
X016864Y013144D01*
X016864Y013000D01*
X016919Y012868D01*
X017004Y012783D01*
X017004Y012481D01*
X016974Y012451D01*
X016908Y012516D01*
X016539Y012516D01*
X016446Y012423D01*
X016404Y012526D01*
X016319Y012611D01*
X016319Y014106D01*
X016319Y014288D01*
X016194Y014413D01*
X016065Y014542D01*
X014930Y014542D01*
X014908Y014564D01*
X014558Y014564D01*
X014584Y014625D01*
X014584Y014769D01*
X014529Y014901D01*
X014428Y015002D01*
X014295Y015057D01*
X014152Y015057D01*
X014020Y015002D01*
X013919Y014901D01*
X013864Y014769D01*
X013864Y014625D01*
X013889Y014564D01*
X013539Y014564D01*
X013487Y014512D01*
X013486Y014514D01*
X013452Y014548D01*
X013411Y014571D01*
X013366Y014584D01*
X013224Y014584D01*
X013224Y013971D01*
X013223Y013971D01*
X013223Y013970D01*
X012926Y013970D01*
X012926Y013514D01*
X012938Y013468D01*
X012962Y013427D01*
X012995Y013393D01*
X013036Y013370D01*
X013082Y013357D01*
X013223Y013357D01*
X013223Y013970D01*
X013224Y013970D01*
X013224Y013357D01*
X013366Y013357D01*
X013411Y013370D01*
X013452Y013393D01*
X013486Y013427D01*
X013487Y013430D01*
X013534Y013383D01*
X013520Y013377D01*
X013419Y013276D01*
X013364Y013144D01*
X013364Y013000D01*
X013419Y012868D01*
X013504Y012783D01*
X013504Y012481D01*
X013474Y012451D01*
X013408Y012516D01*
X013039Y012516D01*
X012946Y012423D01*
X012946Y011424D01*
X012980Y011389D01*
X012258Y010667D01*
X011630Y010667D01*
X012565Y011602D01*
X012694Y011731D01*
X012694Y014731D01*
X012694Y014704D02*
X013864Y014704D01*
X013902Y014862D02*
X012825Y014862D01*
X012983Y015021D02*
X014064Y015021D01*
X014383Y015021D02*
X017564Y015021D01*
X017402Y014862D02*
X014545Y014862D01*
X014584Y014704D02*
X017364Y014704D01*
X017021Y014545D02*
X016955Y014545D01*
X016724Y014545D02*
X016723Y014545D01*
X016723Y014584D02*
X016582Y014584D01*
X016536Y014571D01*
X016495Y014548D01*
X016462Y014514D01*
X016438Y014473D01*
X016426Y014427D01*
X016426Y013971D01*
X016723Y013971D01*
X016723Y014584D01*
X016723Y014386D02*
X016724Y014386D01*
X016723Y014228D02*
X016724Y014228D01*
X016723Y014069D02*
X016724Y014069D01*
X016723Y013911D02*
X016724Y013911D01*
X016723Y013752D02*
X016724Y013752D01*
X016723Y013594D02*
X016724Y013594D01*
X016723Y013435D02*
X016724Y013435D01*
X016919Y013277D02*
X016319Y013277D01*
X016319Y013435D02*
X016457Y013435D01*
X016426Y013594D02*
X016319Y013594D01*
X016319Y013752D02*
X016426Y013752D01*
X016426Y013911D02*
X016319Y013911D01*
X016319Y014069D02*
X016426Y014069D01*
X016426Y014228D02*
X016319Y014228D01*
X016220Y014386D02*
X016426Y014386D01*
X016492Y014545D02*
X014927Y014545D01*
X015799Y014102D02*
X015879Y014102D01*
X015879Y012611D01*
X015851Y012583D01*
X015851Y012594D01*
X015492Y012594D01*
X015492Y012631D01*
X015851Y012631D01*
X015851Y012853D01*
X015838Y012898D01*
X015815Y012939D01*
X015793Y012961D01*
X015831Y012999D01*
X015831Y013564D01*
X015737Y013658D01*
X015714Y013658D01*
X015714Y013678D01*
X015779Y013743D01*
X015834Y013875D01*
X015834Y014019D01*
X015799Y014102D01*
X015813Y014069D02*
X015879Y014069D01*
X015879Y013911D02*
X015834Y013911D01*
X015879Y013752D02*
X015783Y013752D01*
X015801Y013594D02*
X015879Y013594D01*
X015879Y013435D02*
X015831Y013435D01*
X015831Y013277D02*
X015879Y013277D01*
X015879Y013118D02*
X015831Y013118D01*
X015794Y012960D02*
X015879Y012960D01*
X015879Y012801D02*
X015851Y012801D01*
X015851Y012642D02*
X015879Y012642D01*
X015492Y012594D02*
X015492Y012216D01*
X015694Y012216D01*
X015740Y012228D01*
X015746Y012232D01*
X015794Y012118D01*
X015895Y012017D01*
X015912Y012009D01*
X015895Y012002D01*
X015794Y011901D01*
X015739Y011769D01*
X015739Y011625D01*
X015773Y011542D01*
X015002Y011542D01*
X015002Y012423D01*
X014964Y012461D01*
X014964Y012722D01*
X015098Y012857D01*
X015097Y012853D01*
X015097Y012631D01*
X015455Y012631D01*
X015455Y012594D01*
X015097Y012594D01*
X015097Y012372D01*
X015109Y012326D01*
X015133Y012285D01*
X015166Y012252D01*
X015207Y012228D01*
X015253Y012216D01*
X015455Y012216D01*
X015455Y012594D01*
X015492Y012594D01*
X015492Y012484D02*
X015455Y012484D01*
X015455Y012325D02*
X015492Y012325D01*
X015773Y012167D02*
X015002Y012167D01*
X015002Y012325D02*
X015110Y012325D01*
X015097Y012484D02*
X014964Y012484D01*
X014964Y012642D02*
X015097Y012642D01*
X015097Y012801D02*
X015042Y012801D01*
X014724Y012822D02*
X014724Y011923D01*
X014700Y011947D01*
X014224Y011947D01*
X014224Y011923D01*
X014247Y011947D01*
X014724Y011923D02*
X014724Y011947D01*
X014747Y011947D02*
X014724Y011923D01*
X015002Y011850D02*
X015772Y011850D01*
X015739Y011691D02*
X015002Y011691D01*
X015002Y012008D02*
X015910Y012008D01*
X016421Y012484D02*
X016507Y012484D01*
X016319Y012642D02*
X017004Y012642D01*
X017004Y012484D02*
X016941Y012484D01*
X016986Y012801D02*
X016319Y012801D01*
X016319Y012960D02*
X016881Y012960D01*
X016864Y013118D02*
X016319Y013118D01*
X015474Y013282D02*
X015474Y013947D01*
X015474Y013282D02*
X015183Y013282D01*
X014724Y012822D01*
X013504Y012642D02*
X012694Y012642D01*
X012694Y012484D02*
X013007Y012484D01*
X012946Y012325D02*
X012694Y012325D01*
X012694Y012167D02*
X012946Y012167D01*
X012946Y012008D02*
X012694Y012008D01*
X012694Y011850D02*
X012946Y011850D01*
X012946Y011691D02*
X012654Y011691D01*
X012565Y011602D02*
X012565Y011602D01*
X012495Y011533D02*
X012946Y011533D01*
X012965Y011374D02*
X012337Y011374D01*
X012178Y011216D02*
X012806Y011216D01*
X012648Y011057D02*
X012020Y011057D01*
X011861Y010898D02*
X012489Y010898D01*
X012331Y010740D02*
X011703Y010740D01*
X013065Y009227D02*
X013565Y009727D01*
X015148Y009727D01*
X015114Y009644D01*
X015114Y009500D01*
X015169Y009368D01*
X015254Y009283D01*
X015254Y008177D01*
X015087Y008177D01*
X014994Y008083D01*
X014994Y007311D01*
X015087Y007217D01*
X015860Y007217D01*
X015954Y007311D01*
X015954Y007477D01*
X016282Y007477D01*
X016282Y007414D01*
X016376Y007320D01*
X016902Y007320D01*
X016974Y007392D01*
X017045Y007320D01*
X017234Y007320D01*
X017234Y007187D01*
X014714Y007187D01*
X014714Y007277D01*
X014746Y007290D01*
X014881Y007425D01*
X014954Y007601D01*
X014954Y007792D01*
X014881Y007969D01*
X014746Y008104D01*
X014569Y008177D01*
X014378Y008177D01*
X014202Y008104D01*
X014067Y007969D01*
X013994Y007792D01*
X013994Y007601D01*
X014067Y007425D01*
X014202Y007290D01*
X014234Y007277D01*
X014234Y007187D01*
X007932Y007187D01*
X007959Y007250D01*
X007959Y007340D01*
X008422Y007340D01*
X008460Y007378D01*
X008481Y007356D01*
X008522Y007332D01*
X008568Y007320D01*
X008790Y007320D01*
X008790Y007678D01*
X008827Y007678D01*
X008827Y007320D01*
X009049Y007320D01*
X009094Y007332D01*
X009135Y007356D01*
X009169Y007390D01*
X009193Y007431D01*
X009205Y007476D01*
X009205Y007678D01*
X008827Y007678D01*
X008827Y007715D01*
X009205Y007715D01*
X009205Y007917D01*
X009193Y007963D01*
X009169Y008004D01*
X009135Y008038D01*
X009094Y008061D01*
X009049Y008074D01*
X008827Y008074D01*
X008827Y007716D01*
X008790Y007716D01*
X008790Y008074D01*
X008568Y008074D01*
X008522Y008061D01*
X008481Y008038D01*
X008460Y008016D01*
X008422Y008054D01*
X008310Y008054D01*
X008310Y008573D01*
X008481Y008573D01*
X008736Y008573D01*
X008992Y008573D01*
X009235Y008573D01*
X009405Y008573D01*
X009405Y008511D01*
X009405Y008494D01*
X009364Y008394D01*
X009364Y008250D01*
X009419Y008118D01*
X009520Y008017D01*
X009652Y007962D01*
X009795Y007962D01*
X009928Y008017D01*
X010029Y008118D01*
X010084Y008250D01*
X010084Y008352D01*
X011254Y008352D01*
X011254Y008125D01*
X011202Y008104D01*
X011067Y007969D01*
X010994Y007792D01*
X010994Y007601D01*
X011067Y007425D01*
X011202Y007290D01*
X011378Y007217D01*
X011569Y007217D01*
X011746Y007290D01*
X011881Y007425D01*
X011954Y007601D01*
X011954Y007792D01*
X011881Y007969D01*
X011746Y008104D01*
X011694Y008125D01*
X011694Y008538D01*
X011565Y008667D01*
X011444Y008788D01*
X011822Y008788D01*
X012254Y008356D01*
X012254Y008125D01*
X012202Y008104D01*
X012067Y007969D01*
X011994Y007792D01*
X011994Y007601D01*
X012067Y007425D01*
X012202Y007290D01*
X012378Y007217D01*
X012569Y007217D01*
X012746Y007290D01*
X012881Y007425D01*
X012954Y007601D01*
X012954Y007792D01*
X012881Y007969D01*
X012746Y008104D01*
X012694Y008125D01*
X012694Y008538D01*
X012565Y008667D01*
X012005Y009227D01*
X012883Y009227D01*
X013065Y009227D01*
X013151Y009313D02*
X015223Y009313D01*
X015254Y009154D02*
X012077Y009154D01*
X012236Y008996D02*
X015254Y008996D01*
X015254Y008837D02*
X012394Y008837D01*
X012553Y008679D02*
X015254Y008679D01*
X015254Y008520D02*
X012694Y008520D01*
X012694Y008362D02*
X015254Y008362D01*
X015254Y008203D02*
X012694Y008203D01*
X012805Y008045D02*
X013114Y008045D01*
X013092Y008023D02*
X013148Y008078D01*
X013212Y008125D01*
X013282Y008160D01*
X013357Y008185D01*
X013434Y008197D01*
X013454Y008197D01*
X013454Y007717D01*
X013494Y007717D01*
X013974Y007717D01*
X013974Y007736D01*
X013961Y007814D01*
X013937Y007889D01*
X013901Y007959D01*
X013855Y008023D01*
X013799Y008078D01*
X013736Y008125D01*
X013666Y008160D01*
X013591Y008185D01*
X013513Y008197D01*
X013494Y008197D01*
X013494Y007717D01*
X013494Y007677D01*
X013974Y007677D01*
X013974Y007658D01*
X013961Y007580D01*
X013937Y007505D01*
X013901Y007435D01*
X013855Y007371D01*
X013799Y007316D01*
X013736Y007269D01*
X013666Y007234D01*
X013591Y007209D01*
X013513Y007197D01*
X013494Y007197D01*
X013494Y007677D01*
X013454Y007677D01*
X013454Y007197D01*
X013434Y007197D01*
X013357Y007209D01*
X013282Y007234D01*
X013212Y007269D01*
X013148Y007316D01*
X013092Y007371D01*
X013046Y007435D01*
X013010Y007505D01*
X012986Y007580D01*
X012974Y007658D01*
X012974Y007677D01*
X013453Y007677D01*
X013453Y007717D01*
X012974Y007717D01*
X012974Y007736D01*
X012986Y007814D01*
X013010Y007889D01*
X013046Y007959D01*
X013092Y008023D01*
X013009Y007886D02*
X012915Y007886D01*
X012954Y007728D02*
X012974Y007728D01*
X012989Y007569D02*
X012940Y007569D01*
X012866Y007411D02*
X013064Y007411D01*
X013246Y007252D02*
X012654Y007252D01*
X012294Y007252D02*
X011654Y007252D01*
X011866Y007411D02*
X012081Y007411D01*
X012007Y007569D02*
X011940Y007569D01*
X011954Y007728D02*
X011994Y007728D01*
X012033Y007886D02*
X011915Y007886D01*
X011805Y008045D02*
X012143Y008045D01*
X012254Y008203D02*
X011694Y008203D01*
X011694Y008362D02*
X012248Y008362D01*
X012089Y008520D02*
X011694Y008520D01*
X011553Y008679D02*
X011931Y008679D01*
X011254Y008203D02*
X010064Y008203D01*
X009956Y008045D02*
X011143Y008045D01*
X011033Y007886D02*
X009205Y007886D01*
X009205Y007728D02*
X010994Y007728D01*
X011007Y007569D02*
X009205Y007569D01*
X009181Y007411D02*
X011081Y007411D01*
X011294Y007252D02*
X007959Y007252D01*
X007599Y007322D02*
X007599Y006947D01*
X014474Y006947D01*
X017474Y006947D01*
X017474Y007697D01*
X017308Y007697D01*
X017665Y007886D02*
X027512Y007886D01*
X027512Y007937D02*
X027512Y007715D01*
X027870Y007715D01*
X027870Y007678D01*
X027512Y007678D01*
X027512Y007457D01*
X027524Y007411D01*
X027548Y007370D01*
X027582Y007336D01*
X027623Y007313D01*
X027668Y007300D01*
X027871Y007300D01*
X027871Y007678D01*
X027907Y007678D01*
X027907Y007300D01*
X028110Y007300D01*
X028155Y007313D01*
X028196Y007336D01*
X028230Y007370D01*
X028236Y007380D01*
X028295Y007320D01*
X028821Y007320D01*
X028915Y007414D01*
X028915Y007477D01*
X029494Y007477D01*
X029494Y007311D01*
X029587Y007217D01*
X030360Y007217D01*
X030454Y007311D01*
X030454Y008083D01*
X030360Y008177D01*
X029587Y008177D01*
X029494Y008083D01*
X029494Y007917D01*
X028915Y007917D01*
X028915Y007980D01*
X028821Y008073D01*
X028295Y008073D01*
X028236Y008014D01*
X028230Y008024D01*
X028196Y008057D01*
X028155Y008081D01*
X028110Y008093D01*
X027907Y008093D01*
X027907Y007716D01*
X027871Y007716D01*
X027871Y008093D01*
X027668Y008093D01*
X027623Y008081D01*
X027582Y008057D01*
X027548Y008024D01*
X027524Y007983D01*
X027512Y007937D01*
X027569Y008045D02*
X017600Y008045D01*
X017016Y008045D02*
X016931Y008045D01*
X016347Y008045D02*
X015954Y008045D01*
X015694Y008203D02*
X033146Y008203D01*
X033134Y008153D02*
X033120Y008027D01*
X034269Y008027D01*
X034269Y009176D01*
X034142Y009161D01*
X034008Y009131D01*
X033877Y009085D01*
X033753Y009025D01*
X033636Y008952D01*
X033528Y008865D01*
X033430Y008768D01*
X033344Y008660D01*
X033270Y008543D01*
X033211Y008418D01*
X033165Y008288D01*
X033134Y008153D01*
X033122Y008045D02*
X030454Y008045D01*
X030454Y007886D02*
X034269Y007886D01*
X034269Y007867D02*
X033120Y007867D01*
X033134Y007741D01*
X033165Y007606D01*
X033211Y007475D01*
X033270Y007351D01*
X033344Y007234D01*
X033430Y007126D01*
X033528Y007028D01*
X033636Y006942D01*
X033753Y006869D01*
X033877Y006809D01*
X034008Y006763D01*
X034142Y006732D01*
X034269Y006718D01*
X034269Y007867D01*
X034429Y007867D01*
X034429Y008027D01*
X035577Y008027D01*
X035563Y008153D01*
X035532Y008288D01*
X035487Y008418D01*
X035427Y008543D01*
X035353Y008660D01*
X035267Y008768D01*
X035170Y008865D01*
X035062Y008952D01*
X034945Y009025D01*
X034820Y009085D01*
X034690Y009131D01*
X034555Y009161D01*
X034429Y009176D01*
X034429Y008027D01*
X034269Y008027D01*
X034269Y007867D01*
X034269Y007728D02*
X034429Y007728D01*
X034429Y007867D02*
X034429Y006718D01*
X034555Y006732D01*
X034690Y006763D01*
X034820Y006809D01*
X034945Y006869D01*
X035062Y006942D01*
X035170Y007028D01*
X035267Y007126D01*
X035353Y007234D01*
X035427Y007351D01*
X035487Y007475D01*
X035532Y007606D01*
X035563Y007741D01*
X035577Y007867D01*
X034429Y007867D01*
X034429Y007886D02*
X035664Y007886D01*
X035664Y007728D02*
X035560Y007728D01*
X035520Y007569D02*
X035664Y007569D01*
X035664Y007411D02*
X035456Y007411D01*
X035365Y007252D02*
X035664Y007252D01*
X035664Y007093D02*
X035235Y007093D01*
X035050Y006935D02*
X035664Y006935D01*
X035664Y006776D02*
X034727Y006776D01*
X034429Y006776D02*
X034269Y006776D01*
X034269Y006935D02*
X034429Y006935D01*
X034429Y007093D02*
X034269Y007093D01*
X034269Y007252D02*
X034429Y007252D01*
X034429Y007411D02*
X034269Y007411D01*
X034269Y007569D02*
X034429Y007569D01*
X034429Y008045D02*
X034269Y008045D01*
X034269Y008203D02*
X034429Y008203D01*
X034429Y008362D02*
X034269Y008362D01*
X034269Y008520D02*
X034429Y008520D01*
X034429Y008679D02*
X034269Y008679D01*
X034269Y008837D02*
X034429Y008837D01*
X034429Y008996D02*
X034269Y008996D01*
X034269Y009154D02*
X034429Y009154D01*
X034585Y009154D02*
X035664Y009154D01*
X035664Y008996D02*
X034991Y008996D01*
X035198Y008837D02*
X035664Y008837D01*
X035664Y008679D02*
X035338Y008679D01*
X035438Y008520D02*
X035664Y008520D01*
X035664Y008362D02*
X035507Y008362D01*
X035552Y008203D02*
X035664Y008203D01*
X035664Y008045D02*
X035575Y008045D01*
X033706Y008996D02*
X028955Y008996D01*
X028955Y009154D02*
X034112Y009154D01*
X033500Y008837D02*
X028853Y008837D01*
X028577Y008837D02*
X028540Y008837D01*
X028540Y008996D02*
X028577Y008996D01*
X028577Y009154D02*
X028540Y009154D01*
X028540Y009313D02*
X028577Y009313D01*
X028577Y009472D02*
X028540Y009472D01*
X028234Y009630D02*
X029173Y009630D01*
X029025Y009789D02*
X028234Y009789D01*
X028500Y009947D02*
X028989Y009947D01*
X028972Y010106D02*
X029025Y010106D01*
X029130Y010264D02*
X029174Y010264D01*
X028974Y010447D02*
X028974Y014697D01*
X027994Y014697D01*
X027434Y014704D02*
X024944Y014704D01*
X024944Y014862D02*
X027434Y014862D01*
X027434Y014545D02*
X025427Y014545D01*
X025021Y014545D02*
X024944Y014545D01*
X024504Y014545D02*
X024427Y014545D01*
X024504Y014704D02*
X021584Y014704D01*
X021545Y014862D02*
X024504Y014862D01*
X024504Y015021D02*
X021383Y015021D01*
X021064Y015021D02*
X017883Y015021D01*
X018045Y014862D02*
X020902Y014862D01*
X020864Y014704D02*
X018084Y014704D01*
X018427Y014545D02*
X019992Y014545D01*
X019995Y014548D02*
X019962Y014514D01*
X019938Y014473D01*
X019926Y014427D01*
X019926Y013971D01*
X020223Y013971D01*
X020223Y014584D01*
X020082Y014584D01*
X020036Y014571D01*
X019995Y014548D01*
X019926Y014386D02*
X019720Y014386D01*
X019819Y014228D02*
X019926Y014228D01*
X019926Y014069D02*
X019819Y014069D01*
X019819Y013911D02*
X019926Y013911D01*
X019926Y013752D02*
X019819Y013752D01*
X019819Y013594D02*
X019926Y013594D01*
X019957Y013435D02*
X019819Y013435D01*
X019819Y013277D02*
X020419Y013277D01*
X020364Y013118D02*
X019819Y013118D01*
X019819Y012960D02*
X020381Y012960D01*
X020486Y012801D02*
X019819Y012801D01*
X019907Y012642D02*
X020504Y012642D01*
X020504Y012484D02*
X020441Y012484D01*
X020007Y012484D02*
X019959Y012484D01*
X019946Y012344D02*
X019946Y011917D01*
X019888Y011917D01*
X019803Y012002D01*
X019670Y012057D01*
X019527Y012057D01*
X019395Y012002D01*
X019294Y011901D01*
X019239Y011769D01*
X019239Y011625D01*
X019273Y011542D01*
X018502Y011542D01*
X018502Y012423D01*
X018464Y012461D01*
X018464Y012722D01*
X018598Y012857D01*
X018597Y012853D01*
X018597Y012631D01*
X018955Y012631D01*
X018955Y012594D01*
X018597Y012594D01*
X018597Y012372D01*
X018609Y012326D01*
X018633Y012285D01*
X018666Y012252D01*
X018707Y012228D01*
X018753Y012216D01*
X018955Y012216D01*
X018955Y012594D01*
X018992Y012594D01*
X018992Y012216D01*
X019194Y012216D01*
X019240Y012228D01*
X019281Y012252D01*
X019287Y012258D01*
X019294Y012243D01*
X019395Y012142D01*
X019527Y012087D01*
X019670Y012087D01*
X019803Y012142D01*
X019904Y012243D01*
X019946Y012344D01*
X019946Y012325D02*
X019938Y012325D01*
X019946Y012167D02*
X019828Y012167D01*
X019788Y012008D02*
X019946Y012008D01*
X019410Y012008D02*
X018502Y012008D01*
X018502Y011850D02*
X019272Y011850D01*
X019239Y011691D02*
X018502Y011691D01*
X018247Y011947D02*
X018200Y011947D01*
X018224Y011923D01*
X018224Y012822D01*
X018683Y013282D01*
X018974Y013282D01*
X018974Y013947D01*
X020223Y013911D02*
X020224Y013911D01*
X020223Y014069D02*
X020224Y014069D01*
X020223Y014228D02*
X020224Y014228D01*
X020223Y014386D02*
X020224Y014386D01*
X020223Y014545D02*
X020224Y014545D01*
X020455Y014545D02*
X020521Y014545D01*
X020224Y013752D02*
X020223Y013752D01*
X020223Y013594D02*
X020224Y013594D01*
X020223Y013435D02*
X020224Y013435D01*
X018597Y012801D02*
X018542Y012801D01*
X018597Y012642D02*
X018464Y012642D01*
X018464Y012484D02*
X018597Y012484D01*
X018610Y012325D02*
X018502Y012325D01*
X018502Y012167D02*
X019370Y012167D01*
X018992Y012325D02*
X018955Y012325D01*
X018955Y012484D02*
X018992Y012484D01*
X018247Y011947D02*
X018224Y011923D01*
X018200Y011947D02*
X017724Y011947D01*
X017724Y011923D01*
X021224Y011947D02*
X021224Y011923D01*
X021224Y011947D02*
X021747Y011947D01*
X021724Y011923D01*
X021724Y012822D01*
X022183Y013282D01*
X022474Y013282D01*
X022474Y013947D01*
X023319Y013911D02*
X023426Y013911D01*
X023426Y013971D02*
X023723Y013971D01*
X023723Y014584D01*
X023582Y014584D01*
X023536Y014571D01*
X023495Y014548D01*
X023462Y014514D01*
X023438Y014473D01*
X023426Y014427D01*
X023426Y013971D01*
X023426Y014069D02*
X023319Y014069D01*
X023319Y014228D02*
X023426Y014228D01*
X023426Y014386D02*
X023220Y014386D01*
X023492Y014545D02*
X021927Y014545D01*
X023319Y013752D02*
X023426Y013752D01*
X023426Y013594D02*
X023319Y013594D01*
X023319Y013435D02*
X023457Y013435D01*
X023319Y013277D02*
X023919Y013277D01*
X023864Y013118D02*
X023319Y013118D01*
X023319Y012960D02*
X023881Y012960D01*
X023986Y012801D02*
X023319Y012801D01*
X023407Y012642D02*
X024004Y012642D01*
X024004Y012484D02*
X023941Y012484D01*
X023507Y012484D02*
X023459Y012484D01*
X023446Y012344D02*
X023446Y011917D01*
X023388Y011917D01*
X023303Y012002D01*
X023170Y012057D01*
X023027Y012057D01*
X022895Y012002D01*
X022794Y011901D01*
X022739Y011769D01*
X022739Y011625D01*
X022773Y011542D01*
X022002Y011542D01*
X022002Y012423D01*
X021964Y012461D01*
X021964Y012722D01*
X022098Y012857D01*
X022097Y012853D01*
X022097Y012631D01*
X022455Y012631D01*
X022455Y012594D01*
X022097Y012594D01*
X022097Y012372D01*
X022109Y012326D01*
X022133Y012285D01*
X022166Y012252D01*
X022207Y012228D01*
X022253Y012216D01*
X022455Y012216D01*
X022455Y012594D01*
X022492Y012594D01*
X022492Y012216D01*
X022694Y012216D01*
X022740Y012228D01*
X022781Y012252D01*
X022787Y012258D01*
X022794Y012243D01*
X022895Y012142D01*
X023027Y012087D01*
X023170Y012087D01*
X023303Y012142D01*
X023404Y012243D01*
X023446Y012344D01*
X023446Y012325D02*
X023438Y012325D01*
X023446Y012167D02*
X023328Y012167D01*
X023288Y012008D02*
X023446Y012008D01*
X022910Y012008D02*
X022002Y012008D01*
X022002Y011850D02*
X022772Y011850D01*
X022739Y011691D02*
X022002Y011691D01*
X022002Y012167D02*
X022870Y012167D01*
X022492Y012325D02*
X022455Y012325D01*
X022455Y012484D02*
X022492Y012484D01*
X022097Y012484D02*
X021964Y012484D01*
X021964Y012642D02*
X022097Y012642D01*
X022097Y012801D02*
X022042Y012801D01*
X022002Y012325D02*
X022110Y012325D01*
X023723Y013435D02*
X023724Y013435D01*
X023723Y013594D02*
X023724Y013594D01*
X023723Y013752D02*
X023724Y013752D01*
X023723Y013911D02*
X023724Y013911D01*
X023723Y014069D02*
X023724Y014069D01*
X023723Y014228D02*
X023724Y014228D01*
X023723Y014386D02*
X023724Y014386D01*
X023723Y014545D02*
X023724Y014545D01*
X023955Y014545D02*
X024021Y014545D01*
X024944Y015021D02*
X028814Y015021D01*
X028743Y015655D02*
X029120Y015655D01*
X029279Y015813D02*
X028901Y015813D01*
X029060Y015972D02*
X029438Y015972D01*
X029596Y016130D02*
X029218Y016130D01*
X029377Y016289D02*
X029755Y016289D01*
X029913Y016447D02*
X029535Y016447D01*
X029694Y016606D02*
X030072Y016606D01*
X030220Y016765D02*
X030230Y016765D01*
X030379Y016923D02*
X030389Y016923D01*
X030454Y017082D02*
X030494Y017082D01*
X030494Y017240D02*
X030454Y017240D01*
X030451Y017399D02*
X030497Y017399D01*
X030655Y017557D02*
X030292Y017557D01*
X029655Y017557D02*
X029292Y017557D01*
X029451Y017399D02*
X029497Y017399D01*
X029494Y017240D02*
X029454Y017240D01*
X029454Y017082D02*
X029494Y017082D01*
X029389Y016923D02*
X029379Y016923D01*
X029230Y016765D02*
X029220Y016765D01*
X029072Y016606D02*
X028694Y016606D01*
X028535Y016447D02*
X028913Y016447D01*
X028755Y016289D02*
X028377Y016289D01*
X028218Y016130D02*
X028596Y016130D01*
X028438Y015972D02*
X028060Y015972D01*
X028454Y017082D02*
X028494Y017082D01*
X028494Y017240D02*
X028454Y017240D01*
X028454Y017399D02*
X028497Y017399D01*
X028454Y017557D02*
X028655Y017557D01*
X031292Y017557D02*
X031627Y017557D01*
X031474Y017399D02*
X031451Y017399D01*
X031454Y017240D02*
X031474Y017240D01*
X031474Y017082D02*
X031454Y017082D01*
X031379Y016923D02*
X031540Y016923D01*
X031699Y016765D02*
X031220Y016765D01*
X033769Y018033D02*
X002553Y018033D01*
X002054Y018033D02*
X001894Y018033D01*
X001894Y017874D02*
X002054Y017874D01*
X002054Y017716D02*
X001894Y017716D01*
X001894Y017557D02*
X002054Y017557D01*
X002054Y017399D02*
X001894Y017399D01*
X001894Y017240D02*
X002054Y017240D01*
X002054Y017082D02*
X001894Y017082D01*
X000654Y015496D02*
X003962Y015496D01*
X003879Y015338D02*
X000654Y015338D01*
X000654Y015179D02*
X003879Y015179D01*
X003879Y015021D02*
X000654Y015021D01*
X000654Y014862D02*
X003879Y014862D01*
X002831Y014704D02*
X001920Y014704D01*
X001945Y014545D02*
X002806Y014545D01*
X002806Y014386D02*
X001945Y014386D01*
X001945Y014228D02*
X002806Y014228D01*
X002785Y014069D02*
X001945Y014069D01*
X001945Y013911D02*
X002754Y013911D01*
X002754Y013752D02*
X001938Y013752D01*
X002249Y013594D02*
X000654Y013594D01*
X000654Y013435D02*
X002138Y013435D01*
X002117Y013277D02*
X000654Y013277D01*
X000654Y013118D02*
X002168Y013118D01*
X002394Y012960D02*
X000654Y012960D01*
X000654Y012801D02*
X002806Y012801D01*
X002806Y012642D02*
X000654Y012642D01*
X000654Y012484D02*
X002806Y012484D01*
X002806Y012325D02*
X000654Y012325D01*
X000654Y012167D02*
X002806Y012167D01*
X002806Y012008D02*
X000654Y012008D01*
X000654Y011850D02*
X002238Y011850D01*
X002271Y011884D02*
X002171Y011783D01*
X002117Y011652D01*
X002117Y011510D01*
X002171Y011378D01*
X002271Y011278D01*
X002403Y011224D01*
X002545Y011224D01*
X002676Y011278D01*
X002776Y011378D01*
X002831Y011510D01*
X002831Y011599D01*
X002855Y011575D01*
X002896Y011551D01*
X002942Y011539D01*
X003458Y011539D01*
X003458Y011817D01*
X003458Y011817D01*
X003458Y011817D01*
X002786Y011817D01*
X002786Y011760D01*
X002776Y011783D01*
X002676Y011884D01*
X002545Y011938D01*
X002403Y011938D01*
X002271Y011884D01*
X002133Y011691D02*
X000654Y011691D01*
X000654Y011533D02*
X002117Y011533D01*
X002175Y011374D02*
X000654Y011374D01*
X000654Y011216D02*
X000721Y011216D01*
X001864Y011216D02*
X002886Y011216D01*
X002900Y011229D02*
X002806Y011135D01*
X002806Y010215D01*
X002900Y010122D01*
X004016Y010122D01*
X004110Y010215D01*
X004110Y011135D01*
X004016Y011229D01*
X002900Y011229D01*
X002772Y011374D02*
X004129Y011374D01*
X004129Y011216D02*
X004030Y011216D01*
X004110Y011057D02*
X004129Y011057D01*
X004129Y010898D02*
X004110Y010898D01*
X004110Y010740D02*
X004129Y010740D01*
X004110Y010581D02*
X004278Y010581D01*
X004437Y010423D02*
X004110Y010423D01*
X004110Y010264D02*
X004595Y010264D01*
X004754Y010106D02*
X000654Y010106D01*
X000654Y009947D02*
X004912Y009947D01*
X005071Y009789D02*
X000654Y009789D01*
X000654Y009630D02*
X005229Y009630D01*
X005388Y009472D02*
X000654Y009472D01*
X000654Y009313D02*
X005546Y009313D01*
X005705Y009154D02*
X002210Y009154D01*
X002180Y009161D02*
X002054Y009176D01*
X002054Y008027D01*
X003202Y008027D01*
X003188Y008153D01*
X003157Y008288D01*
X003112Y008418D01*
X003052Y008543D01*
X002978Y008660D01*
X002892Y008768D01*
X002795Y008865D01*
X002687Y008952D01*
X002570Y009025D01*
X002445Y009085D01*
X002315Y009131D01*
X002180Y009161D01*
X002054Y009154D02*
X001894Y009154D01*
X001894Y009176D02*
X001767Y009161D01*
X001633Y009131D01*
X001502Y009085D01*
X001378Y009025D01*
X001261Y008952D01*
X001153Y008865D01*
X001055Y008768D01*
X000969Y008660D01*
X000895Y008543D01*
X000836Y008418D01*
X000790Y008288D01*
X000759Y008153D01*
X000745Y008027D01*
X001894Y008027D01*
X001894Y009176D01*
X001737Y009154D02*
X000654Y009154D01*
X000654Y008996D02*
X001331Y008996D01*
X001125Y008837D02*
X000654Y008837D01*
X000654Y008679D02*
X000984Y008679D01*
X000885Y008520D02*
X000654Y008520D01*
X000654Y008362D02*
X000816Y008362D01*
X000771Y008203D02*
X000654Y008203D01*
X000654Y008045D02*
X000747Y008045D01*
X000745Y007867D02*
X000759Y007741D01*
X000790Y007606D01*
X000836Y007475D01*
X000895Y007351D01*
X000969Y007234D01*
X001055Y007126D01*
X001153Y007028D01*
X001261Y006942D01*
X001378Y006869D01*
X001502Y006809D01*
X001633Y006763D01*
X001767Y006732D01*
X001894Y006718D01*
X001894Y007867D01*
X002054Y007867D01*
X002054Y008027D01*
X001894Y008027D01*
X001894Y007867D01*
X000745Y007867D01*
X000654Y007886D02*
X001894Y007886D01*
X001894Y007728D02*
X002054Y007728D01*
X002054Y007867D02*
X002054Y006718D01*
X002180Y006732D01*
X002315Y006763D01*
X002445Y006809D01*
X002570Y006869D01*
X002687Y006942D01*
X002795Y007028D01*
X002892Y007126D01*
X002978Y007234D01*
X003052Y007351D01*
X003112Y007475D01*
X003157Y007606D01*
X003188Y007741D01*
X003202Y007867D01*
X002054Y007867D01*
X002054Y007886D02*
X007158Y007886D01*
X007022Y008045D02*
X003200Y008045D01*
X003177Y008203D02*
X006989Y008203D01*
X007539Y007886D02*
X007574Y007886D01*
X007675Y008045D02*
X007847Y008045D01*
X007870Y008203D02*
X007709Y008203D01*
X007798Y008362D02*
X007870Y008362D01*
X007870Y008520D02*
X007798Y008520D01*
X007834Y008553D02*
X007834Y009007D01*
X007834Y008553D01*
X007834Y008679D02*
X007834Y008679D01*
X007834Y008837D02*
X007834Y008837D01*
X007834Y008996D02*
X007834Y008996D01*
X007834Y009007D02*
X007834Y009007D01*
X007834Y009008D02*
X007834Y009008D01*
X007834Y009463D01*
X007926Y009463D01*
X007972Y009450D01*
X007985Y009443D01*
X008126Y009443D01*
X008126Y009853D01*
X008126Y010035D01*
X008629Y010538D01*
X008707Y010616D01*
X008645Y010642D01*
X008544Y010743D01*
X008536Y010760D01*
X008420Y010712D01*
X008305Y010712D01*
X008334Y010644D01*
X008334Y010500D01*
X008279Y010368D01*
X008178Y010267D01*
X008054Y010215D01*
X008084Y010144D01*
X008084Y010000D01*
X008029Y009868D01*
X007928Y009767D01*
X007795Y009712D01*
X007652Y009712D01*
X007542Y009758D01*
X007542Y009632D01*
X007542Y009443D01*
X007683Y009443D01*
X007696Y009450D01*
X007742Y009463D01*
X007834Y009463D01*
X007834Y009008D01*
X007834Y009154D02*
X007834Y009154D01*
X007834Y009313D02*
X007834Y009313D01*
X007542Y009472D02*
X008126Y009472D01*
X008126Y009630D02*
X007542Y009630D01*
X007950Y009789D02*
X008126Y009789D01*
X008126Y009947D02*
X008062Y009947D01*
X008084Y010106D02*
X008196Y010106D01*
X008172Y010264D02*
X008355Y010264D01*
X008302Y010423D02*
X008514Y010423D01*
X008672Y010581D02*
X008334Y010581D01*
X008488Y010740D02*
X008547Y010740D01*
X006903Y010581D02*
X005275Y010581D01*
X005434Y010423D02*
X006566Y010423D01*
X006489Y010264D02*
X005592Y010264D01*
X005751Y010106D02*
X006497Y010106D01*
X006589Y009947D02*
X005909Y009947D01*
X006068Y009789D02*
X006946Y009789D01*
X007102Y009630D02*
X006227Y009630D01*
X006385Y009472D02*
X007102Y009472D01*
X006582Y009313D02*
X006544Y009313D01*
X006022Y008837D02*
X002823Y008837D01*
X002963Y008679D02*
X006181Y008679D01*
X006339Y008520D02*
X003063Y008520D01*
X003132Y008362D02*
X006498Y008362D01*
X007415Y007728D02*
X003185Y007728D01*
X003145Y007569D02*
X007337Y007569D01*
X007246Y007411D02*
X003081Y007411D01*
X002990Y007252D02*
X007239Y007252D01*
X007318Y007093D02*
X002860Y007093D01*
X002675Y006935D02*
X007359Y006935D01*
X007430Y006776D02*
X002352Y006776D01*
X002054Y006776D02*
X001894Y006776D01*
X001894Y006935D02*
X002054Y006935D01*
X002054Y007093D02*
X001894Y007093D01*
X001894Y007252D02*
X002054Y007252D01*
X002054Y007411D02*
X001894Y007411D01*
X001894Y007569D02*
X002054Y007569D01*
X002054Y008045D02*
X001894Y008045D01*
X001894Y008203D02*
X002054Y008203D01*
X002054Y008362D02*
X001894Y008362D01*
X001894Y008520D02*
X002054Y008520D01*
X002054Y008679D02*
X001894Y008679D01*
X001894Y008837D02*
X002054Y008837D01*
X002054Y008996D02*
X001894Y008996D01*
X002616Y008996D02*
X005864Y008996D01*
X008310Y008520D02*
X009405Y008520D01*
X009364Y008362D02*
X008310Y008362D01*
X008310Y008203D02*
X009383Y008203D01*
X009492Y008045D02*
X009123Y008045D01*
X008827Y008045D02*
X008790Y008045D01*
X008790Y007886D02*
X008827Y007886D01*
X008827Y007728D02*
X008790Y007728D01*
X008790Y007569D02*
X008827Y007569D01*
X008827Y007411D02*
X008790Y007411D01*
X008139Y007697D02*
X007724Y007697D01*
X007599Y007572D01*
X007599Y007322D01*
X008431Y008045D02*
X008493Y008045D01*
X013309Y009472D02*
X015126Y009472D01*
X015114Y009630D02*
X013468Y009630D01*
X015694Y009154D02*
X027513Y009154D01*
X027513Y008996D02*
X015694Y008996D01*
X015694Y008837D02*
X028264Y008837D01*
X027889Y009197D02*
X027994Y009302D01*
X027994Y010197D01*
X028724Y010197D01*
X028974Y010447D01*
X029525Y009630D02*
X035664Y009630D01*
X035664Y009472D02*
X028938Y009472D01*
X028955Y009313D02*
X035664Y009313D01*
X033359Y008679D02*
X015694Y008679D01*
X015694Y008520D02*
X033260Y008520D01*
X033191Y008362D02*
X015694Y008362D01*
X014994Y008045D02*
X014805Y008045D01*
X014915Y007886D02*
X014994Y007886D01*
X014994Y007728D02*
X014954Y007728D01*
X014940Y007569D02*
X014994Y007569D01*
X014994Y007411D02*
X014866Y007411D01*
X014714Y007252D02*
X015052Y007252D01*
X014474Y006947D02*
X014474Y007697D01*
X014033Y007886D02*
X013938Y007886D01*
X013974Y007728D02*
X013994Y007728D01*
X014007Y007569D02*
X013958Y007569D01*
X013884Y007411D02*
X014081Y007411D01*
X014234Y007252D02*
X013702Y007252D01*
X013494Y007252D02*
X013454Y007252D01*
X013454Y007411D02*
X013494Y007411D01*
X013494Y007569D02*
X013454Y007569D01*
X013454Y007728D02*
X013494Y007728D01*
X013494Y007886D02*
X013454Y007886D01*
X013454Y008045D02*
X013494Y008045D01*
X013833Y008045D02*
X014143Y008045D01*
X015954Y007411D02*
X016286Y007411D01*
X015895Y007252D02*
X017234Y007252D01*
X017714Y007252D02*
X029552Y007252D01*
X029494Y007411D02*
X028912Y007411D01*
X027907Y007411D02*
X027871Y007411D01*
X027871Y007569D02*
X027907Y007569D01*
X027907Y007728D02*
X027871Y007728D01*
X027871Y007886D02*
X027907Y007886D01*
X027907Y008045D02*
X027871Y008045D01*
X028209Y008045D02*
X028266Y008045D01*
X028850Y008045D02*
X029494Y008045D01*
X030454Y007728D02*
X033137Y007728D01*
X033178Y007569D02*
X030454Y007569D01*
X030454Y007411D02*
X033242Y007411D01*
X033333Y007252D02*
X030395Y007252D01*
X027525Y007411D02*
X017714Y007411D01*
X017714Y007569D02*
X027512Y007569D01*
X027512Y007728D02*
X017714Y007728D01*
X017714Y007093D02*
X033463Y007093D01*
X033647Y006935D02*
X017714Y006935D01*
X017643Y006776D02*
X033970Y006776D01*
X027754Y009630D02*
X026909Y009630D01*
X026959Y009789D02*
X027754Y009789D01*
X027487Y009947D02*
X026936Y009947D01*
X027194Y010106D02*
X027434Y010106D01*
X027434Y010264D02*
X027352Y010264D01*
X027524Y009472D02*
X026694Y009472D01*
X026504Y009472D02*
X015822Y009472D01*
X015834Y009630D02*
X016104Y009630D01*
X015724Y009313D02*
X027513Y009313D01*
X026657Y011691D02*
X025502Y011691D01*
X025502Y011850D02*
X026815Y011850D01*
X026974Y012008D02*
X025502Y012008D01*
X025502Y012167D02*
X026370Y012167D01*
X025992Y012325D02*
X025955Y012325D01*
X025955Y012484D02*
X025992Y012484D01*
X025597Y012484D02*
X025464Y012484D01*
X025464Y012642D02*
X025597Y012642D01*
X025597Y012801D02*
X025542Y012801D01*
X025224Y012822D02*
X025224Y011923D01*
X025247Y011947D01*
X025200Y011947D01*
X025224Y011923D01*
X025200Y011947D02*
X024724Y011947D01*
X024724Y011923D01*
X025502Y012325D02*
X025610Y012325D01*
X025224Y012822D02*
X025683Y013282D01*
X025974Y013282D01*
X025974Y013322D02*
X025974Y013947D01*
X026819Y013911D02*
X027451Y013911D01*
X027434Y014069D02*
X026819Y014069D01*
X026819Y014228D02*
X027434Y014228D01*
X027434Y014386D02*
X026720Y014386D01*
X026819Y013752D02*
X027434Y013752D01*
X027434Y013594D02*
X026819Y013594D01*
X026819Y013435D02*
X027476Y013435D01*
X027434Y013277D02*
X026819Y013277D01*
X026819Y013118D02*
X027434Y013118D01*
X027475Y012960D02*
X026819Y012960D01*
X026819Y012801D02*
X027434Y012801D01*
X027434Y012642D02*
X026907Y012642D01*
X026959Y012484D02*
X027450Y012484D01*
X027291Y012325D02*
X026938Y012325D01*
X026828Y012167D02*
X027132Y012167D01*
X033145Y011057D02*
X033185Y011057D01*
X035571Y017082D02*
X035664Y017082D01*
X035664Y017240D02*
X035543Y017240D01*
X035494Y017399D02*
X035664Y017399D01*
X035664Y017557D02*
X035418Y017557D01*
X035309Y017716D02*
X035664Y017716D01*
X035664Y017874D02*
X035158Y017874D01*
X013521Y014545D02*
X013455Y014545D01*
X013224Y014545D02*
X013223Y014545D01*
X013223Y014584D02*
X013082Y014584D01*
X013036Y014571D01*
X012995Y014548D01*
X012962Y014514D01*
X012938Y014473D01*
X012926Y014427D01*
X012926Y013971D01*
X013223Y013971D01*
X013223Y014584D01*
X013223Y014386D02*
X013224Y014386D01*
X013223Y014228D02*
X013224Y014228D01*
X013223Y014069D02*
X013224Y014069D01*
X013223Y013911D02*
X013224Y013911D01*
X013223Y013752D02*
X013224Y013752D01*
X013223Y013594D02*
X013224Y013594D01*
X013223Y013435D02*
X013224Y013435D01*
X013419Y013277D02*
X012694Y013277D01*
X012694Y013435D02*
X012957Y013435D01*
X012926Y013594D02*
X012694Y013594D01*
X012694Y013752D02*
X012926Y013752D01*
X012926Y013911D02*
X012694Y013911D01*
X012694Y014069D02*
X012926Y014069D01*
X012926Y014228D02*
X012694Y014228D01*
X012694Y014386D02*
X012926Y014386D01*
X012992Y014545D02*
X012694Y014545D01*
X012694Y013118D02*
X013364Y013118D01*
X013381Y012960D02*
X012694Y012960D01*
X012694Y012801D02*
X013486Y012801D01*
X013504Y012484D02*
X013441Y012484D01*
X011504Y012960D02*
X011184Y012960D01*
X011184Y013118D02*
X011504Y013118D01*
X010631Y012801D02*
X009983Y012801D01*
X009983Y012642D02*
X010194Y012642D01*
X010205Y012484D02*
X009983Y012484D01*
X010366Y012167D02*
X010434Y012167D01*
X010631Y012484D02*
X010747Y012484D01*
X010747Y012642D02*
X010631Y012642D01*
X010194Y012960D02*
X009983Y012960D01*
X009983Y013118D02*
X010194Y013118D01*
X010347Y013277D02*
X008603Y013277D01*
X008636Y013118D02*
X009033Y013118D01*
X009033Y012960D02*
X008636Y012960D01*
X008636Y012801D02*
X008892Y012801D01*
X008733Y012642D02*
X008627Y012642D01*
X008348Y012642D02*
X008347Y012642D01*
X008347Y012801D02*
X008348Y012801D01*
X008347Y012960D02*
X008348Y012960D01*
X008347Y013118D02*
X008348Y013118D01*
X008347Y013277D02*
X008348Y013277D01*
X008194Y013435D02*
X008791Y013435D01*
X008698Y013594D02*
X008553Y013594D01*
X008616Y013752D02*
X008698Y013752D01*
X009192Y013752D02*
X009352Y013752D01*
X009352Y013594D02*
X009192Y013594D01*
X009192Y013435D02*
X009352Y013435D01*
X009753Y013435D02*
X010463Y013435D01*
X010372Y013594D02*
X009846Y013594D01*
X009846Y013752D02*
X010372Y013752D01*
X011013Y012167D02*
X011383Y012167D01*
X011224Y012008D02*
X011084Y012008D01*
X006846Y010898D02*
X004958Y010898D01*
X005117Y010740D02*
X006846Y010740D01*
X004129Y011533D02*
X002831Y011533D01*
X002786Y011850D02*
X002710Y011850D01*
X003458Y011691D02*
X003458Y011691D01*
X002806Y011057D02*
X001945Y011057D01*
X001945Y010898D02*
X002806Y010898D01*
X002806Y010740D02*
X001945Y010740D01*
X001945Y010581D02*
X002806Y010581D01*
X002806Y010423D02*
X001945Y010423D01*
X001945Y010264D02*
X002806Y010264D01*
X000762Y007728D02*
X000654Y007728D01*
X000654Y007569D02*
X000803Y007569D01*
X000867Y007411D02*
X000654Y007411D01*
X000654Y007252D02*
X000958Y007252D01*
X001088Y007093D02*
X000654Y007093D01*
X000654Y006935D02*
X001272Y006935D01*
X001595Y006776D02*
X000654Y006776D01*
X002553Y012960D02*
X002775Y012960D01*
X002754Y013594D02*
X002698Y013594D01*
X000665Y014704D02*
X000654Y014704D01*
X005496Y015813D02*
X005532Y015813D01*
X005532Y015972D02*
X005496Y015972D01*
X005496Y016130D02*
X005532Y016130D01*
X005532Y016289D02*
X005496Y016289D01*
X005496Y016447D02*
X005532Y016447D01*
X005759Y016447D02*
X006038Y016447D01*
D29*
X006974Y015447D03*
X008349Y014572D03*
X010099Y014572D03*
X013474Y014947D03*
X014224Y014697D03*
X015474Y013947D03*
X017224Y013072D03*
X016099Y012322D03*
X015474Y011947D03*
X016099Y011697D03*
X016099Y010947D03*
X015474Y009572D03*
X018974Y011947D03*
X019599Y011697D03*
X019599Y012447D03*
X020724Y013072D03*
X022474Y013947D03*
X021224Y014697D03*
X020224Y014947D03*
X021224Y015697D03*
X023724Y014947D03*
X025974Y013947D03*
X024224Y013072D03*
X023099Y012447D03*
X022474Y011947D03*
X023099Y011697D03*
X023099Y010197D03*
X025974Y011947D03*
X026599Y012447D03*
X028974Y014697D03*
X030974Y014697D03*
X029349Y009947D03*
X026599Y009822D03*
X019599Y010572D03*
X013724Y013072D03*
X012849Y012572D03*
X010724Y011947D03*
X008849Y010947D03*
X008349Y011072D03*
X007974Y010572D03*
X007724Y010072D03*
X007849Y009572D03*
X006849Y010197D03*
X006474Y011447D03*
X007349Y012447D03*
X003474Y009447D03*
X007349Y008197D03*
X007599Y007322D03*
X009724Y008322D03*
X018974Y013947D03*
X017724Y014697D03*
X016724Y014947D03*
X017724Y016072D03*
X014224Y016447D03*
X008724Y017447D03*
D30*
X009639Y017447D01*
X010308Y017447D02*
X011560Y017447D01*
X012474Y016447D02*
X011724Y015697D01*
X011724Y012197D01*
X010974Y011447D01*
X009974Y011447D01*
X009881Y011539D01*
X009881Y011886D01*
X009625Y011886D02*
X009625Y011420D01*
X009849Y011197D01*
X011099Y011197D01*
X011974Y012072D01*
X011974Y015447D01*
X012599Y016072D01*
X017724Y016072D01*
X027849Y016072D01*
X028974Y017197D01*
X029974Y017197D02*
X028474Y015697D01*
X021224Y015697D01*
X012849Y015697D01*
X012224Y015072D01*
X012224Y011947D01*
X011224Y010947D01*
X009724Y010947D01*
X009369Y011301D01*
X009369Y011886D01*
X009113Y011886D02*
X009113Y011182D01*
X009599Y010697D01*
X011349Y010697D01*
X012474Y011822D01*
X012474Y014822D01*
X012974Y015322D01*
X024724Y015322D01*
X029099Y015322D01*
X030974Y017197D01*
X027974Y017197D02*
X027224Y016447D01*
X014224Y016447D01*
X012474Y016447D01*
X010925Y014620D02*
X010599Y014947D01*
X008224Y014947D01*
X007974Y014697D01*
X007974Y012935D01*
X007974Y012447D01*
X008090Y012331D01*
X008090Y011886D01*
X008602Y011886D02*
X008602Y011444D01*
X008849Y011197D01*
X008849Y010947D01*
X008349Y011072D02*
X007849Y011072D01*
X007578Y011343D01*
X007578Y011886D01*
X007322Y011886D02*
X007322Y010974D01*
X007724Y010572D01*
X007974Y010572D01*
X008346Y009944D02*
X008849Y010447D01*
X012349Y010447D01*
X013224Y011322D01*
X026599Y011322D01*
X027474Y012197D01*
X027994Y012197D01*
X027994Y011697D02*
X027349Y011697D01*
X026599Y010947D01*
X016099Y010947D01*
X013224Y010947D01*
X012474Y010197D01*
X008974Y010197D01*
X008602Y009825D01*
X008602Y009008D01*
X008858Y009008D02*
X008858Y009706D01*
X009099Y009947D01*
X012599Y009947D01*
X013224Y010572D01*
X019599Y010572D01*
X026849Y010572D01*
X027474Y011197D01*
X027994Y011197D01*
X027994Y010697D02*
X027474Y010697D01*
X026974Y010197D01*
X023099Y010197D01*
X013224Y010197D01*
X012724Y009697D01*
X009224Y009697D01*
X009113Y009587D01*
X009113Y009008D01*
X009369Y009008D02*
X009369Y009343D01*
X009474Y009447D01*
X012974Y009447D01*
X013474Y009947D01*
X016099Y009947D01*
X016224Y009822D01*
X026599Y009822D01*
X029349Y009947D02*
X029599Y010197D01*
X031954Y010197D01*
X031954Y010697D02*
X032474Y010697D01*
X033224Y011447D01*
X033474Y011447D01*
X033474Y012197D02*
X032474Y011197D01*
X031954Y011197D01*
X031954Y011697D02*
X032474Y011697D01*
X032849Y012072D01*
X032849Y012822D01*
X033474Y013447D01*
X032599Y013572D02*
X033474Y014447D01*
X032599Y013572D02*
X032599Y012322D01*
X032474Y012197D01*
X031954Y012197D01*
X033474Y012197D02*
X033474Y012447D01*
X026599Y012447D02*
X026599Y014197D01*
X026474Y014322D01*
X025224Y014322D01*
X025224Y013971D01*
X024724Y013971D02*
X024724Y015322D01*
X023099Y014197D02*
X022974Y014322D01*
X021724Y014322D01*
X021724Y013971D01*
X021724Y013947D01*
X021224Y013971D02*
X021224Y014697D01*
X019599Y014197D02*
X019474Y014322D01*
X018224Y014322D01*
X018224Y013971D01*
X018224Y013947D01*
X017724Y013971D02*
X017724Y014697D01*
X016099Y014197D02*
X015974Y014322D01*
X014724Y014322D01*
X014724Y013971D01*
X014724Y013947D01*
X014224Y013971D02*
X014224Y014697D01*
X016099Y014197D02*
X016099Y012322D01*
X016724Y011947D02*
X016724Y011923D01*
X016724Y011697D01*
X016099Y011697D01*
X017224Y011923D02*
X017224Y013072D01*
X019599Y012447D02*
X019599Y014197D01*
X020724Y013072D02*
X020724Y011923D01*
X020224Y011923D02*
X020224Y011697D01*
X019599Y011697D01*
X023099Y011697D02*
X023724Y011697D01*
X023724Y011923D01*
X024224Y011923D02*
X024224Y013072D01*
X023099Y012447D02*
X023099Y014197D01*
X015474Y009572D02*
X015474Y007697D01*
X016639Y007697D01*
X012474Y007697D02*
X012474Y008447D01*
X011913Y009008D01*
X010137Y009008D01*
X009881Y009008D02*
X009881Y008664D01*
X009974Y008572D01*
X011349Y008572D01*
X011474Y008447D01*
X011474Y007697D01*
X009724Y008322D02*
X009625Y008420D01*
X009625Y009008D01*
X008346Y009008D02*
X008346Y009944D01*
X007724Y010072D02*
X007066Y010729D01*
X007066Y011886D01*
X006849Y011864D02*
X006224Y011864D01*
X006224Y011982D02*
X006849Y011982D01*
X006849Y012101D02*
X006224Y012101D01*
X006224Y012219D02*
X006849Y012219D01*
X006849Y012338D02*
X006224Y012338D01*
X006224Y012456D02*
X006849Y012456D01*
X006849Y012575D02*
X006224Y012575D01*
X006224Y012693D02*
X006531Y012693D01*
X006492Y012732D02*
X006574Y012650D01*
X006849Y012650D01*
X006849Y011197D01*
X006224Y011197D01*
X006224Y012947D01*
X005599Y012947D01*
X005599Y013072D01*
X006224Y013072D01*
X006224Y014200D01*
X006655Y014200D01*
X006737Y014282D01*
X006737Y014614D01*
X006655Y014696D01*
X006224Y014696D01*
X006224Y016322D01*
X007224Y016322D01*
X007224Y014447D01*
X007724Y014447D01*
X007724Y013697D01*
X006849Y013697D01*
X006849Y013324D01*
X006574Y013324D01*
X006492Y013242D01*
X006492Y012732D01*
X006492Y012812D02*
X006224Y012812D01*
X006224Y012930D02*
X006492Y012930D01*
X006492Y013049D02*
X005599Y013049D01*
X006224Y013167D02*
X006492Y013167D01*
X006536Y013286D02*
X006224Y013286D01*
X006224Y013405D02*
X006849Y013405D01*
X006849Y013523D02*
X006224Y013523D01*
X006224Y013642D02*
X006849Y013642D01*
X006224Y013760D02*
X007724Y013760D01*
X007724Y013879D02*
X006224Y013879D01*
X006224Y013997D02*
X007724Y013997D01*
X007724Y014116D02*
X006224Y014116D01*
X006689Y014234D02*
X007724Y014234D01*
X007724Y014353D02*
X006737Y014353D01*
X006737Y014471D02*
X007224Y014471D01*
X007224Y014590D02*
X006737Y014590D01*
X007224Y014709D02*
X006224Y014709D01*
X006224Y014827D02*
X007224Y014827D01*
X007224Y014946D02*
X006224Y014946D01*
X006224Y015064D02*
X007224Y015064D01*
X007224Y015183D02*
X006224Y015183D01*
X006224Y015301D02*
X007224Y015301D01*
X007224Y015420D02*
X006224Y015420D01*
X006224Y015538D02*
X007224Y015538D01*
X007224Y015657D02*
X006224Y015657D01*
X006224Y015775D02*
X007224Y015775D01*
X007224Y015894D02*
X006224Y015894D01*
X006224Y016013D02*
X007224Y016013D01*
X007224Y016131D02*
X006224Y016131D01*
X006224Y016250D02*
X007224Y016250D01*
X006974Y016821D02*
X006974Y015447D01*
X005474Y015322D02*
X005474Y015072D01*
X004974Y015072D01*
X004849Y014947D01*
X004849Y014697D01*
X004974Y014572D01*
X005474Y014572D01*
X005474Y014072D01*
X004974Y014072D01*
X003974Y013072D01*
X002974Y013072D01*
X002974Y013685D01*
X004008Y013685D01*
X004090Y013767D01*
X004090Y013947D01*
X004099Y013947D01*
X004099Y015322D01*
X005474Y015322D01*
X005474Y015301D02*
X004099Y015301D01*
X004099Y015183D02*
X005474Y015183D01*
X004966Y015064D02*
X004099Y015064D01*
X004099Y014946D02*
X004849Y014946D01*
X004849Y014827D02*
X004099Y014827D01*
X004099Y014709D02*
X004849Y014709D01*
X004956Y014590D02*
X004099Y014590D01*
X004099Y014471D02*
X005474Y014471D01*
X005474Y014353D02*
X004099Y014353D01*
X004099Y014234D02*
X005474Y014234D01*
X005474Y014116D02*
X004099Y014116D01*
X004099Y013997D02*
X004899Y013997D01*
X004781Y013879D02*
X004090Y013879D01*
X004083Y013760D02*
X004662Y013760D01*
X004543Y013642D02*
X002974Y013642D01*
X002974Y013523D02*
X004425Y013523D01*
X004306Y013405D02*
X002974Y013405D01*
X002974Y013286D02*
X004188Y013286D01*
X004069Y013167D02*
X002974Y013167D01*
X003458Y012762D02*
X004284Y012762D01*
X004599Y012447D01*
X004599Y010947D01*
X006538Y009008D01*
X006810Y009008D01*
X006810Y009110D01*
X007066Y009008D02*
X007066Y008664D01*
X006974Y008572D01*
X006599Y008572D01*
X004349Y010822D01*
X004349Y012322D01*
X004224Y012447D01*
X003458Y012447D01*
X006224Y011745D02*
X006849Y011745D01*
X006849Y011626D02*
X006224Y011626D01*
X006224Y011508D02*
X006849Y011508D01*
X006849Y011389D02*
X006224Y011389D01*
X006224Y011271D02*
X006849Y011271D01*
X006849Y010197D02*
X007322Y009724D01*
X007322Y009008D01*
X007578Y009008D02*
X007578Y008426D01*
X007349Y008197D01*
X008090Y007746D02*
X008139Y007697D01*
X008090Y007746D02*
X008090Y009008D01*
X013224Y011322D02*
X013224Y011923D01*
X013724Y011923D02*
X013724Y013072D01*
X010925Y013947D02*
X010925Y014620D01*
X008349Y014572D02*
X008348Y014446D01*
X008348Y013959D01*
X007599Y012947D02*
X007349Y012947D01*
X007349Y012447D01*
X007349Y012947D02*
X006975Y012947D01*
X006849Y012987D01*
X007578Y012926D02*
X007599Y012947D01*
X007600Y012935D02*
X007578Y012913D01*
X007578Y012926D01*
X008858Y012456D02*
X009099Y012697D01*
X009383Y012697D01*
X009508Y012822D01*
X008858Y012456D02*
X008858Y011886D01*
X010137Y011886D02*
X010663Y011886D01*
X010724Y011947D01*
X006974Y016821D02*
X005100Y016821D01*
X005139Y017447D01*
X005808Y017447D02*
X007060Y017447D01*
X028558Y007697D02*
X029974Y007697D01*
M02*
