G75*
G70*
%OFA0B0*%
%FSLAX24Y24*%
%IPPOS*%
%LPD*%
%AMOC8*
5,1,8,0,0,1.08239X$1,22.5*
%
%ADD10C,0.0080*%
%ADD11C,0.0050*%
%ADD12C,0.0070*%
%ADD13R,0.0730X0.1260*%
%ADD14R,0.0730X0.0340*%
%ADD15C,0.0039*%
%ADD16C,0.0060*%
%ADD17R,0.0079X0.0079*%
%ADD18C,0.0040*%
%ADD19R,0.0531X0.0591*%
%ADD20C,0.0100*%
D10*
X006926Y004162D02*
X006926Y006742D01*
X008326Y006742D01*
X008326Y004162D01*
X006926Y004162D01*
X011866Y003483D02*
X011866Y003289D01*
X011963Y003192D01*
X012253Y003192D01*
X012253Y003773D01*
X012253Y003579D02*
X011963Y003579D01*
X011866Y003483D01*
X012474Y003289D02*
X012571Y003386D01*
X012861Y003386D01*
X012861Y003483D02*
X012861Y003192D01*
X012571Y003192D01*
X012474Y003289D01*
X012571Y003579D02*
X012764Y003579D01*
X012861Y003483D01*
X013082Y003579D02*
X013372Y003579D01*
X013469Y003483D01*
X013469Y003192D01*
X013689Y003289D02*
X013786Y003192D01*
X014076Y003192D01*
X014076Y003096D02*
X014076Y003579D01*
X013786Y003579D01*
X013689Y003483D01*
X013689Y003289D01*
X013980Y002999D02*
X014076Y003096D01*
X013980Y002999D02*
X013883Y002999D01*
X014297Y003289D02*
X014394Y003192D01*
X014587Y003192D01*
X014684Y003386D02*
X014297Y003386D01*
X014297Y003289D02*
X014297Y003483D01*
X014394Y003579D01*
X014587Y003579D01*
X014684Y003483D01*
X014684Y003386D01*
X014905Y003386D02*
X015098Y003579D01*
X015195Y003579D01*
X015411Y003483D02*
X015411Y003289D01*
X015508Y003192D01*
X015702Y003192D01*
X015798Y003289D01*
X015798Y003483D01*
X015702Y003579D01*
X015508Y003579D01*
X015411Y003483D01*
X014905Y003579D02*
X014905Y003192D01*
X016019Y003289D02*
X016116Y003192D01*
X016406Y003192D01*
X016406Y003579D01*
X016627Y003483D02*
X016723Y003579D01*
X017014Y003579D01*
X017234Y003579D02*
X017525Y003579D01*
X017621Y003483D01*
X017621Y003289D01*
X017525Y003192D01*
X017234Y003192D01*
X017234Y002999D02*
X017234Y003579D01*
X017014Y003289D02*
X016917Y003386D01*
X016723Y003386D01*
X016627Y003483D01*
X016019Y003579D02*
X016019Y003289D01*
X016627Y003192D02*
X016917Y003192D01*
X017014Y003289D01*
X017842Y003192D02*
X017842Y003579D01*
X017842Y003386D02*
X018036Y003579D01*
X018132Y003579D01*
X018349Y003483D02*
X018349Y003289D01*
X018445Y003192D01*
X018639Y003192D01*
X018736Y003289D01*
X018736Y003483D01*
X018639Y003579D01*
X018445Y003579D01*
X018349Y003483D01*
X018956Y003579D02*
X019150Y003579D01*
X019053Y003676D02*
X019053Y003289D01*
X019150Y003192D01*
X019361Y003289D02*
X019458Y003192D01*
X019652Y003192D01*
X019748Y003289D01*
X019748Y003483D01*
X019652Y003579D01*
X019458Y003579D01*
X019361Y003483D01*
X019361Y003289D01*
X019969Y003579D02*
X020163Y003579D01*
X020066Y003676D02*
X020066Y003289D01*
X020163Y003192D01*
X020374Y003289D02*
X020471Y003192D01*
X020761Y003192D01*
X020761Y003096D02*
X020664Y002999D01*
X020568Y002999D01*
X020761Y003096D02*
X020761Y003579D01*
X020982Y003579D02*
X021272Y003579D01*
X021369Y003483D01*
X021369Y003289D01*
X021272Y003192D01*
X020982Y003192D01*
X020982Y002999D02*
X020982Y003579D01*
X020838Y003992D02*
X020838Y004379D01*
X020838Y004186D02*
X021032Y004379D01*
X021129Y004379D01*
X020618Y004283D02*
X020618Y004186D01*
X020231Y004186D01*
X020231Y004089D02*
X020231Y004283D01*
X020327Y004379D01*
X020521Y004379D01*
X020618Y004283D01*
X020327Y003992D02*
X020231Y004089D01*
X020327Y003992D02*
X020521Y003992D01*
X020374Y003579D02*
X020374Y003289D01*
X020019Y003992D02*
X019922Y004089D01*
X019922Y004476D01*
X019825Y004379D02*
X020019Y004379D01*
X019605Y004379D02*
X019314Y004379D01*
X019218Y004283D01*
X019314Y004186D01*
X019508Y004186D01*
X019605Y004089D01*
X019508Y003992D01*
X019218Y003992D01*
X018997Y003992D02*
X018707Y003992D01*
X018610Y004089D01*
X018707Y004186D01*
X018997Y004186D01*
X018997Y004283D02*
X018997Y003992D01*
X018398Y003992D02*
X018205Y003992D01*
X018302Y003992D02*
X018302Y004573D01*
X018205Y004573D01*
X017984Y004476D02*
X017984Y004379D01*
X017887Y004283D01*
X017597Y004283D01*
X017597Y004573D02*
X017887Y004573D01*
X017984Y004476D01*
X017887Y004283D02*
X017984Y004186D01*
X017984Y004089D01*
X017887Y003992D01*
X017597Y003992D01*
X017597Y004573D01*
X016769Y004379D02*
X016478Y004379D01*
X016382Y004283D01*
X016478Y004186D01*
X016672Y004186D01*
X016769Y004089D01*
X016672Y003992D01*
X016382Y003992D01*
X016161Y003992D02*
X016161Y004379D01*
X015774Y004379D02*
X015774Y004089D01*
X015871Y003992D01*
X016161Y003992D01*
X015553Y004089D02*
X015457Y003992D01*
X015166Y003992D01*
X015166Y004573D01*
X015457Y004573D01*
X015553Y004476D01*
X015553Y004379D01*
X015457Y004283D01*
X015166Y004283D01*
X015457Y004283D02*
X015553Y004186D01*
X015553Y004089D01*
X013082Y003579D02*
X013082Y003192D01*
X018707Y004379D02*
X018900Y004379D01*
X018997Y004283D01*
X021590Y003483D02*
X021590Y003289D01*
X021686Y003192D01*
X021880Y003192D01*
X021977Y003386D02*
X021590Y003386D01*
X021590Y003483D02*
X021686Y003579D01*
X021880Y003579D01*
X021977Y003483D01*
X021977Y003386D01*
X022197Y003483D02*
X022294Y003579D01*
X022584Y003579D01*
X022294Y003386D02*
X022197Y003483D01*
X022294Y003386D02*
X022488Y003386D01*
X022584Y003289D01*
X022488Y003192D01*
X022197Y003192D01*
X022805Y003192D02*
X022805Y003289D01*
X022902Y003289D01*
X022902Y003192D01*
X022805Y003192D01*
X023109Y003289D02*
X023206Y003192D01*
X023496Y003192D01*
X023717Y003289D02*
X023813Y003192D01*
X024007Y003192D01*
X024104Y003289D01*
X024104Y003483D01*
X024007Y003579D01*
X023813Y003579D01*
X023717Y003483D01*
X023717Y003289D01*
X023496Y003579D02*
X023206Y003579D01*
X023109Y003483D01*
X023109Y003289D01*
X024324Y003192D02*
X024324Y003579D01*
X024421Y003579D01*
X024518Y003483D01*
X024615Y003579D01*
X024711Y003483D01*
X024711Y003192D01*
X024518Y003192D02*
X024518Y003483D01*
X027704Y003415D02*
X027704Y005514D01*
X027822Y005514D01*
X027822Y006097D01*
X027704Y006097D01*
X027704Y009111D01*
X027704Y010594D01*
X027704Y013514D01*
X027822Y013514D01*
X027822Y014097D01*
X027704Y014097D01*
X027704Y016289D01*
X031011Y016289D01*
X031011Y014094D01*
X030401Y014094D01*
X030401Y012611D01*
X031011Y012611D01*
X031011Y007094D01*
X030401Y007094D01*
X030401Y005611D01*
X031011Y005611D01*
X031011Y003415D01*
X027704Y003415D01*
X028068Y003858D02*
X028068Y009111D01*
X028314Y009111D02*
X027704Y009111D01*
X028314Y009111D02*
X028314Y010594D01*
X027704Y010594D01*
X028068Y010594D02*
X028068Y015846D01*
X030647Y015846D01*
X030647Y014096D01*
X031011Y014094D02*
X031011Y012611D01*
X030647Y012610D02*
X030647Y007094D01*
X031011Y007094D02*
X031011Y005611D01*
X030647Y005608D02*
X030647Y003858D01*
X028068Y003858D01*
D11*
X007468Y003697D02*
X007351Y003697D01*
X007410Y003697D02*
X007410Y004048D01*
X007468Y004048D02*
X007351Y004048D01*
X007597Y003989D02*
X007597Y003756D01*
X007655Y003697D01*
X007772Y003697D01*
X007830Y003756D01*
X007965Y003756D02*
X008023Y003697D01*
X008140Y003697D01*
X008199Y003756D01*
X008199Y003814D01*
X008140Y003872D01*
X008082Y003872D01*
X008140Y003872D02*
X008199Y003931D01*
X008199Y003989D01*
X008140Y004048D01*
X008023Y004048D01*
X007965Y003989D01*
X007830Y003989D02*
X007772Y004048D01*
X007655Y004048D01*
X007597Y003989D01*
X010033Y003987D02*
X010033Y003929D01*
X010091Y003871D01*
X010266Y003871D01*
X010266Y003987D01*
X010208Y004046D01*
X010091Y004046D01*
X010033Y003987D01*
X010149Y003754D02*
X010266Y003871D01*
X010149Y003754D02*
X010033Y003696D01*
X010518Y003696D02*
X010518Y004046D01*
X010634Y004046D02*
X010401Y004046D01*
X010634Y003812D02*
X010518Y003696D01*
X010769Y003754D02*
X010828Y003696D01*
X010944Y003696D01*
X011003Y003754D01*
X011003Y003987D01*
X010944Y004046D01*
X010828Y004046D01*
X010769Y003987D01*
X011393Y004857D02*
X011334Y004916D01*
X011334Y005032D01*
X011393Y005091D01*
X011509Y005091D02*
X011568Y004974D01*
X011568Y004916D01*
X011509Y004857D01*
X011393Y004857D01*
X011509Y005091D02*
X011685Y005091D01*
X011685Y004857D01*
X011334Y005225D02*
X011334Y005459D01*
X011334Y005342D02*
X011685Y005342D01*
X011568Y005459D01*
X011626Y005594D02*
X011685Y005652D01*
X011685Y005769D01*
X011626Y005827D01*
X011393Y005827D01*
X011334Y005769D01*
X011334Y005652D01*
X011393Y005594D01*
X012164Y006277D02*
X012164Y006628D01*
X012339Y006628D01*
X012398Y006569D01*
X012398Y006452D01*
X012339Y006394D01*
X012164Y006394D01*
X012281Y006394D02*
X012398Y006277D01*
X012533Y006277D02*
X012766Y006511D01*
X012766Y006569D01*
X012708Y006628D01*
X012591Y006628D01*
X012533Y006569D01*
X012533Y006277D02*
X012766Y006277D01*
X013583Y006267D02*
X013641Y006209D01*
X013758Y006209D01*
X013816Y006267D01*
X013951Y006384D02*
X014185Y006384D01*
X014126Y006559D02*
X013951Y006384D01*
X013816Y006501D02*
X013758Y006559D01*
X013641Y006559D01*
X013583Y006501D01*
X013583Y006267D01*
X014126Y006209D02*
X014126Y006559D01*
X014983Y006601D02*
X014983Y006367D01*
X015041Y006309D01*
X015158Y006309D01*
X015216Y006367D01*
X015351Y006367D02*
X015409Y006309D01*
X015526Y006309D01*
X015585Y006367D01*
X015585Y006484D01*
X015526Y006542D01*
X015468Y006542D01*
X015351Y006484D01*
X015351Y006659D01*
X015585Y006659D01*
X015216Y006601D02*
X015158Y006659D01*
X015041Y006659D01*
X014983Y006601D01*
X016751Y006999D02*
X016809Y006941D01*
X017043Y006941D01*
X017101Y006999D01*
X017101Y007116D01*
X017043Y007174D01*
X017101Y007309D02*
X016868Y007542D01*
X016809Y007542D01*
X016751Y007484D01*
X016751Y007367D01*
X016809Y007309D01*
X016809Y007174D02*
X016751Y007116D01*
X016751Y006999D01*
X017101Y007309D02*
X017101Y007542D01*
X017043Y007841D02*
X016809Y007841D01*
X016751Y007899D01*
X016751Y008016D01*
X016809Y008074D01*
X016926Y008209D02*
X016926Y008384D01*
X016985Y008442D01*
X017043Y008442D01*
X017101Y008384D01*
X017101Y008267D01*
X017043Y008209D01*
X016926Y008209D01*
X016809Y008326D01*
X016751Y008442D01*
X017043Y008074D02*
X017101Y008016D01*
X017101Y007899D01*
X017043Y007841D01*
X018551Y007752D02*
X018551Y007636D01*
X018609Y007577D01*
X018843Y007577D01*
X018901Y007636D01*
X018901Y007752D01*
X018843Y007811D01*
X018901Y007946D02*
X018901Y008179D01*
X018901Y008062D02*
X018551Y008062D01*
X018668Y007946D01*
X018609Y007811D02*
X018551Y007752D01*
X018609Y008314D02*
X018668Y008314D01*
X018726Y008372D01*
X018726Y008547D01*
X018843Y008547D02*
X018609Y008547D01*
X018551Y008489D01*
X018551Y008372D01*
X018609Y008314D01*
X018843Y008314D02*
X018901Y008372D01*
X018901Y008489D01*
X018843Y008547D01*
X018943Y009277D02*
X018709Y009277D01*
X018651Y009336D01*
X018651Y009452D01*
X018709Y009511D01*
X018709Y009646D02*
X018651Y009704D01*
X018651Y009821D01*
X018709Y009879D01*
X018768Y009879D01*
X019001Y009646D01*
X019001Y009879D01*
X018943Y010014D02*
X019001Y010072D01*
X019001Y010189D01*
X018943Y010247D01*
X018826Y010247D01*
X018768Y010189D01*
X018768Y010131D01*
X018826Y010014D01*
X018651Y010014D01*
X018651Y010247D01*
X019678Y010807D02*
X019678Y012737D01*
X021135Y012737D01*
X021135Y010807D01*
X019678Y010807D01*
X017101Y010841D02*
X016751Y010841D01*
X016751Y011016D01*
X016809Y011074D01*
X016926Y011074D01*
X016985Y011016D01*
X016985Y010841D01*
X016985Y010957D02*
X017101Y011074D01*
X016926Y011209D02*
X016751Y011384D01*
X017101Y011384D01*
X016926Y011442D02*
X016926Y011209D01*
X016985Y011841D02*
X016985Y012016D01*
X016926Y012074D01*
X016809Y012074D01*
X016751Y012016D01*
X016751Y011841D01*
X017101Y011841D01*
X016985Y011957D02*
X017101Y012074D01*
X017043Y012209D02*
X017101Y012267D01*
X017101Y012384D01*
X017043Y012442D01*
X016985Y012442D01*
X016926Y012384D01*
X016926Y012326D01*
X016926Y012384D02*
X016868Y012442D01*
X016809Y012442D01*
X016751Y012384D01*
X016751Y012267D01*
X016809Y012209D01*
X016091Y012929D02*
X015857Y012929D01*
X015799Y012987D01*
X015799Y013104D01*
X015857Y013162D01*
X015857Y013297D02*
X015915Y013297D01*
X015974Y013356D01*
X015974Y013472D01*
X016032Y013531D01*
X016091Y013531D01*
X016149Y013472D01*
X016149Y013356D01*
X016091Y013297D01*
X016032Y013297D01*
X015974Y013356D01*
X015974Y013472D02*
X015915Y013531D01*
X015857Y013531D01*
X015799Y013472D01*
X015799Y013356D01*
X015857Y013297D01*
X016091Y013162D02*
X016149Y013104D01*
X016149Y012987D01*
X016091Y012929D01*
X015233Y013404D02*
X015233Y013521D01*
X015174Y013579D01*
X015174Y013714D02*
X015233Y013772D01*
X015233Y013889D01*
X015174Y013948D01*
X015116Y013948D01*
X015058Y013889D01*
X015058Y013831D01*
X015058Y013889D02*
X014999Y013948D01*
X014941Y013948D01*
X014883Y013889D01*
X014883Y013772D01*
X014941Y013714D01*
X014941Y013579D02*
X014883Y013521D01*
X014883Y013404D01*
X014941Y013346D01*
X015174Y013346D01*
X015233Y013404D01*
X014233Y013346D02*
X014233Y013579D01*
X014233Y013462D02*
X013883Y013462D01*
X013999Y013346D01*
X013941Y013211D02*
X014058Y013211D01*
X014116Y013152D01*
X014116Y012977D01*
X014233Y012977D02*
X013883Y012977D01*
X013883Y013152D01*
X013941Y013211D01*
X014116Y013094D02*
X014233Y013211D01*
X014151Y012746D02*
X014035Y012746D01*
X013976Y012687D01*
X013976Y012454D01*
X014035Y012395D01*
X014151Y012395D01*
X014210Y012454D01*
X014345Y012395D02*
X014578Y012395D01*
X014461Y012395D02*
X014461Y012746D01*
X014345Y012629D01*
X014210Y012687D02*
X014151Y012746D01*
X013848Y012746D02*
X013731Y012746D01*
X013789Y012746D02*
X013789Y012395D01*
X013731Y012395D02*
X013848Y012395D01*
X013188Y012746D02*
X012838Y012746D01*
X013188Y012746D02*
X013188Y012979D01*
X013188Y013114D02*
X012838Y013114D01*
X012838Y013348D01*
X012838Y013482D02*
X012838Y013658D01*
X012896Y013716D01*
X013130Y013716D01*
X013188Y013658D01*
X013188Y013482D01*
X012838Y013482D01*
X013188Y013348D02*
X013188Y013114D01*
X013013Y013114D02*
X013013Y013231D01*
X012383Y013222D02*
X012383Y013456D01*
X012383Y013339D02*
X012033Y013339D01*
X012149Y013222D01*
X012091Y013087D02*
X012033Y013029D01*
X012033Y012912D01*
X012091Y012854D01*
X012324Y012854D01*
X012383Y012912D01*
X012383Y013029D01*
X012324Y013087D01*
X012324Y013590D02*
X012091Y013590D01*
X012033Y013649D01*
X012033Y013766D01*
X012091Y013824D01*
X012324Y013590D01*
X012383Y013649D01*
X012383Y013766D01*
X012324Y013824D01*
X012091Y013824D01*
X012838Y013967D02*
X012955Y013851D01*
X012838Y013967D02*
X013188Y013967D01*
X013188Y013851D02*
X013188Y014084D01*
X013883Y013889D02*
X013941Y013947D01*
X014174Y013714D01*
X014233Y013772D01*
X014233Y013889D01*
X014174Y013947D01*
X013941Y013947D01*
X013883Y013889D02*
X013883Y013772D01*
X013941Y013714D01*
X014174Y013714D01*
X016933Y013764D02*
X016933Y013998D01*
X016991Y013998D01*
X017224Y013764D01*
X017283Y013764D01*
X017224Y013629D02*
X017283Y013571D01*
X017283Y013454D01*
X017224Y013396D01*
X016991Y013396D01*
X016933Y013454D01*
X016933Y013571D01*
X016991Y013629D01*
X017783Y013594D02*
X018133Y013594D01*
X018133Y013477D02*
X018133Y013711D01*
X018133Y013845D02*
X018133Y014079D01*
X018133Y013962D02*
X017783Y013962D01*
X017899Y013845D01*
X017783Y013594D02*
X017899Y013477D01*
X017841Y013342D02*
X017958Y013342D01*
X018016Y013284D01*
X018016Y013109D01*
X018016Y013226D02*
X018133Y013342D01*
X018133Y013109D02*
X017783Y013109D01*
X017783Y013284D01*
X017841Y013342D01*
X018483Y013345D02*
X018483Y013521D01*
X018541Y013579D01*
X018774Y013579D01*
X018833Y013521D01*
X018833Y013345D01*
X018483Y013345D01*
X018483Y013211D02*
X018483Y012977D01*
X018833Y012977D01*
X018833Y013211D01*
X018658Y013094D02*
X018658Y012977D01*
X018833Y012842D02*
X018833Y012609D01*
X018483Y012609D01*
X020001Y012827D02*
X020118Y012827D01*
X020060Y012827D02*
X020060Y013178D01*
X020118Y013178D02*
X020001Y013178D01*
X020247Y013119D02*
X020247Y012886D01*
X020305Y012827D01*
X020422Y012827D01*
X020480Y012886D01*
X020615Y012827D02*
X020849Y013061D01*
X020849Y013119D01*
X020790Y013178D01*
X020673Y013178D01*
X020615Y013119D01*
X020480Y013119D02*
X020422Y013178D01*
X020305Y013178D01*
X020247Y013119D01*
X019933Y013446D02*
X019583Y013446D01*
X019583Y013621D01*
X019641Y013679D01*
X019758Y013679D01*
X019816Y013621D01*
X019816Y013446D01*
X019816Y013563D02*
X019933Y013679D01*
X019933Y013814D02*
X019874Y013814D01*
X019641Y014048D01*
X019583Y014048D01*
X019583Y013814D01*
X018833Y013714D02*
X018599Y013947D01*
X018541Y013947D01*
X018483Y013889D01*
X018483Y013772D01*
X018541Y013714D01*
X018833Y013714D02*
X018833Y013947D01*
X020883Y013931D02*
X021233Y013931D01*
X021233Y013814D02*
X021233Y014048D01*
X020999Y013814D02*
X020883Y013931D01*
X020883Y013679D02*
X020883Y013446D01*
X020883Y013563D02*
X021233Y013563D01*
X022183Y013571D02*
X022183Y013396D01*
X022533Y013396D01*
X022416Y013396D02*
X022416Y013571D01*
X022358Y013629D01*
X022241Y013629D01*
X022183Y013571D01*
X022241Y013764D02*
X022299Y013764D01*
X022358Y013822D01*
X022358Y013939D01*
X022416Y013998D01*
X022474Y013998D01*
X022533Y013939D01*
X022533Y013822D01*
X022474Y013764D01*
X022416Y013764D01*
X022358Y013822D01*
X022358Y013939D02*
X022299Y013998D01*
X022241Y013998D01*
X022183Y013939D01*
X022183Y013822D01*
X022241Y013764D01*
X022416Y013513D02*
X022533Y013629D01*
X023083Y013722D02*
X023141Y013664D01*
X023199Y013664D01*
X023258Y013722D01*
X023258Y013898D01*
X023374Y013898D02*
X023141Y013898D01*
X023083Y013839D01*
X023083Y013722D01*
X023141Y013529D02*
X023258Y013529D01*
X023316Y013471D01*
X023316Y013296D01*
X023316Y013413D02*
X023433Y013529D01*
X023374Y013664D02*
X023433Y013722D01*
X023433Y013839D01*
X023374Y013898D01*
X023141Y013529D02*
X023083Y013471D01*
X023083Y013296D01*
X023433Y013296D01*
X024488Y012537D02*
X025964Y012537D01*
X025941Y012504D02*
X026174Y012504D01*
X026233Y012562D01*
X026233Y012679D01*
X026174Y012737D01*
X026233Y012872D02*
X025999Y013106D01*
X025941Y013106D01*
X025883Y013047D01*
X025883Y012931D01*
X025941Y012872D01*
X025941Y012737D02*
X025883Y012679D01*
X025883Y012562D01*
X025941Y012504D01*
X026233Y012872D02*
X026233Y013106D01*
X026233Y013240D02*
X026233Y013474D01*
X026233Y013357D02*
X025883Y013357D01*
X025999Y013240D01*
X026983Y013394D02*
X026983Y013511D01*
X026983Y013452D02*
X027274Y013452D01*
X027333Y013394D01*
X027333Y013336D01*
X027274Y013277D01*
X026983Y013646D02*
X026983Y013879D01*
X026983Y013762D02*
X027333Y013762D01*
X027333Y014014D02*
X027099Y014014D01*
X026983Y014131D01*
X027099Y014247D01*
X027333Y014247D01*
X027274Y014382D02*
X027041Y014382D01*
X026983Y014441D01*
X026983Y014557D01*
X027041Y014616D01*
X027158Y014616D02*
X027158Y014499D01*
X027158Y014616D02*
X027274Y014616D01*
X027333Y014557D01*
X027333Y014441D01*
X027274Y014382D01*
X027158Y014247D02*
X027158Y014014D01*
X024980Y014356D02*
X024980Y014472D01*
X024922Y014531D01*
X024980Y014666D02*
X024747Y014899D01*
X024689Y014899D01*
X024630Y014841D01*
X024630Y014724D01*
X024689Y014666D01*
X024689Y014531D02*
X024630Y014472D01*
X024630Y014356D01*
X024689Y014297D01*
X024922Y014297D01*
X024980Y014356D01*
X024980Y014666D02*
X024980Y014899D01*
X024980Y015034D02*
X024747Y015267D01*
X024689Y015267D01*
X024630Y015209D01*
X024630Y015092D01*
X024689Y015034D01*
X024980Y015034D02*
X024980Y015267D01*
X020849Y012827D02*
X020615Y012827D01*
X019922Y012461D02*
X019924Y012481D01*
X019929Y012501D01*
X019939Y012519D01*
X019951Y012536D01*
X019966Y012550D01*
X019984Y012560D01*
X020003Y012568D01*
X020023Y012572D01*
X020043Y012572D01*
X020063Y012568D01*
X020082Y012560D01*
X020100Y012550D01*
X020115Y012536D01*
X020127Y012519D01*
X020137Y012501D01*
X020142Y012481D01*
X020144Y012461D01*
X020142Y012441D01*
X020137Y012421D01*
X020127Y012403D01*
X020115Y012386D01*
X020100Y012372D01*
X020082Y012362D01*
X020063Y012354D01*
X020043Y012350D01*
X020023Y012350D01*
X020003Y012354D01*
X019984Y012362D01*
X019966Y012372D01*
X019951Y012386D01*
X019939Y012403D01*
X019929Y012421D01*
X019924Y012441D01*
X019922Y012461D01*
X022951Y012242D02*
X022951Y012009D01*
X023009Y012242D02*
X023243Y012009D01*
X023301Y012009D01*
X023301Y011874D02*
X023301Y011641D01*
X023301Y011757D02*
X022951Y011757D01*
X023068Y011641D01*
X023009Y011506D02*
X022951Y011447D01*
X022951Y011331D01*
X023009Y011272D01*
X023243Y011272D01*
X023301Y011331D01*
X023301Y011447D01*
X023243Y011506D01*
X023009Y012242D02*
X022951Y012242D01*
X024586Y012320D02*
X024588Y012342D01*
X024594Y012364D01*
X024603Y012384D01*
X024616Y012402D01*
X024632Y012418D01*
X024650Y012431D01*
X024670Y012440D01*
X024692Y012446D01*
X024714Y012448D01*
X024736Y012446D01*
X024758Y012440D01*
X024778Y012431D01*
X024796Y012418D01*
X024812Y012402D01*
X024825Y012384D01*
X024834Y012364D01*
X024840Y012342D01*
X024842Y012320D01*
X024840Y012298D01*
X024834Y012276D01*
X024825Y012256D01*
X024812Y012238D01*
X024796Y012222D01*
X024778Y012209D01*
X024758Y012200D01*
X024736Y012194D01*
X024714Y012192D01*
X024692Y012194D01*
X024670Y012200D01*
X024650Y012209D01*
X024632Y012222D01*
X024616Y012238D01*
X024603Y012256D01*
X024594Y012276D01*
X024588Y012298D01*
X024586Y012320D01*
X026751Y011977D02*
X026751Y011861D01*
X026751Y011919D02*
X027102Y011919D01*
X027102Y011977D02*
X027102Y011861D01*
X027043Y011732D02*
X026810Y011732D01*
X026751Y011673D01*
X026751Y011557D01*
X026810Y011498D01*
X026926Y011363D02*
X026926Y011130D01*
X026751Y011188D02*
X027102Y011188D01*
X026926Y011363D01*
X027043Y011498D02*
X027102Y011557D01*
X027102Y011673D01*
X027043Y011732D01*
X025964Y010568D02*
X024488Y010568D01*
X022825Y010095D02*
X022825Y009978D01*
X022825Y010037D02*
X022475Y010037D01*
X022475Y010095D02*
X022475Y009978D01*
X022533Y009849D02*
X022475Y009791D01*
X022475Y009674D01*
X022533Y009616D01*
X022533Y009481D02*
X022475Y009423D01*
X022475Y009306D01*
X022533Y009248D01*
X022592Y009248D01*
X022650Y009306D01*
X022650Y009481D01*
X022533Y009481D01*
X022650Y009481D02*
X022767Y009364D01*
X022825Y009248D01*
X022767Y009616D02*
X022825Y009674D01*
X022825Y009791D01*
X022767Y009849D01*
X022533Y009849D01*
X024646Y009119D02*
X024646Y008886D01*
X024705Y008827D01*
X024821Y008827D01*
X024880Y008886D01*
X025015Y008827D02*
X025248Y009061D01*
X025248Y009119D01*
X025190Y009178D01*
X025073Y009178D01*
X025015Y009119D01*
X024880Y009119D02*
X024821Y009178D01*
X024705Y009178D01*
X024646Y009119D01*
X025015Y008827D02*
X025248Y008827D01*
X025383Y008886D02*
X025616Y009119D01*
X025616Y008886D01*
X025558Y008827D01*
X025441Y008827D01*
X025383Y008886D01*
X025383Y009119D01*
X025441Y009178D01*
X025558Y009178D01*
X025616Y009119D01*
X025964Y007837D02*
X024488Y007837D01*
X024586Y007620D02*
X024588Y007642D01*
X024594Y007664D01*
X024603Y007684D01*
X024616Y007702D01*
X024632Y007718D01*
X024650Y007731D01*
X024670Y007740D01*
X024692Y007746D01*
X024714Y007748D01*
X024736Y007746D01*
X024758Y007740D01*
X024778Y007731D01*
X024796Y007718D01*
X024812Y007702D01*
X024825Y007684D01*
X024834Y007664D01*
X024840Y007642D01*
X024842Y007620D01*
X024840Y007598D01*
X024834Y007576D01*
X024825Y007556D01*
X024812Y007538D01*
X024796Y007522D01*
X024778Y007509D01*
X024758Y007500D01*
X024736Y007494D01*
X024714Y007492D01*
X024692Y007494D01*
X024670Y007500D01*
X024650Y007509D01*
X024632Y007522D01*
X024616Y007538D01*
X024603Y007556D01*
X024594Y007576D01*
X024588Y007598D01*
X024586Y007620D01*
X022825Y007648D02*
X022767Y007648D01*
X022533Y007881D01*
X022475Y007881D01*
X022533Y008016D02*
X022475Y008074D01*
X022475Y008191D01*
X022533Y008249D01*
X022767Y008249D01*
X022825Y008191D01*
X022825Y008074D01*
X022767Y008016D01*
X022825Y007881D02*
X022825Y007648D01*
X022825Y008378D02*
X022825Y008495D01*
X022825Y008437D02*
X022475Y008437D01*
X022475Y008495D02*
X022475Y008378D01*
X022475Y006795D02*
X022475Y006678D01*
X022475Y006737D02*
X022825Y006737D01*
X022825Y006795D02*
X022825Y006678D01*
X022767Y006549D02*
X022533Y006549D01*
X022475Y006491D01*
X022475Y006374D01*
X022533Y006316D01*
X022533Y006181D02*
X022592Y006181D01*
X022650Y006123D01*
X022650Y006006D01*
X022592Y005948D01*
X022533Y005948D01*
X022475Y006006D01*
X022475Y006123D01*
X022533Y006181D01*
X022650Y006123D02*
X022708Y006181D01*
X022767Y006181D01*
X022825Y006123D01*
X022825Y006006D01*
X022767Y005948D01*
X022708Y005948D01*
X022650Y006006D01*
X022767Y006316D02*
X022825Y006374D01*
X022825Y006491D01*
X022767Y006549D01*
X024488Y005868D02*
X025964Y005868D01*
X026851Y006588D02*
X026851Y006705D01*
X026910Y006763D01*
X027026Y006763D02*
X027085Y006647D01*
X027085Y006588D01*
X027026Y006530D01*
X026910Y006530D01*
X026851Y006588D01*
X027026Y006763D02*
X027202Y006763D01*
X027202Y006530D01*
X027143Y006898D02*
X027202Y006957D01*
X027202Y007073D01*
X027143Y007132D01*
X026910Y007132D01*
X026851Y007073D01*
X026851Y006957D01*
X026910Y006898D01*
X026851Y007261D02*
X026851Y007377D01*
X026851Y007319D02*
X027202Y007319D01*
X027202Y007377D02*
X027202Y007261D01*
X031283Y007428D02*
X031516Y007428D01*
X031400Y007428D02*
X031400Y007077D01*
X031651Y007136D02*
X031709Y007077D01*
X031826Y007077D01*
X031885Y007136D01*
X031885Y007194D01*
X031826Y007252D01*
X031709Y007252D01*
X031651Y007311D01*
X031651Y007369D01*
X031709Y007428D01*
X031826Y007428D01*
X031885Y007369D01*
X032019Y007428D02*
X032195Y007428D01*
X032253Y007369D01*
X032253Y007252D01*
X032195Y007194D01*
X032019Y007194D01*
X032019Y007077D02*
X032019Y007428D01*
X032136Y007194D02*
X032253Y007077D01*
X032388Y007136D02*
X032446Y007077D01*
X032563Y007077D01*
X032621Y007136D01*
X032621Y007194D01*
X032563Y007252D01*
X032446Y007252D01*
X032388Y007311D01*
X032388Y007369D01*
X032446Y007428D01*
X032563Y007428D01*
X032621Y007369D01*
X032756Y007428D02*
X032990Y007428D01*
X032873Y007428D02*
X032873Y007077D01*
X032931Y006428D02*
X032990Y006369D01*
X032990Y006136D01*
X032931Y006077D01*
X032814Y006077D01*
X032756Y006136D01*
X032756Y006369D01*
X032814Y006428D01*
X032931Y006428D01*
X032873Y006194D02*
X032990Y006077D01*
X032621Y006077D02*
X032504Y006194D01*
X032563Y006194D02*
X032388Y006194D01*
X032388Y006077D02*
X032388Y006428D01*
X032563Y006428D01*
X032621Y006369D01*
X032621Y006252D01*
X032563Y006194D01*
X032253Y006252D02*
X032136Y006252D01*
X032253Y006252D02*
X032253Y006136D01*
X032195Y006077D01*
X032078Y006077D01*
X032019Y006136D01*
X032019Y006369D01*
X032078Y006428D01*
X032195Y006428D01*
X032253Y006369D01*
X031885Y006369D02*
X031885Y006311D01*
X031826Y006252D01*
X031651Y006252D01*
X031651Y006077D02*
X031826Y006077D01*
X031885Y006136D01*
X031885Y006194D01*
X031826Y006252D01*
X031885Y006369D02*
X031826Y006428D01*
X031651Y006428D01*
X031651Y006077D01*
X031516Y006136D02*
X031516Y006369D01*
X031458Y006428D01*
X031283Y006428D01*
X031283Y006077D01*
X031458Y006077D01*
X031516Y006136D01*
X031458Y005528D02*
X031283Y005528D01*
X031283Y005177D01*
X031458Y005177D01*
X031516Y005236D01*
X031516Y005469D01*
X031458Y005528D01*
X031651Y005528D02*
X031826Y005528D01*
X031885Y005469D01*
X031885Y005411D01*
X031826Y005352D01*
X031651Y005352D01*
X031651Y005177D02*
X031826Y005177D01*
X031885Y005236D01*
X031885Y005294D01*
X031826Y005352D01*
X032019Y005236D02*
X032078Y005177D01*
X032195Y005177D01*
X032253Y005236D01*
X032253Y005352D01*
X032136Y005352D01*
X032019Y005236D02*
X032019Y005469D01*
X032078Y005528D01*
X032195Y005528D01*
X032253Y005469D01*
X032388Y005411D02*
X032504Y005528D01*
X032621Y005411D01*
X032621Y005177D01*
X032756Y005236D02*
X032814Y005177D01*
X032931Y005177D01*
X032990Y005236D01*
X033124Y005294D02*
X033358Y005528D01*
X033124Y005528D02*
X033124Y005177D01*
X033183Y005352D02*
X033358Y005177D01*
X032990Y005469D02*
X032931Y005528D01*
X032814Y005528D01*
X032756Y005469D01*
X032756Y005236D01*
X032621Y005352D02*
X032388Y005352D01*
X032388Y005411D02*
X032388Y005177D01*
X031651Y005177D02*
X031651Y005528D01*
X031651Y008177D02*
X031826Y008177D01*
X031885Y008236D01*
X031885Y008469D01*
X031826Y008528D01*
X031651Y008528D01*
X031651Y008177D01*
X031400Y008177D02*
X031400Y008528D01*
X031516Y008528D02*
X031283Y008528D01*
X032019Y008469D02*
X032019Y008236D01*
X032078Y008177D01*
X032195Y008177D01*
X032253Y008236D01*
X032253Y008469D01*
X032195Y008528D01*
X032078Y008528D01*
X032019Y008469D01*
X032078Y009177D02*
X032195Y009177D01*
X032253Y009236D01*
X032388Y009294D02*
X032621Y009528D01*
X032388Y009528D02*
X032388Y009177D01*
X032446Y009352D02*
X032621Y009177D01*
X032253Y009469D02*
X032195Y009528D01*
X032078Y009528D01*
X032019Y009469D01*
X032019Y009236D01*
X032078Y009177D01*
X031768Y009177D02*
X031768Y009528D01*
X031651Y009528D02*
X031885Y009528D01*
X031516Y009469D02*
X031516Y009352D01*
X031458Y009294D01*
X031283Y009294D01*
X031400Y009294D02*
X031516Y009177D01*
X031283Y009177D02*
X031283Y009528D01*
X031458Y009528D01*
X031516Y009469D01*
X031400Y010177D02*
X031400Y010528D01*
X031516Y010528D02*
X031283Y010528D01*
X031651Y010469D02*
X031651Y010236D01*
X031709Y010177D01*
X031826Y010177D01*
X031885Y010236D01*
X032019Y010294D02*
X032253Y010528D01*
X032019Y010528D02*
X032019Y010177D01*
X032078Y010352D02*
X032253Y010177D01*
X031885Y010469D02*
X031826Y010528D01*
X031709Y010528D01*
X031651Y010469D01*
X031651Y011177D02*
X031651Y011528D01*
X031768Y011411D01*
X031885Y011528D01*
X031885Y011177D01*
X032019Y011236D02*
X032078Y011177D01*
X032195Y011177D01*
X032253Y011236D01*
X032253Y011294D01*
X032195Y011352D01*
X032078Y011352D01*
X032019Y011411D01*
X032019Y011469D01*
X032078Y011528D01*
X032195Y011528D01*
X032253Y011469D01*
X031516Y011528D02*
X031283Y011528D01*
X031400Y011528D02*
X031400Y011177D01*
X031400Y012177D02*
X031400Y012528D01*
X031516Y012528D02*
X031283Y012528D01*
X031651Y012528D02*
X031826Y012528D01*
X031885Y012469D01*
X031885Y012236D01*
X031826Y012177D01*
X031651Y012177D01*
X031651Y012528D01*
X032019Y012528D02*
X032136Y012528D01*
X032078Y012528D02*
X032078Y012177D01*
X032136Y012177D02*
X032019Y012177D01*
X032078Y013177D02*
X032019Y013236D01*
X032078Y013177D02*
X032195Y013177D01*
X032253Y013236D01*
X032253Y013294D01*
X032195Y013352D01*
X032078Y013352D01*
X032019Y013411D01*
X032019Y013469D01*
X032078Y013528D01*
X032195Y013528D01*
X032253Y013469D01*
X032388Y013528D02*
X032621Y013528D01*
X032504Y013528D02*
X032504Y013177D01*
X031885Y013177D02*
X031768Y013294D01*
X031826Y013294D02*
X031651Y013294D01*
X031651Y013177D02*
X031651Y013528D01*
X031826Y013528D01*
X031885Y013469D01*
X031885Y013352D01*
X031826Y013294D01*
X031516Y013528D02*
X031283Y013528D01*
X031400Y013528D02*
X031400Y013177D01*
X031400Y014077D02*
X031516Y014194D01*
X031516Y014428D01*
X031651Y014428D02*
X031885Y014428D01*
X031768Y014428D02*
X031768Y014077D01*
X032019Y014136D02*
X032078Y014077D01*
X032195Y014077D01*
X032253Y014136D01*
X032253Y014252D01*
X032136Y014252D01*
X032019Y014136D02*
X032019Y014369D01*
X032078Y014428D01*
X032195Y014428D01*
X032253Y014369D01*
X031400Y014077D02*
X031283Y014194D01*
X031283Y014428D01*
X019001Y009452D02*
X019001Y009336D01*
X018943Y009277D01*
X019001Y009452D02*
X018943Y009511D01*
X017101Y009384D02*
X017101Y009267D01*
X017043Y009209D01*
X016926Y009209D01*
X016926Y009384D01*
X016985Y009442D01*
X017043Y009442D01*
X017101Y009384D01*
X016926Y009209D02*
X016809Y009326D01*
X016751Y009442D01*
X016809Y009074D02*
X016926Y009074D01*
X016985Y009016D01*
X016985Y008841D01*
X017101Y008841D02*
X016751Y008841D01*
X016751Y009016D01*
X016809Y009074D01*
X016985Y008957D02*
X017101Y009074D01*
X017101Y009841D02*
X016751Y009841D01*
X016751Y010016D01*
X016809Y010074D01*
X016926Y010074D01*
X016985Y010016D01*
X016985Y009841D01*
X016985Y009957D02*
X017101Y010074D01*
X017043Y010209D02*
X017101Y010267D01*
X017101Y010384D01*
X017043Y010442D01*
X016926Y010442D01*
X016868Y010384D01*
X016868Y010326D01*
X016926Y010209D01*
X016751Y010209D01*
X016751Y010442D01*
X015708Y010128D02*
X015475Y010128D01*
X015591Y010128D02*
X015591Y009777D01*
X015340Y009777D02*
X015106Y009777D01*
X015106Y010128D01*
X015340Y010128D01*
X015223Y009952D02*
X015106Y009952D01*
X014972Y009777D02*
X014738Y010128D01*
X014738Y009777D01*
X014603Y009836D02*
X014545Y009777D01*
X014428Y009777D01*
X014370Y009836D01*
X014428Y009952D02*
X014545Y009952D01*
X014603Y009894D01*
X014603Y009836D01*
X014428Y009952D02*
X014370Y010011D01*
X014370Y010069D01*
X014428Y010128D01*
X014545Y010128D01*
X014603Y010069D01*
X014235Y010128D02*
X014002Y010128D01*
X014002Y009777D01*
X014235Y009777D01*
X014118Y009952D02*
X014002Y009952D01*
X013867Y009777D02*
X013633Y009777D01*
X013633Y010128D01*
X013130Y010128D02*
X013130Y009777D01*
X012897Y010128D01*
X012897Y009777D01*
X012762Y009777D02*
X012762Y010011D01*
X012645Y010128D01*
X012528Y010011D01*
X012528Y009777D01*
X012400Y009777D02*
X012283Y009777D01*
X012341Y009777D02*
X012341Y010128D01*
X012283Y010128D02*
X012400Y010128D01*
X012528Y009952D02*
X012762Y009952D01*
X012791Y009376D02*
X013025Y009376D01*
X013160Y009376D02*
X013393Y009376D01*
X013276Y009376D02*
X013276Y009026D01*
X013528Y009026D02*
X013762Y009260D01*
X013762Y009318D01*
X013703Y009376D01*
X013586Y009376D01*
X013528Y009318D01*
X013528Y009026D02*
X013762Y009026D01*
X013896Y009026D02*
X014130Y009260D01*
X014130Y009318D01*
X014071Y009376D01*
X013955Y009376D01*
X013896Y009318D01*
X013896Y009026D02*
X014130Y009026D01*
X014265Y009084D02*
X014323Y009026D01*
X014440Y009026D01*
X014498Y009084D01*
X014498Y009143D01*
X014440Y009201D01*
X014381Y009201D01*
X014440Y009201D02*
X014498Y009260D01*
X014498Y009318D01*
X014440Y009376D01*
X014323Y009376D01*
X014265Y009318D01*
X014633Y009318D02*
X014691Y009376D01*
X014808Y009376D01*
X014866Y009318D01*
X014866Y009260D01*
X014633Y009026D01*
X014866Y009026D01*
X015001Y009026D02*
X015001Y009376D01*
X015001Y009201D02*
X015235Y009201D01*
X015235Y009376D02*
X015235Y009026D01*
X014972Y009777D02*
X014972Y010128D01*
X012908Y009201D02*
X012791Y009201D01*
X012791Y009026D02*
X012791Y009376D01*
X011333Y008769D02*
X011275Y008827D01*
X011041Y008827D01*
X010983Y008769D01*
X010983Y008652D01*
X011041Y008594D01*
X010983Y008459D02*
X010983Y008225D01*
X010983Y008342D02*
X011333Y008342D01*
X011216Y008459D01*
X011275Y008594D02*
X011333Y008652D01*
X011333Y008769D01*
X011158Y008091D02*
X011158Y007857D01*
X011333Y007916D02*
X011158Y008091D01*
X010983Y007916D02*
X011333Y007916D01*
X010668Y007228D02*
X010668Y006877D01*
X010551Y006877D02*
X010785Y006877D01*
X010551Y007111D02*
X010668Y007228D01*
X010416Y007169D02*
X010358Y007228D01*
X010241Y007228D01*
X010183Y007169D01*
X010183Y006936D01*
X010241Y006877D01*
X010358Y006877D01*
X010416Y006936D01*
X008533Y007177D02*
X008533Y007527D01*
X008299Y007527D01*
X008164Y007527D02*
X007931Y007527D01*
X008048Y007527D02*
X008048Y007177D01*
X008164Y007294D01*
X006353Y008377D02*
X006236Y008494D01*
X006295Y008494D02*
X006119Y008494D01*
X006119Y008377D02*
X006119Y008728D01*
X006295Y008728D01*
X006353Y008669D01*
X006353Y008552D01*
X006295Y008494D01*
X005985Y008377D02*
X005751Y008377D01*
X005751Y008728D01*
X005985Y008728D01*
X005868Y008552D02*
X005751Y008552D01*
X005616Y008728D02*
X005500Y008728D01*
X005558Y008728D02*
X005558Y008436D01*
X005500Y008377D01*
X005441Y008377D01*
X005383Y008436D01*
X008853Y009419D02*
X008911Y009361D01*
X009028Y009361D01*
X009086Y009419D01*
X009221Y009361D02*
X009455Y009361D01*
X009338Y009361D02*
X009338Y009711D01*
X009221Y009595D01*
X009086Y009653D02*
X009028Y009711D01*
X008911Y009711D01*
X008853Y009653D01*
X008853Y009419D01*
X009589Y009361D02*
X009823Y009595D01*
X009823Y009653D01*
X009765Y009711D01*
X009648Y009711D01*
X009589Y009653D01*
X009589Y009361D02*
X009823Y009361D01*
X009804Y009993D02*
X009688Y009993D01*
X009629Y010052D01*
X009494Y010110D02*
X009378Y009993D01*
X009378Y010343D01*
X009494Y010343D02*
X009261Y010343D01*
X009126Y010343D02*
X008893Y010343D01*
X009009Y010343D02*
X009009Y009993D01*
X009126Y010110D01*
X009629Y010285D02*
X009688Y010343D01*
X009804Y010343D01*
X009863Y010285D01*
X009863Y010052D01*
X009804Y009993D01*
X010883Y010716D02*
X010941Y010657D01*
X011000Y010657D01*
X011058Y010716D01*
X011058Y010774D01*
X011058Y010716D02*
X011116Y010657D01*
X011175Y010657D01*
X011233Y010716D01*
X011233Y010832D01*
X011175Y010891D01*
X010941Y010891D02*
X010883Y010832D01*
X010883Y010716D01*
X010883Y011025D02*
X010883Y011259D01*
X010883Y011142D02*
X011233Y011142D01*
X011116Y011259D01*
X011175Y011394D02*
X011233Y011452D01*
X011233Y011569D01*
X011175Y011627D01*
X010941Y011627D01*
X010883Y011569D01*
X010883Y011452D01*
X010941Y011394D01*
X010639Y012644D02*
X008277Y012644D01*
X008277Y012880D01*
X008316Y012919D01*
X008908Y013352D02*
X009208Y013352D01*
X009208Y013852D01*
X009358Y013752D02*
X009358Y012952D01*
X009558Y012952D01*
X009558Y013752D01*
X009358Y013752D01*
X009708Y013852D02*
X009708Y013352D01*
X010008Y013352D01*
X009708Y013352D02*
X009708Y012852D01*
X009208Y012852D02*
X009208Y013352D01*
X008316Y013785D02*
X008277Y013825D01*
X008277Y014061D01*
X010639Y014061D01*
X010639Y013825D01*
X010600Y013785D01*
X009798Y014127D02*
X009564Y014127D01*
X009681Y014127D02*
X009681Y014478D01*
X009564Y014361D01*
X009430Y014478D02*
X009196Y014127D01*
X009430Y014127D02*
X009196Y014478D01*
X006883Y013621D02*
X006883Y013504D01*
X006824Y013446D01*
X006708Y013504D02*
X006708Y013679D01*
X006824Y013679D02*
X006591Y013679D01*
X006533Y013621D01*
X006533Y013504D01*
X006591Y013446D01*
X006649Y013446D01*
X006708Y013504D01*
X006824Y013679D02*
X006883Y013621D01*
X006824Y013311D02*
X006883Y013252D01*
X006883Y013136D01*
X006824Y013077D01*
X006591Y013077D01*
X006533Y013136D01*
X006533Y013252D01*
X006591Y013311D01*
X005633Y013361D02*
X005516Y013244D01*
X005516Y013302D02*
X005516Y013127D01*
X005633Y013127D02*
X005283Y013127D01*
X005283Y013302D01*
X005341Y013361D01*
X005458Y013361D01*
X005516Y013302D01*
X005399Y013496D02*
X005283Y013612D01*
X005633Y013612D01*
X005633Y013496D02*
X005633Y013729D01*
X006063Y014766D02*
X006063Y014941D01*
X006121Y014999D01*
X006238Y014999D01*
X006296Y014941D01*
X006296Y014766D01*
X006413Y014766D02*
X006063Y014766D01*
X006063Y015134D02*
X006063Y015309D01*
X006121Y015368D01*
X006238Y015368D01*
X006296Y015309D01*
X006296Y015134D01*
X006296Y015251D02*
X006413Y015368D01*
X006354Y015502D02*
X006121Y015502D01*
X006063Y015561D01*
X006063Y015678D01*
X006121Y015736D01*
X006354Y015736D01*
X006413Y015678D01*
X006413Y015561D01*
X006354Y015502D01*
X006354Y015871D02*
X006121Y015871D01*
X006063Y015929D01*
X006063Y016046D01*
X006121Y016104D01*
X006238Y016104D02*
X006238Y015987D01*
X006238Y016104D02*
X006354Y016104D01*
X006413Y016046D01*
X006413Y015929D01*
X006354Y015871D01*
X006413Y015134D02*
X006063Y015134D01*
X010600Y012919D02*
X010639Y012880D01*
X010639Y012644D01*
X008548Y012169D02*
X008490Y012228D01*
X008373Y012228D01*
X008314Y012169D01*
X008548Y012169D02*
X008548Y012111D01*
X008314Y011877D01*
X008548Y011877D01*
X008180Y011877D02*
X007946Y011877D01*
X007946Y012228D01*
X018651Y006989D02*
X018651Y006872D01*
X018709Y006814D01*
X018768Y006814D01*
X018826Y006872D01*
X018826Y006989D01*
X018885Y007047D01*
X018943Y007047D01*
X019001Y006989D01*
X019001Y006872D01*
X018943Y006814D01*
X018885Y006814D01*
X018826Y006872D01*
X018826Y006989D02*
X018768Y007047D01*
X018709Y007047D01*
X018651Y006989D01*
X019001Y006679D02*
X019001Y006446D01*
X019001Y006562D02*
X018651Y006562D01*
X018768Y006446D01*
X018709Y006311D02*
X018651Y006252D01*
X018651Y006136D01*
X018709Y006077D01*
X018943Y006077D01*
X019001Y006136D01*
X019001Y006252D01*
X018943Y006311D01*
D12*
X019046Y015827D02*
X018965Y015909D01*
X018965Y016072D01*
X019046Y016154D01*
X019292Y016154D01*
X019292Y016317D02*
X019292Y015827D01*
X019046Y015827D01*
X018776Y015909D02*
X018776Y016236D01*
X018694Y016317D01*
X018531Y016317D01*
X018449Y016236D01*
X018449Y016072D01*
X018612Y016072D01*
X018449Y015909D02*
X018531Y015827D01*
X018694Y015827D01*
X018776Y015909D01*
X019128Y016154D02*
X018965Y016317D01*
X019480Y016317D02*
X019480Y015990D01*
X019644Y015827D01*
X019807Y015990D01*
X019807Y016317D01*
X019807Y016072D02*
X019480Y016072D01*
X019996Y015827D02*
X020323Y015827D01*
X020159Y015827D02*
X020159Y016317D01*
X018260Y016317D02*
X018260Y015827D01*
X017933Y015827D01*
X017745Y015827D02*
X017418Y015827D01*
X017581Y015827D02*
X017581Y016317D01*
X017933Y016317D02*
X018260Y016317D01*
X018260Y016072D02*
X018097Y016072D01*
X013723Y016154D02*
X013478Y016154D01*
X013396Y016072D01*
X013396Y015909D01*
X013478Y015827D01*
X013723Y015827D01*
X013723Y016317D01*
X013207Y016317D02*
X013044Y016154D01*
X012880Y016317D01*
X012880Y015827D01*
X012692Y015827D02*
X012446Y015827D01*
X012365Y015909D01*
X012365Y016072D01*
X012446Y016154D01*
X012692Y016154D01*
X012692Y016317D02*
X012692Y015827D01*
X012528Y016154D02*
X012365Y016317D01*
X013207Y016317D02*
X013207Y015827D01*
D13*
X006551Y005452D03*
D14*
X008701Y005452D03*
X008701Y006362D03*
X008701Y004542D03*
D15*
X011918Y007941D02*
X012115Y007744D01*
X015737Y007744D01*
X015934Y007941D01*
X015934Y011524D01*
X015698Y011760D01*
X012155Y011760D01*
X011918Y011524D01*
X011918Y007941D01*
X012052Y011406D02*
X012054Y011429D01*
X012060Y011452D01*
X012069Y011474D01*
X012082Y011493D01*
X012098Y011510D01*
X012116Y011525D01*
X012137Y011536D01*
X012159Y011544D01*
X012182Y011548D01*
X012206Y011548D01*
X012229Y011544D01*
X012251Y011536D01*
X012272Y011525D01*
X012290Y011510D01*
X012306Y011493D01*
X012319Y011474D01*
X012328Y011452D01*
X012334Y011429D01*
X012336Y011406D01*
X012334Y011383D01*
X012328Y011360D01*
X012319Y011338D01*
X012306Y011319D01*
X012290Y011302D01*
X012272Y011287D01*
X012251Y011276D01*
X012229Y011268D01*
X012206Y011264D01*
X012182Y011264D01*
X012159Y011268D01*
X012137Y011276D01*
X012116Y011287D01*
X012098Y011302D01*
X012082Y011319D01*
X012069Y011338D01*
X012060Y011360D01*
X012054Y011383D01*
X012052Y011406D01*
D16*
X011376Y014852D02*
X010876Y014852D01*
X010626Y015102D01*
X010376Y014852D01*
X009876Y014852D01*
X009626Y015102D01*
X009376Y014852D01*
X008876Y014852D01*
X008626Y015102D01*
X008376Y014852D01*
X007876Y014852D01*
X007626Y015102D01*
X007376Y014852D01*
X006876Y014852D01*
X006626Y015102D01*
X006626Y015602D01*
X006876Y015852D01*
X007376Y015852D01*
X007626Y015602D01*
X007876Y015852D01*
X008376Y015852D01*
X008626Y015602D01*
X008626Y015102D01*
X008626Y015602D02*
X008876Y015852D01*
X009376Y015852D01*
X009626Y015602D01*
X009876Y015852D01*
X010376Y015852D01*
X010626Y015602D01*
X010876Y015852D01*
X011376Y015852D01*
X011626Y015602D01*
X011626Y015102D01*
X011376Y014852D01*
X010626Y015102D02*
X010626Y015602D01*
X009626Y015602D02*
X009626Y015102D01*
X007626Y015102D02*
X007626Y015602D01*
D17*
X013052Y014823D03*
X018826Y014713D03*
D18*
X020854Y010353D02*
X021799Y010353D01*
X021814Y010351D01*
X021829Y010347D01*
X021843Y010340D01*
X021855Y010330D01*
X021865Y010318D01*
X021872Y010304D01*
X021876Y010289D01*
X021878Y010274D01*
X021877Y010274D02*
X021877Y009231D01*
X021878Y009231D02*
X021876Y009216D01*
X021872Y009201D01*
X021865Y009187D01*
X021855Y009175D01*
X021843Y009165D01*
X021829Y009158D01*
X021814Y009154D01*
X021799Y009152D01*
X020854Y009152D01*
X020839Y009154D01*
X020824Y009158D01*
X020810Y009165D01*
X020798Y009175D01*
X020788Y009187D01*
X020781Y009201D01*
X020777Y009216D01*
X020775Y009231D01*
X020775Y010274D01*
X020777Y010289D01*
X020781Y010304D01*
X020788Y010318D01*
X020798Y010330D01*
X020810Y010340D01*
X020824Y010347D01*
X020839Y010351D01*
X020854Y010353D01*
X020854Y008653D02*
X021799Y008653D01*
X021814Y008651D01*
X021829Y008647D01*
X021843Y008640D01*
X021855Y008630D01*
X021865Y008618D01*
X021872Y008604D01*
X021876Y008589D01*
X021878Y008574D01*
X021877Y008574D02*
X021877Y007531D01*
X021878Y007531D02*
X021876Y007516D01*
X021872Y007501D01*
X021865Y007487D01*
X021855Y007475D01*
X021843Y007465D01*
X021829Y007458D01*
X021814Y007454D01*
X021799Y007452D01*
X020854Y007452D01*
X020839Y007454D01*
X020824Y007458D01*
X020810Y007465D01*
X020798Y007475D01*
X020788Y007487D01*
X020781Y007501D01*
X020777Y007516D01*
X020775Y007531D01*
X020775Y008574D01*
X020777Y008589D01*
X020781Y008604D01*
X020788Y008618D01*
X020798Y008630D01*
X020810Y008640D01*
X020824Y008647D01*
X020839Y008651D01*
X020854Y008653D01*
X020854Y006953D02*
X021799Y006953D01*
X021814Y006951D01*
X021829Y006947D01*
X021843Y006940D01*
X021855Y006930D01*
X021865Y006918D01*
X021872Y006904D01*
X021876Y006889D01*
X021878Y006874D01*
X021877Y006874D02*
X021877Y005831D01*
X021878Y005831D02*
X021876Y005816D01*
X021872Y005801D01*
X021865Y005787D01*
X021855Y005775D01*
X021843Y005765D01*
X021829Y005758D01*
X021814Y005754D01*
X021799Y005752D01*
X020854Y005752D01*
X020839Y005754D01*
X020824Y005758D01*
X020810Y005765D01*
X020798Y005775D01*
X020788Y005787D01*
X020781Y005801D01*
X020777Y005816D01*
X020775Y005831D01*
X020775Y006874D01*
X020777Y006889D01*
X020781Y006904D01*
X020788Y006918D01*
X020798Y006930D01*
X020810Y006940D01*
X020824Y006947D01*
X020839Y006951D01*
X020854Y006953D01*
X008303Y009122D02*
X008303Y009275D01*
X008226Y009352D01*
X008226Y009506D02*
X008303Y009582D01*
X008303Y009736D01*
X008226Y009812D01*
X007920Y009812D01*
X007843Y009736D01*
X007843Y009582D01*
X007920Y009506D01*
X008226Y009506D01*
X007920Y009352D02*
X007843Y009275D01*
X007843Y009122D01*
X007920Y009045D01*
X008226Y009045D01*
X008303Y009122D01*
X008303Y009966D02*
X007843Y009966D01*
X008303Y010273D01*
X007843Y010273D01*
X007843Y010426D02*
X008303Y010733D01*
X007843Y010733D01*
X007713Y010800D02*
X007713Y010493D01*
X007843Y010426D02*
X008303Y010426D01*
X007713Y010646D02*
X007252Y010646D01*
X007406Y010493D01*
X007843Y011040D02*
X008303Y011040D01*
X008303Y010887D02*
X008303Y011193D01*
X007996Y010887D02*
X007843Y011040D01*
D19*
X021061Y010048D03*
X021061Y008348D03*
X021061Y006648D03*
D20*
X006957Y008512D02*
X006957Y008906D01*
X006032Y008237D02*
X005087Y008237D01*
X003866Y008237D02*
X003591Y008237D01*
X003591Y011268D01*
X003866Y011268D01*
X005087Y011268D02*
X006032Y011268D01*
X006957Y010992D02*
X006957Y010599D01*
M02*
