<?xml version="1.0" standalone="no"?>
<!DOCTYPE svg PUBLIC "-//W3C//DTD SVG 1.1//EN" "http://www.w3.org/Graphics/SVG/1.1/DTD/svg11.dtd">
<svg width="60.83mm" height="87.5mm"
 viewBox="0 0 60.83 87.5"
 xmlns="http://www.w3.org/2000/svg" version="1.1"
 xmlns:xlink="http://www.w3.org/1999/xlink">
<desc>Output from Flights of Ideas SVG Sketchup Plugin</desc>

<g id="text_annotations" font-size="10" stroke="rgb(255,0,0)" stroke-width="0">
</g>
  <path id="face0-cut"
 style="fill:none;stroke:rgb(0,0,255);stroke-width:0;stroke-miterlimit:4;stroke-dasharray:none;stroke-linejoin:round;stroke-linecap:round"
        d="M 13.8952922067685,77.4986292999022 L 14.0,77.5 L 46.8300000285234,77.4986292999022 L 46.9347077932315,77.4986292999022 L 47.0393440799443,77.4986292999022 L 47.1438381893187,77.4986292999022 L 47.2481201788046,77.4986292999022 L 47.35212089583,77.4986292999022 L 47.4557378601609,77.4507533623791 L 47.5589421019686,77.4330196302547 L 47.661646763271,77.4125904029369 L 47.7637814554236,77.3894796815898 L 47.8652761804101,77.3637033051557 L 47.9660613788157,77.3352789394731 L 48.0660679774998,77.304226065181 L 48.1652274369351,77.2705659643695 L 48.2634717981812,77.234321705989 L 48.3607337294604,77.1955181300457 L 48.4569465723032,77.1541818305706 L 48.5520443872332,77.1103411373995 L 48.6459619989582,77.0640260967535 L 48.7386350410384,77.0152684506477 L 48.83,76.9641016151377 L 48.9199942588638,76.9105606574163 L 49.0085561400601,76.8546822717817 L 49.0956249476993,76.7965047544882 L 49.1811410091699,76.7360679774997 L 49.2650457160349,76.6734133611648 L 49.3472815641993,76.6085838458276 L 49.4277921933207,76.5416238624001 L 49.5065224254354,76.4725793019096 L 49.583418302775,76.401497484049 L 49.6584271247462,76.3284271247462 L 49.7314974840492,76.2534183027749 L 49.8025793019096,76.1765224254355 L 49.8716238624001,76.0977921933208 L 49.9385838458279,76.0172815641994 L 50.003413361165,75.9350457160349 L 50.0660679774998,75.8511410091699 L 50.1265047544881,75.7656249476992 L 50.1846822717817,75.67855614006 L 50.2405606574164,75.5899942588639 L 50.2941016151378,75.5 L 50.3452684506479,75.4086350410383 L 50.3940260967535,75.3159619989582 L 50.4403411373995,75.2220443872332 L 50.4841818305704,75.1269465723032 L 50.5255181300452,75.0307337294604 L 50.5643217059888,74.9334717981813 L 50.6005659643687,74.8352274369351 L 50.6342260651806,74.7360679774998 L 50.6652789394728,74.6360613788157 L 50.6937033051563,74.5352761804101 L 50.7194796815907,74.4337814554237 L 50.7425904029352,74.331646763271 L 50.7630196302558,74.2289421019686 L 50.7807533623806,74.125737860161 L 50.7957794454952,74.0221047688802 L 50.8080875814731,73.9181138530707 L 50.8176693349325,73.8138363829113 L 50.8245181390183,73.7093438249717 L 50.8286292999022,73.6047077932315 L 50.83,73.5 L 50.83,14.0 L 50.8286292999022,13.8952922067685 L 50.8245181390183,13.7906561750282 L 50.8176693349325,13.6861636170886 L 50.8080875814731,13.5818861469294 L 50.7957794454952,13.4778952311198 L 50.7807533623806,13.3742621398391 L 50.7630196302558,13.2710578980314 L 50.7425904029352,13.168353236729 L 50.7194796815907,13.0662185445764 L 50.6937033051563,12.9647238195899 L 50.6652789394728,12.8639386211843 L 50.6342260651806,12.7639320225002 L 50.6005659643687,12.6647725630649 L 50.5643217059888,12.5665282018188 L 50.5255181300452,12.4692662705396 L 50.4841818305704,12.3730534276968 L 50.4403411373994,12.2779556127668 L 50.3940260967535,12.1840380010418 L 50.3452684506479,12.0913649589616 L 50.2941016151378,12.0 L 50.2405606574164,11.9100057411362 L 50.1846822717817,11.8214438599399 L 50.1265047544881,11.7343750523007 L 50.0660679774998,11.6488589908301 L 50.003413361165,11.5649542839651 L 49.9385838458279,11.4827184358006 L 49.8716238624001,11.4022078066793 L 49.8025793019096,11.3234775745646 L 49.7314974840492,11.246581697225 L 49.6584271247462,11.1715728752538 L 49.583418302775,11.0985025159509 L 49.5065224254354,11.0274206980904 L 49.4277921933207,10.9583761375999 L 49.3472815641994,10.8914161541721 L 49.2650457160349,10.8265866388351 L 49.1811410091699,10.7639320225002 L 49.0956249476993,10.7034952455119 L 49.0085561400601,10.6453177282183 L 48.9199942588638,10.5894393425836 L 48.83,10.5358983848623 L 48.7386350410384,10.4847315493521 L 48.6459619989582,10.4359739032465 L 48.5520443872332,10.3896588626006 L 48.4569465723032,10.3458181694296 L 48.3607337294604,10.3044818699549 L 48.2634717981812,10.2656782940112 L 48.1652274369351,10.2294340356313 L 48.0660679774998,10.1957739348194 L 47.9660613788157,10.1647210605272 L 47.8652761804101,10.1362966948437 L 47.7637814554236,10.1105203184093 L 47.6616467632711,10.0874095970648 L 47.5589421019686,10.0669803697442 L 47.4557378601609,10.0492466376194 L 47.3521047688802,10.0342205545048 L 47.2481138530706,10.0219124185269 L 47.1438363829114,10.0123306650675 L 47.0393438249718,10.0054818609817 L 46.9347077932315,10.0013707000978 L 46.83,10.0 L 14.0,10.0 L 13.8952922067685,10.0013707000978 L 13.7906561750282,10.0054818609817 L 13.6861636170886,10.0123306650675 L 13.5818861469294,10.0219124185269 L 13.4778952311198,10.0342205545048 L 13.3742621398391,10.0492466376194 L 13.2710578980314,10.0669803697442 L 13.168353236729,10.0874095970648 L 13.0662185445764,10.1105203184093 L 12.9647238195899,10.1362966948437 L 12.8639386211843,10.1647210605272 L 12.7639320225002,10.1957739348194 L 12.6647725630649,10.2294340356313 L 12.5665282018188,10.2656782940112 L 12.4692662705396,10.3044818699549 L 12.3730534276968,10.3458181694296 L 12.2779556127668,10.3896588626006 L 12.1840380010418,10.4359739032465 L 12.0913649589616,10.4847315493521 L 12.0,10.5358983848623 L 11.9100057411362,10.5894393425836 L 11.8214438599399,10.6453177282183 L 11.7343750523007,10.7034952455119 L 11.6488589908301,10.7639320225002 L 11.5649542839651,10.8265866388351 L 11.4827184358006,10.8914161541721 L 11.4022078066793,10.9583761375999 L 11.3234775745646,11.0274206980904 L 11.246581697225,11.0985025159509 L 11.1715728752538,11.1715728752538 L 11.0985025159509,11.246581697225 L 11.0274206980904,11.3234775745646 L 10.9583761375999,11.4022078066793 L 10.8914161541721,11.4827184358006 L 10.8265866388351,11.5649542839651 L 10.7639320225002,11.6488589908301 L 10.7034952455119,11.7343750523007 L 10.6453177282183,11.8214438599399 L 10.5894393425836,11.9100057411362 L 10.5358983848623,12.0 L 10.4847315493521,12.0913649589616 L 10.4359739032465,12.1840380010418 L 10.3896588626006,12.2779556127668 L 10.3458181694296,12.3730534276968 L 10.3044818699549,12.4692662705397 L 10.2656782940112,12.5665282018188 L 10.2294340356313,12.6647725630649 L 10.1957739348194,12.7639320225002 L 10.1647210605272,12.8639386211843 L 10.1362966948437,12.9647238195899 L 10.1105203184093,13.0662185445764 L 10.0874095970648,13.168353236729 L 10.0669803697442,13.2710578980314 L 10.0492466376195,13.3742621398391 L 10.0342205545048,13.4778952311198 L 10.0219124185269,13.5818861469294 L 10.0123306650675,13.6861636170886 L 10.0054818609817,13.7906561750282 L 10.0013707000978,13.8952922067685 L 10.0,14.0 L 10.0,73.5 L 10.0013707000978,73.6047077932315 L 10.0054818609817,73.7093438249718 L 10.0123306650675,73.8138363829114 L 10.0219124185269,73.9181138530706 L 10.0342205545048,74.0221047688802 L 10.0492466376195,74.1257378601609 L 10.0669803697442,74.2289421019686 L 10.0874095970648,74.331646763271 L 10.1105203184093,74.4337814554236 L 10.1362966948437,74.5352761804101 L 10.1647210605272,74.6360613788157 L 10.1957739348194,74.7360679774998 L 10.2294340356313,74.8352274369351 L 10.2656782940112,74.9334717981812 L 10.3044818699549,75.0307337294604 L 10.3458181694296,75.1269465723032 L 10.3896588626006,75.2220443872332 L 10.4359739032465,75.3159619989582 L 10.4847315493521,75.4086350410384 L 10.5358983848623,75.5 L 10.5894393425836,75.5899942588638 L 10.6453177282183,75.6785561400601 L 10.7034952455119,75.7656249476993 L 10.7639320225002,75.8511410091699 L 10.8265866388351,75.9350457160349 L 10.8914161541721,76.0172815641994 L 10.9583761375999,76.0977921933207 L 11.0274206980904,76.1765224254354 L 11.0985025159509,76.253418302775 L 11.1715728752538,76.3284271247462 L 11.246581697225,76.4014974840491 L 11.3234775745646,76.4725793019096 L 11.4022078066793,76.5416238624001 L 11.4827184358007,76.6085838458279 L 11.5649542839651,76.6734133611649 L 11.6488589908301,76.7360679774998 L 11.7343750523007,76.7965047544881 L 11.8214438599399,76.8546822717817 L 11.9100057411362,76.9105606574164 L 12.0,76.9641016151378 L 12.0913649589616,77.0152684506479 L 12.1840380010418,77.0640260967535 L 12.2779556127668,77.1103411373994 L 12.3730534276968,77.1541818305704 L 12.4692662705396,77.1955181300451 L 12.5665282018188,77.2343217059888 L 12.6647725630649,77.2705659643687 L 12.7639320225002,77.3042260651806 L 12.8639386211843,77.3352789394728 L 12.9647238195899,77.3637033051563 L 13.0662185445764,77.3894796815907 L 13.168353236729,77.4125904029352 L 13.2710578980314,77.4330196302558 L 13.3742621398391,77.4507533623806 L 13.4778952311198,77.4657794454952 L 13.5818861469294,77.4780875814731 L 13.6861636170886,77.4876693349325 L 13.7906561750282,77.4945181390183 L 13.8952922067685,77.4986292999022 M 45.655,70.725 L 46.069110472164,70.7795186779375 L 46.455,70.9393593539449 L 46.7863708498985,71.1936291501015 L 47.0406406460551,71.525 L 47.2004813220625,71.910889527836 L 47.255,72.325 L 47.2004813220625,72.739110472164 L 47.0406406460551,73.125 L 46.7863708498985,73.4563708498985 L 46.455,73.7106406460551 L 46.069110472164,73.8704813220625 L 45.655,73.925 L 45.240889527836,73.8704813220625 L 44.855,73.7106406460551 L 44.5236291501015,73.4563708498985 L 44.2693593539449,73.125 L 44.1095186779375,72.739110472164 L 44.055,72.325 L 44.1095186779375,71.910889527836 L 44.2693593539449,71.525 L 44.5236291501015,71.1936291501015 L 44.855,70.9393593539449 L 45.240889527836,70.7795186779375 L 45.655,70.725 M 45.655,13.575 L 46.069110472164,13.6295186779375 L 46.455,13.7893593539449 L 46.7863708498985,14.0436291501015 L 47.0406406460551,14.375 L 47.2004813220625,14.760889527836 L 47.255,15.175 L 47.2004813220625,15.589110472164 L 47.0406406460551,15.975 L 46.7863708498985,16.3063708498985 L 46.455,16.5606406460551 L 46.069110472164,16.7204813220625 L 45.655,16.775 L 45.240889527836,16.7204813220625 L 44.855,16.5606406460551 L 44.5236291501015,16.3063708498985 L 44.2693593539449,15.975 L 44.1095186779375,15.589110472164 L 44.055,15.175 L 44.1095186779375,14.760889527836 L 44.2693593539449,14.375 L 44.5236291501015,14.0436291501015 L 44.855,13.7893593539449 L 45.240889527836,13.6295186779375 L 45.655,13.575 M 15.175,70.725 L 15.589110472164,70.7795186779375 L 15.975,70.9393593539449 L 16.3063708498985,71.1936291501015 L 16.5606406460551,71.525 L 16.7204813220625,71.910889527836 L 16.775,72.325 L 16.7204813220625,72.739110472164 L 16.5606406460551,73.125 L 16.3063708498985,73.4563708498985 L 15.975,73.7106406460551 L 15.589110472164,73.8704813220625 L 15.175,73.925 L 14.760889527836,73.8704813220625 L 14.375,73.7106406460551 L 14.0436291501015,73.4563708498985 L 13.7893593539449,73.125 L 13.6295186779375,72.739110472164 L 13.575,72.325 L 13.6295186779375,71.910889527836 L 13.7893593539449,71.525 L 14.0436291501015,71.1936291501015 L 14.375,70.9393593539449 L 14.760889527836,70.7795186779375 L 15.175,70.725 M 16.5147608592589,14.3003338694119 L 16.6954898677117,14.6768930213438 L 16.7726000044083,15.0873973407103 L 16.7408363409633,15.5038716365372 L 16.6023635185486,15.8979338738202 L 16.3666182311745,16.242729362307 L 16.0496661305881,16.5147608592589 L 15.6731069786563,16.6954898677117 L 15.2626026592897,16.7726000044083 L 14.8461283634628,16.7408363409633 L 14.4520661261798,16.6023635185486 L 14.107270637693,16.3666182311745 L 13.8352391407411,16.0496661305881 L 13.6545101322883,15.6731069786562 L 13.5773999955917,15.2626026592897 L 13.6091636590367,14.8461283634628 L 13.7476364814514,14.4520661261798 L 13.9833817688255,14.107270637693 L 14.3003338694119,13.8352391407411 L 14.6768930213438,13.6545101322883 L 15.0873973407103,13.5773999955917 L 15.5038716365372,13.6091636590367 L 15.8979338738202,13.7476364814514 L 16.2427293623071,13.9833817688255 L 16.5147608592589,14.3003338694119 M 18.83,14.9 L 42.0,14.9 L 42.0,24.34 L 18.83,24.34 L 18.83,14.9 M 18.326,59.4290762113533 L 18.2574762807788,59.4674513379859 L 18.1879714992186,59.5040195725651 L 18.1175332904249,59.5387558530496 L 18.0462099292274,59.5716363729278 L 17.9740502970953,59.6026385975338 L 17.9011038486359,59.6317412794916 L 17.8274205777013,59.6589244732765 L 17.7530509831248,59.6841695488855 L 17.6780460341118,59.7074592046046 L 17.6024571353076,59.7287774788672 L 17.5263360915677,59.748109761193 L 17.4497350724533,59.7654428022014 L 17.3727065764764,59.7807647226919 L 17.2953033951207,59.7940650217854 L 17.2175785766602,59.8053345841214 L 17.139585389803,59.8145656861048 L 17.0613772871835,59.8217520011994 L 16.9830078687288,59.8268886042637 L 16.9045308449236,59.8299719749267 L 16.826,59.831 L 16.7474691550764,59.8299719749267 L 16.6689921312712,59.8268886042637 L 16.5906227128165,59.8217520011994 L 16.512414610197,59.8145656861048 L 16.4344214233398,59.8053345841214 L 16.3566966048793,59.7940650217854 L 16.2792934235236,59.7807647226919 L 16.2022649275467,59.7654428022014 L 16.1256639084323,59.748109761193 L 16.0495428646924,59.7287774788672 L 15.9739539658882,59.7074592046046 L 15.8989490168752,59.6841695488855 L 15.8245794222987,59.6589244732765 L 15.7508961513641,59.6317412794916 L 15.6779497029047,59.6026385975339 L 15.6057900707726,59.5716363729278 L 15.5344667095751,59.5387558530496 L 15.4640285007814,59.5040195725651 L 15.3945237192212,59.4674513379859 L 15.326,59.4290762113533 L 15.2585043058522,59.3889204930623 L 15.1920828949549,59.3470117038363 L 15.1267812892255,59.303378565866 L 15.0626442431226,59.2580509831248 L 14.9997157129738,59.2110600208737 L 14.9380388268505,59.1624378843709 L 14.8776558550095,59.1122178968001 L 14.8186081809234,59.0604344764322 L 14.7609362729187,59.0071231130369 L 14.7046796564404,58.9523203435596 L 14.6498768869631,58.8960637270813 L 14.5965655235678,58.8383918190766 L 14.5447821031999,58.7793441449905 L 14.4945621156291,58.7189611731495 L 14.4459399791263,58.6572842870262 L 14.3989490168752,58.5943557568774 L 14.353621434134,58.5302187107745 L 14.3099882961637,58.4649171050451 L 14.2680795069377,58.3984956941478 L 14.2279237886467,58.331 L 14.1895486620141,58.2624762807788 L 14.1529804274349,58.1929714992186 L 14.1182441469504,58.1225332904249 L 14.0853636270722,58.0512099292274 L 14.0543614024661,57.9790502970953 L 14.0252587205084,57.9061038486359 L 13.9980755267235,57.8324205777013 L 13.9728304511145,57.7580509831248 L 13.9495407953954,57.6830460341118 L 13.9282225211328,57.6074571353076 L 13.908890238807,57.5313360915677 L 13.8915571977986,57.4547350724533 L 13.8762352773081,57.3777065764764 L 13.8629349782146,57.3003033951207 L 13.8516654158786,57.2225785766601 L 13.8424343138952,57.144585389803 L 13.8352479988006,57.0663772871835 L 13.8301113957363,56.9880078687288 L 13.8270280250733,56.9095308449236 L 13.826,56.831 L 13.8270280250733,56.7524691550764 L 13.8301113957363,56.6739921312712 L 13.8352479988006,56.5956227128165 L 13.8424343138952,56.517414610197 L 13.8516654158786,56.4394214233398 L 13.8629349782146,56.3616966048793 L 13.8762352773081,56.2842934235236 L 13.8915571977986,56.2072649275467 L 13.908890238807,56.1306639084323 L 13.9282225211328,56.0545428646924 L 13.9495407953954,55.9789539658882 L 13.9728304511145,55.9039490168751 L 13.9980755267235,55.8295794222987 L 14.0252587205084,55.7558961513641 L 14.0543614024661,55.6829497029047 L 14.0853636270722,55.6107900707726 L 14.1182441469504,55.5394667095751 L 14.1529804274349,55.4690285007813 L 14.1895486620141,55.3995237192212 L 14.2279237886467,55.331 L 14.2680795069377,55.2635043058522 L 14.3099882961637,55.1970828949549 L 14.353621434134,55.1317812892255 L 14.3989490168752,55.0676442431226 L 14.4459399791263,55.0047157129738 L 14.4945621156291,54.9430388268505 L 14.5447821031999,54.8826558550094 L 14.5965655235678,54.8236081809234 L 14.6498768869631,54.7659362729187 L 14.7046796564404,54.7096796564403 L 14.7609362729187,54.6548768869631 L 14.8186081809234,54.6015655235678 L 14.8776558550095,54.5497821031999 L 14.9380388268505,54.4995621156291 L 14.9997157129738,54.4509399791263 L 15.0626442431226,54.4039490168751 L 15.1267812892255,54.358621434134 L 15.1920828949549,54.3149882961637 L 15.2585043058522,54.2730795069377 L 15.326,54.2329237886467 L 15.3945237192212,54.1945486620141 L 15.4640285007814,54.1579804274349 L 15.5344667095751,54.1232441469504 L 15.6057900707726,54.0903636270722 L 15.6779497029047,54.0593614024661 L 15.7508961513641,54.0302587205084 L 15.8245794222987,54.0030755267235 L 15.8989490168752,53.9778304511145 L 15.9739539658882,53.9545407953954 L 16.0495428646924,53.9332225211328 L 16.1256639084323,53.913890238807 L 16.2022649275467,53.8965571977986 L 16.2792934235236,53.8812352773081 L 16.3566966048793,53.8679349782146 L 16.4344214233399,53.8566654158786 L 16.512414610197,53.8474343138952 L 16.5906227128165,53.8402479988006 L 16.6689921312712,53.8351113957363 L 16.7474691550764,53.8320280250733 L 16.826,53.831 L 16.9045308449236,53.8320280250733 L 16.9830078687288,53.8351113957363 L 17.0613772871835,53.8402479988006 L 17.139585389803,53.8474343138952 L 17.2175785766602,53.8566654158786 L 17.2953033951207,53.8679349782146 L 17.3727065764764,53.8812352773081 L 17.4497350724533,53.8965571977986 L 17.5263360915677,53.913890238807 L 17.6024571353076,53.9332225211328 L 17.6780460341118,53.9545407953954 L 17.7530509831248,53.9778304511145 L 17.8274205777013,54.0030755267235 L 17.9011038486359,54.0302587205084 L 17.9740502970953,54.0593614024661 L 18.0462099292274,54.0903636270722 L 18.1175332904249,54.1232441469504 L 18.1879714992186,54.1579804274349 L 18.2574762807788,54.1945486620141 L 18.326,54.2329237886467 L 18.3934956941479,54.2730795069377 L 18.4599171050451,54.3149882961637 L 18.5252187107745,54.358621434134 L 18.5893557568774,54.4039490168751 L 18.6522842870262,54.4509399791263 L 18.7139611731495,54.4995621156291 L 18.7743441449906,54.5497821031999 L 18.8333918190766,54.6015655235678 L 18.8910637270813,54.6548768869631 L 18.9473203435596,54.7096796564403 L 19.0021231130369,54.7659362729187 L 19.0554344764322,54.8236081809234 L 19.1072178968001,54.8826558550094 L 19.1574378843709,54.9430388268505 L 19.2060600208737,55.0047157129738 L 19.2530509831248,55.0676442431226 L 19.2983785658661,55.1317812892255 L 19.3420117038363,55.1970828949549 L 19.3839204930623,55.2635043058522 L 19.4240762113533,55.331 L 19.4624513379859,55.3995237192212 L 19.4990195725651,55.4690285007813 L 19.5337558530496,55.5394667095751 L 19.5666363729278,55.6107900707726 L 19.5976385975339,55.6829497029047 L 19.6267412794916,55.7558961513641 L 19.6539244732765,55.8295794222987 L 19.6791695488855,55.9039490168752 L 19.7024592046046,55.9789539658882 L 19.7237774788672,56.0545428646924 L 19.743109761193,56.1306639084323 L 19.7604428022014,56.2072649275467 L 19.7757647226919,56.2842934235236 L 19.7890650217854,56.3616966048793 L 19.8003345841214,56.4394214233398 L 19.8095656861048,56.517414610197 L 19.8167520011994,56.5956227128165 L 19.8218886042637,56.6739921312712 L 19.8249719749267,56.7524691550764 L 19.826,56.831 L 19.8249719749267,56.9095308449236 L 19.8218886042637,56.9880078687288 L 19.8167520011994,57.0663772871835 L 19.8095656861048,57.144585389803 L 19.8003345841214,57.2225785766602 L 19.7890650217854,57.3003033951207 L 19.7757647226919,57.3777065764764 L 19.7604428022014,57.4547350724533 L 19.743109761193,57.5313360915677 L 19.7237774788672,57.6074571353076 L 19.7024592046046,57.6830460341118 L 19.6791695488855,57.7580509831248 L 19.6539244732765,57.8324205777013 L 19.6267412794916,57.9061038486359 L 19.5976385975339,57.9790502970953 L 19.5666363729278,58.0512099292274 L 19.5337558530496,58.1225332904249 L 19.4990195725651,58.1929714992186 L 19.4624513379859,58.2624762807788 L 19.4240762113533,58.331 L 19.3839204930623,58.3984956941478 L 19.3420117038363,58.4649171050451 L 19.2983785658661,58.5302187107745 L 19.2530509831248,58.5943557568774 L 19.2060600208737,58.6572842870262 L 19.1574378843709,58.7189611731495 L 19.1072178968001,58.7793441449905 L 19.0554344764322,58.8383918190766 L 19.0021231130369,58.8960637270813 L 18.9473203435596,58.9523203435596 L 18.8910637270813,59.0071231130369 L 18.8333918190766,59.0604344764322 L 18.7743441449906,59.1122178968001 L 18.7139611731495,59.1624378843709 L 18.6522842870262,59.2110600208737 L 18.5893557568774,59.2580509831248 L 18.5252187107745,59.303378565866 L 18.4599171050451,59.3470117038363 L 18.3934956941479,59.3889204930623 L 18.326,59.4290762113533 M 19.1072178968001,32.6173441449905 L 19.0554344764322,32.6763918190766 L 19.0021231130369,32.7340637270812 L 18.9473203435596,32.7903203435596 L 18.8910637270813,32.8451231130369 L 18.8333918190766,32.8984344764322 L 18.7743441449906,32.9502178968001 L 18.7139611731495,33.0004378843709 L 18.6522842870262,33.0490600208737 L 18.5893557568774,33.0960509831248 L 18.5252187107745,33.141378565866 L 18.4599171050451,33.1850117038363 L 18.3934956941478,33.2269204930623 L 18.326,33.2670762113533 L 18.2574762807788,33.3054513379859 L 18.1879714992186,33.3420195725651 L 18.1175332904249,33.3767558530496 L 18.0462099292274,33.4096363729278 L 17.9740502970953,33.4406385975339 L 17.9011038486359,33.4697412794916 L 17.8274205777013,33.4969244732765 L 17.7530509831248,33.5221695488855 L 17.6780460341118,33.5454592046046 L 17.6024571353076,33.5667774788672 L 17.5263360915677,33.586109761193 L 17.4497350724533,33.6034428022014 L 17.3727065764765,33.6187647226919 L 17.2953033951207,33.6320650217854 L 17.2175785766602,33.6433345841214 L 17.139585389803,33.6525656861048 L 17.0613772871835,33.6597520011994 L 16.9830078687288,33.6648886042637 L 16.9045308449236,33.6679719749267 L 16.826,33.669 L 16.7474691550764,33.6679719749267 L 16.6689921312712,33.6648886042637 L 16.5906227128165,33.6597520011994 L 16.512414610197,33.6525656861048 L 16.4344214233399,33.6433345841214 L 16.3566966048793,33.6320650217854 L 16.2792934235236,33.6187647226919 L 16.2022649275467,33.6034428022014 L 16.1256639084323,33.586109761193 L 16.0495428646924,33.5667774788672 L 15.9739539658882,33.5454592046046 L 15.8989490168752,33.5221695488854 L 15.8245794222987,33.4969244732765 L 15.7508961513641,33.4697412794916 L 15.6779497029047,33.4406385975339 L 15.6057900707726,33.4096363729278 L 15.5344667095751,33.3767558530496 L 15.4640285007814,33.3420195725651 L 15.3945237192212,33.3054513379859 L 15.326,33.2670762113533 L 15.2585043058522,33.2269204930623 L 15.1920828949549,33.1850117038363 L 15.1267812892255,33.141378565866 L 15.0626442431226,33.0960509831248 L 14.9997157129738,33.0490600208737 L 14.9380388268505,33.0004378843709 L 14.8776558550095,32.9502178968001 L 14.8186081809234,32.8984344764322 L 14.7609362729187,32.8451231130369 L 14.7046796564404,32.7903203435596 L 14.6498768869631,32.7340637270813 L 14.5965655235678,32.6763918190766 L 14.5447821031999,32.6173441449905 L 14.4945621156291,32.5569611731495 L 14.4459399791263,32.4952842870262 L 14.3989490168752,32.4323557568774 L 14.353621434134,32.3682187107745 L 14.3099882961637,32.3029171050451 L 14.2680795069377,32.2364956941478 L 14.2279237886467,32.169 L 14.1895486620141,32.1004762807788 L 14.1529804274349,32.0309714992186 L 14.1182441469504,31.9605332904249 L 14.0853636270722,31.8892099292274 L 14.0543614024661,31.8170502970953 L 14.0252587205084,31.7441038486359 L 13.9980755267235,31.6704205777013 L 13.9728304511145,31.5960509831248 L 13.9495407953954,31.5210460341118 L 13.9282225211328,31.4454571353076 L 13.908890238807,31.3693360915677 L 13.8915571977986,31.2927350724533 L 13.8762352773081,31.2157065764764 L 13.8629349782146,31.1383033951207 L 13.8516654158786,31.0605785766601 L 13.8424343138952,30.982585389803 L 13.8352479988006,30.9043772871835 L 13.8301113957363,30.8260078687288 L 13.8270280250733,30.7475308449236 L 13.826,30.669 L 13.8270280250733,30.5904691550764 L 13.8301113957363,30.5119921312712 L 13.8352479988006,30.4336227128165 L 13.8424343138952,30.355414610197 L 13.8516654158786,30.2774214233398 L 13.8629349782146,30.1996966048793 L 13.8762352773081,30.1222934235236 L 13.8915571977986,30.0452649275467 L 13.908890238807,29.9686639084323 L 13.9282225211328,29.8925428646924 L 13.9495407953954,29.8169539658882 L 13.9728304511145,29.7419490168751 L 13.9980755267235,29.6675794222987 L 14.0252587205084,29.5938961513641 L 14.0543614024661,29.5209497029047 L 14.0853636270722,29.4487900707726 L 14.1182441469504,29.3774667095751 L 14.1529804274349,29.3070285007814 L 14.1895486620141,29.2375237192212 L 14.2279237886467,29.169 L 14.2680795069377,29.1015043058521 L 14.3099882961637,29.0350828949549 L 14.353621434134,28.9697812892255 L 14.3989490168752,28.9056442431226 L 14.4459399791263,28.8427157129738 L 14.4945621156291,28.7810388268505 L 14.5447821031999,28.7206558550094 L 14.5965655235678,28.6616081809234 L 14.6498768869631,28.6039362729187 L 14.7046796564404,28.5476796564404 L 14.7609362729187,28.4928768869631 L 14.8186081809234,28.4395655235678 L 14.8776558550094,28.3877821031999 L 14.9380388268505,28.3375621156291 L 14.9997157129738,28.2889399791263 L 15.0626442431226,28.2419490168751 L 15.1267812892255,28.196621434134 L 15.1920828949549,28.1529882961637 L 15.2585043058522,28.1110795069377 L 15.326,28.0709237886467 L 15.3945237192212,28.0325486620141 L 15.4640285007814,27.9959804274349 L 15.5344667095751,27.9612441469504 L 15.6057900707726,27.9283636270722 L 15.6779497029047,27.8973614024661 L 15.7508961513641,27.8682587205084 L 15.8245794222987,27.8410755267235 L 15.8989490168752,27.8158304511145 L 15.9739539658882,27.7925407953954 L 16.0495428646924,27.7712225211328 L 16.1256639084323,27.751890238807 L 16.2022649275467,27.7345571977986 L 16.2792934235236,27.7192352773081 L 16.3566966048793,27.7059349782146 L 16.4344214233399,27.6946654158786 L 16.512414610197,27.6854343138952 L 16.5906227128165,27.6782479988006 L 16.6689921312712,27.6731113957363 L 16.7474691550764,27.6700280250733 L 16.826,27.669 L 16.9045308449236,27.6700280250733 L 16.9830078687288,27.6731113957363 L 17.0613772871835,27.6782479988006 L 17.139585389803,27.6854343138952 L 17.2175785766602,27.6946654158786 L 17.2953033951207,27.7059349782146 L 17.3727065764764,27.7192352773081 L 17.4497350724533,27.7345571977986 L 17.5263360915677,27.751890238807 L 17.6024571353076,27.7712225211328 L 17.6780460341118,27.7925407953954 L 17.7530509831248,27.8158304511145 L 17.8274205777013,27.8410755267235 L 17.9011038486359,27.8682587205084 L 17.9740502970953,27.8973614024661 L 18.0462099292274,27.9283636270722 L 18.1175332904249,27.9612441469504 L 18.1879714992186,27.9959804274349 L 18.2574762807788,28.0325486620141 L 18.326,28.0709237886467 L 18.3934956941478,28.1110795069377 L 18.4599171050451,28.1529882961637 L 18.5252187107745,28.1966214341339 L 18.5893557568774,28.2419490168752 L 18.6522842870262,28.2889399791263 L 18.7139611731495,28.3375621156291 L 18.7743441449906,28.3877821031999 L 18.8333918190766,28.4395655235678 L 18.8910637270813,28.4928768869631 L 18.9473203435596,28.5476796564403 L 19.0021231130369,28.6039362729187 L 19.0554344764322,28.6616081809234 L 19.1072178968001,28.7206558550094 L 19.1574378843709,28.7810388268505 L 19.2060600208737,28.8427157129738 L 19.2530509831248,28.9056442431226 L 19.2983785658661,28.9697812892255 L 19.3420117038363,29.0350828949549 L 19.3839204930623,29.1015043058521 L 19.4240762113533,29.169 L 19.4624513379859,29.2375237192212 L 19.4990195725651,29.3070285007814 L 19.5337558530496,29.3774667095751 L 19.5666363729278,29.4487900707726 L 19.5976385975339,29.5209497029047 L 19.6267412794916,29.5938961513641 L 19.6539244732765,29.6675794222987 L 19.6791695488855,29.7419490168752 L 19.7024592046046,29.8169539658882 L 19.7237774788672,29.8925428646924 L 19.743109761193,29.9686639084323 L 19.7604428022014,30.0452649275467 L 19.7757647226919,30.1222934235235 L 19.7890650217854,30.1996966048793 L 19.8003345841214,30.2774214233398 L 19.8095656861048,30.355414610197 L 19.8167520011994,30.4336227128165 L 19.8218886042637,30.5119921312712 L 19.8249719749267,30.5904691550764 L 19.826,30.669 L 19.8249719749267,30.7475308449236 L 19.8218886042637,30.8260078687288 L 19.8167520011994,30.9043772871835 L 19.8095656861048,30.982585389803 L 19.8003345841214,31.0605785766601 L 19.7890650217854,31.1383033951207 L 19.7757647226919,31.2157065764764 L 19.7604428022014,31.2927350724533 L 19.743109761193,31.3693360915677 L 19.7237774788672,31.4454571353076 L 19.7024592046046,31.5210460341118 L 19.6791695488855,31.5960509831248 L 19.6539244732765,31.6704205777013 L 19.6267412794916,31.7441038486359 L 19.5976385975339,31.8170502970953 L 19.5666363729278,31.8892099292274 L 19.5337558530496,31.9605332904249 L 19.4990195725651,32.0309714992186 L 19.4624513379859,32.1004762807788 L 19.4240762113533,32.169 L 19.3839204930623,32.2364956941478 L 19.3420117038363,32.3029171050451 L 19.298378565866,32.3682187107745 L 19.2530509831248,32.4323557568774 L 19.2060600208737,32.4952842870262 L 19.1574378843709,32.5569611731495 L 19.1072178968001,32.6173441449905 "
  />
</svg>
