%
M48
M72
T01C0.0150
T02C0.0315
T03C0.0354
T04C0.0400
T05C0.0630
T06C0.1299
%
T01
X5750Y19679
X3062Y19366
X2875Y19054
X5250Y16429
X6375Y16804
X9437Y18491
X8875Y22804
X11750Y15304
X12562Y13741
X12250Y13554
X12875Y13929
X12375Y12054
X12250Y11429
X13125Y11804
X14428Y11429
X15375Y11304
X15937Y11491
X16375Y11304
X16125Y11054
X16375Y10804
X16812Y10304
X17125Y10491
X16562Y9741
X16875Y9554
X16125Y9804
X14875Y10054
X14428Y9804
X13125Y9804
X12375Y10304
X12125Y10054
X11000Y10054
X10750Y10429
X11000Y9679
X11000Y9304
X13437Y8054
X13750Y8366
X13875Y8054
X13125Y6304
X8937Y11429
X9625Y11679
X10125Y12804
X18625Y12366
X16875Y12554
X16875Y13054
X17000Y13554
X17000Y14054
X20375Y12304
X21125Y15054
X25375Y14804
X25375Y13554
X25375Y12304
X25375Y11054
X25375Y9804
X29125Y9804
X28625Y15304
X29125Y15304
X25375Y16054
X25375Y17304
X29125Y18054
X25375Y18554
X27375Y20304
X29125Y12554
X28625Y12554
X27875Y7554
X21125Y9804
X19625Y9804
X17375Y8804
X17875Y8554
X18125Y8054
X18125Y7679
X17000Y7679
X17875Y20054
X18375Y20054
X23125Y20804
X23125Y23304
X24625Y23179
X13875Y21679
X14125Y21429
X14375Y21179
X14125Y20929
X14375Y20679
T02
X17875Y16304
X18875Y16304
X27375Y22054
X28375Y23176
X26375Y23176
T03
X2750Y19920
X2750Y18187
T04
X4875Y5054
X5875Y5054
X6875Y5054
X7875Y5054
X8875Y5054
X11625Y5054
X12625Y5054
X13625Y5054
X14625Y5054
X15625Y5054
X18625Y5054
X19625Y5054
X20625Y5054
X21625Y5054
X22625Y5054
X22625Y9054
X23625Y9054
X23625Y10054
X23625Y12054
X22625Y12054
X22625Y13054
X23625Y13054
X23625Y16054
X22625Y16054
X22625Y17054
X23625Y17054
X23625Y18054
X22625Y18054
X22625Y19054
X23625Y19054
X23625Y14054
X22625Y14054
X22625Y15054
X23625Y15054
X22625Y11054
X23625Y11054
X22625Y10054
X17625Y5054
X10625Y5054
X6875Y24054
X7875Y24054
X8875Y24054
X9875Y24054
X10875Y24054
X11875Y24054
X12875Y24054
X13875Y24054
X15625Y24054
X16625Y24054
X17625Y24054
X18625Y24054
X19625Y24054
X20625Y24054
X21625Y24054
X23625Y20054
X22625Y20054
X22625Y24054
T05
X4125Y12554
X2125Y12554
T06
X30875Y6054
X2375Y6054
X2375Y23054
X30875Y23054
M30
