G75*
G70*
%OFA0B0*%
%FSLAX24Y24*%
%IPPOS*%
%LPD*%
%AMOC8*
5,1,8,0,0,1.08239X$1,22.5*
%
%ADD10C,0.0394*%
%ADD11R,0.0640X0.0640*%
%ADD12C,0.0640*%
%ADD13OC8,0.0640*%
%ADD14C,0.0670*%
%ADD15C,0.2340*%
%ADD16C,0.0555*%
D10*
X002750Y018187D03*
X002750Y019920D03*
D11*
X004875Y005054D03*
X008875Y005054D03*
X010625Y005054D03*
X017625Y005054D03*
X022625Y020054D03*
X023625Y020054D03*
X022625Y024054D03*
X013875Y024054D03*
D12*
X007875Y005054D03*
X006875Y005054D03*
X005875Y005054D03*
D13*
X011625Y005054D03*
X012625Y005054D03*
X013625Y005054D03*
X014625Y005054D03*
X015625Y005054D03*
X018625Y005054D03*
X019625Y005054D03*
X020625Y005054D03*
X021625Y005054D03*
X022625Y005054D03*
X022625Y009054D03*
X023625Y009054D03*
X023625Y010054D03*
X022625Y010054D03*
X022625Y011054D03*
X023625Y011054D03*
X023625Y012054D03*
X022625Y012054D03*
X022625Y013054D03*
X023625Y013054D03*
X023625Y014054D03*
X022625Y014054D03*
X022625Y015054D03*
X023625Y015054D03*
X023625Y016054D03*
X022625Y016054D03*
X022625Y017054D03*
X023625Y017054D03*
X023625Y018054D03*
X022625Y018054D03*
X022625Y019054D03*
X023625Y019054D03*
X021625Y024054D03*
X020625Y024054D03*
X019625Y024054D03*
X018625Y024054D03*
X017625Y024054D03*
X016625Y024054D03*
X015625Y024054D03*
X012875Y024054D03*
X011875Y024054D03*
X010875Y024054D03*
X009875Y024054D03*
X008875Y024054D03*
X007875Y024054D03*
X006875Y024054D03*
D14*
X004125Y012554D03*
X002125Y012554D03*
D15*
X002375Y006054D03*
X002375Y023054D03*
X030875Y023054D03*
X030875Y006054D03*
D16*
X027375Y022054D03*
X028375Y023176D03*
X026375Y023176D03*
M02*
