<?xml version="1.0" standalone="no"?>
<!DOCTYPE svg PUBLIC "-//W3C//DTD SVG 1.1//EN" "http://www.w3.org/Graphics/SVG/1.1/DTD/svg11.dtd">
<svg width="61.0mm" height="84.0000000000001mm"
 viewBox="0 0 61.0 84.0000000000001"
 xmlns="http://www.w3.org/2000/svg" version="1.1"
 xmlns:xlink="http://www.w3.org/1999/xlink">
<desc>Output from Flights of Ideas SVG Sketchup Plugin</desc>

<g id="text_annotations" font-size="10" stroke="rgb(255,0,0)" stroke-width="0">
</g>
  <path id="face0-cut"
 style="fill:none;stroke:rgb(0,0,255);stroke-width:0;stroke-miterlimit:4;stroke-dasharray:none;stroke-linejoin:round;stroke-linecap:round"
        d="M 10.0342205545048,13.4778952311198 L 10.0,14.0 L 10.0,70.0 L 10.0342205545048,70.5221047688803 L 10.1362966948437,71.0352761804101 L 10.3044818699548,71.5307337294604 L 10.5358983848622,72.0000000000001 L 10.8265866388351,72.4350457160349 L 11.1715728752538,72.8284271247462 L 11.5649542839651,73.173413361165 L 12.0,73.4641016151378 L 12.4692662705396,73.6955181300452 L 12.9647238195899,73.8637033051563 L 13.4778952311198,73.9657794454953 L 14.0,74.0000000000001 L 47.0,74.0000000000001 L 47.5221047688802,73.9657794454953 L 48.0352761804101,73.8637033051563 L 48.5307337294604,73.6955181300452 L 49.0,73.4641016151378 L 49.4350457160349,73.173413361165 L 49.8284271247462,72.8284271247462 L 50.1734133611649,72.4350457160349 L 50.4641016151378,72.0000000000001 L 50.6955181300452,71.5307337294604 L 50.8637033051563,71.0352761804101 L 50.9657794454953,70.5221047688803 L 51.0,70.0 L 51.0,13.9999999999998 L 50.9657794454953,13.4778952311198 L 50.8637033051563,12.96472381959 L 50.6955181300452,12.4692662705397 L 50.4641016151378,12.0000000000002 L 50.1734133611649,11.5649542839651 L 49.8284271247462,11.1715728752539 L 49.4350457160349,10.826586638835 L 49.0,10.5358983848623 L 48.5307337294604,10.3044818699549 L 48.0352761804101,10.1362966948437 L 47.5221047688802,10.0342205545048 L 47.0,10.0 L 14.0,10.0000000000001 L 13.4778952311198,10.0342205545048 L 12.9647238195899,10.1362966948438 L 12.4692662705396,10.3044818699549 L 12.0,10.5358983848623 L 11.5649542839651,10.8265866388351 L 11.1715728752538,11.1715728752538 L 10.8265866388351,11.5649542839652 L 10.5358983848622,12.0000000000001 L 10.3044818699548,12.4692662705397 L 10.1362966948437,12.96472381959 L 10.0342205545048,13.4778952311198 M 44.8642785362707,66.4057667409431 L 45.0316647853092,66.4003133615076 L 45.1987041083336,66.4123864836393 L 45.3635663875655,66.4418538316857 L 45.5244453573741,66.4883925552153 L 45.6795783941001,66.5514927662341 L 45.8272658277294,66.6304631256256 L 45.9658895638336,66.7244384176069 L 46.093930811751,66.8323890292132 L 46.2099867247752,66.9531322309538 L 46.3127857700367,67.0853451350432 L 46.4012016596836,67.227579189237 L 46.4742656907267,67.3782760474729 L 46.5311773583523,67.5357846434368 L 46.5713131264204,67.6983792799905 L 46.5942332590569,67.8642785362708 L 46.5996866384925,68.0316647853093 L 46.5876135163608,68.1987041083336 L 46.5581461683143,68.3635663875656 L 46.5116074447848,68.5244453573742 L 46.448507233766,68.6795783941001 L 46.3695368743744,68.8272658277294 L 46.2755615823932,68.9658895638336 L 46.1676109707868,69.0939308117511 L 46.0468677690462,69.2099867247752 L 45.9146548649568,69.3127857700368 L 45.7724208107631,69.4012016596837 L 45.6217239525272,69.4742656907268 L 45.4642153565633,69.5311773583524 L 45.3016207200096,69.5713131264204 L 45.1357214637293,69.5942332590569 L 44.9683352146908,69.5996866384925 L 44.8012958916665,69.5876135163608 L 44.6364336124345,69.5581461683144 L 44.4755546426259,69.5116074447848 L 44.3204216058999,69.448507233766 L 44.1727341722706,69.3695368743744 L 44.0341104361664,69.2755615823932 L 43.906069188249,69.1676109707869 L 43.7900132752248,69.0468677690463 L 43.6872142299633,68.9146548649569 L 43.5987983403164,68.7724208107632 L 43.5257343092733,68.6217239525272 L 43.4688226416477,68.4642153565633 L 43.4286868735797,68.3016207200096 L 43.4057667409431,68.1357214637293 L 43.4003133615075,67.9683352146909 L 43.4123864836392,67.8012958916665 L 43.4418538316857,67.6364336124346 L 43.4883925552152,67.4755546426259 L 43.551492766234,67.3204216059 L 43.6304631256256,67.1727341722707 L 43.7244384176068,67.0341104361665 L 43.8323890292132,66.906069188249 L 43.9531322309538,66.7900132752249 L 44.0853451350432,66.6872142299634 L 44.2275791892369,66.5987983403164 L 44.3782760474728,66.5257343092733 L 44.5357846434367,66.4688226416477 L 44.6983792799904,66.4286868735797 L 44.8642785362707,66.4057667409431 M 44.8793392064344,14.4045561830963 L 45.0467694892974,14.4006837039313 L 45.2136873558484,14.4143336687843 L 45.3782640190118,14.4453565257844 L 45.538696342426,14.493412382018 L 45.6932265959833,14.5579747274679 L 45.8401617138879,14.6383362035668 L 45.97789184424,14.733616353166 L 46.1049079869096,14.8427712670076 L 46.2198185264578,14.9646050210135 L 46.3213644789666,15.0977827790795 L 46.4084332857306,15.2408454178193 L 46.4800710026825,15.3922255130244 L 46.5354927520043,15.550264512694 L 46.5740913214126,15.7132309084758 L 46.5954438169037,15.8793392064345 L 46.5993162960687,16.0467694892974 L 46.5856663312155,16.2136873558484 L 46.5546434742156,16.3782640190118 L 46.506587617982,16.5386963424261 L 46.4420252725322,16.6932265959833 L 46.3616637964333,16.8401617138879 L 46.2663836468341,16.97789184424 L 46.1572287329925,17.1049079869097 L 46.0353949789865,17.2198185264577 L 45.9022172209204,17.3213644789667 L 45.7591545821808,17.4084332857306 L 45.6077744869756,17.4800710026826 L 45.449735487306,17.5354927520043 L 45.2867690915243,17.5740913214126 L 45.1206607935656,17.5954438169037 L 44.9532305107027,17.5993162960688 L 44.7863126441516,17.5856663312156 L 44.6217359809882,17.5546434742156 L 44.461303657574,17.5065876179821 L 44.3067734040168,17.4420252725322 L 44.1598382861122,17.3616637964333 L 44.02210815576,17.2663836468341 L 43.8950920130904,17.1572287329926 L 43.7801814735423,17.0353949789865 L 43.6786355210334,16.9022172209204 L 43.5915667142694,16.7591545821808 L 43.5199289973175,16.6077744869756 L 43.4645072479957,16.4497354873061 L 43.4259086785875,16.2867690915244 L 43.4045561830963,16.1206607935656 L 43.4006837039313,15.9532305107027 L 43.4143336687845,15.7863126441516 L 43.4453565257844,15.6217359809882 L 43.493412382018,15.461303657574 L 43.5579747274678,15.3067734040168 L 43.6383362035667,15.1598382861122 L 43.7336163531659,15.0221081557601 L 43.8427712670075,14.8950920130905 L 43.9646050210135,14.7801814735423 L 44.0977827790796,14.6786355210335 L 44.2408454178192,14.5915667142694 L 44.3922255130245,14.5199289973173 L 44.550264512694,14.4645072479959 L 44.7132309084757,14.4259086785876 L 44.8793392064344,14.4045561830963 M 15.8603254442488,66.4061082161967 L 16.0276976548555,66.4002397554898 L 16.1947664041595,66.411898602793 L 16.359701251982,66.4409570213357 L 16.5206951376155,66.4870966410033 L 16.6759841783588,66.5498119464675 L 16.8238669949852,66.6284158157175 L 16.9627233524093,66.722047048313 L 17.0910319113216,66.829679800876 L 17.2073868963004,66.9501348264458 L 17.3105134977814,67.0820923945555 L 17.399281839138,67.224106750475 L 17.4727193558465,67.3746219552024 L 17.5300214511061,67.5319889326574 L 17.5705603111697,67.6944835373037 L 17.5938917838033,67.8603254442488 L 17.5997602445103,68.0276976548555 L 17.588101397207,68.1947664041595 L 17.5590429786643,68.359701251982 L 17.5129033589967,68.5206951376155 L 17.4501880535326,68.6759841783588 L 17.3715841842825,68.8238669949853 L 17.2779529516871,68.9627233524094 L 17.1703201991241,69.0910319113217 L 17.0498651735542,69.2073868963004 L 16.9179076054445,69.3105134977814 L 16.775893249525,69.3992818391381 L 16.6253780447977,69.4727193558466 L 16.4680110673427,69.5300214511061 L 16.3055164626963,69.5705603111698 L 16.1396745557512,69.5938917838034 L 15.9723023451445,69.5997602445103 L 15.8052335958405,69.588101397207 L 15.640298748018,69.5590429786644 L 15.4793048623845,69.5129033589968 L 15.3240158216412,69.4501880535326 L 15.1761330050148,69.3715841842826 L 15.0372766475907,69.2779529516871 L 14.9089680886784,69.1703201991241 L 14.7926131036996,69.0498651735543 L 14.6894865022186,68.9179076054446 L 14.600718160862,68.7758932495251 L 14.5272806441535,68.6253780447977 L 14.4699785488939,68.4680110673428 L 14.4294396888303,68.3055164626964 L 14.4061082161967,68.1396745557513 L 14.4002397554898,67.9723023451446 L 14.411898602793,67.8052335958406 L 14.4409570213357,67.6402987480181 L 14.4870966410033,67.4793048623846 L 14.5498119464674,67.3240158216413 L 14.6284158157175,67.1761330050148 L 14.7220470483129,67.0372766475907 L 14.8296798008759,66.9089680886784 L 14.9501348264458,66.7926131036996 L 15.0820923945555,66.6894865022187 L 15.224106750475,66.600718160862 L 15.3746219552023,66.5272806441535 L 15.5319889326573,66.469978548894 L 15.6944835373037,66.4294396888303 L 15.8603254442488,66.4061082161967 M 41.5,25.5000000000001 L 19.5,25.5 L 19.5,15.5 L 41.5,15.5000000000001 L 41.5,25.5000000000001 M 15.6673412946916,14.434963838826 L 15.8327544587718,14.4087649674108 L 16.0,14.4000000000001 L 16.1672455412282,14.4087649674108 L 16.3326587053084,14.434963838826 L 16.4944271909999,14.4783095739278 L 16.6507786289213,14.5383272677719 L 16.8,14.6143593539449 L 16.940456403668,14.7055728090001 L 17.0706089701742,14.8109682792362 L 17.1890317207638,14.9293910298259 L 17.2944271909999,15.0595435963321 L 17.3856406460551,15.2000000000001 L 17.4616727322282,15.3492213710788 L 17.5216904260722,15.5055728090001 L 17.5650361611741,15.6673412946916 L 17.5912350325892,15.8327544587718 L 17.6,16.0000000000001 L 17.5912350325892,16.1672455412283 L 17.5650361611741,16.3326587053085 L 17.5216904260722,16.494427191 L 17.4616727322282,16.6507786289213 L 17.3856406460551,16.8 L 17.2944271909999,16.940456403668 L 17.1890317207638,17.0706089701742 L 17.0706089701742,17.1890317207639 L 16.940456403668,17.294427191 L 16.8,17.3856406460552 L 16.6507786289213,17.4616727322282 L 16.4944271909999,17.5216904260723 L 16.3326587053084,17.5650361611741 L 16.1672455412282,17.5912350325893 L 16.0,17.6000000000001 L 15.8327544587718,17.5912350325893 L 15.6673412946916,17.5650361611741 L 15.5055728090001,17.5216904260723 L 15.3492213710787,17.4616727322282 L 15.2,17.3856406460552 L 15.059543596332,17.294427191 L 14.9293910298258,17.1890317207639 L 14.8109682792362,17.0706089701742 L 14.7055728090001,16.940456403668 L 14.6143593539449,16.8 L 14.5383272677718,16.6507786289213 L 14.4783095739278,16.494427191 L 14.4349638388259,16.3326587053085 L 14.4087649674108,16.1672455412283 L 14.4,16.0000000000001 L 14.4087649674108,15.8327544587718 L 14.4349638388259,15.6673412946916 L 14.4783095739278,15.5055728090001 L 14.5383272677718,15.3492213710788 L 14.6143593539449,15.2 L 14.7055728090001,15.0595435963321 L 14.8109682792362,14.9293910298259 L 14.9293910298258,14.8109682792362 L 15.059543596332,14.7055728090001 L 15.2,14.6143593539449 L 15.3492213710787,14.5383272677719 L 15.5055728090001,14.4783095739278 L 15.6673412946916,14.434963838826 "
  />
  <path id="face0-interior"
 style="fill:none;stroke:rgb(0,255,0);stroke-width:0;stroke-miterlimit:4;stroke-dasharray:none;stroke-linejoin:round;stroke-linecap:round"
        d="M 10.0342205545048,13.4778952311198 M 10.0,14.0 M 10.0,70.0 M 10.0342205545048,70.5221047688803 M 10.1362966948437,71.0352761804101 M 10.3044818699548,71.5307337294604 M 10.5358983848622,72.0000000000001 M 10.8265866388351,72.4350457160349 M 11.1715728752538,72.8284271247462 M 11.5649542839651,73.173413361165 M 12.0,73.4641016151378 M 12.4692662705396,73.6955181300452 M 12.9647238195899,73.8637033051563 M 13.4778952311198,73.9657794454953 M 14.0,74.0000000000001 M 47.0,74.0000000000001 M 47.5221047688802,73.9657794454953 M 48.0352761804101,73.8637033051563 M 48.5307337294604,73.6955181300452 M 49.0,73.4641016151378 M 49.4350457160349,73.173413361165 M 49.8284271247462,72.8284271247462 M 50.1734133611649,72.4350457160349 M 50.4641016151378,72.0000000000001 M 50.6955181300452,71.5307337294604 M 50.8637033051563,71.0352761804101 M 50.9657794454953,70.5221047688803 M 51.0,70.0 M 51.0,13.9999999999998 M 50.9657794454953,13.4778952311198 M 50.8637033051563,12.96472381959 M 50.6955181300452,12.4692662705397 M 50.4641016151378,12.0000000000002 M 50.1734133611649,11.5649542839651 M 49.8284271247462,11.1715728752539 M 49.4350457160349,10.826586638835 M 49.0,10.5358983848623 M 48.5307337294604,10.3044818699549 M 48.0352761804101,10.1362966948437 M 47.5221047688802,10.0342205545048 M 47.0,10.0 M 14.0,10.0000000000001 M 13.4778952311198,10.0342205545048 M 12.9647238195899,10.1362966948438 M 12.4692662705396,10.3044818699549 M 12.0,10.5358983848623 M 11.5649542839651,10.8265866388351 M 11.1715728752538,11.1715728752538 M 10.8265866388351,11.5649542839652 M 10.5358983848622,12.0000000000001 M 10.3044818699548,12.4692662705397 M 10.1362966948437,12.96472381959 M 44.8642785362707,66.4057667409431 M 45.0316647853092,66.4003133615076 M 45.1987041083336,66.4123864836393 M 45.3635663875655,66.4418538316857 M 45.5244453573741,66.4883925552153 M 45.6795783941001,66.5514927662341 M 45.8272658277294,66.6304631256256 M 45.9658895638336,66.7244384176069 M 46.093930811751,66.8323890292132 M 46.2099867247752,66.9531322309538 M 46.3127857700367,67.0853451350432 M 46.4012016596836,67.227579189237 M 46.4742656907267,67.3782760474729 M 46.5311773583523,67.5357846434368 M 46.5713131264204,67.6983792799905 M 46.5942332590569,67.8642785362708 M 46.5996866384925,68.0316647853093 M 46.5876135163608,68.1987041083336 M 46.5581461683143,68.3635663875656 M 46.5116074447848,68.5244453573742 M 46.448507233766,68.6795783941001 M 46.3695368743744,68.8272658277294 M 46.2755615823932,68.9658895638336 M 46.1676109707868,69.0939308117511 M 46.0468677690462,69.2099867247752 M 45.9146548649568,69.3127857700368 M 45.7724208107631,69.4012016596837 M 45.6217239525272,69.4742656907268 M 45.4642153565633,69.5311773583524 M 45.3016207200096,69.5713131264204 M 45.1357214637293,69.5942332590569 M 44.9683352146908,69.5996866384925 M 44.8012958916665,69.5876135163608 M 44.6364336124345,69.5581461683144 M 44.4755546426259,69.5116074447848 M 44.3204216058999,69.448507233766 M 44.1727341722706,69.3695368743744 M 44.0341104361664,69.2755615823932 M 43.906069188249,69.1676109707869 M 43.7900132752248,69.0468677690463 M 43.6872142299633,68.9146548649569 M 43.5987983403164,68.7724208107632 M 43.5257343092733,68.6217239525272 M 43.4688226416477,68.4642153565633 M 43.4286868735797,68.3016207200096 M 43.4057667409431,68.1357214637293 M 43.4003133615075,67.9683352146909 M 43.4123864836392,67.8012958916665 M 43.4418538316857,67.6364336124346 M 43.4883925552152,67.4755546426259 M 43.551492766234,67.3204216059 M 43.6304631256256,67.1727341722707 M 43.7244384176068,67.0341104361665 M 43.8323890292132,66.906069188249 M 43.9531322309538,66.7900132752249 M 44.0853451350432,66.6872142299634 M 44.2275791892369,66.5987983403164 M 44.3782760474728,66.5257343092733 M 44.5357846434367,66.4688226416477 M 44.6983792799904,66.4286868735797 M 44.8793392064344,14.4045561830963 M 45.0467694892974,14.4006837039313 M 45.2136873558484,14.4143336687843 M 45.3782640190118,14.4453565257844 M 45.538696342426,14.493412382018 M 45.6932265959833,14.5579747274679 M 45.8401617138879,14.6383362035668 M 45.97789184424,14.733616353166 M 46.1049079869096,14.8427712670076 M 46.2198185264578,14.9646050210135 M 46.3213644789666,15.0977827790795 M 46.4084332857306,15.2408454178193 M 46.4800710026825,15.3922255130244 M 46.5354927520043,15.550264512694 M 46.5740913214126,15.7132309084758 M 46.5954438169037,15.8793392064345 M 46.5993162960687,16.0467694892974 M 46.5856663312155,16.2136873558484 M 46.5546434742156,16.3782640190118 M 46.506587617982,16.5386963424261 M 46.4420252725322,16.6932265959833 M 46.3616637964333,16.8401617138879 M 46.2663836468341,16.97789184424 M 46.1572287329925,17.1049079869097 M 46.0353949789865,17.2198185264577 M 45.9022172209204,17.3213644789667 M 45.7591545821808,17.4084332857306 M 45.6077744869756,17.4800710026826 M 45.449735487306,17.5354927520043 M 45.2867690915243,17.5740913214126 M 45.1206607935656,17.5954438169037 M 44.9532305107027,17.5993162960688 M 44.7863126441516,17.5856663312156 M 44.6217359809882,17.5546434742156 M 44.461303657574,17.5065876179821 M 44.3067734040168,17.4420252725322 M 44.1598382861122,17.3616637964333 M 44.02210815576,17.2663836468341 M 43.8950920130904,17.1572287329926 M 43.7801814735423,17.0353949789865 M 43.6786355210334,16.9022172209204 M 43.5915667142694,16.7591545821808 M 43.5199289973175,16.6077744869756 M 43.4645072479957,16.4497354873061 M 43.4259086785875,16.2867690915244 M 43.4045561830963,16.1206607935656 M 43.4006837039313,15.9532305107027 M 43.4143336687845,15.7863126441516 M 43.4453565257844,15.6217359809882 M 43.493412382018,15.461303657574 M 43.5579747274678,15.3067734040168 M 43.6383362035667,15.1598382861122 M 43.7336163531659,15.0221081557601 M 43.8427712670075,14.8950920130905 M 43.9646050210135,14.7801814735423 M 44.0977827790796,14.6786355210335 M 44.2408454178192,14.5915667142694 M 44.3922255130245,14.5199289973173 M 44.550264512694,14.4645072479959 M 44.7132309084757,14.4259086785876 M 15.8603254442488,66.4061082161967 M 16.0276976548555,66.4002397554898 M 16.1947664041595,66.411898602793 M 16.359701251982,66.4409570213357 M 16.5206951376155,66.4870966410033 M 16.6759841783588,66.5498119464675 M 16.8238669949852,66.6284158157175 M 16.9627233524093,66.722047048313 M 17.0910319113216,66.829679800876 M 17.2073868963004,66.9501348264458 M 17.3105134977814,67.0820923945555 M 17.399281839138,67.224106750475 M 17.4727193558465,67.3746219552024 M 17.5300214511061,67.5319889326574 M 17.5705603111697,67.6944835373037 M 17.5938917838033,67.8603254442488 M 17.5997602445103,68.0276976548555 M 17.588101397207,68.1947664041595 M 17.5590429786643,68.359701251982 M 17.5129033589967,68.5206951376155 M 17.4501880535326,68.6759841783588 M 17.3715841842825,68.8238669949853 M 17.2779529516871,68.9627233524094 M 17.1703201991241,69.0910319113217 M 17.0498651735542,69.2073868963004 M 16.9179076054445,69.3105134977814 M 16.775893249525,69.3992818391381 M 16.6253780447977,69.4727193558466 M 16.4680110673427,69.5300214511061 M 16.3055164626963,69.5705603111698 M 16.1396745557512,69.5938917838034 M 15.9723023451445,69.5997602445103 M 15.8052335958405,69.588101397207 M 15.640298748018,69.5590429786644 M 15.4793048623845,69.5129033589968 M 15.3240158216412,69.4501880535326 M 15.1761330050148,69.3715841842826 M 15.0372766475907,69.2779529516871 M 14.9089680886784,69.1703201991241 M 14.7926131036996,69.0498651735543 M 14.6894865022186,68.9179076054446 M 14.600718160862,68.7758932495251 M 14.5272806441535,68.6253780447977 M 14.4699785488939,68.4680110673428 M 14.4294396888303,68.3055164626964 M 14.4061082161967,68.1396745557513 M 14.4002397554898,67.9723023451446 M 14.411898602793,67.8052335958406 M 14.4409570213357,67.6402987480181 M 14.4870966410033,67.4793048623846 M 14.5498119464674,67.3240158216413 M 14.6284158157175,67.1761330050148 M 14.7220470483129,67.0372766475907 M 14.8296798008759,66.9089680886784 M 14.9501348264458,66.7926131036996 M 15.0820923945555,66.6894865022187 M 15.224106750475,66.600718160862 M 15.3746219552023,66.5272806441535 M 15.5319889326573,66.469978548894 M 15.6944835373037,66.4294396888303 M 41.5,25.5000000000001 M 19.5,25.5 M 19.5,15.5 M 41.5,15.5000000000001 M 15.6673412946916,14.434963838826 M 15.8327544587718,14.4087649674108 M 16.0,14.4000000000001 M 16.1672455412282,14.4087649674108 M 16.3326587053084,14.434963838826 M 16.4944271909999,14.4783095739278 M 16.6507786289213,14.5383272677719 M 16.8,14.6143593539449 M 16.940456403668,14.7055728090001 M 17.0706089701742,14.8109682792362 M 17.1890317207638,14.9293910298259 M 17.2944271909999,15.0595435963321 M 17.3856406460551,15.2000000000001 M 17.4616727322282,15.3492213710788 M 17.5216904260722,15.5055728090001 M 17.5650361611741,15.6673412946916 M 17.5912350325892,15.8327544587718 M 17.6,16.0000000000001 M 17.5912350325892,16.1672455412283 M 17.5650361611741,16.3326587053085 M 17.5216904260722,16.494427191 M 17.4616727322282,16.6507786289213 M 17.3856406460551,16.8 M 17.2944271909999,16.940456403668 M 17.1890317207638,17.0706089701742 M 17.0706089701742,17.1890317207639 M 16.940456403668,17.294427191 M 16.8,17.3856406460552 M 16.6507786289213,17.4616727322282 M 16.4944271909999,17.5216904260723 M 16.3326587053084,17.5650361611741 M 16.1672455412282,17.5912350325893 M 16.0,17.6000000000001 M 15.8327544587718,17.5912350325893 M 15.6673412946916,17.5650361611741 M 15.5055728090001,17.5216904260723 M 15.3492213710787,17.4616727322282 M 15.2,17.3856406460552 M 15.059543596332,17.294427191 M 14.9293910298258,17.1890317207639 M 14.8109682792362,17.0706089701742 M 14.7055728090001,16.940456403668 M 14.6143593539449,16.8 M 14.5383272677718,16.6507786289213 M 14.4783095739278,16.494427191 M 14.4349638388259,16.3326587053085 M 14.4087649674108,16.1672455412283 M 14.4,16.0000000000001 M 14.4087649674108,15.8327544587718 M 14.4349638388259,15.6673412946916 M 14.4783095739278,15.5055728090001 M 14.5383272677718,15.3492213710788 M 14.6143593539449,15.2 M 14.7055728090001,15.0595435963321 M 14.8109682792362,14.9293910298259 M 14.9293910298258,14.8109682792362 M 15.059543596332,14.7055728090001 M 15.2,14.6143593539449 M 15.3492213710787,14.5383272677719 M 15.5055728090001,14.4783095739278 "
  />
</svg>
