%
M48
M72
T01C0.0200
T02C0.0354
T03C0.0400
T04C0.1102
%
T01
X7599Y7322
X7349Y8197
X9724Y8322
X7849Y9572
X7724Y10072
X7974Y10572
X8849Y10947
X8349Y11072
X6849Y10197
X6474Y11447
X7349Y12447
X10724Y11947
X16099Y12322
X15474Y11947
X16099Y11697
X16099Y10947
X15474Y9572
X18974Y11947
X19599Y11697
X19599Y10572
X23099Y12447
X22474Y11947
X23099Y11697
X23099Y10197
X25974Y11947
X26599Y12447
X24224Y13072
X22474Y13947
X21224Y14697
X20224Y14947
X21224Y15697
X23724Y14947
X25974Y13947
X28974Y14697
X29349Y9947
X26599Y9822
X30974Y14697
X18974Y13947
X17724Y14697
X16724Y14947
X17724Y16072
X14224Y16447
X13474Y14947
X14224Y14697
X15474Y13947
X17224Y13072
X19599Y12447
X20724Y13072
X13724Y13072
X12849Y12572
X10099Y14572
X8349Y14572
X6974Y15447
X8724Y17447
X3474Y9447
T02
X2474Y11581
X2474Y13313
T03
X11474Y7697
X12474Y7697
X13474Y7697
X14474Y7697
X15474Y7697
X33474Y13447
X33474Y10447
X33474Y11447
X33474Y12447
X29974Y7697
X33474Y14447
X31974Y17197
X30974Y17197
X29974Y17197
X28974Y17197
X27974Y17197
T04
X1974Y7947
X34349Y7947
X34349Y16947
X1974Y16947
M30
