<?xml version="1.0" standalone="no"?>
<!DOCTYPE svg PUBLIC "-//W3C//DTD SVG 1.1//EN" "http://www.w3.org/Graphics/SVG/1.1/DTD/svg11.dtd">
<svg width="61.0mm" height="84.0mm"
 viewBox="0 0 61.0 84.0"
 xmlns="http://www.w3.org/2000/svg" version="1.1"
 xmlns:xlink="http://www.w3.org/1999/xlink">
<desc>Output from Flights of Ideas SVG Sketchup Plugin</desc>

<g id="text_annotations" font-size="10" stroke="rgb(255,0,0)" stroke-width="0">
</g>
  <path id="face0-cut"
 style="fill:none;stroke:rgb(0,0,255);stroke-width:0;stroke-miterlimit:4;stroke-dasharray:none;stroke-linejoin:round;stroke-linecap:round"
        d="M 10.0,14.0 L 10.0,70.0 L 10.0342205545048,70.5221047688802 L 10.1362966948437,71.0352761804101 L 10.3044818699549,71.5307337294604 L 10.5358983848623,72.0 L 10.8265866388351,72.4350457160349 L 11.1715728752538,72.8284271247462 L 11.5649542839651,73.1734133611649 L 12.0,73.4641016151378 L 12.4692662705396,73.6955181300451 L 12.9647238195899,73.8637033051563 L 13.4778952311198,73.9657794454953 L 14.0,74.0 L 47.0,74.0 L 47.5221047688802,73.9657794454952 L 48.0352761804101,73.8637033051563 L 48.5307337294604,73.6955181300451 L 49.0,73.4641016151378 L 49.4350457160349,73.173413361165 L 49.8284271247462,72.8284271247462 L 50.173413361165,72.4350457160349 L 50.4641016151378,72.0 L 50.6955181300452,71.5307337294604 L 50.8637033051563,71.0352761804101 L 50.9657794454952,70.5221047688802 L 51.0,70.0 L 51.0,14.0 L 50.9657794454953,13.4778952311201 L 50.8637033051563,12.9647238195899 L 50.6955181300452,12.4692662705397 L 50.4641016151378,12.0000000000001 L 50.173413361165,11.5649542839652 L 49.8284271247462,11.1715728752539 L 49.4350457160349,10.826586638835 L 49.0,10.5358983848623 L 48.5307337294604,10.3044818699549 L 48.0352761804101,10.1362966948437 L 47.5221047688802,10.0342205545048 L 47.0,10.0 L 14.0,10.0 L 13.4778952311198,10.0342205545048 L 12.9647238195899,10.1362966948437 L 12.4692662705396,10.3044818699548 L 12.0,10.5358983848622 L 11.5649542839651,10.8265866388351 L 11.1715728752538,11.1715728752538 L 10.8265866388351,11.5649542839651 L 10.5358983848623,12.0 L 10.3044818699549,12.4692662705396 L 10.1362966948437,12.9647238195899 L 10.0342205545048,13.4778952311198 L 10.0,14.0 M 16.0,66.7 L 16.3364647586333,66.7442964258242 L 16.65,66.8741669750802 L 16.9192388155425,67.0807611844575 L 17.1258330249198,67.35 L 17.2557035741758,67.6635352413667 L 17.3,68.0 L 17.2557035741758,68.3364647586333 L 17.1258330249198,68.65 L 16.9192388155425,68.9192388155425 L 16.65,69.1258330249198 L 16.3364647586333,69.2557035741758 L 16.0,69.3 L 15.6635352413667,69.2557035741758 L 15.35,69.1258330249198 L 15.0807611844575,68.9192388155425 L 14.8741669750802,68.65 L 14.7442964258242,68.3364647586333 L 14.7,68.0 L 14.7442964258242,67.6635352413667 L 14.8741669750802,67.35 L 15.0807611844575,67.0807611844575 L 15.35,66.8741669750802 L 15.6635352413667,66.7442964258242 L 16.0,66.7 M 45.0,66.4 L 45.414110472164,66.4545186779375 L 45.8,66.6143593539449 L 46.1313708498985,66.8686291501015 L 46.3856406460551,67.2 L 46.5454813220625,67.585889527836 L 46.6,68.0 L 46.5454813220625,68.414110472164 L 46.3856406460551,68.8 L 46.1313708498985,69.1313708498985 L 45.8,69.3856406460551 L 45.414110472164,69.5454813220625 L 45.0,69.6 L 44.585889527836,69.5454813220625 L 44.2,69.3856406460551 L 43.8686291501015,69.1313708498985 L 43.6143593539449,68.8 L 43.4545186779375,68.414110472164 L 43.4,68.0 L 43.4545186779375,67.585889527836 L 43.6143593539449,67.2 L 43.8686291501015,66.8686291501015 L 44.2,66.6143593539449 L 44.585889527836,66.4545186779375 L 45.0,66.4 M 43.4,16.0 L 43.4545186779375,15.585889527836 L 43.6143593539449,15.1999999999999 L 43.8686291501015,14.8686291501015 L 44.2,14.614359353945 L 44.585889527836,14.4545186779375 L 45.0,14.3999999999998 L 45.414110472164,14.4545186779373 L 45.8,14.6143593539447 L 46.1313708498985,14.8686291501014 L 46.3856406460551,15.2 L 46.5454813220625,15.585889527836 L 46.6,16.0 L 46.5454813220625,16.414110472164 L 46.3856406460551,16.8 L 46.1313708498985,17.1313708498984 L 45.8,17.3856406460551 L 45.414110472164,17.5454813220625 L 45.0,17.6 L 44.585889527836,17.5454813220625 L 44.2,17.3856406460551 L 43.8686291501015,17.1313708498985 L 43.6143593539449,16.8 L 43.4545186779375,16.414110472164 L 43.4,16.0 M 16.0,17.6 L 15.585889527836,17.5454813220625 L 15.2,17.3856406460551 L 14.8686291501015,17.1313708498985 L 14.6143593539449,16.8 L 14.4545186779375,16.414110472164 L 14.4,16.0 L 14.4545186779375,15.585889527836 L 14.6143593539449,15.2 L 14.8686291501015,14.8686291501015 L 15.2,14.6143593539449 L 15.585889527836,14.4545186779375 L 16.0,14.4 L 16.414110472164,14.4545186779375 L 16.8,14.6143593539449 L 17.1313708498985,14.8686291501015 L 17.3856406460551,15.2 L 17.5454813220625,15.585889527836 L 17.6,16.0 L 17.5454813220625,16.414110472164 L 17.3856406460551,16.8 L 17.1313708498985,17.1313708498985 L 16.8,17.3856406460551 L 16.414110472164,17.5454813220625 L 16.0,17.6 M 16.5,53.9 L 16.914110472164,53.9545186779375 L 17.3,54.1143593539449 L 17.6313708498985,54.3686291501015 L 17.8856406460551,54.7 L 18.0454813220625,55.085889527836 L 18.1,55.5 L 18.0454813220625,55.914110472164 L 17.8856406460551,56.3 L 17.6313708498985,56.6313708498985 L 17.3,56.8856406460551 L 16.914110472164,57.0454813220625 L 16.5,57.1 L 16.085889527836,57.0454813220625 L 15.7,56.8856406460551 L 15.3686291501015,56.6313708498985 L 15.1143593539449,56.3 L 14.9545186779375,55.914110472164 L 14.9,55.5 L 14.9545186779375,55.085889527836 L 15.1143593539449,54.7 L 15.3686291501015,54.3686291501015 L 15.7,54.1143593539449 L 16.085889527836,53.9545186779375 L 16.5,53.9 M 16.914110472164,26.9545186779375 L 17.3,27.1143593539449 L 17.6313708498985,27.3686291501015 L 17.8856406460551,27.7 L 18.0454813220625,28.085889527836 L 18.1,28.5 L 18.0454813220625,28.914110472164 L 17.8856406460551,29.3 L 17.6313708498985,29.6313708498985 L 17.3,29.8856406460551 L 16.914110472164,30.0454813220625 L 16.5,30.1 L 16.085889527836,30.0454813220625 L 15.7,29.8856406460551 L 15.3686291501015,29.6313708498985 L 15.1143593539449,29.3 L 14.9545186779375,28.914110472164 L 14.9,28.5 L 14.9545186779375,28.085889527836 L 15.1143593539449,27.7 L 15.3686291501015,27.3686291501015 L 15.7,27.1143593539449 L 16.085889527836,26.9545186779375 L 16.5,26.9 L 16.914110472164,26.9545186779375 M 42.5,15.0 L 42.5,26.0 L 18.5,26.0 L 18.5,15.0 L 42.5,15.0 "
  />
</svg>
