G75*
G70*
%OFA0B0*%
%FSLAX24Y24*%
%IPPOS*%
%LPD*%
%AMOC8*
5,1,8,0,0,1.08239X$1,22.5*
%
%ADD10C,0.0640*%
%ADD11C,0.0634*%
%ADD12C,0.0100*%
%ADD13C,0.0350*%
%ADD14C,0.0400*%
%ADD15C,0.0160*%
%ADD16C,0.0120*%
D10*
X007126Y015032D02*
X007126Y015672D01*
X008126Y015672D02*
X008126Y015032D01*
X009126Y015032D02*
X009126Y015672D01*
X010126Y015672D02*
X010126Y015032D01*
X011126Y015032D02*
X011126Y015672D01*
D11*
X028858Y014352D03*
X029858Y014352D03*
X029858Y013352D03*
X028858Y013352D03*
X028858Y012352D03*
X029858Y012352D03*
X029858Y011352D03*
X028858Y011352D03*
X028858Y010352D03*
X029858Y010352D03*
X029858Y009352D03*
X028858Y009352D03*
X028858Y008352D03*
X029858Y008352D03*
X029858Y007352D03*
X028858Y007352D03*
X028858Y006352D03*
X029858Y006352D03*
X029858Y005352D03*
X028858Y005352D03*
D12*
X003696Y003022D02*
X003696Y016674D01*
X033415Y016674D01*
X033415Y003022D01*
X003696Y003022D01*
X003696Y003049D02*
X033415Y003049D01*
X033415Y003148D02*
X032948Y003148D01*
X033011Y003174D02*
X033236Y003399D01*
X033358Y003693D01*
X033358Y004011D01*
X033236Y004305D01*
X033011Y004530D01*
X032717Y004652D01*
X032399Y004652D01*
X032105Y004530D01*
X031880Y004305D01*
X031758Y004011D01*
X031758Y003693D01*
X031880Y003399D01*
X032105Y003174D01*
X032399Y003052D01*
X032717Y003052D01*
X033011Y003174D01*
X033083Y003246D02*
X033415Y003246D01*
X033415Y003345D02*
X033182Y003345D01*
X033254Y003444D02*
X033415Y003444D01*
X033415Y003542D02*
X033295Y003542D01*
X033336Y003641D02*
X033415Y003641D01*
X033415Y003739D02*
X033358Y003739D01*
X033358Y003838D02*
X033415Y003838D01*
X033415Y003936D02*
X033358Y003936D01*
X033348Y004035D02*
X033415Y004035D01*
X033415Y004133D02*
X033307Y004133D01*
X033266Y004232D02*
X033415Y004232D01*
X033415Y004330D02*
X033211Y004330D01*
X033112Y004429D02*
X033415Y004429D01*
X033415Y004528D02*
X033014Y004528D01*
X032780Y004626D02*
X033415Y004626D01*
X033415Y004725D02*
X003696Y004725D01*
X003696Y004823D02*
X011876Y004823D01*
X011967Y004732D02*
X012149Y004732D01*
X023617Y004732D01*
X023746Y004861D01*
X024281Y005396D01*
X024281Y005384D01*
X024334Y005257D01*
X024431Y005160D01*
X024558Y005107D01*
X024695Y005107D01*
X024822Y005160D01*
X024894Y005232D01*
X027867Y005232D01*
X028049Y005232D01*
X028705Y005889D01*
X028761Y005865D01*
X028955Y005865D01*
X029134Y005940D01*
X029271Y006076D01*
X029345Y006255D01*
X029345Y006449D01*
X029271Y006628D01*
X029134Y006765D01*
X028955Y006839D01*
X028761Y006839D01*
X028582Y006765D01*
X028445Y006628D01*
X028371Y006449D01*
X028371Y006255D01*
X028394Y006200D01*
X027867Y005672D01*
X024894Y005672D01*
X024822Y005745D01*
X024695Y005797D01*
X024682Y005797D01*
X025317Y006432D01*
X025446Y006561D01*
X025446Y010261D01*
X025492Y010307D01*
X025595Y010307D01*
X025722Y010360D01*
X025819Y010457D01*
X025871Y010584D01*
X025871Y010721D01*
X025819Y010848D01*
X025722Y010945D01*
X025595Y010997D01*
X025458Y010997D01*
X025331Y010945D01*
X025246Y010860D01*
X025246Y010861D01*
X025392Y011007D01*
X025495Y011007D01*
X025622Y011060D01*
X025719Y011157D01*
X025771Y011284D01*
X025771Y011421D01*
X025719Y011548D01*
X025622Y011645D01*
X025495Y011697D01*
X025358Y011697D01*
X025231Y011645D01*
X025134Y011548D01*
X025126Y011529D01*
X025119Y011548D01*
X025022Y011645D01*
X024895Y011697D01*
X024758Y011697D01*
X024646Y011651D01*
X024646Y011861D01*
X024717Y011932D01*
X024758Y011932D01*
X024831Y011860D01*
X024958Y011807D01*
X025095Y011807D01*
X025222Y011860D01*
X025319Y011957D01*
X025371Y012084D01*
X025371Y012221D01*
X025329Y012322D01*
X026096Y012322D01*
X026096Y008410D01*
X026034Y008348D01*
X025981Y008221D01*
X025981Y008084D01*
X026034Y007957D01*
X026131Y007860D01*
X026258Y007807D01*
X026395Y007807D01*
X026522Y007860D01*
X026619Y007957D01*
X026671Y008084D01*
X026671Y008221D01*
X026619Y008348D01*
X026556Y008410D01*
X026556Y012457D01*
X028222Y014122D01*
X028426Y014122D01*
X028445Y014076D01*
X028582Y013940D01*
X028761Y013865D01*
X028955Y013865D01*
X029134Y013940D01*
X029271Y014076D01*
X029289Y014122D01*
X029426Y014122D01*
X029445Y014076D01*
X029582Y013940D01*
X029761Y013865D01*
X029955Y013865D01*
X030134Y013940D01*
X030271Y014076D01*
X030345Y014255D01*
X030345Y014449D01*
X030271Y014628D01*
X030134Y014765D01*
X029955Y014839D01*
X029761Y014839D01*
X029582Y014765D01*
X029445Y014628D01*
X029426Y014582D01*
X029289Y014582D01*
X029271Y014628D01*
X029134Y014765D01*
X028955Y014839D01*
X028761Y014839D01*
X028582Y014765D01*
X028445Y014628D01*
X028426Y014582D01*
X028222Y014582D01*
X028031Y014582D01*
X026231Y012782D01*
X023831Y012782D01*
X023696Y012648D01*
X022896Y011848D01*
X022896Y011657D01*
X022896Y009348D01*
X022646Y009097D01*
X022558Y009097D01*
X022431Y009045D01*
X022334Y008948D01*
X022281Y008821D01*
X022281Y008684D01*
X022334Y008557D01*
X022431Y008460D01*
X022558Y008407D01*
X022695Y008407D01*
X022822Y008460D01*
X022919Y008557D01*
X022971Y008684D01*
X022971Y008772D01*
X023222Y009022D01*
X023356Y009157D01*
X023356Y011657D01*
X024022Y012322D01*
X024485Y012322D01*
X024406Y012243D01*
X024206Y012043D01*
X024206Y011861D01*
X024206Y006843D01*
X023153Y005790D01*
X023171Y005834D01*
X023171Y005971D01*
X023119Y006098D01*
X023022Y006195D01*
X022895Y006247D01*
X022758Y006247D01*
X022631Y006195D01*
X022534Y006098D01*
X022482Y005972D01*
X014717Y005972D01*
X014171Y006518D01*
X014171Y006621D01*
X014119Y006748D01*
X014022Y006845D01*
X013895Y006897D01*
X013771Y006897D01*
X013771Y007021D01*
X013719Y007148D01*
X013622Y007245D01*
X013495Y007297D01*
X013358Y007297D01*
X013231Y007245D01*
X013134Y007148D01*
X013081Y007021D01*
X013081Y006884D01*
X013134Y006757D01*
X013206Y006684D01*
X013206Y006583D01*
X012971Y006818D01*
X012971Y006921D01*
X012919Y007048D01*
X012822Y007145D01*
X012695Y007197D01*
X012558Y007197D01*
X012431Y007145D01*
X012334Y007048D01*
X012326Y007029D01*
X012319Y007048D01*
X012222Y007145D01*
X012095Y007197D01*
X011958Y007197D01*
X011878Y007164D01*
X011878Y007484D01*
X014284Y007484D01*
X014206Y007561D02*
X014206Y007743D01*
X014206Y007884D01*
X014134Y007957D01*
X014081Y008084D01*
X014081Y008221D01*
X014134Y008348D01*
X014231Y008445D01*
X014358Y008497D01*
X014495Y008497D01*
X014622Y008445D01*
X014719Y008348D01*
X014763Y008241D01*
X014813Y008362D01*
X014917Y008466D01*
X015053Y008522D01*
X015200Y008522D01*
X015336Y008466D01*
X015400Y008402D01*
X016517Y008402D01*
X016563Y008512D01*
X016667Y008616D01*
X016803Y008672D01*
X016950Y008672D01*
X017086Y008616D01*
X017190Y008512D01*
X017246Y008376D01*
X017246Y008229D01*
X017190Y008093D01*
X017086Y007989D01*
X016950Y007932D01*
X016848Y007932D01*
X016776Y007902D01*
X016677Y007902D01*
X015400Y007902D01*
X015336Y007839D01*
X015200Y007782D01*
X015053Y007782D01*
X014917Y007839D01*
X014813Y007943D01*
X014763Y008063D01*
X014719Y007957D01*
X014646Y007884D01*
X014646Y007743D01*
X015307Y007083D01*
X015334Y007148D01*
X015431Y007245D01*
X015558Y007297D01*
X015695Y007297D01*
X015822Y007245D01*
X015894Y007172D01*
X021035Y007172D01*
X021506Y007643D01*
X021506Y008133D01*
X021445Y008107D01*
X021335Y008107D01*
X021371Y008021D01*
X021371Y007884D01*
X021319Y007757D01*
X021222Y007660D01*
X021095Y007607D01*
X020958Y007607D01*
X020831Y007660D01*
X020734Y007757D01*
X020681Y007884D01*
X020681Y008021D01*
X020734Y008148D01*
X020806Y008220D01*
X020806Y009261D01*
X020446Y009622D01*
X020419Y009557D01*
X020322Y009460D01*
X020195Y009407D01*
X020058Y009407D01*
X019931Y009460D01*
X019858Y009532D01*
X014717Y009532D01*
X013971Y008786D01*
X013971Y008684D01*
X013919Y008557D01*
X013822Y008460D01*
X013695Y008407D01*
X013558Y008407D01*
X013431Y008460D01*
X013401Y008489D01*
X013372Y008460D01*
X013245Y008407D01*
X013108Y008407D01*
X013046Y008433D01*
X013046Y008376D01*
X013122Y008345D01*
X013219Y008248D01*
X013271Y008121D01*
X013271Y007984D01*
X013219Y007857D01*
X013122Y007760D01*
X012995Y007707D01*
X012858Y007707D01*
X012731Y007760D01*
X012634Y007857D01*
X012603Y007931D01*
X012545Y007907D01*
X012408Y007907D01*
X012281Y007960D01*
X012184Y008057D01*
X012131Y008184D01*
X012131Y008321D01*
X012184Y008448D01*
X012281Y008545D01*
X012406Y008597D01*
X012406Y009211D01*
X012406Y009393D01*
X013785Y010772D01*
X013967Y010772D01*
X018387Y010772D01*
X018565Y010946D01*
X018531Y010960D01*
X018458Y011032D01*
X018235Y011032D01*
X018106Y011161D01*
X017735Y011532D01*
X013317Y011532D01*
X013271Y011486D01*
X013271Y011384D01*
X013219Y011257D01*
X013122Y011160D01*
X012995Y011107D01*
X012858Y011107D01*
X012731Y011160D01*
X012658Y011232D01*
X012567Y011232D01*
X012438Y011361D01*
X012038Y011761D01*
X012038Y011943D01*
X012038Y013961D01*
X011867Y014132D01*
X009467Y014132D01*
X009338Y014261D01*
X009057Y014542D01*
X009029Y014542D01*
X008849Y014617D01*
X008711Y014755D01*
X008636Y014935D01*
X008636Y015770D01*
X008711Y015950D01*
X008849Y016088D01*
X009029Y016162D01*
X009224Y016162D01*
X009404Y016088D01*
X009542Y015950D01*
X009616Y015770D01*
X009616Y014935D01*
X009542Y014755D01*
X009504Y014717D01*
X009649Y014572D01*
X009927Y014572D01*
X009906Y014593D01*
X009906Y014593D01*
X009849Y014617D01*
X009711Y014755D01*
X009636Y014935D01*
X009636Y015770D01*
X009711Y015950D01*
X009849Y016088D01*
X010029Y016162D01*
X010224Y016162D01*
X010404Y016088D01*
X010542Y015950D01*
X010616Y015770D01*
X010616Y014935D01*
X010549Y014772D01*
X010704Y014772D01*
X010636Y014935D01*
X010636Y015770D01*
X010711Y015950D01*
X010849Y016088D01*
X011029Y016162D01*
X011224Y016162D01*
X011404Y016088D01*
X011542Y015950D01*
X011616Y015770D01*
X011616Y015572D01*
X012067Y015572D01*
X012249Y015572D01*
X012849Y014972D01*
X012978Y014843D01*
X012978Y013089D01*
X012994Y013072D01*
X017858Y013072D01*
X017931Y013145D01*
X018058Y013197D01*
X018195Y013197D01*
X018322Y013145D01*
X018356Y013110D01*
X018356Y013226D01*
X018413Y013362D01*
X018517Y013466D01*
X018653Y013522D01*
X018743Y013522D01*
X019476Y014256D01*
X019476Y015379D01*
X019413Y015443D01*
X019356Y015579D01*
X019356Y015726D01*
X019413Y015862D01*
X019517Y015966D01*
X019653Y016022D01*
X019800Y016022D01*
X019936Y015966D01*
X020040Y015862D01*
X020096Y015726D01*
X020096Y015579D01*
X020040Y015443D01*
X019976Y015379D01*
X019976Y014103D01*
X019938Y014011D01*
X019868Y013940D01*
X019096Y013169D01*
X019096Y013079D01*
X019040Y012943D01*
X018936Y012839D01*
X018800Y012782D01*
X018653Y012782D01*
X018517Y012839D01*
X018471Y012884D01*
X018471Y012784D01*
X018419Y012657D01*
X018322Y012560D01*
X018195Y012507D01*
X018182Y012507D01*
X018642Y012047D01*
X018745Y012047D01*
X018872Y011995D01*
X018969Y011898D01*
X019021Y011771D01*
X019021Y011634D01*
X018969Y011507D01*
X018964Y011502D01*
X019019Y011448D01*
X019036Y011406D01*
X020306Y012645D01*
X020306Y012884D01*
X020234Y012957D01*
X020181Y013084D01*
X020181Y013221D01*
X020234Y013348D01*
X020331Y013445D01*
X020458Y013497D01*
X020595Y013497D01*
X020722Y013445D01*
X020819Y013348D01*
X020871Y013221D01*
X020871Y013084D01*
X020819Y012957D01*
X020746Y012884D01*
X020746Y012642D01*
X020747Y012641D01*
X020746Y012551D01*
X020746Y012461D01*
X020745Y012460D01*
X020745Y012458D01*
X020681Y012395D01*
X020617Y012332D01*
X020616Y012332D01*
X018812Y010572D01*
X020235Y010572D01*
X020417Y010572D01*
X021007Y009983D01*
X021034Y010048D01*
X021131Y010145D01*
X021258Y010197D01*
X021395Y010197D01*
X021522Y010145D01*
X021619Y010048D01*
X021671Y009921D01*
X021671Y009818D01*
X021946Y009543D01*
X021946Y009361D01*
X021946Y007461D01*
X021817Y007332D01*
X021217Y006732D01*
X021035Y006732D01*
X015894Y006732D01*
X015884Y006722D01*
X022958Y006722D01*
X023031Y006795D01*
X023158Y006847D01*
X023295Y006847D01*
X023422Y006795D01*
X023519Y006698D01*
X023571Y006571D01*
X023571Y006434D01*
X023519Y006307D01*
X023422Y006210D01*
X023295Y006157D01*
X023158Y006157D01*
X023031Y006210D01*
X022958Y006282D01*
X015485Y006282D01*
X015356Y006411D01*
X014206Y007561D01*
X014206Y007582D02*
X011961Y007582D01*
X011950Y007557D02*
X012003Y007684D01*
X012003Y007821D01*
X011950Y007948D01*
X011853Y008045D01*
X011726Y008097D01*
X011589Y008097D01*
X011462Y008045D01*
X011365Y007948D01*
X011313Y007821D01*
X011313Y007684D01*
X011365Y007557D01*
X011438Y007484D01*
X008249Y007484D01*
X008271Y007462D02*
X008208Y007526D01*
X008208Y011682D01*
X008331Y011682D01*
X008467Y011739D01*
X008571Y011843D01*
X008628Y011979D01*
X008628Y012126D01*
X008571Y012262D01*
X008467Y012366D01*
X008331Y012422D01*
X008208Y012422D01*
X008208Y014542D01*
X008224Y014542D01*
X008404Y014617D01*
X008542Y014755D01*
X008616Y014935D01*
X008616Y015770D01*
X008542Y015950D01*
X008404Y016088D01*
X008224Y016162D01*
X008029Y016162D01*
X007849Y016088D01*
X007711Y015950D01*
X007636Y015770D01*
X007636Y014935D01*
X007708Y014762D01*
X007708Y012102D01*
X007708Y012003D01*
X007708Y007526D01*
X007644Y007462D01*
X007588Y007326D01*
X007588Y007179D01*
X007644Y007043D01*
X007708Y006979D01*
X007708Y005726D01*
X007644Y005662D01*
X007588Y005526D01*
X007588Y005379D01*
X007644Y005243D01*
X007748Y005139D01*
X007884Y005082D01*
X008031Y005082D01*
X008167Y005139D01*
X008271Y005243D01*
X008328Y005379D01*
X008328Y005526D01*
X008271Y005662D01*
X008208Y005726D01*
X008208Y006979D01*
X008271Y007043D01*
X008328Y007179D01*
X008328Y007326D01*
X008271Y007462D01*
X008303Y007385D02*
X011438Y007385D01*
X011438Y007287D02*
X008328Y007287D01*
X008328Y007188D02*
X011438Y007188D01*
X011438Y007090D02*
X008291Y007090D01*
X008220Y006991D02*
X011438Y006991D01*
X011438Y006893D02*
X008208Y006893D01*
X008208Y006794D02*
X011438Y006794D01*
X011438Y006695D02*
X008208Y006695D01*
X008208Y006597D02*
X011438Y006597D01*
X011438Y006498D02*
X008208Y006498D01*
X008208Y006400D02*
X011438Y006400D01*
X011438Y006301D02*
X008208Y006301D01*
X008208Y006203D02*
X011438Y006203D01*
X011438Y006104D02*
X008208Y006104D01*
X008208Y006006D02*
X011438Y006006D01*
X011438Y005907D02*
X008208Y005907D01*
X008208Y005809D02*
X011438Y005809D01*
X011438Y005710D02*
X008223Y005710D01*
X008292Y005611D02*
X011438Y005611D01*
X011438Y005513D02*
X008328Y005513D01*
X008328Y005414D02*
X011438Y005414D01*
X011438Y005316D02*
X008302Y005316D01*
X008246Y005217D02*
X011482Y005217D01*
X011438Y005261D02*
X011567Y005132D01*
X011967Y004732D01*
X011777Y004922D02*
X003696Y004922D01*
X003696Y005020D02*
X011679Y005020D01*
X011580Y005119D02*
X008119Y005119D01*
X007796Y005119D02*
X003696Y005119D01*
X003696Y005217D02*
X007669Y005217D01*
X007614Y005316D02*
X003696Y005316D01*
X003696Y005414D02*
X007588Y005414D01*
X007588Y005513D02*
X003696Y005513D01*
X003696Y005611D02*
X007623Y005611D01*
X007692Y005710D02*
X003696Y005710D01*
X003696Y005809D02*
X007708Y005809D01*
X007708Y005907D02*
X003696Y005907D01*
X003696Y006006D02*
X007708Y006006D01*
X007708Y006104D02*
X003696Y006104D01*
X003696Y006203D02*
X007708Y006203D01*
X007708Y006301D02*
X003696Y006301D01*
X003696Y006400D02*
X007708Y006400D01*
X007708Y006498D02*
X003696Y006498D01*
X003696Y006597D02*
X007708Y006597D01*
X007708Y006695D02*
X003696Y006695D01*
X003696Y006794D02*
X007708Y006794D01*
X007708Y006893D02*
X003696Y006893D01*
X003696Y006991D02*
X007696Y006991D01*
X007625Y007090D02*
X003696Y007090D01*
X003696Y007188D02*
X007588Y007188D01*
X007588Y007287D02*
X003696Y007287D01*
X003696Y007385D02*
X007612Y007385D01*
X007666Y007484D02*
X003696Y007484D01*
X003696Y007582D02*
X007708Y007582D01*
X007708Y007681D02*
X003696Y007681D01*
X003696Y007779D02*
X007708Y007779D01*
X007708Y007878D02*
X003696Y007878D01*
X003696Y007977D02*
X007708Y007977D01*
X007708Y008075D02*
X003696Y008075D01*
X003696Y008174D02*
X007708Y008174D01*
X007708Y008272D02*
X003696Y008272D01*
X003696Y008371D02*
X007708Y008371D01*
X007708Y008469D02*
X003696Y008469D01*
X003696Y008568D02*
X005519Y008568D01*
X005461Y008592D02*
X005589Y008539D01*
X005727Y008539D01*
X005854Y008592D01*
X005952Y008689D01*
X006005Y008817D01*
X006005Y008955D01*
X005952Y009083D01*
X005854Y009180D01*
X005727Y009233D01*
X005589Y009233D01*
X005461Y009180D01*
X005363Y009083D01*
X005311Y008955D01*
X005311Y008817D01*
X005363Y008689D01*
X005461Y008592D01*
X005387Y008666D02*
X003696Y008666D01*
X003696Y008765D02*
X005332Y008765D01*
X005311Y008863D02*
X003696Y008863D01*
X003696Y008962D02*
X005313Y008962D01*
X005354Y009061D02*
X003696Y009061D01*
X003696Y009159D02*
X005440Y009159D01*
X005876Y009159D02*
X007708Y009159D01*
X007708Y009061D02*
X005961Y009061D01*
X006002Y008962D02*
X007708Y008962D01*
X007708Y008863D02*
X006005Y008863D01*
X005983Y008765D02*
X007708Y008765D01*
X007708Y008666D02*
X005929Y008666D01*
X005796Y008568D02*
X007708Y008568D01*
X008208Y008568D02*
X012337Y008568D01*
X012406Y008666D02*
X008208Y008666D01*
X008208Y008765D02*
X012406Y008765D01*
X012406Y008863D02*
X008208Y008863D01*
X008208Y008962D02*
X012406Y008962D01*
X012406Y009061D02*
X008208Y009061D01*
X008208Y009159D02*
X012406Y009159D01*
X012406Y009258D02*
X008208Y009258D01*
X008208Y009356D02*
X012406Y009356D01*
X012468Y009455D02*
X008208Y009455D01*
X008208Y009553D02*
X012566Y009553D01*
X012665Y009652D02*
X008208Y009652D01*
X008208Y009750D02*
X012763Y009750D01*
X012862Y009849D02*
X008208Y009849D01*
X008208Y009947D02*
X012960Y009947D01*
X013059Y010046D02*
X008208Y010046D01*
X008208Y010144D02*
X013157Y010144D01*
X013256Y010243D02*
X008208Y010243D01*
X008208Y010342D02*
X013354Y010342D01*
X013453Y010440D02*
X008208Y010440D01*
X008208Y010539D02*
X013552Y010539D01*
X013650Y010637D02*
X008208Y010637D01*
X008208Y010736D02*
X013749Y010736D01*
X013876Y010552D02*
X012626Y009302D01*
X012626Y008402D01*
X012476Y008252D01*
X012152Y008371D02*
X008208Y008371D01*
X008208Y008469D02*
X012205Y008469D01*
X012131Y008272D02*
X008208Y008272D01*
X008208Y008174D02*
X012135Y008174D01*
X012176Y008075D02*
X011780Y008075D01*
X011921Y007977D02*
X012264Y007977D01*
X011979Y007878D02*
X012625Y007878D01*
X012711Y007779D02*
X012003Y007779D01*
X012002Y007681D02*
X014206Y007681D01*
X014206Y007779D02*
X013141Y007779D01*
X013227Y007878D02*
X014206Y007878D01*
X014126Y007977D02*
X013268Y007977D01*
X013271Y008075D02*
X014085Y008075D01*
X014081Y008174D02*
X013249Y008174D01*
X013194Y008272D02*
X014103Y008272D01*
X014157Y008371D02*
X013059Y008371D01*
X013381Y008469D02*
X013421Y008469D01*
X013831Y008469D02*
X014290Y008469D01*
X014563Y008469D02*
X014925Y008469D01*
X014821Y008371D02*
X014696Y008371D01*
X014750Y008272D02*
X014776Y008272D01*
X014426Y008152D02*
X014426Y007652D01*
X015576Y006502D01*
X023226Y006502D01*
X023571Y006498D02*
X023861Y006498D01*
X023763Y006400D02*
X023557Y006400D01*
X023513Y006301D02*
X023664Y006301D01*
X023566Y006203D02*
X023405Y006203D01*
X023467Y006104D02*
X023112Y006104D01*
X023157Y006006D02*
X023369Y006006D01*
X023270Y005907D02*
X023171Y005907D01*
X023161Y005809D02*
X023171Y005809D01*
X022826Y005902D02*
X022676Y005752D01*
X014626Y005752D01*
X013826Y006552D01*
X014072Y006794D02*
X014973Y006794D01*
X014875Y006893D02*
X013906Y006893D01*
X013771Y006991D02*
X014776Y006991D01*
X014678Y007090D02*
X013743Y007090D01*
X013678Y007188D02*
X014579Y007188D01*
X014481Y007287D02*
X013520Y007287D01*
X013332Y007287D02*
X011878Y007287D01*
X011878Y007385D02*
X014382Y007385D01*
X014807Y007582D02*
X021445Y007582D01*
X021506Y007681D02*
X021243Y007681D01*
X021328Y007779D02*
X021506Y007779D01*
X021506Y007878D02*
X021369Y007878D01*
X021371Y007977D02*
X021506Y007977D01*
X021506Y008075D02*
X021349Y008075D01*
X021026Y007952D02*
X021026Y009352D01*
X020226Y010152D01*
X014576Y010152D01*
X013176Y008752D01*
X013626Y008752D02*
X014626Y009752D01*
X020126Y009752D01*
X020415Y009553D02*
X020514Y009553D01*
X020613Y009455D02*
X020309Y009455D01*
X019943Y009455D02*
X014640Y009455D01*
X014541Y009356D02*
X020711Y009356D01*
X020806Y009258D02*
X014443Y009258D01*
X014344Y009159D02*
X020806Y009159D01*
X020806Y009061D02*
X014246Y009061D01*
X014147Y008962D02*
X020806Y008962D01*
X020806Y008863D02*
X014049Y008863D01*
X013971Y008765D02*
X020806Y008765D01*
X020806Y008666D02*
X016964Y008666D01*
X016788Y008666D02*
X013964Y008666D01*
X013923Y008568D02*
X016619Y008568D01*
X016545Y008469D02*
X015328Y008469D01*
X015375Y007878D02*
X020684Y007878D01*
X020681Y007977D02*
X017057Y007977D01*
X017172Y008075D02*
X020704Y008075D01*
X020760Y008174D02*
X017223Y008174D01*
X017246Y008272D02*
X020806Y008272D01*
X020806Y008371D02*
X017246Y008371D01*
X017208Y008469D02*
X020806Y008469D01*
X020806Y008568D02*
X017134Y008568D01*
X014877Y007878D02*
X014646Y007878D01*
X014646Y007779D02*
X020724Y007779D01*
X020810Y007681D02*
X014709Y007681D01*
X014906Y007484D02*
X021347Y007484D01*
X021248Y007385D02*
X015004Y007385D01*
X015103Y007287D02*
X015532Y007287D01*
X015374Y007188D02*
X015201Y007188D01*
X015300Y007090D02*
X015310Y007090D01*
X015626Y006952D02*
X021126Y006952D01*
X021726Y007552D01*
X021726Y009452D01*
X021326Y009852D01*
X021671Y009849D02*
X022896Y009849D01*
X022896Y009947D02*
X021660Y009947D01*
X021619Y010046D02*
X022896Y010046D01*
X022896Y010144D02*
X021522Y010144D01*
X021131Y010144D02*
X020845Y010144D01*
X020944Y010046D02*
X021033Y010046D01*
X020747Y010243D02*
X022896Y010243D01*
X022896Y010342D02*
X020648Y010342D01*
X020550Y010440D02*
X022896Y010440D01*
X022896Y010539D02*
X020451Y010539D01*
X020326Y010352D02*
X021376Y009302D01*
X021376Y008452D01*
X021946Y008469D02*
X022421Y008469D01*
X022329Y008568D02*
X021946Y008568D01*
X021946Y008666D02*
X022288Y008666D01*
X022281Y008765D02*
X021946Y008765D01*
X021946Y008863D02*
X022299Y008863D01*
X022348Y008962D02*
X021946Y008962D01*
X021946Y009061D02*
X022469Y009061D01*
X022708Y009159D02*
X021946Y009159D01*
X021946Y009258D02*
X022806Y009258D01*
X022896Y009356D02*
X021946Y009356D01*
X021946Y009455D02*
X022896Y009455D01*
X022896Y009553D02*
X021936Y009553D01*
X021838Y009652D02*
X022896Y009652D01*
X022896Y009750D02*
X021739Y009750D01*
X020326Y010352D02*
X014026Y010352D01*
X012826Y009152D01*
X012826Y008152D01*
X012926Y008052D01*
X011950Y007557D02*
X011878Y007484D01*
X011658Y007752D02*
X011658Y005352D01*
X012058Y004952D01*
X023526Y004952D01*
X025226Y006652D01*
X025226Y010352D01*
X025526Y010652D01*
X025871Y010637D02*
X026096Y010637D01*
X026096Y010539D02*
X025853Y010539D01*
X025802Y010440D02*
X026096Y010440D01*
X026096Y010342D02*
X025678Y010342D01*
X025446Y010243D02*
X026096Y010243D01*
X026096Y010144D02*
X025446Y010144D01*
X025446Y010046D02*
X026096Y010046D01*
X026096Y009947D02*
X025446Y009947D01*
X025446Y009849D02*
X026096Y009849D01*
X026096Y009750D02*
X025446Y009750D01*
X025446Y009652D02*
X026096Y009652D01*
X026096Y009553D02*
X025446Y009553D01*
X025446Y009455D02*
X026096Y009455D01*
X026096Y009356D02*
X025446Y009356D01*
X025446Y009258D02*
X026096Y009258D01*
X026096Y009159D02*
X025446Y009159D01*
X025446Y009061D02*
X026096Y009061D01*
X026096Y008962D02*
X025446Y008962D01*
X025446Y008863D02*
X026096Y008863D01*
X026096Y008765D02*
X025446Y008765D01*
X025446Y008666D02*
X026096Y008666D01*
X026096Y008568D02*
X025446Y008568D01*
X025446Y008469D02*
X026096Y008469D01*
X026057Y008371D02*
X025446Y008371D01*
X025446Y008272D02*
X026003Y008272D01*
X025981Y008174D02*
X025446Y008174D01*
X025446Y008075D02*
X025985Y008075D01*
X026026Y007977D02*
X025446Y007977D01*
X025446Y007878D02*
X026113Y007878D01*
X026540Y007878D02*
X026906Y007878D01*
X026906Y007977D02*
X026627Y007977D01*
X026668Y008075D02*
X026906Y008075D01*
X026906Y008174D02*
X026671Y008174D01*
X026650Y008272D02*
X026906Y008272D01*
X026906Y008371D02*
X026596Y008371D01*
X026556Y008469D02*
X026906Y008469D01*
X026906Y008568D02*
X026556Y008568D01*
X026556Y008666D02*
X026906Y008666D01*
X026906Y008765D02*
X026556Y008765D01*
X026556Y008863D02*
X026906Y008863D01*
X026906Y008962D02*
X026556Y008962D01*
X026556Y009061D02*
X026906Y009061D01*
X026906Y009159D02*
X026556Y009159D01*
X026556Y009258D02*
X026906Y009258D01*
X026906Y009356D02*
X026556Y009356D01*
X026556Y009455D02*
X026906Y009455D01*
X026906Y009553D02*
X026556Y009553D01*
X026556Y009652D02*
X026906Y009652D01*
X026906Y009750D02*
X026556Y009750D01*
X026556Y009849D02*
X026906Y009849D01*
X026906Y009947D02*
X026556Y009947D01*
X026556Y010046D02*
X026906Y010046D01*
X026906Y010144D02*
X026556Y010144D01*
X026556Y010243D02*
X026906Y010243D01*
X026906Y010342D02*
X026556Y010342D01*
X026556Y010440D02*
X026906Y010440D01*
X026906Y010539D02*
X026556Y010539D01*
X026556Y010637D02*
X026906Y010637D01*
X026906Y010736D02*
X026556Y010736D01*
X026556Y010834D02*
X026906Y010834D01*
X026906Y010933D02*
X026556Y010933D01*
X026556Y011031D02*
X026906Y011031D01*
X026906Y011130D02*
X026556Y011130D01*
X026556Y011228D02*
X026906Y011228D01*
X026906Y011327D02*
X026556Y011327D01*
X026556Y011426D02*
X026906Y011426D01*
X026906Y011516D02*
X026906Y006720D01*
X026834Y006648D01*
X026781Y006521D01*
X026781Y006384D01*
X026834Y006257D01*
X026931Y006160D01*
X027058Y006107D01*
X027195Y006107D01*
X027322Y006160D01*
X027419Y006257D01*
X027471Y006384D01*
X027471Y006521D01*
X027419Y006648D01*
X027346Y006720D01*
X027346Y011516D01*
X028435Y012605D01*
X028371Y012449D01*
X028371Y012255D01*
X028445Y012076D01*
X028582Y011940D01*
X028761Y011865D01*
X028955Y011865D01*
X029134Y011940D01*
X029271Y012076D01*
X029345Y012255D01*
X029345Y012449D01*
X029271Y012628D01*
X029134Y012765D01*
X028955Y012839D01*
X028761Y012839D01*
X028605Y012775D01*
X028715Y012884D01*
X028761Y012865D01*
X028955Y012865D01*
X029134Y012940D01*
X029271Y013076D01*
X029345Y013255D01*
X029345Y013449D01*
X029271Y013628D01*
X029134Y013765D01*
X028955Y013839D01*
X028761Y013839D01*
X028582Y013765D01*
X028445Y013628D01*
X028371Y013449D01*
X028371Y013255D01*
X028390Y013210D01*
X026896Y011716D01*
X026896Y011526D01*
X026906Y011516D01*
X026898Y011524D02*
X026556Y011524D01*
X026556Y011623D02*
X026896Y011623D01*
X026901Y011721D02*
X026556Y011721D01*
X026556Y011820D02*
X027000Y011820D01*
X027099Y011918D02*
X026556Y011918D01*
X026556Y012017D02*
X027197Y012017D01*
X027296Y012115D02*
X026556Y012115D01*
X026556Y012214D02*
X027394Y012214D01*
X027493Y012312D02*
X026556Y012312D01*
X026556Y012411D02*
X027591Y012411D01*
X027690Y012510D02*
X026609Y012510D01*
X026707Y012608D02*
X027788Y012608D01*
X027887Y012707D02*
X026806Y012707D01*
X026904Y012805D02*
X027985Y012805D01*
X028084Y012904D02*
X027003Y012904D01*
X027101Y013002D02*
X028183Y013002D01*
X028281Y013101D02*
X027200Y013101D01*
X027299Y013199D02*
X028380Y013199D01*
X028371Y013298D02*
X027397Y013298D01*
X027496Y013396D02*
X028371Y013396D01*
X028390Y013495D02*
X027594Y013495D01*
X027693Y013594D02*
X028431Y013594D01*
X028509Y013692D02*
X027791Y013692D01*
X027890Y013791D02*
X028644Y013791D01*
X028704Y013889D02*
X027988Y013889D01*
X028087Y013988D02*
X028534Y013988D01*
X028441Y014086D02*
X028185Y014086D01*
X027831Y014382D02*
X019976Y014382D01*
X019976Y014480D02*
X027929Y014480D01*
X028028Y014579D02*
X019976Y014579D01*
X019976Y014677D02*
X028494Y014677D01*
X028609Y014776D02*
X019976Y014776D01*
X019976Y014875D02*
X033415Y014875D01*
X033415Y014973D02*
X019976Y014973D01*
X019976Y015072D02*
X025852Y015072D01*
X025899Y015052D02*
X026217Y015052D01*
X026511Y015174D01*
X026736Y015399D01*
X026858Y015693D01*
X026858Y016011D01*
X026736Y016305D01*
X026511Y016530D01*
X026217Y016652D01*
X025899Y016652D01*
X025605Y016530D01*
X025380Y016305D01*
X025258Y016011D01*
X025258Y015693D01*
X025380Y015399D01*
X025605Y015174D01*
X025899Y015052D01*
X025614Y015170D02*
X019976Y015170D01*
X019976Y015269D02*
X025510Y015269D01*
X025411Y015367D02*
X019976Y015367D01*
X020049Y015466D02*
X025352Y015466D01*
X025311Y015564D02*
X020090Y015564D01*
X020096Y015663D02*
X025270Y015663D01*
X025258Y015761D02*
X020082Y015761D01*
X020041Y015860D02*
X025258Y015860D01*
X025258Y015959D02*
X019943Y015959D01*
X019509Y015959D02*
X011533Y015959D01*
X011579Y015860D02*
X019412Y015860D01*
X019371Y015761D02*
X011616Y015761D01*
X011616Y015663D02*
X019356Y015663D01*
X019362Y015564D02*
X012257Y015564D01*
X012355Y015466D02*
X019403Y015466D01*
X019476Y015367D02*
X012454Y015367D01*
X012552Y015269D02*
X019476Y015269D01*
X019476Y015170D02*
X012651Y015170D01*
X012749Y015072D02*
X019476Y015072D01*
X019476Y014973D02*
X012848Y014973D01*
X012947Y014875D02*
X019476Y014875D01*
X019476Y014776D02*
X012978Y014776D01*
X012978Y014677D02*
X019476Y014677D01*
X019476Y014579D02*
X012978Y014579D01*
X012978Y014480D02*
X019476Y014480D01*
X019476Y014382D02*
X012978Y014382D01*
X012978Y014283D02*
X019476Y014283D01*
X019405Y014185D02*
X012978Y014185D01*
X012978Y014086D02*
X019307Y014086D01*
X019208Y013988D02*
X012978Y013988D01*
X012978Y013889D02*
X019110Y013889D01*
X019011Y013791D02*
X012978Y013791D01*
X012978Y013692D02*
X018913Y013692D01*
X018814Y013594D02*
X012978Y013594D01*
X012978Y013495D02*
X018587Y013495D01*
X018447Y013396D02*
X012978Y013396D01*
X012978Y013298D02*
X018386Y013298D01*
X018356Y013199D02*
X012978Y013199D01*
X012978Y013101D02*
X017887Y013101D01*
X018126Y012852D02*
X012826Y012852D01*
X012776Y012802D01*
X012758Y012821D01*
X012758Y014752D01*
X012158Y015352D01*
X011126Y015352D01*
X010636Y015367D02*
X010616Y015367D01*
X010616Y015269D02*
X010636Y015269D01*
X010636Y015170D02*
X010616Y015170D01*
X010616Y015072D02*
X010636Y015072D01*
X010636Y014973D02*
X010616Y014973D01*
X010591Y014875D02*
X010661Y014875D01*
X010702Y014776D02*
X010550Y014776D01*
X010258Y014552D02*
X012058Y014552D01*
X012458Y014152D01*
X012458Y012552D01*
X012558Y012452D01*
X013326Y012452D01*
X017926Y012452D01*
X018676Y011702D01*
X019001Y011820D02*
X019460Y011820D01*
X019359Y011721D02*
X019021Y011721D01*
X019017Y011623D02*
X019258Y011623D01*
X019157Y011524D02*
X018976Y011524D01*
X019028Y011426D02*
X019056Y011426D01*
X018726Y011252D02*
X018326Y011252D01*
X017826Y011752D01*
X013226Y011752D01*
X012926Y011452D01*
X012658Y011452D01*
X012258Y011852D01*
X012258Y014052D01*
X011958Y014352D01*
X009558Y014352D01*
X009158Y014752D01*
X009158Y015252D01*
X009126Y015352D01*
X009616Y015367D02*
X009636Y015367D01*
X009636Y015269D02*
X009616Y015269D01*
X009616Y015170D02*
X009636Y015170D01*
X009636Y015072D02*
X009616Y015072D01*
X009616Y014973D02*
X009636Y014973D01*
X009661Y014875D02*
X009591Y014875D01*
X009550Y014776D02*
X009702Y014776D01*
X009788Y014677D02*
X009544Y014677D01*
X009642Y014579D02*
X009920Y014579D01*
X010126Y014684D02*
X010258Y014552D01*
X010126Y014684D02*
X010126Y015352D01*
X010616Y015466D02*
X010636Y015466D01*
X010636Y015564D02*
X010616Y015564D01*
X010616Y015663D02*
X010636Y015663D01*
X010636Y015761D02*
X010616Y015761D01*
X010579Y015860D02*
X010674Y015860D01*
X010720Y015959D02*
X010533Y015959D01*
X010434Y016057D02*
X010818Y016057D01*
X011013Y016156D02*
X010240Y016156D01*
X010013Y016156D02*
X009240Y016156D01*
X009434Y016057D02*
X009818Y016057D01*
X009720Y015959D02*
X009533Y015959D01*
X009579Y015860D02*
X009674Y015860D01*
X009636Y015761D02*
X009616Y015761D01*
X009616Y015663D02*
X009636Y015663D01*
X009636Y015564D02*
X009616Y015564D01*
X009616Y015466D02*
X009636Y015466D01*
X008636Y015466D02*
X008616Y015466D01*
X008616Y015564D02*
X008636Y015564D01*
X008636Y015663D02*
X008616Y015663D01*
X008616Y015761D02*
X008636Y015761D01*
X008674Y015860D02*
X008579Y015860D01*
X008533Y015959D02*
X008720Y015959D01*
X008818Y016057D02*
X008434Y016057D01*
X008240Y016156D02*
X009013Y016156D01*
X008013Y016156D02*
X005298Y016156D01*
X005257Y016254D02*
X025358Y016254D01*
X025318Y016156D02*
X011240Y016156D01*
X011434Y016057D02*
X025277Y016057D01*
X025427Y016353D02*
X005189Y016353D01*
X005236Y016305D02*
X005011Y016530D01*
X004717Y016652D01*
X004399Y016652D01*
X004105Y016530D01*
X003880Y016305D01*
X003758Y016011D01*
X003758Y015693D01*
X003880Y015399D01*
X004105Y015174D01*
X004399Y015052D01*
X004717Y015052D01*
X005011Y015174D01*
X005236Y015399D01*
X005358Y015693D01*
X005358Y016011D01*
X005236Y016305D01*
X005090Y016451D02*
X025526Y016451D01*
X025652Y016550D02*
X004964Y016550D01*
X004726Y016648D02*
X025889Y016648D01*
X026226Y016648D02*
X032389Y016648D01*
X032399Y016652D02*
X032105Y016530D01*
X031880Y016305D01*
X031758Y016011D01*
X031758Y015693D01*
X031880Y015399D01*
X032105Y015174D01*
X032399Y015052D01*
X032717Y015052D01*
X033011Y015174D01*
X033236Y015399D01*
X033358Y015693D01*
X033358Y016011D01*
X033236Y016305D01*
X033011Y016530D01*
X032717Y016652D01*
X032399Y016652D01*
X032152Y016550D02*
X026464Y016550D01*
X026590Y016451D02*
X032026Y016451D01*
X031927Y016353D02*
X026689Y016353D01*
X026757Y016254D02*
X031858Y016254D01*
X031818Y016156D02*
X026798Y016156D01*
X026839Y016057D02*
X031777Y016057D01*
X031758Y015959D02*
X026858Y015959D01*
X026858Y015860D02*
X031758Y015860D01*
X031758Y015761D02*
X026858Y015761D01*
X026845Y015663D02*
X031770Y015663D01*
X031811Y015564D02*
X026804Y015564D01*
X026764Y015466D02*
X031852Y015466D01*
X031911Y015367D02*
X026704Y015367D01*
X026606Y015269D02*
X032010Y015269D01*
X032114Y015170D02*
X026501Y015170D01*
X026263Y015072D02*
X032352Y015072D01*
X032763Y015072D02*
X033415Y015072D01*
X033415Y015170D02*
X033001Y015170D01*
X033106Y015269D02*
X033415Y015269D01*
X033415Y015367D02*
X033204Y015367D01*
X033264Y015466D02*
X033415Y015466D01*
X033415Y015564D02*
X033304Y015564D01*
X033345Y015663D02*
X033415Y015663D01*
X033415Y015761D02*
X033358Y015761D01*
X033358Y015860D02*
X033415Y015860D01*
X033415Y015959D02*
X033358Y015959D01*
X033339Y016057D02*
X033415Y016057D01*
X033415Y016156D02*
X033298Y016156D01*
X033257Y016254D02*
X033415Y016254D01*
X033415Y016353D02*
X033189Y016353D01*
X033090Y016451D02*
X033415Y016451D01*
X033415Y016550D02*
X032964Y016550D01*
X032726Y016648D02*
X033415Y016648D01*
X033415Y014776D02*
X030107Y014776D01*
X030221Y014677D02*
X033415Y014677D01*
X033415Y014579D02*
X030291Y014579D01*
X030332Y014480D02*
X033415Y014480D01*
X033415Y014382D02*
X030345Y014382D01*
X030345Y014283D02*
X033415Y014283D01*
X033415Y014185D02*
X030315Y014185D01*
X030275Y014086D02*
X033415Y014086D01*
X033415Y013988D02*
X030182Y013988D01*
X030012Y013889D02*
X033415Y013889D01*
X033415Y013791D02*
X030019Y013791D01*
X030037Y013785D02*
X029967Y013808D01*
X029906Y013817D01*
X029906Y013401D01*
X029809Y013401D01*
X029809Y013304D01*
X029393Y013304D01*
X029402Y013243D01*
X029425Y013173D01*
X029459Y013108D01*
X029502Y013048D01*
X029554Y012996D01*
X029613Y012953D01*
X029679Y012920D01*
X029748Y012897D01*
X029809Y012887D01*
X029809Y013304D01*
X029906Y013304D01*
X029906Y012887D01*
X029967Y012897D01*
X030037Y012920D01*
X030102Y012953D01*
X030162Y012996D01*
X030214Y013048D01*
X030257Y013108D01*
X030290Y013173D01*
X030313Y013243D01*
X030323Y013304D01*
X029906Y013304D01*
X029906Y013401D01*
X030323Y013401D01*
X030313Y013462D01*
X030290Y013531D01*
X030257Y013597D01*
X030214Y013656D01*
X030162Y013708D01*
X030102Y013752D01*
X030037Y013785D01*
X029906Y013791D02*
X029809Y013791D01*
X029809Y013817D02*
X029748Y013808D01*
X029679Y013785D01*
X029613Y013752D01*
X029554Y013708D01*
X029502Y013656D01*
X029459Y013597D01*
X029425Y013531D01*
X029402Y013462D01*
X029393Y013401D01*
X029809Y013401D01*
X029809Y013817D01*
X029696Y013791D02*
X029072Y013791D01*
X029012Y013889D02*
X029704Y013889D01*
X029534Y013988D02*
X029182Y013988D01*
X029275Y014086D02*
X029441Y014086D01*
X029537Y013692D02*
X029206Y013692D01*
X029285Y013594D02*
X029457Y013594D01*
X029413Y013495D02*
X029326Y013495D01*
X029345Y013396D02*
X029809Y013396D01*
X029906Y013396D02*
X033415Y013396D01*
X033415Y013298D02*
X030322Y013298D01*
X030299Y013199D02*
X033415Y013199D01*
X033415Y013101D02*
X030252Y013101D01*
X030168Y013002D02*
X033415Y013002D01*
X033415Y012904D02*
X029988Y012904D01*
X029906Y012904D02*
X029809Y012904D01*
X029728Y012904D02*
X029047Y012904D01*
X029037Y012805D02*
X029741Y012805D01*
X029748Y012808D02*
X029679Y012785D01*
X029613Y012752D01*
X029554Y012708D01*
X029502Y012656D01*
X029459Y012597D01*
X029425Y012531D01*
X029402Y012462D01*
X029393Y012401D01*
X029809Y012401D01*
X029809Y012304D01*
X029393Y012304D01*
X029402Y012243D01*
X029425Y012173D01*
X029459Y012108D01*
X029502Y012048D01*
X029554Y011996D01*
X029613Y011953D01*
X029679Y011920D01*
X029748Y011897D01*
X029809Y011887D01*
X029809Y012304D01*
X029906Y012304D01*
X029906Y011887D01*
X029967Y011897D01*
X030037Y011920D01*
X030102Y011953D01*
X030162Y011996D01*
X030214Y012048D01*
X030257Y012108D01*
X030290Y012173D01*
X030313Y012243D01*
X030323Y012304D01*
X029906Y012304D01*
X029906Y012401D01*
X029809Y012401D01*
X029809Y012817D01*
X029748Y012808D01*
X029809Y012805D02*
X029906Y012805D01*
X029906Y012817D02*
X029906Y012401D01*
X030323Y012401D01*
X030313Y012462D01*
X030290Y012531D01*
X030257Y012597D01*
X030214Y012656D01*
X030162Y012708D01*
X030102Y012752D01*
X030037Y012785D01*
X029967Y012808D01*
X029906Y012817D01*
X029975Y012805D02*
X033415Y012805D01*
X033415Y012707D02*
X030164Y012707D01*
X030249Y012608D02*
X033415Y012608D01*
X033415Y012510D02*
X030298Y012510D01*
X030321Y012411D02*
X033415Y012411D01*
X033415Y012312D02*
X029906Y012312D01*
X029809Y012312D02*
X029345Y012312D01*
X029345Y012411D02*
X029394Y012411D01*
X029418Y012510D02*
X029320Y012510D01*
X029279Y012608D02*
X029467Y012608D01*
X029552Y012707D02*
X029192Y012707D01*
X029809Y012707D02*
X029906Y012707D01*
X029906Y012608D02*
X029809Y012608D01*
X029809Y012510D02*
X029906Y012510D01*
X029906Y012411D02*
X029809Y012411D01*
X029809Y012214D02*
X029906Y012214D01*
X029906Y012115D02*
X029809Y012115D01*
X029809Y012017D02*
X029906Y012017D01*
X029906Y011918D02*
X029809Y011918D01*
X029809Y011817D02*
X029748Y011808D01*
X029679Y011785D01*
X029613Y011752D01*
X029554Y011708D01*
X029502Y011656D01*
X029459Y011597D01*
X029425Y011531D01*
X029402Y011462D01*
X029393Y011401D01*
X029809Y011401D01*
X029809Y011304D01*
X029393Y011304D01*
X029402Y011243D01*
X029425Y011173D01*
X029459Y011108D01*
X029502Y011048D01*
X029554Y010996D01*
X029613Y010953D01*
X029679Y010920D01*
X029748Y010897D01*
X029809Y010887D01*
X029809Y011304D01*
X029906Y011304D01*
X029906Y010887D01*
X029967Y010897D01*
X030037Y010920D01*
X030102Y010953D01*
X030162Y010996D01*
X030214Y011048D01*
X030257Y011108D01*
X030290Y011173D01*
X030313Y011243D01*
X030323Y011304D01*
X029906Y011304D01*
X029906Y011401D01*
X029809Y011401D01*
X029809Y011817D01*
X029809Y011721D02*
X029906Y011721D01*
X029906Y011817D02*
X029906Y011401D01*
X030323Y011401D01*
X030313Y011462D01*
X030290Y011531D01*
X030257Y011597D01*
X030214Y011656D01*
X030162Y011708D01*
X030102Y011752D01*
X030037Y011785D01*
X029967Y011808D01*
X029906Y011817D01*
X030033Y011918D02*
X033415Y011918D01*
X033415Y011820D02*
X029001Y011820D01*
X028955Y011839D02*
X028761Y011839D01*
X028582Y011765D01*
X028445Y011628D01*
X028371Y011449D01*
X028371Y011255D01*
X028445Y011076D01*
X028582Y010940D01*
X028761Y010865D01*
X028955Y010865D01*
X029134Y010940D01*
X029271Y011076D01*
X029345Y011255D01*
X029345Y011449D01*
X029271Y011628D01*
X029134Y011765D01*
X028955Y011839D01*
X029082Y011918D02*
X029683Y011918D01*
X029533Y012017D02*
X029211Y012017D01*
X029287Y012115D02*
X029455Y012115D01*
X029412Y012214D02*
X029327Y012214D01*
X028714Y011820D02*
X027650Y011820D01*
X027552Y011721D02*
X028538Y011721D01*
X028443Y011623D02*
X027453Y011623D01*
X027355Y011524D02*
X028402Y011524D01*
X028371Y011426D02*
X027346Y011426D01*
X027346Y011327D02*
X028371Y011327D01*
X028382Y011228D02*
X027346Y011228D01*
X027346Y011130D02*
X028423Y011130D01*
X028490Y011031D02*
X027346Y011031D01*
X027346Y010933D02*
X028598Y010933D01*
X028582Y010765D02*
X028445Y010628D01*
X028371Y010449D01*
X028371Y010255D01*
X028445Y010076D01*
X028582Y009940D01*
X028761Y009865D01*
X028955Y009865D01*
X029134Y009940D01*
X029271Y010076D01*
X029345Y010255D01*
X029345Y010449D01*
X029271Y010628D01*
X029134Y010765D01*
X028955Y010839D01*
X028761Y010839D01*
X028582Y010765D01*
X028553Y010736D02*
X027346Y010736D01*
X027346Y010834D02*
X028749Y010834D01*
X028966Y010834D02*
X033415Y010834D01*
X033415Y010736D02*
X030124Y010736D01*
X030102Y010752D02*
X030037Y010785D01*
X029967Y010808D01*
X029906Y010817D01*
X029906Y010401D01*
X029809Y010401D01*
X029809Y010304D01*
X029393Y010304D01*
X029402Y010243D01*
X029339Y010243D01*
X029402Y010243D02*
X029425Y010173D01*
X029459Y010108D01*
X029502Y010048D01*
X029554Y009996D01*
X029613Y009953D01*
X029679Y009920D01*
X029748Y009897D01*
X029809Y009887D01*
X029809Y010304D01*
X029906Y010304D01*
X029906Y009887D01*
X029967Y009897D01*
X030037Y009920D01*
X030102Y009953D01*
X030162Y009996D01*
X030214Y010048D01*
X030257Y010108D01*
X030290Y010173D01*
X030313Y010243D01*
X033415Y010243D01*
X033415Y010144D02*
X030276Y010144D01*
X030313Y010243D02*
X030323Y010304D01*
X029906Y010304D01*
X029906Y010401D01*
X030323Y010401D01*
X030313Y010462D01*
X030290Y010531D01*
X030257Y010597D01*
X030214Y010656D01*
X030162Y010708D01*
X030102Y010752D01*
X030228Y010637D02*
X033415Y010637D01*
X033415Y010539D02*
X030287Y010539D01*
X030317Y010440D02*
X033415Y010440D01*
X033415Y010342D02*
X029906Y010342D01*
X029809Y010342D02*
X029345Y010342D01*
X029393Y010401D02*
X029809Y010401D01*
X029809Y010817D01*
X029748Y010808D01*
X029679Y010785D01*
X029613Y010752D01*
X029554Y010708D01*
X029502Y010656D01*
X029459Y010597D01*
X029425Y010531D01*
X029402Y010462D01*
X029393Y010401D01*
X029399Y010440D02*
X029345Y010440D01*
X029308Y010539D02*
X029429Y010539D01*
X029488Y010637D02*
X029261Y010637D01*
X029163Y010736D02*
X029591Y010736D01*
X029653Y010933D02*
X029117Y010933D01*
X029225Y011031D02*
X029518Y011031D01*
X029447Y011130D02*
X029293Y011130D01*
X029333Y011228D02*
X029407Y011228D01*
X029345Y011327D02*
X029809Y011327D01*
X029906Y011327D02*
X033415Y011327D01*
X033415Y011228D02*
X030308Y011228D01*
X030268Y011130D02*
X033415Y011130D01*
X033415Y011031D02*
X030197Y011031D01*
X030063Y010933D02*
X033415Y010933D01*
X033415Y011426D02*
X030319Y011426D01*
X030293Y011524D02*
X033415Y011524D01*
X033415Y011623D02*
X030238Y011623D01*
X030144Y011721D02*
X033415Y011721D01*
X033415Y012017D02*
X030183Y012017D01*
X030261Y012115D02*
X033415Y012115D01*
X033415Y012214D02*
X030304Y012214D01*
X029906Y011623D02*
X029809Y011623D01*
X029809Y011524D02*
X029906Y011524D01*
X029906Y011426D02*
X029809Y011426D01*
X029809Y011228D02*
X029906Y011228D01*
X029906Y011130D02*
X029809Y011130D01*
X029809Y011031D02*
X029906Y011031D01*
X029906Y010933D02*
X029809Y010933D01*
X029809Y010736D02*
X029906Y010736D01*
X029906Y010637D02*
X029809Y010637D01*
X029809Y010539D02*
X029906Y010539D01*
X029906Y010440D02*
X029809Y010440D01*
X029809Y010243D02*
X029906Y010243D01*
X029906Y010144D02*
X029809Y010144D01*
X029809Y010046D02*
X029906Y010046D01*
X029906Y009947D02*
X029809Y009947D01*
X029809Y009817D02*
X029748Y009808D01*
X029679Y009785D01*
X029613Y009752D01*
X029554Y009708D01*
X029502Y009656D01*
X029459Y009597D01*
X029425Y009531D01*
X029402Y009462D01*
X029393Y009401D01*
X029809Y009401D01*
X029809Y009304D01*
X029393Y009304D01*
X029402Y009243D01*
X029425Y009173D01*
X029459Y009108D01*
X029502Y009048D01*
X029554Y008996D01*
X029613Y008953D01*
X029679Y008920D01*
X029748Y008897D01*
X029809Y008887D01*
X029809Y009304D01*
X029906Y009304D01*
X029906Y008887D01*
X029967Y008897D01*
X030037Y008920D01*
X030102Y008953D01*
X030162Y008996D01*
X030214Y009048D01*
X030257Y009108D01*
X030290Y009173D01*
X030313Y009243D01*
X030323Y009304D01*
X029906Y009304D01*
X029906Y009401D01*
X029809Y009401D01*
X029809Y009817D01*
X029809Y009750D02*
X029906Y009750D01*
X029906Y009817D02*
X029906Y009401D01*
X030323Y009401D01*
X030313Y009462D01*
X030290Y009531D01*
X030257Y009597D01*
X030214Y009656D01*
X030162Y009708D01*
X030102Y009752D01*
X030037Y009785D01*
X029967Y009808D01*
X029906Y009817D01*
X029906Y009652D02*
X029809Y009652D01*
X029809Y009553D02*
X029906Y009553D01*
X029906Y009455D02*
X029809Y009455D01*
X029809Y009356D02*
X029345Y009356D01*
X029345Y009449D02*
X029271Y009628D01*
X029134Y009765D01*
X028955Y009839D01*
X028761Y009839D01*
X028582Y009765D01*
X028445Y009628D01*
X028371Y009449D01*
X028371Y009255D01*
X028445Y009076D01*
X028582Y008940D01*
X028761Y008865D01*
X028955Y008865D01*
X029134Y008940D01*
X029271Y009076D01*
X029345Y009255D01*
X029345Y009449D01*
X029342Y009455D02*
X029401Y009455D01*
X029436Y009553D02*
X029301Y009553D01*
X029247Y009652D02*
X029498Y009652D01*
X029611Y009750D02*
X029148Y009750D01*
X029141Y009947D02*
X029624Y009947D01*
X029504Y010046D02*
X029240Y010046D01*
X029299Y010144D02*
X029440Y010144D01*
X030091Y009947D02*
X033415Y009947D01*
X033415Y009849D02*
X027346Y009849D01*
X027346Y009947D02*
X028574Y009947D01*
X028476Y010046D02*
X027346Y010046D01*
X027346Y010144D02*
X028417Y010144D01*
X028376Y010243D02*
X027346Y010243D01*
X027346Y010342D02*
X028371Y010342D01*
X028371Y010440D02*
X027346Y010440D01*
X027346Y010539D02*
X028408Y010539D01*
X028454Y010637D02*
X027346Y010637D01*
X026096Y010736D02*
X025865Y010736D01*
X025824Y010834D02*
X026096Y010834D01*
X026096Y010933D02*
X025734Y010933D01*
X025692Y011130D02*
X026096Y011130D01*
X026096Y011228D02*
X025748Y011228D01*
X025771Y011327D02*
X026096Y011327D01*
X026096Y011426D02*
X025769Y011426D01*
X025729Y011524D02*
X026096Y011524D01*
X026096Y011623D02*
X025644Y011623D01*
X025209Y011623D02*
X025044Y011623D01*
X025125Y011820D02*
X026096Y011820D01*
X026096Y011918D02*
X025280Y011918D01*
X025344Y012017D02*
X026096Y012017D01*
X026096Y012115D02*
X025371Y012115D01*
X025371Y012214D02*
X026096Y012214D01*
X026096Y012312D02*
X025333Y012312D01*
X025026Y012152D02*
X024626Y012152D01*
X024426Y011952D01*
X024426Y006752D01*
X023226Y005552D01*
X014326Y005552D01*
X013426Y006452D01*
X013426Y006952D01*
X013110Y007090D02*
X012877Y007090D01*
X012942Y006991D02*
X013081Y006991D01*
X013081Y006893D02*
X012971Y006893D01*
X012996Y006794D02*
X013118Y006794D01*
X013094Y006695D02*
X013195Y006695D01*
X013193Y006597D02*
X013206Y006597D01*
X012626Y006852D02*
X014126Y005352D01*
X023326Y005352D01*
X024826Y006852D01*
X024826Y011352D01*
X024646Y011721D02*
X026096Y011721D01*
X025426Y011352D02*
X025026Y010952D01*
X025026Y006752D01*
X023426Y005152D01*
X013726Y005152D01*
X012026Y006852D01*
X012277Y007090D02*
X012376Y007090D01*
X012536Y007188D02*
X012117Y007188D01*
X011936Y007188D02*
X011878Y007188D01*
X011438Y007484D02*
X011438Y005261D01*
X014191Y006498D02*
X015269Y006498D01*
X015368Y006400D02*
X014290Y006400D01*
X014388Y006301D02*
X015466Y006301D01*
X015171Y006597D02*
X014171Y006597D01*
X014140Y006695D02*
X015072Y006695D01*
X014487Y006203D02*
X022650Y006203D01*
X022540Y006104D02*
X014585Y006104D01*
X014684Y006006D02*
X022496Y006006D01*
X023002Y006203D02*
X023048Y006203D01*
X023561Y006597D02*
X023960Y006597D01*
X024058Y006695D02*
X023520Y006695D01*
X023422Y006794D02*
X024157Y006794D01*
X024206Y006893D02*
X021378Y006893D01*
X021476Y006991D02*
X024206Y006991D01*
X024206Y007090D02*
X021575Y007090D01*
X021673Y007188D02*
X024206Y007188D01*
X024206Y007287D02*
X021772Y007287D01*
X021870Y007385D02*
X024206Y007385D01*
X024206Y007484D02*
X021946Y007484D01*
X021946Y007582D02*
X024206Y007582D01*
X024206Y007681D02*
X021946Y007681D01*
X021946Y007779D02*
X024206Y007779D01*
X024206Y007878D02*
X021946Y007878D01*
X021946Y007977D02*
X024206Y007977D01*
X024206Y008075D02*
X021946Y008075D01*
X021946Y008174D02*
X024206Y008174D01*
X024206Y008272D02*
X021946Y008272D01*
X021946Y008371D02*
X024206Y008371D01*
X024206Y008469D02*
X022831Y008469D01*
X022923Y008568D02*
X024206Y008568D01*
X024206Y008666D02*
X022964Y008666D01*
X022971Y008765D02*
X024206Y008765D01*
X024206Y008863D02*
X023063Y008863D01*
X023161Y008962D02*
X024206Y008962D01*
X024206Y009061D02*
X023260Y009061D01*
X023356Y009159D02*
X024206Y009159D01*
X024206Y009258D02*
X023356Y009258D01*
X023356Y009356D02*
X024206Y009356D01*
X024206Y009455D02*
X023356Y009455D01*
X023356Y009553D02*
X024206Y009553D01*
X024206Y009652D02*
X023356Y009652D01*
X023356Y009750D02*
X024206Y009750D01*
X024206Y009849D02*
X023356Y009849D01*
X023356Y009947D02*
X024206Y009947D01*
X024206Y010046D02*
X023356Y010046D01*
X023356Y010144D02*
X024206Y010144D01*
X024206Y010243D02*
X023356Y010243D01*
X023356Y010342D02*
X024206Y010342D01*
X024206Y010440D02*
X023356Y010440D01*
X023356Y010539D02*
X024206Y010539D01*
X024206Y010637D02*
X023356Y010637D01*
X023356Y010736D02*
X024206Y010736D01*
X024206Y010834D02*
X023356Y010834D01*
X023356Y010933D02*
X024206Y010933D01*
X024206Y011031D02*
X023356Y011031D01*
X023356Y011130D02*
X024206Y011130D01*
X024206Y011228D02*
X023356Y011228D01*
X023356Y011327D02*
X024206Y011327D01*
X024206Y011426D02*
X023356Y011426D01*
X023356Y011524D02*
X024206Y011524D01*
X024206Y011623D02*
X023356Y011623D01*
X023420Y011721D02*
X024206Y011721D01*
X024206Y011820D02*
X023519Y011820D01*
X023618Y011918D02*
X024206Y011918D01*
X024206Y012017D02*
X023716Y012017D01*
X023815Y012115D02*
X024278Y012115D01*
X024377Y012214D02*
X023913Y012214D01*
X024012Y012312D02*
X024475Y012312D01*
X024703Y011918D02*
X024772Y011918D01*
X024646Y011820D02*
X024928Y011820D01*
X023558Y012510D02*
X020746Y012510D01*
X020747Y012608D02*
X023657Y012608D01*
X023755Y012707D02*
X020746Y012707D01*
X020746Y012805D02*
X026254Y012805D01*
X026352Y012904D02*
X020766Y012904D01*
X020838Y013002D02*
X026451Y013002D01*
X026550Y013101D02*
X020871Y013101D01*
X020871Y013199D02*
X026648Y013199D01*
X026747Y013298D02*
X020839Y013298D01*
X020770Y013396D02*
X026845Y013396D01*
X026944Y013495D02*
X020600Y013495D01*
X020452Y013495D02*
X019422Y013495D01*
X019324Y013396D02*
X020283Y013396D01*
X020213Y013298D02*
X019225Y013298D01*
X019127Y013199D02*
X020181Y013199D01*
X020181Y013101D02*
X019096Y013101D01*
X019065Y013002D02*
X020215Y013002D01*
X020287Y012904D02*
X019001Y012904D01*
X018855Y012805D02*
X020306Y012805D01*
X020306Y012707D02*
X018439Y012707D01*
X018471Y012805D02*
X018597Y012805D01*
X018370Y012608D02*
X020269Y012608D01*
X020167Y012510D02*
X018200Y012510D01*
X018279Y012411D02*
X020066Y012411D01*
X019965Y012312D02*
X018377Y012312D01*
X018476Y012214D02*
X019864Y012214D01*
X019763Y012115D02*
X018574Y012115D01*
X018818Y012017D02*
X019662Y012017D01*
X019561Y011918D02*
X018948Y011918D01*
X019686Y011426D02*
X022896Y011426D01*
X022896Y011524D02*
X019787Y011524D01*
X019888Y011623D02*
X022896Y011623D01*
X022896Y011721D02*
X019989Y011721D01*
X020090Y011820D02*
X022896Y011820D01*
X022967Y011918D02*
X020191Y011918D01*
X020292Y012017D02*
X023066Y012017D01*
X023164Y012115D02*
X020393Y012115D01*
X020494Y012214D02*
X023263Y012214D01*
X023361Y012312D02*
X020595Y012312D01*
X020696Y012411D02*
X023460Y012411D01*
X022896Y011327D02*
X019585Y011327D01*
X019484Y011228D02*
X022896Y011228D01*
X022896Y011130D02*
X019383Y011130D01*
X019282Y011031D02*
X022896Y011031D01*
X022896Y010933D02*
X019181Y010933D01*
X019080Y010834D02*
X022896Y010834D01*
X022896Y010736D02*
X018979Y010736D01*
X018878Y010637D02*
X022896Y010637D01*
X025318Y010933D02*
X025319Y010933D01*
X025553Y011031D02*
X026096Y011031D01*
X027126Y011621D02*
X027126Y006452D01*
X026888Y006203D02*
X025088Y006203D01*
X025186Y006301D02*
X026815Y006301D01*
X026781Y006400D02*
X025285Y006400D01*
X025384Y006498D02*
X026781Y006498D01*
X026813Y006597D02*
X025446Y006597D01*
X025446Y006695D02*
X026882Y006695D01*
X026906Y006794D02*
X025446Y006794D01*
X025446Y006893D02*
X026906Y006893D01*
X026906Y006991D02*
X025446Y006991D01*
X025446Y007090D02*
X026906Y007090D01*
X026906Y007188D02*
X025446Y007188D01*
X025446Y007287D02*
X026906Y007287D01*
X026906Y007385D02*
X025446Y007385D01*
X025446Y007484D02*
X026906Y007484D01*
X026906Y007582D02*
X025446Y007582D01*
X025446Y007681D02*
X026906Y007681D01*
X026906Y007779D02*
X025446Y007779D01*
X027346Y007779D02*
X028617Y007779D01*
X028582Y007765D02*
X028445Y007628D01*
X028371Y007449D01*
X028371Y007255D01*
X028445Y007076D01*
X028582Y006940D01*
X028761Y006865D01*
X028955Y006865D01*
X029134Y006940D01*
X029271Y007076D01*
X029345Y007255D01*
X029345Y007449D01*
X029271Y007628D01*
X029134Y007765D01*
X028955Y007839D01*
X028761Y007839D01*
X028582Y007765D01*
X028498Y007681D02*
X027346Y007681D01*
X027346Y007582D02*
X028426Y007582D01*
X028385Y007484D02*
X027346Y007484D01*
X027346Y007385D02*
X028371Y007385D01*
X028371Y007287D02*
X027346Y007287D01*
X027346Y007188D02*
X028399Y007188D01*
X028440Y007090D02*
X027346Y007090D01*
X027346Y006991D02*
X028530Y006991D01*
X028695Y006893D02*
X027346Y006893D01*
X027346Y006794D02*
X028652Y006794D01*
X028512Y006695D02*
X027371Y006695D01*
X027440Y006597D02*
X028432Y006597D01*
X028391Y006498D02*
X027471Y006498D01*
X027471Y006400D02*
X028371Y006400D01*
X028371Y006301D02*
X027437Y006301D01*
X027365Y006203D02*
X028393Y006203D01*
X028299Y006104D02*
X024989Y006104D01*
X024891Y006006D02*
X028200Y006006D01*
X028102Y005907D02*
X024792Y005907D01*
X024694Y005809D02*
X028003Y005809D01*
X027904Y005710D02*
X024856Y005710D01*
X024626Y005452D02*
X027958Y005452D01*
X028858Y006352D01*
X029323Y006203D02*
X029415Y006203D01*
X029425Y006173D02*
X029459Y006108D01*
X029502Y006048D01*
X029554Y005996D01*
X029613Y005953D01*
X029679Y005920D01*
X029748Y005897D01*
X029809Y005887D01*
X029809Y006304D01*
X029393Y006304D01*
X029402Y006243D01*
X029425Y006173D01*
X029461Y006104D02*
X029282Y006104D01*
X029200Y006006D02*
X029544Y006006D01*
X029717Y005907D02*
X029055Y005907D01*
X029028Y005809D02*
X029755Y005809D01*
X029748Y005808D02*
X029679Y005785D01*
X029613Y005752D01*
X029554Y005708D01*
X029502Y005656D01*
X029459Y005597D01*
X029425Y005531D01*
X029402Y005462D01*
X029393Y005401D01*
X029809Y005401D01*
X029809Y005304D01*
X029393Y005304D01*
X029402Y005243D01*
X029425Y005173D01*
X029459Y005108D01*
X029502Y005048D01*
X029554Y004996D01*
X029613Y004953D01*
X029679Y004920D01*
X029748Y004897D01*
X029809Y004887D01*
X029809Y005304D01*
X029906Y005304D01*
X029906Y004887D01*
X029967Y004897D01*
X030037Y004920D01*
X030102Y004953D01*
X030162Y004996D01*
X030214Y005048D01*
X030257Y005108D01*
X030290Y005173D01*
X030313Y005243D01*
X030323Y005304D01*
X029906Y005304D01*
X029906Y005401D01*
X029809Y005401D01*
X029809Y005817D01*
X029748Y005808D01*
X029809Y005809D02*
X029906Y005809D01*
X029906Y005817D02*
X029906Y005401D01*
X030323Y005401D01*
X030313Y005462D01*
X030290Y005531D01*
X030257Y005597D01*
X030214Y005656D01*
X030162Y005708D01*
X030102Y005752D01*
X030037Y005785D01*
X029967Y005808D01*
X029906Y005817D01*
X029961Y005809D02*
X033415Y005809D01*
X033415Y005907D02*
X029998Y005907D01*
X029967Y005897D02*
X030037Y005920D01*
X030102Y005953D01*
X030162Y005996D01*
X030214Y006048D01*
X030257Y006108D01*
X030290Y006173D01*
X030313Y006243D01*
X030323Y006304D01*
X029906Y006304D01*
X029906Y005887D01*
X029967Y005897D01*
X029906Y005907D02*
X029809Y005907D01*
X029809Y006006D02*
X029906Y006006D01*
X029906Y006104D02*
X029809Y006104D01*
X029809Y006203D02*
X029906Y006203D01*
X029906Y006301D02*
X029809Y006301D01*
X029809Y006304D02*
X029906Y006304D01*
X029906Y006401D01*
X029809Y006401D01*
X029809Y006304D01*
X029809Y006400D02*
X029345Y006400D01*
X029393Y006401D02*
X029809Y006401D01*
X029809Y006817D01*
X029748Y006808D01*
X029679Y006785D01*
X029613Y006752D01*
X029554Y006708D01*
X029502Y006656D01*
X029459Y006597D01*
X029283Y006597D01*
X029324Y006498D02*
X029414Y006498D01*
X029425Y006531D02*
X029402Y006462D01*
X029393Y006401D01*
X029393Y006301D02*
X029345Y006301D01*
X029425Y006531D02*
X029459Y006597D01*
X029541Y006695D02*
X029203Y006695D01*
X029064Y006794D02*
X029707Y006794D01*
X029809Y006794D02*
X029906Y006794D01*
X029906Y006817D02*
X029906Y006401D01*
X030323Y006401D01*
X030313Y006462D01*
X030290Y006531D01*
X030257Y006597D01*
X033415Y006597D01*
X033415Y006695D02*
X030175Y006695D01*
X030162Y006708D02*
X030214Y006656D01*
X030257Y006597D01*
X030301Y006498D02*
X033415Y006498D01*
X033415Y006400D02*
X029906Y006400D01*
X029906Y006498D02*
X029809Y006498D01*
X029809Y006597D02*
X029906Y006597D01*
X029906Y006695D02*
X029809Y006695D01*
X029906Y006817D02*
X029967Y006808D01*
X030037Y006785D01*
X030102Y006752D01*
X030162Y006708D01*
X030009Y006794D02*
X033415Y006794D01*
X033415Y006893D02*
X029940Y006893D01*
X029967Y006897D02*
X030037Y006920D01*
X030102Y006953D01*
X030162Y006996D01*
X030214Y007048D01*
X030257Y007108D01*
X030290Y007173D01*
X030313Y007243D01*
X030323Y007304D01*
X029906Y007304D01*
X029906Y006887D01*
X029967Y006897D01*
X029906Y006893D02*
X029809Y006893D01*
X029809Y006887D02*
X029809Y007304D01*
X029393Y007304D01*
X029402Y007243D01*
X029425Y007173D01*
X029459Y007108D01*
X029502Y007048D01*
X029554Y006996D01*
X029613Y006953D01*
X029679Y006920D01*
X029748Y006897D01*
X029809Y006887D01*
X029776Y006893D02*
X029020Y006893D01*
X029185Y006991D02*
X029561Y006991D01*
X029472Y007090D02*
X029276Y007090D01*
X029317Y007188D02*
X029420Y007188D01*
X029395Y007287D02*
X029345Y007287D01*
X029345Y007385D02*
X029809Y007385D01*
X029809Y007401D02*
X029809Y007304D01*
X029906Y007304D01*
X029906Y007401D01*
X029809Y007401D01*
X029393Y007401D01*
X029402Y007462D01*
X029425Y007531D01*
X029459Y007597D01*
X029502Y007656D01*
X029554Y007708D01*
X029613Y007752D01*
X029679Y007785D01*
X029748Y007808D01*
X029809Y007817D01*
X029809Y007401D01*
X029809Y007484D02*
X029906Y007484D01*
X029906Y007401D02*
X029906Y007817D01*
X029967Y007808D01*
X030037Y007785D01*
X030102Y007752D01*
X030162Y007708D01*
X030214Y007656D01*
X030257Y007597D01*
X030290Y007531D01*
X030313Y007462D01*
X030323Y007401D01*
X029906Y007401D01*
X029906Y007385D02*
X033415Y007385D01*
X033415Y007287D02*
X030320Y007287D01*
X030295Y007188D02*
X033415Y007188D01*
X033415Y007090D02*
X030244Y007090D01*
X030155Y006991D02*
X033415Y006991D01*
X033415Y007484D02*
X030306Y007484D01*
X030264Y007582D02*
X033415Y007582D01*
X033415Y007681D02*
X030189Y007681D01*
X030048Y007779D02*
X033415Y007779D01*
X033415Y007878D02*
X028985Y007878D01*
X028955Y007865D02*
X029134Y007940D01*
X029271Y008076D01*
X029345Y008255D01*
X029345Y008449D01*
X029271Y008628D01*
X029134Y008765D01*
X029639Y008765D01*
X029613Y008752D02*
X029554Y008708D01*
X029502Y008656D01*
X029459Y008597D01*
X029425Y008531D01*
X029402Y008462D01*
X029393Y008401D01*
X029809Y008401D01*
X029809Y008304D01*
X029393Y008304D01*
X029402Y008243D01*
X029425Y008173D01*
X029459Y008108D01*
X029502Y008048D01*
X029554Y007996D01*
X029613Y007953D01*
X029679Y007920D01*
X029748Y007897D01*
X029809Y007887D01*
X029809Y008304D01*
X029906Y008304D01*
X029906Y007887D01*
X029967Y007897D01*
X030037Y007920D01*
X030102Y007953D01*
X030162Y007996D01*
X030214Y008048D01*
X030257Y008108D01*
X030290Y008173D01*
X030313Y008243D01*
X030323Y008304D01*
X029906Y008304D01*
X029906Y008401D01*
X029809Y008401D01*
X029809Y008817D01*
X029748Y008808D01*
X029679Y008785D01*
X029613Y008752D01*
X029512Y008666D02*
X029232Y008666D01*
X029295Y008568D02*
X029444Y008568D01*
X029405Y008469D02*
X029336Y008469D01*
X029345Y008371D02*
X029809Y008371D01*
X029906Y008371D02*
X033415Y008371D01*
X033415Y008469D02*
X030311Y008469D01*
X030313Y008462D02*
X030290Y008531D01*
X030257Y008597D01*
X030214Y008656D01*
X030162Y008708D01*
X030102Y008752D01*
X030037Y008785D01*
X029967Y008808D01*
X029906Y008817D01*
X029906Y008401D01*
X030323Y008401D01*
X030313Y008462D01*
X030272Y008568D02*
X033415Y008568D01*
X033415Y008666D02*
X030204Y008666D01*
X030076Y008765D02*
X033415Y008765D01*
X033415Y008863D02*
X027346Y008863D01*
X027346Y008765D02*
X028582Y008765D01*
X028445Y008628D01*
X028371Y008449D01*
X028371Y008255D01*
X028445Y008076D01*
X028582Y007940D01*
X028761Y007865D01*
X028955Y007865D01*
X029099Y007779D02*
X029668Y007779D01*
X029809Y007779D02*
X029906Y007779D01*
X029906Y007681D02*
X029809Y007681D01*
X029809Y007582D02*
X029906Y007582D01*
X029526Y007681D02*
X029218Y007681D01*
X029289Y007582D02*
X029451Y007582D01*
X029410Y007484D02*
X029330Y007484D01*
X029171Y007977D02*
X029581Y007977D01*
X029482Y008075D02*
X029269Y008075D01*
X029311Y008174D02*
X029425Y008174D01*
X029398Y008272D02*
X029345Y008272D01*
X029809Y008272D02*
X029906Y008272D01*
X029906Y008174D02*
X029809Y008174D01*
X029809Y008075D02*
X029906Y008075D01*
X029906Y007977D02*
X029809Y007977D01*
X030135Y007977D02*
X033415Y007977D01*
X033415Y008075D02*
X030233Y008075D01*
X030291Y008174D02*
X033415Y008174D01*
X033415Y008272D02*
X030318Y008272D01*
X029906Y008469D02*
X029809Y008469D01*
X029809Y008568D02*
X029906Y008568D01*
X029906Y008666D02*
X029809Y008666D01*
X029809Y008765D02*
X029906Y008765D01*
X029906Y008962D02*
X029809Y008962D01*
X029809Y009061D02*
X029906Y009061D01*
X029906Y009159D02*
X029809Y009159D01*
X029809Y009258D02*
X029906Y009258D01*
X029906Y009356D02*
X033415Y009356D01*
X033415Y009258D02*
X030315Y009258D01*
X030283Y009159D02*
X033415Y009159D01*
X033415Y009061D02*
X030223Y009061D01*
X030115Y008962D02*
X033415Y008962D01*
X033415Y009455D02*
X030314Y009455D01*
X030279Y009553D02*
X033415Y009553D01*
X033415Y009652D02*
X030217Y009652D01*
X030104Y009750D02*
X033415Y009750D01*
X033415Y010046D02*
X030212Y010046D01*
X029400Y009258D02*
X029345Y009258D01*
X029305Y009159D02*
X029432Y009159D01*
X029493Y009061D02*
X029255Y009061D01*
X029156Y008962D02*
X029601Y008962D01*
X029134Y008765D02*
X028955Y008839D01*
X028761Y008839D01*
X028582Y008765D01*
X028483Y008666D02*
X027346Y008666D01*
X027346Y008568D02*
X028420Y008568D01*
X028379Y008469D02*
X027346Y008469D01*
X027346Y008371D02*
X028371Y008371D01*
X028371Y008272D02*
X027346Y008272D01*
X027346Y008174D02*
X028405Y008174D01*
X028446Y008075D02*
X027346Y008075D01*
X027346Y007977D02*
X028545Y007977D01*
X028731Y007878D02*
X027346Y007878D01*
X027346Y008962D02*
X028560Y008962D01*
X028461Y009061D02*
X027346Y009061D01*
X027346Y009159D02*
X028411Y009159D01*
X028371Y009258D02*
X027346Y009258D01*
X027346Y009356D02*
X028371Y009356D01*
X028373Y009455D02*
X027346Y009455D01*
X027346Y009553D02*
X028414Y009553D01*
X028469Y009652D02*
X027346Y009652D01*
X027346Y009750D02*
X028567Y009750D01*
X029345Y011426D02*
X029397Y011426D01*
X029423Y011524D02*
X029314Y011524D01*
X029273Y011623D02*
X029477Y011623D01*
X029571Y011721D02*
X029177Y011721D01*
X028633Y011918D02*
X027749Y011918D01*
X027848Y012017D02*
X028505Y012017D01*
X028429Y012115D02*
X027946Y012115D01*
X028045Y012214D02*
X028388Y012214D01*
X028371Y012312D02*
X028143Y012312D01*
X028242Y012411D02*
X028371Y012411D01*
X028396Y012510D02*
X028340Y012510D01*
X028636Y012805D02*
X028679Y012805D01*
X029196Y013002D02*
X029548Y013002D01*
X029463Y013101D02*
X029281Y013101D01*
X029321Y013199D02*
X029417Y013199D01*
X029394Y013298D02*
X029345Y013298D01*
X029809Y013298D02*
X029906Y013298D01*
X029906Y013199D02*
X029809Y013199D01*
X029809Y013101D02*
X029906Y013101D01*
X029906Y013002D02*
X029809Y013002D01*
X029809Y013495D02*
X029906Y013495D01*
X029906Y013594D02*
X029809Y013594D01*
X029809Y013692D02*
X029906Y013692D01*
X030178Y013692D02*
X033415Y013692D01*
X033415Y013594D02*
X030259Y013594D01*
X030302Y013495D02*
X033415Y013495D01*
X029609Y014776D02*
X029107Y014776D01*
X029221Y014677D02*
X029494Y014677D01*
X027732Y014283D02*
X019976Y014283D01*
X019976Y014185D02*
X027634Y014185D01*
X027535Y014086D02*
X019969Y014086D01*
X019915Y013988D02*
X027436Y013988D01*
X027338Y013889D02*
X019817Y013889D01*
X019718Y013791D02*
X027239Y013791D01*
X027141Y013692D02*
X019620Y013692D01*
X019521Y013594D02*
X027042Y013594D01*
X020526Y013152D02*
X020526Y012552D01*
X018476Y010552D01*
X013876Y010552D01*
X013050Y011130D02*
X018138Y011130D01*
X018039Y011228D02*
X013190Y011228D01*
X013248Y011327D02*
X017940Y011327D01*
X017842Y011426D02*
X013271Y011426D01*
X013309Y011524D02*
X017743Y011524D01*
X018459Y011031D02*
X008208Y011031D01*
X008208Y010933D02*
X018551Y010933D01*
X018450Y010834D02*
X008208Y010834D01*
X007708Y010834D02*
X005933Y010834D01*
X005952Y010815D02*
X005854Y010913D01*
X005727Y010966D01*
X005589Y010966D01*
X005461Y010913D01*
X005363Y010815D01*
X005311Y010687D01*
X005311Y010549D01*
X005363Y010422D01*
X005461Y010324D01*
X005589Y010271D01*
X005727Y010271D01*
X005854Y010324D01*
X005952Y010422D01*
X006005Y010549D01*
X006005Y010687D01*
X005952Y010815D01*
X005985Y010736D02*
X007708Y010736D01*
X007708Y010637D02*
X006005Y010637D01*
X006000Y010539D02*
X007708Y010539D01*
X007708Y010440D02*
X005960Y010440D01*
X005872Y010342D02*
X007708Y010342D01*
X007708Y010243D02*
X003696Y010243D01*
X003696Y010144D02*
X007708Y010144D01*
X007708Y010046D02*
X003696Y010046D01*
X003696Y009947D02*
X007708Y009947D01*
X007708Y009849D02*
X003696Y009849D01*
X003696Y009750D02*
X007708Y009750D01*
X007708Y009652D02*
X003696Y009652D01*
X003696Y009553D02*
X007708Y009553D01*
X007708Y009455D02*
X003696Y009455D01*
X003696Y009356D02*
X007708Y009356D01*
X007708Y009258D02*
X003696Y009258D01*
X003696Y010342D02*
X005444Y010342D01*
X005356Y010440D02*
X003696Y010440D01*
X003696Y010539D02*
X005315Y010539D01*
X005311Y010637D02*
X003696Y010637D01*
X003696Y010736D02*
X005331Y010736D01*
X005383Y010834D02*
X003696Y010834D01*
X003696Y010933D02*
X005510Y010933D01*
X005806Y010933D02*
X007708Y010933D01*
X007708Y011031D02*
X003696Y011031D01*
X003696Y011130D02*
X007708Y011130D01*
X007708Y011228D02*
X003696Y011228D01*
X003696Y011327D02*
X007708Y011327D01*
X007708Y011426D02*
X003696Y011426D01*
X003696Y011524D02*
X007708Y011524D01*
X007708Y011623D02*
X003696Y011623D01*
X003696Y011721D02*
X007708Y011721D01*
X007708Y011820D02*
X003696Y011820D01*
X003696Y011918D02*
X007708Y011918D01*
X007708Y012017D02*
X003696Y012017D01*
X003696Y012115D02*
X007708Y012115D01*
X007708Y012214D02*
X003696Y012214D01*
X003696Y012312D02*
X007708Y012312D01*
X007708Y012411D02*
X003696Y012411D01*
X003696Y012510D02*
X007708Y012510D01*
X007708Y012608D02*
X003696Y012608D01*
X003696Y012707D02*
X007708Y012707D01*
X007708Y012805D02*
X003696Y012805D01*
X003696Y012904D02*
X007708Y012904D01*
X007708Y013002D02*
X003696Y013002D01*
X003696Y013101D02*
X007708Y013101D01*
X007708Y013199D02*
X003696Y013199D01*
X003696Y013298D02*
X007708Y013298D01*
X007708Y013396D02*
X003696Y013396D01*
X003696Y013495D02*
X007708Y013495D01*
X007708Y013594D02*
X003696Y013594D01*
X003696Y013692D02*
X007708Y013692D01*
X007708Y013791D02*
X003696Y013791D01*
X003696Y013889D02*
X007708Y013889D01*
X007708Y013988D02*
X003696Y013988D01*
X003696Y014086D02*
X007708Y014086D01*
X007708Y014185D02*
X003696Y014185D01*
X003696Y014283D02*
X007708Y014283D01*
X007708Y014382D02*
X003696Y014382D01*
X003696Y014480D02*
X007708Y014480D01*
X007708Y014579D02*
X007252Y014579D01*
X007236Y014574D02*
X007307Y014597D01*
X007373Y014630D01*
X007432Y014674D01*
X007485Y014726D01*
X007528Y014786D01*
X007562Y014852D01*
X007585Y014922D01*
X007596Y014995D01*
X007596Y015302D01*
X007176Y015302D01*
X007176Y014564D01*
X007236Y014574D01*
X007176Y014579D02*
X007076Y014579D01*
X007076Y014564D02*
X007076Y015302D01*
X006656Y015302D01*
X006656Y014995D01*
X006668Y014922D01*
X006691Y014852D01*
X006724Y014786D01*
X006768Y014726D01*
X006820Y014674D01*
X006880Y014630D01*
X006946Y014597D01*
X007016Y014574D01*
X007076Y014564D01*
X007001Y014579D02*
X003696Y014579D01*
X003696Y014677D02*
X006816Y014677D01*
X006732Y014776D02*
X003696Y014776D01*
X003696Y014875D02*
X006683Y014875D01*
X006660Y014973D02*
X003696Y014973D01*
X003696Y015072D02*
X004352Y015072D01*
X004114Y015170D02*
X003696Y015170D01*
X003696Y015269D02*
X004010Y015269D01*
X003911Y015367D02*
X003696Y015367D01*
X003696Y015466D02*
X003852Y015466D01*
X003811Y015564D02*
X003696Y015564D01*
X003696Y015663D02*
X003770Y015663D01*
X003758Y015761D02*
X003696Y015761D01*
X003696Y015860D02*
X003758Y015860D01*
X003758Y015959D02*
X003696Y015959D01*
X003696Y016057D02*
X003777Y016057D01*
X003818Y016156D02*
X003696Y016156D01*
X003696Y016254D02*
X003858Y016254D01*
X003927Y016353D02*
X003696Y016353D01*
X003696Y016451D02*
X004026Y016451D01*
X004152Y016550D02*
X003696Y016550D01*
X003696Y016648D02*
X004389Y016648D01*
X005339Y016057D02*
X006856Y016057D01*
X006880Y016074D02*
X006820Y016031D01*
X006768Y015978D01*
X006724Y015919D01*
X006691Y015853D01*
X006668Y015782D01*
X006656Y015709D01*
X006656Y015402D01*
X007076Y015402D01*
X007076Y015302D01*
X007176Y015302D01*
X007176Y015402D01*
X007076Y015402D01*
X007076Y016140D01*
X007016Y016131D01*
X006946Y016108D01*
X006880Y016074D01*
X006753Y015959D02*
X005358Y015959D01*
X005358Y015860D02*
X006694Y015860D01*
X006665Y015761D02*
X005358Y015761D01*
X005345Y015663D02*
X006656Y015663D01*
X006656Y015564D02*
X005304Y015564D01*
X005264Y015466D02*
X006656Y015466D01*
X006656Y015269D02*
X005106Y015269D01*
X005204Y015367D02*
X007076Y015367D01*
X007076Y015269D02*
X007176Y015269D01*
X007176Y015367D02*
X007636Y015367D01*
X007596Y015402D02*
X007596Y015709D01*
X007585Y015782D01*
X007562Y015853D01*
X007528Y015919D01*
X007485Y015978D01*
X007432Y016031D01*
X007373Y016074D01*
X007307Y016108D01*
X007236Y016131D01*
X007176Y016140D01*
X007176Y015402D01*
X007596Y015402D01*
X007596Y015466D02*
X007636Y015466D01*
X007636Y015564D02*
X007596Y015564D01*
X007596Y015663D02*
X007636Y015663D01*
X007636Y015761D02*
X007588Y015761D01*
X007558Y015860D02*
X007674Y015860D01*
X007720Y015959D02*
X007499Y015959D01*
X007396Y016057D02*
X007818Y016057D01*
X007176Y016057D02*
X007076Y016057D01*
X007076Y015959D02*
X007176Y015959D01*
X007176Y015860D02*
X007076Y015860D01*
X007076Y015761D02*
X007176Y015761D01*
X007176Y015663D02*
X007076Y015663D01*
X007076Y015564D02*
X007176Y015564D01*
X007176Y015466D02*
X007076Y015466D01*
X007076Y015170D02*
X007176Y015170D01*
X007176Y015072D02*
X007076Y015072D01*
X007076Y014973D02*
X007176Y014973D01*
X007176Y014875D02*
X007076Y014875D01*
X007076Y014776D02*
X007176Y014776D01*
X007176Y014677D02*
X007076Y014677D01*
X007436Y014677D02*
X007708Y014677D01*
X007702Y014776D02*
X007521Y014776D01*
X007569Y014875D02*
X007661Y014875D01*
X007636Y014973D02*
X007593Y014973D01*
X007596Y015072D02*
X007636Y015072D01*
X007636Y015170D02*
X007596Y015170D01*
X007596Y015269D02*
X007636Y015269D01*
X008616Y015269D02*
X008636Y015269D01*
X008636Y015367D02*
X008616Y015367D01*
X008616Y015170D02*
X008636Y015170D01*
X008636Y015072D02*
X008616Y015072D01*
X008616Y014973D02*
X008636Y014973D01*
X008661Y014875D02*
X008591Y014875D01*
X008550Y014776D02*
X008702Y014776D01*
X008788Y014677D02*
X008464Y014677D01*
X008312Y014579D02*
X008940Y014579D01*
X009119Y014480D02*
X008208Y014480D01*
X008208Y014382D02*
X009217Y014382D01*
X009316Y014283D02*
X008208Y014283D01*
X008208Y014185D02*
X009414Y014185D01*
X008208Y014086D02*
X011913Y014086D01*
X012011Y013988D02*
X008208Y013988D01*
X008208Y013889D02*
X012038Y013889D01*
X012038Y013791D02*
X008208Y013791D01*
X008208Y013692D02*
X012038Y013692D01*
X012038Y013594D02*
X008208Y013594D01*
X008208Y013495D02*
X012038Y013495D01*
X012038Y013396D02*
X008208Y013396D01*
X008208Y013298D02*
X012038Y013298D01*
X012038Y013199D02*
X008208Y013199D01*
X008208Y013101D02*
X012038Y013101D01*
X012038Y013002D02*
X008208Y013002D01*
X008208Y012904D02*
X012038Y012904D01*
X012038Y012805D02*
X008208Y012805D01*
X008208Y012707D02*
X012038Y012707D01*
X012038Y012608D02*
X008208Y012608D01*
X008208Y012510D02*
X012038Y012510D01*
X012038Y012411D02*
X008359Y012411D01*
X008521Y012312D02*
X012038Y012312D01*
X012038Y012214D02*
X008591Y012214D01*
X008628Y012115D02*
X012038Y012115D01*
X012038Y012017D02*
X008628Y012017D01*
X008603Y011918D02*
X012038Y011918D01*
X012038Y011820D02*
X008548Y011820D01*
X008425Y011721D02*
X012078Y011721D01*
X012176Y011623D02*
X008208Y011623D01*
X008208Y011524D02*
X012275Y011524D01*
X012373Y011426D02*
X008208Y011426D01*
X008208Y011327D02*
X012472Y011327D01*
X012662Y011228D02*
X008208Y011228D01*
X008208Y011130D02*
X012803Y011130D01*
X011536Y008075D02*
X008208Y008075D01*
X008208Y007977D02*
X011394Y007977D01*
X011336Y007878D02*
X008208Y007878D01*
X008208Y007779D02*
X011313Y007779D01*
X011314Y007681D02*
X008208Y007681D01*
X008208Y007582D02*
X011355Y007582D01*
X012717Y007188D02*
X013174Y007188D01*
X014727Y007977D02*
X014799Y007977D01*
X015720Y007287D02*
X021150Y007287D01*
X021051Y007188D02*
X015878Y007188D01*
X021279Y006794D02*
X023030Y006794D01*
X024201Y005316D02*
X024309Y005316D01*
X024373Y005217D02*
X024102Y005217D01*
X024004Y005119D02*
X024530Y005119D01*
X024723Y005119D02*
X028428Y005119D01*
X028445Y005076D02*
X028371Y005255D01*
X028371Y005449D01*
X028445Y005628D01*
X028582Y005765D01*
X028761Y005839D01*
X028955Y005839D01*
X029134Y005765D01*
X029271Y005628D01*
X029345Y005449D01*
X029345Y005255D01*
X029271Y005076D01*
X029134Y004940D01*
X028955Y004865D01*
X028761Y004865D01*
X028582Y004940D01*
X028445Y005076D01*
X028501Y005020D02*
X023905Y005020D01*
X023807Y004922D02*
X028625Y004922D01*
X029090Y004922D02*
X029674Y004922D01*
X029809Y004922D02*
X029906Y004922D01*
X029906Y005020D02*
X029809Y005020D01*
X029809Y005119D02*
X029906Y005119D01*
X029906Y005217D02*
X029809Y005217D01*
X029809Y005316D02*
X029345Y005316D01*
X029345Y005414D02*
X029395Y005414D01*
X029419Y005513D02*
X029318Y005513D01*
X029277Y005611D02*
X029469Y005611D01*
X029556Y005710D02*
X029189Y005710D01*
X029809Y005710D02*
X029906Y005710D01*
X029906Y005611D02*
X029809Y005611D01*
X029809Y005513D02*
X029906Y005513D01*
X029906Y005414D02*
X029809Y005414D01*
X029906Y005316D02*
X033415Y005316D01*
X033415Y005414D02*
X030321Y005414D01*
X030296Y005513D02*
X033415Y005513D01*
X033415Y005611D02*
X030246Y005611D01*
X030160Y005710D02*
X033415Y005710D01*
X033415Y006006D02*
X030171Y006006D01*
X030255Y006104D02*
X033415Y006104D01*
X033415Y006203D02*
X030300Y006203D01*
X030322Y006301D02*
X033415Y006301D01*
X033415Y005217D02*
X030305Y005217D01*
X030263Y005119D02*
X033415Y005119D01*
X033415Y005020D02*
X030186Y005020D01*
X030041Y004922D02*
X033415Y004922D01*
X033415Y004823D02*
X023708Y004823D01*
X024879Y005217D02*
X028387Y005217D01*
X028371Y005316D02*
X028132Y005316D01*
X028231Y005414D02*
X028371Y005414D01*
X028397Y005513D02*
X028330Y005513D01*
X028428Y005611D02*
X028438Y005611D01*
X028527Y005710D02*
X028527Y005710D01*
X028625Y005809D02*
X028687Y005809D01*
X029329Y005217D02*
X029411Y005217D01*
X029453Y005119D02*
X029288Y005119D01*
X029214Y005020D02*
X029530Y005020D01*
X031808Y004133D02*
X026807Y004133D01*
X026848Y004035D02*
X031768Y004035D01*
X031758Y003936D02*
X026858Y003936D01*
X026858Y004011D02*
X026736Y004305D01*
X026511Y004530D01*
X026217Y004652D01*
X025899Y004652D01*
X025605Y004530D01*
X025380Y004305D01*
X025258Y004011D01*
X025258Y003693D01*
X025380Y003399D01*
X025605Y003174D01*
X025899Y003052D01*
X026217Y003052D01*
X026511Y003174D01*
X026736Y003399D01*
X026858Y003693D01*
X026858Y004011D01*
X026858Y003838D02*
X031758Y003838D01*
X031758Y003739D02*
X026858Y003739D01*
X026836Y003641D02*
X031780Y003641D01*
X031820Y003542D02*
X026795Y003542D01*
X026754Y003444D02*
X031861Y003444D01*
X031934Y003345D02*
X026682Y003345D01*
X026583Y003246D02*
X032032Y003246D01*
X032168Y003148D02*
X026448Y003148D01*
X025668Y003148D02*
X004948Y003148D01*
X005011Y003174D02*
X005236Y003399D01*
X005358Y003693D01*
X005358Y004011D01*
X005236Y004305D01*
X005011Y004530D01*
X004717Y004652D01*
X004399Y004652D01*
X004105Y004530D01*
X003880Y004305D01*
X003758Y004011D01*
X003758Y003693D01*
X003880Y003399D01*
X004105Y003174D01*
X004399Y003052D01*
X004717Y003052D01*
X005011Y003174D01*
X005083Y003246D02*
X025532Y003246D01*
X025434Y003345D02*
X005182Y003345D01*
X005254Y003444D02*
X025361Y003444D01*
X025320Y003542D02*
X005295Y003542D01*
X005336Y003641D02*
X025280Y003641D01*
X025258Y003739D02*
X005358Y003739D01*
X005358Y003838D02*
X025258Y003838D01*
X025258Y003936D02*
X005358Y003936D01*
X005348Y004035D02*
X025268Y004035D01*
X025308Y004133D02*
X005307Y004133D01*
X005266Y004232D02*
X025349Y004232D01*
X025405Y004330D02*
X005211Y004330D01*
X005112Y004429D02*
X025503Y004429D01*
X025602Y004528D02*
X005014Y004528D01*
X004780Y004626D02*
X025836Y004626D01*
X026280Y004626D02*
X032336Y004626D01*
X032102Y004528D02*
X026514Y004528D01*
X026612Y004429D02*
X032003Y004429D01*
X031905Y004330D02*
X026711Y004330D01*
X026766Y004232D02*
X031849Y004232D01*
X029906Y006991D02*
X029809Y006991D01*
X029809Y007090D02*
X029906Y007090D01*
X029906Y007188D02*
X029809Y007188D01*
X029809Y007287D02*
X029906Y007287D01*
X006656Y015072D02*
X004763Y015072D01*
X005001Y015170D02*
X006656Y015170D01*
X004336Y004626D02*
X003696Y004626D01*
X003696Y004528D02*
X004102Y004528D01*
X004003Y004429D02*
X003696Y004429D01*
X003696Y004330D02*
X003905Y004330D01*
X003849Y004232D02*
X003696Y004232D01*
X003696Y004133D02*
X003808Y004133D01*
X003768Y004035D02*
X003696Y004035D01*
X003696Y003936D02*
X003758Y003936D01*
X003758Y003838D02*
X003696Y003838D01*
X003696Y003739D02*
X003758Y003739D01*
X003780Y003641D02*
X003696Y003641D01*
X003696Y003542D02*
X003820Y003542D01*
X003861Y003444D02*
X003696Y003444D01*
X003696Y003345D02*
X003934Y003345D01*
X004032Y003246D02*
X003696Y003246D01*
X003696Y003148D02*
X004168Y003148D01*
D13*
X006026Y003352D03*
X007526Y003352D03*
X009026Y003352D03*
X010526Y003352D03*
X011376Y004302D03*
X011976Y004552D03*
X013026Y004352D03*
X014026Y004352D03*
X013826Y006552D03*
X013426Y006952D03*
X012626Y006852D03*
X012026Y006852D03*
X011658Y007752D03*
X012476Y008252D03*
X012226Y008652D03*
X012926Y008052D03*
X013176Y008752D03*
X013626Y008752D03*
X014126Y008702D03*
X014776Y008652D03*
X015526Y008652D03*
X014426Y008152D03*
X016026Y007652D03*
X015626Y006952D03*
X020126Y008952D03*
X021376Y008452D03*
X021026Y007952D03*
X021026Y007452D03*
X022526Y007452D03*
X023226Y006502D03*
X022826Y005902D03*
X021026Y006152D03*
X024626Y005452D03*
X024926Y005852D03*
X027126Y006452D03*
X025576Y007802D03*
X026326Y008152D03*
X022626Y008752D03*
X022126Y008952D03*
X021326Y009852D03*
X020126Y009752D03*
X020726Y011052D03*
X018726Y011252D03*
X018676Y011702D03*
X018126Y012852D03*
X020526Y013152D03*
X022526Y012752D03*
X025026Y012152D03*
X024826Y011352D03*
X025426Y011352D03*
X025526Y010652D03*
X026726Y010352D03*
X031876Y009902D03*
X031876Y008402D03*
X031876Y006902D03*
X031876Y005402D03*
X031376Y003902D03*
X029876Y003902D03*
X028376Y003902D03*
X027376Y004902D03*
X015626Y011052D03*
X014976Y011402D03*
X014326Y011052D03*
X013526Y011352D03*
X012926Y011452D03*
X012276Y011052D03*
X013226Y010652D03*
X012176Y010502D03*
X012276Y009452D03*
X009826Y008302D03*
X008876Y008352D03*
X009976Y007502D03*
X008926Y007152D03*
X006876Y007252D03*
X005026Y006352D03*
X004026Y006352D03*
X004026Y005352D03*
X005026Y005352D03*
X005776Y009452D03*
X007476Y009352D03*
X008476Y009352D03*
X004026Y009852D03*
X004026Y012852D03*
X005026Y012852D03*
X005026Y014352D03*
X004026Y014352D03*
X005876Y016402D03*
X007376Y016402D03*
X008876Y016402D03*
X010376Y016402D03*
X011876Y016402D03*
X014376Y016402D03*
X015876Y016402D03*
X017376Y016402D03*
X020876Y016402D03*
X022376Y016402D03*
X023876Y016402D03*
X027376Y016402D03*
X027376Y015402D03*
X029376Y015402D03*
X029376Y016402D03*
X031376Y016402D03*
X031376Y015402D03*
X031876Y014402D03*
X031876Y012902D03*
X031876Y011402D03*
X014726Y013652D03*
X012776Y012802D03*
X013326Y012452D03*
X010076Y012052D03*
D14*
X008258Y012052D03*
X015126Y008152D03*
X016876Y008302D03*
X007958Y007252D03*
X007958Y005452D03*
X018726Y013152D03*
X019726Y015652D03*
D15*
X019726Y014152D01*
X018726Y013152D01*
X016876Y008302D02*
X016726Y008152D01*
X015126Y008152D01*
X007958Y007252D02*
X007958Y005452D01*
X007958Y007252D02*
X007958Y012052D01*
X008258Y012052D01*
X007958Y012052D02*
X007958Y015184D01*
X008126Y015352D01*
D16*
X022626Y008752D02*
X023126Y009252D01*
X023126Y011752D01*
X023926Y012552D01*
X026326Y012552D01*
X028126Y014352D01*
X028858Y014352D01*
X029858Y014352D01*
X028858Y013352D02*
X027126Y011621D01*
X026326Y012552D02*
X026326Y008152D01*
M02*
