<?xml version="1.0" standalone="no"?>
<!DOCTYPE svg PUBLIC "-//W3C//DTD SVG 1.1//EN" "http://www.w3.org/Graphics/SVG/1.1/DTD/svg11.dtd">
<svg width="104.0mm" height="157.830208068072mm"
 viewBox="0 0 104.0 157.830208068072"
 xmlns="http://www.w3.org/2000/svg" version="1.1"
 xmlns:xlink="http://www.w3.org/1999/xlink">
<desc>Output from Flights of Ideas SVG Sketchup Plugin</desc>

<g id="text_annotations" font-size="10" stroke="rgb(255,0,0)" stroke-width="0">
</g>
  <path id="face0-cut"
 style="fill:none;stroke:rgb(0,0,255);stroke-width:0;stroke-miterlimit:4;stroke-dasharray:none;stroke-linejoin:round;stroke-linecap:round"
        d="M 10.8002527162835,10.0430629264368 L 10.5765647372925,10.0 L 10.2990481002554,10.0454553112388 L 10.1973717461686,10.1064611236909 L 10.1172268553001,10.1985679385696 L 10.0227276556194,10.4162749555555 L 10.0,10.7440316734355 L 10.0,11.2823182538953 L 11.0430797736909,11.2823182538952 L 11.0430797736909,10.827765141507 L 11.0287254648786,10.4378064187739 L 10.9497767664112,10.1818212449553 L 10.8848833286558,10.0992839692848 L 10.8002527162835,10.0430629264368 "
  />
  <path id="face1-cut"
 style="fill:none;stroke:rgb(0,0,255);stroke-width:0;stroke-miterlimit:4;stroke-dasharray:none;stroke-linejoin:round;stroke-linecap:round"
        d="M 10.8531842300287,21.2966725627075 L 10.6698677445722,21.2823182538953 L 10.4985131831258,21.2978687551085 L 10.3624462975096,21.3445202587483 L 10.2503032599138,21.4246651496168 L 10.1507202425287,21.5406958125159 L 10.0735658326628,21.6878274778415 L 10.0287086176245,21.8564906063856 L 10.0,22.3469294908045 L 10.0,22.7321034439335 L 11.3158116411239,22.7321034439335 L 11.3158116411239,22.1938168634737 L 11.2990649475096,21.8170162571519 L 11.2225086338442,21.5717968149424 L 11.1217294240581,21.4264594382183 L 11.0012130396551,21.3397354891442 L 10.8531842300287,21.2966725627075 "
  />
  <path id="face2-cut"
 style="fill:none;stroke:rgb(0,0,255);stroke-width:0;stroke-miterlimit:4;stroke-dasharray:none;stroke-linejoin:round;stroke-linecap:round"
        d="M 11.6794541310345,33.2823519484035 L 10.0,32.7321034439335 L 10.0,33.8302080680715 L 11.6794541310345,33.2823519484035 "
  />
  <path id="face3-cut"
 style="fill:none;stroke:rgb(0,0,255);stroke-width:0;stroke-miterlimit:4;stroke-dasharray:none;stroke-linejoin:round;stroke-linecap:round"
        d="M 10.0342205545048,47.3081032991913 L 10.0,47.8302080680715 L 10.0,143.830208068072 L 10.0342205545048,144.352312836952 L 10.1362966948437,144.865484248482 L 10.3044818699548,145.360941797532 L 10.5358983848622,145.830208068072 L 10.8265866388351,146.265253784106 L 11.1715728752538,146.658635192818 L 11.5649542839651,147.003621429236 L 12.0,147.294309683209 L 12.4692662705396,147.525726198117 L 12.9647238195899,147.693911373228 L 13.4778952311198,147.795987513567 L 14.0,147.830208068072 L 90.0000000000001,147.830208068072 L 90.5221047688802,147.795987513567 L 91.0352761804101,147.693911373228 L 91.5307337294604,147.525726198117 L 92.0,147.294309683209 L 92.4350457160349,147.003621429236 L 92.8284271247462,146.658635192818 L 93.1734133611649,146.265253784106 L 93.4641016151378,145.830208068072 L 93.6955181300452,145.360941797532 L 93.8637033051563,144.865484248482 L 93.9657794454953,144.352312836952 L 94.0,143.830208068071 L 94.0,47.8302080680705 L 93.9657794454952,47.3081032991913 L 93.8637033051563,46.7949318876594 L 93.6955181300452,46.2994743386102 L 93.4641016151378,45.8302080680715 L 93.1734133611649,45.3951623520364 L 92.8284271247462,45.001780943325 L 92.4350457160349,44.6567947069066 L 92.0,44.3661064529336 L 91.5307337294604,44.1346899380266 L 91.0352761804101,43.9665047629154 L 90.5221047688802,43.8644286225761 L 90.0,43.8302080680718 L 14.0,43.8302080680715 L 13.4778952311198,43.8644286225762 L 12.9647238195899,43.9665047629152 L 12.4692662705396,44.1346899380263 L 12.0,44.3661064529337 L 11.5649542839651,44.6567947069065 L 11.1715728752538,45.0017809433253 L 10.8265866388351,45.3951623520366 L 10.5358983848622,45.8302080680715 L 10.3044818699548,46.2994743386111 L 10.1362966948437,46.7949318876614 L 10.0342205545048,47.3081032991913 M 27.5565760046441,85.4992821621809 L 23.9943150344015,86.7002593328067 L 23.9943150344015,86.2217823723979 L 24.9895471120515,85.8988104241221 L 24.9895471120515,84.5375434717594 L 23.9943150344015,84.2145715234836 L 23.9943150344014,83.7145630998565 L 27.5565760046441,84.9155402704822 L 27.5565760046441,85.4992821621809 M 78.3788058086719,94.6558729049677 L 78.8341476429631,94.6381579863854 L 79.2764883996679,94.6556448158872 L 79.6595259954534,94.7081053043929 L 79.9832604303194,94.7955394519026 L 80.2476917042657,94.917947258416 L 80.4531239360665,95.0777616741248 L 80.5998612444957,95.2774156492205 L 80.6879036295531,95.5169091837033 L 80.7172510912389,95.7962422775731 L 80.6888920155684,96.0726102133968 L 80.6038147885569,96.3105071243163 L 80.4620194102043,96.5099330103317 L 80.2635058805109,96.6708878714428 L 80.0037124178673,96.7948923015194 L 79.6780772406641,96.8834668944313 L 79.2866003489017,96.9366116501784 L 78.8292817425798,96.9543265687608 L 78.3829874418137,96.9368397392588 L 77.9978210146105,96.8843792507531 L 77.6737824609706,96.7969451032436 L 77.4108717808941,96.6745372967301 L 77.2075683805108,96.5147228810213 L 77.0623516659515,96.3150689059256 L 76.9752216372159,96.0755753714428 L 76.946178294304,95.7962422775731 L 76.9746894293616,95.5198743417493 L 77.060222834534,95.2819774308298 L 77.2027785098214,95.0825515448144 L 77.4023564552236,94.9215966837033 L 77.6629102148022,94.7975922536267 L 77.9883933326182,94.7090176607148 L 78.3788058086719,94.6558729049677 M 15.2291941214372,51.2322987561417 L 15.1426771280336,51.1811327488747 L 15.059543596332,51.1246352590714 L 14.9801216164021,51.0630292565127 L 14.9047246305141,50.9965578719457 L 14.8336501961257,50.9254834375574 L 14.7671788115587,50.8500864516694 L 14.7055728090001,50.7706644717394 L 14.6490753191968,50.6875309400379 L 14.5979093119298,50.6010139466342 L 14.5522767160544,50.5114549345756 L 14.5123576225788,50.4192073523669 L 14.4783095739278,50.3246352590714 L 14.4502669421942,50.2281118875352 L 14.4283403988341,50.1300181714086 L 14.4126164778968,50.0307412417743 L 14.4031572345148,49.9306728993184 L 14.4,49.8302080680715 L 14.4031572345148,49.7297432368246 L 14.4126164778968,49.6296748943686 L 14.4283403988341,49.5303979647343 L 14.4502669421942,49.4323042486077 L 14.4783095739278,49.3357808770715 L 14.5123576225788,49.241208783776 L 14.5522767160544,49.1489612015673 L 14.5979093119298,49.0594021895087 L 14.6490753191968,48.9728851961051 L 14.7055728090001,48.8897516644035 L 14.7671788115587,48.8103296844736 L 14.8336501961257,48.7349326985856 L 14.9047246305141,48.6638582641972 L 14.9801216164021,48.5973868796302 L 15.059543596332,48.5357808770716 L 15.1426771280336,48.4792833872682 L 15.2291941214372,48.4281173800013 L 15.3187531334959,48.3824847841258 L 15.4110007157045,48.3425656906503 L 15.5055728090001,48.3085176419992 L 15.6020961805362,48.2804750102657 L 15.7001898966628,48.2585484669055 L 15.7994668262971,48.2428245459683 L 15.8995351687531,48.2333653025862 L 16.0,48.2302080680715 L 16.1004648312469,48.2333653025862 L 16.2005331737029,48.2428245459683 L 16.2998101033372,48.2585484669055 L 16.3979038194638,48.2804750102657 L 16.4944271909999,48.3085176419992 L 16.5889992842955,48.3425656906503 L 16.6812468665041,48.3824847841258 L 16.7708058785627,48.4281173800013 L 16.8573228719664,48.4792833872682 L 16.940456403668,48.5357808770716 L 17.0198783835979,48.5973868796302 L 17.0952753694859,48.6638582641972 L 17.1663498038743,48.7349326985856 L 17.2328211884413,48.8103296844736 L 17.2944271909999,48.8897516644035 L 17.3509246808032,48.9728851961051 L 17.4020906880702,49.0594021895087 L 17.4477232839456,49.1489612015673 L 17.4876423774212,49.241208783776 L 17.5216904260722,49.3357808770716 L 17.5497330578058,49.4323042486077 L 17.5716596011659,49.5303979647343 L 17.5873835221032,49.6296748943686 L 17.5968427654852,49.7297432368246 L 17.6,49.8302080680715 L 17.5968427654852,49.9306728993184 L 17.5873835221032,50.0307412417743 L 17.5716596011659,50.1300181714086 L 17.5497330578058,50.2281118875352 L 17.5216904260722,50.3246352590714 L 17.4876423774212,50.4192073523669 L 17.4477232839456,50.5114549345756 L 17.4020906880702,50.6010139466342 L 17.3509246808032,50.6875309400379 L 17.2944271909999,50.7706644717394 L 17.2328211884413,50.8500864516694 L 17.1663498038743,50.9254834375574 L 17.0952753694859,50.9965578719457 L 17.0198783835979,51.0630292565127 L 16.940456403668,51.1246352590714 L 16.8573228719664,51.1811327488747 L 16.7708058785627,51.2322987561417 L 16.6812468665041,51.2779313520171 L 16.5889992842955,51.3178504454927 L 16.4944271909999,51.3518984941437 L 16.3979038194638,51.3799411258773 L 16.2998101033372,51.4018676692374 L 16.2005331737029,51.4175915901746 L 16.1004648312469,51.4270508335567 L 16.0,51.4302080680715 L 15.8995351687531,51.4270508335567 L 15.7994668262971,51.4175915901746 L 15.7001898966628,51.4018676692374 L 15.6020961805362,51.3799411258773 L 15.5055728090001,51.3518984941437 L 15.4110007157045,51.3178504454927 L 15.3187531334959,51.2779313520171 L 15.2291941214372,51.2322987561417 M 88.1004648312469,51.4270508335568 L 88.0,51.4302080680717 L 87.8995351687531,51.4270508335569 L 87.7994668262971,51.4175915901745 L 87.7001898966628,51.4018676692372 L 87.6020961805362,51.3799411258774 L 87.5055728090001,51.3518984941436 L 87.4110007157045,51.3178504454927 L 87.3187531334959,51.2779313520169 L 87.2291941214373,51.2322987561416 L 87.1426771280336,51.1811327488748 L 87.0595435963321,51.1246352590712 L 86.9801216164021,51.0630292565126 L 86.9047246305141,50.9965578719457 L 86.8336501961258,50.9254834375573 L 86.7671788115587,50.8500864516693 L 86.7055728090001,50.7706644717395 L 86.6490753191968,50.6875309400381 L 86.5979093119298,50.6010139466341 L 86.5522767160544,50.5114549345756 L 86.5123576225788,50.4192073523671 L 86.4783095739278,50.3246352590712 L 86.4502669421942,50.2281118875353 L 86.4283403988341,50.1300181714087 L 86.4126164778968,50.0307412417747 L 86.4031572345148,49.9306728993182 L 86.4,49.8302080680716 L 86.4031572345148,49.7297432368248 L 86.4126164778969,49.6296748943685 L 86.4283403988341,49.5303979647341 L 86.4502669421942,49.4323042486078 L 86.4783095739278,49.3357808770716 L 86.5123576225788,49.241208783776 L 86.5522767160544,49.1489612015677 L 86.5979093119298,49.0594021895086 L 86.6490753191968,48.9728851961054 L 86.7055728090001,48.8897516644035 L 86.7671788115587,48.8103296844737 L 86.8336501961258,48.7349326985855 L 86.9047246305141,48.6638582641976 L 86.9801216164021,48.5973868796304 L 87.0595435963321,48.5357808770718 L 87.1426771280336,48.4792833872684 L 87.2291941214373,48.4281173800019 L 87.3187531334959,48.382484784126 L 87.4110007157046,48.3425656906503 L 87.5055728090001,48.308517641999 L 87.6020961805362,48.2804750102664 L 87.7001898966628,48.2585484669065 L 87.7994668262971,48.2428245459684 L 87.8995351687531,48.2333653025867 L 88.0000000000001,48.2302080680712 L 88.1004648312469,48.2333653025862 L 88.2005331737029,48.2428245459694 L 88.2998101033372,48.2585484669059 L 88.3979038194638,48.2804750102651 L 88.494427191,48.3085176419982 L 88.5889992842955,48.3425656906501 L 88.6812468665041,48.3824847841261 L 88.7708058785628,48.4281173800011 L 88.8573228719664,48.4792833872677 L 88.940456403668,48.5357808770719 L 89.0198783835979,48.5973868796306 L 89.0952753694859,48.6638582641968 L 89.1663498038743,48.7349326985858 L 89.2328211884413,48.8103296844733 L 89.2944271909999,48.8897516644033 L 89.3509246808032,48.9728851961052 L 89.4020906880702,49.0594021895091 L 89.4477232839457,49.148961201567 L 89.4876423774212,49.2412087837762 L 89.5216904260723,49.3357808770714 L 89.5497330578059,49.4323042486072 L 89.5716596011659,49.5303979647343 L 89.5873835221032,49.6296748943689 L 89.5968427654853,49.7297432368242 L 89.6,49.8302080680716 L 89.5968427654852,49.9306728993187 L 89.5873835221032,50.0307412417747 L 89.5716596011659,50.1300181714089 L 89.5497330578059,50.2281118875353 L 89.5216904260723,50.3246352590712 L 89.4876423774212,50.4192073523669 L 89.4477232839456,50.5114549345754 L 89.4020906880702,50.6010139466345 L 89.3509246808032,50.6875309400381 L 89.2944271909999,50.7706644717393 L 89.2328211884413,50.8500864516694 L 89.1663498038743,50.9254834375576 L 89.0952753694859,50.9965578719457 L 89.0198783835979,51.0630292565126 L 88.940456403668,51.1246352590713 L 88.8573228719664,51.1811327488744 L 88.7708058785628,51.2322987561416 L 88.6812468665041,51.2779313520169 L 88.5889992842955,51.3178504454924 L 88.494427191,51.3518984941437 L 88.3979038194638,51.3799411258774 L 88.2998101033372,51.4018676692373 L 88.2005331737029,51.4175915901745 L 88.1004648312469,51.4270508335568 M 59.1154955593313,97.4347513274292 L 58.3384378812468,97.5608948315588 L 57.2567188227679,97.4705233659137 L 46.165675311782,96.1450752031194 L 46.165675311782,95.5727225873673 L 57.2567188227679,94.2171506026912 L 58.1741261255285,94.1569029589278 L 59.0744176204017,94.2792809853222 L 59.7213951585425,94.6464150645053 L 60.1116355783736,95.1905265972433 L 60.2417157183172,95.8438369843025 L 60.1116355783736,96.5009128490968 L 59.7213951585426,97.0563208150405 L 59.1154955593313,97.4347513274292 M 87.8995351687531,140.233365302586 L 88.0000000000001,140.230208068072 L 88.1004648312469,140.233365302586 L 88.2005331737029,140.242824545968 L 88.2998101033372,140.258548466906 L 88.3979038194638,140.280475010266 L 88.494427191,140.308517641999 L 88.5889992842955,140.34256569065 L 88.6812468665041,140.382484784126 L 88.7708058785628,140.428117380001 L 88.8573228719664,140.479283387268 L 88.940456403668,140.535780877072 L 89.0198783835979,140.59738687963 L 89.0952753694859,140.663858264197 L 89.1663498038743,140.734932698586 L 89.2328211884413,140.810329684474 L 89.2944271909999,140.889751664404 L 89.3509246808032,140.972885196105 L 89.4020906880702,141.059402189509 L 89.4477232839456,141.148961201567 L 89.4876423774212,141.241208783776 L 89.5216904260723,141.335780877072 L 89.5497330578058,141.432304248608 L 89.5716596011659,141.530397964734 L 89.5873835221032,141.629674894369 L 89.5968427654852,141.729743236825 L 89.6,141.830208068072 L 89.5968427654852,141.930672899318 L 89.5873835221032,142.030741241774 L 89.5716596011659,142.130018171409 L 89.5497330578059,142.228111887535 L 89.5216904260723,142.324635259071 L 89.4876423774212,142.419207352367 L 89.4477232839456,142.511454934576 L 89.4020906880702,142.601013946634 L 89.3509246808032,142.687530940038 L 89.2944271909999,142.770664471739 L 89.2328211884413,142.850086451669 L 89.1663498038743,142.925483437557 L 89.0952753694859,142.996557871946 L 89.0198783835979,143.063029256513 L 88.940456403668,143.124635259071 L 88.8573228719664,143.181132748875 L 88.7708058785628,143.232298756142 L 88.6812468665041,143.277931352017 L 88.5889992842955,143.317850445493 L 88.494427191,143.351898494144 L 88.3979038194638,143.379941125877 L 88.2998101033372,143.401867669237 L 88.2005331737029,143.417591590175 L 88.1004648312469,143.427050833557 L 88.0000000000001,143.430208068071 L 87.8995351687531,143.427050833557 L 87.7994668262971,143.417591590175 L 87.7001898966629,143.401867669237 L 87.6020961805363,143.379941125877 L 87.5055728090001,143.351898494144 L 87.4110007157045,143.317850445493 L 87.3187531334959,143.277931352017 L 87.2291941214373,143.232298756142 L 87.1426771280336,143.181132748875 L 87.059543596332,143.124635259071 L 86.9801216164021,143.063029256513 L 86.9047246305141,142.996557871946 L 86.8336501961258,142.925483437557 L 86.7671788115588,142.850086451669 L 86.7055728090001,142.770664471739 L 86.6490753191968,142.687530940038 L 86.5979093119299,142.601013946634 L 86.5522767160544,142.511454934576 L 86.5123576225788,142.419207352367 L 86.4783095739278,142.324635259071 L 86.4502669421942,142.228111887535 L 86.4283403988341,142.130018171409 L 86.4126164778969,142.030741241774 L 86.4031572345148,141.930672899318 L 86.4,141.830208068072 L 86.4031572345148,141.729743236825 L 86.4126164778969,141.629674894369 L 86.4283403988341,141.530397964734 L 86.4502669421942,141.432304248608 L 86.4783095739278,141.335780877072 L 86.5123576225788,141.241208783776 L 86.5522767160544,141.148961201567 L 86.5979093119298,141.059402189509 L 86.6490753191968,140.972885196105 L 86.7055728090001,140.889751664404 L 86.7671788115587,140.810329684474 L 86.8336501961258,140.734932698586 L 86.9047246305141,140.663858264197 L 86.9801216164021,140.59738687963 L 87.0595435963321,140.535780877072 L 87.1426771280336,140.479283387268 L 87.2291941214373,140.428117380001 L 87.3187531334959,140.382484784126 L 87.4110007157045,140.34256569065 L 87.5055728090001,140.308517641999 L 87.6020961805363,140.280475010266 L 87.7001898966629,140.258548466906 L 87.7994668262971,140.242824545968 L 87.8995351687531,140.233365302586 M 43.2513200233313,97.1378542998856 L 42.7300658740355,97.2389931646743 L 42.1994758295285,97.1378542998856 L 41.7529088419228,96.8344377055194 L 41.4494922475566,96.3878707179137 L 41.3483533827679,95.8572806734067 L 41.4494922475566,95.3266906288996 L 41.7529088419228,94.880123641294 L 42.1994758295285,94.5767070469278 L 42.7300658740355,94.4755681821391 L 43.2513200233313,94.5767070469279 L 43.6947750458665,94.880123641294 L 43.9981916402327,95.3266906288997 L 44.0993305050214,95.8572806734067 L 43.9981916402327,96.3878707179138 L 43.6947750458665,96.8344377055194 L 43.2513200233313,97.1378542998856 M 78.3572894054152,104.328988925083 L 78.8292817425799,104.278809327381 L 79.3228665126949,104.326860093665 L 79.5420601190166,104.386923551519 L 79.7428545395147,104.471012392516 L 80.088029347944,104.702750898263 L 80.3571744628864,105.013560285236 L 80.4766931410473,105.239520534278 L 80.5676246544573,105.508665649221 L 80.6251031027332,105.854448695198 L 80.6442625854917,106.310322737343 L 80.6442625854917,107.135092852286 L 77.0215997502428,107.135092852286 L 77.0215997502428,106.300590936577 L 77.0361974513921,105.899458273742 L 77.0799905548405,105.576788254585 L 77.1669685241891,105.295478388684 L 77.3111208230397,105.018426185619 L 77.5787453441125,104.714611530447 L 77.9339560720818,104.479527718186 L 78.3572894054152,104.328988925083 M 78.3829874418137,87.2767247967302 L 77.9978210146105,87.2242643082244 L 77.6737824609706,87.1368301607148 L 77.4108717808941,87.0144223542014 L 77.2075683805108,86.8546079384925 L 77.0623516659515,86.6549539633968 L 76.9752216372159,86.415460428914 L 76.946178294304,86.1361273350443 L 76.9746894293616,85.8597593992205 L 77.060222834534,85.621862488301 L 77.2027785098214,85.4224366022856 L 77.4023564552236,85.2614817411746 L 77.6629102148022,85.1374773110979 L 77.9883933326182,85.048902718186 L 78.3788058086719,84.995757962439 L 78.8341476429631,84.9780430438566 L 79.2764883996679,84.9955298733585 L 79.6595259954534,85.0479903618643 L 79.9832604303194,85.1354245093738 L 80.2476917042657,85.2578323158872 L 80.4531239360665,85.417646731596 L 80.5998612444957,85.6173007066918 L 80.6879036295531,85.8567942411746 L 80.7172510912389,86.1361273350443 L 80.6888920155684,86.4124952708681 L 80.6038147885569,86.6503921817877 L 80.4620194102044,86.8498180678029 L 80.2635058805109,87.0107729289141 L 80.0037124178673,87.1347773589907 L 79.6780772406641,87.2233519519026 L 79.2866003489017,87.2764967076497 L 78.8292817425798,87.2942116262321 L 78.3829874418137,87.2767247967302 M 77.8034891180589,90.516378771826 L 77.5969924705493,90.4570756109064 L 77.4099594245722,90.3594534844696 L 77.2502970682504,90.2247288676113 L 77.1170930452618,90.0525976415577 L 77.0191668000512,89.8476215879179 L 76.9589512828097,89.6140583695271 L 76.9388794437293,89.3561656492205 L 76.9584951046488,89.1137069566919 L 77.0173420874074,88.8923845189523 L 77.1154203920052,88.6921983360022 L 77.2527300184421,88.5131484078412 L 77.4190829877906,88.3657268321708 L 77.604291321124,88.2604257066918 L 77.808355018442,88.1972450314044 L 78.0312740797446,88.1761848063087 L 78.3341763785953,88.2169367220175 L 78.5762549226566,88.3391924691439 L 78.772107413078,88.5405190974965 L 78.936331551009,88.8184836568834 L 79.1108957272542,88.582183369527 L 79.3231706314688,88.4085315496037 L 79.5628162253384,88.3017858599485 L 79.8048947693999,88.2662039633968 L 79.9977821017753,88.2848312383011 L 80.172574367101,88.3407130630136 L 80.3292715653768,88.4338494375347 L 80.467873696603,88.5642403618642 L 80.5812339695913,88.7254993417494 L 80.6622055931546,88.9112398829371 L 80.7107885672926,89.1214619854275 L 80.7269828920052,89.3561656492205 L 80.7099522406642,89.5830382545845 L 80.6588602866412,89.7892307833202 L 80.5737070299363,89.9747432354275 L 80.4544924705493,90.1395756109063 L 80.3097319341509,90.2747564059255 L 80.1479407464113,90.3713141166535 L 79.9691189073309,90.4292487430903 L 79.7732664169094,90.4485602852359 L 79.5190231218903,90.4163236951975 L 79.3110058805109,90.3196139250826 L 79.1334005165263,90.1559980246995 L 78.970392853691,89.9230430438566 L 78.7845762828099,90.1867140208681 L 78.5628736966029,90.3792212047761 L 78.3040686199745,90.4969151702933 L 78.0215422789783,90.5361464921325 L 77.8034891180589,90.516378771826 M 79.2866003489017,93.7165733360022 L 78.8292817425798,93.7342882545846 L 78.3829874418137,93.7168014250826 L 77.9978210146105,93.6643409365768 L 77.6737824609706,93.5769067890673 L 77.4108717808941,93.4544989825539 L 77.2075683805108,93.2946845668451 L 77.0623516659515,93.0950305917493 L 76.9752216372159,92.8555370572665 L 76.946178294304,92.5762039633968 L 76.9746894293616,92.299836027573 L 77.060222834534,92.0619391166535 L 77.2027785098214,91.8625132306381 L 77.4023564552236,91.701558369527 L 77.6629102148022,91.5775539394504 L 77.9883933326182,91.4889793465385 L 78.3788058086719,91.4358345907914 L 78.8341476429631,91.418119672209 L 79.2764883996679,91.435606501711 L 79.6595259954534,91.4880669902167 L 79.9832604303194,91.5755011377263 L 80.2476917042657,91.6979089442397 L 80.4531239360665,91.8577233599485 L 80.5998612444957,92.0573773350443 L 80.6879036295531,92.296870869527 L 80.7172510912389,92.5762039633968 L 80.6888920155684,92.8525718992206 L 80.6038147885569,93.0904688101401 L 80.4620194102043,93.2898946961555 L 80.2635058805109,93.4508495572666 L 80.0037124178673,93.5748539873432 L 79.6780772406641,93.6634285802551 L 79.2866003489017,93.7165733360022 M 35.9319108260908,111.020806991313 L 35.9319108260908,80.63960914483 L 35.9659849998017,80.3807900997274 L 36.0658854223063,80.13960914483 L 36.2248040449042,79.9325023636434 L 36.4319108260908,79.7735837410455 L 36.6730917809883,79.6736833185409 L 36.9319108260908,79.6396091448299 L 37.1907298711933,79.6736833185409 L 37.4319108260908,79.7735837410455 L 37.6390176072773,79.9325023636434 L 37.7979362298752,80.13960914483 L 37.8978366523799,80.3807900997274 L 37.9319108260908,80.63960914483 L 37.9319108260908,111.020806991313 L 37.8978366523799,111.279626036416 L 37.7979362298752,111.520806991313 L 37.6390176072773,111.7279137725 L 37.4319108260908,111.886832395097 L 37.1907298711933,111.986732817602 L 36.9319108260908,112.020806991313 L 36.6730917809883,111.986732817602 L 36.4319108260908,111.886832395097 L 36.2248040449042,111.7279137725 L 36.0658854223063,111.520806991313 L 35.9659849998017,111.279626036416 L 35.9319108260908,111.020806991313 M 25.0086861904678,87.2983471096905 L 25.3149114451294,87.3408119399267 L 25.568504234146,87.4682064306355 L 25.7670721727156,87.687707736223 L 25.9082228760362,88.0064930110953 L 26.0027220757169,88.3677431162039 L 26.0948288905956,88.7361703757185 L 26.174973781464,88.9365326028896 L 26.2910044443631,89.0830661720148 L 26.4483037450975,89.1727806020915 L 26.6522545494717,89.202685412117 L 26.8792320575656,89.1518472350735 L 27.057763773418,88.9993327039433 L 27.1734953882169,88.7642808971425 L 27.2120725931498,88.4658308930876 L 27.1830649274251,88.1805390054439 L 27.0960419302507,87.9084052342115 L 26.9701426800432,87.6667743692051 L 26.8245062552188,87.4729912002396 L 26.8245062552188,87.4371054282089 L 27.3915014533031,87.4371054282089 L 27.4889911339864,87.6742505717115 L 27.5613607742482,87.9311328898309 L 27.6062179892865,88.2059580939656 L 27.6211703942993,88.4969318955142 L 27.6028536981586,88.747235155428 L 27.5479036097367,88.9742126635218 L 27.4563201290335,89.1778644197958 L 27.328103256049,89.3581904242498 L 27.1728225299913,89.5057706617258 L 27.0000474900687,89.611185117066 L 26.8097781362813,89.67443379027 L 26.6020144686288,89.6955166813379 L 26.4061379629615,89.6802652282249 L 26.2347834015151,89.6345108688859 L 26.0861564956882,89.5612440843232 L 25.9584629568791,89.4634553555397 L 25.8502075445866,89.3426399230366 L 25.7646797879136,89.205077796919 L 25.6426681630094,88.8749286942371 L 25.5589346949378,88.5328176675448 L 25.4799859964704,88.2313771824874 L 25.3980468170004,88.0328092439178 L 25.2814180579008,87.8964433102013 L 25.1277073343695,87.8174946117339 L 24.9345222616045,87.7911783789114 L 24.6925923484979,87.8414184597543 L 24.5026968048357,87.992138702283 L 24.4310000227995,88.1045807879791 L 24.3797880356307,88.2409467216955 L 24.3388184458957,88.5854501331898 L 24.3690223040215,88.8659572512294 L 24.4596338783989,89.1572301008782 L 24.6052703032233,89.4383353151183 L 24.8005487126901,89.6883395269318 L 24.8005487126901,89.7218329141604 L 24.2072372817833,89.7218329141605 L 24.0098655356147,89.2110587589241 L 23.9497568674634,88.9105154181675 L 23.9297206447463,88.5519567459611 L 23.9506540117641,88.2538057900066 L 24.0134541128178,88.0100815882984 L 24.1151304669046,87.8046355434229 L 24.2526925930221,87.6213190579663 L 24.409393797556,87.48525217235 L 24.5971960045164,87.383276770163 L 24.8017449050911,87.3195795248086 L 25.0086861904678,87.2983471096905 M 67.6088253623306,94.3094821259078 L 67.4499067397328,94.5165889070943 L 67.2427999585462,94.6755075296922 L 67.0016190036487,94.7754079521969 L 66.7427999585462,94.8094821259078 L 66.4839809134437,94.7754079521969 L 66.2427999585462,94.6755075296922 L 39.9319108260908,79.4849086064507 L 39.7248040449042,79.3259899838528 L 39.5658854223063,79.1188832026663 L 39.4659849998017,78.8777022477688 L 39.4319108260908,78.6188832026662 L 39.4659849998017,78.3600641575637 L 39.5658854223063,78.1188832026662 L 39.7248040449042,77.9117764214797 L 39.9319108260908,77.7528577988818 L 40.1730917809883,77.6529573763771 L 40.4319108260908,77.6188832026662 L 40.6907298711933,77.6529573763771 L 40.9319108260908,77.7528577988818 L 67.2427999585462,92.9434567221234 L 67.4499067397328,93.1023753447212 L 67.6088253623306,93.3094821259078 L 67.7087257848352,93.5506630808053 L 67.7427999585462,93.8094821259078 L 67.7087257848352,94.0683011710103 L 67.6088253623306,94.3094821259078 M 79.322258275147,100.989736051519 L 79.5518679494765,100.968751856117 L 79.8313531027332,100.997339020868 L 80.0664369149937,101.083100515121 L 80.2607688115454,101.219345725849 L 80.4179982176757,101.399384040025 L 80.5207903632695,101.58550472968 L 80.5907376812772,101.798387871443 L 80.6308813594381,102.048373503627 L 80.6442625854917,102.345801664546 L 80.6442625854917,103.255725036194 L 77.0215997502428,103.255725036194 L 77.0215997502428,102.774000898263 L 78.3718871065645,102.774000898263 L 78.3718871065645,102.365265266079 L 78.3956083709325,102.011879250753 L 78.4667721640359,101.725399365696 L 78.5841620107791,101.488794959565 L 78.7465614360666,101.285035381021 L 78.9104814552236,101.152743714355 L 79.1054215893231,101.052688637726 L 79.322258275147,100.989736051519 M 77.0215997502428,99.8264530055424 L 77.0215997502428,98.0601311664619 L 77.3914081793616,98.0601311664619 L 77.3914081793615,98.7024300170367 L 80.6564273364496,98.7024300170367 L 80.6564273364496,99.0795372967301 L 80.4091787732312,99.1400569327454 L 80.3209082990934,99.1992840639715 L 80.2562070299362,99.2778227373432 L 80.1768320299362,99.5031747488374 L 80.1503736966029,99.8264530055424 L 79.8194924705492,99.8264530055424 L 79.8194924705492,99.1695564538182 L 77.3914081793616,99.1695564538182 L 77.3914081793616,99.8264530055424 L 77.0215997502428,99.8264530055424 M 67.7087257848352,97.5921149651326 L 67.7427999585462,97.8509340102352 L 67.7087257848352,98.1097530553377 L 67.6088253623306,98.3509340102352 L 67.4499067397327,98.5580407914217 L 67.2427999585462,98.7169594140196 L 40.9319108260908,113.907558337261 L 40.6907298711933,114.007458759766 L 40.4319108260908,114.041532933477 L 40.1730917809883,114.007458759766 L 39.9319108260908,113.907558337261 L 39.7248040449042,113.748639714663 L 39.5658854223064,113.541532933477 L 39.4659849998017,113.300351978579 L 39.4319108260908,113.041532933477 L 39.4659849998017,112.782713888374 L 39.5658854223064,112.541532933477 L 39.7248040449042,112.33442615229 L 39.9319108260908,112.175507529692 L 66.2427999585462,96.9849086064507 L 66.4839809134437,96.8850081839461 L 66.7427999585462,96.8509340102352 L 67.0016190036487,96.8850081839461 L 67.2427999585462,96.9849086064507 L 67.4499067397327,97.1438272290486 L 67.6088253623306,97.3509340102352 L 67.7087257848352,97.5921149651326 M 15.8995351687531,140.233365302586 L 16.0,140.230208068071 L 16.1004648312469,140.233365302586 L 16.2005331737029,140.242824545968 L 16.2998101033372,140.258548466906 L 16.3979038194638,140.280475010266 L 16.4944271909999,140.308517641999 L 16.5889992842955,140.34256569065 L 16.6812468665041,140.382484784126 L 16.7708058785627,140.428117380001 L 16.8573228719664,140.479283387268 L 16.940456403668,140.535780877072 L 17.0198783835979,140.59738687963 L 17.0952753694859,140.663858264197 L 17.1663498038742,140.734932698586 L 17.2328211884413,140.810329684474 L 17.2944271909999,140.889751664404 L 17.3509246808032,140.972885196105 L 17.4020906880702,141.059402189509 L 17.4477232839456,141.148961201567 L 17.4876423774212,141.241208783776 L 17.5216904260722,141.335780877072 L 17.5497330578058,141.432304248608 L 17.5716596011659,141.530397964734 L 17.5873835221031,141.629674894369 L 17.5968427654852,141.729743236825 L 17.6,141.830208068072 L 17.5968427654852,141.930672899318 L 17.5873835221032,142.030741241774 L 17.5716596011659,142.130018171409 L 17.5497330578058,142.228111887535 L 17.5216904260722,142.324635259071 L 17.4876423774212,142.419207352367 L 17.4477232839456,142.511454934576 L 17.4020906880702,142.601013946634 L 17.3509246808032,142.687530940038 L 17.2944271909999,142.770664471739 L 17.2328211884413,142.850086451669 L 17.1663498038743,142.925483437557 L 17.0952753694859,142.996557871946 L 17.0198783835979,143.063029256513 L 16.940456403668,143.124635259071 L 16.8573228719664,143.181132748875 L 16.7708058785627,143.232298756142 L 16.6812468665041,143.277931352017 L 16.5889992842955,143.317850445493 L 16.4944271909999,143.351898494144 L 16.3979038194638,143.379941125877 L 16.2998101033372,143.401867669237 L 16.2005331737029,143.417591590175 L 16.1004648312469,143.427050833557 L 16.0,143.430208068071 L 15.8995351687531,143.427050833557 L 15.7994668262971,143.417591590175 L 15.7001898966628,143.401867669237 L 15.6020961805362,143.379941125877 L 15.5055728090001,143.351898494144 L 15.4110007157045,143.317850445493 L 15.3187531334959,143.277931352017 L 15.2291941214372,143.232298756142 L 15.1426771280336,143.181132748875 L 15.059543596332,143.124635259071 L 14.9801216164021,143.063029256513 L 14.9047246305141,142.996557871946 L 14.8336501961257,142.925483437557 L 14.7671788115587,142.850086451669 L 14.7055728090001,142.770664471739 L 14.6490753191968,142.687530940038 L 14.5979093119298,142.601013946634 L 14.5522767160544,142.511454934576 L 14.5123576225788,142.419207352367 L 14.4783095739278,142.324635259071 L 14.4502669421942,142.228111887535 L 14.4283403988341,142.130018171409 L 14.4126164778968,142.030741241774 L 14.4031572345148,141.930672899318 L 14.4,141.830208068072 L 14.4031572345148,141.729743236825 L 14.4126164778968,141.629674894369 L 14.4283403988341,141.530397964734 L 14.4502669421942,141.432304248608 L 14.4783095739278,141.335780877072 L 14.5123576225788,141.241208783776 L 14.5522767160544,141.148961201567 L 14.5979093119298,141.059402189509 L 14.6490753191968,140.972885196105 L 14.7055728090001,140.889751664404 L 14.7671788115587,140.810329684474 L 14.8336501961257,140.734932698586 L 14.9047246305141,140.663858264197 L 14.9801216164021,140.59738687963 L 15.059543596332,140.535780877072 L 15.1426771280336,140.479283387268 L 15.2291941214372,140.428117380001 L 15.3187531334959,140.382484784126 L 15.4110007157045,140.34256569065 L 15.5055728090001,140.308517641999 L 15.6020961805362,140.280475010266 L 15.7001898966628,140.258548466906 L 15.7994668262971,140.242824545968 L 15.8995351687531,140.233365302586 M 24.1306809681179,105.172999616396 L 24.2359458994078,104.951704022206 L 24.8005487126901,104.951704022206 L 24.8005487126901,104.987589794237 L 24.6677713561767,105.138310036766 L 24.5158549212469,105.36558659296 L 24.3890585267386,105.676596617226 L 24.3388184458957,106.056985800751 L 24.3612470534149,106.275889010138 L 24.4285328759723,106.482830295514 L 24.5400778173676,106.670632502475 L 24.6952837814002,106.832118476613 L 24.8977393452731,106.96908250653 L 25.1414635469813,107.073749341619 L 25.4312411561288,107.140138019876 L 25.7718569423197,107.162267579295 L 26.0990155639992,107.141334212277 L 26.3914846060489,107.078534111223 L 26.643283106464,106.978053949537 L 26.8484301032393,106.844080400623 L 27.0081217887756,106.678407753081 L 27.1235543554742,106.487615065118 L 27.193531610934,106.27828139494 L 27.2168573627539,106.056985800751 L 27.1690096667131,105.686166156434 L 27.0469980418088,105.38951044098 L 26.8867082600719,105.150271960776 L 26.7479499415534,104.989982179039 L 26.7479499415534,104.951704022206 L 27.3197299092418,104.951704022206 L 27.438152956943,105.18974631001 L 27.5278673870196,105.425396213011 L 27.5948541614768,105.716070966459 L 27.6211703942993,106.052201031146 L 27.5897703437725,106.39610634644 L 27.495570192192,106.705322082104 L 27.3415604205604,106.977455853337 L 27.1307315098804,107.210115275336 L 26.8627844120515,107.401805107599 L 26.5517743877859,107.541460570418 L 26.1905242826773,107.626689278991 L 25.7718569423197,107.655098848516 L 25.3478067361575,107.625792134691 L 24.9751928032393,107.537871993215 L 24.6570056245675,107.396721289895 L 24.3962356811447,107.207722890533 L 24.192882972971,106.974764420434 L 24.0469475000464,106.701733504901 L 23.9590273585713,106.394611105939 L 23.9297206447463,106.059378185553 L 23.9560368775687,105.713678581657 L 24.0325931912341,105.425396213011 L 24.1306809681179,105.172999616396 M 24.1306809681179,101.730366309882 L 24.2359458994078,101.509070715693 L 24.8005487126901,101.509070715693 L 24.8005487126901,101.544956487724 L 24.6677713561766,101.695676730252 L 24.5158549212469,101.922953286447 L 24.3890585267386,102.233963310712 L 24.3388184458957,102.614352494237 L 24.3612470534148,102.833255703624 L 24.4285328759723,103.040196989001 L 24.5400778173676,103.227999195961 L 24.6952837814002,103.389485170099 L 24.8977393452731,103.526449200016 L 25.1414635469813,103.631116035106 L 25.4312411561288,103.697504713362 L 25.7718569423197,103.719634272781 L 26.0990155639992,103.698700905763 L 26.391484606049,103.63590080471 L 26.643283106464,103.535420643024 L 26.8484301032393,103.401447094109 L 27.0081217887756,103.235774446568 L 27.1235543554742,103.044981758605 L 27.193531610934,102.835648088426 L 27.2168573627539,102.614352494237 L 27.1690096667131,102.24353284992 L 27.0469980418088,101.946877134467 L 26.8867082600719,101.707638654263 L 26.7479499415534,101.547348872526 L 26.7479499415534,101.509070715693 L 27.3197299092418,101.509070715693 L 27.4381529569429,101.747113003496 L 27.5278673870196,101.982762906498 L 27.5948541614768,102.273437659946 L 27.6211703942993,102.609567724633 L 27.5897703437725,102.953473039927 L 27.495570192192,103.262688775591 L 27.3415604205604,103.534822546823 L 27.1307315098804,103.767481968822 L 26.8627844120515,103.959171801086 L 26.5517743877859,104.098827263905 L 26.1905242826773,104.184055972478 L 25.7718569423197,104.212465542002 L 25.3478067361575,104.183158828177 L 24.9751928032393,104.095238686702 L 24.6570056245675,103.954087983381 L 24.3962356811447,103.76508958402 L 24.192882972971,103.532131113921 L 24.0469475000464,103.259100198388 L 23.9590273585713,102.951977799425 L 23.9297206447463,102.616744879039 L 23.9560368775687,102.271045275144 L 24.0325931912341,101.982762906498 L 24.1306809681179,101.730366309882 M 24.8376306771218,96.6441646443648 L 25.0876348889353,96.6190446039434 L 25.4013363461032,96.6627056265806 L 25.6582186642226,96.7936886944925 L 25.8511046888874,97.0042185570724 L 25.9728172656913,97.2865199637135 L 26.1259298930221,97.077485341635 L 26.3029663683734,96.9192888965998 L 26.5146924233542,96.8197058792148 L 26.7527347111575,96.7865115400864 L 26.9629655256371,96.8086410995053 L 27.1438896262916,96.875029777762 L 27.2943108207201,96.9892661520596 L 27.4130329165215,97.1549387996011 L 27.4892901820866,97.3334705154536 L 27.5314559642226,97.5197774819127 L 27.5565760046441,98.0903612572001 L 27.5565760046441,99.0353532540072 L 23.9943150344015,99.0353532540072 L 23.9943150344015,98.0138049435347 L 24.0107626799155,97.6836558408527 L 24.0601056164576,97.420493512628 L 24.1489229022335,97.1980017260379 L 24.2837935954487,96.9898642482601 L 24.4333176455764,96.8373497171298 L 24.6187274677348,96.7195247656292 L 24.8376306771218,96.6441646443648 M 25.7694645575177,90.6213611761017 L 25.7694645575177,91.9706662044542 L 25.3364429083478,91.9706662044542 L 25.3364429083478,90.6213611761017 L 25.7694645575177,90.6213611761017 M 25.5708966189481,93.8582493896394 L 27.5565760046441,92.6548798342116 L 27.5565760046441,93.1572806426406 L 25.9847791897016,94.0903107154376 L 27.5565760046441,95.0089864794223 L 27.5565760046441,95.5353111358719 L 25.5206565381051,94.331941580444 L 23.9943150344015,94.331941580444 L 23.9943150344015,93.8582493896394 L 25.5708966189481,93.8582493896394 "
  />
</svg>
