<?xml version="1.0" encoding="UTF-8" standalone="no"?>
<svg
   xmlns:dc="http://purl.org/dc/elements/1.1/"
   xmlns:cc="http://creativecommons.org/ns#"
   xmlns:rdf="http://www.w3.org/1999/02/22-rdf-syntax-ns#"
   xmlns:svg="http://www.w3.org/2000/svg"
   xmlns="http://www.w3.org/2000/svg"
   xmlns:sodipodi="http://sodipodi.sourceforge.net/DTD/sodipodi-0.dtd"
   xmlns:inkscape="http://www.inkscape.org/namespaces/inkscape"
   width="368.50394"
   height="439.37009"
   viewBox="0 0 104 124"
   version="1.1"
   id="svg2"
   inkscape:version="0.48.2 r9819"
   sodipodi:docname="ATXv1.1_SoB_top.svg">
  <metadata
     id="metadata12">
    <rdf:RDF>
      <cc:Work
         rdf:about="">
        <dc:format>image/svg+xml</dc:format>
        <dc:type
           rdf:resource="http://purl.org/dc/dcmitype/StillImage" />
      </cc:Work>
    </rdf:RDF>
  </metadata>
  <defs
     id="defs10" />
  <sodipodi:namedview
     pagecolor="#ffffff"
     bordercolor="#666666"
     borderopacity="1"
     objecttolerance="10"
     gridtolerance="10"
     guidetolerance="10"
     inkscape:pageopacity="0"
     inkscape:pageshadow="2"
     inkscape:window-width="1920"
     inkscape:window-height="1018"
     id="namedview8"
     showgrid="false"
     units="mm"
     inkscape:zoom="2.8284271"
     inkscape:cx="184.25197"
     inkscape:cy="304.53786"
     inkscape:window-x="-8"
     inkscape:window-y="-8"
     inkscape:window-maximized="1"
     inkscape:current-layer="svg2" />
  <desc
     id="desc4">Output from Flights of Ideas SVG Sketchup Plugin</desc>
  <g
     id="text_annotations"
     font-size="10"
     style="font-size:10px;stroke:#ff0000;stroke-width:0.30000001"
     transform="translate(0,-8.5340986e-6)" />
  <path
     id="face0-cut"
     style="fill:none;stroke:#0000ff;stroke-width:0.30000001;stroke-linecap:round;stroke-linejoin:round;stroke-miterlimit:4;stroke-dasharray:none"
     d="m 94,39.278321 0,-25.27833 -0.03422,-0.5221 -0.102076,-0.51317 -0.168185,-0.49546 -0.231416,-0.46927 -0.290689,-0.43504 -0.344986,-0.39338 -0.393381,-0.34499 L 92,10.535891 91.530734,10.304481 91.035276,10.136291 90.522105,10.034211 90,9.9999915 l -76,0 -0.522105,0.034199 -0.513171,0.10208 -0.495458,0.16819 L 12,10.535891 l -0.435046,0.29069 -0.393381,0.34499 -0.344986,0.39338 -0.290689,0.43504 -0.231416,0.46927 -0.168185,0.49546 -0.102076,0.51317 -0.03422,0.5221 0,95.999999 0.03422,0.5221 0.102076,0.51318 0.168185,0.49545 0.231416,0.46927 0.290689,0.43505 0.344986,0.39338 0.393381,0.34498 0.435047,0.29069 0.469266,0.23142 0.495458,0.16818 0.513171,0.10208 0.522105,0.0342 76,0 0.522105,-0.0342 0.513171,-0.10208 0.495458,-0.16818 L 92,113.46409 l 0.435046,-0.29069 0.393381,-0.34498 0.344986,-0.39338 0.290689,-0.43505 0.231416,-0.46927 0.168185,-0.49545 0.102076,-0.51318 0.03422,-0.5221 0,-25.721669 -15.612839,0 0,-45 15.612839,0 M 88.100465,17.596841 88,17.599991 l -0.100465,-0.003 -0.100068,-0.009 -0.09928,-0.0157 -0.09809,-0.0219 -0.09652,-0.028 -0.09457,-0.0341 -0.09225,-0.0399 -0.08956,-0.0456 -0.08652,-0.0512 -0.08313,-0.0565 -0.07942,-0.0616 -0.0754,-0.0665 -0.07107,-0.0711 -0.06647,-0.0754 -0.06161,-0.0794 -0.0565,-0.0831 -0.05117,-0.0865 -0.04563,-0.0896 -0.03992,-0.0922 -0.03405,-0.0946 -0.02804,-0.0965 -0.02193,-0.0981 -0.01572,-0.0993 -0.0095,-0.10006 -0.0031,-0.10038 0.0032,-0.10046 0.0095,-0.10007 0.01572,-0.0993 0.02193,-0.0981 0.02804,-0.0965 0.03405,-0.0946 0.03992,-0.0922 0.04563,-0.0896 0.05117,-0.0865 0.0565,-0.0831 0.06161,-0.0794 0.06647,-0.0754 0.07107,-0.0711 0.0754,-0.0665 0.07942,-0.0616 0.08313,-0.0565 0.08652,-0.0512 0.08956,-0.0456 0.09225,-0.0399 0.09457,-0.034 0.09652,-0.028 0.09809,-0.0219 0.09928,-0.0157 0.100068,-0.01 0.100382,-0.003 0.100465,0.003 0.100068,0.01 0.09928,0.0157 0.09809,0.0219 0.09652,0.028 0.09457,0.0341 0.09225,0.0399 0.08956,0.0456 0.08652,0.0512 0.08313,0.0565 0.07942,0.0616 0.0754,0.0665 0.07107,0.0711 0.06647,0.0754 0.06161,0.0794 0.0565,0.0831 0.05117,0.0865 0.04563,0.0896 0.03992,0.0922 0.03405,0.0946 0.02804,0.0965 0.02193,0.0981 0.01572,0.0993 0.0095,0.10007 0.0031,0.10038 -0.0032,0.10047 -0.0095,0.10007 -0.01572,0.0993 -0.02193,0.0981 -0.02804,0.0965 -0.03405,0.0946 -0.03992,0.0922 -0.04563,0.0896 -0.05117,0.0865 -0.0565,0.0831 -0.06161,0.0794 -0.06647,0.0754 -0.07107,0.0711 -0.0754,0.0665 -0.07942,0.0616 -0.08313,0.0565 -0.08652,0.0512 -0.08956,0.0456 -0.09225,0.0399 -0.09457,0.034 -0.09652,0.028 -0.09809,0.0219 -0.09928,0.0157 -0.100068,0.01 m 0.99481,89.236799 0.07107,0.0711 0.06647,0.0754 0.06161,0.0794 0.0565,0.0831 0.05117,0.0865 0.04563,0.0896 0.03992,0.0923 0.03405,0.0946 0.02804,0.0965 0.02193,0.0981 0.01572,0.0993 0.0095,0.10007 0.0032,0.10033 -0.0032,0.10046 -0.0095,0.10007 -0.01572,0.0993 -0.02193,0.0981 -0.02804,0.0965 -0.03405,0.0946 -0.03992,0.0923 -0.04563,0.0896 -0.05117,0.0865 -0.0565,0.0831 -0.06161,0.0794 -0.06647,0.0754 -0.07107,0.0711 -0.0754,0.0665 -0.07942,0.0616 -0.08313,0.0565 -0.08652,0.0512 -0.08956,0.0456 -0.09225,0.0399 -0.09457,0.0341 -0.09652,0.028 -0.09809,0.0219 -0.09928,0.0157 -0.100068,0.009 -0.100382,0.004 -0.100465,-0.003 -0.100068,-0.009 -0.09928,-0.0157 -0.09809,-0.0219 -0.09652,-0.028 -0.09457,-0.0341 -0.09225,-0.0399 -0.08956,-0.0456 -0.08652,-0.0512 -0.08313,-0.0565 -0.07942,-0.0616 -0.0754,-0.0665 -0.07107,-0.0711 -0.06647,-0.0754 -0.06161,-0.0794 -0.0565,-0.0831 -0.05117,-0.0865 -0.04563,-0.0896 -0.03992,-0.0923 -0.03405,-0.0946 -0.02804,-0.0965 -0.02193,-0.0981 -0.01572,-0.0993 -0.0095,-0.10007 -0.0031,-0.10103 0.0032,-0.10046 0.0095,-0.10007 0.01572,-0.0993 0.02193,-0.0981 0.02804,-0.0965 0.03405,-0.0946 0.03992,-0.0923 0.04563,-0.0896 0.05117,-0.0865 0.0565,-0.0831 0.06161,-0.0794 0.06647,-0.0754 0.07107,-0.0711 0.0754,-0.0665 0.07942,-0.0616 0.08313,-0.0565 0.08652,-0.0512 0.08956,-0.0456 0.09225,-0.0399 0.09457,-0.0341 0.09652,-0.028 0.09809,-0.0219 0.09928,-0.0157 0.100068,-0.009 0.100382,-0.004 0.100465,0.003 0.100068,0.009 0.09928,0.0157 0.09809,0.0219 0.09652,0.028 0.09457,0.0341 0.09225,0.0399 0.08956,0.0456 0.08652,0.0512 0.08313,0.0565 0.07942,0.0616 0.0754,0.0665 m -71.495273,1.167 -0.0032,0.10046 -0.0095,0.10007 -0.01572,0.0993 -0.02193,0.0981 -0.02804,0.0965 -0.03405,0.0946 -0.03992,0.0923 -0.04563,0.0896 -0.05117,0.0865 -0.0565,0.0831 -0.06161,0.0794 -0.06647,0.0754 -0.07108,0.0711 -0.0754,0.0665 -0.07942,0.0616 -0.08313,0.0565 -0.08652,0.0512 -0.08956,0.0456 -0.09225,0.0399 -0.09457,0.0341 -0.09652,0.028 -0.09809,0.0219 -0.09928,0.0157 -0.100068,0.009 -0.100372,0.004 -0.100465,-0.003 -0.100068,-0.009 -0.09928,-0.0157 -0.09809,-0.0219 -0.09652,-0.028 -0.09457,-0.0341 -0.09225,-0.0399 -0.08956,-0.0456 -0.08652,-0.0512 -0.08313,-0.0565 -0.07942,-0.0616 -0.0754,-0.0665 -0.07107,-0.0711 -0.06647,-0.0754 -0.06161,-0.0794 -0.0565,-0.0831 -0.05117,-0.0865 -0.04563,-0.0896 -0.03992,-0.0923 -0.03405,-0.0946 -0.02804,-0.0965 -0.02193,-0.0981 -0.01572,-0.0993 -0.0095,-0.10007 -0.0031,-0.10103 0.0032,-0.10046 0.0095,-0.10007 0.01572,-0.0993 0.02193,-0.0981 0.02804,-0.0965 0.03405,-0.0946 0.03992,-0.0923 0.04563,-0.0896 0.05117,-0.0865 0.0565,-0.0831 0.06161,-0.0794 0.06647,-0.0754 0.07107,-0.0711 0.0754,-0.0665 0.07942,-0.0616 0.08313,-0.0565 0.08652,-0.0512 0.08956,-0.0456 0.09225,-0.0399 0.09457,-0.0341 0.09652,-0.028 0.09809,-0.0219 0.09928,-0.0157 0.100068,-0.009 0.100382,-0.004 0.100465,0.003 0.100068,0.009 0.09928,0.0157 0.09809,0.0219 0.09652,0.028 0.09457,0.0341 0.09225,0.0399 0.08956,0.0456 0.08652,0.0512 0.08313,0.0565 0.07942,0.0616 0.0754,0.0665 0.07108,0.0711 0.06647,0.0754 0.06161,0.0794 0.0565,0.0831 0.05117,0.0865 0.04563,0.0896 0.03992,0.0923 0.03405,0.0946 0.02804,0.0965 0.02193,0.0981 0.01572,0.0993 0.0095,0.10007 0.0031,0.10103 m -1.399467,-90.412609 -0.100068,0.009 -0.100465,0.003 -0.100465,-0.003 -0.100068,-0.009 -0.09928,-0.0157 -0.09809,-0.0219 -0.09652,-0.028 -0.09457,-0.0341 -0.09225,-0.0399 -0.08956,-0.0456 -0.08652,-0.0512 -0.08313,-0.0565 -0.07942,-0.0616 -0.0754,-0.0665 -0.07107,-0.0711 -0.06647,-0.0754 -0.06161,-0.0794 -0.0565,-0.0831 -0.05117,-0.0865 -0.04563,-0.0896 -0.03992,-0.0922 -0.03405,-0.0946 -0.02804,-0.0965 -0.02193,-0.0981 -0.01572,-0.0993 -0.0095,-0.10006 -0.0031,-0.10038 0.0032,-0.10046 0.0095,-0.10007 0.01572,-0.0993 0.02193,-0.0981 0.02804,-0.0965 0.03405,-0.0946 0.03992,-0.0922 0.04563,-0.0896 0.05117,-0.0865 0.0565,-0.0831 0.06161,-0.0794 0.06647,-0.0754 0.07107,-0.0711 0.0754,-0.0665 0.07942,-0.0616 0.08313,-0.0565 0.08652,-0.0512 0.08956,-0.0456 0.09225,-0.0399 0.09457,-0.034 0.09652,-0.028 0.09809,-0.0219 0.09928,-0.0157 0.100068,-0.01 0.100382,-0.003 0.100465,0.003 0.100068,0.01 0.09928,0.0157 0.09809,0.0219 0.09652,0.028 0.09457,0.0341 0.09225,0.0399 0.08956,0.0456 0.08652,0.0512 0.08313,0.0565 0.07942,0.0616 0.0754,0.0665 0.07108,0.0711 0.06647,0.0754 0.06161,0.0794 0.0565,0.0831 0.05117,0.0865 0.04563,0.0896 0.03992,0.0922 0.03405,0.0946 0.02804,0.0965 0.02193,0.0981 0.01572,0.0993 0.0095,0.10007 0.0031,0.10038 -0.0032,0.10047 -0.0095,0.10007 -0.01572,0.0993 -0.02193,0.0981 -0.02804,0.0965 -0.03405,0.0946 -0.03992,0.0922 -0.04563,0.0896 -0.05117,0.0865 -0.0565,0.0831 -0.06161,0.0794 -0.06647,0.0754 -0.07108,0.0711 -0.0754,0.0665 -0.07942,0.0616 -0.08313,0.0565 -0.08652,0.0512 -0.08956,0.0456 -0.09225,0.0399 -0.09457,0.034 -0.09652,0.028 -0.09809,0.0219 -0.09928,0.0157 m 67.29956,78.7126 0,5.399999 -5,0 0,-5.399999 5,0 m -47.391839,0.11218 0.172863,0.0751 0.167807,0.0858 0.162088,0.0962 0.155732,0.10614 0.148759,0.11571 0.1412,0.12483 0.133083,0.13345 0.124442,0.14153 0.115309,0.14908 0.105721,0.15602 0.09572,0.16235 0.08533,0.16803 0.07461,0.17307 0.0636,0.17741 0.05233,0.18105 0.04086,0.18398 0.02923,0.18619 0.01748,0.18765 0.0057,0.18838 -0.0062,0.18836 -0.01799,0.18761 -0.02974,0.1861 -0.04136,0.18387 -0.05282,0.180909 -0.06408,0.17723 -0.07508,0.17286 -0.08579,0.16781 -0.09616,0.16209 -0.106144,0.15573 -0.115714,0.14876 -0.124826,0.1412 -0.133445,0.13308 -0.141539,0.12445 -0.149073,0.1153 -0.156019,0.10572 -0.162349,0.0957 -0.168039,0.0853 -0.173066,0.0746 -0.177409,0.0636 -0.181053,0.0523 -0.183981,0.0409 -0.186184,0.0292 -0.187652,0.0175 -0.18838,0.006 -0.188363,-0.006 -0.187604,-0.018 -0.186104,-0.0297 -0.18387,-0.0414 -0.18091,-0.0528 -0.177235,-0.0641 -0.172863,-0.0751 -0.167807,-0.0858 -0.162088,-0.0961 -0.155732,-0.10615 -0.148759,-0.11571 -0.1412,-0.12483 -0.133083,-0.13344 -0.124442,-0.14154 -0.115309,-0.14907 -0.105721,-0.15602 -0.09572,-0.16235 -0.08533,-0.16804 -0.07461,-0.17307 -0.0636,-0.17741 -0.05233,-0.181039 -0.04086,-0.18398 -0.02923,-0.18619 -0.01748,-0.18765 -0.0057,-0.18838 0.0062,-0.18836 0.01799,-0.18761 0.02974,-0.1861 0.04136,-0.18387 0.05282,-0.18091 0.06408,-0.17724 0.07508,-0.17286 0.08579,-0.16781 0.09616,-0.16208 0.106144,-0.15574 0.115714,-0.14876 0.124826,-0.1412 0.133445,-0.13308 0.141539,-0.12444 0.149073,-0.11531 0.156019,-0.10572 0.162349,-0.0957 0.168039,-0.0853 0.173066,-0.0746 0.177409,-0.0636 0.181053,-0.0523 0.183981,-0.0409 0.186184,-0.0292 0.187652,-0.0175 0.18838,-0.006 0.188363,0.006 0.187604,0.018 0.186104,0.0297 0.18387,0.0414 0.18091,0.0528 0.177235,0.0641 m 0.516034,-13.28987 -0.161582,0.097 -0.167353,0.0867 -0.172466,0.076 -0.176896,0.065 -0.18063,0.0538 -0.18365,0.0423 -0.185945,0.0307 -0.187507,0.019 -0.188328,0.007 -0.188407,-0.005 -0.187741,-0.0165 -0.186335,-0.0283 -0.184194,-0.0399 -0.181325,-0.0514 -0.177741,-0.0627 -0.173455,-0.0737 -0.168485,-0.0845 -0.162851,-0.0949 -0.156572,-0.1049 -0.149677,-0.11453 -0.14219,-0.12369 -0.134143,-0.13238 -0.125566,-0.14055 -0.116494,-0.14815 -0.106961,-0.15517 -0.09701,-0.16158 -0.08667,-0.16735 -0.07599,-0.17247 -0.06501,-0.17689 -0.05377,-0.18063 -0.04233,-0.18365 -0.03071,-0.18595 -0.01898,-0.18751 -0.0072,-0.18832 0.0047,-0.18841 0.01649,-0.18774 0.02825,-0.18634 0.0399,-0.18419 0.05138,-0.18133 0.06267,-0.17774 0.0737,-0.17345 0.08445,-0.16849 0.09486,-0.16285 0.1049,-0.15657 0.114524,-0.14968 0.123696,-0.14219 0.13238,-0.13414 0.140542,-0.12557 0.14815,-0.11649 0.155171,-0.10696 0.161582,-0.097 0.167353,-0.0867 0.172466,-0.076 0.176896,-0.065 0.18063,-0.0538 0.18365,-0.0423 0.185945,-0.0307 0.187507,-0.019 0.188328,-0.007 0.188407,0.005 0.187741,0.0165 0.186335,0.0283 0.184194,0.0399 0.181325,0.0514 0.177741,0.0627 0.173455,0.0737 0.168485,0.0845 0.162851,0.0949 0.156572,0.1049 0.149677,0.11452 0.14219,0.1237 0.134143,0.13238 0.125566,0.14054 0.116494,0.14815 0.106961,0.15517 0.09701,0.16158 0.08667,0.16736 0.07599,0.17246 0.06501,0.1769 0.05377,0.18063 0.04233,0.18365 0.03071,0.18594 0.01898,0.18751 0.0072,0.18833 -0.0047,0.18841 -0.01649,0.18774 -0.02825,0.18633 -0.0399,0.1842 -0.05138,0.18132 -0.06267,0.17774 -0.0737,0.17346 -0.08445,0.16848 -0.09486,0.16285 -0.1049,0.15657 -0.114524,0.14968 -0.123696,0.14219 -0.13238,0.13414 -0.140542,0.12557 -0.14815,0.11649 -0.155171,0.10697 M 35.188372,64.994071 35,64.999991 l -0.188372,-0.006 -0.187628,-0.0177 -0.186144,-0.0295 -0.183926,-0.0411 -0.180981,-0.0526 -0.177323,-0.0638 -0.172964,-0.0749 -0.167923,-0.0856 -0.162219,-0.0959 -0.155876,-0.10594 -0.148916,-0.11551 -0.141369,-0.12463 -0.133265,-0.13327 -0.124634,-0.14136 -0.115511,-0.14892 -0.105933,-0.15588 -0.09594,-0.16222 -0.08556,-0.16792 -0.07485,-0.17296 -0.06384,-0.17733 -0.05258,-0.18098 -0.04111,-0.18392 -0.02948,-0.18615 -0.01774,-0.18762 -0.0059,-0.18838 0.0059,-0.18837 0.01774,-0.18763 0.02948,-0.18614 0.04111,-0.18393 0.05258,-0.18098 0.06384,-0.17732 0.07485,-0.17296 0.08556,-0.16793 0.09594,-0.16222 0.105933,-0.15587 0.115511,-0.14892 0.124634,-0.14137 0.133265,-0.13326 0.141369,-0.12464 0.148916,-0.11551 0.155876,-0.10593 0.162219,-0.0959 0.167923,-0.0856 0.172964,-0.0749 0.177323,-0.0638 0.180981,-0.0526 0.183926,-0.0411 0.18616,-0.0295 0.187628,-0.0177 0.188372,-0.006 0.188372,0.006 0.187628,0.0177 0.186144,0.0295 0.183926,0.0411 0.180981,0.0526 0.177323,0.0638 0.172964,0.0749 0.167923,0.0856 0.162219,0.0959 0.155876,0.10594 0.148916,0.11551 0.141369,0.12463 0.133265,0.13327 0.124634,0.14137 0.115511,0.14891 0.105933,0.15588 0.09594,0.16222 0.08556,0.16792 0.07485,0.17296 0.06384,0.17733 0.05258,0.18098 0.04111,0.18392 0.02948,0.18615 0.01774,0.18763 0.0059,0.18838 -0.0059,0.18838 -0.01774,0.18762 -0.02948,0.18615 -0.04111,0.18392 -0.05258,0.18098 -0.06384,0.17733 -0.07485,0.17296 -0.08556,0.16792 -0.09594,0.16222 -0.105933,0.15588 -0.115511,0.14892 -0.124634,0.14136 -0.133265,0.13327 -0.141369,0.12463 -0.148916,0.11551 -0.155876,0.10594 -0.162219,0.0959 -0.167923,0.0856 -0.172964,0.0748 -0.177323,0.0638 -0.180981,0.0526 -0.183926,0.0411 -0.186144,0.0295 -0.187628,0.0177 m 1.153997,-18.91116 -0.171111,0.079 -0.175733,0.0681 -0.179662,0.0569 -0.182882,0.0455 -0.18538,0.034 -0.187146,0.0222 -0.188174,0.0105 -0.18846,-10e-4 -0.188001,-0.0132 -0.1868,-0.025 -0.184863,-0.0367 -0.182196,-0.0482 -0.178809,-0.0596 -0.174718,-0.0707 -0.169935,-0.0815 -0.164484,-0.092 -0.158383,-0.10215 -0.151656,-0.11189 -0.144331,-0.12119 -0.136436,-0.13002 -0.128004,-0.13832 -0.119066,-0.14609 -0.109658,-0.15328 -0.09982,-0.15986 -0.08958,-0.16581 -0.07899,-0.17111 -0.06809,-0.17574 -0.05692,-0.17966 -0.04553,-0.18288 -0.03396,-0.18538 -0.02225,-0.18715 -0.01046,-0.18817 0.0014,-0.18846 0.01321,-0.188 0.02499,-0.1868 0.03667,-0.18487 0.0482,-0.18219 0.05955,-0.17881 0.07066,-0.17472 0.08149,-0.16993 0.092,-0.16449 0.102146,-0.15838 0.11189,-0.15166 0.121191,-0.14433 0.130015,-0.13643 0.138326,-0.12801 0.14609,-0.11906 0.153278,-0.10966 0.15986,-0.0998 0.165813,-0.0896 0.171111,-0.079 0.175733,-0.0681 0.179662,-0.0569 0.182882,-0.0455 0.18538,-0.034 0.187146,-0.0222 0.188174,-0.0105 0.18846,10e-4 0.188001,0.0132 0.1868,0.025 0.184863,0.0367 0.182196,0.0482 0.178809,0.0596 0.174718,0.0707 0.169935,0.0815 0.164484,0.092 0.158383,0.10214 0.151656,0.11189 0.144331,0.1212 0.136436,0.13001 0.128004,0.13833 0.119066,0.14609 0.109658,0.15327 0.09982,0.15986 0.08958,0.16582 0.07899,0.17111 0.06809,0.17573 0.05692,0.17966 0.04553,0.18289 0.03396,0.18538 0.02225,0.18714 0.01046,0.18818 -0.0014,0.18846 -0.01321,0.188 -0.02499,0.1868 -0.03667,0.18486 -0.0482,0.1822 -0.05955,0.1788 -0.07066,0.17472 -0.08149,0.16994 -0.092,0.16448 -0.102146,0.15838 -0.11189,0.15166 -0.121191,0.14433 -0.130015,0.13644 -0.138326,0.128 -0.14609,0.11907 -0.153278,0.10966 -0.15986,0.0998 -0.165813,0.0896 m 0.322485,-18.78727 -0.159988,0.0996 -0.165928,0.0894 -0.171211,0.0788 -0.17582,0.0679 -0.179735,0.0567 -0.182939,0.0453 -0.185424,0.0337 -0.187174,0.022 -0.188188,0.0102 -0.188457,-0.002 -0.187984,-0.0134 -0.186769,-0.0252 -0.184816,-0.0369 -0.182133,-0.0484 -0.178733,-0.0598 -0.174627,-0.0709 -0.169832,-0.0817 -0.164366,-0.0922 -0.158252,-0.10235 -0.151513,-0.11209 -0.144176,-0.12137 -0.13627,-0.13019 -0.127827,-0.13849 -0.118879,-0.14624 -0.109462,-0.15342 -0.09961,-0.15999 -0.08937,-0.16593 -0.07878,-0.17121 -0.06787,-0.17582 -0.0567,-0.17973 -0.0453,-0.18294 -0.03372,-0.18542 -0.02201,-0.18718 -0.01022,-0.18819 0.0016,-0.18845 0.01345,-0.18799 0.02523,-0.18677 0.0369,-0.18481 0.04844,-0.18214 0.05978,-0.17873 0.07088,-0.17463 0.08171,-0.16983 0.09221,-0.16436 0.102348,-0.15826 0.112084,-0.15151 0.121376,-0.14417 0.130189,-0.13627 0.138489,-0.12783 0.146242,-0.11888 0.153418,-0.10946 0.159988,-0.0996 0.165928,-0.0894 0.171211,-0.0788 0.17582,-0.0679 0.179735,-0.0567 0.182939,-0.0453 0.185424,-0.0337 0.187174,-0.022 0.188188,-0.0102 0.188457,0.002 0.187984,0.0135 0.186769,0.0252 0.184816,0.0369 0.182133,0.0484 0.178733,0.0598 0.174627,0.0709 0.169832,0.0817 0.164366,0.0922 0.158252,0.10235 0.151513,0.11208 0.144176,0.12138 0.13627,0.13018 0.127827,0.13849 0.118879,0.14625 0.109462,0.15341 0.09961,0.15999 0.08937,0.16593 0.07878,0.17121 0.06787,0.17582 0.0567,0.17974 0.0453,0.18293 0.03372,0.18543 0.02201,0.18717 0.01022,0.18819 -0.0016,0.18846 -0.01345,0.18798 -0.02523,0.18677 -0.0369,0.18482 -0.04844,0.18213 -0.05978,0.17873 -0.07088,0.17463 -0.08171,0.16983 -0.09221,0.16437 -0.102348,0.15825 -0.112084,0.15151 -0.121376,0.14418 -0.130189,0.13627 -0.138489,0.12783 -0.146242,0.11887 -0.153418,0.10947"
     inkscape:connector-curvature="0" />
</svg>
