<?xml version="1.0" standalone="no"?>
<!DOCTYPE svg PUBLIC "-//W3C//DTD SVG 1.1//EN" "http://www.w3.org/Graphics/SVG/1.1/DTD/svg11.dtd">
<svg width="80.0mm" height="114.0mm"
 viewBox="0 0 80.0 114.0"
 xmlns="http://www.w3.org/2000/svg" version="1.1"
 xmlns:xlink="http://www.w3.org/1999/xlink">
<desc>Output from Flights of Ideas SVG Sketchup Plugin</desc>

<g id="text_annotations" font-size="10" stroke="rgb(255,0,0)" stroke-width="0">
</g>
  <path id="face0-cut"
 style="fill:none;stroke:rgb(0,0,255);stroke-width:0;stroke-miterlimit:4;stroke-dasharray:none;stroke-linejoin:round;stroke-linecap:round"
        d="M 70.0,14.0000000000001 L 69.9986292999022,13.8952922067686 L 69.9945181390183,13.7906561750283 L 69.9876693349325,13.6861636170887 L 69.9780875814731,13.5818861469295 L 69.9657794454953,13.4778952311199 L 69.9507533623806,13.3742621398392 L 69.9330196302558,13.2710578980315 L 69.9125904029352,13.1683532367291 L 69.8894796815907,13.0662185445765 L 69.8637033051563,12.96472381959 L 69.8352789394728,12.8639386211844 L 69.8042260651806,12.7639320225003 L 69.7705659643687,12.664772563065 L 69.7343217059888,12.5665282018189 L 69.6955181300452,12.4692662705397 L 69.6541818305704,12.3730534276969 L 69.6103411373995,12.2779556127669 L 69.5640260967535,12.1840380010419 L 69.5152684506479,12.0913649589617 L 69.4641016151378,12.0000000000001 L 69.4105606574164,11.9100057411363 L 69.3546822717817,11.82144385994 L 69.2965047544881,11.7343750523008 L 69.2360679774998,11.6488589908302 L 69.1734133611649,11.5649542839652 L 69.1085838458279,11.4827184358008 L 69.0416238624001,11.4022078066794 L 68.9725793019096,11.3234775745647 L 68.9014974840492,11.2465816972251 L 68.8284271247462,11.1715728752539 L 68.753418302775,11.0985025159509 L 68.6765224254355,11.0274206980905 L 68.5977921933208,10.9583761376 L 68.5172815641994,10.8914161541722 L 68.4350457160349,10.8265866388352 L 68.3511410091699,10.7639320225003 L 68.2656249476994,10.703495245512 L 68.1785561400601,10.6453177282184 L 68.0899942588638,10.5894393425837 L 68.0,10.5358983848623 L 67.9086350410385,10.4847315493522 L 67.8159619989582,10.4359739032466 L 67.7220443872332,10.3896588626007 L 67.6269465723032,10.3458181694297 L 67.5307337294604,10.3044818699549 L 67.4334717981812,10.2656782940113 L 67.3352274369351,10.2294340356314 L 67.2360679774998,10.1957739348195 L 67.1360613788157,10.1647210605273 L 67.0352761804101,10.1362966948438 L 66.9337814554236,10.1105203184094 L 66.8316467632711,10.0874095970649 L 66.7289421019686,10.0669803697443 L 66.6257378601609,10.0492466376195 L 66.5221047688802,10.0342205545049 L 66.4181138530706,10.021912418527 L 66.3138363829114,10.0123306650676 L 66.2093438249718,10.0054818609818 L 66.1047077932315,10.0013707000979 L 66.0,10.0000000000001 L 14.0,10.0 L 13.8952922067685,10.0013707000978 L 13.7906561750282,10.0054818609819 L 13.6861636170886,10.0123306650676 L 13.5818861469294,10.021912418527 L 13.4778952311198,10.0342205545048 L 13.3742621398391,10.0492466376195 L 13.2710578980314,10.0669803697443 L 13.168353236729,10.087409597065 L 13.0662185445764,10.1105203184096 L 12.9647238195899,10.1362966948438 L 12.8639386211843,10.1647210605273 L 12.7639320225002,10.1957739348194 L 12.6647725630649,10.2294340356315 L 12.5665282018188,10.2656782940113 L 12.4692662705397,10.304481869955 L 12.3730534276968,10.3458181694296 L 12.2779556127668,10.3896588626007 L 12.1840380010418,10.4359739032467 L 12.0913649589616,10.4847315493522 L 12.0,10.5358983848623 L 11.9100057411362,10.5894393425838 L 11.8214438599399,10.6453177282184 L 11.7343750523007,10.7034952455119 L 11.6488589908301,10.7639320225004 L 11.5649542839651,10.8265866388351 L 11.4827184358007,10.8914161541722 L 11.4022078066793,10.9583761376001 L 11.3234775745646,11.0274206980905 L 11.246581697225,11.098502515951 L 11.1715728752538,11.171572875254 L 11.0985025159509,11.2465816972253 L 11.0274206980904,11.3234775745648 L 10.9583761375999,11.4022078066792 L 10.8914161541721,11.4827184358008 L 10.8265866388351,11.5649542839651 L 10.7639320225002,11.6488589908301 L 10.703495245512,11.7343750523008 L 10.6453177282183,11.8214438599401 L 10.5894393425837,11.9100057411362 L 10.5358983848623,11.9999999999999 L 10.4847315493522,12.0913649589615 L 10.4359739032465,12.184038001042 L 10.3896588626006,12.2779556127668 L 10.3458181694296,12.373053427697 L 10.3044818699549,12.46926627054 L 10.2656782940112,12.5665282018188 L 10.2294340356313,12.6647725630651 L 10.1957739348194,12.7639320225004 L 10.1647210605273,12.8639386211848 L 10.1362966948438,12.9647238195897 L 10.1105203184093,13.0662185445769 L 10.0874095970648,13.1683532367295 L 10.0669803697442,13.2710578980315 L 10.0492466376195,13.3742621398391 L 10.0342205545048,13.4778952311198 L 10.0219124185269,13.5818861469287 L 10.0123306650675,13.686163617089 L 10.0054818609817,13.7906561750289 L 10.0013707000978,13.895292206771 L 10.0,14.0000000000001 L 10.0,100.0 L 10.0013707000978,100.104707793232 L 10.0054818609817,100.209343824972 L 10.0123306650675,100.313836382911 L 10.0219124185269,100.418113853071 L 10.0342205545048,100.52210476888 L 10.0492466376195,100.625737860161 L 10.0669803697442,100.728942101969 L 10.0874095970648,100.831646763271 L 10.1105203184093,100.933781455424 L 10.1362966948438,101.03527618041 L 10.1647210605272,101.136061378816 L 10.1957739348194,101.2360679775 L 10.2294340356313,101.335227436935 L 10.2656782940112,101.433471798181 L 10.3044818699549,101.53073372946 L 10.3458181694296,101.626946572303 L 10.3896588626006,101.722044387233 L 10.4359739032465,101.815961998958 L 10.4847315493521,101.908635041039 L 10.5358983848623,102.0 L 10.5894393425836,102.089994258864 L 10.6453177282183,102.17855614006 L 10.703495245512,102.265624947699 L 10.7639320225002,102.35114100917 L 10.8265866388351,102.435045716035 L 10.8914161541721,102.517281564199 L 10.9583761375999,102.597792193321 L 11.0274206980904,102.676522425436 L 11.0985025159509,102.753418302775 L 11.1715728752538,102.828427124746 L 11.246581697225,102.901497484049 L 11.3234775745646,102.97257930191 L 11.4022078066793,103.0416238624 L 11.4827184358007,103.108583845828 L 11.5649542839651,103.173413361165 L 11.6488589908301,103.2360679775 L 11.7343750523007,103.296504754488 L 11.8214438599399,103.354682271782 L 11.9100057411362,103.410560657417 L 12.0,103.464101615138 L 12.0913649589616,103.515268450648 L 12.1840380010418,103.564026096754 L 12.2779556127669,103.6103411374 L 12.3730534276968,103.654181830571 L 12.4692662705397,103.695518130045 L 12.5665282018188,103.734321705989 L 12.6647725630649,103.770565964369 L 12.7639320225002,103.804226065181 L 12.8639386211843,103.835278939473 L 12.9647238195899,103.863703305156 L 13.0662185445764,103.889479681591 L 13.1683532367289,103.912590402935 L 13.2710578980314,103.933019630256 L 13.3742621398391,103.950753362381 L 13.4778952311198,103.965779445495 L 13.5818861469294,103.978087581473 L 13.6861636170887,103.987669334933 L 13.7906561750282,103.994518139018 L 13.8952922067685,103.998629299902 L 14.0,104.0 L 66.0,104.0 L 66.1047077932315,103.998629299902 L 66.2093438249718,103.994518139018 L 66.3138363829114,103.987669334933 L 66.4181138530706,103.978087581473 L 66.5221047688802,103.965779445495 L 66.6257378601609,103.950753362381 L 66.7289421019686,103.933019630256 L 66.8316467632711,103.912590402935 L 66.9337814554236,103.889479681591 L 67.0352761804101,103.863703305156 L 67.1360613788157,103.835278939473 L 67.2360679774998,103.804226065181 L 67.3352274369351,103.770565964369 L 67.4334717981812,103.734321705989 L 67.5307337294604,103.695518130045 L 67.6269465723032,103.65418183057 L 67.7220443872332,103.6103411374 L 67.8159619989582,103.564026096754 L 67.9086350410385,103.515268450648 L 68.0,103.464101615138 L 68.0899942588638,103.410560657416 L 68.1785561400601,103.354682271782 L 68.2656249476993,103.296504754488 L 68.3511410091699,103.2360679775 L 68.4350457160349,103.173413361165 L 68.5172815641994,103.108583845828 L 68.5977921933207,103.0416238624 L 68.6765224254355,102.97257930191 L 68.753418302775,102.901497484049 L 68.8284271247462,102.828427124746 L 68.9014974840492,102.753418302775 L 68.9725793019096,102.676522425436 L 69.0416238624001,102.597792193321 L 69.1085838458279,102.517281564199 L 69.1734133611649,102.435045716035 L 69.2360679774998,102.35114100917 L 69.2965047544881,102.265624947699 L 69.3546822717817,102.17855614006 L 69.4105606574164,102.089994258864 L 69.4641016151378,102.0 L 69.5152684506479,101.908635041039 L 69.5640260967535,101.815961998958 L 69.6103411373995,101.722044387233 L 69.6541818305704,101.626946572303 L 69.6955181300452,101.53073372946 L 69.7343217059888,101.433471798181 L 69.7705659643687,101.335227436935 L 69.8042260651806,101.2360679775 L 69.8352789394728,101.136061378816 L 69.8637033051563,101.03527618041 L 69.8894796815907,100.933781455424 L 69.9125904029352,100.831646763271 L 69.9330196302558,100.728942101969 L 69.9507533623806,100.625737860161 L 69.9657794454953,100.52210476888 L 69.9780875814731,100.418113853071 L 69.9876693349325,100.313836382911 L 69.9945181390183,100.209343824972 L 69.9986292999022,100.104707793232 L 70.0,100.0 L 70.0,14.0000000000001 M 62.8686291501015,96.8686291501016 L 62.89863267889,96.8394010063804 L 62.9293910298258,96.8109682792363 L 62.9608831226717,96.7833504550401 L 62.9930873743203,96.7565664616689 L 63.0259817135861,96.7306346555341 L 63.059543596332,96.7055728090002 L 63.0937500209203,96.6813980982049 L 63.128577543976,96.6581270912874 L 63.1640022964545,96.6357757370336 L 63.2,96.614359353945 L 63.2365459835847,96.593892619741 L 63.2736152004167,96.5743895612987 L 63.3111822451067,96.5558635450403 L 63.3492213710787,96.5383272677719 L 63.3877065082159,96.521792747982 L 63.4266112807275,96.5062713176046 L 63.465909025226,96.4917736142526 L 63.5055728090001,96.4783095739279 L 63.5455754484737,96.465888424211 L 63.585889527836,96.4545186779376 L 63.6264874178305,96.4442081273638 L 63.6673412946916,96.434963838826 L 63.7084231592126,96.4267921478978 L 63.7497048559356,96.4196986550479 L 63.7911580924479,96.413688221802 L 63.8327544587718,96.4087649674109 L 63.8744654468355,96.4049322660271 L 63.9162624700113,96.4021927443928 L 63.9581168827074,96.4005482800392 L 64.0,96.4000000000001 L 64.0418831172926,96.4005482800392 L 64.0837375299887,96.4021927443928 L 64.1255345531646,96.4049322660271 L 64.1672455412283,96.4087649674109 L 64.2088419075521,96.413688221802 L 64.2502951440644,96.4196986550479 L 64.2915768407874,96.4267921478978 L 64.3326587053084,96.434963838826 L 64.3735125821695,96.4442081273638 L 64.414110472164,96.4545186779376 L 64.4544245515263,96.465888424211 L 64.4944271909999,96.4783095739279 L 64.534090974774,96.4917736142526 L 64.5733887192725,96.5062713176046 L 64.6122934917842,96.521792747982 L 64.6507786289213,96.5383272677719 L 64.6888177548933,96.5558635450403 L 64.7263847995833,96.5743895612987 L 64.7634540164154,96.593892619741 L 64.8,96.614359353945 L 64.8359977035455,96.6357757370336 L 64.8714224560241,96.6581270912874 L 64.9062499790797,96.6813980982049 L 64.940456403668,96.7055728090002 L 64.974018286414,96.7306346555341 L 65.0069126256798,96.7565664616689 L 65.0391168773283,96.7833504550401 L 65.0706089701742,96.8109682792362 L 65.10136732111,96.8394010063804 L 65.1313708498985,96.8686291501016 L 65.1605989936197,96.8986326788901 L 65.1890317207639,96.9293910298259 L 65.2166495449601,96.9608831226718 L 65.2434335383312,96.9930873743203 L 65.269365344466,97.0259817135861 L 65.2944271909999,97.0595435963321 L 65.3186019017952,97.0937500209204 L 65.3418729087127,97.1285775439761 L 65.3642242629666,97.1640022964546 L 65.3856406460551,97.2000000000001 L 65.4061073802592,97.2365459835847 L 65.4256104387014,97.2736152004168 L 65.4441364549598,97.3111822451068 L 65.4616727322282,97.3492213710788 L 65.4782072520181,97.387706508216 L 65.4937286823955,97.4266112807276 L 65.5082263857475,97.4659090252261 L 65.5216904260723,97.5055728090002 L 65.5341115757891,97.5455754484738 L 65.5454813220625,97.5858895278361 L 65.5557918726363,97.6264874178306 L 65.5650361611741,97.6673412946917 L 65.5732078521024,97.7084231592127 L 65.5803013449522,97.7497048559357 L 65.5863117781981,97.791158092448 L 65.5912350325893,97.8327544587719 L 65.595067733973,97.8744654468355 L 65.5978072556073,97.9162624700114 L 65.5994517199609,97.9581168827075 L 65.6,98.0000000000001 L 65.5994517199609,98.0418831172927 L 65.5978072556073,98.0837375299888 L 65.595067733973,98.1255345531646 L 65.5912350325893,98.1672455412283 L 65.5863117781981,98.2088419075522 L 65.5803013449522,98.2502951440645 L 65.5732078521023,98.2915768407875 L 65.5650361611741,98.3326587053085 L 65.5557918726363,98.3735125821696 L 65.5454813220625,98.4141104721641 L 65.5341115757891,98.4544245515264 L 65.5216904260723,98.494427191 L 65.5082263857475,98.5340909747741 L 65.4937286823955,98.5733887192726 L 65.4782072520181,98.6122934917842 L 65.4616727322282,98.6507786289214 L 65.4441364549598,98.6888177548934 L 65.4256104387014,98.7263847995834 L 65.4061073802592,98.7634540164155 L 65.3856406460551,98.8000000000001 L 65.3642242629665,98.8359977035456 L 65.3418729087127,98.8714224560241 L 65.3186019017952,98.9062499790798 L 65.2944271909999,98.940456403668 L 65.269365344466,98.974018286414 L 65.2434335383312,99.0069126256798 L 65.2166495449601,99.0391168773284 L 65.1890317207639,99.0706089701743 L 65.1605989936197,99.1013673211101 L 65.1313708498985,99.1313708498986 L 65.10136732111,99.1605989936198 L 65.0706089701742,99.1890317207639 L 65.0391168773283,99.2166495449601 L 65.0069126256798,99.2434335383313 L 64.974018286414,99.2693653444661 L 64.940456403668,99.294427191 L 64.9062499790797,99.3186019017953 L 64.8714224560241,99.3418729087128 L 64.8359977035455,99.3642242629666 L 64.8,99.3856406460552 L 64.7634540164154,99.4061073802592 L 64.7263847995833,99.4256104387015 L 64.6888177548933,99.4441364549599 L 64.6507786289213,99.4616727322283 L 64.6122934917842,99.4782072520181 L 64.5733887192725,99.4937286823956 L 64.534090974774,99.5082263857476 L 64.4944271909999,99.5216904260723 L 64.4544245515263,99.5341115757892 L 64.414110472164,99.5454813220626 L 64.3735125821695,99.5557918726364 L 64.3326587053084,99.5650361611742 L 64.2915768407874,99.5732078521024 L 64.2502951440644,99.5803013449523 L 64.2088419075521,99.5863117781982 L 64.1672455412283,99.5912350325893 L 64.1255345531646,99.5950677339731 L 64.0837375299887,99.5978072556074 L 64.0418831172926,99.599451719961 L 64.0,99.6000000000001 L 63.9581168827074,99.599451719961 L 63.9162624700113,99.5978072556074 L 63.8744654468354,99.5950677339731 L 63.8327544587718,99.5912350325893 L 63.7911580924479,99.5863117781982 L 63.7497048559356,99.5803013449523 L 63.7084231592126,99.5732078521024 L 63.6673412946916,99.5650361611742 L 63.6264874178306,99.5557918726364 L 63.585889527836,99.5454813220626 L 63.5455754484737,99.5341115757892 L 63.5055728090001,99.5216904260724 L 63.465909025226,99.5082263857476 L 63.4266112807275,99.4937286823956 L 63.3877065082159,99.4782072520182 L 63.3492213710787,99.4616727322283 L 63.3111822451067,99.4441364549599 L 63.2736152004167,99.4256104387015 L 63.2365459835846,99.4061073802592 L 63.2,99.3856406460552 L 63.1640022964545,99.3642242629666 L 63.128577543976,99.3418729087128 L 63.0937500209203,99.3186019017953 L 63.059543596332,99.294427191 L 63.0259817135861,99.2693653444661 L 62.9930873743203,99.2434335383313 L 62.9608831226717,99.2166495449601 L 62.9293910298258,99.1890317207639 L 62.89863267889,99.1605989936198 L 62.8686291501015,99.1313708498986 L 62.8394010063804,99.1013673211101 L 62.8109682792362,99.0706089701743 L 62.78335045504,99.0391168773284 L 62.7565664616689,99.0069126256798 L 62.730634655534,98.974018286414 L 62.7055728090001,98.940456403668 L 62.6813980982048,98.9062499790798 L 62.6581270912873,98.8714224560241 L 62.6357757370335,98.8359977035456 L 62.6143593539449,98.8000000000001 L 62.5938926197409,98.7634540164155 L 62.5743895612986,98.7263847995834 L 62.5558635450402,98.6888177548934 L 62.5383272677719,98.6507786289214 L 62.521792747982,98.6122934917842 L 62.5062713176045,98.5733887192726 L 62.4917736142525,98.5340909747741 L 62.4783095739278,98.494427191 L 62.4658884242109,98.4544245515264 L 62.4545186779375,98.4141104721641 L 62.4442081273637,98.3735125821696 L 62.4349638388259,98.3326587053085 L 62.4267921478977,98.2915768407875 L 62.4196986550478,98.2502951440645 L 62.4136882218019,98.2088419075522 L 62.4087649674108,98.1672455412283 L 62.404932266027,98.1255345531646 L 62.4021927443927,98.0837375299888 L 62.4005482800391,98.0418831172927 L 62.4,98.0000000000001 L 62.4005482800391,97.9581168827075 L 62.4021927443927,97.9162624700114 L 62.404932266027,97.8744654468355 L 62.4087649674108,97.8327544587719 L 62.4136882218019,97.791158092448 L 62.4196986550478,97.7497048559357 L 62.4267921478977,97.7084231592127 L 62.4349638388259,97.6673412946917 L 62.4442081273637,97.6264874178306 L 62.4545186779375,97.5858895278361 L 62.4658884242109,97.5455754484738 L 62.4783095739278,97.5055728090002 L 62.4917736142525,97.4659090252261 L 62.5062713176045,97.4266112807276 L 62.5217927479819,97.387706508216 L 62.5383272677718,97.3492213710788 L 62.5558635450403,97.3111822451068 L 62.5743895612986,97.2736152004168 L 62.5938926197409,97.2365459835847 L 62.6143593539449,97.2000000000001 L 62.6357757370335,97.1640022964546 L 62.6581270912873,97.1285775439761 L 62.6813980982048,97.0937500209204 L 62.7055728090001,97.0595435963322 L 62.730634655534,97.0259817135861 L 62.7565664616689,96.9930873743204 L 62.78335045504,96.9608831226718 L 62.8109682792362,96.9293910298259 L 62.8394010063804,96.8986326788901 L 62.8686291501015,96.8686291501016 M 16.7634540164154,99.4061073802592 L 16.7263847995833,99.4256104387015 L 16.6888177548933,99.4441364549599 L 16.6507786289213,99.4616727322282 L 16.6122934917842,99.4782072520181 L 16.5733887192725,99.4937286823956 L 16.5340909747741,99.5082263857476 L 16.4944271909999,99.5216904260724 L 16.4544245515263,99.5341115757892 L 16.4141104721641,99.5454813220626 L 16.3735125821695,99.5557918726363 L 16.3326587053084,99.5650361611742 L 16.2915768407875,99.5732078521024 L 16.2502951440644,99.5803013449523 L 16.2088419075521,99.5863117781982 L 16.1672455412283,99.5912350325893 L 16.1255345531646,99.5950677339731 L 16.0837375299887,99.5978072556074 L 16.0418831172926,99.599451719961 L 16.0,99.6000000000001 L 15.9581168827074,99.599451719961 L 15.9162624700113,99.5978072556074 L 15.8744654468355,99.5950677339731 L 15.8327544587718,99.5912350325893 L 15.7911580924479,99.5863117781982 L 15.7497048559357,99.5803013449523 L 15.7084231592126,99.5732078521024 L 15.6673412946916,99.5650361611742 L 15.6264874178305,99.5557918726363 L 15.585889527836,99.5454813220626 L 15.5455754484737,99.5341115757892 L 15.5055728090001,99.5216904260724 L 15.465909025226,99.5082263857476 L 15.4266112807275,99.4937286823956 L 15.3877065082159,99.4782072520182 L 15.3492213710787,99.4616727322283 L 15.3111822451068,99.4441364549599 L 15.2736152004167,99.4256104387015 L 15.2365459835847,99.4061073802592 L 15.2,99.3856406460552 L 15.1640022964545,99.3642242629666 L 15.128577543976,99.3418729087128 L 15.0937500209203,99.3186019017953 L 15.0595435963321,99.294427191 L 15.0259817135861,99.2693653444661 L 14.9930873743203,99.2434335383313 L 14.9608831226717,99.2166495449601 L 14.9293910298258,99.1890317207639 L 14.89863267889,99.1605989936197 L 14.8686291501015,99.1313708498986 L 14.8394010063803,99.1013673211101 L 14.8109682792362,99.0706089701742 L 14.78335045504,99.0391168773284 L 14.7565664616688,99.0069126256798 L 14.730634655534,98.974018286414 L 14.7055728090001,98.9404564036681 L 14.6813980982048,98.9062499790798 L 14.6581270912874,98.8714224560241 L 14.6357757370335,98.8359977035456 L 14.6143593539449,98.8000000000001 L 14.5938926197409,98.7634540164155 L 14.5743895612987,98.7263847995834 L 14.5558635450402,98.6888177548934 L 14.5383272677718,98.6507786289214 L 14.5217927479819,98.6122934917842 L 14.5062713176045,98.5733887192726 L 14.4917736142525,98.5340909747741 L 14.4783095739278,98.494427191 L 14.4658884242109,98.4544245515264 L 14.4545186779375,98.4141104721641 L 14.4442081273637,98.3735125821696 L 14.4349638388259,98.3326587053085 L 14.4267921478977,98.2915768407875 L 14.4196986550478,98.2502951440645 L 14.4136882218019,98.2088419075522 L 14.4087649674108,98.1672455412283 L 14.404932266027,98.1255345531646 L 14.4021927443927,98.0837375299888 L 14.4005482800391,98.0418831172927 L 14.4,98.0000000000001 L 14.4005482800391,97.9581168827075 L 14.4021927443927,97.9162624700114 L 14.404932266027,97.8744654468355 L 14.4087649674107,97.8327544587718 L 14.4136882218019,97.791158092448 L 14.4196986550478,97.7497048559357 L 14.4267921478977,97.7084231592127 L 14.4349638388259,97.6673412946917 L 14.4442081273637,97.6264874178306 L 14.4545186779375,97.5858895278361 L 14.4658884242109,97.5455754484738 L 14.4783095739278,97.5055728090002 L 14.4917736142525,97.4659090252261 L 14.5062713176045,97.4266112807276 L 14.5217927479819,97.387706508216 L 14.5383272677718,97.3492213710788 L 14.5558635450402,97.3111822451068 L 14.5743895612986,97.2736152004168 L 14.5938926197408,97.2365459835847 L 14.6143593539449,97.2000000000001 L 14.6357757370335,97.1640022964546 L 14.6581270912873,97.1285775439761 L 14.6813980982048,97.0937500209204 L 14.7055728090001,97.0595435963322 L 14.730634655534,97.0259817135861 L 14.7565664616688,96.9930873743203 L 14.78335045504,96.9608831226718 L 14.8109682792362,96.9293910298259 L 14.8394010063803,96.8986326788901 L 14.8686291501016,96.8686291501016 L 14.89863267889,96.8394010063804 L 14.9293910298258,96.8109682792362 L 14.9608831226717,96.78335045504 L 14.9930873743203,96.7565664616689 L 15.0259817135861,96.7306346555341 L 15.0595435963321,96.7055728090002 L 15.0937500209203,96.6813980982049 L 15.128577543976,96.6581270912874 L 15.1640022964545,96.6357757370336 L 15.2,96.614359353945 L 15.2365459835846,96.593892619741 L 15.2736152004167,96.5743895612987 L 15.3111822451068,96.5558635450403 L 15.3492213710787,96.5383272677719 L 15.3877065082159,96.521792747982 L 15.4266112807275,96.5062713176046 L 15.465909025226,96.4917736142526 L 15.5055728090001,96.4783095739278 L 15.5455754484737,96.465888424211 L 15.585889527836,96.4545186779376 L 15.6264874178306,96.4442081273638 L 15.6673412946916,96.434963838826 L 15.7084231592126,96.4267921478978 L 15.7497048559357,96.4196986550479 L 15.7911580924479,96.413688221802 L 15.8327544587718,96.4087649674109 L 15.8744654468354,96.4049322660271 L 15.9162624700113,96.4021927443928 L 15.9581168827074,96.4005482800392 L 16.0,96.4000000000001 L 16.0418831172926,96.4005482800392 L 16.0837375299887,96.4021927443928 L 16.1255345531646,96.4049322660271 L 16.1672455412283,96.4087649674109 L 16.2088419075521,96.413688221802 L 16.2502951440644,96.4196986550479 L 16.2915768407874,96.4267921478978 L 16.3326587053085,96.434963838826 L 16.3735125821695,96.4442081273638 L 16.4141104721641,96.4545186779376 L 16.4544245515263,96.465888424211 L 16.4944271909999,96.4783095739279 L 16.534090974774,96.4917736142526 L 16.5733887192725,96.5062713176046 L 16.6122934917842,96.521792747982 L 16.6507786289213,96.5383272677719 L 16.6888177548933,96.5558635450403 L 16.7263847995833,96.5743895612987 L 16.7634540164154,96.593892619741 L 16.8,96.614359353945 L 16.8359977035455,96.6357757370336 L 16.8714224560241,96.6581270912874 L 16.9062499790797,96.6813980982049 L 16.940456403668,96.7055728090002 L 16.974018286414,96.7306346555341 L 17.0069126256798,96.7565664616689 L 17.0391168773283,96.7833504550401 L 17.0706089701742,96.8109682792363 L 17.10136732111,96.8394010063804 L 17.1313708498985,96.8686291501016 L 17.1605989936197,96.8986326788901 L 17.1890317207639,96.9293910298259 L 17.2166495449601,96.9608831226718 L 17.2434335383312,96.9930873743203 L 17.269365344466,97.0259817135862 L 17.2944271909999,97.0595435963322 L 17.3186019017953,97.0937500209204 L 17.3418729087127,97.128577543976 L 17.3642242629666,97.1640022964546 L 17.3856406460551,97.2000000000001 L 17.4061073802592,97.2365459835847 L 17.4256104387014,97.2736152004168 L 17.4441364549598,97.3111822451068 L 17.4616727322282,97.3492213710788 L 17.4782072520181,97.387706508216 L 17.4937286823956,97.4266112807276 L 17.5082263857475,97.4659090252261 L 17.5216904260723,97.5055728090002 L 17.5341115757891,97.5455754484738 L 17.5454813220625,97.5858895278361 L 17.5557918726363,97.6264874178306 L 17.5650361611741,97.6673412946917 L 17.5732078521023,97.7084231592127 L 17.5803013449522,97.7497048559357 L 17.5863117781981,97.791158092448 L 17.5912350325893,97.8327544587719 L 17.595067733973,97.8744654468356 L 17.5978072556073,97.9162624700114 L 17.5994517199609,97.9581168827075 L 17.6,98.0000000000001 L 17.5994517199609,98.0418831172927 L 17.5978072556073,98.0837375299888 L 17.595067733973,98.1255345531647 L 17.5912350325893,98.1672455412283 L 17.5863117781981,98.2088419075522 L 17.5803013449522,98.2502951440645 L 17.5732078521023,98.2915768407875 L 17.5650361611741,98.3326587053085 L 17.5557918726363,98.3735125821696 L 17.5454813220625,98.4141104721641 L 17.5341115757891,98.4544245515264 L 17.5216904260722,98.494427191 L 17.5082263857475,98.5340909747741 L 17.4937286823955,98.5733887192726 L 17.4782072520181,98.6122934917842 L 17.4616727322282,98.6507786289214 L 17.4441364549598,98.6888177548934 L 17.4256104387014,98.7263847995834 L 17.4061073802592,98.7634540164155 L 17.3856406460551,98.8000000000001 L 17.3642242629666,98.8359977035456 L 17.3418729087127,98.8714224560241 L 17.3186019017952,98.9062499790798 L 17.2944271909999,98.9404564036681 L 17.269365344466,98.974018286414 L 17.2434335383312,99.0069126256799 L 17.21664954496,99.0391168773284 L 17.1890317207639,99.0706089701742 L 17.1605989936197,99.1013673211101 L 17.1313708498985,99.1313708498986 L 17.10136732111,99.1605989936197 L 17.0706089701742,99.1890317207639 L 17.0391168773283,99.2166495449601 L 17.0069126256798,99.2434335383313 L 16.974018286414,99.2693653444661 L 16.940456403668,99.294427191 L 16.9062499790798,99.3186019017953 L 16.871422456024,99.3418729087128 L 16.8359977035456,99.3642242629666 L 16.8,99.3856406460552 L 16.7634540164154,99.4061073802592 M 16.0,17.6000000000001 L 15.9581168827074,17.5994517199609 L 15.9162624700113,17.5978072556074 L 15.8744654468355,17.5950677339731 L 15.8327544587718,17.5912350325893 L 15.7911580924479,17.5863117781982 L 15.7497048559356,17.5803013449522 L 15.7084231592126,17.5732078521025 L 15.6673412946916,17.5650361611741 L 15.6264874178306,17.5557918726364 L 15.585889527836,17.5454813220626 L 15.5455754484737,17.5341115757892 L 15.5055728090001,17.5216904260724 L 15.465909025226,17.5082263857477 L 15.4266112807275,17.4937286823955 L 15.3877065082159,17.4782072520182 L 15.3492213710787,17.4616727322284 L 15.3111822451068,17.4441364549599 L 15.2736152004167,17.4256104387016 L 15.2365459835846,17.4061073802592 L 15.2,17.3856406460552 L 15.1640022964545,17.3642242629667 L 15.128577543976,17.3418729087127 L 15.0937500209203,17.3186019017952 L 15.0595435963321,17.2944271909999 L 15.0259817135861,17.269365344466 L 14.9930873743203,17.2434335383313 L 14.9608831226717,17.2166495449602 L 14.9293910298259,17.189031720764 L 14.89863267889,17.1605989936198 L 14.8686291501015,17.1313708498985 L 14.8394010063804,17.10136732111 L 14.8109682792362,17.0706089701744 L 14.78335045504,17.0391168773284 L 14.7565664616689,17.0069126256799 L 14.730634655534,16.9740182864139 L 14.7055728090001,16.940456403668 L 14.6813980982048,16.9062499790799 L 14.6581270912873,16.8714224560241 L 14.6357757370335,16.8359977035456 L 14.6143593539449,16.8000000000001 L 14.5938926197409,16.7634540164156 L 14.5743895612986,16.7263847995834 L 14.5558635450402,16.6888177548933 L 14.5383272677719,16.6507786289213 L 14.521792747982,16.6122934917842 L 14.5062713176045,16.5733887192727 L 14.4917736142525,16.534090974774 L 14.4783095739278,16.494427191 L 14.4658884242109,16.4544245515264 L 14.4545186779375,16.414110472164 L 14.4442081273637,16.3735125821696 L 14.4349638388259,16.3326587053086 L 14.4267921478977,16.2915768407875 L 14.4196986550478,16.2502951440644 L 14.4136882218019,16.2088419075522 L 14.4087649674108,16.1672455412283 L 14.404932266027,16.1255345531646 L 14.4021927443927,16.0837375299886 L 14.4005482800391,16.0418831172926 L 14.4,16.0 L 14.4005482800391,15.9581168827074 L 14.4021927443927,15.9162624700113 L 14.404932266027,15.8744654468356 L 14.4087649674108,15.8327544587718 L 14.4136882218019,15.7911580924479 L 14.4196986550478,15.7497048559358 L 14.4267921478977,15.7084231592127 L 14.4349638388259,15.6673412946919 L 14.4442081273637,15.6264874178306 L 14.4545186779375,15.5858895278361 L 14.4658884242109,15.5455754484738 L 14.4783095739278,15.5055728089999 L 14.4917736142525,15.4659090252263 L 14.5062713176045,15.4266112807278 L 14.521792747982,15.3877065082161 L 14.5383272677719,15.3492213710791 L 14.5558635450402,15.3111822451067 L 14.5743895612986,15.2736152004167 L 14.5938926197409,15.2365459835851 L 14.6143593539449,15.2000000000004 L 14.6357757370335,15.1640022964543 L 14.6581270912873,15.128577543976 L 14.6813980982048,15.0937500209208 L 14.7055728090001,15.0595435963317 L 14.730634655534,15.0259817135861 L 14.7565664616689,14.9930873743204 L 14.78335045504,14.960883122672 L 14.8109682792362,14.9293910298262 L 14.8394010063804,14.8986326788903 L 14.8686291501015,14.8686291501015 L 14.89863267889,14.8394010063798 L 14.9293910298258,14.8109682792366 L 14.9608831226717,14.78335045504 L 14.9930873743203,14.7565664616686 L 15.0259817135861,14.7306346555335 L 15.0595435963321,14.705572809001 L 15.0937500209203,14.6813980982046 L 15.128577543976,14.6581270912878 L 15.1640022964545,14.6357757370343 L 15.2,14.6143593539448 L 15.2365459835846,14.5938926197406 L 15.2736152004167,14.5743895612996 L 15.3111822451068,14.5558635450401 L 15.3492213710787,14.5383272677721 L 15.3877065082159,14.5217927479829 L 15.4266112807275,14.5062713176038 L 15.465909025226,14.4917736142522 L 15.5055728090001,14.4783095739276 L 15.5455754484737,14.4658884242115 L 15.585889527836,14.4545186779381 L 15.6264874178306,14.4442081273641 L 15.6673412946916,14.434963838827 L 15.7084231592126,14.4267921478976 L 15.7497048559356,14.4196986550467 L 15.7911580924479,14.4136882218013 L 15.8327544587718,14.4087649674105 L 15.8744654468355,14.4049322660269 L 15.9162624700113,14.4021927443929 L 15.9581168827074,14.4005482800393 L 16.0,14.4000000000007 L 16.0418831172926,14.4005482800389 L 16.0837375299887,14.4021927443926 L 16.1255345531646,14.404932266027 L 16.1672455412283,14.4087649674108 L 16.2088419075521,14.413688221801 L 16.2502951440644,14.4196986550469 L 16.2915768407875,14.4267921478982 L 16.3326587053084,14.4349638388265 L 16.3735125821695,14.4442081273649 L 16.4141104721641,14.4545186779377 L 16.4544245515263,14.4658884242101 L 16.4944271909999,14.4783095739271 L 16.534090974774,14.4917736142533 L 16.5733887192725,14.5062713176039 L 16.6122934917842,14.5217927479819 L 16.6507786289213,14.5383272677718 L 16.6888177548933,14.555863545041 L 16.7263847995833,14.5743895612989 L 16.7634540164154,14.593892619741 L 16.8,14.6143593539451 L 16.8359977035455,14.635775737034 L 16.8714224560241,14.6581270912874 L 16.9062499790797,14.681398098205 L 16.940456403668,14.7055728090008 L 16.974018286414,14.7306346555342 L 17.0069126256798,14.7565664616692 L 17.0391168773283,14.78335045504 L 17.0706089701742,14.8109682792365 L 17.10136732111,14.8394010063803 L 17.1313708498985,14.8686291501013 L 17.1605989936197,14.8986326788902 L 17.1890317207638,14.9293910298256 L 17.2166495449601,14.9608831226718 L 17.2434335383312,14.9930873743203 L 17.269365344466,15.0259817135864 L 17.2944271909999,15.0595435963323 L 17.3186019017952,15.0937500209206 L 17.3418729087127,15.1285775439763 L 17.3642242629666,15.1640022964547 L 17.3856406460551,15.2 L 17.4061073802592,15.2365459835847 L 17.4256104387014,15.2736152004169 L 17.4441364549598,15.3111822451068 L 17.4616727322282,15.349221371079 L 17.4782072520181,15.3877065082158 L 17.4937286823955,15.4266112807275 L 17.5082263857475,15.4659090252259 L 17.5216904260723,15.5055728090003 L 17.5341115757891,15.5455754484737 L 17.5454813220625,15.585889527836 L 17.5557918726363,15.6264874178309 L 17.5650361611741,15.6673412946918 L 17.5732078521023,15.7084231592125 L 17.5803013449522,15.7497048559354 L 17.5863117781981,15.7911580924479 L 17.5912350325892,15.8327544587717 L 17.595067733973,15.8744654468354 L 17.5978072556073,15.9162624700113 L 17.5994517199609,15.9581168827076 L 17.6,16.0000000000001 L 17.5994517199609,16.0418831172929 L 17.5978072556073,16.0837375299886 L 17.595067733973,16.1255345531648 L 17.5912350325892,16.1672455412283 L 17.5863117781981,16.2088419075522 L 17.5803013449522,16.2502951440645 L 17.5732078521023,16.2915768407874 L 17.5650361611741,16.3326587053086 L 17.5557918726363,16.3735125821695 L 17.5454813220625,16.414110472164 L 17.5341115757891,16.4544245515263 L 17.5216904260723,16.4944271909999 L 17.5082263857475,16.5340909747741 L 17.4937286823955,16.5733887192728 L 17.4782072520181,16.6122934917842 L 17.4616727322282,16.6507786289214 L 17.4441364549598,16.6888177548934 L 17.4256104387014,16.7263847995833 L 17.4061073802592,16.7634540164155 L 17.3856406460551,16.8000000000002 L 17.3642242629666,16.8359977035457 L 17.3418729087127,16.8714224560241 L 17.3186019017952,16.9062499790799 L 17.2944271909999,16.940456403668 L 17.269365344466,16.9740182864141 L 17.2434335383312,17.0069126256799 L 17.2166495449601,17.0391168773284 L 17.1890317207638,17.0706089701744 L 17.1605989936197,17.10136732111 L 17.1313708498985,17.1313708498986 L 17.10136732111,17.1605989936198 L 17.0706089701742,17.1890317207638 L 17.0391168773283,17.2166495449601 L 17.0069126256798,17.2434335383311 L 16.974018286414,17.2693653444661 L 16.940456403668,17.294427191 L 16.9062499790797,17.3186019017954 L 16.8714224560241,17.3418729087129 L 16.8359977035455,17.3642242629667 L 16.8,17.3856406460552 L 16.7634540164154,17.4061073802592 L 16.7263847995833,17.4256104387015 L 16.6888177548933,17.4441364549599 L 16.6507786289213,17.4616727322283 L 16.6122934917842,17.4782072520182 L 16.5733887192725,17.4937286823956 L 16.534090974774,17.5082263857475 L 16.4944271909999,17.5216904260725 L 16.4544245515263,17.5341115757892 L 16.4141104721641,17.5454813220625 L 16.3735125821695,17.5557918726365 L 16.3326587053084,17.5650361611741 L 16.2915768407874,17.5732078521023 L 16.2502951440644,17.5803013449523 L 16.2088419075521,17.5863117781982 L 16.1672455412283,17.5912350325894 L 16.1255345531646,17.5950677339732 L 16.0837375299887,17.5978072556074 L 16.0418831172926,17.599451719961 L 16.0,17.6000000000001 M 18.2483857955493,76.7221429266832 L 18.3116023259943,76.7687457240077 L 18.3735772746966,76.8169873675671 L 18.4342681671221,76.8668347949487 L 18.4936334087647,76.9182538432158 L 18.5516323136531,76.9712092723209 L 18.6082251322351,77.0256647892583 L 18.6633730786196,77.0815830729366 L 18.717038357159,77.1389257997576 L 18.7691841883519,77.1976536698805 L 18.8197748340504,77.2577264341567 L 18.8687756219529,77.3191029217142 L 18.9161529693672,77.3817410681743 L 18.9618744062258,77.4455979444803 L 19.0059085973397,77.5106297863188 L 19.0482253638739,77.5767920241139 L 19.0887957040305,77.6440393135727 L 19.1275918129247,77.712325566762 L 19.1645871016415,77.7816039836949 L 19.1997562154579,77.851827084405 L 19.23307505122,77.9229467414867 L 19.2645207738623,77.9949142130796 L 19.294071832057,78.0676801762736 L 19.321707972985,78.1411947609121 L 19.3474102562157,78.2154075837711 L 19.3711610666883,78.2902677830887 L 19.3929441267833,78.3657240534236 L 19.4127445074797,78.4417246808174 L 19.4305486385854,78.5182175782363 L 19.4463443180385,78.5951503212693 L 19.4601207202692,78.6724701840573 L 19.4718684036195,78.7501241754284 L 19.4815793168141,78.8280590752159 L 19.4892468044782,78.9062214707325 L 19.4948656116986,78.9845577933765 L 19.4984318876258,79.0630143553455 L 19.4999431881121,79.1415373864307 L 19.4993984773878,79.220073070869 L 19.4967981287705,79.2985675842253 L 19.492143924409,79.3769671302809 L 19.4854390540627,79.4552179779032 L 19.4766881129148,79.5332664978699 L 19.4658970984231,79.611059199624 L 19.4530734062101,79.6885427679337 L 19.4382258249937,79.7656640994315 L 19.4213645305646,79.8423703390091 L 19.4025010788116,79.9186089160416 L 19.3816483978024,79.9943275804163 L 19.3588207789228,80.0694744383431 L 19.3340338670827,80.143997987919 L 19.3073046499932,80.2178471544258 L 19.2786514465246,80.2909713253336 L 19.2480938941513,80.3633203849884 L 19.2156529354933,80.4348447489584 L 19.1813508039632,80.5054953980174 L 19.1452110085286,80.5752239117397 L 19.1072583175999,80.6439825016848 L 19.0675187420558,80.7117240441498 L 19.0260195174163,80.7784021124653 L 18.9827890851771,80.843971008814 L 18.9378570733169,80.9083857955494 L 18.8912542759924,80.9716023259944 L 18.843012632433,81.0335772746967 L 18.7931652050514,81.0942681671222 L 18.7417461567844,81.1536334087648 L 18.6887907276792,81.2116323136532 L 18.6343352107419,81.2682251322352 L 18.5784169270635,81.3233730786197 L 18.5210742002425,81.3770383571591 L 18.4623463301196,81.429184188352 L 18.4022735658434,81.4797748340504 L 18.3408970782859,81.528775621953 L 18.2782589318258,81.5761529693673 L 18.2144020555198,81.6218744062258 L 18.1493702136813,81.6659085973398 L 18.0832079758862,81.708225363874 L 18.0159606864275,81.7487957040306 L 17.9476744332381,81.7875918129248 L 17.8783960163052,81.8245871016415 L 17.8081729155951,81.859756215458 L 17.7370532585134,81.8930750512201 L 17.6650857869205,81.9245207738624 L 17.5923198237265,81.954071832057 L 17.518805239088,81.9817079729851 L 17.4445924162291,82.0074102562158 L 17.3697322169115,82.0311610666883 L 17.2942759465765,82.0529441267834 L 17.2182753191827,82.0727445074798 L 17.1417824217638,82.0905486385855 L 17.0648496787308,82.1063443180386 L 16.9875298159429,82.1201207202692 L 16.9098758245717,82.1318684036196 L 16.8319409247842,82.1415793168142 L 16.7537785292676,82.1492468044783 L 16.6754422066236,82.1548656116987 L 16.5969856446547,82.1584318876259 L 16.5184626135695,82.1599431881122 L 16.4399269291311,82.1593984773879 L 16.3614324157749,82.1567981287705 L 16.2830328697192,82.1521439244091 L 16.2047820220969,82.1454390540628 L 16.1267335021302,82.1366881129149 L 16.0489408003761,82.1258970984232 L 15.9714572320664,82.1130734062102 L 15.8943359005686,82.0982258249938 L 15.817629660991,82.0813645305647 L 15.7413910839586,82.0625010788117 L 15.6656724195838,82.0416483978024 L 15.5905255616571,82.0188207789229 L 15.5160020120811,81.9940338670828 L 15.4421528455743,81.9673046499933 L 15.3690286746665,81.9386514465247 L 15.2966796150118,81.9080938941514 L 15.2251552510417,81.8756529354934 L 15.1545046019827,81.8413508039633 L 15.0847760882605,81.8052110085286 L 15.0160174983154,81.7672583176 L 14.9482759558503,81.7275187420559 L 14.8815978875348,81.6860195174164 L 14.8160289911861,81.6427890851772 L 14.7516142044507,81.597857073317 L 14.6883976740057,81.5512542759925 L 14.6264227253034,81.5030126324331 L 14.5657318328779,81.4531652050515 L 14.5063665912354,81.4017461567844 L 14.4483676863469,81.3487907276793 L 14.3917748677649,81.2943352107419 L 14.3366269213804,81.2384169270635 L 14.282961642841,81.1810742002426 L 14.2308158116481,81.1223463301197 L 14.1802251659497,81.0622735658435 L 14.1312243780471,81.000897078286 L 14.0838470306329,80.9382589318259 L 14.0381255937743,80.87440205552 L 13.9940914026604,80.8093702136814 L 13.9517746361261,80.7432079758863 L 13.9112042959696,80.6759606864275 L 13.8724081870754,80.6076744332382 L 13.8354128983586,80.5383960163053 L 13.8002437845421,80.4681729155952 L 13.76692494878,80.3970532585135 L 13.7354792261378,80.3250857869206 L 13.7059281679431,80.2523198237266 L 13.6782920270151,80.1788052390881 L 13.6525897437843,80.1045924162291 L 13.6288389333118,80.0297322169115 L 13.6070558732167,79.9542759465766 L 13.5872554925204,79.8782753191828 L 13.5694513614146,79.8017824217639 L 13.5536556819615,79.7248496787309 L 13.5398792797309,79.6475298159429 L 13.5281315963806,79.5698758245718 L 13.5184206831859,79.4919409247842 L 13.5107531955219,79.4137785292677 L 13.5051343883014,79.3354422066236 L 13.5015681123743,79.2569856446547 L 13.5000568118879,79.1784626135695 L 13.5006015226122,79.0999269291312 L 13.5032018712296,79.0214324157749 L 13.507856075591,78.9430328697193 L 13.5145609459373,78.864782022097 L 13.5233118870853,78.7867335021303 L 13.5341029015769,78.7089408003762 L 13.54692659379,78.6314572320665 L 13.5617741750063,78.5543359005687 L 13.5786354694355,78.4776296609911 L 13.5974989211884,78.4013910839586 L 13.6183516021977,78.3256724195839 L 13.6411792210772,78.2505255616571 L 13.6659661329173,78.1760020120812 L 13.6926953500068,78.1021528455744 L 13.7213485534754,78.0290286746665 L 13.7519061058487,77.9566796150118 L 13.7843470645067,77.8851552510418 L 13.8186491960368,77.8145046019827 L 13.8547889914715,77.7447760882606 L 13.8927416824002,77.6760174983154 L 13.9324812579442,77.6082759558504 L 13.9739804825837,77.5415978875348 L 14.017210914823,77.4760289911862 L 14.0621429266831,77.4116142044508 L 14.1087457240076,77.3483976740058 L 14.156987367567,77.2864227253035 L 14.2068347949486,77.225731832878 L 14.2582538432157,77.1663665912354 L 14.3112092723208,77.108367686347 L 14.3656647892582,77.051774867765 L 14.4215830729366,76.9966269213805 L 14.4789257997575,76.9429616428411 L 14.5376536698804,76.8908158116482 L 14.5977264341566,76.8402251659497 L 14.6591029217141,76.7912243780472 L 14.7217410681742,76.7438470306329 L 14.7855979444802,76.6981255937744 L 14.8506297863187,76.6540914026604 L 14.9167920241138,76.6117746361262 L 14.9840393135726,76.5712042959697 L 15.0523255667619,76.5324081870754 L 15.1216039836948,76.4954128983587 L 15.1918270844049,76.4602437845422 L 15.2629467414866,76.4269249487801 L 15.3349142130796,76.3954792261379 L 15.4076801762735,76.3659281679432 L 15.481194760912,76.3382920270151 L 15.555407583771,76.3125897437844 L 15.6302677830885,76.2888389333119 L 15.7057240534235,76.2670558732168 L 15.7817246808173,76.2472554925204 L 15.8582175782362,76.2294513614147 L 15.9351503212692,76.2136556819616 L 16.0124701840572,76.199879279731 L 16.0901241754283,76.1881315963806 L 16.1680590752159,76.178420683186 L 16.2462214707325,76.1707531955219 L 16.3245577933765,76.1651343883015 L 16.4030143553454,76.1615681123744 L 16.4815373864306,76.160056811888 L 16.5600730708689,76.1606015226123 L 16.6385675842252,76.1632018712296 L 16.7169671302808,76.1678560755911 L 16.7952179779031,76.1745609459374 L 16.8732664978698,76.1833118870854 L 16.951059199624,76.194102901577 L 17.0285427679336,76.20692659379 L 17.1056640994314,76.2217741750064 L 17.182370339009,76.2386354694356 L 17.2586089160415,76.2574989211885 L 17.3343275804162,76.2783516021977 L 17.409474438343,76.3011792210773 L 17.4839979879189,76.3259661329174 L 17.5578471544257,76.3526953500069 L 17.6309713253335,76.3813485534755 L 17.7033203849883,76.4119061058488 L 17.7748447489583,76.4443470645068 L 17.8454953980173,76.4786491960369 L 17.9152239117396,76.5147889914716 L 17.9839825016847,76.5527416824002 L 18.0517240441497,76.5924812579443 L 18.1184021124653,76.6339804825838 L 18.1839710088139,76.677210914823 L 18.2483857955493,76.7221429266832 M 58.4,18.0000000000001 L 62.1,18.0000000000001 L 62.1,24.0000000000001 L 58.4,24.0000000000001 L 57.0,24.0000000000001 L 57.0,25.7000000000001 L 23.0,25.7000000000001 L 23.0,15.7000000000001 L 57.0,15.7000000000001 L 57.0,18.0000000000001 L 58.4,18.0000000000001 M 64.0,17.6000000000001 L 63.9581168827074,17.599451719961 L 63.9162624700113,17.5978072556074 L 63.8744654468355,17.5950677339731 L 63.8327544587718,17.5912350325893 L 63.7911580924479,17.5863117781982 L 63.7497048559356,17.5803013449523 L 63.7084231592126,17.5732078521024 L 63.6673412946916,17.5650361611742 L 63.6264874178306,17.5557918726364 L 63.585889527836,17.5454813220626 L 63.5455754484737,17.5341115757892 L 63.5055728090001,17.5216904260724 L 63.465909025226,17.5082263857476 L 63.4266112807275,17.4937286823956 L 63.3877065082159,17.4782072520182 L 63.3492213710787,17.4616727322283 L 63.3111822451067,17.4441364549599 L 63.2736152004167,17.4256104387015 L 63.2365459835846,17.4061073802593 L 63.2,17.3856406460552 L 63.1640022964545,17.3642242629667 L 63.128577543976,17.3418729087128 L 63.0937500209203,17.3186019017953 L 63.0595435963321,17.294427191 L 63.0259817135861,17.2693653444661 L 62.9930873743203,17.2434335383313 L 62.9608831226717,17.2166495449602 L 62.9293910298258,17.1890317207639 L 62.89863267889,17.1605989936198 L 62.8686291501015,17.1313708498986 L 62.8394010063804,17.1013673211101 L 62.8109682792362,17.0706089701743 L 62.78335045504,17.0391168773284 L 62.7565664616689,17.0069126256798 L 62.730634655534,16.9740182864141 L 62.7055728090001,16.9404564036681 L 62.6813980982048,16.9062499790798 L 62.6581270912873,16.8714224560241 L 62.6357757370335,16.8359977035456 L 62.6143593539449,16.8000000000001 L 62.5938926197409,16.7634540164155 L 62.5743895612986,16.7263847995834 L 62.5558635450402,16.6888177548934 L 62.5383272677719,16.6507786289214 L 62.5217927479819,16.6122934917842 L 62.5062713176045,16.5733887192726 L 62.4917736142525,16.5340909747741 L 62.4783095739278,16.494427191 L 62.4658884242109,16.4544245515264 L 62.4545186779375,16.4141104721641 L 62.4442081273637,16.3735125821696 L 62.4349638388259,16.3326587053085 L 62.4267921478977,16.2915768407875 L 62.4196986550478,16.2502951440645 L 62.4136882218019,16.2088419075522 L 62.4087649674108,16.1672455412283 L 62.404932266027,16.1255345531647 L 62.4021927443927,16.0837375299888 L 62.4005482800391,16.0418831172927 L 62.4,16.0000000000001 L 62.4005482800391,15.9581168827075 L 62.4021927443927,15.9162624700114 L 62.404932266027,15.8744654468356 L 62.4087649674108,15.8327544587719 L 62.4136882218019,15.791158092448 L 62.4196986550478,15.7497048559357 L 62.4267921478977,15.7084231592127 L 62.4349638388259,15.6673412946917 L 62.4442081273637,15.6264874178307 L 62.4545186779375,15.5858895278361 L 62.4658884242109,15.5455754484738 L 62.4783095739278,15.5055728090002 L 62.4917736142525,15.4659090252261 L 62.5062713176045,15.4266112807276 L 62.5217927479819,15.387706508216 L 62.5383272677719,15.3492213710788 L 62.5558635450402,15.3111822451068 L 62.5743895612986,15.2736152004168 L 62.5938926197409,15.2365459835847 L 62.6143593539449,15.2000000000001 L 62.6357757370335,15.1640022964546 L 62.6581270912873,15.1285775439761 L 62.6813980982048,15.0937500209204 L 62.7055728090001,15.0595435963322 L 62.730634655534,15.0259817135862 L 62.7565664616689,14.9930873743204 L 62.78335045504,14.9608831226718 L 62.8109682792362,14.9293910298259 L 62.8394010063804,14.8986326788901 L 62.8686291501015,14.8686291501016 L 62.89863267889,14.8394010063804 L 62.9293910298258,14.8109682792363 L 62.9608831226717,14.7833504550401 L 62.9930873743203,14.756566461669 L 63.0259817135861,14.7306346555341 L 63.0595435963321,14.7055728090002 L 63.0937500209203,14.6813980982049 L 63.128577543976,14.6581270912874 L 63.1640022964545,14.6357757370335 L 63.2,14.614359353945 L 63.2365459835846,14.593892619741 L 63.2736152004167,14.5743895612987 L 63.3111822451067,14.5558635450403 L 63.3492213710787,14.5383272677719 L 63.3877065082159,14.5217927479821 L 63.4266112807275,14.5062713176046 L 63.465909025226,14.4917736142526 L 63.5055728090001,14.4783095739279 L 63.5455754484737,14.465888424211 L 63.585889527836,14.4545186779376 L 63.6264874178306,14.4442081273638 L 63.6673412946916,14.434963838826 L 63.7084231592126,14.4267921478978 L 63.7497048559356,14.4196986550479 L 63.7911580924479,14.413688221802 L 63.8327544587718,14.4087649674109 L 63.8744654468355,14.4049322660271 L 63.9162624700113,14.4021927443928 L 63.9581168827074,14.4005482800392 L 64.0,14.4000000000001 L 64.0418831172926,14.4005482800392 L 64.0837375299887,14.4021927443928 L 64.1255345531646,14.4049322660271 L 64.1672455412283,14.4087649674109 L 64.2088419075521,14.413688221802 L 64.2502951440644,14.4196986550479 L 64.2915768407874,14.4267921478978 L 64.3326587053084,14.434963838826 L 64.3735125821695,14.4442081273638 L 64.414110472164,14.4545186779376 L 64.4544245515263,14.465888424211 L 64.4944271909999,14.4783095739279 L 64.534090974774,14.4917736142526 L 64.5733887192725,14.5062713176046 L 64.6122934917842,14.5217927479821 L 64.6507786289213,14.5383272677719 L 64.6888177548933,14.5558635450403 L 64.7263847995833,14.5743895612987 L 64.7634540164154,14.593892619741 L 64.8,14.614359353945 L 64.8359977035455,14.6357757370336 L 64.8714224560241,14.6581270912874 L 64.9062499790797,14.6813980982049 L 64.940456403668,14.7055728090002 L 64.974018286414,14.7306346555341 L 65.0069126256798,14.756566461669 L 65.0391168773283,14.7833504550401 L 65.0706089701742,14.8109682792363 L 65.10136732111,14.8394010063804 L 65.1313708498985,14.8686291501016 L 65.1605989936197,14.8986326788901 L 65.1890317207639,14.9293910298259 L 65.2166495449601,14.9608831226718 L 65.2434335383312,14.9930873743204 L 65.269365344466,15.0259817135862 L 65.2944271909999,15.0595435963322 L 65.3186019017952,15.0937500209204 L 65.3418729087127,15.1285775439761 L 65.3642242629666,15.1640022964546 L 65.3856406460551,15.2000000000001 L 65.4061073802592,15.2365459835847 L 65.4256104387014,15.2736152004168 L 65.4441364549598,15.3111822451068 L 65.4616727322282,15.3492213710788 L 65.4782072520181,15.387706508216 L 65.4937286823955,15.4266112807276 L 65.5082263857475,15.4659090252261 L 65.5216904260723,15.5055728090002 L 65.5341115757891,15.5455754484738 L 65.5454813220625,15.5858895278361 L 65.5557918726363,15.6264874178307 L 65.5650361611741,15.6673412946917 L 65.5732078521023,15.7084231592127 L 65.5803013449522,15.7497048559357 L 65.5863117781981,15.791158092448 L 65.5912350325893,15.8327544587719 L 65.595067733973,15.8744654468356 L 65.5978072556073,15.9162624700114 L 65.5994517199609,15.9581168827075 L 65.6,16.0000000000001 L 65.5994517199609,16.0418831172927 L 65.5978072556073,16.0837375299888 L 65.595067733973,16.1255345531647 L 65.5912350325893,16.1672455412283 L 65.5863117781981,16.2088419075522 L 65.5803013449522,16.2502951440645 L 65.5732078521023,16.2915768407875 L 65.5650361611741,16.3326587053085 L 65.5557918726363,16.3735125821695 L 65.5454813220625,16.4141104721641 L 65.5341115757891,16.4544245515264 L 65.5216904260723,16.494427191 L 65.5082263857475,16.5340909747741 L 65.4937286823955,16.5733887192726 L 65.4782072520181,16.6122934917842 L 65.4616727322282,16.6507786289214 L 65.4441364549598,16.6888177548934 L 65.4256104387014,16.7263847995834 L 65.4061073802592,16.7634540164155 L 65.3856406460551,16.8000000000001 L 65.3642242629666,16.8359977035456 L 65.3418729087127,16.8714224560241 L 65.3186019017952,16.9062499790798 L 65.2944271909999,16.9404564036681 L 65.269365344466,16.9740182864141 L 65.2434335383312,17.0069126256798 L 65.2166495449601,17.0391168773284 L 65.1890317207639,17.0706089701743 L 65.1605989936197,17.1013673211101 L 65.1313708498985,17.1313708498986 L 65.10136732111,17.1605989936198 L 65.0706089701742,17.1890317207639 L 65.0391168773283,17.2166495449602 L 65.0069126256798,17.2434335383313 L 64.974018286414,17.2693653444661 L 64.940456403668,17.294427191 L 64.9062499790797,17.3186019017953 L 64.8714224560241,17.3418729087128 L 64.8359977035455,17.3642242629667 L 64.8,17.3856406460552 L 64.7634540164154,17.4061073802593 L 64.7263847995833,17.4256104387015 L 64.6888177548933,17.4441364549599 L 64.6507786289213,17.4616727322283 L 64.6122934917842,17.4782072520182 L 64.5733887192725,17.4937286823956 L 64.534090974774,17.5082263857476 L 64.4944271909999,17.5216904260724 L 64.4544245515263,17.5341115757892 L 64.414110472164,17.5454813220626 L 64.3735125821695,17.5557918726364 L 64.3326587053084,17.5650361611742 L 64.2915768407874,17.5732078521024 L 64.2502951440644,17.5803013449523 L 64.2088419075521,17.5863117781982 L 64.1672455412283,17.5912350325893 L 64.1255345531646,17.5950677339731 L 64.0837375299887,17.5978072556074 L 64.0418831172926,17.599451719961 L 64.0,17.6000000000001 M 66.5,65.0000000000001 L 66.5,75.0000000000001 L 62.5,75.0000000000001 L 62.5,65.0000000000001 L 66.5,65.0000000000001 "
  />
</svg>
