<?xml version="1.0" standalone="no"?>
<!DOCTYPE svg PUBLIC "-//W3C//DTD SVG 1.1//EN" "http://www.w3.org/Graphics/SVG/1.1/DTD/svg11.dtd">
<svg width="80.0mm" height="114.0mm"
 viewBox="0 0 80.0 114.0"
 xmlns="http://www.w3.org/2000/svg" version="1.1"
 xmlns:xlink="http://www.w3.org/1999/xlink">
<desc>Output from Flights of Ideas SVG Sketchup Plugin</desc>

<g id="text_annotations" font-size="10" stroke="rgb(255,0,0)" stroke-width="0">
</g>
  <path id="face0-cut"
 style="fill:none;stroke:rgb(0,0,255);stroke-width:0;stroke-miterlimit:4;stroke-dasharray:none;stroke-linejoin:round;stroke-linecap:round"
        d="M 70.0,14.0000000000001 L 69.9986292999022,13.8952922067686 L 69.9945181390183,13.7906561750283 L 69.9876693349325,13.6861636170887 L 69.9780875814731,13.5818861469295 L 69.9657794454953,13.4778952311199 L 69.9507533623806,13.3742621398392 L 69.9330196302558,13.2710578980315 L 69.9125904029352,13.1683532367291 L 69.8894796815907,13.0662185445765 L 69.8637033051563,12.96472381959 L 69.8352789394728,12.8639386211844 L 69.8042260651806,12.7639320225003 L 69.7705659643687,12.664772563065 L 69.7343217059888,12.5665282018189 L 69.6955181300452,12.4692662705397 L 69.6541818305704,12.3730534276969 L 69.6103411373995,12.2779556127669 L 69.5640260967535,12.1840380010419 L 69.5152684506479,12.0913649589617 L 69.4641016151378,12.0000000000001 L 69.4105606574164,11.9100057411363 L 69.3546822717817,11.82144385994 L 69.2965047544881,11.7343750523008 L 69.2360679774998,11.6488589908302 L 69.1734133611649,11.5649542839652 L 69.1085838458279,11.4827184358008 L 69.0416238624001,11.4022078066794 L 68.9725793019096,11.3234775745647 L 68.9014974840492,11.2465816972251 L 68.8284271247462,11.1715728752539 L 68.753418302775,11.0985025159509 L 68.6765224254355,11.0274206980905 L 68.5977921933208,10.9583761376 L 68.5172815641994,10.8914161541722 L 68.4350457160349,10.8265866388352 L 68.3511410091699,10.7639320225003 L 68.2656249476994,10.703495245512 L 68.1785561400601,10.6453177282184 L 68.0899942588638,10.5894393425837 L 68.0,10.5358983848623 L 67.9086350410385,10.4847315493522 L 67.8159619989582,10.4359739032466 L 67.7220443872332,10.3896588626007 L 67.6269465723032,10.3458181694297 L 67.5307337294604,10.3044818699549 L 67.4334717981812,10.2656782940113 L 67.3352274369351,10.2294340356314 L 67.2360679774998,10.1957739348195 L 67.1360613788157,10.1647210605273 L 67.0352761804101,10.1362966948438 L 66.9337814554236,10.1105203184094 L 66.8316467632711,10.0874095970649 L 66.7289421019686,10.0669803697443 L 66.6257378601609,10.0492466376195 L 66.5221047688802,10.0342205545049 L 66.4181138530706,10.021912418527 L 66.3138363829114,10.0123306650676 L 66.2093438249718,10.0054818609818 L 66.1047077932315,10.0013707000979 L 66.0,10.0000000000001 L 14.0,10.0 L 13.8952922067685,10.0013707000978 L 13.7906561750282,10.0054818609819 L 13.6861636170886,10.0123306650676 L 13.5818861469294,10.021912418527 L 13.4778952311198,10.0342205545048 L 13.3742621398391,10.0492466376195 L 13.2710578980314,10.0669803697443 L 13.168353236729,10.087409597065 L 13.0662185445764,10.1105203184096 L 12.9647238195899,10.1362966948438 L 12.8639386211843,10.1647210605273 L 12.7639320225002,10.1957739348194 L 12.6647725630649,10.2294340356315 L 12.5665282018188,10.2656782940113 L 12.4692662705397,10.304481869955 L 12.3730534276968,10.3458181694296 L 12.2779556127668,10.3896588626007 L 12.1840380010418,10.4359739032467 L 12.0913649589616,10.4847315493522 L 12.0,10.5358983848623 L 11.9100057411362,10.5894393425838 L 11.8214438599399,10.6453177282184 L 11.7343750523007,10.7034952455119 L 11.6488589908301,10.7639320225004 L 11.5649542839651,10.8265866388351 L 11.4827184358007,10.8914161541722 L 11.4022078066793,10.9583761376001 L 11.3234775745646,11.0274206980905 L 11.246581697225,11.098502515951 L 11.1715728752538,11.171572875254 L 11.0985025159509,11.2465816972253 L 11.0274206980904,11.3234775745648 L 10.9583761375999,11.4022078066792 L 10.8914161541721,11.4827184358008 L 10.8265866388351,11.5649542839651 L 10.7639320225002,11.6488589908301 L 10.703495245512,11.7343750523008 L 10.6453177282183,11.8214438599401 L 10.5894393425837,11.9100057411362 L 10.5358983848623,11.9999999999999 L 10.4847315493522,12.0913649589615 L 10.4359739032465,12.184038001042 L 10.3896588626006,12.2779556127668 L 10.3458181694296,12.373053427697 L 10.3044818699549,12.46926627054 L 10.2656782940112,12.5665282018188 L 10.2294340356313,12.6647725630651 L 10.1957739348194,12.7639320225004 L 10.1647210605273,12.8639386211848 L 10.1362966948438,12.9647238195897 L 10.1105203184093,13.0662185445769 L 10.0874095970648,13.1683532367295 L 10.0669803697442,13.2710578980315 L 10.0492466376195,13.3742621398391 L 10.0342205545048,13.4778952311198 L 10.0219124185269,13.5818861469287 L 10.0123306650675,13.686163617089 L 10.0054818609817,13.7906561750289 L 10.0013707000978,13.895292206771 L 10.0,14.0000000000001 L 10.0,100.0 L 10.0013707000978,100.104707793232 L 10.0054818609817,100.209343824972 L 10.0123306650675,100.313836382911 L 10.0219124185269,100.418113853071 L 10.0342205545048,100.52210476888 L 10.0492466376195,100.625737860161 L 10.0669803697442,100.728942101969 L 10.0874095970648,100.831646763271 L 10.1105203184093,100.933781455424 L 10.1362966948438,101.03527618041 L 10.1647210605272,101.136061378816 L 10.1957739348194,101.2360679775 L 10.2294340356313,101.335227436935 L 10.2656782940112,101.433471798181 L 10.3044818699549,101.53073372946 L 10.3458181694296,101.626946572303 L 10.3896588626006,101.722044387233 L 10.4359739032465,101.815961998958 L 10.4847315493521,101.908635041039 L 10.5358983848623,102.0 L 10.5894393425836,102.089994258864 L 10.6453177282183,102.17855614006 L 10.703495245512,102.265624947699 L 10.7639320225002,102.35114100917 L 10.8265866388351,102.435045716035 L 10.8914161541721,102.517281564199 L 10.9583761375999,102.597792193321 L 11.0274206980904,102.676522425436 L 11.0985025159509,102.753418302775 L 11.1715728752538,102.828427124746 L 11.246581697225,102.901497484049 L 11.3234775745646,102.97257930191 L 11.4022078066793,103.0416238624 L 11.4827184358007,103.108583845828 L 11.5649542839651,103.173413361165 L 11.6488589908301,103.2360679775 L 11.7343750523007,103.296504754488 L 11.8214438599399,103.354682271782 L 11.9100057411362,103.410560657417 L 12.0,103.464101615138 L 12.0913649589616,103.515268450648 L 12.1840380010418,103.564026096754 L 12.2779556127669,103.6103411374 L 12.3730534276968,103.654181830571 L 12.4692662705397,103.695518130045 L 12.5665282018188,103.734321705989 L 12.6647725630649,103.770565964369 L 12.7639320225002,103.804226065181 L 12.8639386211843,103.835278939473 L 12.9647238195899,103.863703305156 L 13.0662185445764,103.889479681591 L 13.1683532367289,103.912590402935 L 13.2710578980314,103.933019630256 L 13.3742621398391,103.950753362381 L 13.4778952311198,103.965779445495 L 13.5818861469294,103.978087581473 L 13.6861636170887,103.987669334933 L 13.7906561750282,103.994518139018 L 13.8952922067685,103.998629299902 L 14.0,104.0 L 66.0,104.0 L 66.1047077932315,103.998629299902 L 66.2093438249718,103.994518139018 L 66.3138363829114,103.987669334933 L 66.4181138530706,103.978087581473 L 66.5221047688802,103.965779445495 L 66.6257378601609,103.950753362381 L 66.7289421019686,103.933019630256 L 66.8316467632711,103.912590402935 L 66.9337814554236,103.889479681591 L 67.0352761804101,103.863703305156 L 67.1360613788157,103.835278939473 L 67.2360679774998,103.804226065181 L 67.3352274369351,103.770565964369 L 67.4334717981812,103.734321705989 L 67.5307337294604,103.695518130045 L 67.6269465723032,103.65418183057 L 67.7220443872332,103.6103411374 L 67.8159619989582,103.564026096754 L 67.9086350410385,103.515268450648 L 68.0,103.464101615138 L 68.0899942588638,103.410560657416 L 68.1785561400601,103.354682271782 L 68.2656249476993,103.296504754488 L 68.3511410091699,103.2360679775 L 68.4350457160349,103.173413361165 L 68.5172815641994,103.108583845828 L 68.5977921933207,103.0416238624 L 68.6765224254355,102.97257930191 L 68.753418302775,102.901497484049 L 68.8284271247462,102.828427124746 L 68.9014974840492,102.753418302775 L 68.9725793019096,102.676522425436 L 69.0416238624001,102.597792193321 L 69.1085838458279,102.517281564199 L 69.1734133611649,102.435045716035 L 69.2360679774998,102.35114100917 L 69.2965047544881,102.265624947699 L 69.3546822717817,102.17855614006 L 69.4105606574164,102.089994258864 L 69.4641016151378,102.0 L 69.5152684506479,101.908635041039 L 69.5640260967535,101.815961998958 L 69.6103411373995,101.722044387233 L 69.6541818305704,101.626946572303 L 69.6955181300452,101.53073372946 L 69.7343217059888,101.433471798181 L 69.7705659643687,101.335227436935 L 69.8042260651806,101.2360679775 L 69.8352789394728,101.136061378816 L 69.8637033051563,101.03527618041 L 69.8894796815907,100.933781455424 L 69.9125904029352,100.831646763271 L 69.9330196302558,100.728942101969 L 69.9507533623806,100.625737860161 L 69.9657794454953,100.52210476888 L 69.9780875814731,100.418113853071 L 69.9876693349325,100.313836382911 L 69.9945181390183,100.209343824972 L 69.9986292999022,100.104707793232 L 70.0,100.0 L 70.0,14.0000000000001 M 62.8686291501015,96.8686291501016 L 62.89863267889,96.8394010063804 L 62.9293910298258,96.8109682792363 L 62.9608831226717,96.7833504550401 L 62.9930873743203,96.7565664616689 L 63.0259817135861,96.7306346555341 L 63.059543596332,96.7055728090002 L 63.0937500209203,96.6813980982049 L 63.128577543976,96.6581270912874 L 63.1640022964545,96.6357757370336 L 63.2,96.614359353945 L 63.2365459835847,96.593892619741 L 63.2736152004167,96.5743895612987 L 63.3111822451067,96.5558635450403 L 63.3492213710787,96.5383272677719 L 63.3877065082159,96.521792747982 L 63.4266112807275,96.5062713176046 L 63.465909025226,96.4917736142526 L 63.5055728090001,96.4783095739279 L 63.5455754484737,96.465888424211 L 63.585889527836,96.4545186779376 L 63.6264874178305,96.4442081273638 L 63.6673412946916,96.434963838826 L 63.7084231592126,96.4267921478978 L 63.7497048559356,96.4196986550479 L 63.7911580924479,96.413688221802 L 63.8327544587718,96.4087649674109 L 63.8744654468355,96.4049322660271 L 63.9162624700113,96.4021927443928 L 63.9581168827074,96.4005482800392 L 64.0,96.4000000000001 L 64.0418831172926,96.4005482800392 L 64.0837375299887,96.4021927443928 L 64.1255345531646,96.4049322660271 L 64.1672455412283,96.4087649674109 L 64.2088419075521,96.413688221802 L 64.2502951440644,96.4196986550479 L 64.2915768407874,96.4267921478978 L 64.3326587053084,96.434963838826 L 64.3735125821695,96.4442081273638 L 64.414110472164,96.4545186779376 L 64.4544245515263,96.465888424211 L 64.4944271909999,96.4783095739279 L 64.534090974774,96.4917736142526 L 64.5733887192725,96.5062713176046 L 64.6122934917842,96.521792747982 L 64.6507786289213,96.5383272677719 L 64.6888177548933,96.5558635450403 L 64.7263847995833,96.5743895612987 L 64.7634540164154,96.593892619741 L 64.8,96.614359353945 L 64.8359977035455,96.6357757370336 L 64.8714224560241,96.6581270912874 L 64.9062499790797,96.6813980982049 L 64.940456403668,96.7055728090002 L 64.974018286414,96.7306346555341 L 65.0069126256798,96.7565664616689 L 65.0391168773283,96.7833504550401 L 65.0706089701742,96.8109682792362 L 65.10136732111,96.8394010063804 L 65.1313708498985,96.8686291501016 L 65.1605989936197,96.8986326788901 L 65.1890317207639,96.9293910298259 L 65.2166495449601,96.9608831226718 L 65.2434335383312,96.9930873743203 L 65.269365344466,97.0259817135861 L 65.2944271909999,97.0595435963321 L 65.3186019017952,97.0937500209204 L 65.3418729087127,97.1285775439761 L 65.3642242629666,97.1640022964546 L 65.3856406460551,97.2000000000001 L 65.4061073802592,97.2365459835847 L 65.4256104387014,97.2736152004168 L 65.4441364549598,97.3111822451068 L 65.4616727322282,97.3492213710788 L 65.4782072520181,97.387706508216 L 65.4937286823955,97.4266112807276 L 65.5082263857475,97.4659090252261 L 65.5216904260723,97.5055728090002 L 65.5341115757891,97.5455754484738 L 65.5454813220625,97.5858895278361 L 65.5557918726363,97.6264874178306 L 65.5650361611741,97.6673412946917 L 65.5732078521024,97.7084231592127 L 65.5803013449522,97.7497048559357 L 65.5863117781981,97.791158092448 L 65.5912350325893,97.8327544587719 L 65.595067733973,97.8744654468355 L 65.5978072556073,97.9162624700114 L 65.5994517199609,97.9581168827075 L 65.6,98.0000000000001 L 65.5994517199609,98.0418831172927 L 65.5978072556073,98.0837375299888 L 65.595067733973,98.1255345531646 L 65.5912350325893,98.1672455412283 L 65.5863117781981,98.2088419075522 L 65.5803013449522,98.2502951440645 L 65.5732078521023,98.2915768407875 L 65.5650361611741,98.3326587053085 L 65.5557918726363,98.3735125821696 L 65.5454813220625,98.4141104721641 L 65.5341115757891,98.4544245515264 L 65.5216904260723,98.494427191 L 65.5082263857475,98.5340909747741 L 65.4937286823955,98.5733887192726 L 65.4782072520181,98.6122934917842 L 65.4616727322282,98.6507786289214 L 65.4441364549598,98.6888177548934 L 65.4256104387014,98.7263847995834 L 65.4061073802592,98.7634540164155 L 65.3856406460551,98.8000000000001 L 65.3642242629665,98.8359977035456 L 65.3418729087127,98.8714224560241 L 65.3186019017952,98.9062499790798 L 65.2944271909999,98.940456403668 L 65.269365344466,98.974018286414 L 65.2434335383312,99.0069126256798 L 65.2166495449601,99.0391168773284 L 65.1890317207639,99.0706089701743 L 65.1605989936197,99.1013673211101 L 65.1313708498985,99.1313708498986 L 65.10136732111,99.1605989936198 L 65.0706089701742,99.1890317207639 L 65.0391168773283,99.2166495449601 L 65.0069126256798,99.2434335383313 L 64.974018286414,99.2693653444661 L 64.940456403668,99.294427191 L 64.9062499790797,99.3186019017953 L 64.8714224560241,99.3418729087128 L 64.8359977035455,99.3642242629666 L 64.8,99.3856406460552 L 64.7634540164154,99.4061073802592 L 64.7263847995833,99.4256104387015 L 64.6888177548933,99.4441364549599 L 64.6507786289213,99.4616727322283 L 64.6122934917842,99.4782072520181 L 64.5733887192725,99.4937286823956 L 64.534090974774,99.5082263857476 L 64.4944271909999,99.5216904260723 L 64.4544245515263,99.5341115757892 L 64.414110472164,99.5454813220626 L 64.3735125821695,99.5557918726364 L 64.3326587053084,99.5650361611742 L 64.2915768407874,99.5732078521024 L 64.2502951440644,99.5803013449523 L 64.2088419075521,99.5863117781982 L 64.1672455412283,99.5912350325893 L 64.1255345531646,99.5950677339731 L 64.0837375299887,99.5978072556074 L 64.0418831172926,99.599451719961 L 64.0,99.6000000000001 L 63.9581168827074,99.599451719961 L 63.9162624700113,99.5978072556074 L 63.8744654468354,99.5950677339731 L 63.8327544587718,99.5912350325893 L 63.7911580924479,99.5863117781982 L 63.7497048559356,99.5803013449523 L 63.7084231592126,99.5732078521024 L 63.6673412946916,99.5650361611742 L 63.6264874178306,99.5557918726364 L 63.585889527836,99.5454813220626 L 63.5455754484737,99.5341115757892 L 63.5055728090001,99.5216904260724 L 63.465909025226,99.5082263857476 L 63.4266112807275,99.4937286823956 L 63.3877065082159,99.4782072520182 L 63.3492213710787,99.4616727322283 L 63.3111822451067,99.4441364549599 L 63.2736152004167,99.4256104387015 L 63.2365459835846,99.4061073802592 L 63.2,99.3856406460552 L 63.1640022964545,99.3642242629666 L 63.128577543976,99.3418729087128 L 63.0937500209203,99.3186019017953 L 63.059543596332,99.294427191 L 63.0259817135861,99.2693653444661 L 62.9930873743203,99.2434335383313 L 62.9608831226717,99.2166495449601 L 62.9293910298258,99.1890317207639 L 62.89863267889,99.1605989936198 L 62.8686291501015,99.1313708498986 L 62.8394010063804,99.1013673211101 L 62.8109682792362,99.0706089701743 L 62.78335045504,99.0391168773284 L 62.7565664616689,99.0069126256798 L 62.730634655534,98.974018286414 L 62.7055728090001,98.940456403668 L 62.6813980982048,98.9062499790798 L 62.6581270912873,98.8714224560241 L 62.6357757370335,98.8359977035456 L 62.6143593539449,98.8000000000001 L 62.5938926197409,98.7634540164155 L 62.5743895612986,98.7263847995834 L 62.5558635450402,98.6888177548934 L 62.5383272677719,98.6507786289214 L 62.521792747982,98.6122934917842 L 62.5062713176045,98.5733887192726 L 62.4917736142525,98.5340909747741 L 62.4783095739278,98.494427191 L 62.4658884242109,98.4544245515264 L 62.4545186779375,98.4141104721641 L 62.4442081273637,98.3735125821696 L 62.4349638388259,98.3326587053085 L 62.4267921478977,98.2915768407875 L 62.4196986550478,98.2502951440645 L 62.4136882218019,98.2088419075522 L 62.4087649674108,98.1672455412283 L 62.404932266027,98.1255345531646 L 62.4021927443927,98.0837375299888 L 62.4005482800391,98.0418831172927 L 62.4,98.0000000000001 L 62.4005482800391,97.9581168827075 L 62.4021927443927,97.9162624700114 L 62.404932266027,97.8744654468355 L 62.4087649674108,97.8327544587719 L 62.4136882218019,97.791158092448 L 62.4196986550478,97.7497048559357 L 62.4267921478977,97.7084231592127 L 62.4349638388259,97.6673412946917 L 62.4442081273637,97.6264874178306 L 62.4545186779375,97.5858895278361 L 62.4658884242109,97.5455754484738 L 62.4783095739278,97.5055728090002 L 62.4917736142525,97.4659090252261 L 62.5062713176045,97.4266112807276 L 62.5217927479819,97.387706508216 L 62.5383272677718,97.3492213710788 L 62.5558635450403,97.3111822451068 L 62.5743895612986,97.2736152004168 L 62.5938926197409,97.2365459835847 L 62.6143593539449,97.2000000000001 L 62.6357757370335,97.1640022964546 L 62.6581270912873,97.1285775439761 L 62.6813980982048,97.0937500209204 L 62.7055728090001,97.0595435963322 L 62.730634655534,97.0259817135861 L 62.7565664616689,96.9930873743204 L 62.78335045504,96.9608831226718 L 62.8109682792362,96.9293910298259 L 62.8394010063804,96.8986326788901 L 62.8686291501015,96.8686291501016 M 16.7634540164154,99.4061073802592 L 16.7263847995833,99.4256104387015 L 16.6888177548933,99.4441364549599 L 16.6507786289213,99.4616727322282 L 16.6122934917842,99.4782072520181 L 16.5733887192725,99.4937286823956 L 16.5340909747741,99.5082263857476 L 16.4944271909999,99.5216904260724 L 16.4544245515263,99.5341115757892 L 16.4141104721641,99.5454813220626 L 16.3735125821695,99.5557918726363 L 16.3326587053084,99.5650361611742 L 16.2915768407875,99.5732078521024 L 16.2502951440644,99.5803013449523 L 16.2088419075521,99.5863117781982 L 16.1672455412283,99.5912350325893 L 16.1255345531646,99.5950677339731 L 16.0837375299887,99.5978072556074 L 16.0418831172926,99.599451719961 L 16.0,99.6000000000001 L 15.9581168827074,99.599451719961 L 15.9162624700113,99.5978072556074 L 15.8744654468355,99.5950677339731 L 15.8327544587718,99.5912350325893 L 15.7911580924479,99.5863117781982 L 15.7497048559357,99.5803013449523 L 15.7084231592126,99.5732078521024 L 15.6673412946916,99.5650361611742 L 15.6264874178305,99.5557918726363 L 15.585889527836,99.5454813220626 L 15.5455754484737,99.5341115757892 L 15.5055728090001,99.5216904260724 L 15.465909025226,99.5082263857476 L 15.4266112807275,99.4937286823956 L 15.3877065082159,99.4782072520182 L 15.3492213710787,99.4616727322283 L 15.3111822451068,99.4441364549599 L 15.2736152004167,99.4256104387015 L 15.2365459835847,99.4061073802592 L 15.2,99.3856406460552 L 15.1640022964545,99.3642242629666 L 15.128577543976,99.3418729087128 L 15.0937500209203,99.3186019017953 L 15.0595435963321,99.294427191 L 15.0259817135861,99.2693653444661 L 14.9930873743203,99.2434335383313 L 14.9608831226717,99.2166495449601 L 14.9293910298258,99.1890317207639 L 14.89863267889,99.1605989936197 L 14.8686291501015,99.1313708498986 L 14.8394010063803,99.1013673211101 L 14.8109682792362,99.0706089701742 L 14.78335045504,99.0391168773284 L 14.7565664616688,99.0069126256798 L 14.730634655534,98.974018286414 L 14.7055728090001,98.9404564036681 L 14.6813980982048,98.9062499790798 L 14.6581270912874,98.8714224560241 L 14.6357757370335,98.8359977035456 L 14.6143593539449,98.8000000000001 L 14.5938926197409,98.7634540164155 L 14.5743895612987,98.7263847995834 L 14.5558635450402,98.6888177548934 L 14.5383272677718,98.6507786289214 L 14.5217927479819,98.6122934917842 L 14.5062713176045,98.5733887192726 L 14.4917736142525,98.5340909747741 L 14.4783095739278,98.494427191 L 14.4658884242109,98.4544245515264 L 14.4545186779375,98.4141104721641 L 14.4442081273637,98.3735125821696 L 14.4349638388259,98.3326587053085 L 14.4267921478977,98.2915768407875 L 14.4196986550478,98.2502951440645 L 14.4136882218019,98.2088419075522 L 14.4087649674108,98.1672455412283 L 14.404932266027,98.1255345531646 L 14.4021927443927,98.0837375299888 L 14.4005482800391,98.0418831172927 L 14.4,98.0000000000001 L 14.4005482800391,97.9581168827075 L 14.4021927443927,97.9162624700114 L 14.404932266027,97.8744654468355 L 14.4087649674107,97.8327544587718 L 14.4136882218019,97.791158092448 L 14.4196986550478,97.7497048559357 L 14.4267921478977,97.7084231592127 L 14.4349638388259,97.6673412946917 L 14.4442081273637,97.6264874178306 L 14.4545186779375,97.5858895278361 L 14.4658884242109,97.5455754484738 L 14.4783095739278,97.5055728090002 L 14.4917736142525,97.4659090252261 L 14.5062713176045,97.4266112807276 L 14.5217927479819,97.387706508216 L 14.5383272677718,97.3492213710788 L 14.5558635450402,97.3111822451068 L 14.5743895612986,97.2736152004168 L 14.5938926197408,97.2365459835847 L 14.6143593539449,97.2000000000001 L 14.6357757370335,97.1640022964546 L 14.6581270912873,97.1285775439761 L 14.6813980982048,97.0937500209204 L 14.7055728090001,97.0595435963322 L 14.730634655534,97.0259817135861 L 14.7565664616688,96.9930873743203 L 14.78335045504,96.9608831226718 L 14.8109682792362,96.9293910298259 L 14.8394010063803,96.8986326788901 L 14.8686291501016,96.8686291501016 L 14.89863267889,96.8394010063804 L 14.9293910298258,96.8109682792362 L 14.9608831226717,96.78335045504 L 14.9930873743203,96.7565664616689 L 15.0259817135861,96.7306346555341 L 15.0595435963321,96.7055728090002 L 15.0937500209203,96.6813980982049 L 15.128577543976,96.6581270912874 L 15.1640022964545,96.6357757370336 L 15.2,96.614359353945 L 15.2365459835846,96.593892619741 L 15.2736152004167,96.5743895612987 L 15.3111822451068,96.5558635450403 L 15.3492213710787,96.5383272677719 L 15.3877065082159,96.521792747982 L 15.4266112807275,96.5062713176046 L 15.465909025226,96.4917736142526 L 15.5055728090001,96.4783095739278 L 15.5455754484737,96.465888424211 L 15.585889527836,96.4545186779376 L 15.6264874178306,96.4442081273638 L 15.6673412946916,96.434963838826 L 15.7084231592126,96.4267921478978 L 15.7497048559357,96.4196986550479 L 15.7911580924479,96.413688221802 L 15.8327544587718,96.4087649674109 L 15.8744654468354,96.4049322660271 L 15.9162624700113,96.4021927443928 L 15.9581168827074,96.4005482800392 L 16.0,96.4000000000001 L 16.0418831172926,96.4005482800392 L 16.0837375299887,96.4021927443928 L 16.1255345531646,96.4049322660271 L 16.1672455412283,96.4087649674109 L 16.2088419075521,96.413688221802 L 16.2502951440644,96.4196986550479 L 16.2915768407874,96.4267921478978 L 16.3326587053085,96.434963838826 L 16.3735125821695,96.4442081273638 L 16.4141104721641,96.4545186779376 L 16.4544245515263,96.465888424211 L 16.4944271909999,96.4783095739279 L 16.534090974774,96.4917736142526 L 16.5733887192725,96.5062713176046 L 16.6122934917842,96.521792747982 L 16.6507786289213,96.5383272677719 L 16.6888177548933,96.5558635450403 L 16.7263847995833,96.5743895612987 L 16.7634540164154,96.593892619741 L 16.8,96.614359353945 L 16.8359977035455,96.6357757370336 L 16.8714224560241,96.6581270912874 L 16.9062499790797,96.6813980982049 L 16.940456403668,96.7055728090002 L 16.974018286414,96.7306346555341 L 17.0069126256798,96.7565664616689 L 17.0391168773283,96.7833504550401 L 17.0706089701742,96.8109682792363 L 17.10136732111,96.8394010063804 L 17.1313708498985,96.8686291501016 L 17.1605989936197,96.8986326788901 L 17.1890317207639,96.9293910298259 L 17.2166495449601,96.9608831226718 L 17.2434335383312,96.9930873743203 L 17.269365344466,97.0259817135862 L 17.2944271909999,97.0595435963322 L 17.3186019017953,97.0937500209204 L 17.3418729087127,97.128577543976 L 17.3642242629666,97.1640022964546 L 17.3856406460551,97.2000000000001 L 17.4061073802592,97.2365459835847 L 17.4256104387014,97.2736152004168 L 17.4441364549598,97.3111822451068 L 17.4616727322282,97.3492213710788 L 17.4782072520181,97.387706508216 L 17.4937286823956,97.4266112807276 L 17.5082263857475,97.4659090252261 L 17.5216904260723,97.5055728090002 L 17.5341115757891,97.5455754484738 L 17.5454813220625,97.5858895278361 L 17.5557918726363,97.6264874178306 L 17.5650361611741,97.6673412946917 L 17.5732078521023,97.7084231592127 L 17.5803013449522,97.7497048559357 L 17.5863117781981,97.791158092448 L 17.5912350325893,97.8327544587719 L 17.595067733973,97.8744654468356 L 17.5978072556073,97.9162624700114 L 17.5994517199609,97.9581168827075 L 17.6,98.0000000000001 L 17.5994517199609,98.0418831172927 L 17.5978072556073,98.0837375299888 L 17.595067733973,98.1255345531647 L 17.5912350325893,98.1672455412283 L 17.5863117781981,98.2088419075522 L 17.5803013449522,98.2502951440645 L 17.5732078521023,98.2915768407875 L 17.5650361611741,98.3326587053085 L 17.5557918726363,98.3735125821696 L 17.5454813220625,98.4141104721641 L 17.5341115757891,98.4544245515264 L 17.5216904260722,98.494427191 L 17.5082263857475,98.5340909747741 L 17.4937286823955,98.5733887192726 L 17.4782072520181,98.6122934917842 L 17.4616727322282,98.6507786289214 L 17.4441364549598,98.6888177548934 L 17.4256104387014,98.7263847995834 L 17.4061073802592,98.7634540164155 L 17.3856406460551,98.8000000000001 L 17.3642242629666,98.8359977035456 L 17.3418729087127,98.8714224560241 L 17.3186019017952,98.9062499790798 L 17.2944271909999,98.9404564036681 L 17.269365344466,98.974018286414 L 17.2434335383312,99.0069126256799 L 17.21664954496,99.0391168773284 L 17.1890317207639,99.0706089701742 L 17.1605989936197,99.1013673211101 L 17.1313708498985,99.1313708498986 L 17.10136732111,99.1605989936197 L 17.0706089701742,99.1890317207639 L 17.0391168773283,99.2166495449601 L 17.0069126256798,99.2434335383313 L 16.974018286414,99.2693653444661 L 16.940456403668,99.294427191 L 16.9062499790798,99.3186019017953 L 16.871422456024,99.3418729087128 L 16.8359977035456,99.3642242629666 L 16.8,99.3856406460552 L 16.7634540164154,99.4061073802592 M 16.0,17.6000000000001 L 15.9581168827074,17.5994517199609 L 15.9162624700113,17.5978072556074 L 15.8744654468355,17.5950677339731 L 15.8327544587718,17.5912350325893 L 15.7911580924479,17.5863117781982 L 15.7497048559356,17.5803013449522 L 15.7084231592126,17.5732078521025 L 15.6673412946916,17.5650361611741 L 15.6264874178306,17.5557918726364 L 15.585889527836,17.5454813220626 L 15.5455754484737,17.5341115757892 L 15.5055728090001,17.5216904260724 L 15.465909025226,17.5082263857477 L 15.4266112807275,17.4937286823955 L 15.3877065082159,17.4782072520182 L 15.3492213710787,17.4616727322284 L 15.3111822451068,17.4441364549599 L 15.2736152004167,17.4256104387016 L 15.2365459835846,17.4061073802592 L 15.2,17.3856406460552 L 15.1640022964545,17.3642242629667 L 15.128577543976,17.3418729087127 L 15.0937500209203,17.3186019017952 L 15.0595435963321,17.2944271909999 L 15.0259817135861,17.269365344466 L 14.9930873743203,17.2434335383313 L 14.9608831226717,17.2166495449602 L 14.9293910298259,17.189031720764 L 14.89863267889,17.1605989936198 L 14.8686291501015,17.1313708498985 L 14.8394010063804,17.10136732111 L 14.8109682792362,17.0706089701744 L 14.78335045504,17.0391168773284 L 14.7565664616689,17.0069126256799 L 14.730634655534,16.9740182864139 L 14.7055728090001,16.940456403668 L 14.6813980982048,16.9062499790799 L 14.6581270912873,16.8714224560241 L 14.6357757370335,16.8359977035456 L 14.6143593539449,16.8000000000001 L 14.5938926197409,16.7634540164156 L 14.5743895612986,16.7263847995834 L 14.5558635450402,16.6888177548933 L 14.5383272677719,16.6507786289213 L 14.521792747982,16.6122934917842 L 14.5062713176045,16.5733887192727 L 14.4917736142525,16.534090974774 L 14.4783095739278,16.494427191 L 14.4658884242109,16.4544245515264 L 14.4545186779375,16.414110472164 L 14.4442081273637,16.3735125821696 L 14.4349638388259,16.3326587053086 L 14.4267921478977,16.2915768407875 L 14.4196986550478,16.2502951440644 L 14.4136882218019,16.2088419075522 L 14.4087649674108,16.1672455412283 L 14.404932266027,16.1255345531646 L 14.4021927443927,16.0837375299886 L 14.4005482800391,16.0418831172926 L 14.4,16.0 L 14.4005482800391,15.9581168827074 L 14.4021927443927,15.9162624700113 L 14.404932266027,15.8744654468356 L 14.4087649674108,15.8327544587718 L 14.4136882218019,15.7911580924479 L 14.4196986550478,15.7497048559358 L 14.4267921478977,15.7084231592127 L 14.4349638388259,15.6673412946919 L 14.4442081273637,15.6264874178306 L 14.4545186779375,15.5858895278361 L 14.4658884242109,15.5455754484738 L 14.4783095739278,15.5055728089999 L 14.4917736142525,15.4659090252263 L 14.5062713176045,15.4266112807278 L 14.521792747982,15.3877065082161 L 14.5383272677719,15.3492213710791 L 14.5558635450402,15.3111822451067 L 14.5743895612986,15.2736152004167 L 14.5938926197409,15.2365459835851 L 14.6143593539449,15.2000000000004 L 14.6357757370335,15.1640022964543 L 14.6581270912873,15.128577543976 L 14.6813980982048,15.0937500209208 L 14.7055728090001,15.0595435963317 L 14.730634655534,15.0259817135861 L 14.7565664616689,14.9930873743204 L 14.78335045504,14.960883122672 L 14.8109682792362,14.9293910298262 L 14.8394010063804,14.8986326788903 L 14.8686291501015,14.8686291501015 L 14.89863267889,14.8394010063798 L 14.9293910298258,14.8109682792366 L 14.9608831226717,14.78335045504 L 14.9930873743203,14.7565664616686 L 15.0259817135861,14.7306346555335 L 15.0595435963321,14.705572809001 L 15.0937500209203,14.6813980982046 L 15.128577543976,14.6581270912878 L 15.1640022964545,14.6357757370343 L 15.2,14.6143593539448 L 15.2365459835846,14.5938926197406 L 15.2736152004167,14.5743895612996 L 15.3111822451068,14.5558635450401 L 15.3492213710787,14.5383272677721 L 15.3877065082159,14.5217927479829 L 15.4266112807275,14.5062713176038 L 15.465909025226,14.4917736142522 L 15.5055728090001,14.4783095739276 L 15.5455754484737,14.4658884242115 L 15.585889527836,14.4545186779381 L 15.6264874178306,14.4442081273641 L 15.6673412946916,14.434963838827 L 15.7084231592126,14.4267921478976 L 15.7497048559356,14.4196986550467 L 15.7911580924479,14.4136882218013 L 15.8327544587718,14.4087649674105 L 15.8744654468355,14.4049322660269 L 15.9162624700113,14.4021927443929 L 15.9581168827074,14.4005482800393 L 16.0,14.4000000000007 L 16.0418831172926,14.4005482800389 L 16.0837375299887,14.4021927443926 L 16.1255345531646,14.404932266027 L 16.1672455412283,14.4087649674108 L 16.2088419075521,14.413688221801 L 16.2502951440644,14.4196986550469 L 16.2915768407875,14.4267921478982 L 16.3326587053084,14.4349638388265 L 16.3735125821695,14.4442081273649 L 16.4141104721641,14.4545186779377 L 16.4544245515263,14.4658884242101 L 16.4944271909999,14.4783095739271 L 16.534090974774,14.4917736142533 L 16.5733887192725,14.5062713176039 L 16.6122934917842,14.5217927479819 L 16.6507786289213,14.5383272677718 L 16.6888177548933,14.555863545041 L 16.7263847995833,14.5743895612989 L 16.7634540164154,14.593892619741 L 16.8,14.6143593539451 L 16.8359977035455,14.635775737034 L 16.8714224560241,14.6581270912874 L 16.9062499790797,14.681398098205 L 16.940456403668,14.7055728090008 L 16.974018286414,14.7306346555342 L 17.0069126256798,14.7565664616692 L 17.0391168773283,14.78335045504 L 17.0706089701742,14.8109682792365 L 17.10136732111,14.8394010063803 L 17.1313708498985,14.8686291501013 L 17.1605989936197,14.8986326788902 L 17.1890317207638,14.9293910298256 L 17.2166495449601,14.9608831226718 L 17.2434335383312,14.9930873743203 L 17.269365344466,15.0259817135864 L 17.2944271909999,15.0595435963323 L 17.3186019017952,15.0937500209206 L 17.3418729087127,15.1285775439763 L 17.3642242629666,15.1640022964547 L 17.3856406460551,15.2 L 17.4061073802592,15.2365459835847 L 17.4256104387014,15.2736152004169 L 17.4441364549598,15.3111822451068 L 17.4616727322282,15.349221371079 L 17.4782072520181,15.3877065082158 L 17.4937286823955,15.4266112807275 L 17.5082263857475,15.4659090252259 L 17.5216904260723,15.5055728090003 L 17.5341115757891,15.5455754484737 L 17.5454813220625,15.585889527836 L 17.5557918726363,15.6264874178309 L 17.5650361611741,15.6673412946918 L 17.5732078521023,15.7084231592125 L 17.5803013449522,15.7497048559354 L 17.5863117781981,15.7911580924479 L 17.5912350325892,15.8327544587717 L 17.595067733973,15.8744654468354 L 17.5978072556073,15.9162624700113 L 17.5994517199609,15.9581168827076 L 17.6,16.0000000000001 L 17.5994517199609,16.0418831172929 L 17.5978072556073,16.0837375299886 L 17.595067733973,16.1255345531648 L 17.5912350325892,16.1672455412283 L 17.5863117781981,16.2088419075522 L 17.5803013449522,16.2502951440645 L 17.5732078521023,16.2915768407874 L 17.5650361611741,16.3326587053086 L 17.5557918726363,16.3735125821695 L 17.5454813220625,16.414110472164 L 17.5341115757891,16.4544245515263 L 17.5216904260723,16.4944271909999 L 17.5082263857475,16.5340909747741 L 17.4937286823955,16.5733887192728 L 17.4782072520181,16.6122934917842 L 17.4616727322282,16.6507786289214 L 17.4441364549598,16.6888177548934 L 17.4256104387014,16.7263847995833 L 17.4061073802592,16.7634540164155 L 17.3856406460551,16.8000000000002 L 17.3642242629666,16.8359977035457 L 17.3418729087127,16.8714224560241 L 17.3186019017952,16.9062499790799 L 17.2944271909999,16.940456403668 L 17.269365344466,16.9740182864141 L 17.2434335383312,17.0069126256799 L 17.2166495449601,17.0391168773284 L 17.1890317207638,17.0706089701744 L 17.1605989936197,17.10136732111 L 17.1313708498985,17.1313708498986 L 17.10136732111,17.1605989936198 L 17.0706089701742,17.1890317207638 L 17.0391168773283,17.2166495449601 L 17.0069126256798,17.2434335383311 L 16.974018286414,17.2693653444661 L 16.940456403668,17.294427191 L 16.9062499790797,17.3186019017954 L 16.8714224560241,17.3418729087129 L 16.8359977035455,17.3642242629667 L 16.8,17.3856406460552 L 16.7634540164154,17.4061073802592 L 16.7263847995833,17.4256104387015 L 16.6888177548933,17.4441364549599 L 16.6507786289213,17.4616727322283 L 16.6122934917842,17.4782072520182 L 16.5733887192725,17.4937286823956 L 16.534090974774,17.5082263857475 L 16.4944271909999,17.5216904260725 L 16.4544245515263,17.5341115757892 L 16.4141104721641,17.5454813220625 L 16.3735125821695,17.5557918726365 L 16.3326587053084,17.5650361611741 L 16.2915768407874,17.5732078521023 L 16.2502951440644,17.5803013449523 L 16.2088419075521,17.5863117781982 L 16.1672455412283,17.5912350325894 L 16.1255345531646,17.5950677339732 L 16.0837375299887,17.5978072556074 L 16.0418831172926,17.599451719961 L 16.0,17.6000000000001 M 64.0,17.6000000000001 L 63.9581168827074,17.599451719961 L 63.9162624700113,17.5978072556074 L 63.8744654468355,17.5950677339731 L 63.8327544587718,17.5912350325893 L 63.7911580924479,17.5863117781982 L 63.7497048559356,17.5803013449523 L 63.7084231592126,17.5732078521024 L 63.6673412946916,17.5650361611742 L 63.6264874178306,17.5557918726364 L 63.585889527836,17.5454813220626 L 63.5455754484737,17.5341115757892 L 63.5055728090001,17.5216904260724 L 63.465909025226,17.5082263857476 L 63.4266112807275,17.4937286823956 L 63.3877065082159,17.4782072520182 L 63.3492213710787,17.4616727322283 L 63.3111822451067,17.4441364549599 L 63.2736152004167,17.4256104387015 L 63.2365459835846,17.4061073802593 L 63.2,17.3856406460552 L 63.1640022964545,17.3642242629667 L 63.128577543976,17.3418729087128 L 63.0937500209203,17.3186019017953 L 63.0595435963321,17.294427191 L 63.0259817135861,17.2693653444661 L 62.9930873743203,17.2434335383313 L 62.9608831226717,17.2166495449602 L 62.9293910298258,17.1890317207639 L 62.89863267889,17.1605989936198 L 62.8686291501015,17.1313708498986 L 62.8394010063804,17.1013673211101 L 62.8109682792362,17.0706089701743 L 62.78335045504,17.0391168773284 L 62.7565664616689,17.0069126256798 L 62.730634655534,16.9740182864141 L 62.7055728090001,16.9404564036681 L 62.6813980982048,16.9062499790798 L 62.6581270912873,16.8714224560241 L 62.6357757370335,16.8359977035456 L 62.6143593539449,16.8000000000001 L 62.5938926197409,16.7634540164155 L 62.5743895612986,16.7263847995834 L 62.5558635450402,16.6888177548934 L 62.5383272677719,16.6507786289214 L 62.5217927479819,16.6122934917842 L 62.5062713176045,16.5733887192726 L 62.4917736142525,16.5340909747741 L 62.4783095739278,16.494427191 L 62.4658884242109,16.4544245515264 L 62.4545186779375,16.4141104721641 L 62.4442081273637,16.3735125821696 L 62.4349638388259,16.3326587053085 L 62.4267921478977,16.2915768407875 L 62.4196986550478,16.2502951440645 L 62.4136882218019,16.2088419075522 L 62.4087649674108,16.1672455412283 L 62.404932266027,16.1255345531647 L 62.4021927443927,16.0837375299888 L 62.4005482800391,16.0418831172927 L 62.4,16.0000000000001 L 62.4005482800391,15.9581168827075 L 62.4021927443927,15.9162624700114 L 62.404932266027,15.8744654468356 L 62.4087649674108,15.8327544587719 L 62.4136882218019,15.791158092448 L 62.4196986550478,15.7497048559357 L 62.4267921478977,15.7084231592127 L 62.4349638388259,15.6673412946917 L 62.4442081273637,15.6264874178307 L 62.4545186779375,15.5858895278361 L 62.4658884242109,15.5455754484738 L 62.4783095739278,15.5055728090002 L 62.4917736142525,15.4659090252261 L 62.5062713176045,15.4266112807276 L 62.5217927479819,15.387706508216 L 62.5383272677719,15.3492213710788 L 62.5558635450402,15.3111822451068 L 62.5743895612986,15.2736152004168 L 62.5938926197409,15.2365459835847 L 62.6143593539449,15.2000000000001 L 62.6357757370335,15.1640022964546 L 62.6581270912873,15.1285775439761 L 62.6813980982048,15.0937500209204 L 62.7055728090001,15.0595435963322 L 62.730634655534,15.0259817135862 L 62.7565664616689,14.9930873743204 L 62.78335045504,14.9608831226718 L 62.8109682792362,14.9293910298259 L 62.8394010063804,14.8986326788901 L 62.8686291501015,14.8686291501016 L 62.89863267889,14.8394010063804 L 62.9293910298258,14.8109682792363 L 62.9608831226717,14.7833504550401 L 62.9930873743203,14.756566461669 L 63.0259817135861,14.7306346555341 L 63.0595435963321,14.7055728090002 L 63.0937500209203,14.6813980982049 L 63.128577543976,14.6581270912874 L 63.1640022964545,14.6357757370335 L 63.2,14.614359353945 L 63.2365459835846,14.593892619741 L 63.2736152004167,14.5743895612987 L 63.3111822451067,14.5558635450403 L 63.3492213710787,14.5383272677719 L 63.3877065082159,14.5217927479821 L 63.4266112807275,14.5062713176046 L 63.465909025226,14.4917736142526 L 63.5055728090001,14.4783095739279 L 63.5455754484737,14.465888424211 L 63.585889527836,14.4545186779376 L 63.6264874178306,14.4442081273638 L 63.6673412946916,14.434963838826 L 63.7084231592126,14.4267921478978 L 63.7497048559356,14.4196986550479 L 63.7911580924479,14.413688221802 L 63.8327544587718,14.4087649674109 L 63.8744654468355,14.4049322660271 L 63.9162624700113,14.4021927443928 L 63.9581168827074,14.4005482800392 L 64.0,14.4000000000001 L 64.0418831172926,14.4005482800392 L 64.0837375299887,14.4021927443928 L 64.1255345531646,14.4049322660271 L 64.1672455412283,14.4087649674109 L 64.2088419075521,14.413688221802 L 64.2502951440644,14.4196986550479 L 64.2915768407874,14.4267921478978 L 64.3326587053084,14.434963838826 L 64.3735125821695,14.4442081273638 L 64.414110472164,14.4545186779376 L 64.4544245515263,14.465888424211 L 64.4944271909999,14.4783095739279 L 64.534090974774,14.4917736142526 L 64.5733887192725,14.5062713176046 L 64.6122934917842,14.5217927479821 L 64.6507786289213,14.5383272677719 L 64.6888177548933,14.5558635450403 L 64.7263847995833,14.5743895612987 L 64.7634540164154,14.593892619741 L 64.8,14.614359353945 L 64.8359977035455,14.6357757370336 L 64.8714224560241,14.6581270912874 L 64.9062499790797,14.6813980982049 L 64.940456403668,14.7055728090002 L 64.974018286414,14.7306346555341 L 65.0069126256798,14.756566461669 L 65.0391168773283,14.7833504550401 L 65.0706089701742,14.8109682792363 L 65.10136732111,14.8394010063804 L 65.1313708498985,14.8686291501016 L 65.1605989936197,14.8986326788901 L 65.1890317207639,14.9293910298259 L 65.2166495449601,14.9608831226718 L 65.2434335383312,14.9930873743204 L 65.269365344466,15.0259817135862 L 65.2944271909999,15.0595435963322 L 65.3186019017952,15.0937500209204 L 65.3418729087127,15.1285775439761 L 65.3642242629666,15.1640022964546 L 65.3856406460551,15.2000000000001 L 65.4061073802592,15.2365459835847 L 65.4256104387014,15.2736152004168 L 65.4441364549598,15.3111822451068 L 65.4616727322282,15.3492213710788 L 65.4782072520181,15.387706508216 L 65.4937286823955,15.4266112807276 L 65.5082263857475,15.4659090252261 L 65.5216904260723,15.5055728090002 L 65.5341115757891,15.5455754484738 L 65.5454813220625,15.5858895278361 L 65.5557918726363,15.6264874178307 L 65.5650361611741,15.6673412946917 L 65.5732078521023,15.7084231592127 L 65.5803013449522,15.7497048559357 L 65.5863117781981,15.791158092448 L 65.5912350325893,15.8327544587719 L 65.595067733973,15.8744654468356 L 65.5978072556073,15.9162624700114 L 65.5994517199609,15.9581168827075 L 65.6,16.0000000000001 L 65.5994517199609,16.0418831172927 L 65.5978072556073,16.0837375299888 L 65.595067733973,16.1255345531647 L 65.5912350325893,16.1672455412283 L 65.5863117781981,16.2088419075522 L 65.5803013449522,16.2502951440645 L 65.5732078521023,16.2915768407875 L 65.5650361611741,16.3326587053085 L 65.5557918726363,16.3735125821695 L 65.5454813220625,16.4141104721641 L 65.5341115757891,16.4544245515264 L 65.5216904260723,16.494427191 L 65.5082263857475,16.5340909747741 L 65.4937286823955,16.5733887192726 L 65.4782072520181,16.6122934917842 L 65.4616727322282,16.6507786289214 L 65.4441364549598,16.6888177548934 L 65.4256104387014,16.7263847995834 L 65.4061073802592,16.7634540164155 L 65.3856406460551,16.8000000000001 L 65.3642242629666,16.8359977035456 L 65.3418729087127,16.8714224560241 L 65.3186019017952,16.9062499790798 L 65.2944271909999,16.9404564036681 L 65.269365344466,16.9740182864141 L 65.2434335383312,17.0069126256798 L 65.2166495449601,17.0391168773284 L 65.1890317207639,17.0706089701743 L 65.1605989936197,17.1013673211101 L 65.1313708498985,17.1313708498986 L 65.10136732111,17.1605989936198 L 65.0706089701742,17.1890317207639 L 65.0391168773283,17.2166495449602 L 65.0069126256798,17.2434335383313 L 64.974018286414,17.2693653444661 L 64.940456403668,17.294427191 L 64.9062499790797,17.3186019017953 L 64.8714224560241,17.3418729087128 L 64.8359977035455,17.3642242629667 L 64.8,17.3856406460552 L 64.7634540164154,17.4061073802593 L 64.7263847995833,17.4256104387015 L 64.6888177548933,17.4441364549599 L 64.6507786289213,17.4616727322283 L 64.6122934917842,17.4782072520182 L 64.5733887192725,17.4937286823956 L 64.534090974774,17.5082263857476 L 64.4944271909999,17.5216904260724 L 64.4544245515263,17.5341115757892 L 64.414110472164,17.5454813220626 L 64.3735125821695,17.5557918726364 L 64.3326587053084,17.5650361611742 L 64.2915768407874,17.5732078521024 L 64.2502951440644,17.5803013449523 L 64.2088419075521,17.5863117781982 L 64.1672455412283,17.5912350325893 L 64.1255345531646,17.5950677339731 L 64.0837375299887,17.5978072556074 L 64.0418831172926,17.599451719961 L 64.0,17.6000000000001 "
  />
</svg>
