%
M48
M72
T01C0.0150
T02C0.0320
T03C0.0354
T04C0.0400
%
T01
X9342Y4553
X11462Y4553
X12319Y4756
X12832Y5171
X13332Y5493
X13032Y5843
X11982Y6443
X11532Y6443
X11132Y6443
X10632Y6443
X10532Y6043
X10632Y5643
X9732Y5643
X7782Y5713
X7332Y5743
X4232Y5743
X2232Y4743
X832Y5743
X2532Y6743
X4932Y7043
X4912Y7613
X4132Y7843
X7132Y8143
X7532Y8343
X7932Y8443
X8632Y8343
X9232Y8643
X9732Y8343
X11032Y7943
X11532Y7943
X11632Y7543
X12132Y7543
X12182Y7093
X12632Y7043
X15432Y6143
X15532Y5443
X17282Y5093
X17882Y5093
X17932Y5543
X17232Y6193
X17902Y6543
X19832Y4743
X22382Y4993
X22932Y5123
X23482Y4993
X23082Y6193
X23032Y7443
X28532Y10043
X27832Y11443
X17532Y11543
X11932Y10143
X10532Y9143
X6332Y10343
X4232Y9443
X732Y9343
X632Y11843
X4232Y11843
X7132Y7043
X7632Y7043
X28832Y4743
T02
X28482Y8793
X27482Y8793
X26482Y8793
X25482Y8793
X24482Y8793
X23482Y8793
X22482Y8793
X21482Y8793
X20482Y8793
X19482Y8793
X18482Y8793
X17482Y8793
X16482Y8793
X15482Y8793
X14482Y8793
X13482Y8793
T03
X2482Y7609
X2482Y5877
T04
X6782Y4993
X7782Y4993
X8782Y4993
X9782Y4993
X10782Y4993
X24132Y5343
X25132Y5343
X26132Y5343
X27132Y5343
X28132Y5343
X28132Y6343
X27132Y6343
X26132Y6343
X25132Y6343
X24132Y6343
M30
