G75*
G70*
%OFA0B0*%
%FSLAX24Y24*%
%IPPOS*%
%LPD*%
%AMOC8*
5,1,8,0,0,1.08239X$1,22.5*
%
%ADD10C,0.0000*%
%ADD11R,0.0630X0.0512*%
%ADD12R,0.0512X0.0630*%
%ADD13R,0.0866X0.0236*%
%ADD14R,0.0630X0.1024*%
%ADD15R,0.0630X0.0551*%
%ADD16R,0.0640X0.0640*%
%ADD17OC8,0.0640*%
%ADD18R,0.0709X0.1417*%
%ADD19R,0.0551X0.0551*%
%ADD20R,0.0460X0.0630*%
%ADD21R,0.0394X0.0551*%
%ADD22C,0.0160*%
%ADD23C,0.0400*%
%ADD24C,0.0436*%
%ADD25C,0.0120*%
D10*
X004649Y005649D02*
X004649Y014649D01*
X022649Y014649D01*
X022649Y005649D01*
X004649Y005649D01*
D11*
X010899Y007524D03*
X011899Y007524D03*
X012899Y007524D03*
X012899Y008273D03*
X011899Y008273D03*
X010899Y008273D03*
X011649Y010024D03*
X011649Y010773D03*
X010899Y011774D03*
X010899Y012523D03*
X014149Y012523D03*
X015149Y012523D03*
X015149Y011774D03*
X014149Y011774D03*
X014149Y010523D03*
X014149Y009774D03*
X021399Y007042D03*
X021399Y006255D03*
D12*
X017523Y006899D03*
X016775Y006899D03*
X013273Y010899D03*
X012525Y010899D03*
X009773Y010399D03*
X009025Y010399D03*
X009025Y009399D03*
X009773Y009399D03*
X009792Y008399D03*
X009005Y008399D03*
X007542Y007399D03*
X006755Y007399D03*
X006755Y013649D03*
X007542Y013649D03*
D13*
X007922Y009649D03*
X007922Y009149D03*
X007922Y008649D03*
X007922Y008149D03*
X005875Y008149D03*
X005875Y008649D03*
X005875Y009149D03*
X005875Y009649D03*
D14*
X009399Y011690D03*
X009399Y013107D03*
D15*
X009989Y007399D03*
X008808Y007399D03*
D16*
X017399Y008149D03*
X021899Y008149D03*
X018399Y013899D03*
D17*
X017399Y013899D03*
X016399Y013899D03*
X016399Y012149D03*
X017399Y012149D03*
X017399Y011149D03*
X016399Y011149D03*
X016399Y010149D03*
X017399Y010149D03*
X017399Y009149D03*
X016399Y009149D03*
X016399Y008149D03*
X021899Y009149D03*
X021899Y010149D03*
X021899Y011149D03*
X021899Y012149D03*
D18*
X007686Y011149D03*
X006111Y011149D03*
D19*
X006151Y012649D03*
X007647Y012649D03*
X020399Y007647D03*
X020399Y006150D03*
D20*
X020549Y013899D03*
X021149Y013899D03*
X021749Y013899D03*
D21*
X013023Y009215D03*
X012275Y009215D03*
X012649Y010082D03*
X014149Y008332D03*
X014523Y007465D03*
X013775Y007465D03*
X018462Y006840D03*
X019210Y006840D03*
X018836Y007707D03*
X012773Y011965D03*
X012025Y011965D03*
X012399Y012832D03*
D22*
X012399Y013149D01*
X012899Y013649D01*
X013649Y013649D01*
X014149Y013149D01*
X014149Y012523D01*
X015149Y012523D02*
X015149Y013149D01*
X014149Y014149D01*
X010899Y014149D01*
X010899Y013149D01*
X010899Y012523D01*
X010384Y012527D02*
X009914Y012527D01*
X009914Y012512D02*
X009914Y013702D01*
X009796Y013819D01*
X009715Y013819D01*
X009765Y013869D01*
X010619Y013869D01*
X010619Y013434D01*
X010560Y013375D01*
X010499Y013228D01*
X010499Y013069D01*
X010536Y012978D01*
X010501Y012978D01*
X010384Y012861D01*
X010384Y012184D01*
X010419Y012148D01*
X010384Y012113D01*
X010384Y011436D01*
X010501Y011319D01*
X010619Y011319D01*
X010619Y009434D01*
X010560Y009375D01*
X010499Y009228D01*
X010499Y009069D01*
X010560Y008922D01*
X010619Y008863D01*
X010619Y008728D01*
X010501Y008728D01*
X010384Y008611D01*
X010384Y007934D01*
X010435Y007883D01*
X010416Y007850D01*
X010408Y007822D01*
X010374Y007842D01*
X010328Y007854D01*
X010047Y007854D01*
X010047Y007457D01*
X009931Y007457D01*
X009931Y007854D01*
X009651Y007854D01*
X009605Y007842D01*
X009564Y007818D01*
X009530Y007785D01*
X009507Y007744D01*
X009494Y007698D01*
X009494Y007456D01*
X009931Y007456D01*
X009931Y007341D01*
X009494Y007341D01*
X009494Y007099D01*
X009507Y007053D01*
X009530Y007012D01*
X009564Y006979D01*
X009605Y006955D01*
X009651Y006943D01*
X009931Y006943D01*
X009931Y007340D01*
X010047Y007340D01*
X010047Y006943D01*
X010328Y006943D01*
X010374Y006955D01*
X010415Y006979D01*
X010448Y007012D01*
X010472Y007053D01*
X010484Y007099D01*
X010484Y007118D01*
X010514Y007101D01*
X010560Y007089D01*
X010851Y007089D01*
X010851Y007476D01*
X010947Y007476D01*
X010947Y007089D01*
X011237Y007089D01*
X011283Y007101D01*
X011324Y007125D01*
X011358Y007158D01*
X011381Y007199D01*
X011384Y007208D01*
X011384Y007186D01*
X011501Y007069D01*
X011517Y007069D01*
X011481Y006982D01*
X011481Y006815D01*
X011544Y006662D01*
X011662Y006544D01*
X011815Y006480D01*
X011982Y006480D01*
X012135Y006544D01*
X012253Y006662D01*
X012317Y006815D01*
X012317Y006982D01*
X012281Y007069D01*
X012296Y007069D01*
X012399Y007171D01*
X012501Y007069D01*
X012650Y007069D01*
X012678Y007001D01*
X012751Y006928D01*
X013001Y006678D01*
X013097Y006639D01*
X013200Y006639D01*
X015700Y006639D01*
X015796Y006678D01*
X015869Y006751D01*
X016319Y007201D01*
X016319Y006501D01*
X016436Y006384D01*
X017113Y006384D01*
X017149Y006419D01*
X017184Y006384D01*
X017861Y006384D01*
X017971Y006494D01*
X018065Y006494D01*
X018065Y006482D01*
X018182Y006365D01*
X018742Y006365D01*
X018762Y006385D01*
X018749Y006353D01*
X018749Y006194D01*
X018810Y006047D01*
X018922Y005934D01*
X019069Y005874D01*
X019228Y005874D01*
X019375Y005934D01*
X019488Y006047D01*
X019549Y006194D01*
X019549Y006353D01*
X019911Y005990D01*
X019923Y005978D01*
X019923Y005848D01*
X004849Y005848D01*
X004849Y014449D01*
X018303Y014449D01*
X018273Y014418D01*
X017996Y014418D01*
X017879Y014301D01*
X017879Y014154D01*
X017614Y014418D01*
X017183Y014418D01*
X016899Y014134D01*
X016614Y014418D01*
X016183Y014418D01*
X015879Y014114D01*
X015879Y013683D01*
X016183Y013379D01*
X016614Y013379D01*
X016899Y013663D01*
X017183Y013379D01*
X017273Y013379D01*
X017335Y013317D01*
X017315Y013317D01*
X017162Y013253D01*
X017087Y013178D01*
X015843Y013178D01*
X015740Y013136D01*
X015661Y013057D01*
X015565Y012960D01*
X015546Y012978D01*
X015429Y012978D01*
X015429Y013093D01*
X015429Y013204D01*
X015386Y013307D01*
X014386Y014307D01*
X014307Y014386D01*
X014204Y014428D01*
X010954Y014428D01*
X010843Y014428D01*
X009704Y014428D01*
X009593Y014428D01*
X009490Y014386D01*
X009240Y014136D01*
X009161Y014057D01*
X009119Y013954D01*
X009119Y013819D01*
X009001Y013819D01*
X008884Y013702D01*
X008884Y013178D01*
X008593Y013178D01*
X008490Y013136D01*
X008411Y013057D01*
X008283Y012928D01*
X008122Y012928D01*
X008122Y013007D01*
X008005Y013124D01*
X007822Y013124D01*
X007822Y013134D01*
X007881Y013134D01*
X007998Y013251D01*
X007998Y014046D01*
X007881Y014163D01*
X007204Y014163D01*
X007135Y014094D01*
X007121Y014107D01*
X007080Y014131D01*
X007035Y014143D01*
X006803Y014143D01*
X006803Y013697D01*
X006707Y013697D01*
X006707Y014143D01*
X006475Y014143D01*
X006430Y014131D01*
X006389Y014107D01*
X006355Y014074D01*
X006331Y014033D01*
X006319Y013987D01*
X006319Y013696D01*
X006707Y013696D01*
X006707Y013600D01*
X006803Y013600D01*
X006803Y013154D01*
X007035Y013154D01*
X007080Y013166D01*
X007121Y013189D01*
X007135Y013203D01*
X007204Y013134D01*
X007262Y013134D01*
X007262Y013098D01*
X007171Y013007D01*
X007171Y012290D01*
X007288Y012173D01*
X008005Y012173D01*
X008122Y012290D01*
X008122Y012369D01*
X008343Y012369D01*
X008454Y012369D01*
X008557Y012411D01*
X008765Y012619D01*
X008884Y012619D01*
X008884Y012512D01*
X009001Y012395D01*
X009796Y012395D01*
X009914Y012512D01*
X009914Y012685D02*
X010384Y012685D01*
X010384Y012844D02*
X009914Y012844D01*
X009914Y013003D02*
X010526Y013003D01*
X010499Y013161D02*
X009914Y013161D01*
X009914Y013320D02*
X010537Y013320D01*
X010619Y013478D02*
X009914Y013478D01*
X009914Y013637D02*
X010619Y013637D01*
X010619Y013795D02*
X009820Y013795D01*
X009649Y014149D02*
X009399Y013899D01*
X009399Y013107D01*
X009399Y012899D01*
X008649Y012899D01*
X008399Y012649D01*
X007647Y012649D01*
X007542Y012753D01*
X007542Y013649D01*
X007998Y013637D02*
X008884Y013637D01*
X008884Y013478D02*
X007998Y013478D01*
X007998Y013320D02*
X008884Y013320D01*
X008551Y013161D02*
X007909Y013161D01*
X008122Y013003D02*
X008357Y013003D01*
X008673Y012527D02*
X008884Y012527D01*
X008973Y012346D02*
X009014Y012369D01*
X009060Y012382D01*
X009321Y012382D01*
X009321Y011768D01*
X009476Y011768D01*
X009476Y012382D01*
X009737Y012382D01*
X009783Y012369D01*
X009824Y012346D01*
X009858Y012312D01*
X009881Y012271D01*
X009894Y012225D01*
X009894Y011767D01*
X009476Y011767D01*
X009476Y011612D01*
X009476Y010998D01*
X009737Y010998D01*
X009783Y011010D01*
X009824Y011034D01*
X009858Y011067D01*
X009881Y011109D01*
X009894Y011154D01*
X009894Y011612D01*
X009476Y011612D01*
X009321Y011612D01*
X009321Y010998D01*
X009060Y010998D01*
X009014Y011010D01*
X008973Y011034D01*
X008940Y011067D01*
X008916Y011109D01*
X008904Y011154D01*
X008904Y011612D01*
X009321Y011612D01*
X009321Y011767D01*
X008904Y011767D01*
X008904Y012225D01*
X008916Y012271D01*
X008940Y012312D01*
X008973Y012346D01*
X009013Y012368D02*
X008122Y012368D01*
X008042Y012210D02*
X008904Y012210D01*
X008904Y012051D02*
X008129Y012051D01*
X008123Y012057D02*
X007249Y012057D01*
X007132Y011940D01*
X007132Y010357D01*
X007171Y010317D01*
X006990Y010136D01*
X006911Y010057D01*
X006869Y009954D01*
X006869Y009343D01*
X006911Y009240D01*
X006990Y009161D01*
X007103Y009048D01*
X007069Y009048D01*
X006922Y008988D01*
X006810Y008875D01*
X006749Y008728D01*
X006749Y008694D01*
X006557Y008886D01*
X006457Y008928D01*
X006476Y008961D01*
X006488Y009007D01*
X006488Y009148D01*
X005875Y009148D01*
X005262Y009148D01*
X005262Y009007D01*
X005274Y008961D01*
X005298Y008920D01*
X005305Y008913D01*
X005242Y008849D01*
X005242Y008448D01*
X005305Y008384D01*
X005298Y008377D01*
X005274Y008336D01*
X005262Y008290D01*
X005262Y008149D01*
X005875Y008149D01*
X005149Y008149D01*
X004899Y008399D01*
X004899Y008899D01*
X005149Y009149D01*
X005875Y009149D01*
X005875Y009148D01*
X005875Y009149D01*
X005262Y009149D01*
X005262Y009290D01*
X005274Y009336D01*
X005298Y009377D01*
X005305Y009384D01*
X005242Y009448D01*
X005242Y009849D01*
X005359Y009967D01*
X005619Y009967D01*
X005619Y010295D01*
X005557Y010357D01*
X005557Y011940D01*
X005674Y012057D01*
X005869Y012057D01*
X005869Y012173D01*
X005792Y012173D01*
X005675Y012290D01*
X005675Y013007D01*
X005792Y013124D01*
X006509Y013124D01*
X006626Y013007D01*
X006626Y012290D01*
X006509Y012173D01*
X006429Y012173D01*
X006429Y012057D01*
X006548Y012057D01*
X006666Y011940D01*
X006666Y010357D01*
X006548Y010240D01*
X006179Y010240D01*
X006179Y009967D01*
X006391Y009967D01*
X006508Y009849D01*
X006508Y009448D01*
X006445Y009384D01*
X006452Y009377D01*
X006476Y009336D01*
X006488Y009290D01*
X006488Y009149D01*
X005875Y009149D01*
X005262Y009198D02*
X004849Y009198D01*
X004849Y009356D02*
X005286Y009356D01*
X005242Y009515D02*
X004849Y009515D01*
X004849Y009673D02*
X005242Y009673D01*
X005242Y009832D02*
X004849Y009832D01*
X004849Y009990D02*
X005619Y009990D01*
X005619Y010149D02*
X004849Y010149D01*
X004849Y010307D02*
X005607Y010307D01*
X005557Y010466D02*
X004849Y010466D01*
X004849Y010624D02*
X005557Y010624D01*
X005557Y010783D02*
X004849Y010783D01*
X004849Y010941D02*
X005557Y010941D01*
X005557Y011100D02*
X004849Y011100D01*
X004849Y011259D02*
X005557Y011259D01*
X005557Y011417D02*
X004849Y011417D01*
X004849Y011576D02*
X005557Y011576D01*
X005557Y011734D02*
X004849Y011734D01*
X004849Y011893D02*
X005557Y011893D01*
X005668Y012051D02*
X004849Y012051D01*
X004849Y012210D02*
X005755Y012210D01*
X005675Y012368D02*
X004849Y012368D01*
X004849Y012527D02*
X005675Y012527D01*
X005675Y012685D02*
X004849Y012685D01*
X004849Y012844D02*
X005675Y012844D01*
X005675Y013003D02*
X004849Y013003D01*
X004849Y013161D02*
X006447Y013161D01*
X006430Y013166D02*
X006475Y013154D01*
X006707Y013154D01*
X006707Y013600D01*
X006319Y013600D01*
X006319Y013310D01*
X006331Y013264D01*
X006355Y013223D01*
X006389Y013189D01*
X006430Y013166D01*
X006319Y013320D02*
X004849Y013320D01*
X004849Y013478D02*
X006319Y013478D01*
X006319Y013795D02*
X004849Y013795D01*
X004849Y013637D02*
X006707Y013637D01*
X006707Y013795D02*
X006803Y013795D01*
X006803Y013954D02*
X006707Y013954D01*
X006707Y014112D02*
X006803Y014112D01*
X007113Y014112D02*
X007153Y014112D01*
X006397Y014112D02*
X004849Y014112D01*
X004849Y013954D02*
X006319Y013954D01*
X006707Y013478D02*
X006803Y013478D01*
X006803Y013320D02*
X006707Y013320D01*
X006707Y013161D02*
X006803Y013161D01*
X006626Y013003D02*
X007171Y013003D01*
X007176Y013161D02*
X007063Y013161D01*
X007171Y012844D02*
X006626Y012844D01*
X006626Y012685D02*
X007171Y012685D01*
X007171Y012527D02*
X006626Y012527D01*
X006626Y012368D02*
X007171Y012368D01*
X007251Y012210D02*
X006546Y012210D01*
X006554Y012051D02*
X007243Y012051D01*
X007132Y011893D02*
X006666Y011893D01*
X006666Y011734D02*
X007132Y011734D01*
X007132Y011576D02*
X006666Y011576D01*
X006666Y011417D02*
X007132Y011417D01*
X007132Y011259D02*
X006666Y011259D01*
X006666Y011100D02*
X007132Y011100D01*
X007132Y010941D02*
X006666Y010941D01*
X006666Y010783D02*
X007132Y010783D01*
X007132Y010624D02*
X006666Y010624D01*
X006666Y010466D02*
X007132Y010466D01*
X007162Y010307D02*
X006616Y010307D01*
X007003Y010149D02*
X006179Y010149D01*
X006179Y009990D02*
X006884Y009990D01*
X006869Y009832D02*
X006508Y009832D01*
X006508Y009673D02*
X006869Y009673D01*
X006869Y009515D02*
X006508Y009515D01*
X006464Y009356D02*
X006869Y009356D01*
X006954Y009198D02*
X006488Y009198D01*
X006488Y009039D02*
X007046Y009039D01*
X006815Y008880D02*
X006563Y008880D01*
X006721Y008722D02*
X006749Y008722D01*
X007149Y008649D02*
X007922Y008649D01*
X008899Y008649D01*
X008899Y008399D01*
X008899Y007489D01*
X008808Y007399D01*
X008879Y007399D01*
X008859Y007379D01*
X009323Y007454D02*
X009931Y007454D01*
X009931Y007612D02*
X010047Y007612D01*
X010047Y007771D02*
X009931Y007771D01*
X009840Y007904D02*
X010072Y007904D01*
X010118Y007916D01*
X010159Y007939D01*
X010192Y007973D01*
X010216Y008014D01*
X010228Y008060D01*
X010228Y008350D01*
X009841Y008350D01*
X009841Y008446D01*
X010228Y008446D01*
X010228Y008737D01*
X010216Y008783D01*
X010192Y008824D01*
X010159Y008857D01*
X010118Y008881D01*
X010109Y008884D01*
X010111Y008884D01*
X010229Y009001D01*
X010229Y009796D01*
X010126Y009898D01*
X010229Y010001D01*
X010229Y010796D01*
X010111Y010913D01*
X009434Y010913D01*
X009399Y010878D01*
X009363Y010913D01*
X008686Y010913D01*
X008569Y010796D01*
X008569Y010678D01*
X008454Y010678D01*
X008343Y010678D01*
X008240Y010636D01*
X008240Y011940D01*
X008123Y012057D01*
X008240Y011893D02*
X008904Y011893D01*
X008904Y011576D02*
X008240Y011576D01*
X008240Y011734D02*
X009321Y011734D01*
X009476Y011734D02*
X010384Y011734D01*
X010384Y011576D02*
X009894Y011576D01*
X009894Y011417D02*
X010402Y011417D01*
X010619Y011259D02*
X009894Y011259D01*
X009876Y011100D02*
X010619Y011100D01*
X010619Y010941D02*
X008240Y010941D01*
X008240Y010783D02*
X008569Y010783D01*
X008240Y011100D02*
X008921Y011100D01*
X008904Y011259D02*
X008240Y011259D01*
X008240Y011417D02*
X008904Y011417D01*
X009321Y011417D02*
X009476Y011417D01*
X009476Y011259D02*
X009321Y011259D01*
X009321Y011100D02*
X009476Y011100D01*
X009476Y011576D02*
X009321Y011576D01*
X009321Y011893D02*
X009476Y011893D01*
X009476Y012051D02*
X009321Y012051D01*
X009321Y012210D02*
X009476Y012210D01*
X009476Y012368D02*
X009321Y012368D01*
X009785Y012368D02*
X010384Y012368D01*
X010384Y012210D02*
X009894Y012210D01*
X009894Y012051D02*
X010384Y012051D01*
X010384Y011893D02*
X009894Y011893D01*
X010899Y011774D02*
X010899Y009149D01*
X010899Y008273D01*
X010384Y008246D02*
X010228Y008246D01*
X010228Y008088D02*
X010384Y008088D01*
X010388Y007929D02*
X010141Y007929D01*
X009840Y007929D02*
X009744Y007929D01*
X009744Y007904D02*
X009513Y007904D01*
X009467Y007916D01*
X009426Y007939D01*
X009413Y007953D01*
X009344Y007884D01*
X009179Y007884D01*
X009179Y007874D01*
X009206Y007874D01*
X009323Y007757D01*
X009323Y007040D01*
X009206Y006923D01*
X008410Y006923D01*
X008293Y007040D01*
X008293Y007757D01*
X008367Y007830D01*
X007936Y007830D01*
X007942Y007824D01*
X007966Y007783D01*
X007978Y007737D01*
X007978Y007446D01*
X007591Y007446D01*
X007591Y007350D01*
X007978Y007350D01*
X007978Y007060D01*
X007966Y007014D01*
X007942Y006973D01*
X007909Y006939D01*
X007868Y006916D01*
X007822Y006904D01*
X007590Y006904D01*
X007590Y007350D01*
X007494Y007350D01*
X007494Y006904D01*
X007263Y006904D01*
X007217Y006916D01*
X007176Y006939D01*
X007163Y006953D01*
X007094Y006884D01*
X006416Y006884D01*
X006299Y007001D01*
X006299Y007796D01*
X006361Y007858D01*
X006332Y007850D01*
X005875Y007850D01*
X005875Y008148D01*
X005875Y008148D01*
X005875Y007850D01*
X005418Y007850D01*
X005372Y007863D01*
X005331Y007886D01*
X005298Y007920D01*
X005274Y007961D01*
X005262Y008007D01*
X005262Y008148D01*
X005875Y008148D01*
X005875Y008149D01*
X005875Y008088D02*
X005875Y008088D01*
X005875Y007929D02*
X005875Y007929D01*
X006299Y007771D02*
X004849Y007771D01*
X004849Y007929D02*
X005293Y007929D01*
X005262Y008088D02*
X004849Y008088D01*
X004849Y008246D02*
X005262Y008246D01*
X005285Y008405D02*
X004849Y008405D01*
X004849Y008563D02*
X005242Y008563D01*
X005242Y008722D02*
X004849Y008722D01*
X004849Y008880D02*
X005273Y008880D01*
X005262Y009039D02*
X004849Y009039D01*
X005875Y008649D02*
X006399Y008649D01*
X006649Y008399D01*
X006649Y007255D01*
X006755Y007399D01*
X006299Y007454D02*
X004849Y007454D01*
X004849Y007612D02*
X006299Y007612D01*
X006299Y007295D02*
X004849Y007295D01*
X004849Y007136D02*
X006299Y007136D01*
X006322Y006978D02*
X004849Y006978D01*
X004849Y006819D02*
X011481Y006819D01*
X011481Y006978D02*
X010413Y006978D01*
X010047Y006978D02*
X009931Y006978D01*
X009931Y007136D02*
X010047Y007136D01*
X010047Y007295D02*
X009931Y007295D01*
X009494Y007295D02*
X009323Y007295D01*
X009323Y007136D02*
X009494Y007136D01*
X009565Y006978D02*
X009261Y006978D01*
X009323Y007612D02*
X009494Y007612D01*
X009522Y007771D02*
X009309Y007771D01*
X009389Y007929D02*
X009444Y007929D01*
X009744Y007904D02*
X009744Y008350D01*
X009840Y008350D01*
X009840Y007904D01*
X009840Y008088D02*
X009744Y008088D01*
X009744Y008246D02*
X009840Y008246D01*
X009841Y008405D02*
X010384Y008405D01*
X010384Y008563D02*
X010228Y008563D01*
X010228Y008722D02*
X010494Y008722D01*
X010601Y008880D02*
X010119Y008880D01*
X010229Y009039D02*
X010511Y009039D01*
X010499Y009198D02*
X010229Y009198D01*
X010229Y009356D02*
X010552Y009356D01*
X010619Y009515D02*
X010229Y009515D01*
X010229Y009673D02*
X010619Y009673D01*
X010619Y009832D02*
X010193Y009832D01*
X010218Y009990D02*
X010619Y009990D01*
X010619Y010149D02*
X010229Y010149D01*
X010229Y010307D02*
X010619Y010307D01*
X010619Y010466D02*
X010229Y010466D01*
X010229Y010624D02*
X010619Y010624D01*
X010619Y010783D02*
X010229Y010783D01*
X009773Y010399D02*
X009649Y010274D01*
X009649Y010149D01*
X009025Y009524D01*
X009025Y009399D01*
X008775Y009149D01*
X007922Y009149D01*
X007399Y009149D01*
X007149Y009399D01*
X007149Y009899D01*
X007649Y010399D01*
X007649Y011149D01*
X007686Y011149D01*
X008399Y010399D02*
X007899Y009899D01*
X007899Y009672D01*
X007922Y009649D01*
X008399Y010399D02*
X009025Y010399D01*
X009773Y009399D02*
X009649Y009274D01*
X009649Y009149D01*
X009149Y008649D01*
X009149Y008542D01*
X009005Y008399D01*
X008899Y008399D01*
X008307Y007771D02*
X007969Y007771D01*
X007978Y007612D02*
X008293Y007612D01*
X008293Y007454D02*
X007978Y007454D01*
X007978Y007295D02*
X008293Y007295D01*
X008293Y007136D02*
X007978Y007136D01*
X007945Y006978D02*
X008355Y006978D01*
X007590Y006978D02*
X007494Y006978D01*
X007494Y007136D02*
X007590Y007136D01*
X007590Y007295D02*
X007494Y007295D01*
X007139Y008139D02*
X007149Y008149D01*
X007139Y008139D02*
X007912Y008139D01*
X007922Y008149D01*
X009773Y009399D02*
X009899Y009273D01*
X011649Y010024D02*
X011773Y010149D01*
X012649Y010149D01*
X012649Y010082D01*
X013045Y010149D02*
X013669Y010149D01*
X013669Y010148D02*
X013634Y010113D01*
X013634Y009436D01*
X013751Y009319D01*
X013869Y009319D01*
X013869Y008807D01*
X013752Y008690D01*
X013752Y008254D01*
X013496Y008510D01*
X013414Y008544D01*
X013414Y008611D01*
X013296Y008728D01*
X012501Y008728D01*
X012399Y008626D01*
X012296Y008728D01*
X012249Y008728D01*
X012261Y008740D01*
X012554Y008740D01*
X012668Y008853D01*
X012682Y008829D01*
X012715Y008796D01*
X012756Y008772D01*
X012802Y008760D01*
X013004Y008760D01*
X013004Y009197D01*
X013041Y009197D01*
X013041Y008760D01*
X013243Y008760D01*
X013289Y008772D01*
X013330Y008796D01*
X013364Y008829D01*
X013387Y008870D01*
X013399Y008916D01*
X013399Y009197D01*
X013041Y009197D01*
X013041Y009234D01*
X013004Y009234D01*
X013004Y009671D01*
X012993Y009671D01*
X013045Y009723D01*
X013045Y010384D01*
X013611Y010384D01*
X013634Y010406D01*
X013634Y010184D01*
X013669Y010148D01*
X013634Y009990D02*
X013045Y009990D01*
X013045Y009832D02*
X013634Y009832D01*
X013634Y009673D02*
X012995Y009673D01*
X013041Y009671D02*
X013243Y009671D01*
X013289Y009659D01*
X013330Y009635D01*
X013364Y009602D01*
X013387Y009560D01*
X013399Y009515D01*
X013399Y009234D01*
X013041Y009234D01*
X013041Y009671D01*
X013041Y009515D02*
X013004Y009515D01*
X013004Y009356D02*
X013041Y009356D01*
X013041Y009198D02*
X013869Y009198D01*
X013869Y009039D02*
X013399Y009039D01*
X013390Y008880D02*
X013869Y008880D01*
X013784Y008722D02*
X013303Y008722D01*
X013414Y008563D02*
X013752Y008563D01*
X013752Y008405D02*
X013601Y008405D01*
X013337Y008273D02*
X013774Y007836D01*
X013774Y007466D01*
X013775Y007465D01*
X014504Y007484D02*
X014504Y007921D01*
X014493Y007921D01*
X014545Y007973D01*
X014545Y008690D01*
X014429Y008807D01*
X014429Y009319D01*
X014546Y009319D01*
X014664Y009436D01*
X014664Y010113D01*
X014658Y010119D01*
X015033Y010119D01*
X015119Y010033D01*
X015119Y009093D01*
X015161Y008990D01*
X015240Y008911D01*
X015661Y008490D01*
X015740Y008411D01*
X015843Y008369D01*
X015883Y008369D01*
X015879Y008364D01*
X015879Y007933D01*
X016097Y007715D01*
X015541Y007158D01*
X014897Y007158D01*
X014899Y007166D01*
X014899Y007447D01*
X014541Y007447D01*
X014541Y007484D01*
X014504Y007484D01*
X014541Y007484D02*
X014541Y007921D01*
X014743Y007921D01*
X014789Y007909D01*
X014830Y007885D01*
X014864Y007852D01*
X014887Y007810D01*
X014899Y007765D01*
X014899Y007484D01*
X014541Y007484D01*
X014541Y007454D02*
X015836Y007454D01*
X015995Y007612D02*
X014899Y007612D01*
X014898Y007771D02*
X016041Y007771D01*
X015883Y007929D02*
X014501Y007929D01*
X014504Y007771D02*
X014541Y007771D01*
X014541Y007612D02*
X014504Y007612D01*
X014899Y007295D02*
X015678Y007295D01*
X016096Y006978D02*
X016319Y006978D01*
X016319Y007136D02*
X016254Y007136D01*
X016319Y006819D02*
X015937Y006819D01*
X015754Y006661D02*
X016319Y006661D01*
X016319Y006502D02*
X012035Y006502D01*
X012252Y006661D02*
X013043Y006661D01*
X012860Y006819D02*
X012317Y006819D01*
X012317Y006978D02*
X012702Y006978D01*
X012433Y007136D02*
X012364Y007136D01*
X011763Y006502D02*
X004849Y006502D01*
X004849Y006344D02*
X018749Y006344D01*
X018752Y006185D02*
X004849Y006185D01*
X004849Y006027D02*
X018830Y006027D01*
X019149Y006274D02*
X019149Y006840D01*
X019210Y006840D01*
X019649Y006649D02*
X020149Y006149D01*
X020397Y006149D01*
X020399Y006150D01*
X020874Y006185D02*
X020904Y006185D01*
X020904Y006207D02*
X020904Y005975D01*
X020916Y005929D01*
X020940Y005888D01*
X020973Y005855D01*
X020984Y005848D01*
X020874Y005848D01*
X020874Y006509D01*
X020757Y006626D01*
X020067Y006626D01*
X019929Y006764D01*
X019929Y007204D01*
X019886Y007307D01*
X019807Y007386D01*
X019249Y007944D01*
X019233Y007951D01*
X019233Y008065D01*
X019116Y008182D01*
X018556Y008182D01*
X018439Y008065D01*
X018439Y007348D01*
X018471Y007316D01*
X018182Y007316D01*
X018065Y007199D01*
X018065Y007053D01*
X017979Y007053D01*
X017979Y007296D01*
X017861Y007413D01*
X017281Y007413D01*
X017496Y007629D01*
X017801Y007629D01*
X017919Y007746D01*
X017919Y008369D01*
X017954Y008369D01*
X018057Y008411D01*
X018136Y008490D01*
X018265Y008619D01*
X019652Y008619D01*
X019544Y008510D01*
X019481Y008357D01*
X019481Y008190D01*
X019544Y008037D01*
X019662Y007919D01*
X019815Y007855D01*
X019923Y007855D01*
X019923Y007288D01*
X020040Y007171D01*
X020230Y007171D01*
X020411Y006990D01*
X020490Y006911D01*
X020593Y006869D01*
X020884Y006869D01*
X020884Y006703D01*
X020953Y006634D01*
X020940Y006621D01*
X020916Y006580D01*
X020904Y006534D01*
X020904Y006303D01*
X021350Y006303D01*
X021350Y006207D01*
X020904Y006207D01*
X020904Y006344D02*
X020874Y006344D01*
X020874Y006502D02*
X020904Y006502D01*
X020926Y006661D02*
X020032Y006661D01*
X019929Y006819D02*
X020884Y006819D01*
X020649Y007149D02*
X021292Y007149D01*
X021399Y007042D01*
X021914Y006978D02*
X022449Y006978D01*
X022449Y007136D02*
X021914Y007136D01*
X021914Y007295D02*
X022449Y007295D01*
X022449Y007454D02*
X021841Y007454D01*
X021796Y007498D02*
X021001Y007498D01*
X020931Y007428D01*
X020874Y007428D01*
X020874Y008005D01*
X020757Y008122D01*
X020679Y008122D01*
X020679Y008204D01*
X020636Y008307D01*
X020432Y008511D01*
X020329Y008553D01*
X020218Y008553D01*
X020210Y008553D01*
X020145Y008619D01*
X020783Y008619D01*
X021379Y008023D01*
X021379Y007746D01*
X021496Y007629D01*
X022301Y007629D01*
X022419Y007746D01*
X022419Y008551D01*
X022301Y008668D01*
X022154Y008668D01*
X022419Y008933D01*
X022419Y009364D01*
X022120Y009663D01*
X022399Y009941D01*
X022399Y010128D01*
X021919Y010128D01*
X021919Y010169D01*
X022399Y010169D01*
X022399Y010356D01*
X022120Y010634D01*
X022419Y010933D01*
X022419Y011364D01*
X022134Y011648D01*
X022419Y011933D01*
X022419Y012364D01*
X022114Y012668D01*
X021683Y012668D01*
X021443Y012428D01*
X020593Y012428D01*
X020490Y012386D01*
X020411Y012307D01*
X019161Y011057D01*
X019119Y010954D01*
X019119Y010843D01*
X019119Y010264D01*
X018783Y009928D01*
X018740Y009928D01*
X018799Y010069D01*
X018799Y010228D01*
X018738Y010375D01*
X018679Y010434D01*
X018679Y012843D01*
X018679Y012954D01*
X018636Y013057D01*
X018386Y013307D01*
X018315Y013379D01*
X018801Y013379D01*
X018919Y013496D01*
X018919Y014119D01*
X019537Y014119D01*
X019481Y013982D01*
X019481Y013815D01*
X019544Y013662D01*
X019662Y013544D01*
X019815Y013480D01*
X019982Y013480D01*
X020119Y013537D01*
X020119Y013501D01*
X020236Y013384D01*
X020836Y013384D01*
X020869Y013384D01*
X020869Y013264D01*
X020865Y013261D01*
X020732Y013317D01*
X020565Y013317D01*
X020412Y013253D01*
X020294Y013135D01*
X020231Y012982D01*
X020231Y012815D01*
X020294Y012662D01*
X020412Y012544D01*
X020565Y012480D01*
X020732Y012480D01*
X020885Y012544D01*
X020964Y012622D01*
X021057Y012661D01*
X021307Y012911D01*
X021386Y012990D01*
X021429Y013093D01*
X021429Y013384D01*
X021436Y013384D01*
X021544Y013384D01*
X021481Y013232D01*
X021481Y013065D01*
X021544Y012912D01*
X021662Y012794D01*
X021815Y012730D01*
X021982Y012730D01*
X022135Y012794D01*
X022253Y012912D01*
X022317Y013065D01*
X022317Y013232D01*
X022253Y013385D01*
X022179Y013460D01*
X022179Y013501D01*
X022179Y013693D01*
X022179Y013804D01*
X022179Y014296D01*
X022061Y014413D01*
X021929Y014413D01*
X021929Y014449D01*
X022449Y014449D01*
X022449Y005848D01*
X021813Y005848D01*
X021824Y005855D01*
X021858Y005888D01*
X021881Y005929D01*
X021894Y005975D01*
X021894Y006207D01*
X021447Y006207D01*
X021447Y006303D01*
X021894Y006303D01*
X021894Y006534D01*
X021881Y006580D01*
X021858Y006621D01*
X021844Y006634D01*
X021914Y006703D01*
X021914Y007381D01*
X021796Y007498D01*
X021379Y007771D02*
X020874Y007771D01*
X020874Y007929D02*
X021379Y007929D01*
X021313Y008088D02*
X020791Y008088D01*
X020661Y008246D02*
X021155Y008246D01*
X020996Y008405D02*
X020538Y008405D01*
X020399Y008149D02*
X020274Y008274D01*
X019899Y008274D01*
X020200Y008563D02*
X020838Y008563D01*
X020899Y008899D02*
X018149Y008899D01*
X017899Y008649D01*
X015899Y008649D01*
X015399Y009149D01*
X015399Y010149D01*
X015149Y010399D01*
X014399Y010399D01*
X014413Y010449D02*
X014149Y010523D01*
X014149Y011774D01*
X013399Y011899D02*
X013399Y013149D01*
X014739Y013954D02*
X015879Y013954D01*
X015879Y014112D02*
X014581Y014112D01*
X014422Y014271D02*
X016036Y014271D01*
X015879Y013795D02*
X014898Y013795D01*
X015056Y013637D02*
X015925Y013637D01*
X016084Y013478D02*
X015215Y013478D01*
X015373Y013320D02*
X017332Y013320D01*
X017084Y013478D02*
X016714Y013478D01*
X016872Y013637D02*
X016925Y013637D01*
X017399Y013649D02*
X017899Y013149D01*
X018149Y013149D01*
X018399Y012899D01*
X018399Y010149D01*
X018766Y010307D02*
X019119Y010307D01*
X019119Y010466D02*
X018679Y010466D01*
X018679Y010624D02*
X019119Y010624D01*
X019119Y010783D02*
X018679Y010783D01*
X018679Y010941D02*
X019119Y010941D01*
X019204Y011100D02*
X018679Y011100D01*
X018679Y011259D02*
X019363Y011259D01*
X019521Y011417D02*
X018679Y011417D01*
X018679Y011576D02*
X019680Y011576D01*
X019838Y011734D02*
X018679Y011734D01*
X018679Y011893D02*
X019997Y011893D01*
X020156Y012051D02*
X018679Y012051D01*
X018679Y012210D02*
X020314Y012210D01*
X020473Y012368D02*
X018679Y012368D01*
X018679Y012527D02*
X020453Y012527D01*
X020284Y012685D02*
X018679Y012685D01*
X018679Y012844D02*
X020231Y012844D01*
X020239Y013003D02*
X018659Y013003D01*
X018532Y013161D02*
X020320Y013161D01*
X020141Y013478D02*
X018901Y013478D01*
X018919Y013637D02*
X019569Y013637D01*
X019489Y013795D02*
X018919Y013795D01*
X018919Y013954D02*
X019481Y013954D01*
X019535Y014112D02*
X018919Y014112D01*
X018649Y014399D02*
X021649Y014399D01*
X021649Y013999D01*
X021749Y013899D01*
X021899Y013749D01*
X021899Y013149D01*
X022280Y013320D02*
X022449Y013320D01*
X022449Y013478D02*
X022179Y013478D01*
X022179Y013637D02*
X022449Y013637D01*
X022449Y013795D02*
X022179Y013795D01*
X022179Y013954D02*
X022449Y013954D01*
X022449Y014112D02*
X022179Y014112D01*
X022179Y014271D02*
X022449Y014271D01*
X022449Y014429D02*
X021929Y014429D01*
X021149Y013899D02*
X021149Y013149D01*
X020899Y012899D01*
X020649Y012899D01*
X021082Y012685D02*
X022449Y012685D01*
X022449Y012527D02*
X022256Y012527D01*
X022414Y012368D02*
X022449Y012368D01*
X022449Y012210D02*
X022419Y012210D01*
X022419Y012051D02*
X022449Y012051D01*
X022449Y011893D02*
X022378Y011893D01*
X022449Y011734D02*
X022220Y011734D01*
X022207Y011576D02*
X022449Y011576D01*
X022449Y011417D02*
X022365Y011417D01*
X022419Y011259D02*
X022449Y011259D01*
X022449Y011100D02*
X022419Y011100D01*
X022419Y010941D02*
X022449Y010941D01*
X022449Y010783D02*
X022268Y010783D01*
X022130Y010624D02*
X022449Y010624D01*
X022449Y010466D02*
X022288Y010466D01*
X022399Y010307D02*
X022449Y010307D01*
X022449Y010149D02*
X021919Y010149D01*
X021878Y010149D02*
X020179Y010149D01*
X020179Y010093D02*
X020179Y010533D01*
X020515Y010869D01*
X021443Y010869D01*
X021677Y010634D01*
X021399Y010356D01*
X021399Y010169D01*
X021878Y010169D01*
X021878Y010128D01*
X021399Y010128D01*
X021399Y009941D01*
X021677Y009663D01*
X021379Y009364D01*
X021379Y008933D01*
X021643Y008668D01*
X021525Y008668D01*
X021136Y009057D01*
X021057Y009136D01*
X020954Y009178D01*
X019325Y009178D01*
X020057Y009911D01*
X020057Y009911D01*
X020136Y009990D01*
X020179Y010093D01*
X020136Y009990D02*
X021399Y009990D01*
X021508Y009832D02*
X019978Y009832D01*
X019819Y009673D02*
X021667Y009673D01*
X021529Y009515D02*
X019661Y009515D01*
X019502Y009356D02*
X021379Y009356D01*
X021379Y009198D02*
X019344Y009198D01*
X019024Y009274D02*
X019899Y010149D01*
X019899Y010649D01*
X020399Y011149D01*
X021899Y011149D01*
X021529Y010783D02*
X020429Y010783D01*
X020271Y010624D02*
X021668Y010624D01*
X021509Y010466D02*
X020179Y010466D01*
X020179Y010307D02*
X021399Y010307D01*
X022289Y009832D02*
X022449Y009832D01*
X022449Y009990D02*
X022399Y009990D01*
X022449Y009673D02*
X022130Y009673D01*
X022268Y009515D02*
X022449Y009515D01*
X022449Y009356D02*
X022419Y009356D01*
X022419Y009198D02*
X022449Y009198D01*
X022449Y009039D02*
X022419Y009039D01*
X022449Y008880D02*
X022366Y008880D01*
X022449Y008722D02*
X022207Y008722D01*
X022407Y008563D02*
X022449Y008563D01*
X022449Y008405D02*
X022419Y008405D01*
X022419Y008246D02*
X022449Y008246D01*
X022449Y008088D02*
X022419Y008088D01*
X022419Y007929D02*
X022449Y007929D01*
X022449Y007771D02*
X022419Y007771D01*
X022449Y007612D02*
X020874Y007612D01*
X020874Y007454D02*
X020956Y007454D01*
X020649Y007149D02*
X020399Y007399D01*
X020399Y007647D01*
X020399Y008149D01*
X019923Y007771D02*
X019422Y007771D01*
X019264Y007929D02*
X019652Y007929D01*
X019523Y008088D02*
X019210Y008088D01*
X019481Y008246D02*
X017919Y008246D01*
X017919Y008088D02*
X018462Y008088D01*
X018439Y007929D02*
X017919Y007929D01*
X017919Y007771D02*
X018439Y007771D01*
X018439Y007612D02*
X017480Y007612D01*
X017321Y007454D02*
X018439Y007454D01*
X018161Y007295D02*
X017979Y007295D01*
X017979Y007136D02*
X018065Y007136D01*
X017648Y006774D02*
X017523Y006899D01*
X017648Y006774D02*
X018524Y006774D01*
X018525Y006773D01*
X019149Y006274D02*
X019210Y006335D01*
X019545Y006185D02*
X019716Y006185D01*
X019875Y006027D02*
X019467Y006027D01*
X019549Y006344D02*
X019557Y006344D01*
X019649Y006649D02*
X019649Y007149D01*
X019091Y007707D01*
X018836Y007707D01*
X019581Y007612D02*
X019923Y007612D01*
X019923Y007454D02*
X019740Y007454D01*
X019891Y007295D02*
X019923Y007295D01*
X019929Y007136D02*
X020265Y007136D01*
X020423Y006978D02*
X019929Y006978D01*
X020874Y006027D02*
X020904Y006027D01*
X020874Y005868D02*
X020960Y005868D01*
X021837Y005868D02*
X022449Y005868D01*
X022449Y006027D02*
X021894Y006027D01*
X021894Y006185D02*
X022449Y006185D01*
X022449Y006344D02*
X021894Y006344D01*
X021894Y006502D02*
X022449Y006502D01*
X022449Y006661D02*
X021871Y006661D01*
X021914Y006819D02*
X022449Y006819D01*
X021899Y008149D02*
X021649Y008149D01*
X020899Y008899D01*
X021154Y009039D02*
X021379Y009039D01*
X021431Y008880D02*
X021313Y008880D01*
X021471Y008722D02*
X021590Y008722D01*
X019597Y008563D02*
X018209Y008563D01*
X018042Y008405D02*
X019501Y008405D01*
X019024Y009274D02*
X018024Y009274D01*
X017899Y009149D01*
X017399Y009149D01*
X016899Y009649D02*
X018899Y009649D01*
X019399Y010149D01*
X019399Y010899D01*
X020649Y012149D01*
X021899Y012149D01*
X021542Y012527D02*
X020844Y012527D01*
X021240Y012844D02*
X021612Y012844D01*
X021507Y013003D02*
X021391Y013003D01*
X021429Y013161D02*
X021481Y013161D01*
X021517Y013320D02*
X021429Y013320D01*
X020869Y013320D02*
X018373Y013320D01*
X018399Y013899D02*
X018399Y014149D01*
X018649Y014399D01*
X018284Y014429D02*
X004849Y014429D01*
X004849Y014271D02*
X009375Y014271D01*
X009217Y014112D02*
X007932Y014112D01*
X007998Y013954D02*
X009119Y013954D01*
X008977Y013795D02*
X007998Y013795D01*
X009399Y013107D02*
X009460Y013169D01*
X009649Y014149D02*
X010899Y014149D01*
X011899Y012149D02*
X012025Y012023D01*
X012025Y011965D01*
X012025Y011773D01*
X012399Y011399D01*
X012399Y011024D01*
X012525Y010899D01*
X011775Y010899D01*
X011649Y010773D01*
X013045Y010307D02*
X013634Y010307D01*
X013399Y010899D02*
X013273Y010899D01*
X013399Y010899D02*
X013399Y011899D01*
X012899Y011899D01*
X012832Y011965D01*
X012773Y011965D01*
X015149Y011774D02*
X015525Y011774D01*
X015649Y011899D01*
X015649Y012649D01*
X015899Y012899D01*
X017399Y012899D01*
X017399Y013649D02*
X017399Y013899D01*
X017762Y014271D02*
X017879Y014271D01*
X017036Y014271D02*
X016762Y014271D01*
X015801Y013161D02*
X015429Y013161D01*
X015429Y013003D02*
X015607Y013003D01*
X019899Y013899D02*
X020549Y013899D01*
X020649Y013799D01*
X022317Y013161D02*
X022449Y013161D01*
X022449Y013003D02*
X022291Y013003D01*
X022185Y012844D02*
X022449Y012844D01*
X019003Y010149D02*
X018799Y010149D01*
X018766Y009990D02*
X018844Y009990D01*
X016899Y009649D02*
X016399Y009149D01*
X015588Y008563D02*
X014545Y008563D01*
X014545Y008405D02*
X015755Y008405D01*
X015661Y008490D02*
X015661Y008490D01*
X015879Y008246D02*
X014545Y008246D01*
X014545Y008088D02*
X015879Y008088D01*
X015429Y008722D02*
X014514Y008722D01*
X014429Y008880D02*
X015271Y008880D01*
X015141Y009039D02*
X014429Y009039D01*
X014429Y009198D02*
X015119Y009198D01*
X015119Y009356D02*
X014584Y009356D01*
X014664Y009515D02*
X015119Y009515D01*
X015119Y009673D02*
X014664Y009673D01*
X014664Y009832D02*
X015119Y009832D01*
X015119Y009990D02*
X014664Y009990D01*
X014149Y009774D02*
X014149Y008332D01*
X013337Y008273D02*
X012899Y008273D01*
X012494Y008722D02*
X012303Y008722D01*
X011899Y008774D02*
X012275Y009149D01*
X012275Y009215D01*
X011899Y008774D02*
X011899Y008273D01*
X013004Y008880D02*
X013041Y008880D01*
X013041Y009039D02*
X013004Y009039D01*
X013399Y009356D02*
X013713Y009356D01*
X013634Y009515D02*
X013399Y009515D01*
X010947Y007454D02*
X010851Y007454D01*
X010851Y007295D02*
X010947Y007295D01*
X010947Y007136D02*
X010851Y007136D01*
X011336Y007136D02*
X011433Y007136D01*
X011545Y006661D02*
X004849Y006661D01*
X004849Y005868D02*
X019923Y005868D01*
X006149Y011149D02*
X006149Y012647D01*
X006151Y012649D01*
X006111Y012609D01*
X006111Y011149D02*
X006149Y011149D01*
X006111Y011149D02*
X005875Y010912D01*
X005899Y010889D01*
X005899Y009649D01*
X005875Y009649D01*
D23*
X005024Y009274D03*
X007149Y008649D03*
X007149Y008149D03*
X008149Y006899D03*
X010399Y006649D03*
X010899Y009149D03*
X013649Y009149D03*
X015149Y007399D03*
X015899Y006399D03*
X017649Y006149D03*
X019149Y006274D03*
X022024Y006274D03*
X018399Y010149D03*
X013399Y013149D03*
X015399Y013899D03*
X019274Y013899D03*
X010899Y013149D03*
X010274Y013274D03*
X010149Y011149D03*
X008649Y011149D03*
X006149Y013649D03*
X005024Y007899D03*
X005024Y006899D03*
D24*
X011899Y006899D03*
X019899Y008274D03*
X020649Y012899D03*
X021899Y013149D03*
X019899Y013899D03*
X017399Y012899D03*
D25*
X021149Y013899D02*
X021649Y013899D01*
X014399Y010399D02*
X014149Y010523D01*
X016399Y008149D02*
X016399Y007649D01*
X015649Y006899D01*
X013149Y006899D01*
X012899Y007149D01*
X012899Y007524D01*
X011899Y007524D02*
X011899Y006899D01*
X016775Y006899D02*
X016899Y007023D01*
X016899Y007399D01*
X017399Y007899D01*
X017399Y008149D01*
M02*
