G75*
G70*
%OFA0B0*%
%FSLAX24Y24*%
%IPPOS*%
%LPD*%
%AMOC8*
5,1,8,0,0,1.08239X$1,22.5*
%
%ADD10R,0.0720X0.0720*%
%ADD11OC8,0.0720*%
%ADD12C,0.0081*%
D10*
X017399Y008149D03*
X021899Y008149D03*
X018399Y013899D03*
D11*
X016399Y008149D03*
X016399Y009149D03*
X017399Y009149D03*
X017399Y010149D03*
X016399Y010149D03*
X016399Y011149D03*
X017399Y011149D03*
X017399Y012149D03*
X016399Y012149D03*
X016399Y013899D03*
X017399Y013899D03*
X021899Y012149D03*
X021899Y011149D03*
X021899Y010149D03*
X021899Y009149D03*
D12*
X021979Y013584D02*
X021519Y013584D01*
X021519Y014214D01*
X021979Y014214D01*
X021979Y013584D01*
X021979Y013664D02*
X021519Y013664D01*
X021519Y013744D02*
X021979Y013744D01*
X021979Y013824D02*
X021519Y013824D01*
X021519Y013904D02*
X021979Y013904D01*
X021979Y013984D02*
X021519Y013984D01*
X021519Y014064D02*
X021979Y014064D01*
X021979Y014144D02*
X021519Y014144D01*
X021379Y013584D02*
X020919Y013584D01*
X020919Y014214D01*
X021379Y014214D01*
X021379Y013584D01*
X021379Y013664D02*
X020919Y013664D01*
X020919Y013744D02*
X021379Y013744D01*
X021379Y013824D02*
X020919Y013824D01*
X020919Y013904D02*
X021379Y013904D01*
X021379Y013984D02*
X020919Y013984D01*
X020919Y014064D02*
X021379Y014064D01*
X021379Y014144D02*
X020919Y014144D01*
X020779Y013584D02*
X020319Y013584D01*
X020319Y014214D01*
X020779Y014214D01*
X020779Y013584D01*
X020779Y013664D02*
X020319Y013664D01*
X020319Y013744D02*
X020779Y013744D01*
X020779Y013824D02*
X020319Y013824D01*
X020319Y013904D02*
X020779Y013904D01*
X020779Y013984D02*
X020319Y013984D01*
X020319Y014064D02*
X020779Y014064D01*
X020779Y014144D02*
X020319Y014144D01*
M02*
