G75*
G70*
%OFA0B0*%
%FSLAX24Y24*%
%IPPOS*%
%LPD*%
%AMOC8*
5,1,8,0,0,1.08239X$1,22.5*
%
%ADD10C,0.0050*%
%ADD11C,0.0060*%
%ADD12C,0.0030*%
%ADD13R,0.0150X0.0010*%
%ADD14R,0.0070X0.0010*%
%ADD15R,0.0160X0.0010*%
%ADD16R,0.0080X0.0010*%
%ADD17R,0.0170X0.0010*%
%ADD18R,0.0090X0.0010*%
%ADD19R,0.0040X0.0010*%
%ADD20R,0.0100X0.0010*%
%ADD21R,0.0010X0.0010*%
%ADD22R,0.0060X0.0010*%
%ADD23R,0.0130X0.0010*%
%ADD24R,0.0050X0.0010*%
%ADD25R,0.0110X0.0010*%
%ADD26R,0.0140X0.0010*%
%ADD27R,0.0120X0.0010*%
%ADD28R,0.0190X0.0010*%
%ADD29R,0.0180X0.0010*%
%ADD30R,0.0210X0.0010*%
%ADD31R,0.0220X0.0010*%
%ADD32R,0.0200X0.0010*%
%ADD33R,0.0030X0.0010*%
%ADD34R,0.0020X0.0010*%
%ADD35R,0.0310X0.0010*%
%ADD36R,0.0780X0.0010*%
%ADD37R,0.1640X0.0010*%
%ADD38R,0.0380X0.0010*%
%ADD39R,0.0260X0.0010*%
%ADD40R,0.0800X0.0010*%
%ADD41R,0.1610X0.0010*%
%ADD42R,0.0360X0.0010*%
%ADD43R,0.0290X0.0010*%
%ADD44R,0.0820X0.0010*%
%ADD45R,0.1590X0.0010*%
%ADD46R,0.0340X0.0010*%
%ADD47R,0.0840X0.0010*%
%ADD48R,0.1570X0.0010*%
%ADD49R,0.0330X0.0010*%
%ADD50R,0.0320X0.0010*%
%ADD51R,0.1550X0.0010*%
%ADD52R,0.0300X0.0010*%
%ADD53R,0.0850X0.0010*%
%ADD54R,0.1080X0.0010*%
%ADD55R,0.0520X0.0010*%
%ADD56R,0.0450X0.0010*%
%ADD57R,0.0420X0.0010*%
%ADD58R,0.0540X0.0010*%
%ADD59R,0.0410X0.0010*%
%ADD60R,0.0430X0.0010*%
%ADD61R,0.0860X0.0010*%
%ADD62R,0.0530X0.0010*%
%ADD63R,0.0390X0.0010*%
%ADD64R,0.0510X0.0010*%
%ADD65R,0.0400X0.0010*%
%ADD66R,0.0500X0.0010*%
%ADD67R,0.0480X0.0010*%
%ADD68R,0.0370X0.0010*%
%ADD69R,0.0440X0.0010*%
%ADD70R,0.0870X0.0010*%
%ADD71R,0.0350X0.0010*%
%ADD72R,0.0490X0.0010*%
%ADD73R,0.0230X0.0010*%
%ADD74R,0.0270X0.0010*%
%ADD75R,0.0240X0.0010*%
%ADD76R,0.0830X0.0010*%
%ADD77R,0.0280X0.0010*%
%ADD78R,0.0810X0.0010*%
%ADD79R,0.0470X0.0010*%
%ADD80R,0.0250X0.0010*%
%ADD81R,0.0460X0.0010*%
%ADD82R,0.0640X0.0010*%
%ADD83R,0.0630X0.0010*%
%ADD84R,0.0620X0.0010*%
%ADD85R,0.0610X0.0010*%
%ADD86R,0.0590X0.0010*%
%ADD87R,0.0580X0.0010*%
%ADD88R,0.0560X0.0010*%
%ADD89R,0.0550X0.0010*%
%ADD90R,0.0570X0.0010*%
%ADD91R,0.0650X0.0010*%
%ADD92R,0.0680X0.0010*%
%ADD93R,0.0720X0.0010*%
%ADD94R,0.1060X0.0010*%
%ADD95R,0.1070X0.0010*%
%ADD96R,0.1050X0.0010*%
%ADD97R,0.0920X0.0010*%
%ADD98R,0.0890X0.0010*%
%ADD99R,0.0770X0.0010*%
%ADD100R,0.0760X0.0010*%
%ADD101R,0.0750X0.0010*%
%ADD102R,0.0740X0.0010*%
%ADD103R,0.0730X0.0010*%
D10*
X007804Y008424D02*
X007804Y008649D01*
X007879Y008724D01*
X007954Y008649D01*
X007954Y008424D01*
X008105Y008424D02*
X008105Y008724D01*
X008030Y008724D01*
X007954Y008649D01*
X008265Y008649D02*
X008265Y008499D01*
X008340Y008424D01*
X008490Y008424D01*
X008565Y008499D01*
X008565Y008649D01*
X008490Y008724D01*
X008340Y008724D01*
X008265Y008649D01*
X008725Y008724D02*
X008950Y008724D01*
X009025Y008649D01*
X009025Y008499D01*
X008950Y008424D01*
X008725Y008424D01*
X009180Y008424D02*
X009255Y008424D01*
X009255Y008499D01*
X009180Y008499D01*
X009180Y008424D01*
X009416Y008499D02*
X009416Y008649D01*
X009491Y008724D01*
X009641Y008724D01*
X009716Y008649D01*
X009716Y008499D01*
X009641Y008424D01*
X009491Y008424D01*
X009416Y008499D01*
X009873Y008424D02*
X010023Y008424D01*
X009948Y008424D02*
X009948Y008724D01*
X010023Y008724D01*
X010183Y008724D02*
X010408Y008724D01*
X010483Y008649D01*
X010483Y008499D01*
X010408Y008424D01*
X010183Y008424D01*
X010183Y008874D01*
X009948Y008874D02*
X009948Y008949D01*
X010566Y009249D02*
X010566Y009399D01*
X010642Y009474D01*
X010792Y009474D01*
X010867Y009399D01*
X010867Y009249D01*
X010792Y009174D01*
X010642Y009174D01*
X010566Y009249D01*
X011023Y009174D02*
X011174Y009174D01*
X011099Y009174D02*
X011099Y009474D01*
X011174Y009474D01*
X011334Y009474D02*
X011559Y009474D01*
X011634Y009399D01*
X011634Y009249D01*
X011559Y009174D01*
X011334Y009174D01*
X011334Y009624D01*
X011099Y009624D02*
X011099Y009699D01*
X011020Y009924D02*
X010795Y009924D01*
X010720Y009999D01*
X010720Y010149D01*
X010795Y010224D01*
X011020Y010224D01*
X011020Y010374D02*
X011020Y009924D01*
X010560Y009999D02*
X010485Y009924D01*
X010260Y009924D01*
X010260Y009848D02*
X010335Y009773D01*
X010410Y009773D01*
X010260Y009848D02*
X010260Y010224D01*
X010560Y010224D02*
X010560Y009999D01*
X011637Y009924D02*
X011712Y009999D01*
X011712Y010299D01*
X011787Y010224D02*
X011637Y010224D01*
X011948Y010149D02*
X011948Y009924D01*
X012248Y009924D02*
X012248Y010224D01*
X012023Y010224D01*
X011948Y010149D01*
X012408Y010149D02*
X012408Y010074D01*
X012708Y010074D01*
X012708Y009999D02*
X012708Y010149D01*
X012633Y010224D01*
X012483Y010224D01*
X012408Y010149D01*
X012633Y009924D02*
X012708Y009999D01*
X012633Y009924D02*
X012483Y009924D01*
X012636Y009624D02*
X012561Y009549D01*
X012636Y009624D02*
X012786Y009624D01*
X012862Y009549D01*
X012862Y009474D01*
X012786Y009399D01*
X012636Y009399D01*
X012561Y009324D01*
X012561Y009249D01*
X012636Y009174D01*
X012786Y009174D01*
X012862Y009249D01*
X012401Y009474D02*
X012251Y009474D01*
X012326Y009549D02*
X012326Y009249D01*
X012251Y009174D01*
X012094Y009249D02*
X012019Y009174D01*
X011794Y009174D01*
X011794Y009474D01*
X012094Y009474D02*
X012094Y009249D01*
X011871Y008874D02*
X011871Y008424D01*
X012096Y008424D01*
X012171Y008499D01*
X012171Y008649D01*
X012096Y008724D01*
X011871Y008724D01*
X011711Y008649D02*
X011636Y008724D01*
X011410Y008724D01*
X011250Y008724D02*
X011100Y008724D01*
X011175Y008799D02*
X011175Y008499D01*
X011100Y008424D01*
X010943Y008499D02*
X010868Y008424D01*
X010643Y008424D01*
X010643Y008724D01*
X010943Y008724D02*
X010943Y008499D01*
X011410Y008499D02*
X011486Y008574D01*
X011636Y008574D01*
X011711Y008649D01*
X011711Y008424D02*
X011486Y008424D01*
X011410Y008499D01*
X012331Y008574D02*
X012631Y008574D01*
X012631Y008649D02*
X012556Y008724D01*
X012406Y008724D01*
X012331Y008649D01*
X012331Y008574D01*
X012406Y008424D02*
X012556Y008424D01*
X012631Y008499D01*
X012631Y008649D01*
X012791Y008649D02*
X012791Y008574D01*
X013092Y008574D01*
X013092Y008649D02*
X013017Y008724D01*
X012867Y008724D01*
X012791Y008649D01*
X012867Y008424D02*
X013017Y008424D01*
X013092Y008499D01*
X013092Y008649D01*
X013252Y008649D02*
X013327Y008724D01*
X013477Y008724D01*
X013552Y008649D01*
X013552Y008499D01*
X013477Y008424D01*
X013327Y008424D01*
X013252Y008574D02*
X013552Y008574D01*
X013712Y008499D02*
X013787Y008574D01*
X013937Y008574D01*
X014012Y008649D01*
X013937Y008724D01*
X013712Y008724D01*
X013712Y008499D02*
X013787Y008424D01*
X014012Y008424D01*
X014168Y008424D02*
X014243Y008424D01*
X014243Y008499D01*
X014168Y008499D01*
X014168Y008424D01*
X014403Y008499D02*
X014403Y008724D01*
X014403Y008499D02*
X014478Y008424D01*
X014553Y008499D01*
X014628Y008424D01*
X014703Y008499D01*
X014703Y008724D01*
X014863Y008724D02*
X014863Y008499D01*
X014938Y008424D01*
X015013Y008499D01*
X015088Y008424D01*
X015163Y008499D01*
X015163Y008724D01*
X015323Y008724D02*
X015323Y008499D01*
X015399Y008424D01*
X015474Y008499D01*
X015549Y008424D01*
X015624Y008499D01*
X015624Y008724D01*
X015549Y009174D02*
X015399Y009174D01*
X015323Y009249D01*
X015323Y009324D01*
X015399Y009399D01*
X015549Y009399D01*
X015624Y009474D01*
X015624Y009549D01*
X015549Y009624D01*
X015399Y009624D01*
X015323Y009549D01*
X015163Y009399D02*
X015088Y009474D01*
X014938Y009474D01*
X014863Y009399D01*
X014863Y009324D01*
X015163Y009324D01*
X015163Y009249D02*
X015163Y009399D01*
X015163Y009249D02*
X015088Y009174D01*
X014938Y009174D01*
X014703Y009249D02*
X014703Y009399D01*
X014628Y009474D01*
X014478Y009474D01*
X014403Y009399D01*
X014403Y009324D01*
X014703Y009324D01*
X014703Y009249D02*
X014628Y009174D01*
X014478Y009174D01*
X014243Y009249D02*
X014243Y009399D01*
X014168Y009474D01*
X014017Y009474D01*
X013942Y009399D01*
X013942Y009324D01*
X014243Y009324D01*
X014243Y009249D02*
X014168Y009174D01*
X014017Y009174D01*
X013782Y009249D02*
X013782Y009399D01*
X013707Y009474D01*
X013482Y009474D01*
X013482Y009624D02*
X013482Y009174D01*
X013707Y009174D01*
X013782Y009249D01*
X013782Y009924D02*
X013632Y009924D01*
X013707Y009924D02*
X013707Y010374D01*
X013782Y010374D01*
X014014Y010374D02*
X014014Y010449D01*
X014246Y010374D02*
X014321Y010299D01*
X014321Y009924D01*
X014089Y009924D02*
X013939Y009924D01*
X014014Y009924D02*
X014014Y010224D01*
X014089Y010224D01*
X014246Y010149D02*
X014396Y010149D01*
X014628Y010374D02*
X014628Y009924D01*
X014703Y009924D02*
X014553Y009924D01*
X014863Y009924D02*
X014863Y010224D01*
X014703Y010374D02*
X014628Y010374D01*
X015163Y010224D02*
X015163Y009999D01*
X015088Y009924D01*
X014863Y009924D01*
X015323Y010374D02*
X015624Y010374D01*
X015624Y009924D01*
X015624Y010149D02*
X015474Y010149D01*
X015624Y009249D02*
X015549Y009174D01*
X013475Y009924D02*
X013325Y009924D01*
X013400Y009924D02*
X013400Y010374D01*
X013475Y010374D01*
X013169Y010224D02*
X013093Y010224D01*
X013018Y010149D01*
X012943Y010224D01*
X012868Y010149D01*
X012868Y009924D01*
X013018Y009924D02*
X013018Y010149D01*
X013169Y010224D02*
X013169Y009924D01*
X013252Y008649D02*
X013252Y008574D01*
D11*
X010027Y006179D02*
X010027Y005929D01*
X010194Y005929D02*
X010194Y006179D01*
X010111Y006262D01*
X010027Y006179D01*
X010194Y006179D02*
X010277Y006262D01*
X010361Y006262D01*
X010361Y005929D01*
X010543Y006012D02*
X010543Y006179D01*
X010626Y006262D01*
X010793Y006262D01*
X010876Y006179D01*
X010876Y006012D01*
X010793Y005929D01*
X010626Y005929D01*
X010543Y006012D01*
X011058Y005929D02*
X011309Y005929D01*
X011392Y006012D01*
X011392Y006179D01*
X011309Y006262D01*
X011058Y006262D01*
X011566Y006012D02*
X011566Y005929D01*
X011650Y005929D01*
X011650Y006012D01*
X011566Y006012D01*
X011832Y006012D02*
X011915Y006095D01*
X012082Y006095D01*
X012165Y006179D01*
X012082Y006262D01*
X011832Y006262D01*
X011832Y006012D02*
X011915Y005929D01*
X012165Y005929D01*
X012348Y006095D02*
X012681Y006095D01*
X012681Y006012D02*
X012598Y005929D01*
X012431Y005929D01*
X012348Y006095D02*
X012348Y006179D01*
X012431Y006262D01*
X012598Y006262D01*
X012681Y006179D01*
X012681Y006012D01*
X012863Y006012D02*
X012947Y005929D01*
X013197Y005929D01*
X013197Y005762D02*
X013197Y006262D01*
X012947Y006262D01*
X012863Y006179D01*
X012863Y006012D01*
X013379Y005929D02*
X013629Y005929D01*
X013712Y006012D01*
X013712Y006262D01*
X013889Y006262D02*
X014056Y006262D01*
X013973Y006346D02*
X013973Y006012D01*
X013889Y005929D01*
X013546Y005762D02*
X013462Y005762D01*
X013379Y005845D01*
X013379Y006262D01*
X013478Y006512D02*
X013478Y007012D01*
X013228Y007012D01*
X013144Y006929D01*
X013144Y006762D01*
X013228Y006679D01*
X013478Y006679D01*
X013660Y006679D02*
X013660Y006929D01*
X013743Y007012D01*
X013910Y007012D01*
X013910Y006845D02*
X013660Y006845D01*
X013660Y006679D02*
X013910Y006679D01*
X013994Y006762D01*
X013910Y006845D01*
X014176Y006679D02*
X014426Y006679D01*
X014509Y006762D01*
X014509Y006929D01*
X014426Y007012D01*
X014176Y007012D01*
X014176Y007179D02*
X014176Y006679D01*
X014691Y006679D02*
X014941Y006679D01*
X015025Y006762D01*
X014941Y006845D01*
X014691Y006845D01*
X014691Y006929D02*
X014691Y006679D01*
X014691Y006929D02*
X014775Y007012D01*
X014941Y007012D01*
X014944Y007366D02*
X015111Y007366D01*
X015027Y007366D02*
X015027Y007866D01*
X014944Y007866D02*
X015111Y007866D01*
X015293Y007783D02*
X015293Y007616D01*
X015376Y007533D01*
X015626Y007533D01*
X015626Y007366D02*
X015626Y007866D01*
X015376Y007866D01*
X015293Y007783D01*
X014767Y007783D02*
X014767Y007449D01*
X014684Y007366D01*
X014517Y007366D01*
X014434Y007449D01*
X014434Y007783D02*
X014517Y007866D01*
X014684Y007866D01*
X014767Y007783D01*
X013736Y007866D02*
X013736Y007366D01*
X013402Y007366D02*
X013402Y007866D01*
X013220Y007700D02*
X013137Y007700D01*
X013137Y007366D01*
X013220Y007366D02*
X013053Y007366D01*
X012876Y007449D02*
X012793Y007366D01*
X012543Y007366D01*
X012543Y007283D02*
X012543Y007700D01*
X012793Y007700D01*
X012876Y007616D01*
X012876Y007449D01*
X012710Y007199D02*
X012626Y007199D01*
X012543Y007283D01*
X012361Y007366D02*
X012361Y007866D01*
X012277Y007700D02*
X012111Y007700D01*
X012027Y007616D01*
X012027Y007366D01*
X012103Y007012D02*
X012103Y006679D01*
X012103Y006845D02*
X011936Y007012D01*
X011853Y007012D01*
X012285Y006929D02*
X012285Y006845D01*
X012619Y006845D01*
X012619Y006762D02*
X012619Y006929D01*
X012535Y007012D01*
X012368Y007012D01*
X012285Y006929D01*
X012368Y006679D02*
X012535Y006679D01*
X012619Y006762D01*
X012796Y006679D02*
X012879Y006762D01*
X012879Y007096D01*
X012962Y007012D02*
X012796Y007012D01*
X012361Y007616D02*
X012277Y007700D01*
X011330Y007700D02*
X011163Y007366D01*
X010996Y007700D01*
X010814Y007616D02*
X010814Y007449D01*
X010731Y007366D01*
X010564Y007366D01*
X010480Y007449D01*
X010480Y007616D01*
X010564Y007700D01*
X010731Y007700D01*
X010814Y007616D01*
X010298Y007366D02*
X010132Y007366D01*
X010215Y007366D02*
X010215Y007866D01*
X010298Y007866D01*
X009955Y007700D02*
X009788Y007700D01*
X009871Y007783D02*
X009871Y007449D01*
X009788Y007366D01*
X009611Y007449D02*
X009527Y007533D01*
X009277Y007533D01*
X009277Y007616D02*
X009277Y007366D01*
X009527Y007366D01*
X009611Y007449D01*
X009527Y007700D02*
X009361Y007700D01*
X009277Y007616D01*
X009095Y007616D02*
X009095Y007449D01*
X009012Y007366D01*
X008762Y007366D01*
X008762Y007283D02*
X008762Y007700D01*
X009012Y007700D01*
X009095Y007616D01*
X008762Y007283D02*
X008845Y007199D01*
X008928Y007199D01*
X008580Y007449D02*
X008496Y007366D01*
X008329Y007366D01*
X008246Y007533D02*
X008580Y007533D01*
X008580Y007616D02*
X008580Y007449D01*
X008580Y007616D02*
X008496Y007700D01*
X008329Y007700D01*
X008246Y007616D01*
X008246Y007533D01*
X013137Y007866D02*
X013137Y007950D01*
X013402Y007616D02*
X013736Y007616D01*
X014832Y006346D02*
X014832Y006012D01*
X014749Y005929D01*
X014572Y006012D02*
X014488Y005929D01*
X014322Y005929D01*
X014238Y006012D01*
X014238Y006179D01*
X014322Y006262D01*
X014488Y006262D01*
X014572Y006179D01*
X014572Y006012D01*
X014749Y006262D02*
X014915Y006262D01*
X015098Y006179D02*
X015181Y006262D01*
X015348Y006262D01*
X015431Y006179D01*
X015431Y006012D01*
X015348Y005929D01*
X015181Y005929D01*
X015098Y006012D01*
X015098Y006179D01*
X015611Y006262D02*
X015694Y006262D01*
X015861Y006095D01*
X015861Y005929D02*
X015861Y006262D01*
X016043Y006179D02*
X016126Y006095D01*
X016376Y006095D01*
X016376Y005929D02*
X016376Y006429D01*
X016126Y006429D01*
X016043Y006346D01*
X016043Y006179D01*
X015889Y006512D02*
X015806Y006512D01*
X015723Y006595D01*
X015723Y007012D01*
X015973Y007012D01*
X016056Y006929D01*
X016056Y006762D01*
X015973Y006679D01*
X015723Y006679D01*
X016238Y006679D02*
X016238Y006929D01*
X016322Y007012D01*
X016572Y007012D01*
X016572Y006679D01*
X016749Y006679D02*
X016916Y006679D01*
X016832Y006679D02*
X016832Y007012D01*
X016916Y007012D01*
X016832Y007179D02*
X016832Y007262D01*
X016835Y007366D02*
X016918Y007449D01*
X016918Y007783D01*
X017001Y007700D02*
X016835Y007700D01*
X016658Y007616D02*
X016658Y007449D01*
X016574Y007366D01*
X016408Y007366D01*
X016324Y007533D02*
X016658Y007533D01*
X016658Y007616D02*
X016574Y007700D01*
X016408Y007700D01*
X016324Y007616D01*
X016324Y007533D01*
X017184Y007533D02*
X017434Y007533D01*
X017517Y007449D01*
X017434Y007366D01*
X017184Y007366D01*
X017184Y007616D01*
X017267Y007700D01*
X017434Y007700D01*
X017697Y007700D02*
X017780Y007700D01*
X017947Y007533D01*
X017947Y007366D02*
X017947Y007700D01*
X018207Y007700D02*
X018207Y007366D01*
X018124Y007366D02*
X018291Y007366D01*
X018473Y007616D02*
X018556Y007533D01*
X018806Y007533D01*
X018806Y007366D02*
X018806Y007866D01*
X018556Y007866D01*
X018473Y007783D01*
X018473Y007616D01*
X018291Y007700D02*
X018207Y007700D01*
X018207Y007866D02*
X018207Y007950D01*
X019504Y007700D02*
X019754Y007700D01*
X019837Y007616D01*
X019754Y007533D01*
X019587Y007533D01*
X019504Y007449D01*
X019587Y007366D01*
X019837Y007366D01*
X020019Y007366D02*
X020019Y007700D01*
X020019Y007366D02*
X020270Y007366D01*
X020353Y007449D01*
X020353Y007700D01*
X020535Y007700D02*
X020618Y007616D01*
X020869Y007616D01*
X020869Y007366D02*
X020869Y007866D01*
X020618Y007866D01*
X020535Y007783D01*
X020535Y007700D01*
X020618Y007616D02*
X020535Y007533D01*
X020535Y007449D01*
X020618Y007366D01*
X020869Y007366D01*
X020869Y007012D02*
X020618Y007012D01*
X020535Y006929D01*
X020535Y006762D01*
X020618Y006679D01*
X020869Y006679D01*
X020869Y006512D02*
X020869Y007012D01*
X020353Y007012D02*
X020353Y006679D01*
X020353Y006845D02*
X020186Y007012D01*
X020103Y007012D01*
X019923Y006929D02*
X019923Y006762D01*
X019840Y006679D01*
X019673Y006679D01*
X019590Y006762D01*
X019590Y006929D01*
X019673Y007012D01*
X019840Y007012D01*
X019923Y006929D01*
X019408Y006929D02*
X019408Y006762D01*
X019324Y006679D01*
X019074Y006679D01*
X019074Y006595D02*
X019074Y007012D01*
X019324Y007012D01*
X019408Y006929D01*
X019241Y006512D02*
X019158Y006512D01*
X019074Y006595D01*
X018892Y006679D02*
X018892Y007012D01*
X018892Y006845D02*
X018725Y007012D01*
X018642Y007012D01*
X018379Y007012D02*
X018212Y007012D01*
X018129Y006929D01*
X018129Y006679D01*
X018379Y006679D01*
X018462Y006762D01*
X018379Y006845D01*
X018129Y006845D01*
X017947Y006679D02*
X017947Y007012D01*
X017863Y007012D01*
X017780Y006929D01*
X017697Y007012D01*
X017613Y006929D01*
X017613Y006679D01*
X017780Y006679D02*
X017780Y006929D01*
X017431Y007012D02*
X017431Y006679D01*
X017264Y006679D02*
X017264Y006929D01*
X017181Y007012D01*
X017098Y006929D01*
X017098Y006679D01*
X017264Y006929D02*
X017348Y007012D01*
X017431Y007012D01*
X017408Y006262D02*
X017408Y006012D01*
X017324Y005929D01*
X017074Y005929D01*
X017074Y006262D01*
X016892Y006179D02*
X016809Y006095D01*
X016642Y006095D01*
X016558Y006012D01*
X016642Y005929D01*
X016892Y005929D01*
X016892Y006179D02*
X016809Y006262D01*
X016558Y006262D01*
X017590Y006179D02*
X017590Y006012D01*
X017673Y005929D01*
X017840Y005929D01*
X017923Y006012D01*
X017923Y006179D01*
X017840Y006262D01*
X017673Y006262D01*
X017590Y006179D01*
X018103Y006262D02*
X018186Y006262D01*
X018353Y006095D01*
X018353Y005929D02*
X018353Y006262D01*
X018535Y006179D02*
X018535Y006095D01*
X018869Y006095D01*
X018869Y006012D02*
X018869Y006179D01*
X018785Y006262D01*
X018618Y006262D01*
X018535Y006179D01*
X018618Y005929D02*
X018785Y005929D01*
X018869Y006012D01*
X019051Y005929D02*
X019301Y005929D01*
X019384Y006012D01*
X019384Y006179D01*
X019301Y006262D01*
X019051Y006262D01*
X019051Y005845D01*
X019134Y005762D01*
X019217Y005762D01*
X019566Y005929D02*
X019566Y006179D01*
X019650Y006262D01*
X019900Y006262D01*
X019900Y005929D01*
X020082Y005929D02*
X020332Y005929D01*
X020416Y006012D01*
X020332Y006095D01*
X020082Y006095D01*
X020082Y006179D02*
X020082Y005929D01*
X020082Y006179D02*
X020165Y006262D01*
X020332Y006262D01*
X020598Y006346D02*
X020681Y006429D01*
X020931Y006429D01*
X020931Y005929D01*
X020681Y005929D01*
X020598Y006012D01*
X020598Y006346D01*
X020299Y013499D02*
X021999Y013499D01*
X022016Y013501D01*
X022033Y013505D01*
X022049Y013512D01*
X022063Y013522D01*
X022076Y013535D01*
X022086Y013549D01*
X022093Y013565D01*
X022097Y013582D01*
X022099Y013599D01*
X022099Y014199D01*
X022097Y014216D01*
X022093Y014233D01*
X022086Y014249D01*
X022076Y014263D01*
X022063Y014276D01*
X022049Y014286D01*
X022033Y014293D01*
X022016Y014297D01*
X021999Y014299D01*
X020299Y014299D01*
X020282Y014297D01*
X020265Y014293D01*
X020249Y014286D01*
X020235Y014276D01*
X020222Y014263D01*
X020212Y014249D01*
X020205Y014233D01*
X020201Y014216D01*
X020199Y014199D01*
X020199Y013599D01*
X020201Y013582D01*
X020205Y013565D01*
X020212Y013549D01*
X020222Y013535D01*
X020235Y013522D01*
X020249Y013512D01*
X020265Y013505D01*
X020282Y013501D01*
X020299Y013499D01*
D12*
X022218Y013537D02*
X022218Y013633D01*
X022267Y013682D01*
X022218Y013783D02*
X022218Y013880D01*
X022218Y013831D02*
X022460Y013831D01*
X022509Y013880D01*
X022509Y013928D01*
X022460Y013976D01*
X022460Y014078D02*
X022509Y014126D01*
X022509Y014223D01*
X022460Y014271D01*
X022364Y014223D02*
X022364Y014126D01*
X022412Y014078D01*
X022460Y014078D01*
X022364Y014223D02*
X022315Y014271D01*
X022267Y014271D01*
X022218Y014223D01*
X022218Y014126D01*
X022267Y014078D01*
X022509Y013682D02*
X022315Y013488D01*
X022267Y013488D01*
X022218Y013537D01*
X022509Y013488D02*
X022509Y013682D01*
D13*
X010059Y009749D03*
X009769Y009649D03*
X009759Y009639D03*
X009289Y009399D03*
X008979Y009879D03*
X008829Y009969D03*
X008829Y009979D03*
X008829Y010249D03*
X008539Y010249D03*
X008239Y010249D03*
X008239Y009979D03*
X008239Y009969D03*
X008389Y009879D03*
X008649Y009649D03*
X008649Y009489D03*
X008189Y009499D03*
X007579Y009489D03*
X007179Y009649D03*
X006309Y009489D03*
X005809Y009499D03*
X005609Y009489D03*
X005609Y009649D03*
X005439Y010189D03*
X005679Y010319D03*
X005689Y010329D03*
X005899Y010309D03*
X006209Y010459D03*
X005879Y010689D03*
X005579Y010689D03*
X005579Y010699D03*
X005579Y010709D03*
X005579Y010719D03*
X006169Y011189D03*
X006169Y011199D03*
X006169Y011209D03*
X006169Y011219D03*
X006169Y011229D03*
X006169Y011239D03*
X006169Y011349D03*
X006169Y011359D03*
X006169Y011369D03*
X006169Y011379D03*
X006169Y011389D03*
X006169Y011399D03*
X006319Y011499D03*
X006759Y012079D03*
X006759Y012089D03*
X006759Y012099D03*
X006759Y012109D03*
X006759Y012119D03*
X006759Y012129D03*
X006759Y012239D03*
X006759Y012249D03*
X006759Y012259D03*
X006759Y012269D03*
X006759Y012279D03*
X006469Y012279D03*
X006939Y012719D03*
X007319Y012899D03*
X007439Y012999D03*
X008079Y012759D03*
X008639Y012479D03*
X008649Y012489D03*
X008659Y012499D03*
X008539Y012279D03*
X008539Y012269D03*
X008539Y012089D03*
X008829Y012089D03*
X008829Y012099D03*
X008829Y012109D03*
X008829Y012119D03*
X008829Y012129D03*
X008829Y012079D03*
X008829Y012239D03*
X008829Y012249D03*
X008829Y012259D03*
X008829Y012269D03*
X008829Y012279D03*
X008979Y011499D03*
X009249Y011289D03*
X007629Y011539D03*
X007629Y010549D03*
X007949Y010249D03*
X009129Y010249D03*
X008249Y013309D03*
X007799Y013969D03*
X007499Y013969D03*
X007649Y014259D03*
X007259Y013669D03*
D14*
X007299Y013799D03*
X007439Y013869D03*
X007569Y013869D03*
X007569Y013749D03*
X007729Y013749D03*
X007729Y013869D03*
X007859Y013869D03*
X007879Y014019D03*
X007799Y014019D03*
X007799Y014009D03*
X007499Y013999D03*
X008029Y013749D03*
X008089Y013609D03*
X008089Y013599D03*
X008089Y013589D03*
X008089Y013579D03*
X008089Y013569D03*
X008089Y013559D03*
X008089Y013549D03*
X008089Y013539D03*
X008089Y013529D03*
X008089Y013519D03*
X007939Y013589D03*
X007799Y013599D03*
X007799Y013609D03*
X007799Y013569D03*
X007799Y013559D03*
X007799Y013549D03*
X007799Y013539D03*
X007799Y013529D03*
X007649Y013529D03*
X007649Y013579D03*
X007649Y013589D03*
X007679Y013369D03*
X007799Y013359D03*
X007799Y013349D03*
X007799Y013339D03*
X007919Y013369D03*
X008259Y013359D03*
X008069Y012709D03*
X008249Y012399D03*
X008389Y012359D03*
X008389Y012349D03*
X008399Y012379D03*
X008539Y012379D03*
X008539Y012389D03*
X008539Y012369D03*
X008539Y012359D03*
X008539Y012349D03*
X008539Y012339D03*
X008539Y012329D03*
X008579Y012229D03*
X008489Y012229D03*
X008689Y012359D03*
X008699Y012379D03*
X008679Y012619D03*
X008609Y011779D03*
X008829Y011439D03*
X009299Y011549D03*
X009309Y011539D03*
X009269Y011119D03*
X009269Y010869D03*
X009129Y010859D03*
X009129Y010849D03*
X009119Y010879D03*
X009269Y010689D03*
X009419Y010689D03*
X009419Y010699D03*
X009419Y010679D03*
X009419Y010669D03*
X009419Y010659D03*
X009419Y010649D03*
X009419Y010639D03*
X009419Y010629D03*
X009419Y010619D03*
X009419Y010609D03*
X009419Y010599D03*
X009419Y010589D03*
X009419Y010579D03*
X009419Y010569D03*
X009269Y010339D03*
X009129Y010539D03*
X009129Y010549D03*
X008979Y010309D03*
X008829Y010309D03*
X008829Y010319D03*
X008829Y010329D03*
X008829Y010339D03*
X008829Y010349D03*
X008829Y010359D03*
X008829Y010369D03*
X008829Y010299D03*
X008829Y010289D03*
X008769Y010169D03*
X008589Y010169D03*
X008479Y010169D03*
X008539Y010289D03*
X008539Y010299D03*
X008539Y010309D03*
X008539Y010319D03*
X008539Y010329D03*
X008539Y010339D03*
X008539Y010349D03*
X008539Y010359D03*
X008539Y010369D03*
X008389Y010309D03*
X008239Y010309D03*
X008239Y010319D03*
X008239Y010329D03*
X008239Y010339D03*
X008239Y010349D03*
X008239Y010359D03*
X008239Y010369D03*
X008239Y010299D03*
X008239Y010289D03*
X008299Y010169D03*
X008089Y010309D03*
X007949Y010309D03*
X007949Y010319D03*
X007949Y010329D03*
X007949Y010339D03*
X007949Y010349D03*
X007949Y010359D03*
X007949Y010299D03*
X007949Y010289D03*
X007999Y010169D03*
X007889Y010169D03*
X008089Y009909D03*
X008039Y009699D03*
X008039Y009689D03*
X008039Y009679D03*
X008039Y009669D03*
X008039Y009659D03*
X008039Y009649D03*
X008039Y009639D03*
X008039Y009629D03*
X008039Y009619D03*
X008039Y009559D03*
X008039Y009549D03*
X008039Y009539D03*
X008039Y009529D03*
X008039Y009519D03*
X008039Y009509D03*
X008039Y009499D03*
X008039Y009489D03*
X008039Y009479D03*
X008039Y009469D03*
X008149Y009509D03*
X008149Y009539D03*
X008229Y009629D03*
X008339Y009629D03*
X008339Y009639D03*
X008339Y009649D03*
X008339Y009659D03*
X008339Y009619D03*
X008339Y009609D03*
X008339Y009599D03*
X008339Y009589D03*
X008339Y009579D03*
X008339Y009569D03*
X008339Y009559D03*
X008339Y009549D03*
X008339Y009539D03*
X008339Y009529D03*
X008429Y009469D03*
X008469Y009529D03*
X008469Y009539D03*
X008469Y009549D03*
X008469Y009559D03*
X008469Y009569D03*
X008469Y009579D03*
X008469Y009589D03*
X008469Y009599D03*
X008469Y009609D03*
X008469Y009619D03*
X008469Y009629D03*
X008469Y009639D03*
X008469Y009649D03*
X008469Y009659D03*
X008579Y009609D03*
X008579Y009599D03*
X008579Y009589D03*
X008579Y009579D03*
X008579Y009569D03*
X008579Y009559D03*
X008579Y009549D03*
X008579Y009539D03*
X008579Y009529D03*
X008589Y009519D03*
X008589Y009619D03*
X008709Y009619D03*
X008719Y009609D03*
X008719Y009599D03*
X008729Y009569D03*
X008729Y009559D03*
X008719Y009539D03*
X008719Y009529D03*
X008709Y009519D03*
X008869Y009519D03*
X008869Y009529D03*
X008869Y009539D03*
X008869Y009549D03*
X008869Y009559D03*
X008869Y009569D03*
X008869Y009579D03*
X008869Y009589D03*
X008869Y009599D03*
X008869Y009509D03*
X008869Y009499D03*
X008869Y009489D03*
X008869Y009479D03*
X009089Y009629D03*
X009209Y009609D03*
X009209Y009599D03*
X009209Y009589D03*
X009209Y009579D03*
X009209Y009569D03*
X009209Y009559D03*
X009209Y009549D03*
X009209Y009539D03*
X009209Y009479D03*
X009209Y009469D03*
X009219Y009449D03*
X009339Y009529D03*
X009349Y009539D03*
X009349Y009549D03*
X009349Y009559D03*
X009349Y009569D03*
X009349Y009579D03*
X009349Y009589D03*
X009349Y009599D03*
X009339Y009619D03*
X009289Y009669D03*
X009459Y009609D03*
X009459Y009599D03*
X009499Y009669D03*
X009589Y009599D03*
X009589Y009589D03*
X009589Y009579D03*
X009589Y009569D03*
X009589Y009559D03*
X009589Y009549D03*
X009589Y009539D03*
X009589Y009529D03*
X009589Y009519D03*
X009589Y009509D03*
X009589Y009499D03*
X009589Y009489D03*
X009589Y009479D03*
X009589Y009469D03*
X009709Y009519D03*
X009789Y009469D03*
X009819Y009549D03*
X009919Y009569D03*
X009919Y009579D03*
X009919Y009589D03*
X009919Y009599D03*
X009919Y009609D03*
X009919Y009619D03*
X009919Y009629D03*
X009919Y009639D03*
X009919Y009649D03*
X009929Y009669D03*
X009929Y009559D03*
X009929Y009549D03*
X010099Y009549D03*
X010099Y009559D03*
X010099Y009569D03*
X010099Y009579D03*
X010099Y009589D03*
X010099Y009599D03*
X010099Y009609D03*
X010099Y009619D03*
X010099Y009629D03*
X010099Y009639D03*
X010099Y009649D03*
X010099Y009659D03*
X010099Y009669D03*
X010099Y009679D03*
X010099Y009689D03*
X010099Y009699D03*
X010099Y009539D03*
X010099Y009529D03*
X010099Y009519D03*
X009709Y009619D03*
X009129Y009939D03*
X008979Y009909D03*
X008829Y009939D03*
X008679Y009909D03*
X008389Y009909D03*
X007899Y009689D03*
X007899Y009679D03*
X007899Y009669D03*
X007899Y009659D03*
X007899Y009649D03*
X007899Y009639D03*
X007909Y009629D03*
X007799Y009589D03*
X007799Y009579D03*
X007799Y009569D03*
X007799Y009559D03*
X007799Y009549D03*
X007799Y009539D03*
X007799Y009529D03*
X007799Y009519D03*
X007799Y009509D03*
X007799Y009499D03*
X007799Y009489D03*
X007799Y009479D03*
X007649Y009529D03*
X007649Y009539D03*
X007649Y009549D03*
X007649Y009559D03*
X007649Y009589D03*
X007649Y009599D03*
X007649Y009609D03*
X007639Y009619D03*
X007639Y009519D03*
X007519Y009519D03*
X007509Y009529D03*
X007509Y009539D03*
X007509Y009599D03*
X007509Y009609D03*
X007519Y009619D03*
X007389Y009529D03*
X007249Y009529D03*
X007249Y009539D03*
X007249Y009599D03*
X007249Y009609D03*
X007239Y009619D03*
X007119Y009619D03*
X007109Y009599D03*
X007109Y009589D03*
X007109Y009579D03*
X007109Y009559D03*
X007109Y009549D03*
X007109Y009539D03*
X007119Y009529D03*
X007119Y009519D03*
X006989Y009519D03*
X006989Y009529D03*
X006959Y009469D03*
X006839Y009399D03*
X006799Y009449D03*
X006789Y009469D03*
X006789Y009479D03*
X006829Y009579D03*
X006839Y009599D03*
X006839Y009609D03*
X006849Y009629D03*
X006849Y009639D03*
X006859Y009649D03*
X006859Y009659D03*
X006729Y009639D03*
X006729Y009629D03*
X006719Y009659D03*
X006719Y009669D03*
X006739Y009599D03*
X006619Y009599D03*
X006619Y009609D03*
X006619Y009589D03*
X006619Y009579D03*
X006619Y009569D03*
X006619Y009559D03*
X006619Y009549D03*
X006619Y009539D03*
X006619Y009529D03*
X006619Y009469D03*
X006619Y009459D03*
X006619Y009449D03*
X006619Y009439D03*
X006619Y009429D03*
X006619Y009419D03*
X006619Y009409D03*
X006619Y009399D03*
X006539Y009469D03*
X006479Y009539D03*
X006479Y009549D03*
X006479Y009559D03*
X006479Y009569D03*
X006479Y009579D03*
X006479Y009589D03*
X006479Y009599D03*
X006479Y009609D03*
X006489Y009619D03*
X006529Y009669D03*
X006379Y009549D03*
X006369Y009519D03*
X006259Y009629D03*
X006149Y009629D03*
X006069Y009539D03*
X006069Y009509D03*
X005969Y009509D03*
X005969Y009519D03*
X005969Y009499D03*
X005969Y009489D03*
X005869Y009549D03*
X005869Y009559D03*
X005869Y009569D03*
X005869Y009579D03*
X005869Y009589D03*
X005859Y009609D03*
X005859Y009529D03*
X005679Y009529D03*
X005679Y009539D03*
X005679Y009549D03*
X005669Y009519D03*
X005679Y009589D03*
X005679Y009599D03*
X005679Y009609D03*
X005669Y009619D03*
X005549Y009619D03*
X005539Y009609D03*
X005539Y009599D03*
X005539Y009539D03*
X005539Y009529D03*
X005549Y009519D03*
X005429Y009519D03*
X005429Y009529D03*
X005429Y009539D03*
X005429Y009549D03*
X005429Y009559D03*
X005429Y009569D03*
X005429Y009579D03*
X005429Y009589D03*
X005429Y009599D03*
X005429Y009609D03*
X005429Y009509D03*
X005429Y009499D03*
X005429Y009489D03*
X005429Y009479D03*
X005189Y009619D03*
X005219Y009669D03*
X005339Y009669D03*
X005649Y009879D03*
X005649Y010039D03*
X005469Y010259D03*
X005429Y010419D03*
X005429Y010429D03*
X005429Y010439D03*
X005429Y010449D03*
X005429Y010459D03*
X005429Y010469D03*
X005429Y010479D03*
X005579Y010459D03*
X005579Y010649D03*
X005579Y010759D03*
X005729Y010779D03*
X005729Y010629D03*
X006019Y010629D03*
X006139Y010679D03*
X006139Y010729D03*
X006199Y010909D03*
X006199Y010919D03*
X006019Y010929D03*
X006019Y010939D03*
X006019Y010949D03*
X006019Y010959D03*
X006019Y010969D03*
X006019Y010979D03*
X005879Y010969D03*
X005879Y010959D03*
X006289Y011079D03*
X006299Y011089D03*
X006309Y011109D03*
X006319Y011119D03*
X006169Y011439D03*
X006469Y012009D03*
X006469Y012019D03*
X006589Y012039D03*
X006589Y012049D03*
X006509Y012229D03*
X006419Y012229D03*
X006469Y012329D03*
X006469Y012339D03*
X006469Y012349D03*
X006469Y012359D03*
X006719Y012229D03*
X006759Y012329D03*
X006759Y012339D03*
X006759Y012349D03*
X006759Y012359D03*
X006759Y012369D03*
X006759Y012379D03*
X006759Y012389D03*
X006759Y012399D03*
X006759Y012549D03*
X006759Y012559D03*
X006759Y012569D03*
X006759Y012579D03*
X006759Y012589D03*
X006759Y012599D03*
X006759Y012609D03*
X006759Y012619D03*
X006759Y012629D03*
X006759Y012639D03*
X006759Y012649D03*
X006759Y012659D03*
X006759Y012669D03*
X006759Y012679D03*
X006759Y012689D03*
X006709Y012769D03*
X006619Y012619D03*
X006919Y012559D03*
X007059Y012559D03*
X007059Y012569D03*
X007059Y012579D03*
X007059Y012549D03*
X007059Y012539D03*
X007059Y012529D03*
X007059Y012519D03*
X007059Y012509D03*
X007059Y012499D03*
X007059Y012489D03*
X007059Y012479D03*
X007059Y012469D03*
X007059Y012459D03*
X007059Y012449D03*
X007059Y012439D03*
X007059Y012429D03*
X007059Y012419D03*
X007059Y012409D03*
X007059Y012399D03*
X006919Y012399D03*
X006919Y012389D03*
X006909Y012349D03*
X006339Y012049D03*
X006339Y012039D03*
X006809Y011969D03*
X007629Y011229D03*
X007629Y011219D03*
X007629Y011209D03*
X006199Y010509D03*
X006019Y010479D03*
X006019Y010469D03*
X006019Y010459D03*
X006019Y010449D03*
X006019Y010439D03*
X006019Y010429D03*
X006109Y010299D03*
X006169Y010039D03*
X006169Y009889D03*
X006169Y009879D03*
X006689Y009939D03*
X006689Y009959D03*
X006689Y010109D03*
X006689Y010259D03*
X007209Y010259D03*
X007199Y009949D03*
X007199Y009939D03*
X009069Y010169D03*
X009419Y010849D03*
X009599Y010789D03*
X009709Y010839D03*
X009719Y010829D03*
X007209Y012969D03*
X007269Y013049D03*
X007279Y013059D03*
X007279Y013069D03*
X007279Y013079D03*
X007269Y013089D03*
X007139Y013089D03*
X007139Y013049D03*
X007199Y013339D03*
X007199Y013349D03*
X007199Y013359D03*
X007199Y013519D03*
X007199Y013529D03*
X007199Y013539D03*
D15*
X007264Y013659D03*
X007504Y013649D03*
X007794Y013649D03*
X008244Y013299D03*
X008084Y012769D03*
X008534Y012259D03*
X008534Y012249D03*
X008534Y012239D03*
X008534Y012129D03*
X008534Y012119D03*
X008534Y012109D03*
X008534Y012099D03*
X007634Y011599D03*
X007634Y011589D03*
X007634Y011579D03*
X007634Y011569D03*
X007634Y011559D03*
X007634Y011549D03*
X006464Y012089D03*
X006464Y012099D03*
X006464Y012109D03*
X006464Y012119D03*
X006464Y012129D03*
X006464Y012239D03*
X006464Y012249D03*
X006464Y012259D03*
X006464Y012269D03*
X006024Y011499D03*
X005874Y011239D03*
X005874Y011229D03*
X005874Y011219D03*
X005874Y011209D03*
X005874Y011199D03*
X005874Y010709D03*
X005874Y010699D03*
X005904Y010299D03*
X005674Y010309D03*
X006214Y010449D03*
X006314Y010399D03*
X006314Y009639D03*
X006314Y009499D03*
X007184Y009489D03*
X007574Y009649D03*
X007994Y009579D03*
X007994Y009739D03*
X008094Y009879D03*
X007944Y009979D03*
X007944Y009989D03*
X007944Y010239D03*
X008244Y010239D03*
X008534Y010239D03*
X008534Y009989D03*
X008534Y009979D03*
X008684Y009879D03*
X008834Y010239D03*
X009124Y010239D03*
X009124Y010229D03*
X009124Y009989D03*
X009124Y009979D03*
X009034Y009639D03*
X009034Y009499D03*
X009034Y009489D03*
X009284Y009409D03*
X009754Y009579D03*
X009284Y010919D03*
X009124Y011199D03*
X009124Y011209D03*
X009124Y011219D03*
X009124Y011229D03*
X009124Y011239D03*
X009124Y011349D03*
X009124Y011359D03*
X009124Y011369D03*
X009124Y011379D03*
X009124Y011389D03*
X009254Y011279D03*
X007204Y012999D03*
X006974Y013149D03*
X006974Y013159D03*
X006984Y013169D03*
X006964Y013139D03*
X007074Y013339D03*
D16*
X007064Y013389D03*
X007204Y013369D03*
X007204Y013509D03*
X007324Y013509D03*
X007654Y013539D03*
X007654Y013549D03*
X007654Y013559D03*
X007654Y013569D03*
X007794Y013579D03*
X007794Y013589D03*
X007794Y013519D03*
X007794Y013509D03*
X007794Y013369D03*
X007944Y013539D03*
X007944Y013579D03*
X008094Y013619D03*
X008094Y013509D03*
X008094Y013369D03*
X008254Y013349D03*
X008034Y013729D03*
X008034Y013739D03*
X007794Y013999D03*
X007674Y014009D03*
X007294Y013789D03*
X007294Y013779D03*
X007264Y013099D03*
X007264Y013039D03*
X007144Y013039D03*
X007144Y013099D03*
X006754Y012699D03*
X006614Y012609D03*
X006614Y012599D03*
X006584Y012549D03*
X006614Y012379D03*
X006614Y012369D03*
X006614Y012359D03*
X006764Y012409D03*
X006914Y012379D03*
X006914Y012369D03*
X006914Y012359D03*
X006914Y012569D03*
X006804Y011979D03*
X006464Y012029D03*
X006314Y011469D03*
X006464Y011439D03*
X006304Y011099D03*
X006284Y011069D03*
X006274Y011059D03*
X006024Y010989D03*
X006024Y010919D03*
X006024Y010779D03*
X006134Y010719D03*
X006134Y010709D03*
X006134Y010699D03*
X006134Y010689D03*
X006204Y010499D03*
X006204Y010489D03*
X006024Y010489D03*
X006024Y010419D03*
X005874Y010419D03*
X005874Y010429D03*
X005874Y010439D03*
X005874Y010449D03*
X005874Y010459D03*
X005874Y010409D03*
X005874Y010399D03*
X005874Y010389D03*
X005724Y010389D03*
X005724Y010399D03*
X005724Y010409D03*
X005724Y010419D03*
X005724Y010429D03*
X005724Y010439D03*
X005724Y010449D03*
X005724Y010459D03*
X005724Y010469D03*
X005724Y010479D03*
X005724Y010379D03*
X005724Y010369D03*
X005724Y010359D03*
X005724Y010349D03*
X005724Y010339D03*
X005574Y010409D03*
X005424Y010409D03*
X005464Y010249D03*
X005654Y010189D03*
X005654Y009889D03*
X005854Y009619D03*
X005864Y009539D03*
X006144Y009599D03*
X006484Y009529D03*
X006494Y009519D03*
X006614Y009519D03*
X006614Y009619D03*
X006784Y009489D03*
X006814Y009439D03*
X006834Y009409D03*
X007134Y009509D03*
X007184Y009469D03*
X007234Y009509D03*
X007244Y009519D03*
X007354Y009469D03*
X007384Y009519D03*
X007114Y009609D03*
X007204Y009959D03*
X007204Y009969D03*
X007204Y010109D03*
X007944Y010279D03*
X008094Y010369D03*
X008384Y010369D03*
X008534Y010279D03*
X008684Y010309D03*
X008684Y010319D03*
X008684Y010369D03*
X009124Y010369D03*
X009124Y010379D03*
X009124Y010389D03*
X009124Y010399D03*
X009124Y010409D03*
X009124Y010419D03*
X009124Y010429D03*
X009124Y010439D03*
X009124Y010449D03*
X009124Y010459D03*
X009124Y010469D03*
X009124Y010479D03*
X009124Y010489D03*
X009124Y010499D03*
X009124Y010509D03*
X009124Y010519D03*
X009124Y010529D03*
X009124Y010359D03*
X009124Y010349D03*
X009124Y010339D03*
X009124Y010329D03*
X009124Y010319D03*
X009124Y010309D03*
X009124Y010299D03*
X009124Y010289D03*
X009124Y010279D03*
X009424Y010559D03*
X009274Y010629D03*
X009274Y010639D03*
X009274Y010649D03*
X009274Y010659D03*
X009274Y010669D03*
X009274Y010679D03*
X009604Y010779D03*
X009684Y010869D03*
X009694Y010859D03*
X009704Y010849D03*
X009124Y011149D03*
X009124Y011439D03*
X008974Y011469D03*
X009274Y011579D03*
X009284Y011569D03*
X009294Y011559D03*
X008624Y011759D03*
X008614Y011769D03*
X008694Y012369D03*
X008544Y012399D03*
X008394Y012369D03*
X008144Y012589D03*
X008594Y012769D03*
X008484Y012959D03*
X006024Y011469D03*
X005914Y011389D03*
X005874Y010949D03*
X005724Y010949D03*
X005724Y010959D03*
X005724Y010969D03*
X005724Y010979D03*
X005724Y010939D03*
X005724Y010929D03*
X005724Y010919D03*
X005874Y010749D03*
X005874Y010649D03*
X006174Y010189D03*
X006684Y009949D03*
X005554Y009509D03*
X005424Y009619D03*
X005304Y009609D03*
X007634Y010839D03*
X007634Y011239D03*
X007634Y011249D03*
X007634Y011259D03*
X007634Y011269D03*
X007914Y009699D03*
X007794Y009599D03*
X008224Y009599D03*
X008344Y009519D03*
X008464Y009519D03*
X008864Y009609D03*
X009034Y009669D03*
X009094Y009519D03*
X009214Y009529D03*
X009214Y009619D03*
X009344Y009609D03*
X009334Y009519D03*
X009224Y009439D03*
X009464Y009619D03*
X009584Y009609D03*
X009714Y009629D03*
X009804Y009559D03*
X009814Y009509D03*
X009714Y009509D03*
X009934Y009539D03*
X009944Y009529D03*
X009924Y009659D03*
X009934Y009679D03*
X009944Y009689D03*
D17*
X009759Y009569D03*
X009759Y009489D03*
X009279Y009419D03*
X008649Y009499D03*
X008649Y009639D03*
X007989Y009589D03*
X007579Y009639D03*
X007579Y009499D03*
X007179Y009499D03*
X007179Y009639D03*
X006569Y009479D03*
X005609Y009499D03*
X005609Y009639D03*
X005439Y010179D03*
X005909Y010289D03*
X006129Y010329D03*
X006139Y010319D03*
X006149Y010309D03*
X006239Y010429D03*
X006229Y010439D03*
X007629Y010819D03*
X007949Y010229D03*
X008239Y010229D03*
X008239Y010219D03*
X008239Y010009D03*
X008239Y009999D03*
X008239Y009989D03*
X008539Y009999D03*
X008539Y010229D03*
X008829Y010229D03*
X008829Y010219D03*
X008829Y010209D03*
X008829Y010019D03*
X008829Y010009D03*
X008829Y009999D03*
X008829Y009989D03*
X010049Y009479D03*
X009259Y011079D03*
X007629Y011609D03*
X007629Y011619D03*
X007629Y011629D03*
X007109Y012589D03*
X006949Y012729D03*
X006949Y013099D03*
X006949Y013109D03*
X006959Y013119D03*
X006959Y013129D03*
X006989Y013179D03*
X006999Y013189D03*
X007209Y013009D03*
X007449Y013009D03*
X007499Y013659D03*
X007259Y013649D03*
X007259Y013639D03*
X007499Y013959D03*
X007799Y013959D03*
X007799Y013659D03*
X007649Y014249D03*
D18*
X007849Y013739D03*
X007799Y013619D03*
X007799Y013499D03*
X007939Y013549D03*
X007939Y013559D03*
X007939Y013569D03*
X008089Y013499D03*
X008039Y013709D03*
X008039Y013719D03*
X007919Y013359D03*
X007499Y013359D03*
X007499Y013369D03*
X007499Y013349D03*
X007499Y013339D03*
X007499Y013329D03*
X007499Y013319D03*
X007499Y013309D03*
X007499Y013299D03*
X007499Y013289D03*
X007499Y013279D03*
X007499Y013269D03*
X007499Y013499D03*
X007499Y013509D03*
X007499Y013519D03*
X007499Y013529D03*
X007499Y013539D03*
X007499Y013549D03*
X007499Y013559D03*
X007499Y013569D03*
X007499Y013579D03*
X007499Y013589D03*
X007499Y013599D03*
X007499Y013609D03*
X007499Y013619D03*
X007449Y013739D03*
X007289Y013759D03*
X007289Y013769D03*
X007119Y013469D03*
X007109Y013449D03*
X007069Y013379D03*
X006709Y012759D03*
X006749Y012709D03*
X006909Y012659D03*
X006909Y012649D03*
X006909Y012639D03*
X006909Y012629D03*
X006909Y012619D03*
X006909Y012609D03*
X006909Y012599D03*
X006909Y012589D03*
X006909Y012579D03*
X006759Y012539D03*
X006609Y012579D03*
X006609Y012589D03*
X006599Y012569D03*
X006589Y012559D03*
X006469Y012319D03*
X006469Y012039D03*
X006589Y012029D03*
X006769Y012029D03*
X006759Y012319D03*
X006339Y012029D03*
X005909Y011379D03*
X005909Y011369D03*
X005869Y011149D03*
X005729Y010989D03*
X005729Y010789D03*
X005579Y010749D03*
X005579Y010659D03*
X005729Y010619D03*
X005729Y010489D03*
X005579Y010449D03*
X005579Y010439D03*
X005579Y010429D03*
X005579Y010419D03*
X005419Y010399D03*
X005429Y010489D03*
X005879Y010379D03*
X005879Y010369D03*
X006029Y010409D03*
X006039Y010389D03*
X006169Y010199D03*
X006169Y010029D03*
X006169Y009899D03*
X006099Y009669D03*
X006309Y009669D03*
X006689Y009969D03*
X006689Y010099D03*
X006689Y010269D03*
X006019Y010619D03*
X006199Y010929D03*
X006249Y011029D03*
X006259Y011039D03*
X006269Y011049D03*
X006169Y011149D03*
X006159Y011139D03*
X006029Y010999D03*
X005459Y010239D03*
X005649Y010029D03*
X005649Y009899D03*
X005609Y009669D03*
X005659Y009509D03*
X005609Y009469D03*
X005849Y009519D03*
X005299Y009619D03*
X005219Y009659D03*
X006789Y009509D03*
X006789Y009499D03*
X006829Y009419D03*
X006959Y009479D03*
X007359Y009479D03*
X007529Y009509D03*
X007579Y009469D03*
X007629Y009509D03*
X007629Y009629D03*
X007579Y009669D03*
X007529Y009629D03*
X007789Y009609D03*
X007919Y009619D03*
X008179Y009669D03*
X008089Y009899D03*
X008389Y009899D03*
X008649Y009669D03*
X008699Y009509D03*
X008649Y009469D03*
X008599Y009509D03*
X008429Y009479D03*
X008979Y009899D03*
X008829Y010279D03*
X008979Y010319D03*
X008979Y010329D03*
X008979Y010339D03*
X008979Y010349D03*
X008979Y010359D03*
X008979Y010369D03*
X008979Y010379D03*
X008979Y010389D03*
X008979Y010399D03*
X008979Y010409D03*
X008679Y010359D03*
X008679Y010349D03*
X008679Y010339D03*
X008679Y010329D03*
X008389Y010329D03*
X008389Y010339D03*
X008389Y010349D03*
X008389Y010359D03*
X008389Y010319D03*
X008239Y010279D03*
X008089Y010319D03*
X008089Y010329D03*
X008089Y010339D03*
X008089Y010349D03*
X008089Y010359D03*
X007179Y009669D03*
X009219Y009519D03*
X009299Y009479D03*
X009229Y009429D03*
X009499Y009659D03*
X009579Y009619D03*
X009789Y009479D03*
X009959Y009519D03*
X009419Y010709D03*
X009419Y010839D03*
X009609Y010769D03*
X009679Y010879D03*
X009669Y010889D03*
X009269Y011109D03*
X008859Y011349D03*
X008859Y011359D03*
X009259Y011599D03*
X009269Y011589D03*
X008839Y012029D03*
X008829Y012039D03*
X008829Y012319D03*
X008539Y012319D03*
X008549Y012409D03*
X008679Y012609D03*
X008589Y012759D03*
X008479Y012949D03*
X008069Y012719D03*
X008249Y012409D03*
X008539Y012039D03*
X008629Y011749D03*
X008639Y011739D03*
X008649Y011729D03*
X007629Y011299D03*
X007629Y011289D03*
X007629Y011279D03*
D19*
X007634Y011139D03*
X007634Y011129D03*
X006554Y011499D03*
X006404Y011319D03*
X006404Y011269D03*
X006404Y011259D03*
X006404Y011249D03*
X006404Y011239D03*
X006314Y011139D03*
X006224Y011259D03*
X006224Y011329D03*
X006114Y011329D03*
X006114Y011259D03*
X005934Y011259D03*
X005934Y011269D03*
X005934Y011319D03*
X005914Y011419D03*
X006024Y011449D03*
X005814Y011259D03*
X005874Y010929D03*
X005964Y010879D03*
X005974Y010889D03*
X005984Y010899D03*
X005964Y010819D03*
X005974Y010809D03*
X005874Y010769D03*
X005784Y010819D03*
X005774Y010809D03*
X005784Y010879D03*
X005764Y010899D03*
X005674Y010889D03*
X005684Y010809D03*
X006074Y010889D03*
X006184Y010859D03*
X006184Y010849D03*
X006184Y010839D03*
X006164Y010769D03*
X006154Y010649D03*
X006184Y010559D03*
X006184Y010549D03*
X006074Y010519D03*
X006064Y010509D03*
X005984Y010509D03*
X005964Y010529D03*
X005964Y010589D03*
X006064Y010599D03*
X005784Y010589D03*
X005784Y010519D03*
X005684Y010509D03*
X005674Y010519D03*
X005674Y010589D03*
X005684Y010599D03*
X005484Y010589D03*
X005474Y010599D03*
X005484Y010519D03*
X005394Y010509D03*
X005564Y010399D03*
X005604Y010299D03*
X005594Y010289D03*
X005594Y010229D03*
X005604Y010219D03*
X005704Y010219D03*
X005714Y010229D03*
X005714Y010239D03*
X005714Y010289D03*
X005484Y010289D03*
X005694Y010009D03*
X005694Y009919D03*
X006124Y010009D03*
X006214Y010009D03*
X006214Y009919D03*
X006634Y009999D03*
X006644Y010079D03*
X006734Y010079D03*
X006644Y010289D03*
X006634Y010299D03*
X006744Y010299D03*
X006744Y010369D03*
X007154Y010299D03*
X007264Y010299D03*
X007264Y010309D03*
X007264Y010359D03*
X007254Y010079D03*
X007154Y010079D03*
X007154Y009999D03*
X006984Y009719D03*
X007374Y009719D03*
X007724Y009669D03*
X007804Y009669D03*
X007874Y010079D03*
X007874Y010139D03*
X007874Y010149D03*
X008014Y010149D03*
X008014Y010079D03*
X008014Y010069D03*
X008174Y010069D03*
X008174Y010149D03*
X008314Y010149D03*
X008314Y010139D03*
X008314Y010089D03*
X008314Y010079D03*
X008464Y010079D03*
X008464Y010139D03*
X008464Y010149D03*
X008604Y010149D03*
X008604Y010079D03*
X008604Y010069D03*
X008754Y010079D03*
X008754Y010089D03*
X008754Y010129D03*
X008754Y010139D03*
X008894Y010149D03*
X008894Y010069D03*
X009054Y010079D03*
X009054Y010139D03*
X009054Y010149D03*
X009194Y010149D03*
X009194Y010079D03*
X009194Y010069D03*
X009254Y010349D03*
X008844Y010379D03*
X009144Y010619D03*
X009144Y010629D03*
X009144Y010639D03*
X009144Y010649D03*
X009144Y010659D03*
X009144Y010669D03*
X009144Y010709D03*
X009144Y010719D03*
X009144Y010729D03*
X009144Y010739D03*
X009144Y010749D03*
X009144Y010759D03*
X009144Y010769D03*
X009254Y010839D03*
X009364Y010809D03*
X009374Y010819D03*
X009364Y010749D03*
X009474Y010739D03*
X009464Y010819D03*
X009594Y010809D03*
X009094Y010909D03*
X009084Y010919D03*
X009124Y011139D03*
X009064Y011259D03*
X009064Y011269D03*
X009064Y011319D03*
X008974Y011449D03*
X008884Y011329D03*
X009354Y011479D03*
X009364Y011469D03*
X008884Y012149D03*
X008884Y012219D03*
X008774Y012219D03*
X008774Y012149D03*
X008594Y012149D03*
X008594Y012209D03*
X008474Y012209D03*
X008474Y012199D03*
X008474Y012159D03*
X008474Y012149D03*
X008294Y012289D03*
X008254Y012359D03*
X008254Y012369D03*
X008404Y012399D03*
X008624Y012519D03*
X008624Y012579D03*
X008634Y012589D03*
X008724Y012509D03*
X008744Y012529D03*
X008804Y012439D03*
X008804Y012429D03*
X008814Y012409D03*
X008704Y012399D03*
X008064Y012689D03*
X007204Y013169D03*
X007254Y013399D03*
X007264Y013409D03*
X007264Y013469D03*
X007254Y013479D03*
X007324Y013489D03*
X007444Y013469D03*
X007454Y013479D03*
X007444Y013409D03*
X007554Y013399D03*
X007544Y013479D03*
X007754Y013479D03*
X007744Y013399D03*
X007844Y013399D03*
X007854Y013409D03*
X007854Y013469D03*
X007844Y013479D03*
X007944Y013599D03*
X008044Y013479D03*
X008034Y013469D03*
X008034Y013409D03*
X008044Y013399D03*
X008144Y013399D03*
X008254Y013389D03*
X008254Y013379D03*
X008014Y013769D03*
X008014Y013779D03*
X007874Y013779D03*
X007874Y013769D03*
X007874Y013839D03*
X007874Y013849D03*
X007904Y013999D03*
X007894Y014009D03*
X007714Y013839D03*
X007714Y013829D03*
X007714Y013819D03*
X007714Y013809D03*
X007714Y013799D03*
X007714Y013789D03*
X007714Y013779D03*
X007584Y013779D03*
X007584Y013789D03*
X007584Y013799D03*
X007584Y013809D03*
X007584Y013819D03*
X007584Y013829D03*
X007584Y013839D03*
X007424Y013839D03*
X007424Y013849D03*
X007424Y013779D03*
X007424Y013769D03*
X007314Y013849D03*
X007314Y013859D03*
X007444Y014069D03*
X007134Y013539D03*
X007124Y013529D03*
X007154Y013479D03*
X007154Y013399D03*
X006704Y012789D03*
X006714Y012519D03*
X006704Y012509D03*
X006704Y012449D03*
X006724Y012429D03*
X006814Y012439D03*
X006804Y012519D03*
X006924Y012539D03*
X007044Y012359D03*
X007044Y012349D03*
X007014Y012309D03*
X007014Y012299D03*
X007004Y012289D03*
X007004Y012279D03*
X006814Y012219D03*
X006814Y012139D03*
X006704Y012149D03*
X006704Y012209D03*
X006614Y012329D03*
X006614Y012339D03*
X006614Y012399D03*
X006524Y012449D03*
X006504Y012429D03*
X006484Y012409D03*
X006584Y012529D03*
X006524Y012209D03*
X006524Y012149D03*
X006404Y012149D03*
X006404Y012159D03*
X006404Y012199D03*
X006404Y012209D03*
X006814Y011949D03*
X006224Y010299D03*
X006214Y010219D03*
X006124Y010219D03*
X006114Y010229D03*
X005174Y010009D03*
X006164Y009509D03*
X006254Y009509D03*
X005964Y009469D03*
X008244Y009509D03*
X008794Y009669D03*
X009204Y009669D03*
X009334Y009429D03*
X009814Y009629D03*
D20*
X009764Y009669D03*
X009954Y009699D03*
X009294Y009659D03*
X009074Y009509D03*
X009024Y009469D03*
X009124Y009949D03*
X008834Y009949D03*
X008684Y009899D03*
X008534Y009949D03*
X008244Y009949D03*
X007944Y009949D03*
X008214Y009589D03*
X008164Y009549D03*
X008204Y009469D03*
X007364Y009489D03*
X007364Y009499D03*
X007364Y009509D03*
X006964Y009489D03*
X006824Y009429D03*
X006784Y009519D03*
X006534Y009659D03*
X006354Y009509D03*
X006124Y009469D03*
X006084Y009549D03*
X006134Y009589D03*
X005784Y009669D03*
X005794Y009469D03*
X005344Y009659D03*
X005254Y010229D03*
X005264Y010239D03*
X005324Y010299D03*
X005334Y010309D03*
X005344Y010319D03*
X005354Y010329D03*
X005364Y010339D03*
X005374Y010349D03*
X005384Y010359D03*
X005394Y010369D03*
X005404Y010379D03*
X005414Y010389D03*
X005434Y010499D03*
X005874Y010659D03*
X005874Y010739D03*
X006024Y010789D03*
X006024Y010909D03*
X006034Y011009D03*
X006044Y011019D03*
X006054Y011029D03*
X006064Y011039D03*
X006074Y011049D03*
X006084Y011059D03*
X006094Y011069D03*
X006104Y011079D03*
X006114Y011089D03*
X006124Y011099D03*
X006134Y011109D03*
X006144Y011119D03*
X006154Y011129D03*
X006244Y011019D03*
X006234Y011009D03*
X005874Y011159D03*
X005864Y011139D03*
X005854Y011129D03*
X005744Y011009D03*
X005734Y010999D03*
X005724Y010909D03*
X006024Y010499D03*
X006034Y010399D03*
X006044Y010379D03*
X006054Y010369D03*
X006064Y010359D03*
X006074Y010349D03*
X006204Y010479D03*
X005884Y010359D03*
X005884Y010349D03*
X005654Y010199D03*
X005454Y010229D03*
X005904Y011349D03*
X005904Y011359D03*
X006024Y011479D03*
X006174Y011429D03*
X006314Y011479D03*
X006464Y011429D03*
X006434Y011359D03*
X006434Y011349D03*
X006344Y012019D03*
X006764Y012039D03*
X006774Y012019D03*
X006784Y012009D03*
X006794Y011999D03*
X006804Y011989D03*
X006764Y012419D03*
X006914Y012669D03*
X006914Y012679D03*
X006744Y012719D03*
X006734Y012729D03*
X006724Y012739D03*
X006714Y012749D03*
X007364Y012929D03*
X007504Y013379D03*
X007674Y013359D03*
X007794Y013379D03*
X008094Y013379D03*
X008254Y013339D03*
X008084Y013629D03*
X008074Y013639D03*
X008044Y013699D03*
X007744Y013739D03*
X007554Y013739D03*
X007284Y013739D03*
X007284Y013749D03*
X007324Y013519D03*
X007204Y013499D03*
X007114Y013459D03*
X007104Y013439D03*
X007104Y013429D03*
X007204Y013379D03*
X008074Y012729D03*
X008144Y012599D03*
X008254Y012719D03*
X008264Y012729D03*
X008274Y012739D03*
X008284Y012749D03*
X008294Y012759D03*
X008304Y012769D03*
X008314Y012779D03*
X008324Y012789D03*
X008334Y012799D03*
X008344Y012809D03*
X008354Y012819D03*
X008364Y012829D03*
X008374Y012839D03*
X008384Y012849D03*
X008394Y012859D03*
X008404Y012869D03*
X008414Y012879D03*
X008424Y012889D03*
X008434Y012899D03*
X008444Y012909D03*
X008454Y012919D03*
X008464Y012929D03*
X008474Y012939D03*
X008584Y012749D03*
X008574Y012739D03*
X008564Y012729D03*
X008554Y012719D03*
X008544Y012709D03*
X008534Y012699D03*
X008524Y012689D03*
X008514Y012679D03*
X008504Y012669D03*
X008494Y012659D03*
X008484Y012649D03*
X008474Y012639D03*
X008464Y012629D03*
X008454Y012619D03*
X008444Y012609D03*
X008434Y012599D03*
X008424Y012589D03*
X008414Y012579D03*
X008404Y012569D03*
X008394Y012559D03*
X008384Y012549D03*
X008374Y012539D03*
X008364Y012529D03*
X008354Y012519D03*
X008344Y012509D03*
X008334Y012499D03*
X008324Y012489D03*
X008314Y012479D03*
X008304Y012469D03*
X008294Y012459D03*
X008284Y012449D03*
X008274Y012439D03*
X008264Y012429D03*
X008254Y012419D03*
X008554Y012419D03*
X008564Y012429D03*
X008574Y012439D03*
X008584Y012449D03*
X008594Y012459D03*
X008604Y012469D03*
X008844Y012019D03*
X008854Y012009D03*
X008864Y011999D03*
X008874Y011989D03*
X008884Y011979D03*
X008894Y011969D03*
X008904Y011959D03*
X008914Y011949D03*
X008924Y011939D03*
X008934Y011929D03*
X008944Y011919D03*
X008784Y011779D03*
X008774Y011789D03*
X008764Y011799D03*
X008754Y011809D03*
X008744Y011819D03*
X008734Y011829D03*
X008724Y011839D03*
X008654Y011719D03*
X008664Y011709D03*
X008824Y011429D03*
X008854Y011379D03*
X008854Y011369D03*
X008974Y011479D03*
X009124Y011429D03*
X009254Y011609D03*
X009244Y011619D03*
X009234Y011629D03*
X009224Y011639D03*
X009214Y011649D03*
X009204Y011659D03*
X009194Y011669D03*
X009184Y011679D03*
X009174Y011689D03*
X009314Y011249D03*
X009324Y011239D03*
X009334Y011229D03*
X009344Y011219D03*
X009354Y011209D03*
X009364Y011199D03*
X009374Y011189D03*
X009384Y011179D03*
X009394Y011169D03*
X009404Y011159D03*
X009414Y011149D03*
X009424Y011139D03*
X009434Y011129D03*
X009444Y011119D03*
X009454Y011109D03*
X009464Y011099D03*
X009474Y011089D03*
X009484Y011079D03*
X009494Y011069D03*
X009504Y011059D03*
X009514Y011049D03*
X009524Y011039D03*
X009534Y011029D03*
X009544Y011019D03*
X009554Y011009D03*
X009564Y010999D03*
X009574Y010989D03*
X009584Y010979D03*
X009594Y010969D03*
X009604Y010959D03*
X009614Y010949D03*
X009624Y010939D03*
X009634Y010929D03*
X009644Y010919D03*
X009654Y010909D03*
X009664Y010899D03*
X009614Y010759D03*
X009524Y010489D03*
X009524Y010479D03*
X009274Y010879D03*
X009124Y011159D03*
X007634Y011309D03*
X007634Y011319D03*
X007634Y011329D03*
X007634Y011339D03*
X007634Y011349D03*
X007634Y011359D03*
X007634Y012449D03*
X007654Y014269D03*
X007204Y010269D03*
X007204Y010099D03*
X007204Y009979D03*
D21*
X007619Y010529D03*
X007629Y011109D03*
X006559Y011489D03*
X006319Y011439D03*
X006389Y011199D03*
X006319Y011149D03*
X005909Y011439D03*
X005849Y011339D03*
X005819Y011289D03*
X005819Y011279D03*
X005579Y010779D03*
X005199Y010219D03*
X005159Y010039D03*
X008249Y009519D03*
X009349Y009439D03*
X009039Y010979D03*
X009029Y010989D03*
X008899Y011219D03*
X008979Y011439D03*
X009269Y011329D03*
X009409Y011409D03*
X009419Y011399D03*
X008309Y012239D03*
X008309Y012249D03*
X008059Y012669D03*
X008489Y012999D03*
X008599Y012809D03*
X008239Y013439D03*
X007999Y013849D03*
X007999Y013859D03*
X007649Y013609D03*
X007329Y013899D03*
X007329Y013909D03*
X007089Y013479D03*
X006699Y012809D03*
X006529Y012519D03*
X006989Y012239D03*
X006989Y012229D03*
D22*
X007054Y012389D03*
X006924Y012409D03*
X006924Y012549D03*
X006624Y012629D03*
X006624Y012639D03*
X006584Y012539D03*
X006614Y012389D03*
X006614Y012349D03*
X006474Y012369D03*
X006474Y012379D03*
X006804Y012229D03*
X006594Y012059D03*
X006544Y011509D03*
X006414Y011339D03*
X006314Y011459D03*
X006214Y011339D03*
X006124Y011339D03*
X006024Y011459D03*
X005914Y011409D03*
X005914Y011399D03*
X005924Y011339D03*
X005924Y011249D03*
X005824Y011249D03*
X005884Y010979D03*
X005874Y010939D03*
X005874Y010759D03*
X005874Y010639D03*
X005874Y010469D03*
X005714Y010299D03*
X005684Y010209D03*
X005474Y010269D03*
X005454Y010609D03*
X006144Y010669D03*
X006144Y010739D03*
X006154Y010749D03*
X006194Y010889D03*
X006194Y010899D03*
X006194Y010519D03*
X006864Y009669D03*
X006844Y009619D03*
X006834Y009589D03*
X006824Y009569D03*
X006824Y009559D03*
X006754Y009559D03*
X006754Y009549D03*
X006744Y009569D03*
X006744Y009579D03*
X006744Y009589D03*
X006734Y009609D03*
X006734Y009619D03*
X006724Y009649D03*
X006794Y009459D03*
X006994Y009539D03*
X006994Y009549D03*
X006994Y009559D03*
X006994Y009569D03*
X006994Y009579D03*
X006994Y009589D03*
X006994Y009599D03*
X006994Y009609D03*
X006994Y009619D03*
X006994Y009679D03*
X006994Y009689D03*
X006994Y009699D03*
X006994Y009709D03*
X007104Y009569D03*
X007254Y009569D03*
X007254Y009579D03*
X007254Y009589D03*
X007254Y009559D03*
X007254Y009549D03*
X007394Y009549D03*
X007394Y009559D03*
X007394Y009569D03*
X007394Y009579D03*
X007394Y009589D03*
X007394Y009599D03*
X007394Y009609D03*
X007394Y009619D03*
X007394Y009679D03*
X007394Y009689D03*
X007394Y009699D03*
X007394Y009709D03*
X007504Y009589D03*
X007504Y009579D03*
X007504Y009569D03*
X007504Y009559D03*
X007504Y009549D03*
X007394Y009539D03*
X007654Y009569D03*
X007654Y009579D03*
X007734Y009649D03*
X007734Y009659D03*
X007804Y009659D03*
X007804Y009649D03*
X008144Y009529D03*
X008144Y009519D03*
X008234Y009609D03*
X008234Y009619D03*
X008334Y009669D03*
X008244Y009939D03*
X008304Y010059D03*
X008184Y010169D03*
X008004Y010059D03*
X007884Y010059D03*
X007944Y009939D03*
X008094Y009919D03*
X008474Y010059D03*
X008534Y009939D03*
X008764Y010059D03*
X008884Y010169D03*
X009064Y010059D03*
X009184Y010059D03*
X009184Y010169D03*
X008994Y010419D03*
X009134Y010559D03*
X009134Y010569D03*
X009264Y010619D03*
X009264Y010699D03*
X009264Y010859D03*
X009134Y010839D03*
X009134Y010829D03*
X009134Y010819D03*
X009124Y010869D03*
X009114Y010889D03*
X009104Y010899D03*
X009724Y010819D03*
X009174Y011249D03*
X009174Y011339D03*
X009074Y011339D03*
X009074Y011249D03*
X008874Y011339D03*
X008974Y011459D03*
X008754Y011509D03*
X009314Y011529D03*
X009324Y011519D03*
X008874Y012229D03*
X008784Y012229D03*
X008684Y012349D03*
X008704Y012389D03*
X008624Y012509D03*
X008404Y012389D03*
X008254Y012389D03*
X008144Y012579D03*
X008594Y012779D03*
X008484Y012969D03*
X007944Y013529D03*
X007864Y013749D03*
X007724Y013759D03*
X007724Y013859D03*
X007674Y013999D03*
X007574Y013859D03*
X007574Y013759D03*
X007434Y013749D03*
X007304Y013809D03*
X007304Y013819D03*
X007324Y013499D03*
X007064Y013399D03*
X007134Y013079D03*
X007134Y013069D03*
X007134Y013059D03*
X006704Y012779D03*
X007634Y011199D03*
X007634Y011189D03*
X007634Y011179D03*
X007634Y011169D03*
X007634Y011159D03*
X007634Y011149D03*
X007944Y010369D03*
X008804Y009659D03*
X008804Y009649D03*
X008874Y009649D03*
X008874Y009659D03*
X008974Y009619D03*
X008974Y009609D03*
X008974Y009599D03*
X008984Y009629D03*
X009094Y009619D03*
X009104Y009609D03*
X009104Y009599D03*
X009104Y009549D03*
X009104Y009539D03*
X009104Y009529D03*
X009214Y009459D03*
X009454Y009469D03*
X009454Y009479D03*
X009454Y009489D03*
X009454Y009499D03*
X009454Y009509D03*
X009454Y009519D03*
X009454Y009529D03*
X009454Y009539D03*
X009454Y009549D03*
X009454Y009559D03*
X009454Y009569D03*
X009454Y009579D03*
X009454Y009589D03*
X009594Y009649D03*
X009594Y009659D03*
X009704Y009609D03*
X009704Y009559D03*
X009704Y009549D03*
X009704Y009539D03*
X009704Y009529D03*
X009704Y009479D03*
X009694Y009469D03*
X009824Y009519D03*
X009824Y009529D03*
X009824Y009539D03*
X009204Y009659D03*
X008974Y009919D03*
X008724Y009589D03*
X008724Y009579D03*
X008724Y009549D03*
X008874Y009469D03*
X008334Y009469D03*
X008334Y009479D03*
X006384Y009539D03*
X006374Y009529D03*
X006384Y009599D03*
X006374Y009609D03*
X006374Y009619D03*
X006364Y009629D03*
X006254Y009619D03*
X006244Y009599D03*
X006154Y009609D03*
X006154Y009619D03*
X006064Y009529D03*
X006064Y009519D03*
X005964Y009529D03*
X005964Y009479D03*
X005864Y009599D03*
X005684Y009579D03*
X005684Y009569D03*
X005684Y009559D03*
X005534Y009559D03*
X005534Y009569D03*
X005534Y009579D03*
X005534Y009589D03*
X005534Y009549D03*
X005424Y009469D03*
X005304Y009469D03*
X005304Y009479D03*
X005304Y009489D03*
X005304Y009499D03*
X005304Y009509D03*
X005304Y009519D03*
X005304Y009529D03*
X005304Y009539D03*
X005304Y009549D03*
X005304Y009559D03*
X005304Y009569D03*
X005304Y009579D03*
X005304Y009589D03*
X005304Y009599D03*
X005184Y009599D03*
X005184Y009609D03*
X005184Y009589D03*
X005184Y009579D03*
X005184Y009569D03*
X005184Y009559D03*
X005184Y009549D03*
X005184Y009539D03*
X005184Y009529D03*
X005184Y009519D03*
X005184Y009509D03*
X005184Y009499D03*
X005184Y009489D03*
X005184Y009479D03*
X005434Y009659D03*
D23*
X005609Y009659D03*
X005799Y009649D03*
X005809Y009639D03*
X005609Y009479D03*
X006119Y009479D03*
X006109Y009649D03*
X005439Y010199D03*
X005299Y010289D03*
X005899Y010319D03*
X006209Y010469D03*
X005579Y010679D03*
X005579Y010729D03*
X006169Y011169D03*
X006169Y011179D03*
X006169Y011409D03*
X006349Y012009D03*
X006579Y012009D03*
X006759Y012059D03*
X006759Y012299D03*
X006469Y012299D03*
X006929Y012709D03*
X007339Y012909D03*
X007419Y012979D03*
X007429Y012989D03*
X007679Y013339D03*
X007319Y013539D03*
X007269Y013689D03*
X007269Y013699D03*
X007099Y013409D03*
X007499Y013979D03*
X007799Y013979D03*
X008249Y013319D03*
X008079Y012749D03*
X008539Y012299D03*
X008829Y012299D03*
X008829Y012059D03*
X008709Y011649D03*
X009229Y011319D03*
X009239Y011309D03*
X009269Y011089D03*
X009279Y010899D03*
X009419Y010729D03*
X009499Y010529D03*
X008829Y010259D03*
X008829Y009959D03*
X008539Y009959D03*
X008239Y009959D03*
X007999Y009749D03*
X008189Y009649D03*
X008189Y009639D03*
X008199Y009479D03*
X007769Y009619D03*
X007769Y009629D03*
X007769Y009639D03*
X007579Y009659D03*
X007379Y009659D03*
X007379Y009669D03*
X007379Y009649D03*
X007379Y009639D03*
X007379Y009629D03*
X007179Y009659D03*
X007579Y009479D03*
X008649Y009479D03*
X008839Y009619D03*
X008839Y009629D03*
X008839Y009639D03*
X008649Y009659D03*
X008239Y010259D03*
X007629Y010829D03*
X007629Y011449D03*
X007629Y011459D03*
X007629Y011469D03*
X009769Y009659D03*
X010069Y009469D03*
D24*
X009589Y009669D03*
X009059Y010069D03*
X009059Y010159D03*
X009189Y010159D03*
X008979Y010299D03*
X008999Y010429D03*
X009139Y010579D03*
X009139Y010589D03*
X009139Y010599D03*
X009139Y010609D03*
X009259Y010709D03*
X009369Y010739D03*
X009259Y010849D03*
X009139Y010809D03*
X009139Y010799D03*
X009139Y010789D03*
X009139Y010779D03*
X009269Y011129D03*
X009179Y011329D03*
X009069Y011329D03*
X009329Y011509D03*
X009339Y011499D03*
X009349Y011489D03*
X008539Y012029D03*
X008589Y012139D03*
X008589Y012219D03*
X008479Y012219D03*
X008479Y012139D03*
X008389Y012339D03*
X008249Y012379D03*
X008139Y012569D03*
X008069Y012699D03*
X008489Y012979D03*
X008599Y012789D03*
X008649Y012599D03*
X008709Y012599D03*
X008809Y012419D03*
X008829Y012329D03*
X008679Y012339D03*
X008779Y012139D03*
X008879Y012139D03*
X007049Y012369D03*
X007049Y012379D03*
X006909Y012339D03*
X006799Y012429D03*
X006709Y012219D03*
X006709Y012139D03*
X006519Y012139D03*
X006519Y012219D03*
X006409Y012219D03*
X006409Y012139D03*
X006339Y012059D03*
X006479Y012389D03*
X006479Y012399D03*
X006489Y012419D03*
X006629Y012649D03*
X006629Y012659D03*
X006809Y011959D03*
X006319Y011449D03*
X006409Y011329D03*
X006219Y011249D03*
X006119Y011249D03*
X005929Y011329D03*
X006319Y011129D03*
X006189Y010879D03*
X006189Y010869D03*
X006159Y010759D03*
X006149Y010659D03*
X006189Y010539D03*
X006189Y010529D03*
X005979Y010599D03*
X005769Y010599D03*
X005769Y010509D03*
X005579Y010469D03*
X005469Y010509D03*
X005449Y010619D03*
X005579Y010639D03*
X005579Y010769D03*
X005689Y010899D03*
X005889Y010989D03*
X006059Y010899D03*
X006069Y010809D03*
X006109Y010289D03*
X006139Y010209D03*
X006199Y010209D03*
X006649Y009989D03*
X006729Y009989D03*
X006739Y009999D03*
X006729Y010289D03*
X007159Y010289D03*
X007249Y010289D03*
X007259Y009999D03*
X007239Y009989D03*
X007169Y009989D03*
X006629Y009669D03*
X006629Y009659D03*
X006819Y009549D03*
X006249Y009609D03*
X006129Y009919D03*
X005609Y009919D03*
X005609Y010009D03*
X005619Y010209D03*
X005479Y010279D03*
X005429Y009669D03*
X005179Y009469D03*
X007799Y009469D03*
X008469Y009669D03*
X008389Y009919D03*
X008469Y010069D03*
X008469Y010159D03*
X008599Y010159D03*
X008599Y010059D03*
X008759Y010069D03*
X008759Y010149D03*
X008759Y010159D03*
X008889Y010159D03*
X008889Y010059D03*
X008679Y009919D03*
X008879Y009669D03*
X008309Y010069D03*
X008309Y010159D03*
X008179Y010159D03*
X008179Y010059D03*
X008009Y010159D03*
X007879Y010159D03*
X007879Y010069D03*
X008089Y010299D03*
X008389Y010299D03*
X008679Y010299D03*
X009599Y010799D03*
X008259Y013369D03*
X008129Y013389D03*
X008059Y013389D03*
X007919Y013379D03*
X007829Y013389D03*
X007759Y013389D03*
X007679Y013379D03*
X007539Y013389D03*
X007469Y013389D03*
X007649Y013519D03*
X007649Y013599D03*
X007719Y013769D03*
X007719Y013849D03*
X007579Y013849D03*
X007579Y013769D03*
X007429Y013759D03*
X007429Y013859D03*
X007309Y013839D03*
X007309Y013829D03*
X007679Y013989D03*
X007869Y013859D03*
X007869Y013759D03*
X008019Y013759D03*
X007949Y013519D03*
X007239Y013389D03*
X007169Y013389D03*
D25*
X007099Y013419D03*
X007069Y013369D03*
X007279Y013729D03*
X007499Y013489D03*
X007799Y013489D03*
X007919Y013349D03*
X008089Y013489D03*
X008069Y013649D03*
X008059Y013659D03*
X008059Y013669D03*
X008049Y013679D03*
X008049Y013689D03*
X007799Y013989D03*
X007499Y013989D03*
X008249Y013329D03*
X008249Y012709D03*
X008239Y012699D03*
X008229Y012689D03*
X008219Y012679D03*
X008209Y012669D03*
X008199Y012659D03*
X008189Y012649D03*
X008179Y012639D03*
X008169Y012629D03*
X008159Y012619D03*
X008149Y012609D03*
X008539Y012049D03*
X008829Y012049D03*
X008829Y012309D03*
X008669Y011699D03*
X008679Y011689D03*
X008829Y011419D03*
X008839Y011409D03*
X008849Y011399D03*
X008849Y011389D03*
X009159Y011699D03*
X009269Y011099D03*
X009279Y010889D03*
X009419Y010829D03*
X009419Y010719D03*
X009509Y010519D03*
X009519Y010509D03*
X009519Y010499D03*
X009519Y010469D03*
X009519Y010459D03*
X009329Y010449D03*
X009319Y010459D03*
X009319Y010469D03*
X009319Y010479D03*
X009319Y010489D03*
X009319Y010499D03*
X009329Y010509D03*
X009329Y010519D03*
X008829Y010269D03*
X008539Y010269D03*
X008239Y010269D03*
X008089Y009889D03*
X008019Y009569D03*
X008199Y009579D03*
X006969Y009509D03*
X006969Y009499D03*
X006789Y009529D03*
X006299Y009469D03*
X006119Y009579D03*
X006099Y009559D03*
X006169Y009909D03*
X006169Y010019D03*
X006089Y010339D03*
X005889Y010339D03*
X005729Y010499D03*
X005729Y010609D03*
X005579Y010669D03*
X005579Y010739D03*
X005729Y010799D03*
X005749Y011019D03*
X005759Y011029D03*
X005769Y011039D03*
X005779Y011049D03*
X005789Y011059D03*
X005799Y011069D03*
X005809Y011079D03*
X005819Y011089D03*
X005829Y011099D03*
X005839Y011109D03*
X005849Y011119D03*
X006169Y011159D03*
X006229Y010999D03*
X006219Y010989D03*
X006189Y010939D03*
X006019Y010609D03*
X005449Y010219D03*
X005279Y010259D03*
X005269Y010249D03*
X005649Y010019D03*
X005649Y009909D03*
X005219Y009649D03*
X006689Y009979D03*
X006689Y010089D03*
X006689Y010279D03*
X007629Y010539D03*
X007629Y011369D03*
X007629Y011379D03*
X007629Y011389D03*
X006439Y011369D03*
X006319Y011489D03*
X006589Y012019D03*
X006759Y012049D03*
X006759Y012309D03*
X006759Y012529D03*
X006919Y012689D03*
X007209Y012979D03*
X007349Y012919D03*
X007379Y012939D03*
X007389Y012949D03*
X007399Y012959D03*
X007409Y012969D03*
X009499Y009649D03*
X009729Y009599D03*
D26*
X009744Y009589D03*
X009034Y009649D03*
X009024Y009479D03*
X009124Y009969D03*
X009124Y010259D03*
X008534Y010259D03*
X008534Y009969D03*
X008194Y009489D03*
X007944Y009969D03*
X007944Y010259D03*
X006984Y009659D03*
X006984Y009649D03*
X006984Y009639D03*
X006984Y009629D03*
X006314Y009649D03*
X006304Y009479D03*
X006114Y009489D03*
X006114Y009499D03*
X005814Y009509D03*
X005804Y009489D03*
X005814Y009629D03*
X005874Y010679D03*
X005874Y010719D03*
X005874Y011179D03*
X005874Y011189D03*
X006464Y012069D03*
X006464Y012079D03*
X006464Y012289D03*
X006764Y012289D03*
X006764Y012069D03*
X007634Y012439D03*
X007204Y012989D03*
X007074Y013349D03*
X007264Y013679D03*
X007504Y013639D03*
X007794Y013639D03*
X007914Y013339D03*
X008534Y012289D03*
X008534Y012079D03*
X008534Y012069D03*
X008824Y012069D03*
X008824Y012289D03*
X008724Y011639D03*
X009124Y011409D03*
X009124Y011399D03*
X009244Y011299D03*
X009124Y011189D03*
X009124Y011179D03*
X009284Y010909D03*
X007634Y011479D03*
X007634Y011489D03*
X007634Y011499D03*
X007634Y011509D03*
X007634Y011519D03*
X007634Y011529D03*
D27*
X007634Y011439D03*
X007634Y011429D03*
X007634Y011419D03*
X007634Y011409D03*
X007634Y011399D03*
X008684Y011679D03*
X008694Y011669D03*
X008704Y011659D03*
X008974Y011489D03*
X009124Y011419D03*
X009124Y011169D03*
X009624Y010749D03*
X009514Y010449D03*
X009504Y010439D03*
X009334Y010439D03*
X009344Y010529D03*
X009124Y010269D03*
X009124Y009959D03*
X008984Y009889D03*
X009034Y009659D03*
X008684Y009889D03*
X008384Y009889D03*
X008184Y009659D03*
X008184Y009569D03*
X008174Y009559D03*
X007944Y009959D03*
X007944Y010269D03*
X007204Y010279D03*
X007204Y010089D03*
X006984Y009669D03*
X006784Y009539D03*
X007184Y009479D03*
X006314Y009659D03*
X006114Y009639D03*
X006104Y009659D03*
X006104Y009569D03*
X005794Y009659D03*
X005794Y009479D03*
X005444Y010209D03*
X005294Y010279D03*
X005284Y010269D03*
X005894Y010329D03*
X005874Y010669D03*
X005874Y010729D03*
X006024Y010799D03*
X006194Y010949D03*
X006194Y010959D03*
X006204Y010969D03*
X006214Y010979D03*
X005874Y011169D03*
X006024Y011489D03*
X006174Y011419D03*
X006444Y011389D03*
X006444Y011379D03*
X006454Y011399D03*
X006454Y011409D03*
X006464Y011419D03*
X006464Y012049D03*
X006464Y012059D03*
X006464Y012309D03*
X006924Y012699D03*
X007074Y013359D03*
X007204Y013489D03*
X007324Y013529D03*
X007274Y013709D03*
X007274Y013719D03*
X007504Y013629D03*
X007794Y013629D03*
X007674Y013349D03*
X007684Y014019D03*
X008074Y012739D03*
X008534Y012309D03*
X008534Y012059D03*
D28*
X007629Y011699D03*
X007629Y011689D03*
X007119Y012609D03*
X007119Y012619D03*
X007209Y013029D03*
X007469Y013019D03*
X006939Y013069D03*
X006939Y013079D03*
X007259Y013619D03*
X007259Y013629D03*
X007499Y013679D03*
X007499Y013689D03*
X007499Y013919D03*
X007499Y013929D03*
X007499Y013939D03*
X007799Y013939D03*
X007799Y013929D03*
X007799Y013689D03*
X007799Y013679D03*
X008239Y013289D03*
X009259Y011259D03*
X010039Y009729D03*
X010039Y009489D03*
X009529Y009629D03*
X009529Y009639D03*
X009269Y009639D03*
X009269Y009499D03*
X009039Y009559D03*
X009039Y009569D03*
X009039Y009579D03*
X009039Y009589D03*
X008649Y009629D03*
X008399Y009509D03*
X008399Y009499D03*
X007979Y009599D03*
X007979Y009609D03*
X007979Y009719D03*
X007179Y009629D03*
X006559Y009639D03*
X006559Y009499D03*
X005609Y009629D03*
X005439Y010169D03*
X005909Y010279D03*
X006249Y010419D03*
D29*
X006334Y010389D03*
X006564Y009649D03*
X006564Y009489D03*
X005374Y009649D03*
X007634Y010559D03*
X007944Y010219D03*
X007944Y010209D03*
X007944Y010199D03*
X007944Y010189D03*
X007944Y010179D03*
X007944Y010049D03*
X007944Y010039D03*
X007944Y010029D03*
X007944Y010019D03*
X007944Y010009D03*
X007944Y009999D03*
X007984Y009729D03*
X008244Y010019D03*
X008244Y010029D03*
X008244Y010039D03*
X008244Y010049D03*
X008244Y010179D03*
X008244Y010189D03*
X008244Y010199D03*
X008244Y010209D03*
X008534Y010209D03*
X008534Y010219D03*
X008534Y010199D03*
X008534Y010189D03*
X008534Y010179D03*
X008534Y010049D03*
X008534Y010039D03*
X008534Y010029D03*
X008534Y010019D03*
X008534Y010009D03*
X008824Y010029D03*
X008824Y010039D03*
X008824Y010049D03*
X008824Y010179D03*
X008824Y010189D03*
X008824Y010199D03*
X009124Y010199D03*
X009124Y010209D03*
X009124Y010219D03*
X009124Y010189D03*
X009124Y010179D03*
X009124Y010049D03*
X009124Y010039D03*
X009124Y010029D03*
X009124Y010019D03*
X009124Y010009D03*
X009124Y009999D03*
X009264Y009649D03*
X009264Y009489D03*
X009764Y009499D03*
X010044Y009739D03*
X008394Y009489D03*
X009254Y011269D03*
X007634Y011639D03*
X007634Y011649D03*
X007634Y011659D03*
X007634Y011669D03*
X007634Y011679D03*
X007634Y012429D03*
X007144Y012659D03*
X007114Y012599D03*
X007204Y013019D03*
X007014Y013209D03*
X007004Y013199D03*
X006944Y013089D03*
X007504Y013669D03*
X007794Y013669D03*
X007794Y013949D03*
X007504Y013949D03*
X008084Y012779D03*
X006034Y011509D03*
D30*
X007629Y011779D03*
X007629Y011789D03*
X007629Y011799D03*
X007629Y012409D03*
X008089Y012799D03*
X007439Y013259D03*
X007259Y013159D03*
X007249Y013149D03*
X007229Y013129D03*
X007219Y013119D03*
X007039Y013229D03*
X006929Y013039D03*
X006929Y013029D03*
X007259Y013609D03*
X007649Y014239D03*
X008599Y011909D03*
X008609Y011899D03*
X009039Y011879D03*
X009049Y011869D03*
X006359Y010379D03*
X010029Y009719D03*
X010029Y009499D03*
D31*
X010024Y009509D03*
X010024Y009709D03*
X009424Y010409D03*
X007634Y010579D03*
X007634Y010799D03*
X006944Y010369D03*
X006424Y010319D03*
X006424Y010309D03*
X006424Y010299D03*
X006424Y010289D03*
X006424Y010279D03*
X005914Y010259D03*
X007634Y011809D03*
X007634Y011819D03*
X007634Y011829D03*
X007634Y011839D03*
X007634Y012399D03*
X007234Y013139D03*
X006924Y013019D03*
X008614Y011889D03*
X008624Y011879D03*
X009014Y011909D03*
X009024Y011899D03*
X009034Y011889D03*
D32*
X009054Y011859D03*
X009064Y011849D03*
X008984Y011509D03*
X007634Y011709D03*
X007634Y011719D03*
X007634Y011729D03*
X007634Y011739D03*
X007634Y011749D03*
X007634Y011759D03*
X007634Y011769D03*
X007634Y012419D03*
X007134Y012649D03*
X007124Y012639D03*
X007124Y012629D03*
X006934Y013049D03*
X006934Y013059D03*
X007024Y013219D03*
X007214Y013109D03*
X008084Y012789D03*
X007794Y013699D03*
X007794Y013709D03*
X007794Y013719D03*
X007794Y013729D03*
X007794Y013879D03*
X007794Y013889D03*
X007794Y013899D03*
X007794Y013909D03*
X007794Y013919D03*
X007504Y013909D03*
X007504Y013899D03*
X007504Y013889D03*
X007504Y013879D03*
X007504Y013729D03*
X007504Y013719D03*
X007504Y013709D03*
X007504Y013699D03*
X006314Y011509D03*
X007634Y010809D03*
X007634Y010569D03*
X007974Y009709D03*
X009274Y009629D03*
X009274Y009509D03*
X006554Y009509D03*
X006554Y009629D03*
X006314Y009589D03*
X006314Y009579D03*
X006314Y009569D03*
X006314Y009559D03*
X005914Y010269D03*
X006264Y010409D03*
D33*
X006229Y010289D03*
X006229Y010279D03*
X006229Y010269D03*
X006229Y010259D03*
X006229Y010249D03*
X006229Y010239D03*
X006229Y010229D03*
X006109Y010239D03*
X006109Y010249D03*
X006109Y010259D03*
X006109Y010269D03*
X006109Y010279D03*
X005719Y010279D03*
X005719Y010269D03*
X005719Y010259D03*
X005719Y010249D03*
X005589Y010249D03*
X005589Y010259D03*
X005589Y010269D03*
X005589Y010279D03*
X005589Y010239D03*
X005559Y010389D03*
X005579Y010479D03*
X005669Y010529D03*
X005669Y010539D03*
X005669Y010579D03*
X005579Y010629D03*
X005489Y010579D03*
X005489Y010539D03*
X005489Y010529D03*
X005449Y010629D03*
X005669Y010819D03*
X005669Y010829D03*
X005669Y010869D03*
X005669Y010879D03*
X005779Y010889D03*
X005789Y010869D03*
X005789Y010859D03*
X005789Y010849D03*
X005789Y010839D03*
X005789Y010829D03*
X005959Y010829D03*
X005959Y010839D03*
X005959Y010849D03*
X005959Y010859D03*
X005959Y010869D03*
X006079Y010869D03*
X006079Y010879D03*
X006079Y010829D03*
X006079Y010819D03*
X006169Y010779D03*
X006179Y010809D03*
X006179Y010819D03*
X006179Y010829D03*
X006159Y010639D03*
X006169Y010629D03*
X006179Y010589D03*
X006179Y010579D03*
X006179Y010569D03*
X006079Y010579D03*
X006079Y010589D03*
X006079Y010529D03*
X005969Y010519D03*
X005959Y010539D03*
X005959Y010549D03*
X005959Y010559D03*
X005959Y010569D03*
X005959Y010579D03*
X005879Y010629D03*
X005789Y010579D03*
X005789Y010569D03*
X005789Y010559D03*
X005789Y010549D03*
X005789Y010539D03*
X005789Y010529D03*
X005869Y010479D03*
X005889Y010999D03*
X005819Y011269D03*
X005939Y011279D03*
X005939Y011289D03*
X005939Y011299D03*
X005939Y011309D03*
X005909Y011429D03*
X006109Y011319D03*
X006109Y011309D03*
X006109Y011299D03*
X006109Y011289D03*
X006109Y011279D03*
X006109Y011269D03*
X006229Y011269D03*
X006229Y011279D03*
X006229Y011289D03*
X006229Y011299D03*
X006229Y011309D03*
X006229Y011319D03*
X006399Y011309D03*
X006399Y011299D03*
X006399Y011289D03*
X006399Y011279D03*
X006399Y011229D03*
X006629Y010369D03*
X006629Y010359D03*
X006629Y010349D03*
X006629Y010319D03*
X006629Y010309D03*
X006749Y010309D03*
X006749Y010319D03*
X006749Y010329D03*
X006749Y010339D03*
X006749Y010349D03*
X006749Y010359D03*
X007149Y010359D03*
X007149Y010369D03*
X007149Y010309D03*
X007269Y010319D03*
X007269Y010329D03*
X007269Y010339D03*
X007269Y010349D03*
X007259Y010369D03*
X007869Y010129D03*
X007869Y010119D03*
X007869Y010109D03*
X007869Y010099D03*
X007869Y010089D03*
X008019Y010089D03*
X008019Y010099D03*
X008019Y010109D03*
X008019Y010119D03*
X008019Y010129D03*
X008019Y010139D03*
X008169Y010139D03*
X008169Y010129D03*
X008169Y010119D03*
X008169Y010109D03*
X008169Y010099D03*
X008169Y010089D03*
X008169Y010079D03*
X008319Y010099D03*
X008319Y010109D03*
X008319Y010119D03*
X008319Y010129D03*
X008459Y010129D03*
X008459Y010119D03*
X008459Y010109D03*
X008459Y010099D03*
X008459Y010089D03*
X008609Y010089D03*
X008609Y010099D03*
X008609Y010109D03*
X008609Y010119D03*
X008609Y010129D03*
X008609Y010139D03*
X008749Y010119D03*
X008749Y010109D03*
X008749Y010099D03*
X008899Y010089D03*
X008899Y010079D03*
X008899Y010129D03*
X008899Y010139D03*
X009049Y010129D03*
X009049Y010119D03*
X009049Y010109D03*
X009049Y010099D03*
X009049Y010089D03*
X009199Y010089D03*
X009199Y010099D03*
X009199Y010109D03*
X009199Y010119D03*
X009199Y010129D03*
X009199Y010139D03*
X008979Y010289D03*
X009009Y010439D03*
X009149Y010679D03*
X009149Y010689D03*
X009149Y010699D03*
X009259Y010719D03*
X009359Y010759D03*
X009359Y010769D03*
X009359Y010779D03*
X009359Y010789D03*
X009359Y010799D03*
X009479Y010799D03*
X009479Y010809D03*
X009479Y010789D03*
X009479Y010759D03*
X009479Y010749D03*
X009259Y010609D03*
X009079Y010929D03*
X009069Y010939D03*
X009059Y011279D03*
X009059Y011289D03*
X009059Y011299D03*
X009059Y011309D03*
X008889Y011309D03*
X008889Y011319D03*
X008889Y011299D03*
X008889Y011279D03*
X008889Y011269D03*
X008889Y011259D03*
X008889Y011249D03*
X008749Y011499D03*
X009369Y011459D03*
X009379Y011449D03*
X008889Y012159D03*
X008889Y012169D03*
X008889Y012189D03*
X008889Y012199D03*
X008889Y012209D03*
X008769Y012209D03*
X008769Y012199D03*
X008769Y012189D03*
X008769Y012179D03*
X008769Y012169D03*
X008769Y012159D03*
X008599Y012159D03*
X008599Y012169D03*
X008599Y012179D03*
X008599Y012189D03*
X008599Y012199D03*
X008469Y012189D03*
X008469Y012179D03*
X008469Y012169D03*
X008389Y012329D03*
X008299Y012279D03*
X008299Y012269D03*
X008289Y012299D03*
X008279Y012309D03*
X008269Y012319D03*
X008259Y012339D03*
X008259Y012349D03*
X008139Y012559D03*
X008619Y012559D03*
X008619Y012569D03*
X008619Y012549D03*
X008619Y012539D03*
X008619Y012529D03*
X008739Y012519D03*
X008749Y012539D03*
X008799Y012449D03*
X008679Y012329D03*
X008599Y012799D03*
X008489Y012989D03*
X008249Y013399D03*
X008249Y013409D03*
X008149Y013409D03*
X008149Y013419D03*
X008149Y013459D03*
X008149Y013469D03*
X008139Y013479D03*
X008029Y013459D03*
X008029Y013449D03*
X008029Y013439D03*
X008029Y013429D03*
X008029Y013419D03*
X007919Y013389D03*
X007859Y013419D03*
X007859Y013429D03*
X007859Y013439D03*
X007859Y013449D03*
X007859Y013459D03*
X007739Y013459D03*
X007739Y013469D03*
X007739Y013419D03*
X007739Y013409D03*
X007679Y013389D03*
X007559Y013409D03*
X007559Y013419D03*
X007559Y013459D03*
X007559Y013469D03*
X007649Y013509D03*
X007439Y013459D03*
X007439Y013449D03*
X007439Y013439D03*
X007439Y013429D03*
X007439Y013419D03*
X007449Y013399D03*
X007269Y013419D03*
X007269Y013429D03*
X007269Y013439D03*
X007269Y013449D03*
X007269Y013459D03*
X007119Y013519D03*
X007109Y013509D03*
X007319Y013869D03*
X007419Y013829D03*
X007419Y013819D03*
X007419Y013809D03*
X007419Y013799D03*
X007419Y013789D03*
X007599Y014119D03*
X007649Y014279D03*
X007909Y013989D03*
X007879Y013829D03*
X007879Y013819D03*
X007879Y013809D03*
X007879Y013799D03*
X007879Y013789D03*
X008009Y013789D03*
X008009Y013799D03*
X008009Y013809D03*
X008009Y013819D03*
X006699Y012799D03*
X006629Y012669D03*
X006819Y012509D03*
X006819Y012499D03*
X006819Y012459D03*
X006819Y012449D03*
X006709Y012439D03*
X006699Y012459D03*
X006699Y012469D03*
X006699Y012479D03*
X006699Y012489D03*
X006699Y012499D03*
X006529Y012499D03*
X006529Y012489D03*
X006529Y012479D03*
X006529Y012469D03*
X006529Y012459D03*
X006519Y012439D03*
X006529Y012199D03*
X006529Y012189D03*
X006529Y012179D03*
X006529Y012169D03*
X006529Y012159D03*
X006399Y012169D03*
X006399Y012179D03*
X006399Y012189D03*
X006699Y012189D03*
X006699Y012199D03*
X006699Y012179D03*
X006699Y012169D03*
X006699Y012159D03*
X006819Y012159D03*
X006819Y012149D03*
X006819Y012199D03*
X006819Y012209D03*
X006909Y012329D03*
X006929Y012419D03*
X007039Y012339D03*
X007029Y012319D03*
X006999Y012269D03*
X006999Y012259D03*
X007629Y011119D03*
X008089Y010289D03*
X008389Y010289D03*
X008679Y010289D03*
X008679Y009929D03*
X008389Y009929D03*
X008089Y009929D03*
X008979Y009929D03*
X008979Y009509D03*
X006069Y009629D03*
X005169Y010019D03*
D34*
X005164Y010029D03*
X005384Y010519D03*
X005384Y010529D03*
X005494Y010549D03*
X005494Y010559D03*
X005494Y010569D03*
X005664Y010569D03*
X005664Y010559D03*
X005664Y010549D03*
X006084Y010549D03*
X006084Y010559D03*
X006084Y010569D03*
X006084Y010539D03*
X006174Y010599D03*
X006174Y010609D03*
X006174Y010619D03*
X006174Y010789D03*
X006174Y010799D03*
X006084Y010839D03*
X006084Y010849D03*
X006084Y010859D03*
X005874Y010779D03*
X005664Y010839D03*
X005664Y010849D03*
X005664Y010859D03*
X006394Y011209D03*
X006394Y011219D03*
X006024Y011439D03*
X006814Y011939D03*
X006824Y012169D03*
X006824Y012179D03*
X006824Y012189D03*
X006994Y012249D03*
X007034Y012329D03*
X006824Y012469D03*
X006824Y012479D03*
X006824Y012489D03*
X006924Y012529D03*
X006624Y012679D03*
X006534Y012509D03*
X006594Y012069D03*
X008064Y012679D03*
X008134Y012549D03*
X008404Y012409D03*
X008264Y012329D03*
X008304Y012259D03*
X008684Y011919D03*
X008894Y012179D03*
X008804Y012459D03*
X008744Y012549D03*
X008744Y012559D03*
X008734Y012569D03*
X008734Y012579D03*
X008724Y012589D03*
X008244Y013419D03*
X008244Y013429D03*
X008154Y013429D03*
X008154Y013439D03*
X008154Y013449D03*
X007944Y013509D03*
X007944Y013609D03*
X007734Y013449D03*
X007734Y013439D03*
X007734Y013429D03*
X007564Y013429D03*
X007564Y013439D03*
X007564Y013449D03*
X007104Y013499D03*
X007094Y013489D03*
X007324Y013879D03*
X007324Y013889D03*
X007424Y014059D03*
X007674Y013979D03*
X007914Y013979D03*
X008004Y013839D03*
X008004Y013829D03*
X009384Y011439D03*
X009394Y011429D03*
X009404Y011419D03*
X008894Y011289D03*
X008894Y011239D03*
X008894Y011229D03*
X009044Y010969D03*
X009054Y010959D03*
X009064Y010949D03*
X009484Y010779D03*
X009484Y010769D03*
X009014Y010449D03*
X008904Y010119D03*
X008904Y010109D03*
X008904Y010099D03*
X008144Y009629D03*
X007144Y010319D03*
X007144Y010329D03*
X007144Y010339D03*
X007144Y010349D03*
X006624Y010339D03*
X006624Y010329D03*
X005964Y009539D03*
D35*
X005909Y009919D03*
X005909Y010009D03*
X005909Y010159D03*
X005409Y009899D03*
X005309Y009639D03*
X005309Y009629D03*
X006949Y009989D03*
X006949Y009999D03*
X007629Y010659D03*
X007629Y010669D03*
X007629Y010679D03*
X007629Y010689D03*
X007629Y010699D03*
X007629Y010709D03*
X007629Y012149D03*
X007629Y012159D03*
X007629Y012169D03*
X007629Y012179D03*
X007629Y012189D03*
X007629Y012199D03*
X007629Y012209D03*
X007629Y012219D03*
X007629Y012229D03*
X007629Y012239D03*
X007629Y012249D03*
X008099Y012859D03*
X006929Y012949D03*
X009799Y010479D03*
X009799Y010469D03*
D36*
X009584Y009879D03*
X008004Y013179D03*
D37*
X007054Y009879D03*
D38*
X006944Y009959D03*
X006944Y010119D03*
X006944Y010189D03*
X006454Y010149D03*
X006444Y010139D03*
X006434Y010129D03*
X006424Y010119D03*
X006414Y010109D03*
X006444Y010029D03*
X006454Y010019D03*
X006394Y009999D03*
X006404Y009979D03*
X005914Y009879D03*
X005914Y010119D03*
X005394Y010119D03*
X006944Y012909D03*
X007804Y013329D03*
X008104Y012899D03*
X009814Y010399D03*
D39*
X009694Y010709D03*
X009424Y010539D03*
X009324Y010929D03*
X007634Y010779D03*
X007634Y010599D03*
X006444Y010239D03*
X006404Y010359D03*
X005454Y009879D03*
X007634Y011939D03*
X007634Y011949D03*
X007634Y011959D03*
X007634Y011969D03*
X007634Y011979D03*
X007634Y012369D03*
X008094Y012829D03*
X007414Y013219D03*
X007114Y013309D03*
X007114Y013319D03*
X007074Y013239D03*
X006924Y012989D03*
X006924Y012979D03*
X007254Y013549D03*
X007254Y013559D03*
D40*
X008004Y013169D03*
X008004Y013159D03*
X009634Y010329D03*
X009654Y010299D03*
X009664Y010279D03*
X009614Y009889D03*
D41*
X007049Y009889D03*
D42*
X006944Y009969D03*
X006944Y010109D03*
X006944Y010199D03*
X006464Y010169D03*
X005914Y009889D03*
X005394Y010129D03*
X006934Y012919D03*
X008104Y012889D03*
D43*
X008099Y012849D03*
X007399Y013189D03*
X007389Y013179D03*
X007379Y013169D03*
X007099Y013269D03*
X006929Y012959D03*
X007629Y012319D03*
X007629Y012059D03*
X007629Y012049D03*
X009239Y011039D03*
X009309Y010959D03*
X009319Y010949D03*
X009689Y010689D03*
X009739Y010589D03*
X009749Y010579D03*
X009759Y010569D03*
X009769Y010549D03*
X009779Y010529D03*
X009789Y010519D03*
X009789Y010509D03*
X007629Y010629D03*
X007629Y010749D03*
X006459Y010209D03*
X005909Y010169D03*
X005429Y009889D03*
X007759Y014029D03*
X007749Y014039D03*
X007649Y014199D03*
D44*
X008004Y013149D03*
X009694Y010219D03*
X009694Y010209D03*
X009634Y009899D03*
D45*
X007049Y009899D03*
D46*
X006944Y009979D03*
X006944Y010099D03*
X006944Y010209D03*
X006464Y010179D03*
X005914Y009899D03*
X005394Y010029D03*
X005394Y010139D03*
X006934Y012929D03*
X009694Y010639D03*
D47*
X009704Y010189D03*
X009704Y010179D03*
X009704Y010169D03*
X009664Y009919D03*
X009654Y009909D03*
D48*
X007049Y009909D03*
D49*
X006949Y010219D03*
X005909Y010149D03*
X005909Y010019D03*
X005909Y009909D03*
X009689Y010649D03*
X009699Y010629D03*
X009709Y010619D03*
X009809Y010449D03*
X009809Y010439D03*
X008099Y012869D03*
X006929Y012939D03*
D50*
X007724Y014059D03*
X009684Y010669D03*
X009684Y010659D03*
X009804Y010459D03*
X006944Y010229D03*
X006944Y010089D03*
X006464Y010189D03*
X005394Y010149D03*
X005394Y010019D03*
X005394Y009909D03*
D51*
X007049Y009919D03*
D52*
X006944Y010079D03*
X006464Y010199D03*
X007634Y010639D03*
X007634Y010649D03*
X007634Y010719D03*
X007634Y010729D03*
X007634Y010739D03*
X009244Y011029D03*
X009254Y011019D03*
X009264Y011009D03*
X009274Y010999D03*
X009284Y010989D03*
X009294Y010979D03*
X009304Y010969D03*
X009684Y010679D03*
X009724Y010609D03*
X009734Y010599D03*
X009794Y010499D03*
X009794Y010489D03*
X007634Y012069D03*
X007634Y012079D03*
X007634Y012089D03*
X007634Y012099D03*
X007634Y012109D03*
X007634Y012119D03*
X007634Y012129D03*
X007634Y012139D03*
X007634Y012259D03*
X007634Y012269D03*
X007634Y012279D03*
X007634Y012289D03*
X007634Y012299D03*
X007634Y012309D03*
X007744Y014049D03*
X005394Y010009D03*
X005394Y009919D03*
D53*
X009679Y009929D03*
X009689Y009939D03*
X009709Y010139D03*
X009709Y010149D03*
X009709Y010159D03*
X007999Y013129D03*
D54*
X007914Y013069D03*
X007914Y013059D03*
X007274Y009929D03*
D55*
X007524Y010129D03*
X007524Y010179D03*
X006464Y009929D03*
X007064Y012809D03*
D56*
X007069Y012759D03*
X008909Y011579D03*
X008919Y011569D03*
X008939Y011529D03*
X007579Y010279D03*
X005909Y009999D03*
X005909Y009929D03*
X005399Y009999D03*
X007649Y014079D03*
D57*
X007824Y013289D03*
X008104Y012919D03*
X006954Y012899D03*
X009804Y010369D03*
X006944Y010169D03*
X006944Y010159D03*
X006944Y010149D03*
X006944Y010139D03*
X006944Y010049D03*
X006944Y010039D03*
X006944Y010029D03*
X006434Y010059D03*
X006424Y009939D03*
X005914Y009949D03*
X005914Y009959D03*
X005914Y009969D03*
X005914Y009979D03*
X005914Y010069D03*
X005914Y010099D03*
X005404Y009929D03*
X005394Y009949D03*
X005394Y009959D03*
X005394Y009969D03*
X005394Y009979D03*
X005394Y010069D03*
X005394Y010079D03*
X005394Y010089D03*
X005394Y010099D03*
D58*
X007514Y010069D03*
X007514Y010009D03*
X007534Y009939D03*
X007064Y012819D03*
D59*
X007819Y013299D03*
X007649Y014109D03*
X006459Y011979D03*
X005909Y010059D03*
X005389Y010059D03*
X006419Y009949D03*
X006949Y009939D03*
X009809Y010379D03*
D60*
X008939Y011519D03*
X008889Y011609D03*
X008879Y011619D03*
X008869Y011629D03*
X007069Y012739D03*
X007649Y014099D03*
X006949Y010059D03*
X006949Y010019D03*
X006429Y010069D03*
X005909Y010079D03*
X005909Y010089D03*
X005909Y009989D03*
X005909Y009939D03*
X005399Y009939D03*
D61*
X009694Y009949D03*
X009704Y009959D03*
X009704Y009969D03*
X009714Y009979D03*
X009714Y009989D03*
X009714Y010119D03*
X009714Y010129D03*
D62*
X007539Y009949D03*
X007519Y010019D03*
X007519Y010029D03*
X007519Y010039D03*
X007519Y010049D03*
X007519Y010059D03*
X007519Y010139D03*
X007519Y010149D03*
X007519Y010159D03*
X007519Y010169D03*
X006449Y011929D03*
X008099Y012969D03*
D63*
X007809Y013319D03*
X006469Y011999D03*
X006439Y010039D03*
X006409Y009969D03*
X005909Y010049D03*
X005399Y010049D03*
X006949Y009949D03*
X009809Y010389D03*
D64*
X007529Y010199D03*
X007529Y010189D03*
X007529Y010119D03*
X007539Y009969D03*
X007539Y009959D03*
X006449Y011939D03*
X007069Y012799D03*
D65*
X007814Y013309D03*
X008104Y012909D03*
X006464Y011989D03*
X008944Y011769D03*
X008954Y011759D03*
X008964Y011749D03*
X008974Y011739D03*
X008984Y011729D03*
X008994Y011719D03*
X009004Y011709D03*
X006944Y010179D03*
X006944Y010129D03*
X006434Y010049D03*
X006414Y009959D03*
X005914Y010109D03*
X005394Y010109D03*
D66*
X007534Y010109D03*
X007534Y010209D03*
X007544Y009979D03*
X006444Y011949D03*
X008104Y012959D03*
D67*
X008104Y012949D03*
X006444Y011959D03*
X007594Y010369D03*
X007594Y010359D03*
X007594Y010349D03*
X007594Y010339D03*
X007594Y010329D03*
X007594Y010319D03*
X007594Y010309D03*
X007554Y010239D03*
X007544Y010229D03*
X007544Y010089D03*
X007544Y010079D03*
X007544Y009999D03*
X007544Y009989D03*
D68*
X006459Y010009D03*
X006399Y009989D03*
X006399Y010079D03*
X006399Y010089D03*
X006409Y010099D03*
X006459Y010159D03*
X005909Y010129D03*
X005909Y010039D03*
X005399Y010039D03*
X009809Y010409D03*
D69*
X009804Y010359D03*
X008904Y011589D03*
X008894Y011599D03*
X007074Y012749D03*
X008104Y012929D03*
X006454Y011969D03*
X006944Y010069D03*
X006944Y010009D03*
X005394Y009989D03*
X007654Y014089D03*
D70*
X007999Y013119D03*
X009719Y010109D03*
X009719Y010099D03*
X009719Y010089D03*
X009719Y010079D03*
X009719Y010069D03*
X009719Y010059D03*
X009719Y010049D03*
X009719Y010039D03*
X009719Y010029D03*
X009719Y010019D03*
X009719Y010009D03*
X009719Y009999D03*
D71*
X009809Y010419D03*
X009809Y010429D03*
X008099Y012879D03*
X007709Y014069D03*
X005909Y010139D03*
X005909Y010029D03*
D72*
X007539Y010099D03*
X007539Y010219D03*
X009789Y010339D03*
X007069Y012789D03*
D73*
X007489Y013029D03*
X007429Y013249D03*
X007259Y013599D03*
X007649Y014229D03*
X008089Y012809D03*
X007629Y011869D03*
X007629Y011859D03*
X007629Y011849D03*
X008629Y011869D03*
X008639Y011859D03*
X008649Y011849D03*
X009419Y010549D03*
X006949Y010359D03*
X006949Y010349D03*
X006949Y010339D03*
X006949Y010329D03*
X006949Y010319D03*
X006949Y010309D03*
X006949Y010299D03*
X006949Y010289D03*
X006949Y010279D03*
X006949Y010269D03*
X006429Y010269D03*
X006419Y010329D03*
X005909Y010249D03*
X005909Y010239D03*
X005909Y010229D03*
X005909Y010219D03*
X005909Y010209D03*
X005909Y010199D03*
X005429Y010159D03*
D74*
X005909Y010179D03*
X006399Y010369D03*
X006449Y010229D03*
X006949Y010249D03*
X007629Y010769D03*
X009229Y011059D03*
X009689Y010699D03*
X009419Y010429D03*
X007629Y011989D03*
X007629Y011999D03*
X007629Y012359D03*
X007409Y013209D03*
X007649Y014209D03*
D75*
X007264Y013589D03*
X007114Y013329D03*
X007424Y013239D03*
X006924Y013009D03*
X006924Y012999D03*
X007634Y012389D03*
X008094Y012819D03*
X007634Y011929D03*
X007634Y011919D03*
X007634Y011909D03*
X007634Y011899D03*
X007634Y011889D03*
X007634Y011879D03*
X007634Y010789D03*
X007634Y010589D03*
X006434Y010259D03*
X006414Y010339D03*
X005914Y010189D03*
X009684Y010729D03*
X009684Y010739D03*
D76*
X009699Y010199D03*
X007999Y013139D03*
D77*
X008094Y012839D03*
X007634Y012349D03*
X007634Y012339D03*
X007634Y012329D03*
X007634Y012039D03*
X007634Y012029D03*
X007634Y012019D03*
X007634Y012009D03*
X006924Y012969D03*
X007084Y013249D03*
X007094Y013259D03*
X007104Y013279D03*
X007114Y013289D03*
X007114Y013299D03*
X007404Y013199D03*
X009234Y011049D03*
X009324Y010939D03*
X009764Y010559D03*
X009774Y010539D03*
X007634Y010609D03*
X007634Y010619D03*
X007634Y010759D03*
X006944Y010239D03*
X006454Y010219D03*
D78*
X009639Y010319D03*
X009649Y010309D03*
X009659Y010289D03*
X009669Y010269D03*
X009679Y010259D03*
X009679Y010249D03*
X009689Y010239D03*
X009689Y010229D03*
D79*
X007589Y010299D03*
X007559Y010249D03*
X007069Y012769D03*
X007069Y012779D03*
D80*
X007629Y012379D03*
X007419Y013229D03*
X007259Y013569D03*
X007259Y013579D03*
X007649Y014219D03*
X009229Y011069D03*
X009689Y010719D03*
X009419Y010419D03*
X006949Y010259D03*
X006439Y010249D03*
X006409Y010349D03*
D81*
X007564Y010259D03*
X007574Y010269D03*
X007584Y010289D03*
X008934Y011539D03*
X008934Y011549D03*
X008924Y011559D03*
X009794Y010349D03*
X008104Y012939D03*
D82*
X008084Y013009D03*
X007054Y012879D03*
X006454Y011849D03*
X006444Y011829D03*
X006414Y011779D03*
X006404Y011759D03*
X006374Y011709D03*
X006364Y011689D03*
X006344Y011659D03*
X006334Y011639D03*
X006324Y011619D03*
X006304Y011589D03*
X006294Y011569D03*
X006264Y011519D03*
D83*
X006269Y011529D03*
X006279Y011539D03*
X006279Y011549D03*
X006289Y011559D03*
X006299Y011579D03*
X006309Y011599D03*
X006319Y011609D03*
X006329Y011629D03*
X006339Y011649D03*
X006349Y011669D03*
X006359Y011679D03*
X006369Y011699D03*
X006379Y011719D03*
X006389Y011729D03*
X006389Y011739D03*
X006399Y011749D03*
X006409Y011769D03*
X006419Y011789D03*
X006429Y011799D03*
X006429Y011809D03*
X006439Y011819D03*
X006449Y011839D03*
X006459Y011859D03*
D84*
X006464Y011869D03*
X007054Y012869D03*
D85*
X007059Y012859D03*
X008089Y012999D03*
X006459Y011879D03*
D86*
X006459Y011889D03*
X007059Y012849D03*
D87*
X008094Y012989D03*
X006454Y011899D03*
D88*
X006454Y011909D03*
X007064Y012829D03*
D89*
X008099Y012979D03*
X006449Y011919D03*
D90*
X007059Y012839D03*
D91*
X007059Y012889D03*
D92*
X008074Y013019D03*
D93*
X008064Y013029D03*
X007974Y013279D03*
D94*
X007904Y013039D03*
D95*
X007909Y013049D03*
X007919Y013079D03*
D96*
X007919Y013089D03*
D97*
X007984Y013099D03*
D98*
X007989Y013109D03*
D99*
X007999Y013189D03*
X007999Y013199D03*
D100*
X007994Y013209D03*
X007994Y013219D03*
D101*
X007989Y013229D03*
X007989Y013239D03*
D102*
X007984Y013249D03*
D103*
X007979Y013259D03*
X007979Y013269D03*
M02*
