G75*
G70*
%OFA0B0*%
%FSLAX24Y24*%
%IPPOS*%
%LPD*%
%AMOC8*
5,1,8,0,0,1.08239X$1,22.5*
%
%ADD10OC8,0.0480*%
%ADD11OC8,0.0600*%
%ADD12R,0.0300X0.0650*%
%ADD13R,0.0591X0.0512*%
%ADD14C,0.0120*%
%ADD15C,0.0310*%
%ADD16C,0.0160*%
D10*
X013482Y008793D03*
X014482Y008793D03*
X015482Y008793D03*
X016482Y008793D03*
X017482Y008793D03*
X018482Y008793D03*
X019482Y008793D03*
X020482Y008793D03*
X021482Y008793D03*
X022482Y008793D03*
X023482Y008793D03*
X024482Y008793D03*
X025482Y008793D03*
X026482Y008793D03*
X027482Y008793D03*
X028482Y008793D03*
D11*
X028132Y006343D03*
X027132Y006343D03*
X026132Y006343D03*
X025132Y006343D03*
X024132Y006343D03*
X024132Y005343D03*
X025132Y005343D03*
X026132Y005343D03*
X027132Y005343D03*
X028132Y005343D03*
X010782Y004993D03*
X009782Y004993D03*
X008782Y004993D03*
X007782Y004993D03*
X006782Y004993D03*
D12*
X003582Y009443D03*
X002082Y009443D03*
X002082Y011443D03*
X003582Y011443D03*
D13*
X004432Y010817D03*
X004432Y010069D03*
D14*
X002789Y004403D02*
X000392Y004403D01*
X000392Y012083D01*
X005461Y012083D01*
X004941Y011563D01*
X004812Y011434D01*
X004812Y011186D01*
X004785Y011213D01*
X004079Y011213D01*
X003997Y011131D01*
X003997Y011017D01*
X003829Y011017D01*
X003872Y011060D01*
X003872Y011826D01*
X003790Y011908D01*
X003374Y011908D01*
X003292Y011826D01*
X003292Y011060D01*
X003374Y010978D01*
X003382Y010978D01*
X003382Y010926D01*
X003382Y010760D01*
X003382Y009908D01*
X003374Y009908D01*
X003292Y009826D01*
X003292Y009643D01*
X003049Y009643D01*
X002932Y009526D01*
X001832Y008426D01*
X001832Y008260D01*
X001832Y005360D01*
X001949Y005243D01*
X002789Y004403D01*
X002712Y004480D02*
X000392Y004480D01*
X000392Y004599D02*
X002593Y004599D01*
X002475Y004717D02*
X000392Y004717D01*
X000392Y004836D02*
X002356Y004836D01*
X002238Y004954D02*
X000392Y004954D01*
X000392Y005073D02*
X002119Y005073D01*
X002001Y005191D02*
X000392Y005191D01*
X000392Y005310D02*
X001882Y005310D01*
X001832Y005429D02*
X000392Y005429D01*
X000392Y005547D02*
X001832Y005547D01*
X001832Y005666D02*
X000392Y005666D01*
X000392Y005784D02*
X001832Y005784D01*
X001832Y005903D02*
X000392Y005903D01*
X000392Y006021D02*
X001832Y006021D01*
X001832Y006140D02*
X000392Y006140D01*
X000392Y006258D02*
X001832Y006258D01*
X001832Y006377D02*
X000392Y006377D01*
X000392Y006495D02*
X001832Y006495D01*
X001832Y006614D02*
X000392Y006614D01*
X000392Y006733D02*
X001832Y006733D01*
X001832Y006851D02*
X000392Y006851D01*
X000392Y006970D02*
X001832Y006970D01*
X001832Y007088D02*
X000392Y007088D01*
X000392Y007207D02*
X001832Y007207D01*
X001832Y007325D02*
X000392Y007325D01*
X000392Y007444D02*
X001832Y007444D01*
X001832Y007562D02*
X000392Y007562D01*
X000392Y007681D02*
X001832Y007681D01*
X001832Y007799D02*
X000392Y007799D01*
X000392Y007918D02*
X001832Y007918D01*
X001832Y008037D02*
X000392Y008037D01*
X000392Y008155D02*
X001832Y008155D01*
X001832Y008274D02*
X000392Y008274D01*
X000392Y008392D02*
X001832Y008392D01*
X001917Y008511D02*
X000392Y008511D01*
X000392Y008629D02*
X002035Y008629D01*
X002154Y008748D02*
X000392Y008748D01*
X000392Y008866D02*
X002272Y008866D01*
X002250Y008978D02*
X002286Y008988D01*
X002318Y009006D01*
X002344Y009032D01*
X002362Y009064D01*
X002372Y009100D01*
X002372Y009428D01*
X002097Y009428D01*
X002097Y009458D01*
X002372Y009458D01*
X002372Y009787D01*
X002362Y009822D01*
X002344Y009854D01*
X002318Y009880D01*
X002286Y009899D01*
X002250Y009908D01*
X002097Y009908D01*
X002097Y009458D01*
X002067Y009458D01*
X002067Y009428D01*
X002097Y009428D01*
X002097Y008978D01*
X002250Y008978D01*
X002275Y008985D02*
X002391Y008985D01*
X002372Y009103D02*
X002509Y009103D01*
X002628Y009222D02*
X002372Y009222D01*
X002372Y009341D02*
X002746Y009341D01*
X002865Y009459D02*
X002372Y009459D01*
X002372Y009578D02*
X002983Y009578D01*
X003132Y009443D02*
X003582Y009443D01*
X003582Y010843D01*
X003608Y010817D01*
X004432Y010817D01*
X003997Y010617D02*
X003997Y010503D01*
X004057Y010443D01*
X003997Y010383D01*
X003997Y009755D01*
X004062Y009690D01*
X003982Y009610D01*
X003937Y009502D01*
X003937Y009384D01*
X003982Y009276D01*
X004065Y009193D01*
X004173Y009148D01*
X004290Y009148D01*
X004399Y009193D01*
X004482Y009276D01*
X004527Y009384D01*
X004527Y009455D01*
X004632Y009560D01*
X004632Y009673D01*
X004785Y009673D01*
X004812Y009700D01*
X004812Y007891D01*
X004745Y007863D01*
X004662Y007780D01*
X004617Y007672D01*
X004617Y007554D01*
X004662Y007446D01*
X004745Y007363D01*
X004853Y007318D01*
X004970Y007318D01*
X005079Y007363D01*
X005162Y007446D01*
X005207Y007554D01*
X005207Y007597D01*
X005252Y007642D01*
X005252Y007824D01*
X005252Y011252D01*
X005723Y011723D01*
X027941Y011723D01*
X028762Y010902D01*
X028762Y009050D01*
X028639Y009173D01*
X028324Y009173D01*
X028102Y008951D01*
X028102Y008696D01*
X027549Y008143D01*
X026115Y008143D01*
X026385Y008413D01*
X026639Y008413D01*
X026862Y008636D01*
X026862Y008951D01*
X026639Y009173D01*
X026324Y009173D01*
X026102Y008951D01*
X026102Y008696D01*
X025749Y008343D01*
X024349Y008343D01*
X024232Y008226D01*
X023349Y007343D01*
X023310Y007343D01*
X023327Y007384D01*
X023327Y007502D01*
X023282Y007610D01*
X023199Y007693D01*
X023090Y007738D01*
X022973Y007738D01*
X022865Y007693D01*
X022782Y007610D01*
X022754Y007543D01*
X021815Y007543D01*
X022415Y008143D01*
X024115Y008143D01*
X024232Y008260D01*
X024232Y008260D01*
X024385Y008413D01*
X024639Y008413D01*
X024862Y008636D01*
X024862Y008951D01*
X024639Y009173D01*
X024324Y009173D01*
X024102Y008951D01*
X024102Y008696D01*
X023949Y008543D01*
X023769Y008543D01*
X023862Y008636D01*
X023862Y008951D01*
X023639Y009173D01*
X023324Y009173D01*
X023102Y008951D01*
X023102Y008636D01*
X023194Y008543D01*
X022769Y008543D01*
X022862Y008636D01*
X022862Y008951D01*
X022639Y009173D01*
X022324Y009173D01*
X022102Y008951D01*
X022102Y008696D01*
X021349Y007943D01*
X019915Y007943D01*
X020385Y008413D01*
X020639Y008413D01*
X020862Y008636D01*
X020862Y008951D01*
X020639Y009173D01*
X020324Y009173D01*
X020102Y008951D01*
X020102Y008696D01*
X019549Y008143D01*
X018115Y008143D01*
X018385Y008413D01*
X018639Y008413D01*
X018862Y008636D01*
X018862Y008951D01*
X018639Y009173D01*
X018324Y009173D01*
X018102Y008951D01*
X018102Y008696D01*
X017749Y008343D01*
X016315Y008343D01*
X016385Y008413D01*
X016639Y008413D01*
X016862Y008636D01*
X016862Y008951D01*
X016639Y009173D01*
X016324Y009173D01*
X016102Y008951D01*
X016102Y008696D01*
X015949Y008543D01*
X015769Y008543D01*
X015862Y008636D01*
X015862Y008951D01*
X015639Y009173D01*
X015324Y009173D01*
X015102Y008951D01*
X015102Y008636D01*
X015194Y008543D01*
X014769Y008543D01*
X014862Y008636D01*
X014862Y008951D01*
X014639Y009173D01*
X014324Y009173D01*
X014102Y008951D01*
X014102Y008696D01*
X013849Y008443D01*
X013669Y008443D01*
X013862Y008636D01*
X013862Y008951D01*
X013639Y009173D01*
X013324Y009173D01*
X013102Y008951D01*
X013102Y008636D01*
X013294Y008443D01*
X011249Y008443D01*
X011132Y008326D01*
X011044Y008238D01*
X010973Y008238D01*
X010865Y008193D01*
X010782Y008110D01*
X010737Y008002D01*
X010737Y007971D01*
X010632Y008076D01*
X010632Y008426D01*
X010515Y008543D01*
X010215Y008843D01*
X010049Y008843D01*
X009449Y008843D01*
X009399Y008893D01*
X009290Y008938D01*
X009173Y008938D01*
X009065Y008893D01*
X008982Y008810D01*
X008937Y008702D01*
X008937Y008584D01*
X008954Y008543D01*
X008849Y008543D01*
X008799Y008593D01*
X008690Y008638D01*
X008573Y008638D01*
X008465Y008593D01*
X008382Y008510D01*
X008337Y008402D01*
X008337Y008321D01*
X008227Y008431D01*
X008227Y008502D01*
X008182Y008610D01*
X008099Y008693D01*
X007990Y008738D01*
X007873Y008738D01*
X007765Y008693D01*
X007682Y008610D01*
X007678Y008602D01*
X007590Y008638D01*
X007473Y008638D01*
X007365Y008593D01*
X007282Y008510D01*
X007243Y008416D01*
X007204Y008432D01*
X007715Y008943D01*
X010315Y008943D01*
X010365Y008893D01*
X010473Y008848D01*
X010590Y008848D01*
X010699Y008893D01*
X010782Y008976D01*
X010827Y009084D01*
X010827Y009202D01*
X010782Y009310D01*
X010699Y009393D01*
X010590Y009438D01*
X010473Y009438D01*
X010365Y009393D01*
X010315Y009343D01*
X007715Y009343D01*
X007549Y009343D01*
X006699Y008493D01*
X006582Y008376D01*
X006582Y005415D01*
X006342Y005175D01*
X006342Y004811D01*
X006410Y004743D01*
X003015Y004743D01*
X002232Y005526D01*
X002232Y005650D01*
X002291Y005591D01*
X002415Y005540D01*
X002549Y005540D01*
X002673Y005591D01*
X002768Y005686D01*
X002819Y005810D01*
X002819Y005944D01*
X002768Y006068D01*
X002673Y006163D01*
X002549Y006214D01*
X002415Y006214D01*
X002291Y006163D01*
X002232Y006104D01*
X002232Y007383D01*
X002291Y007323D01*
X002415Y007272D01*
X002549Y007272D01*
X002673Y007323D01*
X002768Y007418D01*
X002819Y007542D01*
X002819Y007676D01*
X002768Y007800D01*
X002673Y007895D01*
X002549Y007946D01*
X002415Y007946D01*
X002291Y007895D01*
X002232Y007836D01*
X002232Y008260D01*
X003215Y009243D01*
X003292Y009243D01*
X003292Y009060D01*
X003374Y008978D01*
X003790Y008978D01*
X003872Y009060D01*
X003872Y009826D01*
X003790Y009908D01*
X003782Y009908D01*
X003782Y010617D01*
X003997Y010617D01*
X003997Y010526D02*
X003782Y010526D01*
X003782Y010407D02*
X004021Y010407D01*
X003997Y010289D02*
X003782Y010289D01*
X003782Y010170D02*
X003997Y010170D01*
X003997Y010052D02*
X003782Y010052D01*
X003782Y009933D02*
X003997Y009933D01*
X003997Y009815D02*
X003872Y009815D01*
X003872Y009696D02*
X004056Y009696D01*
X003968Y009578D02*
X003872Y009578D01*
X003872Y009459D02*
X003937Y009459D01*
X003955Y009341D02*
X003872Y009341D01*
X003872Y009222D02*
X004036Y009222D01*
X003872Y009103D02*
X004812Y009103D01*
X004812Y008985D02*
X003797Y008985D01*
X003367Y008985D02*
X002956Y008985D01*
X002838Y008866D02*
X004812Y008866D01*
X004812Y008748D02*
X002719Y008748D01*
X002601Y008629D02*
X004812Y008629D01*
X004812Y008511D02*
X002482Y008511D01*
X002364Y008392D02*
X004812Y008392D01*
X004812Y008274D02*
X002245Y008274D01*
X002232Y008155D02*
X004812Y008155D01*
X004812Y008037D02*
X002232Y008037D01*
X002232Y007918D02*
X002346Y007918D01*
X002617Y007918D02*
X004812Y007918D01*
X004681Y007799D02*
X002768Y007799D01*
X002817Y007681D02*
X004621Y007681D01*
X004617Y007562D02*
X002819Y007562D01*
X002778Y007444D02*
X004664Y007444D01*
X004836Y007325D02*
X002675Y007325D01*
X002289Y007325D02*
X002232Y007325D01*
X002232Y007207D02*
X006582Y007207D01*
X006582Y007325D02*
X004988Y007325D01*
X005160Y007444D02*
X006582Y007444D01*
X006582Y007562D02*
X005207Y007562D01*
X005252Y007681D02*
X006582Y007681D01*
X006582Y007799D02*
X005252Y007799D01*
X005252Y007918D02*
X006582Y007918D01*
X006582Y008037D02*
X005252Y008037D01*
X005252Y008155D02*
X006582Y008155D01*
X006582Y008274D02*
X005252Y008274D01*
X005252Y008392D02*
X006598Y008392D01*
X006717Y008511D02*
X005252Y008511D01*
X005252Y008629D02*
X006835Y008629D01*
X006954Y008748D02*
X005252Y008748D01*
X005252Y008866D02*
X007072Y008866D01*
X007191Y008985D02*
X005252Y008985D01*
X005252Y009103D02*
X007309Y009103D01*
X007428Y009222D02*
X005252Y009222D01*
X005252Y009341D02*
X007546Y009341D01*
X007632Y009143D02*
X006782Y008293D01*
X006782Y004993D01*
X007087Y005310D02*
X007132Y005310D01*
X007132Y005265D02*
X006982Y005415D01*
X006982Y007886D01*
X007073Y007848D01*
X007144Y007848D01*
X007532Y007460D01*
X007649Y007343D01*
X008449Y007343D01*
X009949Y005843D01*
X009899Y005893D01*
X009790Y005938D01*
X009673Y005938D01*
X009565Y005893D01*
X009482Y005810D01*
X009437Y005702D01*
X009437Y005584D01*
X009482Y005476D01*
X009562Y005396D01*
X009342Y005175D01*
X009342Y004848D01*
X009283Y004848D01*
X009222Y004823D01*
X009222Y004953D01*
X008822Y004953D01*
X008822Y005033D01*
X009222Y005033D01*
X009222Y005175D01*
X008964Y005433D01*
X008822Y005433D01*
X008822Y005033D01*
X008742Y005033D01*
X008742Y005433D01*
X008600Y005433D01*
X008472Y005306D01*
X008077Y005701D01*
X008077Y005772D01*
X008032Y005880D01*
X007949Y005963D01*
X007840Y006008D01*
X007723Y006008D01*
X007615Y005963D01*
X007572Y005920D01*
X007499Y005993D01*
X007390Y006038D01*
X007273Y006038D01*
X007165Y005993D01*
X007082Y005910D01*
X007037Y005802D01*
X007037Y005684D01*
X007082Y005576D01*
X007132Y005526D01*
X007132Y005265D01*
X007132Y005429D02*
X006982Y005429D01*
X006982Y005547D02*
X007111Y005547D01*
X007045Y005666D02*
X006982Y005666D01*
X006982Y005784D02*
X007037Y005784D01*
X007079Y005903D02*
X006982Y005903D01*
X006982Y006021D02*
X007233Y006021D01*
X007431Y006021D02*
X009771Y006021D01*
X009876Y005903D02*
X009889Y005903D01*
X009949Y005843D02*
X009949Y005843D01*
X010132Y005643D02*
X009732Y005643D01*
X009452Y005547D02*
X008231Y005547D01*
X008349Y005429D02*
X008595Y005429D01*
X008742Y005429D02*
X008822Y005429D01*
X008822Y005310D02*
X008742Y005310D01*
X008742Y005191D02*
X008822Y005191D01*
X008822Y005073D02*
X008742Y005073D01*
X008822Y004954D02*
X009342Y004954D01*
X009342Y005073D02*
X009222Y005073D01*
X009206Y005191D02*
X009358Y005191D01*
X009477Y005310D02*
X009087Y005310D01*
X008969Y005429D02*
X009529Y005429D01*
X009437Y005666D02*
X008112Y005666D01*
X008072Y005784D02*
X009471Y005784D01*
X009588Y005903D02*
X008009Y005903D01*
X007782Y005713D02*
X008282Y005213D01*
X008282Y004793D01*
X008532Y004493D01*
X009282Y004493D01*
X009342Y004553D01*
X009254Y004836D02*
X009222Y004836D01*
X009782Y004993D02*
X010232Y004543D01*
X011032Y004543D01*
X011232Y004743D01*
X011232Y004843D01*
X012732Y006343D01*
X014532Y006343D01*
X015132Y006943D01*
X023532Y006943D01*
X024532Y007943D01*
X027632Y007943D01*
X028482Y008793D01*
X028102Y008748D02*
X027862Y008748D01*
X027862Y008636D02*
X027639Y008413D01*
X027324Y008413D01*
X027102Y008636D01*
X027102Y008951D01*
X027324Y009173D01*
X027639Y009173D01*
X027862Y008951D01*
X027862Y008636D01*
X027855Y008629D02*
X028035Y008629D01*
X027917Y008511D02*
X027737Y008511D01*
X027798Y008392D02*
X026364Y008392D01*
X026245Y008274D02*
X027679Y008274D01*
X027561Y008155D02*
X026127Y008155D01*
X025832Y008143D02*
X026482Y008793D01*
X026862Y008748D02*
X027102Y008748D01*
X027102Y008866D02*
X026862Y008866D01*
X026827Y008985D02*
X027136Y008985D01*
X027255Y009103D02*
X026709Y009103D01*
X026255Y009103D02*
X025709Y009103D01*
X025639Y009173D02*
X025324Y009173D01*
X025102Y008951D01*
X025102Y008636D01*
X025324Y008413D01*
X025639Y008413D01*
X025862Y008636D01*
X025862Y008951D01*
X025639Y009173D01*
X025827Y008985D02*
X026136Y008985D01*
X026102Y008866D02*
X025862Y008866D01*
X025862Y008748D02*
X026102Y008748D01*
X026035Y008629D02*
X025855Y008629D01*
X025917Y008511D02*
X025737Y008511D01*
X025798Y008392D02*
X024364Y008392D01*
X024279Y008274D02*
X024245Y008274D01*
X024232Y008226D02*
X024232Y008226D01*
X024161Y008155D02*
X024127Y008155D01*
X024042Y008037D02*
X022308Y008037D01*
X022189Y007918D02*
X023924Y007918D01*
X023805Y007799D02*
X022071Y007799D01*
X021952Y007681D02*
X022852Y007681D01*
X022762Y007562D02*
X021834Y007562D01*
X021532Y007543D02*
X022332Y008343D01*
X024032Y008343D01*
X024482Y008793D01*
X024862Y008748D02*
X025102Y008748D01*
X025102Y008866D02*
X024862Y008866D01*
X024827Y008985D02*
X025136Y008985D01*
X025255Y009103D02*
X024709Y009103D01*
X024255Y009103D02*
X023709Y009103D01*
X023827Y008985D02*
X024136Y008985D01*
X024102Y008866D02*
X023862Y008866D01*
X023862Y008748D02*
X024102Y008748D01*
X024035Y008629D02*
X023855Y008629D01*
X023108Y008629D02*
X022855Y008629D01*
X022862Y008748D02*
X023102Y008748D01*
X023102Y008866D02*
X022862Y008866D01*
X022827Y008985D02*
X023136Y008985D01*
X023255Y009103D02*
X022709Y009103D01*
X022255Y009103D02*
X021709Y009103D01*
X021639Y009173D02*
X021324Y009173D01*
X021102Y008951D01*
X021102Y008636D01*
X021324Y008413D01*
X021639Y008413D01*
X021862Y008636D01*
X021862Y008951D01*
X021639Y009173D01*
X021827Y008985D02*
X022136Y008985D01*
X022102Y008866D02*
X021862Y008866D01*
X021862Y008748D02*
X022102Y008748D01*
X022035Y008629D02*
X021855Y008629D01*
X021917Y008511D02*
X021737Y008511D01*
X021798Y008392D02*
X020364Y008392D01*
X020245Y008274D02*
X021679Y008274D01*
X021561Y008155D02*
X020127Y008155D01*
X020008Y008037D02*
X021442Y008037D01*
X021432Y007743D02*
X022482Y008793D01*
X021255Y009103D02*
X020709Y009103D01*
X020827Y008985D02*
X021136Y008985D01*
X021102Y008866D02*
X020862Y008866D01*
X020862Y008748D02*
X021102Y008748D01*
X021108Y008629D02*
X020855Y008629D01*
X020737Y008511D02*
X021227Y008511D01*
X020482Y008793D02*
X019632Y007943D01*
X014632Y007943D01*
X014232Y007543D01*
X012132Y007543D01*
X012432Y007343D02*
X014332Y007343D01*
X014732Y007743D01*
X021432Y007743D01*
X021532Y007543D02*
X014832Y007543D01*
X014332Y007043D01*
X012632Y007043D01*
X012432Y007343D02*
X012182Y007093D01*
X012282Y006743D02*
X011982Y006443D01*
X010432Y007993D01*
X010432Y008343D01*
X010132Y008643D01*
X009232Y008643D01*
X008956Y008748D02*
X007519Y008748D01*
X007452Y008629D02*
X007401Y008629D01*
X007612Y008629D02*
X007701Y008629D01*
X008163Y008629D02*
X008552Y008629D01*
X008712Y008629D02*
X008937Y008629D01*
X009038Y008866D02*
X007638Y008866D01*
X007632Y009143D02*
X010532Y009143D01*
X010752Y009341D02*
X028762Y009341D01*
X028762Y009459D02*
X005252Y009459D01*
X005252Y009578D02*
X028762Y009578D01*
X028762Y009696D02*
X005252Y009696D01*
X005252Y009815D02*
X028762Y009815D01*
X028762Y009933D02*
X005252Y009933D01*
X005252Y010052D02*
X028762Y010052D01*
X028762Y010170D02*
X005252Y010170D01*
X005252Y010289D02*
X028762Y010289D01*
X028762Y010407D02*
X005252Y010407D01*
X005252Y010526D02*
X028762Y010526D01*
X028762Y010644D02*
X005252Y010644D01*
X005252Y010763D02*
X028762Y010763D01*
X028762Y010882D02*
X005252Y010882D01*
X005252Y011000D02*
X028664Y011000D01*
X028545Y011119D02*
X005252Y011119D01*
X005252Y011237D02*
X028427Y011237D01*
X028308Y011356D02*
X005356Y011356D01*
X005474Y011474D02*
X028190Y011474D01*
X028071Y011593D02*
X005593Y011593D01*
X005711Y011711D02*
X027952Y011711D01*
X028762Y009222D02*
X010818Y009222D01*
X010827Y009103D02*
X013255Y009103D01*
X013136Y008985D02*
X010786Y008985D01*
X010634Y008866D02*
X013102Y008866D01*
X013102Y008748D02*
X010310Y008748D01*
X010429Y008629D02*
X013108Y008629D01*
X013227Y008511D02*
X010547Y008511D01*
X010632Y008392D02*
X011198Y008392D01*
X011079Y008274D02*
X010632Y008274D01*
X010632Y008155D02*
X010827Y008155D01*
X010751Y008037D02*
X010671Y008037D01*
X011032Y007943D02*
X011332Y008243D01*
X013932Y008243D01*
X014482Y008793D01*
X014862Y008748D02*
X015102Y008748D01*
X015102Y008866D02*
X014862Y008866D01*
X014827Y008985D02*
X015136Y008985D01*
X015255Y009103D02*
X014709Y009103D01*
X014255Y009103D02*
X013709Y009103D01*
X013827Y008985D02*
X014136Y008985D01*
X014102Y008866D02*
X013862Y008866D01*
X013862Y008748D02*
X014102Y008748D01*
X014035Y008629D02*
X013855Y008629D01*
X013917Y008511D02*
X013737Y008511D01*
X014132Y008043D02*
X014432Y008343D01*
X016032Y008343D01*
X016482Y008793D01*
X016862Y008748D02*
X017102Y008748D01*
X017102Y008636D02*
X017324Y008413D01*
X017639Y008413D01*
X017862Y008636D01*
X017862Y008951D01*
X017639Y009173D01*
X017324Y009173D01*
X017102Y008951D01*
X017102Y008636D01*
X017108Y008629D02*
X016855Y008629D01*
X016737Y008511D02*
X017227Y008511D01*
X017737Y008511D02*
X017917Y008511D01*
X017855Y008629D02*
X018035Y008629D01*
X018102Y008748D02*
X017862Y008748D01*
X017862Y008866D02*
X018102Y008866D01*
X018136Y008985D02*
X017827Y008985D01*
X017709Y009103D02*
X018255Y009103D01*
X018709Y009103D02*
X019255Y009103D01*
X019324Y009173D02*
X019102Y008951D01*
X019102Y008636D01*
X019324Y008413D01*
X019639Y008413D01*
X019862Y008636D01*
X019862Y008951D01*
X019639Y009173D01*
X019324Y009173D01*
X019136Y008985D02*
X018827Y008985D01*
X018862Y008866D02*
X019102Y008866D01*
X019102Y008748D02*
X018862Y008748D01*
X018855Y008629D02*
X019108Y008629D01*
X019227Y008511D02*
X018737Y008511D01*
X018364Y008392D02*
X019798Y008392D01*
X019737Y008511D02*
X019917Y008511D01*
X019855Y008629D02*
X020035Y008629D01*
X020102Y008748D02*
X019862Y008748D01*
X019862Y008866D02*
X020102Y008866D01*
X020136Y008985D02*
X019827Y008985D01*
X019709Y009103D02*
X020255Y009103D01*
X018482Y008793D02*
X017832Y008143D01*
X014532Y008143D01*
X014232Y007843D01*
X011932Y007843D01*
X011632Y007543D01*
X011532Y007943D02*
X011632Y008043D01*
X014132Y008043D01*
X014855Y008629D02*
X015108Y008629D01*
X015855Y008629D02*
X016035Y008629D01*
X016102Y008748D02*
X015862Y008748D01*
X015862Y008866D02*
X016102Y008866D01*
X016136Y008985D02*
X015827Y008985D01*
X015709Y009103D02*
X016255Y009103D01*
X016709Y009103D02*
X017255Y009103D01*
X017136Y008985D02*
X016827Y008985D01*
X016862Y008866D02*
X017102Y008866D01*
X017798Y008392D02*
X016364Y008392D01*
X018127Y008155D02*
X019561Y008155D01*
X019679Y008274D02*
X018245Y008274D01*
X015032Y007143D02*
X023432Y007143D01*
X024432Y008143D01*
X025832Y008143D01*
X025227Y008511D02*
X024737Y008511D01*
X024855Y008629D02*
X025108Y008629D01*
X026737Y008511D02*
X027227Y008511D01*
X027108Y008629D02*
X026855Y008629D01*
X027862Y008866D02*
X028102Y008866D01*
X028136Y008985D02*
X027827Y008985D01*
X027709Y009103D02*
X028255Y009103D01*
X028709Y009103D02*
X028762Y009103D01*
X028762Y008536D02*
X028762Y007284D01*
X028261Y006783D01*
X027950Y006783D01*
X027692Y006525D01*
X027692Y006161D01*
X027950Y005903D01*
X028314Y005903D01*
X028572Y006161D01*
X028572Y006472D01*
X029072Y006972D01*
X029072Y004403D01*
X011719Y004403D01*
X011757Y004494D01*
X011757Y004612D01*
X011712Y004720D01*
X011702Y004730D01*
X012742Y005771D01*
X012782Y005676D01*
X012865Y005593D01*
X012973Y005548D01*
X013037Y005548D01*
X013037Y005434D01*
X013073Y005346D01*
X012999Y005421D01*
X012890Y005466D01*
X012773Y005466D01*
X012665Y005421D01*
X012582Y005338D01*
X012537Y005229D01*
X012537Y005112D01*
X012582Y005004D01*
X012665Y004921D01*
X012731Y004893D01*
X012582Y004893D01*
X012569Y004923D01*
X012486Y005006D01*
X012378Y005051D01*
X012261Y005051D01*
X012152Y005006D01*
X012069Y004923D01*
X012024Y004814D01*
X012024Y004697D01*
X012069Y004589D01*
X012152Y004506D01*
X012261Y004461D01*
X012378Y004461D01*
X012456Y004493D01*
X019665Y004493D01*
X019773Y004448D01*
X019890Y004448D01*
X019999Y004493D01*
X020082Y004576D01*
X020127Y004684D01*
X020127Y004802D01*
X020082Y004910D01*
X019999Y004993D01*
X019890Y005038D01*
X019773Y005038D01*
X019665Y004993D01*
X019582Y004910D01*
X019575Y004893D01*
X016265Y004893D01*
X016715Y005343D01*
X017715Y005343D01*
X017765Y005293D01*
X017873Y005248D01*
X017990Y005248D01*
X018099Y005293D01*
X018149Y005343D01*
X022735Y005343D01*
X022682Y005290D01*
X022637Y005182D01*
X022637Y005064D01*
X022682Y004956D01*
X022765Y004873D01*
X022873Y004828D01*
X022944Y004828D01*
X023279Y004493D01*
X023445Y004493D01*
X026475Y004493D01*
X026592Y004610D01*
X026917Y004936D01*
X026950Y004903D01*
X027314Y004903D01*
X027572Y005161D01*
X027572Y005525D01*
X027314Y005783D01*
X026950Y005783D01*
X026692Y005525D01*
X026692Y005276D01*
X026309Y004893D01*
X023445Y004893D01*
X023227Y005111D01*
X023227Y005182D01*
X023182Y005290D01*
X023129Y005343D01*
X023692Y005343D01*
X023692Y005161D01*
X023950Y004903D01*
X024314Y004903D01*
X024572Y005161D01*
X024572Y005525D01*
X024454Y005643D01*
X024810Y005643D01*
X024692Y005525D01*
X024692Y005161D01*
X024950Y004903D01*
X025314Y004903D01*
X025572Y005161D01*
X025572Y005525D01*
X025454Y005643D01*
X025715Y005643D01*
X025832Y005760D01*
X025975Y005903D01*
X026314Y005903D01*
X026572Y006161D01*
X026572Y006525D01*
X026314Y006783D01*
X025950Y006783D01*
X025692Y006525D01*
X025692Y006186D01*
X025549Y006043D01*
X025454Y006043D01*
X025572Y006161D01*
X025572Y006525D01*
X025314Y006783D01*
X024975Y006783D01*
X024715Y007043D01*
X024549Y007043D01*
X023915Y007043D01*
X024615Y007743D01*
X027549Y007743D01*
X027715Y007743D01*
X028385Y008413D01*
X028639Y008413D01*
X028762Y008536D01*
X028762Y008511D02*
X028737Y008511D01*
X028762Y008392D02*
X028364Y008392D01*
X028245Y008274D02*
X028762Y008274D01*
X028762Y008155D02*
X028127Y008155D01*
X028008Y008037D02*
X028762Y008037D01*
X028762Y007918D02*
X027889Y007918D01*
X027771Y007799D02*
X028762Y007799D01*
X028762Y007681D02*
X024552Y007681D01*
X024434Y007562D02*
X028762Y007562D01*
X028762Y007444D02*
X024315Y007444D01*
X024197Y007325D02*
X028762Y007325D01*
X028684Y007207D02*
X024078Y007207D01*
X023960Y007088D02*
X028566Y007088D01*
X028447Y006970D02*
X024788Y006970D01*
X024907Y006851D02*
X028329Y006851D01*
X027899Y006733D02*
X027365Y006733D01*
X027314Y006783D02*
X026950Y006783D01*
X026692Y006525D01*
X026692Y006161D01*
X026950Y005903D01*
X027314Y005903D01*
X027572Y006161D01*
X027572Y006525D01*
X027314Y006783D01*
X027483Y006614D02*
X027780Y006614D01*
X027692Y006495D02*
X027572Y006495D01*
X027572Y006377D02*
X027692Y006377D01*
X027692Y006258D02*
X027572Y006258D01*
X027551Y006140D02*
X027713Y006140D01*
X027831Y006021D02*
X027432Y006021D01*
X027692Y005525D02*
X027950Y005783D01*
X028092Y005783D01*
X028092Y005383D01*
X028092Y005303D01*
X028172Y005303D01*
X028172Y005383D01*
X028572Y005383D01*
X028572Y005525D01*
X028314Y005783D01*
X028172Y005783D01*
X028172Y005383D01*
X028092Y005383D01*
X027692Y005383D01*
X027692Y005525D01*
X027714Y005547D02*
X027550Y005547D01*
X027572Y005429D02*
X027692Y005429D01*
X027692Y005303D02*
X027692Y005161D01*
X027950Y004903D01*
X028092Y004903D01*
X028092Y005303D01*
X027692Y005303D01*
X027692Y005191D02*
X027572Y005191D01*
X027572Y005310D02*
X028092Y005310D01*
X028172Y005310D02*
X029072Y005310D01*
X029072Y005191D02*
X028572Y005191D01*
X028572Y005161D02*
X028572Y005303D01*
X028172Y005303D01*
X028172Y004903D01*
X028314Y004903D01*
X028572Y005161D01*
X028484Y005073D02*
X029072Y005073D01*
X029072Y004954D02*
X028365Y004954D01*
X028172Y004954D02*
X028092Y004954D01*
X028092Y005073D02*
X028172Y005073D01*
X028172Y005191D02*
X028092Y005191D01*
X027780Y005073D02*
X027484Y005073D01*
X027365Y004954D02*
X027898Y004954D01*
X027132Y005343D02*
X027042Y005343D01*
X026392Y004693D01*
X023362Y004693D01*
X022932Y005123D01*
X023162Y005310D02*
X023692Y005310D01*
X023692Y005191D02*
X023223Y005191D01*
X023265Y005073D02*
X023780Y005073D01*
X023898Y004954D02*
X023383Y004954D01*
X023055Y004717D02*
X020127Y004717D01*
X020113Y004836D02*
X022854Y004836D01*
X022683Y004954D02*
X020038Y004954D01*
X019832Y004743D02*
X019782Y004693D01*
X012382Y004693D01*
X012319Y004756D01*
X012101Y004954D02*
X011926Y004954D01*
X012033Y004836D02*
X011807Y004836D01*
X011713Y004717D02*
X012024Y004717D01*
X012065Y004599D02*
X011757Y004599D01*
X011751Y004480D02*
X012213Y004480D01*
X012425Y004480D02*
X019696Y004480D01*
X019665Y004493D02*
X019665Y004493D01*
X019968Y004480D02*
X029072Y004480D01*
X029072Y004599D02*
X026580Y004599D01*
X026699Y004717D02*
X029072Y004717D01*
X029072Y004836D02*
X026817Y004836D01*
X026489Y005073D02*
X026484Y005073D01*
X026572Y005161D02*
X026314Y004903D01*
X025950Y004903D01*
X025692Y005161D01*
X025692Y005525D01*
X025950Y005783D01*
X026314Y005783D01*
X026572Y005525D01*
X026572Y005161D01*
X026572Y005191D02*
X026607Y005191D01*
X026572Y005310D02*
X026692Y005310D01*
X026692Y005429D02*
X026572Y005429D01*
X026550Y005547D02*
X026714Y005547D01*
X026832Y005666D02*
X026431Y005666D01*
X025974Y005903D02*
X029072Y005903D01*
X029072Y006021D02*
X028432Y006021D01*
X028551Y006140D02*
X029072Y006140D01*
X029072Y006258D02*
X028572Y006258D01*
X028572Y006377D02*
X029072Y006377D01*
X029072Y006495D02*
X028595Y006495D01*
X028714Y006614D02*
X029072Y006614D01*
X029072Y006733D02*
X028832Y006733D01*
X028951Y006851D02*
X029072Y006851D01*
X029069Y006970D02*
X029072Y006970D01*
X026899Y006733D02*
X026365Y006733D01*
X026483Y006614D02*
X026780Y006614D01*
X026692Y006495D02*
X026572Y006495D01*
X026572Y006377D02*
X026692Y006377D01*
X026692Y006258D02*
X026572Y006258D01*
X026551Y006140D02*
X026713Y006140D01*
X026831Y006021D02*
X026432Y006021D01*
X026132Y006343D02*
X025632Y005843D01*
X016632Y005843D01*
X015882Y005093D01*
X013732Y005093D01*
X013332Y005493D01*
X013627Y005481D02*
X013815Y005293D01*
X015799Y005293D01*
X016549Y006043D01*
X016715Y006043D01*
X017599Y006043D01*
X017299Y006343D01*
X015415Y006343D01*
X014715Y005643D01*
X014549Y005643D01*
X013589Y005643D01*
X013627Y005552D01*
X013627Y005481D01*
X013627Y005547D02*
X016053Y005547D01*
X015934Y005429D02*
X013679Y005429D01*
X013798Y005310D02*
X015816Y005310D01*
X016444Y005073D02*
X022637Y005073D01*
X022641Y005191D02*
X016563Y005191D01*
X016681Y005310D02*
X017748Y005310D01*
X018116Y005310D02*
X022702Y005310D01*
X023932Y005543D02*
X024132Y005343D01*
X024572Y005310D02*
X024692Y005310D01*
X024692Y005191D02*
X024572Y005191D01*
X024484Y005073D02*
X024780Y005073D01*
X024898Y004954D02*
X024365Y004954D01*
X024572Y005429D02*
X024692Y005429D01*
X024714Y005547D02*
X024550Y005547D01*
X023932Y005543D02*
X017932Y005543D01*
X016632Y005543D01*
X015982Y004893D01*
X013109Y004893D01*
X012832Y005171D01*
X012553Y005073D02*
X012044Y005073D01*
X012163Y005191D02*
X012537Y005191D01*
X012570Y005310D02*
X012281Y005310D01*
X012400Y005429D02*
X012684Y005429D01*
X012519Y005547D02*
X013037Y005547D01*
X013039Y005429D02*
X012980Y005429D01*
X012792Y005666D02*
X012637Y005666D01*
X013032Y005843D02*
X014632Y005843D01*
X015332Y006543D01*
X017382Y006543D01*
X017732Y006193D01*
X023082Y006193D01*
X023532Y006543D02*
X023832Y006843D01*
X024632Y006843D01*
X025132Y006343D01*
X025572Y006377D02*
X025692Y006377D01*
X025692Y006495D02*
X025572Y006495D01*
X025483Y006614D02*
X025780Y006614D01*
X025899Y006733D02*
X025365Y006733D01*
X025572Y006258D02*
X025692Y006258D01*
X025646Y006140D02*
X025551Y006140D01*
X025856Y005784D02*
X029072Y005784D01*
X029072Y005666D02*
X028431Y005666D01*
X028550Y005547D02*
X029072Y005547D01*
X029072Y005429D02*
X028572Y005429D01*
X028172Y005429D02*
X028092Y005429D01*
X028092Y005547D02*
X028172Y005547D01*
X028172Y005666D02*
X028092Y005666D01*
X027832Y005666D02*
X027431Y005666D01*
X026370Y004954D02*
X026365Y004954D01*
X025898Y004954D02*
X025365Y004954D01*
X025484Y005073D02*
X025780Y005073D01*
X025692Y005191D02*
X025572Y005191D01*
X025572Y005310D02*
X025692Y005310D01*
X025692Y005429D02*
X025572Y005429D01*
X025550Y005547D02*
X025714Y005547D01*
X025737Y005666D02*
X025832Y005666D01*
X023532Y006543D02*
X017902Y006543D01*
X017882Y006543D01*
X017682Y006743D01*
X015232Y006743D01*
X014632Y006143D01*
X012832Y006143D01*
X011462Y004773D01*
X011462Y004553D01*
X011032Y004993D02*
X010782Y004993D01*
X010132Y005643D01*
X010432Y005643D02*
X008532Y007543D01*
X007732Y007543D01*
X007132Y008143D01*
X007532Y008343D02*
X008132Y007743D01*
X008832Y007743D01*
X010532Y006043D01*
X010432Y005643D02*
X010632Y005643D01*
X009652Y006140D02*
X006982Y006140D01*
X006982Y006258D02*
X009534Y006258D01*
X009415Y006377D02*
X006982Y006377D01*
X006982Y006495D02*
X009297Y006495D01*
X009178Y006614D02*
X006982Y006614D01*
X006982Y006733D02*
X009060Y006733D01*
X008941Y006851D02*
X006982Y006851D01*
X006982Y006970D02*
X008822Y006970D01*
X008704Y007088D02*
X006982Y007088D01*
X006982Y007207D02*
X008585Y007207D01*
X008467Y007325D02*
X006982Y007325D01*
X006982Y007444D02*
X007548Y007444D01*
X007430Y007562D02*
X006982Y007562D01*
X006982Y007681D02*
X007311Y007681D01*
X007193Y007799D02*
X006982Y007799D01*
X006582Y007088D02*
X002232Y007088D01*
X002232Y006970D02*
X006582Y006970D01*
X006582Y006851D02*
X002232Y006851D01*
X002232Y006733D02*
X006582Y006733D01*
X006582Y006614D02*
X002232Y006614D01*
X002232Y006495D02*
X006582Y006495D01*
X006582Y006377D02*
X002232Y006377D01*
X002232Y006258D02*
X006582Y006258D01*
X006582Y006140D02*
X002696Y006140D01*
X002787Y006021D02*
X006582Y006021D01*
X006582Y005903D02*
X002819Y005903D01*
X002808Y005784D02*
X006582Y005784D01*
X006582Y005666D02*
X002747Y005666D01*
X002566Y005547D02*
X006582Y005547D01*
X006582Y005429D02*
X002329Y005429D01*
X002397Y005547D02*
X002232Y005547D01*
X002032Y005443D02*
X002032Y008343D01*
X003132Y009443D01*
X003193Y009222D02*
X003292Y009222D01*
X003292Y009103D02*
X003075Y009103D01*
X002097Y009103D02*
X002067Y009103D01*
X002067Y008985D02*
X002097Y008985D01*
X002067Y008978D02*
X001913Y008978D01*
X001878Y008988D01*
X001846Y009006D01*
X001820Y009032D01*
X001801Y009064D01*
X001792Y009100D01*
X001792Y009428D01*
X002067Y009428D01*
X002067Y008978D01*
X001888Y008985D02*
X000392Y008985D01*
X000392Y009103D02*
X001792Y009103D01*
X001792Y009222D02*
X000392Y009222D01*
X000392Y009341D02*
X001792Y009341D01*
X001792Y009458D02*
X002067Y009458D01*
X002067Y009908D01*
X001913Y009908D01*
X001878Y009899D01*
X001846Y009880D01*
X001820Y009854D01*
X001801Y009822D01*
X001792Y009787D01*
X001792Y009458D01*
X001792Y009459D02*
X000392Y009459D01*
X000392Y009578D02*
X001792Y009578D01*
X001792Y009696D02*
X000392Y009696D01*
X000392Y009815D02*
X001799Y009815D01*
X002067Y009815D02*
X002097Y009815D01*
X002097Y009696D02*
X002067Y009696D01*
X002067Y009578D02*
X002097Y009578D01*
X002097Y009459D02*
X002067Y009459D01*
X002067Y009341D02*
X002097Y009341D01*
X002097Y009222D02*
X002067Y009222D01*
X002372Y009696D02*
X003292Y009696D01*
X003292Y009815D02*
X002364Y009815D01*
X003382Y009933D02*
X000392Y009933D01*
X000392Y010052D02*
X003382Y010052D01*
X003382Y010170D02*
X000392Y010170D01*
X000392Y010289D02*
X003382Y010289D01*
X003382Y010407D02*
X000392Y010407D01*
X000392Y010526D02*
X003382Y010526D01*
X003382Y010644D02*
X000392Y010644D01*
X000392Y010763D02*
X003382Y010763D01*
X003382Y010882D02*
X000392Y010882D01*
X000392Y011000D02*
X001856Y011000D01*
X001846Y011006D02*
X001878Y010988D01*
X001913Y010978D01*
X002067Y010978D01*
X002067Y011428D01*
X002097Y011428D01*
X002097Y011458D01*
X002372Y011458D01*
X002372Y011787D01*
X002362Y011822D01*
X002344Y011854D01*
X002318Y011880D01*
X002286Y011899D01*
X002250Y011908D01*
X002097Y011908D01*
X002097Y011458D01*
X002067Y011458D01*
X002067Y011428D01*
X001792Y011428D01*
X001792Y011100D01*
X001801Y011064D01*
X001820Y011032D01*
X001846Y011006D01*
X001792Y011119D02*
X000392Y011119D01*
X000392Y011237D02*
X001792Y011237D01*
X001792Y011356D02*
X000392Y011356D01*
X000392Y011474D02*
X001792Y011474D01*
X001792Y011458D02*
X002067Y011458D01*
X002067Y011908D01*
X001913Y011908D01*
X001878Y011899D01*
X001846Y011880D01*
X001820Y011854D01*
X001801Y011822D01*
X001792Y011787D01*
X001792Y011458D01*
X001792Y011593D02*
X000392Y011593D01*
X000392Y011711D02*
X001792Y011711D01*
X001806Y011830D02*
X000392Y011830D01*
X000392Y011948D02*
X005326Y011948D01*
X005208Y011830D02*
X003868Y011830D01*
X003872Y011711D02*
X005089Y011711D01*
X004970Y011593D02*
X003872Y011593D01*
X003872Y011474D02*
X004852Y011474D01*
X004812Y011356D02*
X003872Y011356D01*
X003872Y011237D02*
X004812Y011237D01*
X003997Y011119D02*
X003872Y011119D01*
X003582Y010843D02*
X003582Y011443D01*
X003292Y011474D02*
X002372Y011474D01*
X002372Y011428D02*
X002097Y011428D01*
X002097Y010978D01*
X002250Y010978D01*
X002286Y010988D01*
X002318Y011006D01*
X002344Y011032D01*
X002362Y011064D01*
X002372Y011100D01*
X002372Y011428D01*
X002372Y011356D02*
X003292Y011356D01*
X003292Y011237D02*
X002372Y011237D01*
X002372Y011119D02*
X003292Y011119D01*
X003352Y011000D02*
X002307Y011000D01*
X002097Y011000D02*
X002067Y011000D01*
X002067Y011119D02*
X002097Y011119D01*
X002097Y011237D02*
X002067Y011237D01*
X002067Y011356D02*
X002097Y011356D01*
X002097Y011474D02*
X002067Y011474D01*
X002067Y011593D02*
X002097Y011593D01*
X002097Y011711D02*
X002067Y011711D01*
X002067Y011830D02*
X002097Y011830D01*
X002358Y011830D02*
X003296Y011830D01*
X003292Y011711D02*
X002372Y011711D01*
X002372Y011593D02*
X003292Y011593D01*
X005445Y012067D02*
X000392Y012067D01*
X004432Y010069D02*
X004432Y009643D01*
X004232Y009443D01*
X004509Y009341D02*
X004812Y009341D01*
X004812Y009459D02*
X004531Y009459D01*
X004632Y009578D02*
X004812Y009578D01*
X004808Y009696D02*
X004812Y009696D01*
X004812Y009222D02*
X004428Y009222D01*
X007932Y008443D02*
X008432Y007943D01*
X009132Y007943D01*
X010632Y006443D01*
X011132Y006443D02*
X009232Y008343D01*
X008632Y008343D01*
X008337Y008392D02*
X008266Y008392D01*
X008223Y008511D02*
X008382Y008511D01*
X009426Y008866D02*
X010429Y008866D01*
X009732Y008343D02*
X011532Y006543D01*
X011532Y006443D01*
X012282Y006743D02*
X014332Y006743D01*
X014932Y007343D01*
X022932Y007343D01*
X023032Y007443D01*
X023327Y007444D02*
X023450Y007444D01*
X023568Y007562D02*
X023302Y007562D01*
X023211Y007681D02*
X023687Y007681D01*
X017502Y006140D02*
X015211Y006140D01*
X015093Y006021D02*
X016527Y006021D01*
X016409Y005903D02*
X014974Y005903D01*
X014856Y005784D02*
X016290Y005784D01*
X016171Y005666D02*
X014737Y005666D01*
X015330Y006258D02*
X017384Y006258D01*
X015032Y007143D02*
X014432Y006543D01*
X012582Y006543D01*
X011032Y004993D01*
X012538Y004954D02*
X012631Y004954D01*
X016326Y004954D02*
X019626Y004954D01*
X020091Y004599D02*
X023173Y004599D01*
X008476Y005310D02*
X008468Y005310D01*
X007332Y005743D02*
X007332Y004743D01*
X007132Y004543D01*
X002932Y004543D01*
X002032Y005443D01*
X002448Y005310D02*
X006476Y005310D01*
X006358Y005191D02*
X002566Y005191D01*
X002685Y005073D02*
X006342Y005073D01*
X006342Y004954D02*
X002803Y004954D01*
X002922Y004836D02*
X006342Y004836D01*
X002268Y006140D02*
X002232Y006140D01*
D15*
X002532Y006743D03*
X004232Y005743D03*
X002232Y004743D03*
X000832Y005743D03*
X004932Y007043D03*
X004912Y007613D03*
X004132Y007843D03*
X007132Y008143D03*
X007532Y008343D03*
X007932Y008443D03*
X008632Y008343D03*
X009232Y008643D03*
X009732Y008343D03*
X011032Y007943D03*
X011532Y007943D03*
X011632Y007543D03*
X012132Y007543D03*
X012182Y007093D03*
X012632Y007043D03*
X011982Y006443D03*
X011532Y006443D03*
X011132Y006443D03*
X010632Y006443D03*
X010532Y006043D03*
X010632Y005643D03*
X009732Y005643D03*
X007782Y005713D03*
X007332Y005743D03*
X009342Y004553D03*
X011462Y004553D03*
X012319Y004756D03*
X012832Y005171D03*
X013332Y005493D03*
X013032Y005843D03*
X015432Y006143D03*
X015532Y005443D03*
X017282Y005093D03*
X017882Y005093D03*
X017932Y005543D03*
X017232Y006193D03*
X017902Y006543D03*
X019832Y004743D03*
X022382Y004993D03*
X022932Y005123D03*
X023482Y004993D03*
X023082Y006193D03*
X023032Y007443D03*
X028532Y010043D03*
X027832Y011443D03*
X017532Y011543D03*
X011932Y010143D03*
X010532Y009143D03*
X006332Y010343D03*
X004232Y009443D03*
X000732Y009343D03*
X000632Y011843D03*
X004232Y011843D03*
X007132Y007043D03*
X007632Y007043D03*
X028832Y004743D03*
D16*
X028132Y006343D02*
X028982Y007193D01*
X028982Y010993D01*
X028032Y011943D01*
X005632Y011943D01*
X005032Y011343D01*
X005032Y007733D01*
X004912Y007613D01*
M02*
