G75*
G70*
%OFA0B0*%
%FSLAX24Y24*%
%IPPOS*%
%LPD*%
%AMOC8*
5,1,8,0,0,1.08239X$1,22.5*
%
%ADD10R,0.0592X0.0671*%
%ADD11R,0.1064X0.0867*%
%ADD12R,0.0986X0.0277*%
%ADD13C,0.0434*%
%ADD14OC8,0.0560*%
%ADD15R,0.0867X0.0671*%
%ADD16R,0.0867X0.1576*%
%ADD17R,0.0631X0.0710*%
%ADD18R,0.0434X0.0316*%
%ADD19R,0.0316X0.0434*%
%ADD20OC8,0.0680*%
%ADD21R,0.0217X0.0630*%
%ADD22R,0.0710X0.0631*%
%ADD23R,0.2180X0.0840*%
%ADD24R,0.0671X0.0592*%
%ADD25R,0.0253X0.0533*%
%ADD26R,0.0328X0.0533*%
%ADD27R,0.0552X0.0552*%
%ADD28R,0.0946X0.0316*%
%ADD29R,0.0631X0.0474*%
D10*
X004558Y004993D03*
X005306Y004993D03*
X015997Y004943D03*
X016666Y004943D03*
X016666Y006343D03*
X015997Y006343D03*
D11*
X001301Y004991D03*
X003466Y004991D03*
X003466Y008495D03*
X001301Y008495D03*
D12*
X003505Y007373D03*
X003505Y007058D03*
X003505Y006743D03*
X003505Y006428D03*
X003505Y006113D03*
D13*
X002482Y005877D03*
X002482Y007609D03*
D14*
X013482Y008793D03*
X014482Y008793D03*
X015482Y008793D03*
X016482Y008793D03*
X017482Y008793D03*
X018482Y008793D03*
X019482Y008793D03*
X020482Y008793D03*
X021482Y008793D03*
X022482Y008793D03*
X023482Y008793D03*
X024482Y008793D03*
X025482Y008793D03*
X026482Y008793D03*
X027482Y008793D03*
X028482Y008793D03*
D15*
X003472Y009588D03*
X003472Y010493D03*
X003472Y011399D03*
D16*
X000992Y010493D03*
D17*
X004832Y010453D03*
X004832Y009334D03*
X004832Y008153D03*
X004832Y011634D03*
D18*
X013938Y006431D03*
X013938Y006116D03*
X013938Y005801D03*
X013938Y005486D03*
X013938Y005171D03*
X013938Y004856D03*
X014726Y004856D03*
X014726Y005171D03*
X014726Y005486D03*
X014726Y005801D03*
X014726Y006116D03*
X014726Y006431D03*
D19*
X014332Y006431D03*
X014332Y004856D03*
D20*
X010782Y004993D03*
X009782Y004993D03*
X008782Y004993D03*
X007782Y004993D03*
X006782Y004993D03*
X024132Y005343D03*
X025132Y005343D03*
X026132Y005343D03*
X027132Y005343D03*
X028132Y005343D03*
X028132Y006343D03*
X027132Y006343D03*
X026132Y006343D03*
X025132Y006343D03*
X024132Y006343D03*
D21*
X010145Y006304D03*
X009889Y006304D03*
X009633Y006304D03*
X009377Y006304D03*
X009122Y006304D03*
X008866Y006304D03*
X008610Y006304D03*
X008354Y006304D03*
X008098Y006304D03*
X007842Y006304D03*
X007586Y006304D03*
X007330Y006304D03*
X007074Y006304D03*
X006818Y006304D03*
X006818Y009183D03*
X007074Y009183D03*
X007330Y009183D03*
X007586Y009183D03*
X007842Y009183D03*
X008098Y009183D03*
X008354Y009183D03*
X008610Y009183D03*
X008866Y009183D03*
X009122Y009183D03*
X009377Y009183D03*
X009633Y009183D03*
X009889Y009183D03*
X010145Y009183D03*
D22*
X011241Y009443D03*
X012422Y009443D03*
D23*
X011232Y010993D03*
X007432Y010993D03*
D24*
X005732Y011278D03*
X005732Y010609D03*
X005732Y009178D03*
X005732Y008509D03*
X005732Y007678D03*
X005732Y007009D03*
X012932Y010609D03*
X014132Y010569D03*
X015332Y010569D03*
X015332Y011317D03*
X014132Y011317D03*
X012932Y011278D03*
X022282Y006178D03*
X022282Y005509D03*
D25*
X021539Y010509D03*
X021224Y010509D03*
X021224Y011277D03*
X021539Y011277D03*
X019139Y011277D03*
X018824Y011277D03*
X018824Y010509D03*
X019139Y010509D03*
D26*
X019492Y010509D03*
X018472Y010509D03*
X018472Y011277D03*
X019492Y011277D03*
X020872Y011277D03*
X021892Y011277D03*
X021892Y010509D03*
X020872Y010509D03*
D27*
X020445Y007643D03*
X019618Y007643D03*
X018445Y007643D03*
X017618Y007643D03*
X016445Y007643D03*
X015618Y007643D03*
X014445Y007643D03*
X013618Y007643D03*
X021618Y007643D03*
X022445Y007643D03*
X023618Y007643D03*
X024445Y007643D03*
X025618Y007643D03*
X026445Y007643D03*
X027618Y007643D03*
X028445Y007643D03*
D28*
X020755Y006493D03*
X020755Y005993D03*
X020755Y005493D03*
X020755Y004993D03*
X018708Y004993D03*
X018708Y005493D03*
X018708Y005993D03*
X018708Y006493D03*
D29*
X016499Y010569D03*
X017365Y010943D03*
X016499Y011317D03*
M02*
