%
M48
M72
T01C0.0200
T02C0.0236
T03C0.0400
%
T01
X10399Y6649
X10899Y9149
X10899Y13149
X10274Y13274
X10149Y11149
X8649Y11149
X6149Y13649
X5024Y9274
X7149Y8649
X7149Y8149
X8149Y6899
X5024Y6899
X5024Y7899
X13649Y9149
X15149Y7399
X15899Y6399
X17649Y6149
X19149Y6274
X22024Y6274
X18399Y10149
X13399Y13149
X15399Y13899
X19274Y13899
T02
X21899Y13149
X20649Y12899
X17399Y12899
X19899Y8274
X19899Y13899
X11899Y6899
T03
X18399Y13899
X17399Y13899
X16399Y13899
X17399Y12149
X16399Y12149
X16399Y11149
X17399Y11149
X17399Y10149
X16399Y10149
X16399Y9149
X17399Y9149
X17399Y8149
X16399Y8149
X21899Y8149
X21899Y9149
X21899Y10149
X21899Y11149
X21899Y12149
M30
