<?xml version="1.0" standalone="no"?>
<!DOCTYPE svg PUBLIC "-//W3C//DTD SVG 1.1//EN" "http://www.w3.org/Graphics/SVG/1.1/DTD/svg11.dtd">
<svg width="61.0mm" height="84.0000000000001mm"
 viewBox="0 0 61.0 84.0000000000001"
 xmlns="http://www.w3.org/2000/svg" version="1.1"
 xmlns:xlink="http://www.w3.org/1999/xlink">
<desc>Output from Flights of Ideas SVG Sketchup Plugin</desc>

<g id="text_annotations" font-size="10" stroke="rgb(255,0,0)" stroke-width="0.3">
</g>
  <path id="face0-cut"
 style="fill:none;stroke:rgb(0,0,255);stroke-width:0.3;stroke-miterlimit:4;stroke-dasharray:none;stroke-linejoin:round;stroke-linecap:round"
        d="M 10.0342205545048,13.4778952311198 L 10.0,14.0 L 10.0,70.0 L 10.0342205545048,70.5221047688803 L 10.1362966948437,71.0352761804101 L 10.3044818699548,71.5307337294604 L 10.5358983848622,72.0000000000001 L 10.8265866388351,72.4350457160349 L 11.1715728752538,72.8284271247462 L 11.5649542839651,73.173413361165 L 12.0,73.4641016151378 L 12.4692662705396,73.6955181300452 L 12.9647238195899,73.8637033051563 L 13.4778952311198,73.9657794454953 L 14.0,74.0000000000001 L 47.0,74.0000000000001 L 47.5221047688802,73.9657794454953 L 48.0352761804101,73.8637033051563 L 48.5307337294604,73.6955181300452 L 49.0,73.4641016151378 L 49.4350457160349,73.173413361165 L 49.8284271247462,72.8284271247462 L 50.1734133611649,72.4350457160349 L 50.4641016151378,72.0000000000001 L 50.6955181300452,71.5307337294604 L 50.8637033051563,71.0352761804101 L 50.9657794454953,70.5221047688803 L 51.0,70.0 L 51.0,13.9999999999998 L 50.9657794454953,13.4778952311198 L 50.8637033051563,12.96472381959 L 50.6955181300452,12.4692662705397 L 50.4641016151378,12.0000000000002 L 50.1734133611649,11.5649542839651 L 49.8284271247462,11.1715728752539 L 49.4350457160349,10.826586638835 L 49.0,10.5358983848623 L 48.5307337294604,10.3044818699549 L 48.0352761804101,10.1362966948437 L 47.5221047688802,10.0342205545048 L 47.0,10.0 L 14.0,10.0000000000001 L 13.4778952311198,10.0342205545048 L 12.9647238195899,10.1362966948438 L 12.4692662705396,10.3044818699549 L 12.0,10.5358983848623 L 11.5649542839651,10.8265866388351 L 11.1715728752538,11.1715728752538 L 10.8265866388351,11.5649542839652 L 10.5358983848622,12.0000000000001 L 10.3044818699548,12.4692662705397 L 10.1362966948437,12.96472381959 L 10.0342205545048,13.4778952311198 M 41.5,25.5000000000001 L 19.5,25.5 L 19.5,15.5 L 41.5,15.5000000000001 L 41.5,25.5000000000001 M 17.3775468077666,65.9137677999772 L 17.5058241375103,66.0043813824052 L 17.6281586673289,66.1028707598053 L 17.7440675987225,66.2088472396006 L 17.8530934920926,66.3218925810414 L 17.9548060720473,66.4415606458104 L 18.0488039255016,66.5673791587272 L 18.1347160858714,66.6988515716023 L 18.2122034971093,66.8354590228861 L 18.2809603518037,66.9766623853784 L 18.3407152980612,67.1219043939171 L 18.3912325104084,67.2706118446494 L 18.4323126204872,67.422197857205 L 18.4637935038709,67.5760641908455 L 18.485550919895,67.731603605447 L 18.4974990019785,67.8882022579991 L 18.4995905964999,68.0452421251633 L 18.4918174488913,68.2021034423287 L 18.474210236215,68.3581671495395 L 18.4468384460954,68.5128173346421 L 18.4098101024833,68.6654436640087 L 18.3632713393342,68.8154437912459 L 18.3074058238848,68.9622257343798 L 18.2424340318019,69.1052102121393 L 18.1686123770661,69.2438329301139 L 18.0862322000228,69.3775468077666 L 17.9956186175949,69.5058241375104 L 17.8971292401947,69.628158667329 L 17.7911527603994,69.7440675987225 L 17.6781074189587,69.8530934920926 L 17.5584393541897,69.9548060720473 L 17.4326208412729,70.0488039255016 L 17.3011484283978,70.1347160858714 L 17.164540977114,70.2122034971093 L 17.0233376146217,70.2809603518037 L 16.8780956060829,70.3407152980613 L 16.7293881553507,70.3912325104084 L 16.5778021427951,70.4323126204873 L 16.4239358091545,70.463793503871 L 16.2683963945531,70.485550919895 L 16.111797742001,70.4974990019785 L 15.9547578748367,70.4995905965 L 15.7978965576714,70.4918174488913 L 15.6418328504606,70.474210236215 L 15.487182665358,70.4468384460955 L 15.3345563359913,70.4098101024834 L 15.1845562087542,70.3632713393343 L 15.0377742656202,70.3074058238848 L 14.8947897878608,70.2424340318019 L 14.7561670698861,70.1686123770662 L 14.6224531922334,70.0862322000229 L 14.4941758624897,69.9956186175949 L 14.3718413326711,69.8971292401948 L 14.2559324012775,69.7911527603995 L 14.1469065079074,69.6781074189587 L 14.0451939279527,69.5584393541897 L 13.9511960744984,69.4326208412729 L 13.8652839141286,69.3011484283978 L 13.7877965028908,69.164540977114 L 13.7190396481963,69.0233376146217 L 13.6592847019388,68.878095606083 L 13.6087674895916,68.7293881553508 L 13.5676873795128,68.5778021427951 L 13.5362064961291,68.4239358091546 L 13.514449080105,68.2683963945531 L 13.5025009980215,68.111797742001 L 13.5004094035001,67.9547578748368 L 13.5081825511088,67.7978965576714 L 13.5257897637851,67.6418328504606 L 13.5531615539046,67.487182665358 L 13.5901898975167,67.3345563359913 L 13.6367286606658,67.1845562087542 L 13.6925941761152,67.0377742656203 L 13.7575659681981,66.8947897878608 L 13.8313876229339,66.7561670698862 L 13.9137677999772,66.6224531922335 L 14.0043813824051,66.4941758624898 L 14.1028707598053,66.3718413326712 L 14.2088472396006,66.2559324012776 L 14.3218925810413,66.1469065079075 L 14.4415606458103,66.0451939279528 L 14.5673791587271,65.9511960744985 L 14.6988515716022,65.8652839141287 L 14.835459022886,65.7877965028908 L 14.9766623853784,65.7190396481963 L 15.1219043939171,65.6592847019388 L 15.2706118446493,65.6087674895917 L 15.4221978572049,65.5676873795128 L 15.5760641908455,65.5362064961292 L 15.7316036054469,65.514449080105 L 15.888202257999,65.5025009980216 L 16.0452421251633,65.5004094035002 L 16.2021034423287,65.5081825511088 L 16.3581671495394,65.5257897637851 L 16.512817334642,65.5531615539046 L 16.6654436640087,65.5901898975167 L 16.8154437912459,65.6367286606658 L 16.9622257343798,65.6925941761153 L 17.1052102121392,65.7575659681982 L 17.2438329301139,65.8313876229339 L 17.3775468077666,65.9137677999772 M 46.3574069565854,65.9006080989454 L 46.4865503321895,65.9899830573184 L 46.6098269727728,66.0872906342747 L 46.7267503617545,66.1921468012638 L 46.8368590559355,66.3041377388987 L 46.9397185066039,66.4228214701124 L 47.0349227744998,66.5477296044393 L 47.1220961318725,66.6783691865382 L 47.2008945453062,66.8142246416621 L 47.2710070334627,66.9547598103962 L 47.3321568943825,67.0994200646338 L 47.3841027975013,67.2476344964405 L 47.4266397360714,67.3988181711666 L 47.4595998362294,67.5523744359173 L 47.4828530195181,67.7076972742687 L 47.4963075162464,67.8641736979382 L 47.4999102276625,68.0211861659688 L 47.4936469355104,68.1781150218814 L 47.4775423581427,68.3343409391755 L 47.4516600529689,68.4892473655287 L 47.4161021656229,68.6422229560459 L 47.3710090268413,68.7926639859594 L 47.3165585986418,68.939976733254 L 47.2529657719884,69.083579821817 L 47.180481518715,69.2229065158639 L 47.0993919010546,69.3574069565854 L 47.0100169426816,69.4865503321896 L 46.9127093657253,69.6098269727728 L 46.8078531987362,69.7267503617545 L 46.6958622611013,69.8368590559356 L 46.5771785298876,69.9397185066039 L 46.4522703955608,70.0349227744998 L 46.3216308134619,70.1220961318725 L 46.1857753583379,70.2008945453062 L 46.0452401896038,70.2710070334627 L 45.9005799353662,70.3321568943825 L 45.7523655035596,70.3841027975014 L 45.6011818288334,70.4266397360714 L 45.4476255640828,70.4595998362294 L 45.2923027257313,70.4828530195181 L 45.1358263020618,70.4963075162464 L 44.9788138340313,70.4999102276626 L 44.8218849781187,70.4936469355104 L 44.6656590608245,70.4775423581427 L 44.5107526344714,70.4516600529689 L 44.3577770439541,70.416102165623 L 44.2073360140406,70.3710090268414 L 44.060023266746,70.3165585986418 L 43.916420178183,70.2529657719884 L 43.7770934841362,70.1804815187151 L 43.6425930434147,70.0993919010547 L 43.5134496678105,70.0100169426817 L 43.3901730272272,69.9127093657253 L 43.2732496382455,69.8078531987363 L 43.1631409440645,69.6958622611014 L 43.0602814933961,69.5771785298876 L 42.9650772255002,69.4522703955608 L 42.8779038681275,69.3216308134619 L 42.7991054546938,69.185775358338 L 42.7289929665373,69.0452401896039 L 42.6678431056175,68.9005799353663 L 42.6158972024987,68.7523655035596 L 42.5733602639286,68.6011818288335 L 42.5404001637706,68.4476255640828 L 42.5171469804819,68.2923027257314 L 42.5036924837536,68.1358263020619 L 42.5000897723375,67.9788138340313 L 42.5063530644897,67.8218849781187 L 42.5224576418573,67.6656590608246 L 42.5483399470311,67.5107526344714 L 42.5838978343771,67.3577770439542 L 42.6289909731587,67.2073360140407 L 42.6834414013582,67.060023266746 L 42.7470342280117,66.916420178183 L 42.819518481285,66.7770934841362 L 42.9006080989454,66.6425930434147 L 42.9899830573184,66.5134496678105 L 43.0872906342747,66.3901730272273 L 43.1921468012638,66.2732496382456 L 43.3041377388987,66.1631409440645 L 43.4228214701124,66.0602814933962 L 43.5477296044393,65.9650772255003 L 43.6783691865382,65.8779038681276 L 43.8142246416621,65.7991054546938 L 43.9547598103962,65.7289929665374 L 44.0994200646338,65.6678431056176 L 44.2476344964404,65.6158972024987 L 44.3988181711666,65.5733602639287 L 44.5523744359173,65.5404001637707 L 44.7076972742687,65.517146980482 L 44.8641736979382,65.5036924837537 L 45.0211861659688,65.5000897723376 L 45.1781150218813,65.5063530644897 L 45.3343409391755,65.5224576418574 L 45.4892473655286,65.5483399470312 L 45.6422229560459,65.5838978343771 L 45.7926639859594,65.6289909731587 L 45.939976733254,65.6834414013583 L 46.083579821817,65.7470342280117 L 46.2229065158638,65.819518481285 L 46.3574069565854,65.9006080989454 M 46.8768337636221,14.3484870500879 L 46.9768296170459,14.46959330073 L 47.0690238270987,14.5967393674381 L 47.153052545353,14.7294234627742 L 47.228584148847,14.8671219432315 L 47.2953205488488,15.009291375816 L 47.3529983672764,15.1553706827285 L 47.4013899761311,15.3047833556818 L 47.4403043958407,15.456939731116 L 47.469588048969,15.6112393173308 L 47.4891253663155,15.7670731643523 L 47.4988392430143,15.92382626718 L 47.498691342832,16.0808799929305 L 47.488682249463,16.2376145222996 L 47.4688514642262,16.3934112957049 L 47.439277250171,16.5476554544585 L 47.4000763232092,16.6997382673334 L 47.3514033914902,16.8490595329471 L 47.2934505448391,16.9950299484827 L 47.2264464966653,17.1370734353976 L 47.1506556813359,17.2746294129424 L 47.0663772105733,17.4071550105171 L 46.9739436929986,17.5341272101332 L 46.8737199214767,17.655044910527 L 46.7661014334459,17.7694309047771 L 46.6515129499124,17.8768337636221 L 46.53040669927,17.976829617046 L 46.4032606325619,18.0690238270987 L 46.2705765372258,18.1530525453531 L 46.1328780567686,18.2285841488471 L 45.9907086241841,18.2953205488488 L 45.8446293172716,18.3529983672764 L 45.6952166443182,18.4013899761311 L 45.5430602688841,18.4403043958408 L 45.3887606826692,18.469588048969 L 45.2329268356478,18.4891253663155 L 45.0761737328201,18.4988392430144 L 44.9191200070695,18.498691342832 L 44.7623854777005,18.4886822494631 L 44.6065887042952,18.4688514642262 L 44.4523445455416,18.439277250171 L 44.3002617326667,18.4000763232092 L 44.1509404670529,18.3514033914903 L 44.0049700515174,18.2934505448391 L 43.8629265646025,18.2264464966654 L 43.7253705870577,18.1506556813359 L 43.592844989483,18.0663772105734 L 43.4658727898668,17.9739436929986 L 43.344955089473,17.8737199214767 L 43.2305690952229,17.7661014334459 L 43.1231662363779,17.6515129499124 L 43.0231703829542,17.53040669927 L 42.9309761729013,17.403260632562 L 42.846947454647,17.270576537226 L 42.771415851153,17.1328780567686 L 42.7046794511513,16.9907086241841 L 42.6470016327236,16.8446293172716 L 42.5986100238689,16.6952166443183 L 42.5596956041593,16.5430602688841 L 42.530411951031,16.3887606826693 L 42.5108746336845,16.2329268356478 L 42.5011607569857,16.0761737328202 L 42.501308657168,15.9191200070696 L 42.511317750537,15.7623854777005 L 42.5311485357738,15.6065887042953 L 42.560722749829,15.4523445455416 L 42.5999236767908,15.3002617326667 L 42.6485966085098,15.1509404670531 L 42.7065494551609,15.0049700515174 L 42.7735535033347,14.8629265646025 L 42.8493443186641,14.7253705870578 L 42.9336227894267,14.5928449894831 L 43.0260563070014,14.4658727898667 L 43.1262800785233,14.344955089473 L 43.2338985665541,14.2305690952229 L 43.3484870500877,14.1231662363781 L 43.46959330073,14.0231703829542 L 43.5967393674381,13.9309761729014 L 43.7294234627742,13.8469474546469 L 43.8671219432314,13.7714158511531 L 44.009291375816,13.7046794511514 L 44.1553706827285,13.6470016327237 L 44.3047833556818,13.59861002387 L 44.456939731116,13.5596956041607 L 44.6112393173308,13.5304119510298 L 44.7670888215855,13.4778952311198 L 44.9238340242844,13.4778952311198 L 45.080887813768,13.4778952311198 L 45.2376303881639,13.4778952311198 L 45.3934112957048,13.5311485357747 L 45.5476554544585,13.5607227498274 L 45.6997382673334,13.5999236767909 L 45.8490595329471,13.6485966085089 L 45.9950299484827,13.7065494551604 L 46.1370734353975,13.7735535033349 L 46.2746294129423,13.8493443186641 L 46.407155010517,13.9336227894265 L 46.5341272101332,14.0260563070014 L 46.655044910527,14.1262800785238 L 46.7694309047771,14.233898566554 L 46.8768337636221,14.3484870500879 M 17.7108353722162,14.1770786278137 L 17.8219216094329,14.2880999885855 L 17.9258175544141,14.4058774366096 L 18.0221131773303,14.5299461581061 L 18.1104284433513,14.6598165105129 L 18.1904148124693,14.7949759548811 L 18.2617566150279,14.9348910786322 L 18.3241722975253,15.079009700694 L 18.3774155337777,15.2267630507067 L 18.4212761970561,15.3775680136999 L 18.4555811893606,15.5308294313809 L 18.480195124559,15.6859424509526 L 18.4950208626942,15.8422949121912 L 18.4999998933509,15.9992697633627 L 18.4951125665699,16.1562474964446 L 18.4803781703971,16.3126085920408 L 18.4558548547627,16.4677359643415 L 18.42163940199,16.6210173964791 L 18.3778668448394,16.7718479566687 L 18.3247099335963,16.9196323855971 L 18.2623784543042,17.0637874456396 L 18.1911184008353,17.2037442226324 L 18.1112110040652,17.338950371117 L 18.0229716219825,17.4688722941949 L 17.9267484951157,17.5929972493916 L 17.8229213721864,17.7108353722162 L 17.7119000114146,17.821921609433 L 17.5941225633904,17.9258175544141 L 17.4700538418939,18.0221131773304 L 17.3401834894872,18.1104284433513 L 17.205024045119,18.1904148124694 L 17.0651089213679,18.261756615028 L 16.9209902993061,18.3241722975254 L 16.7732369492934,18.3774155337778 L 16.6224319863001,18.4212761970562 L 16.4691705686191,18.4555811893607 L 16.3140575490474,18.4801951245591 L 16.1577050878089,18.4950208626942 L 16.0007302366373,18.4999998933509 L 15.8437525035554,18.4951125665699 L 15.6873914079592,18.4803781703971 L 15.5322640356586,18.4558548547628 L 15.378982603521,18.42163940199 L 15.2281520433314,18.3778668448395 L 15.080367614403,18.3247099335963 L 14.9362125543605,18.2623784543042 L 14.7962557773676,18.1911184008354 L 14.6610496288831,18.1112110040652 L 14.5311277058051,18.0229716219826 L 14.4070027506084,17.9267484951158 L 14.2891646277838,17.8229213721864 L 14.1780783905671,17.7119000114146 L 14.0741824455859,17.5941225633905 L 13.9778868226697,17.470053841894 L 13.8895715566487,17.3401834894872 L 13.8095851875307,17.205024045119 L 13.7382433849721,17.0651089213679 L 13.6758277024747,16.9209902993061 L 13.6225844662223,16.7732369492934 L 13.5787238029439,16.6224319863002 L 13.5444188106394,16.4691705686192 L 13.519804875441,16.3140575490475 L 13.5049791373058,16.1577050878089 L 13.5000001066491,16.0007302366374 L 13.5048874334302,15.8437525035554 L 13.5196218296029,15.6873914079593 L 13.5441451452373,15.5322640356587 L 13.57836059801,15.378982603521 L 13.6221331551606,15.2281520433314 L 13.6752900664037,15.080367614403 L 13.7376215456958,14.9362125543605 L 13.8088815991647,14.7962557773677 L 13.8887889959348,14.6610496288831 L 13.9770283780175,14.5311277058052 L 14.0732515048842,14.4070027506085 L 14.1770786278136,14.2891646277839 L 14.2880999885854,14.1780783905671 L 14.4058774366096,14.074182445586 L 14.5299461581061,13.9778868226697 L 14.6598165105128,13.8895715566488 L 14.794975954881,13.8095851875307 L 14.9348910786321,13.7382433849721 L 15.079009700694,13.6758277024747 L 15.2267630507067,13.6225844662224 L 15.3775680136999,13.5787238029439 L 15.5308294313809,13.5444188106395 L 15.6859424509526,13.5198048754411 L 15.8422949121911,13.5049791373058 L 15.9992697633627,13.5000001066492 L 16.1562474964446,13.5048874334301 L 16.3126085920408,13.519621829603 L 16.4677359643414,13.5441451452373 L 16.621017396479,13.5783605980101 L 16.7718479566686,13.6221331551607 L 16.919632385597,13.6752900664038 L 17.0637874456395,13.7376215456959 L 17.2037442226324,13.8088815991647 L 17.3389503711169,13.8887889959349 L 17.4688722941949,13.9770283780175 L 17.5929972493916,14.0732515048843 L 17.7108353722162,14.1770786278137 "
  />
  <path id="face0-interior"
 style="fill:none;stroke:rgb(0,255,0);stroke-width:0.3;stroke-miterlimit:4;stroke-dasharray:none;stroke-linejoin:round;stroke-linecap:round"
        d="M 10.0342205545048,13.4778952311198 M 10.0,14.0 M 10.0,70.0 M 10.0342205545048,70.5221047688803 M 10.1362966948437,71.0352761804101 M 10.3044818699548,71.5307337294604 M 10.5358983848622,72.0000000000001 M 10.8265866388351,72.4350457160349 M 11.1715728752538,72.8284271247462 M 11.5649542839651,73.173413361165 M 12.0,73.4641016151378 M 12.4692662705396,73.6955181300452 M 12.9647238195899,73.8637033051563 M 13.4778952311198,73.9657794454953 M 14.0,74.0000000000001 M 47.0,74.0000000000001 M 47.5221047688802,73.9657794454953 M 48.0352761804101,73.8637033051563 M 48.5307337294604,73.6955181300452 M 49.0,73.4641016151378 M 49.4350457160349,73.173413361165 M 49.8284271247462,72.8284271247462 M 50.1734133611649,72.4350457160349 M 50.4641016151378,72.0000000000001 M 50.6955181300452,71.5307337294604 M 50.8637033051563,71.0352761804101 M 50.9657794454953,70.5221047688803 M 51.0,70.0 M 51.0,13.9999999999998 M 50.9657794454953,13.4778952311198 M 50.8637033051563,12.96472381959 M 50.6955181300452,12.4692662705397 M 50.4641016151378,12.0000000000002 M 50.1734133611649,11.5649542839651 M 49.8284271247462,11.1715728752539 M 49.4350457160349,10.826586638835 M 49.0,10.5358983848623 M 48.5307337294604,10.3044818699549 M 48.0352761804101,10.1362966948437 M 47.5221047688802,10.0342205545048 M 47.0,10.0 M 14.0,10.0000000000001 M 13.4778952311198,10.0342205545048 M 12.9647238195899,10.1362966948438 M 12.4692662705396,10.3044818699549 M 12.0,10.5358983848623 M 11.5649542839651,10.8265866388351 M 11.1715728752538,11.1715728752538 M 10.8265866388351,11.5649542839652 M 10.5358983848622,12.0000000000001 M 10.3044818699548,12.4692662705397 M 10.1362966948437,12.96472381959 M 41.5,25.5000000000001 M 19.5,25.5 M 19.5,15.5 M 41.5,15.5000000000001 M 17.3775468077666,65.9137677999772 M 17.5058241375103,66.0043813824052 M 17.6281586673289,66.1028707598053 M 17.7440675987225,66.2088472396006 M 17.8530934920926,66.3218925810414 M 17.9548060720473,66.4415606458104 M 18.0488039255016,66.5673791587272 M 18.1347160858714,66.6988515716023 M 18.2122034971093,66.8354590228861 M 18.2809603518037,66.9766623853784 M 18.3407152980612,67.1219043939171 M 18.3912325104084,67.2706118446494 M 18.4323126204872,67.422197857205 M 18.4637935038709,67.5760641908455 M 18.485550919895,67.731603605447 M 18.4974990019785,67.8882022579991 M 18.4995905964999,68.0452421251633 M 18.4918174488913,68.2021034423287 M 18.474210236215,68.3581671495395 M 18.4468384460954,68.5128173346421 M 18.4098101024833,68.6654436640087 M 18.3632713393342,68.8154437912459 M 18.3074058238848,68.9622257343798 M 18.2424340318019,69.1052102121393 M 18.1686123770661,69.2438329301139 M 18.0862322000228,69.3775468077666 M 17.9956186175949,69.5058241375104 M 17.8971292401947,69.628158667329 M 17.7911527603994,69.7440675987225 M 17.6781074189587,69.8530934920926 M 17.5584393541897,69.9548060720473 M 17.4326208412729,70.0488039255016 M 17.3011484283978,70.1347160858714 M 17.164540977114,70.2122034971093 M 17.0233376146217,70.2809603518037 M 16.8780956060829,70.3407152980613 M 16.7293881553507,70.3912325104084 M 16.5778021427951,70.4323126204873 M 16.4239358091545,70.463793503871 M 16.2683963945531,70.485550919895 M 16.111797742001,70.4974990019785 M 15.9547578748367,70.4995905965 M 15.7978965576714,70.4918174488913 M 15.6418328504606,70.474210236215 M 15.487182665358,70.4468384460955 M 15.3345563359913,70.4098101024834 M 15.1845562087542,70.3632713393343 M 15.0377742656202,70.3074058238848 M 14.8947897878608,70.2424340318019 M 14.7561670698861,70.1686123770662 M 14.6224531922334,70.0862322000229 M 14.4941758624897,69.9956186175949 M 14.3718413326711,69.8971292401948 M 14.2559324012775,69.7911527603995 M 14.1469065079074,69.6781074189587 M 14.0451939279527,69.5584393541897 M 13.9511960744984,69.4326208412729 M 13.8652839141286,69.3011484283978 M 13.7877965028908,69.164540977114 M 13.7190396481963,69.0233376146217 M 13.6592847019388,68.878095606083 M 13.6087674895916,68.7293881553508 M 13.5676873795128,68.5778021427951 M 13.5362064961291,68.4239358091546 M 13.514449080105,68.2683963945531 M 13.5025009980215,68.111797742001 M 13.5004094035001,67.9547578748368 M 13.5081825511088,67.7978965576714 M 13.5257897637851,67.6418328504606 M 13.5531615539046,67.487182665358 M 13.5901898975167,67.3345563359913 M 13.6367286606658,67.1845562087542 M 13.6925941761152,67.0377742656203 M 13.7575659681981,66.8947897878608 M 13.8313876229339,66.7561670698862 M 13.9137677999772,66.6224531922335 M 14.0043813824051,66.4941758624898 M 14.1028707598053,66.3718413326712 M 14.2088472396006,66.2559324012776 M 14.3218925810413,66.1469065079075 M 14.4415606458103,66.0451939279528 M 14.5673791587271,65.9511960744985 M 14.6988515716022,65.8652839141287 M 14.835459022886,65.7877965028908 M 14.9766623853784,65.7190396481963 M 15.1219043939171,65.6592847019388 M 15.2706118446493,65.6087674895917 M 15.4221978572049,65.5676873795128 M 15.5760641908455,65.5362064961292 M 15.7316036054469,65.514449080105 M 15.888202257999,65.5025009980216 M 16.0452421251633,65.5004094035002 M 16.2021034423287,65.5081825511088 M 16.3581671495394,65.5257897637851 M 16.512817334642,65.5531615539046 M 16.6654436640087,65.5901898975167 M 16.8154437912459,65.6367286606658 M 16.9622257343798,65.6925941761153 M 17.1052102121392,65.7575659681982 M 17.2438329301139,65.8313876229339 M 46.3574069565854,65.9006080989454 M 46.4865503321895,65.9899830573184 M 46.6098269727728,66.0872906342747 M 46.7267503617545,66.1921468012638 M 46.8368590559355,66.3041377388987 M 46.9397185066039,66.4228214701124 M 47.0349227744998,66.5477296044393 M 47.1220961318725,66.6783691865382 M 47.2008945453062,66.8142246416621 M 47.2710070334627,66.9547598103962 M 47.3321568943825,67.0994200646338 M 47.3841027975013,67.2476344964405 M 47.4266397360714,67.3988181711666 M 47.4595998362294,67.5523744359173 M 47.4828530195181,67.7076972742687 M 47.4963075162464,67.8641736979382 M 47.4999102276625,68.0211861659688 M 47.4936469355104,68.1781150218814 M 47.4775423581427,68.3343409391755 M 47.4516600529689,68.4892473655287 M 47.4161021656229,68.6422229560459 M 47.3710090268413,68.7926639859594 M 47.3165585986418,68.939976733254 M 47.2529657719884,69.083579821817 M 47.180481518715,69.2229065158639 M 47.0993919010546,69.3574069565854 M 47.0100169426816,69.4865503321896 M 46.9127093657253,69.6098269727728 M 46.8078531987362,69.7267503617545 M 46.6958622611013,69.8368590559356 M 46.5771785298876,69.9397185066039 M 46.4522703955608,70.0349227744998 M 46.3216308134619,70.1220961318725 M 46.1857753583379,70.2008945453062 M 46.0452401896038,70.2710070334627 M 45.9005799353662,70.3321568943825 M 45.7523655035596,70.3841027975014 M 45.6011818288334,70.4266397360714 M 45.4476255640828,70.4595998362294 M 45.2923027257313,70.4828530195181 M 45.1358263020618,70.4963075162464 M 44.9788138340313,70.4999102276626 M 44.8218849781187,70.4936469355104 M 44.6656590608245,70.4775423581427 M 44.5107526344714,70.4516600529689 M 44.3577770439541,70.416102165623 M 44.2073360140406,70.3710090268414 M 44.060023266746,70.3165585986418 M 43.916420178183,70.2529657719884 M 43.7770934841362,70.1804815187151 M 43.6425930434147,70.0993919010547 M 43.5134496678105,70.0100169426817 M 43.3901730272272,69.9127093657253 M 43.2732496382455,69.8078531987363 M 43.1631409440645,69.6958622611014 M 43.0602814933961,69.5771785298876 M 42.9650772255002,69.4522703955608 M 42.8779038681275,69.3216308134619 M 42.7991054546938,69.185775358338 M 42.7289929665373,69.0452401896039 M 42.6678431056175,68.9005799353663 M 42.6158972024987,68.7523655035596 M 42.5733602639286,68.6011818288335 M 42.5404001637706,68.4476255640828 M 42.5171469804819,68.2923027257314 M 42.5036924837536,68.1358263020619 M 42.5000897723375,67.9788138340313 M 42.5063530644897,67.8218849781187 M 42.5224576418573,67.6656590608246 M 42.5483399470311,67.5107526344714 M 42.5838978343771,67.3577770439542 M 42.6289909731587,67.2073360140407 M 42.6834414013582,67.060023266746 M 42.7470342280117,66.916420178183 M 42.819518481285,66.7770934841362 M 42.9006080989454,66.6425930434147 M 42.9899830573184,66.5134496678105 M 43.0872906342747,66.3901730272273 M 43.1921468012638,66.2732496382456 M 43.3041377388987,66.1631409440645 M 43.4228214701124,66.0602814933962 M 43.5477296044393,65.9650772255003 M 43.6783691865382,65.8779038681276 M 43.8142246416621,65.7991054546938 M 43.9547598103962,65.7289929665374 M 44.0994200646338,65.6678431056176 M 44.2476344964404,65.6158972024987 M 44.3988181711666,65.5733602639287 M 44.5523744359173,65.5404001637707 M 44.7076972742687,65.517146980482 M 44.8641736979382,65.5036924837537 M 45.0211861659688,65.5000897723376 M 45.1781150218813,65.5063530644897 M 45.3343409391755,65.5224576418574 M 45.4892473655286,65.5483399470312 M 45.6422229560459,65.5838978343771 M 45.7926639859594,65.6289909731587 M 45.939976733254,65.6834414013583 M 46.083579821817,65.7470342280117 M 46.2229065158638,65.819518481285 M 46.8768337636221,14.3484870500879 M 46.9768296170459,14.46959330073 M 47.0690238270987,14.5967393674381 M 47.153052545353,14.7294234627742 M 47.228584148847,14.8671219432315 M 47.2953205488488,15.009291375816 M 47.3529983672764,15.1553706827285 M 47.4013899761311,15.3047833556818 M 47.4403043958407,15.456939731116 M 47.469588048969,15.6112393173308 M 47.4891253663155,15.7670731643523 M 47.4988392430143,15.92382626718 M 47.498691342832,16.0808799929305 M 47.488682249463,16.2376145222996 M 47.4688514642262,16.3934112957049 M 47.439277250171,16.5476554544585 M 47.4000763232092,16.6997382673334 M 47.3514033914902,16.8490595329471 M 47.2934505448391,16.9950299484827 M 47.2264464966653,17.1370734353976 M 47.1506556813359,17.2746294129424 M 47.0663772105733,17.4071550105171 M 46.9739436929986,17.5341272101332 M 46.8737199214767,17.655044910527 M 46.7661014334459,17.7694309047771 M 46.6515129499124,17.8768337636221 M 46.53040669927,17.976829617046 M 46.4032606325619,18.0690238270987 M 46.2705765372258,18.1530525453531 M 46.1328780567686,18.2285841488471 M 45.9907086241841,18.2953205488488 M 45.8446293172716,18.3529983672764 M 45.6952166443182,18.4013899761311 M 45.5430602688841,18.4403043958408 M 45.3887606826692,18.469588048969 M 45.2329268356478,18.4891253663155 M 45.0761737328201,18.4988392430144 M 44.9191200070695,18.498691342832 M 44.7623854777005,18.4886822494631 M 44.6065887042952,18.4688514642262 M 44.4523445455416,18.439277250171 M 44.3002617326667,18.4000763232092 M 44.1509404670529,18.3514033914903 M 44.0049700515174,18.2934505448391 M 43.8629265646025,18.2264464966654 M 43.7253705870577,18.1506556813359 M 43.592844989483,18.0663772105734 M 43.4658727898668,17.9739436929986 M 43.344955089473,17.8737199214767 M 43.2305690952229,17.7661014334459 M 43.1231662363779,17.6515129499124 M 43.0231703829542,17.53040669927 M 42.9309761729013,17.403260632562 M 42.846947454647,17.270576537226 M 42.771415851153,17.1328780567686 M 42.7046794511513,16.9907086241841 M 42.6470016327236,16.8446293172716 M 42.5986100238689,16.6952166443183 M 42.5596956041593,16.5430602688841 M 42.530411951031,16.3887606826693 M 42.5108746336845,16.2329268356478 M 42.5011607569857,16.0761737328202 M 42.501308657168,15.9191200070696 M 42.511317750537,15.7623854777005 M 42.5311485357738,15.6065887042953 M 42.560722749829,15.4523445455416 M 42.5999236767908,15.3002617326667 M 42.6485966085098,15.1509404670531 M 42.7065494551609,15.0049700515174 M 42.7735535033347,14.8629265646025 M 42.8493443186641,14.7253705870578 M 42.9336227894267,14.5928449894831 M 43.0260563070014,14.4658727898667 M 43.1262800785233,14.344955089473 M 43.2338985665541,14.2305690952229 M 43.3484870500877,14.1231662363781 M 43.46959330073,14.0231703829542 M 43.5967393674381,13.9309761729014 M 43.7294234627742,13.8469474546469 M 43.8671219432314,13.7714158511531 M 44.009291375816,13.7046794511514 M 44.1553706827285,13.6470016327237 M 44.3047833556818,13.59861002387 M 44.456939731116,13.5596956041607 M 44.6112393173308,13.5304119510298 M 44.7670888215855,13.4778952311198 M 44.9238340242844,13.4778952311198 M 45.080887813768,13.4778952311198 M 45.2376303881639,13.4778952311198 M 45.3934112957048,13.5311485357747 M 45.5476554544585,13.5607227498274 M 45.6997382673334,13.5999236767909 M 45.8490595329471,13.6485966085089 M 45.9950299484827,13.7065494551604 M 46.1370734353975,13.7735535033349 M 46.2746294129423,13.8493443186641 M 46.407155010517,13.9336227894265 M 46.5341272101332,14.0260563070014 M 46.655044910527,14.1262800785238 M 46.7694309047771,14.233898566554 M 17.7108353722162,14.1770786278137 M 17.8219216094329,14.2880999885855 M 17.9258175544141,14.4058774366096 M 18.0221131773303,14.5299461581061 M 18.1104284433513,14.6598165105129 M 18.1904148124693,14.7949759548811 M 18.2617566150279,14.9348910786322 M 18.3241722975253,15.079009700694 M 18.3774155337777,15.2267630507067 M 18.4212761970561,15.3775680136999 M 18.4555811893606,15.5308294313809 M 18.480195124559,15.6859424509526 M 18.4950208626942,15.8422949121912 M 18.4999998933509,15.9992697633627 M 18.4951125665699,16.1562474964446 M 18.4803781703971,16.3126085920408 M 18.4558548547627,16.4677359643415 M 18.42163940199,16.6210173964791 M 18.3778668448394,16.7718479566687 M 18.3247099335963,16.9196323855971 M 18.2623784543042,17.0637874456396 M 18.1911184008353,17.2037442226324 M 18.1112110040652,17.338950371117 M 18.0229716219825,17.4688722941949 M 17.9267484951157,17.5929972493916 M 17.8229213721864,17.7108353722162 M 17.7119000114146,17.821921609433 M 17.5941225633904,17.9258175544141 M 17.4700538418939,18.0221131773304 M 17.3401834894872,18.1104284433513 M 17.205024045119,18.1904148124694 M 17.0651089213679,18.261756615028 M 16.9209902993061,18.3241722975254 M 16.7732369492934,18.3774155337778 M 16.6224319863001,18.4212761970562 M 16.4691705686191,18.4555811893607 M 16.3140575490474,18.4801951245591 M 16.1577050878089,18.4950208626942 M 16.0007302366373,18.4999998933509 M 15.8437525035554,18.4951125665699 M 15.6873914079592,18.4803781703971 M 15.5322640356586,18.4558548547628 M 15.378982603521,18.42163940199 M 15.2281520433314,18.3778668448395 M 15.080367614403,18.3247099335963 M 14.9362125543605,18.2623784543042 M 14.7962557773676,18.1911184008354 M 14.6610496288831,18.1112110040652 M 14.5311277058051,18.0229716219826 M 14.4070027506084,17.9267484951158 M 14.2891646277838,17.8229213721864 M 14.1780783905671,17.7119000114146 M 14.0741824455859,17.5941225633905 M 13.9778868226697,17.470053841894 M 13.8895715566487,17.3401834894872 M 13.8095851875307,17.205024045119 M 13.7382433849721,17.0651089213679 M 13.6758277024747,16.9209902993061 M 13.6225844662223,16.7732369492934 M 13.5787238029439,16.6224319863002 M 13.5444188106394,16.4691705686192 M 13.519804875441,16.3140575490475 M 13.5049791373058,16.1577050878089 M 13.5000001066491,16.0007302366374 M 13.5048874334302,15.8437525035554 M 13.5196218296029,15.6873914079593 M 13.5441451452373,15.5322640356587 M 13.57836059801,15.378982603521 M 13.6221331551606,15.2281520433314 M 13.6752900664037,15.080367614403 M 13.7376215456958,14.9362125543605 M 13.8088815991647,14.7962557773677 M 13.8887889959348,14.6610496288831 M 13.9770283780175,14.5311277058052 M 14.0732515048842,14.4070027506085 M 14.1770786278136,14.2891646277839 M 14.2880999885854,14.1780783905671 M 14.4058774366096,14.074182445586 M 14.5299461581061,13.9778868226697 M 14.6598165105128,13.8895715566488 M 14.794975954881,13.8095851875307 M 14.9348910786321,13.7382433849721 M 15.079009700694,13.6758277024747 M 15.2267630507067,13.6225844662224 M 15.3775680136999,13.5787238029439 M 15.5308294313809,13.5444188106395 M 15.6859424509526,13.5198048754411 M 15.8422949121911,13.5049791373058 M 15.9992697633627,13.5000001066492 M 16.1562474964446,13.5048874334301 M 16.3126085920408,13.519621829603 M 16.4677359643414,13.5441451452373 M 16.621017396479,13.5783605980101 M 16.7718479566686,13.6221331551607 M 16.919632385597,13.6752900664038 M 17.0637874456395,13.7376215456959 M 17.2037442226324,13.8088815991647 M 17.3389503711169,13.8887889959349 M 17.4688722941949,13.9770283780175 M 17.5929972493916,14.0732515048843 "
  />
</svg>
