<?xml version="1.0" standalone="no"?>
<!DOCTYPE svg PUBLIC "-//W3C//DTD SVG 1.1//EN" "http://www.w3.org/Graphics/SVG/1.1/DTD/svg11.dtd">
<svg width="104.0mm" height="124.0mm"
 viewBox="0 0 104.0 124.0"
 xmlns="http://www.w3.org/2000/svg" version="1.1"
 xmlns:xlink="http://www.w3.org/1999/xlink">
<desc>Output from Flights of Ideas SVG Sketchup Plugin</desc>

<g id="text_annotations" font-size="10" stroke="rgb(255,0,0)" stroke-width="0.3">
</g>
  <path id="face0-cut"
 style="fill:none;stroke:rgb(0,0,255);stroke-width:0.3;stroke-miterlimit:4;stroke-dasharray:none;stroke-linejoin:round;stroke-linecap:round"
        d="M 94.0,110.0 L 94.0,14.0 L 93.9657794454953,13.4778952311198 L 93.8637033051563,12.9647238195899 L 93.6955181300452,12.4692662705396 L 93.4641016151378,12.0 L 93.173413361165,11.5649542839651 L 92.8284271247462,11.1715728752538 L 92.4350457160349,10.826586638835 L 92.0,10.5358983848622 L 91.5307337294604,10.3044818699549 L 91.0352761804101,10.1362966948437 L 90.5221047688803,10.0342205545048 L 90.0,10.0 L 14.0,10.0 L 13.4778952311198,10.0342205545047 L 12.9647238195899,10.1362966948437 L 12.4692662705396,10.3044818699549 L 12.0,10.5358983848622 L 11.5649542839651,10.826586638835 L 11.1715728752538,11.1715728752538 L 10.8265866388351,11.5649542839651 L 10.5358983848623,12.0 L 10.3044818699549,12.4692662705396 L 10.1362966948438,12.9647238195899 L 10.0342205545048,13.4778952311198 L 10.0,14.0 L 10.0,110.0 L 10.0342205545047,110.522104768879 L 10.1362966948437,111.03527618041 L 10.3044818699549,111.53073372946 L 10.5358983848622,112.0 L 10.8265866388351,112.435045716035 L 11.1715728752538,112.828427124746 L 11.5649542839651,113.173413361165 L 12.0,113.464101615138 L 12.4692662705396,113.695518130045 L 12.9647238195899,113.863703305156 L 13.4778952311198,113.965779445495 L 14.0,114.0 L 90.0,114.0 L 90.5221047688802,113.965779445495 L 91.0352761804101,113.863703305156 L 91.5307337294604,113.695518130045 L 92.0,113.464101615138 L 92.4350457160349,113.173413361165 L 92.8284271247462,112.828427124746 L 93.173413361165,112.435045716035 L 93.4641016151378,112.0 L 93.6955181300452,111.53073372946 L 93.8637033051563,111.03527618041 L 93.9657794454953,110.52210476888 L 94.0,110.0 M 88.1004648312469,17.5968427654852 L 88.0,17.6 L 87.8995351687531,17.5968427654852 L 87.7994668262971,17.5873835221032 L 87.7001898966629,17.5716596011659 L 87.6020961805363,17.5497330578058 L 87.5055728090001,17.5216904260722 L 87.4110007157046,17.4876423774212 L 87.3187531334959,17.4477232839456 L 87.2291941214373,17.4020906880702 L 87.1426771280336,17.3509246808032 L 87.0595435963321,17.2944271909999 L 86.9801216164021,17.2328211884413 L 86.9047246305141,17.1663498038742 L 86.8336501961258,17.0952753694859 L 86.7671788115588,17.0198783835979 L 86.7055728090001,16.940456403668 L 86.6490753191968,16.8573228719664 L 86.5979093119298,16.7708058785627 L 86.5522767160544,16.6812468665041 L 86.5123576225788,16.5889992842955 L 86.4783095739278,16.4944271909999 L 86.4502669421942,16.3979038194638 L 86.4283403988341,16.2998101033371 L 86.4126164778969,16.2005331737029 L 86.4031572345148,16.1004648312469 L 86.4,16.0 L 86.4031572345148,15.8995351687531 L 86.4126164778969,15.7994668262971 L 86.4283403988341,15.7001898966628 L 86.4502669421942,15.6020961805362 L 86.4783095739278,15.5055728090001 L 86.5123576225788,15.4110007157045 L 86.5522767160544,15.3187531334959 L 86.5979093119299,15.2291941214373 L 86.6490753191968,15.1426771280336 L 86.7055728090001,15.059543596332 L 86.7671788115588,14.9801216164021 L 86.8336501961258,14.9047246305141 L 86.9047246305141,14.8336501961257 L 86.9801216164021,14.7671788115587 L 87.0595435963321,14.7055728090001 L 87.1426771280336,14.6490753191968 L 87.2291941214373,14.5979093119298 L 87.3187531334959,14.5522767160544 L 87.4110007157045,14.5123576225788 L 87.5055728090001,14.4783095739277 L 87.6020961805363,14.4502669421942 L 87.7001898966629,14.4283403988341 L 87.7994668262972,14.4126164778968 L 87.8995351687531,14.4031572345148 L 88.0000000000001,14.4 L 88.1004648312469,14.4031572345148 L 88.2005331737029,14.4126164778968 L 88.2998101033372,14.4283403988341 L 88.3979038194638,14.4502669421942 L 88.4944271909999,14.4783095739277 L 88.5889992842955,14.5123576225788 L 88.6812468665041,14.5522767160544 L 88.7708058785628,14.5979093119298 L 88.8573228719664,14.6490753191968 L 88.940456403668,14.7055728090001 L 89.0198783835979,14.7671788115587 L 89.0952753694859,14.8336501961257 L 89.1663498038743,14.9047246305141 L 89.2328211884413,14.9801216164021 L 89.2944271909999,15.059543596332 L 89.3509246808033,15.1426771280336 L 89.4020906880702,15.2291941214373 L 89.4477232839456,15.3187531334959 L 89.4876423774212,15.4110007157045 L 89.5216904260723,15.5055728090001 L 89.5497330578058,15.6020961805362 L 89.5716596011659,15.7001898966628 L 89.5873835221032,15.7994668262971 L 89.5968427654853,15.8995351687531 L 89.6,16.0 L 89.5968427654852,16.1004648312469 L 89.5873835221032,16.2005331737029 L 89.5716596011659,16.2998101033371 L 89.5497330578058,16.3979038194638 L 89.5216904260723,16.4944271909999 L 89.4876423774212,16.5889992842955 L 89.4477232839456,16.6812468665041 L 89.4020906880702,16.7708058785627 L 89.3509246808032,16.8573228719664 L 89.2944271909999,16.940456403668 L 89.2328211884413,17.0198783835979 L 89.1663498038743,17.0952753694859 L 89.0952753694859,17.1663498038743 L 89.0198783835979,17.2328211884412 L 88.940456403668,17.2944271909999 L 88.8573228719664,17.3509246808032 L 88.7708058785628,17.4020906880702 L 88.6812468665041,17.4477232839456 L 88.5889992842955,17.4876423774212 L 88.4944271909999,17.5216904260722 L 88.3979038194638,17.5497330578058 L 88.2998101033372,17.5716596011659 L 88.2005331737029,17.5873835221031 L 88.1004648312469,17.5968427654852 M 89.0952753694859,106.833650196126 L 89.1663498038743,106.904724630514 L 89.2328211884413,106.980121616402 L 89.2944271909999,107.059543596332 L 89.3509246808032,107.142677128034 L 89.4020906880702,107.229194121437 L 89.4477232839457,107.318753133496 L 89.4876423774212,107.411000715705 L 89.5216904260723,107.505572809 L 89.5497330578059,107.602096180536 L 89.5716596011659,107.700189896663 L 89.5873835221032,107.799466826297 L 89.5968427654853,107.899535168753 L 89.6,108.0 L 89.5968427654853,108.100464831247 L 89.5873835221032,108.200533173703 L 89.5716596011659,108.299810103337 L 89.5497330578059,108.397903819464 L 89.5216904260723,108.494427191 L 89.4876423774212,108.588999284296 L 89.4477232839457,108.681246866504 L 89.4020906880702,108.770805878563 L 89.3509246808032,108.857322871966 L 89.2944271909999,108.940456403668 L 89.2328211884413,109.019878383598 L 89.1663498038743,109.095275369486 L 89.0952753694859,109.166349803874 L 89.0198783835979,109.232821188441 L 88.940456403668,109.294427191 L 88.8573228719664,109.350924680803 L 88.7708058785628,109.40209068807 L 88.6812468665041,109.447723283946 L 88.5889992842955,109.487642377421 L 88.4944271909999,109.521690426072 L 88.3979038194638,109.549733057806 L 88.2998101033372,109.571659601166 L 88.2005331737029,109.587383522103 L 88.1004648312469,109.596842765485 L 88.0,109.6 L 87.8995351687531,109.596842765485 L 87.7994668262971,109.587383522103 L 87.7001898966629,109.571659601166 L 87.6020961805363,109.549733057806 L 87.5055728090001,109.521690426072 L 87.4110007157045,109.487642377421 L 87.3187531334959,109.447723283946 L 87.2291941214373,109.40209068807 L 87.1426771280336,109.350924680803 L 87.0595435963321,109.294427191 L 86.9801216164021,109.232821188441 L 86.9047246305141,109.166349803874 L 86.8336501961258,109.095275369486 L 86.7671788115588,109.019878383598 L 86.7055728090001,108.940456403668 L 86.6490753191968,108.857322871966 L 86.5979093119298,108.770805878563 L 86.5522767160544,108.681246866504 L 86.5123576225788,108.588999284296 L 86.4783095739278,108.494427191 L 86.4502669421942,108.397903819464 L 86.4283403988341,108.299810103337 L 86.4126164778969,108.200533173703 L 86.4031572345148,108.100464831247 L 86.4,108.0 L 86.4031572345148,107.899535168753 L 86.4126164778969,107.799466826297 L 86.4283403988341,107.700189896663 L 86.4502669421942,107.602096180536 L 86.4783095739278,107.505572809 L 86.5123576225788,107.411000715705 L 86.5522767160544,107.318753133496 L 86.5979093119298,107.229194121437 L 86.6490753191968,107.142677128034 L 86.7055728090001,107.059543596332 L 86.7671788115588,106.980121616402 L 86.8336501961258,106.904724630514 L 86.9047246305141,106.833650196126 L 86.9801216164021,106.767178811559 L 87.0595435963321,106.705572809 L 87.1426771280336,106.649075319197 L 87.2291941214373,106.59790931193 L 87.3187531334959,106.552276716054 L 87.4110007157045,106.512357622579 L 87.5055728090001,106.478309573928 L 87.6020961805363,106.450266942194 L 87.7001898966629,106.428340398834 L 87.7994668262971,106.412616477897 L 87.8995351687531,106.403157234515 L 88.0,106.4 L 88.1004648312469,106.403157234515 L 88.2005331737029,106.412616477897 L 88.2998101033372,106.428340398834 L 88.3979038194638,106.450266942194 L 88.4944271909999,106.478309573928 L 88.5889992842955,106.512357622579 L 88.6812468665041,106.552276716054 L 88.7708058785628,106.59790931193 L 88.8573228719664,106.649075319197 L 88.940456403668,106.705572809 L 89.0198783835979,106.767178811559 L 89.0952753694859,106.833650196126 M 17.6,108.0 L 17.5968427654852,108.100464831247 L 17.5873835221032,108.200533173702 L 17.5716596011659,108.299810103337 L 17.5497330578058,108.397903819463 L 17.5216904260722,108.494427191 L 17.4876423774212,108.588999284295 L 17.4477232839456,108.681246866504 L 17.4020906880702,108.770805878562 L 17.3509246808032,108.857322871967 L 17.2944271909999,108.940456403668 L 17.2328211884413,109.019878383599 L 17.1663498038743,109.095275369487 L 17.0952753694859,109.166349803874 L 17.0198783835979,109.232821188442 L 16.940456403668,109.294427191001 L 16.8573228719664,109.350924680803 L 16.7708058785628,109.402090688072 L 16.6812468665041,109.447723283946 L 16.5889992842955,109.487642377421 L 16.4944271909999,109.521690426071 L 16.3979038194638,109.549733057806 L 16.2998101033372,109.571659601166 L 16.2005331737029,109.587383522104 L 16.1004648312469,109.596842765487 L 16.0,109.600000000001 L 15.8995351687531,109.596842765488 L 15.7994668262971,109.587383522103 L 15.7001898966628,109.571659601166 L 15.6020961805362,109.549733057804 L 15.5055728090001,109.521690426071 L 15.4110007157045,109.487642377421 L 15.3187531334959,109.447723283946 L 15.2291941214373,109.402090688071 L 15.1426771280336,109.350924680804 L 15.059543596332,109.294427191 L 14.9801216164021,109.232821188441 L 14.9047246305141,109.166349803874 L 14.8336501961257,109.095275369486 L 14.7671788115587,109.019878383598 L 14.7055728090001,108.940456403668 L 14.6490753191968,108.857322871966 L 14.5979093119298,108.770805878563 L 14.5522767160544,108.681246866504 L 14.5123576225788,108.588999284295 L 14.4783095739278,108.494427190999 L 14.4502669421942,108.397903819463 L 14.4283403988341,108.299810103338 L 14.4126164778968,108.200533173703 L 14.4031572345148,108.100464831247 L 14.4,108.0 L 14.4031572345148,107.899535168753 L 14.4126164778968,107.799466826298 L 14.4283403988341,107.700189896663 L 14.4502669421942,107.602096180536 L 14.4783095739278,107.505572809 L 14.5123576225788,107.411000715705 L 14.5522767160544,107.318753133496 L 14.5979093119298,107.229194121437 L 14.6490753191968,107.142677128034 L 14.7055728090001,107.059543596332 L 14.7671788115587,106.980121616402 L 14.8336501961257,106.904724630514 L 14.9047246305141,106.833650196126 L 14.9801216164021,106.767178811559 L 15.059543596332,106.705572809 L 15.1426771280336,106.649075319197 L 15.2291941214373,106.59790931193 L 15.3187531334959,106.552276716054 L 15.4110007157045,106.512357622579 L 15.5055728090001,106.478309573928 L 15.6020961805362,106.450266942194 L 15.7001898966628,106.428340398834 L 15.7994668262971,106.412616477897 L 15.8995351687531,106.403157234515 L 16.0,106.4 L 16.1004648312469,106.403157234515 L 16.2005331737029,106.412616477897 L 16.2998101033372,106.428340398834 L 16.3979038194638,106.450266942194 L 16.4944271909999,106.478309573928 L 16.5889992842955,106.512357622579 L 16.6812468665041,106.552276716054 L 16.7708058785628,106.59790931193 L 16.8573228719664,106.649075319197 L 16.940456403668,106.705572809 L 17.0198783835979,106.767178811558 L 17.0952753694859,106.833650196126 L 17.1663498038743,106.904724630514 L 17.2328211884413,106.980121616402 L 17.2944271909999,107.059543596332 L 17.3509246808032,107.142677128034 L 17.4020906880702,107.229194121437 L 17.4477232839456,107.318753133496 L 17.4876423774212,107.411000715705 L 17.5216904260722,107.505572809 L 17.5497330578058,107.602096180536 L 17.5716596011659,107.700189896663 L 17.5873835221032,107.799466826298 L 17.5968427654852,107.899535168753 L 17.6,108.0 M 16.2005331737029,17.5873835221031 L 16.1004648312469,17.5968427654852 L 16.0,17.6 L 15.8995351687531,17.5968427654852 L 15.7994668262971,17.5873835221032 L 15.7001898966628,17.5716596011659 L 15.6020961805362,17.5497330578058 L 15.5055728090001,17.5216904260722 L 15.4110007157045,17.4876423774212 L 15.3187531334959,17.4477232839456 L 15.2291941214372,17.4020906880702 L 15.1426771280336,17.3509246808032 L 15.0595435963321,17.2944271909999 L 14.9801216164021,17.2328211884412 L 14.9047246305141,17.1663498038742 L 14.8336501961257,17.0952753694859 L 14.7671788115587,17.0198783835979 L 14.7055728090001,16.940456403668 L 14.6490753191968,16.8573228719664 L 14.5979093119298,16.7708058785628 L 14.5522767160544,16.6812468665041 L 14.5123576225788,16.5889992842955 L 14.4783095739277,16.4944271909999 L 14.4502669421942,16.3979038194638 L 14.4283403988341,16.2998101033371 L 14.4126164778968,16.2005331737029 L 14.4031572345148,16.1004648312469 L 14.4,16.0 L 14.4031572345148,15.8995351687531 L 14.4126164778968,15.7994668262971 L 14.4283403988341,15.7001898966629 L 14.4502669421942,15.6020961805362 L 14.4783095739277,15.5055728090001 L 14.5123576225788,15.4110007157045 L 14.5522767160544,15.3187531334959 L 14.5979093119298,15.2291941214373 L 14.6490753191968,15.1426771280336 L 14.7055728090001,15.059543596332 L 14.7671788115587,14.9801216164021 L 14.8336501961257,14.9047246305141 L 14.9047246305141,14.8336501961257 L 14.9801216164021,14.7671788115588 L 15.059543596332,14.705572809 L 15.1426771280336,14.6490753191968 L 15.2291941214373,14.5979093119298 L 15.3187531334959,14.5522767160544 L 15.4110007157045,14.5123576225788 L 15.5055728090001,14.4783095739277 L 15.6020961805362,14.4502669421942 L 15.7001898966628,14.4283403988341 L 15.7994668262971,14.4126164778968 L 15.8995351687531,14.4031572345147 L 16.0,14.4 L 16.1004648312469,14.4031572345148 L 16.2005331737029,14.4126164778968 L 16.2998101033371,14.4283403988341 L 16.3979038194638,14.4502669421942 L 16.4944271909999,14.4783095739278 L 16.5889992842955,14.5123576225788 L 16.6812468665041,14.5522767160544 L 16.7708058785628,14.5979093119298 L 16.8573228719664,14.6490753191968 L 16.940456403668,14.7055728090001 L 17.0198783835979,14.7671788115587 L 17.0952753694859,14.8336501961257 L 17.1663498038743,14.9047246305141 L 17.2328211884413,14.9801216164021 L 17.2944271909999,15.059543596332 L 17.3509246808032,15.1426771280336 L 17.4020906880702,15.2291941214373 L 17.4477232839456,15.3187531334958 L 17.4876423774212,15.4110007157045 L 17.5216904260722,15.5055728090001 L 17.5497330578058,15.6020961805362 L 17.5716596011659,15.7001898966628 L 17.5873835221032,15.7994668262971 L 17.5968427654853,15.8995351687531 L 17.6,16.0 L 17.5968427654852,16.1004648312469 L 17.5873835221032,16.2005331737029 L 17.5716596011659,16.2998101033372 L 17.5497330578058,16.3979038194638 L 17.5216904260723,16.4944271909999 L 17.4876423774212,16.5889992842955 L 17.4477232839456,16.6812468665041 L 17.4020906880702,16.7708058785627 L 17.3509246808032,16.8573228719664 L 17.2944271909999,16.940456403668 L 17.2328211884413,17.0198783835979 L 17.1663498038743,17.0952753694859 L 17.0952753694859,17.1663498038742 L 17.0198783835979,17.2328211884413 L 16.9404564036679,17.2944271909999 L 16.8573228719664,17.3509246808032 L 16.7708058785627,17.4020906880702 L 16.6812468665041,17.4477232839456 L 16.5889992842955,17.4876423774212 L 16.4944271909999,17.5216904260722 L 16.3979038194638,17.5497330578058 L 16.2998101033372,17.5716596011659 L 16.2005331737029,17.5873835221031 "
  />
</svg>
