<?xml version="1.0" standalone="no"?>
<!DOCTYPE svg PUBLIC "-//W3C//DTD SVG 1.1//EN" "http://www.w3.org/Graphics/SVG/1.1/DTD/svg11.dtd">
<svg width="73.0mm" height="104.0mm"
 viewBox="0 0 73.0 104.0"
 xmlns="http://www.w3.org/2000/svg" version="1.1"
 xmlns:xlink="http://www.w3.org/1999/xlink">
<desc>Output from Flights of Ideas SVG Sketchup Plugin</desc>

<g id="text_annotations" font-size="10" stroke="rgb(255,0,0)" stroke-width="0">
</g>
  <path id="face0-cut"
 style="fill:none;stroke:rgb(0,0,255);stroke-width:0;stroke-miterlimit:4;stroke-dasharray:none;stroke-linejoin:round;stroke-linecap:round"
        d="M 10.0342205545048,13.4778952311198 L 10.0,14.0 L 10.0,90.0 L 10.0342205545048,90.5221047688802 L 10.1362966948437,91.0352761804101 L 10.3044818699549,91.5307337294604 L 10.5358983848623,92.0 L 10.8265866388351,92.4350457160349 L 11.1715728752538,92.8284271247462 L 11.5649542839651,93.173413361165 L 12.0,93.4641016151378 L 12.4692662705396,93.6955181300452 L 12.9647238195899,93.8637033051563 L 13.4778952311198,93.9657794454953 L 14.0,94.0 L 59.0,94.0 L 59.5221047688802,93.9657794454953 L 60.0352761804101,93.8637033051563 L 60.5307337294604,93.6955181300452 L 61.0,93.4641016151378 L 61.4350457160349,93.173413361165 L 61.8284271247462,92.8284271247462 L 62.1734133611649,92.4350457160349 L 62.4641016151378,92.0 L 62.6955181300451,91.5307337294604 L 62.8637033051563,91.0352761804101 L 62.9657794454952,90.5221047688802 L 63.0,90.0 L 63.0,13.9999999999999 L 62.9657794454953,13.4778952311198 L 62.8637033051563,12.9647238195902 L 62.6955181300452,12.4692662705398 L 62.4641016151378,12.0000000000002 L 62.1734133611649,11.5649542839653 L 61.8284271247462,11.171572875254 L 61.4350457160349,10.826586638835 L 61.0,10.5358983848622 L 60.5307337294604,10.3044818699548 L 60.0352761804101,10.1362966948438 L 59.5221047688802,10.0342205545049 L 59.0,10.0 L 14.0,10.0 L 13.4778952311198,10.0342205545048 L 12.9647238195899,10.1362966948438 L 12.4692662705396,10.3044818699549 L 12.0,10.5358983848623 L 11.5649542839651,10.8265866388351 L 11.1715728752538,11.1715728752538 L 10.8265866388351,11.5649542839652 L 10.5358983848623,12.0 L 10.3044818699549,12.4692662705397 L 10.1362966948437,12.96472381959 L 10.0342205545048,13.4778952311198 M 56.8995351687531,14.4031572345151 L 57.0,14.3999999999999 L 57.1004648312469,14.4031572345147 L 57.2005331737029,14.4126164778969 L 57.2998101033372,14.428340398834 L 57.3979038194638,14.4502669421946 L 57.4944271909999,14.4783095739279 L 57.5889992842955,14.5123576225788 L 57.6812468665041,14.5522767160543 L 57.7708058785628,14.5979093119299 L 57.8573228719664,14.6490753191968 L 57.940456403668,14.705572809 L 58.0198783835979,14.7671788115586 L 58.0952753694859,14.8336501961258 L 58.1663498038743,14.9047246305143 L 58.2328211884413,14.9801216164022 L 58.2944271909999,15.0595435963319 L 58.3509246808032,15.1426771280335 L 58.4020906880702,15.2291941214375 L 58.4477232839456,15.3187531334961 L 58.4876423774212,15.4110007157045 L 58.5216904260723,15.505572809 L 58.5497330578058,15.6020961805363 L 58.5716596011659,15.700189896663 L 58.5873835221032,15.7994668262973 L 58.5968427654852,15.8995351687532 L 58.6,16.0 L 58.5968427654852,16.100464831247 L 58.5873835221032,16.2005331737029 L 58.5716596011659,16.2998101033371 L 58.5497330578058,16.3979038194638 L 58.5216904260723,16.4944271909999 L 58.4876423774212,16.5889992842955 L 58.4477232839456,16.6812468665041 L 58.4020906880702,16.7708058785629 L 58.3509246808032,16.8573228719665 L 58.2944271909999,16.940456403668 L 58.2328211884413,17.0198783835979 L 58.1663498038743,17.0952753694859 L 58.0952753694859,17.1663498038742 L 58.0198783835979,17.2328211884413 L 57.940456403668,17.294427191 L 57.8573228719664,17.3509246808033 L 57.7708058785628,17.4020906880702 L 57.6812468665041,17.4477232839457 L 57.5889992842955,17.4876423774212 L 57.4944271909999,17.5216904260723 L 57.3979038194638,17.5497330578058 L 57.2998101033372,17.571659601166 L 57.2005331737029,17.5873835221033 L 57.1004648312469,17.5968427654853 L 57.0,17.6000000000001 L 56.8995351687531,17.5968427654853 L 56.7994668262971,17.5873835221032 L 56.7001898966628,17.5716596011659 L 56.6020961805362,17.5497330578059 L 56.5055728090001,17.5216904260723 L 56.4110007157045,17.4876423774213 L 56.3187531334959,17.4477232839456 L 56.2291941214373,17.4020906880702 L 56.1426771280336,17.3509246808033 L 56.059543596332,17.294427191 L 55.9801216164021,17.2328211884413 L 55.9047246305141,17.1663498038742 L 55.8336501961258,17.0952753694859 L 55.7671788115588,17.0198783835979 L 55.7055728090001,16.940456403668 L 55.6490753191968,16.8573228719665 L 55.5979093119298,16.7708058785628 L 55.5522767160544,16.6812468665042 L 55.5123576225788,16.5889992842955 L 55.4783095739278,16.494427191 L 55.4502669421942,16.3979038194638 L 55.4283403988341,16.2998101033372 L 55.4126164778968,16.2005331737029 L 55.4031572345148,16.1004648312469 L 55.4,16.0 L 55.4031572345148,15.8995351687532 L 55.4126164778968,15.7994668262972 L 55.4283403988341,15.7001898966628 L 55.4502669421942,15.6020961805362 L 55.4783095739278,15.505572809 L 55.5123576225788,15.4110007157045 L 55.5522767160544,15.3187531334961 L 55.5979093119299,15.2291941214372 L 55.6490753191968,15.1426771280336 L 55.7055728090001,15.0595435963319 L 55.7671788115588,14.9801216164023 L 55.8336501961258,14.9047246305143 L 55.9047246305141,14.8336501961257 L 55.9801216164021,14.7671788115588 L 56.0595435963321,14.7055728089999 L 56.1426771280336,14.6490753191968 L 56.2291941214373,14.5979093119299 L 56.3187531334959,14.5522767160543 L 56.4110007157045,14.5123576225789 L 56.5055728090001,14.4783095739278 L 56.6020961805363,14.450266942194 L 56.7001898966628,14.4283403988343 L 56.7994668262971,14.4126164778965 L 56.8995351687531,14.4031572345151 M 15.9277219785282,86.401633368838 L 16.0282268738622,86.4002490057538 L 16.1286203706207,86.405178128987 L 16.2285062615375,86.4164012855404 L 16.3274903426345,86.4338741827423 L 16.4251819689652,86.4575278630501 L 16.5211955963116,86.487268976194 L 16.615152302751,86.5229801475877 L 16.7066812840878,86.5645204415527 L 16.7954213172483,86.6117259175267 L 16.8810221858629,86.6644102770622 L 16.9631460624108,86.7223655990611 L 17.0414688414699,86.7853631603449 L 17.1156814188136,86.8531543383201 L 17.1854909113035,86.9254715921779 L 17.2506218127659,87.0020295187561 L 17.310817081288,87.0825259788945 L 17.3658391536456,87.1666432898401 L 17.4154708828564,87.2540494789963 L 17.4595163951596,87.3443995940664 L 17.4978018630408,87.4373370644235 L 17.5301761912491,87.532495108331 L 17.5565116131016,87.6294981804633 L 17.5767041947196,87.7279634540111 L 17.5906742452088,87.8275023315243 L 17.598366631162,87.9277219785283 L 17.5997509942463,88.0282268738623 L 17.594821871013,88.1286203706208 L 17.5835987144596,88.2285062615375 L 17.5661258172577,88.3274903426345 L 17.5424721369499,88.4251819689653 L 17.5127310238061,88.5211955963117 L 17.4770198524123,88.6151523027511 L 17.4354795584473,88.7066812840878 L 17.3882740824733,88.7954213172483 L 17.3355897229379,88.881022185863 L 17.2776344009389,88.9631460624108 L 17.2146368396551,89.0414688414699 L 17.1468456616799,89.1156814188136 L 17.0745284078221,89.1854909113036 L 16.9979704812439,89.2506218127659 L 16.9174740211056,89.310817081288 L 16.8333567101599,89.3658391536457 L 16.7459505210038,89.4154708828564 L 16.6556004059336,89.4595163951597 L 16.5626629355766,89.4978018630408 L 16.467504891669,89.5301761912491 L 16.3705018195367,89.5565116131016 L 16.2720365459889,89.5767041947196 L 16.1724976684757,89.5906742452088 L 16.0722780214718,89.598366631162 L 15.9717731261378,89.5997509942463 L 15.8713796293793,89.594821871013 L 15.7714937384625,89.5835987144596 L 15.6725096573655,89.5661258172578 L 15.5748180310348,89.54247213695 L 15.4788044036884,89.5127310238061 L 15.384847697249,89.4770198524124 L 15.2933187159122,89.4354795584473 L 15.2045786827518,89.3882740824733 L 15.1189778141371,89.3355897229379 L 15.0368539375892,89.277634400939 L 14.9585311585301,89.2146368396551 L 14.8843185811864,89.14684566168 L 14.8145090886965,89.0745284078221 L 14.7493781872341,88.9979704812439 L 14.689182918712,88.9174740211056 L 14.6341608463544,88.83335671016 L 14.5845291171436,88.7459505210038 L 14.5404836048404,88.6556004059337 L 14.5021981369593,88.5626629355766 L 14.4698238087509,88.4675048916691 L 14.4434883868985,88.3705018195368 L 14.4232958052804,88.2720365459889 L 14.4093257547912,88.1724976684758 L 14.401633368838,88.0722780214718 L 14.4002490057537,87.9717731261378 L 14.405178128987,87.8713796293793 L 14.4164012855404,87.7714937384626 L 14.4338741827423,87.6725096573656 L 14.4575278630501,87.5748180310348 L 14.4872689761939,87.4788044036884 L 14.5229801475877,87.384847697249 L 14.5645204415527,87.2933187159123 L 14.6117259175267,87.2045786827518 L 14.6644102770621,87.1189778141371 L 14.7223655990611,87.0368539375892 L 14.7853631603449,86.9585311585301 L 14.8531543383201,86.8843185811865 L 14.9254715921779,86.8145090886965 L 15.0020295187561,86.7493781872341 L 15.0825259788944,86.689182918712 L 15.1666432898401,86.6341608463544 L 15.2540494789962,86.5845291171437 L 15.3443995940664,86.5404836048404 L 15.4373370644235,86.5021981369593 L 15.532495108331,86.469823808751 L 15.6294981804633,86.4434883868985 L 15.7279634540111,86.4232958052804 L 15.8275023315243,86.4093257547913 L 15.9277219785282,86.401633368838 M 56.8995351687531,86.4031572345148 L 57.0,86.4 L 57.1004648312469,86.4031572345148 L 57.2005331737029,86.4126164778969 L 57.2998101033372,86.4283403988341 L 57.3979038194638,86.4502669421942 L 57.4944271909999,86.4783095739278 L 57.5889992842955,86.5123576225788 L 57.6812468665041,86.5522767160544 L 57.7708058785628,86.5979093119299 L 57.8573228719664,86.6490753191968 L 57.940456403668,86.7055728090001 L 58.0198783835979,86.7671788115588 L 58.0952753694859,86.8336501961258 L 58.1663498038743,86.9047246305141 L 58.2328211884413,86.9801216164021 L 58.2944271909999,87.0595435963321 L 58.3509246808032,87.1426771280336 L 58.4020906880702,87.2291941214373 L 58.4477232839456,87.3187531334959 L 58.4876423774212,87.4110007157045 L 58.5216904260722,87.5055728090001 L 58.5497330578058,87.6020961805363 L 58.5716596011659,87.7001898966629 L 58.5873835221032,87.7994668262972 L 58.5968427654852,87.8995351687531 L 58.6,88.0 L 58.5968427654852,88.1004648312469 L 58.5873835221032,88.2005331737029 L 58.5716596011659,88.2998101033372 L 58.5497330578058,88.3979038194638 L 58.5216904260722,88.4944271909999 L 58.4876423774212,88.5889992842955 L 58.4477232839456,88.6812468665041 L 58.4020906880702,88.7708058785628 L 58.3509246808032,88.8573228719664 L 58.2944271909999,88.940456403668 L 58.2328211884413,89.0198783835979 L 58.1663498038743,89.0952753694859 L 58.0952753694859,89.1663498038743 L 58.0198783835979,89.2328211884413 L 57.940456403668,89.294427191 L 57.8573228719664,89.3509246808033 L 57.7708058785628,89.4020906880702 L 57.6812468665041,89.4477232839457 L 57.5889992842955,89.4876423774212 L 57.4944271909999,89.5216904260723 L 57.3979038194638,89.5497330578058 L 57.2998101033372,89.5716596011659 L 57.2005331737029,89.5873835221032 L 57.1004648312469,89.5968427654853 L 57.0,89.6 L 56.8995351687531,89.5968427654853 L 56.7994668262971,89.5873835221032 L 56.7001898966628,89.5716596011659 L 56.6020961805362,89.5497330578058 L 56.5055728090001,89.5216904260723 L 56.4110007157045,89.4876423774212 L 56.3187531334959,89.4477232839457 L 56.2291941214373,89.4020906880702 L 56.1426771280336,89.3509246808033 L 56.0595435963321,89.294427191 L 55.9801216164021,89.2328211884413 L 55.9047246305141,89.1663498038743 L 55.8336501961257,89.0952753694859 L 55.7671788115588,89.0198783835979 L 55.7055728090001,88.940456403668 L 55.6490753191968,88.8573228719664 L 55.5979093119299,88.7708058785628 L 55.5522767160544,88.6812468665042 L 55.5123576225788,88.5889992842955 L 55.4783095739278,88.4944271909999 L 55.4502669421942,88.3979038194638 L 55.4283403988341,88.2998101033372 L 55.4126164778968,88.2005331737029 L 55.4031572345148,88.1004648312469 L 55.4,88.0 L 55.4031572345148,87.8995351687531 L 55.4126164778968,87.7994668262971 L 55.4283403988341,87.7001898966629 L 55.4502669421942,87.6020961805363 L 55.4783095739278,87.5055728090001 L 55.5123576225788,87.4110007157045 L 55.5522767160544,87.3187531334959 L 55.5979093119299,87.2291941214373 L 55.6490753191968,87.1426771280336 L 55.7055728090001,87.0595435963321 L 55.7671788115588,86.9801216164021 L 55.8336501961258,86.9047246305141 L 55.9047246305141,86.8336501961258 L 55.9801216164021,86.7671788115588 L 56.059543596332,86.7055728090001 L 56.1426771280336,86.6490753191968 L 56.2291941214373,86.5979093119299 L 56.3187531334959,86.5522767160544 L 56.4110007157045,86.5123576225788 L 56.5055728090001,86.4783095739278 L 56.6020961805363,86.4502669421942 L 56.7001898966628,86.4283403988341 L 56.7994668262971,86.4126164778969 L 56.8995351687531,86.4031572345148 M 16.4403327025929,64.901112945321 L 16.5408453912067,64.9005214430893 L 16.6411968817218,64.9062423519895 L 16.7409911326515,64.9182530942078 L 16.8398343016789,64.9365062688318 L 16.9373362999732,64.9609298389204 L 17.0331123316915,64.9914274158005 L 17.1267844125923,65.0278786394692 L 17.2179828617673,65.0701396535996 L 17.3063477606021,65.1180436732762 L 17.3915303732109,65.1714016432186 L 17.4731945227382,65.2300029838964 L 17.5510179180946,65.2936164225902 L 17.6246934258926,65.3619909061199 L 17.6939302825622,65.4348565916362 L 17.7584552418614,65.5119259115676 L 17.8180136532545,65.5928947085179 L 17.8723704669013,65.6774434356368 L 17.9213111612917,65.7652384177248 L 17.9646425898638,65.8559331680974 L 18.0021937432653,65.9491697560094 L 18.0338164242491,66.044580219244 L 18.0593858325404,66.1417880162918 L 18.0788010573664,66.2404095123877 L 18.0919854757045,66.3400554935427 L 18.098887054679,66.440332702593 L 18.0994785569107,66.5408453912067 L 18.0937576480105,66.6411968817218 L 18.0817469057923,66.7409911326515 L 18.0634937311683,66.839834301679 L 18.0390701610797,66.9373362999733 L 18.0085725841996,67.0331123316915 L 17.9721213605309,67.1267844125924 L 17.9298603464005,67.2179828617674 L 17.8819563267239,67.3063477606021 L 17.8285983567815,67.391530373211 L 17.7699970161037,67.4731945227383 L 17.7063835774098,67.5510179180946 L 17.6380090938802,67.6246934258927 L 17.5651434083638,67.6939302825623 L 17.4880740884324,67.7584552418614 L 17.4071052914821,67.8180136532545 L 17.3225565643633,67.8723704669013 L 17.2347615822753,67.9213111612917 L 17.1440668319026,67.9646425898638 L 17.0508302439906,68.0021937432653 L 16.955419780756,68.0338164242491 L 16.8582119837083,68.0593858325405 L 16.7595904876123,68.0788010573664 L 16.6599445064573,68.0919854757045 L 16.5596672974071,68.098887054679 L 16.4591546087934,68.0994785569108 L 16.3588031182782,68.0937576480106 L 16.2590088673485,68.0817469057923 L 16.1601656983211,68.0634937311683 L 16.0626637000268,68.0390701610797 L 15.9668876683086,68.0085725841996 L 15.8732155874077,67.9721213605309 L 15.7820171382327,67.9298603464005 L 15.693652239398,67.8819563267239 L 15.6084696267891,67.8285983567815 L 15.5268054772618,67.7699970161037 L 15.4489820819054,67.7063835774098 L 15.3753065741074,67.6380090938802 L 15.3060697174378,67.5651434083639 L 15.2415447581386,67.4880740884325 L 15.1819863467455,67.4071052914821 L 15.1276295330987,67.3225565643633 L 15.0786888387083,67.2347615822753 L 15.0353574101362,67.1440668319026 L 14.9978062567348,67.0508302439907 L 14.9661835757509,66.955419780756 L 14.9406141674596,66.8582119837083 L 14.9211989426336,66.7595904876123 L 14.9080145242955,66.6599445064574 L 14.901112945321,66.5596672974071 L 14.9005214430893,66.4591546087934 L 14.9062423519895,66.3588031182783 L 14.9182530942077,66.2590088673486 L 14.9365062688317,66.1601656983211 L 14.9609298389204,66.0626637000268 L 14.9914274158004,65.9668876683086 L 15.0278786394691,65.8732155874077 L 15.0701396535996,65.7820171382327 L 15.1180436732762,65.693652239398 L 15.1714016432185,65.6084696267891 L 15.2300029838963,65.5268054772618 L 15.2936164225902,65.4489820819055 L 15.3619909061199,65.3753065741074 L 15.4348565916362,65.3060697174378 L 15.5119259115676,65.2415447581386 L 15.5928947085179,65.1819863467456 L 15.6774434356367,65.1276295330987 L 15.7652384177248,65.0786888387083 L 15.8559331680974,65.0353574101362 L 15.9491697560094,64.9978062567348 L 16.044580219244,64.966183575751 L 16.1417880162917,64.9406141674596 L 16.2404095123877,64.9211989426337 L 16.3400554935427,64.9080145242955 L 16.4403327025929,64.901112945321 M 55.5,36.5 L 55.5,28.5 L 59.5,28.5 L 59.5,36.5000000000001 L 55.5,36.5 M 53.5,23.5 L 19.5,23.5 L 19.5,13.4999999999998 L 53.5000056207525,13.4778952311198 L 53.5,23.5 M 15.7994668262971,14.4126164778969 L 15.8995351687531,14.4031572345148 L 16.0,14.4 L 16.1004648312469,14.4031572345148 L 16.2005331737029,14.4126164778969 L 16.2998101033372,14.4283403988341 L 16.3979038194638,14.4502669421942 L 16.4944271909999,14.4783095739278 L 16.5889992842955,14.5123576225788 L 16.6812468665041,14.5522767160544 L 16.7708058785628,14.5979093119298 L 16.8573228719664,14.6490753191968 L 16.940456403668,14.7055728090001 L 17.0198783835979,14.7671788115588 L 17.0952753694859,14.8336501961258 L 17.1663498038743,14.9047246305141 L 17.2328211884413,14.9801216164021 L 17.2944271909999,15.0595435963321 L 17.3509246808032,15.1426771280336 L 17.4020906880702,15.2291941214373 L 17.4477232839456,15.3187531334959 L 17.4876423774212,15.4110007157045 L 17.5216904260723,15.5055728090001 L 17.5497330578058,15.6020961805363 L 17.5716596011659,15.7001898966629 L 17.5873835221032,15.7994668262972 L 17.5968427654852,15.8995351687531 L 17.6,16.0 L 17.5968427654852,16.1004648312469 L 17.5873835221032,16.2005331737029 L 17.5716596011659,16.2998101033372 L 17.5497330578058,16.3979038194638 L 17.5216904260723,16.494427191 L 17.4876423774212,16.5889992842955 L 17.4477232839456,16.6812468665041 L 17.4020906880702,16.7708058785628 L 17.3509246808032,16.8573228719664 L 17.2944271909999,16.940456403668 L 17.2328211884413,17.0198783835979 L 17.1663498038743,17.0952753694859 L 17.0952753694859,17.1663498038743 L 17.0198783835979,17.2328211884413 L 16.940456403668,17.2944271909999 L 16.8573228719664,17.3509246808033 L 16.7708058785628,17.4020906880702 L 16.6812468665041,17.4477232839457 L 16.5889992842955,17.4876423774212 L 16.4944271909999,17.5216904260723 L 16.3979038194638,17.5497330578058 L 16.2998101033372,17.5716596011659 L 16.2005331737029,17.5873835221032 L 16.1004648312469,17.5968427654853 L 16.0,17.6 L 15.8995351687531,17.5968427654853 L 15.7994668262971,17.5873835221032 L 15.7001898966628,17.5716596011659 L 15.6020961805362,17.5497330578059 L 15.5055728090001,17.5216904260723 L 15.4110007157045,17.4876423774212 L 15.3187531334959,17.4477232839457 L 15.2291941214373,17.4020906880702 L 15.1426771280336,17.3509246808033 L 15.059543596332,17.2944271909999 L 14.9801216164021,17.2328211884413 L 14.9047246305141,17.1663498038743 L 14.8336501961257,17.0952753694859 L 14.7671788115587,17.0198783835979 L 14.7055728090001,16.940456403668 L 14.6490753191968,16.8573228719664 L 14.5979093119298,16.7708058785628 L 14.5522767160544,16.6812468665041 L 14.5123576225788,16.5889992842955 L 14.4783095739278,16.494427191 L 14.4502669421942,16.3979038194638 L 14.4283403988341,16.2998101033372 L 14.4126164778968,16.2005331737029 L 14.4031572345148,16.1004648312469 L 14.4,16.0 L 14.4031572345148,15.8995351687531 L 14.4126164778968,15.7994668262972 L 14.4283403988341,15.7001898966629 L 14.4502669421942,15.6020961805363 L 14.4783095739278,15.5055728090001 L 14.5123576225788,15.4110007157045 L 14.5522767160544,15.3187531334959 L 14.5979093119298,15.2291941214373 L 14.6490753191968,15.1426771280336 L 14.7055728090001,15.0595435963321 L 14.7671788115587,14.9801216164021 L 14.8336501961257,14.9047246305141 L 14.9047246305141,14.8336501961258 L 14.9801216164021,14.7671788115588 L 15.059543596332,14.7055728090001 L 15.1426771280336,14.6490753191968 L 15.2291941214373,14.5979093119298 L 15.3187531334959,14.5522767160544 L 15.4110007157045,14.5123576225788 L 15.5055728090001,14.4783095739278 L 15.6020961805362,14.4502669421942 L 15.7001898966628,14.4283403988341 L 15.7994668262971,14.4126164778969 "
  />
</svg>
