<?xml version="1.0" standalone="no"?>
<!DOCTYPE svg PUBLIC "-//W3C//DTD SVG 1.1//EN" "http://www.w3.org/Graphics/SVG/1.1/DTD/svg11.dtd">
<svg width="73.0mm" height="104.0mm"
 viewBox="0 0 73.0 104.0"
 xmlns="http://www.w3.org/2000/svg" version="1.1"
 xmlns:xlink="http://www.w3.org/1999/xlink">
<desc>Output from Flights of Ideas SVG Sketchup Plugin</desc>

<g id="text_annotations" font-size="10" stroke="rgb(255,0,0)" stroke-width="0">
</g>
  <path id="face0-cut"
 style="fill:none;stroke:rgb(0,0,255);stroke-width:0;stroke-miterlimit:4;stroke-dasharray:none;stroke-linejoin:round;stroke-linecap:round"
        d="M 10.0,14.0000000000001 L 10.0,90.0000000000001 L 10.0342205545048,90.5221047688803 L 10.1362966948437,91.0352761804102 L 10.3044818699549,91.5307337294605 L 10.5358983848623,92.0000000000001 L 10.8265866388351,92.435045716035 L 11.1715728752538,92.8284271247463 L 11.5649542839651,93.173413361165 L 12.0,93.4641016151378 L 12.4692662705397,93.6955181300452 L 12.9647238195899,93.8637033051564 L 13.4778952311198,93.9657794454953 L 14.0,94.0000000000001 L 59.0,94.0000000000001 L 59.5221047688802,93.9657794454953 L 60.0352761804101,93.8637033051564 L 60.5307337294604,93.6955181300452 L 61.0,93.4641016151378 L 61.4350457160349,93.173413361165 L 61.8284271247462,92.8284271247463 L 62.1734133611649,92.435045716035 L 62.4641016151378,92.0000000000001 L 62.6955181300452,91.5307337294605 L 62.8637033051563,91.0352761804102 L 62.9657794454952,90.5221047688803 L 63.0,90.0000000000001 L 63.0,14.0000000000001 L 62.9657794454952,13.47789523112 L 62.8637033051563,12.9647238195896 L 62.6955181300452,12.4692662705395 L 62.4641016151378,12.0000000000002 L 62.173413361165,11.5649542839652 L 61.8284271247462,11.1715728752538 L 61.4350457160349,10.8265866388351 L 61.0,10.5358983848623 L 60.5307337294604,10.304481869955 L 60.0352761804101,10.1362966948439 L 59.5221047688802,10.0342205545049 L 59.0,10.0 L 14.0,10.0000000000001 L 13.4778952311198,10.0342205545049 L 12.9647238195899,10.1362966948438 L 12.4692662705396,10.304481869955 L 12.0,10.5358983848623 L 11.5649542839651,10.8265866388351 L 11.1715728752538,11.1715728752539 L 10.8265866388351,11.5649542839652 L 10.5358983848623,12.0000000000001 L 10.3044818699549,12.4692662705397 L 10.1362966948437,12.96472381959 L 10.0342205545048,13.4778952311199 L 10.0,14.0000000000001 M 14.7223655990611,87.0368539375893 L 14.7853631603449,86.9585311585302 L 14.8531543383201,86.8843185811865 L 14.9254715921779,86.8145090886965 L 15.0020295187561,86.7493781872342 L 15.0825259788944,86.6891829187121 L 15.1666432898401,86.6341608463545 L 15.2540494789962,86.5845291171437 L 15.3443995940664,86.5404836048405 L 15.4373370644235,86.5021981369593 L 15.532495108331,86.469823808751 L 15.6294981804633,86.4434883868986 L 15.7279634540111,86.4232958052805 L 15.8275023315243,86.4093257547913 L 15.9277219785282,86.4016333688381 L 16.0282268738622,86.4002490057538 L 16.1286203706208,86.4051781289871 L 16.2285062615375,86.4164012855405 L 16.3274903426345,86.4338741827424 L 16.4251819689652,86.4575278630502 L 16.5211955963116,86.487268976194 L 16.615152302751,86.5229801475878 L 16.7066812840878,86.5645204415528 L 16.7954213172482,86.6117259175268 L 16.881022185863,86.6644102770622 L 16.9631460624108,86.7223655990612 L 17.0414688414699,86.785363160345 L 17.1156814188136,86.8531543383201 L 17.1854909113036,86.925471592178 L 17.2506218127659,87.0020295187562 L 17.310817081288,87.0825259788945 L 17.3658391536456,87.1666432898401 L 17.4154708828564,87.2540494789963 L 17.4595163951596,87.3443995940665 L 17.4978018630408,87.4373370644236 L 17.5301761912491,87.5324951083311 L 17.5565116131015,87.6294981804634 L 17.5767041947196,87.7279634540112 L 17.5906742452088,87.8275023315244 L 17.598366631162,87.9277219785283 L 17.5997509942463,88.0282268738623 L 17.594821871013,88.1286203706208 L 17.5835987144596,88.2285062615375 L 17.5661258172577,88.3274903426346 L 17.5424721369499,88.4251819689653 L 17.5127310238061,88.5211955963117 L 17.4770198524123,88.6151523027511 L 17.4354795584473,88.7066812840879 L 17.3882740824733,88.7954213172484 L 17.3355897229379,88.881022185863 L 17.2776344009389,88.9631460624109 L 17.2146368396551,89.04146884147 L 17.14684566168,89.1156814188137 L 17.0745284078221,89.1854909113036 L 16.9979704812439,89.250621812766 L 16.9174740211056,89.3108170812881 L 16.8333567101599,89.3658391536457 L 16.7459505210038,89.4154708828565 L 16.6556004059336,89.4595163951597 L 16.5626629355766,89.4978018630409 L 16.467504891669,89.5301761912492 L 16.3705018195367,89.5565116131016 L 16.2720365459889,89.5767041947197 L 16.1724976684757,89.5906742452088 L 16.0722780214718,89.5983666311621 L 15.9717731261378,89.5997509942464 L 15.8713796293793,89.5948218710131 L 15.7714937384625,89.5835987144597 L 15.6725096573655,89.5661258172578 L 15.5748180310348,89.54247213695 L 15.4788044036884,89.5127310238062 L 15.384847697249,89.4770198524124 L 15.2933187159122,89.4354795584474 L 15.2045786827518,89.3882740824734 L 15.1189778141371,89.335589722938 L 15.0368539375892,89.277634400939 L 14.9585311585301,89.2146368396552 L 14.8843185811864,89.14684566168 L 14.8145090886965,89.0745284078222 L 14.7493781872341,88.997970481244 L 14.689182918712,88.9174740211057 L 14.6341608463544,88.83335671016 L 14.5845291171436,88.7459505210039 L 14.5404836048404,88.6556004059337 L 14.5021981369592,88.5626629355767 L 14.4698238087509,88.4675048916691 L 14.4434883868985,88.3705018195368 L 14.4232958052804,88.272036545989 L 14.4093257547913,88.1724976684758 L 14.401633368838,88.0722780214719 L 14.4002490057537,87.9717731261378 L 14.405178128987,87.8713796293794 L 14.4164012855404,87.7714937384626 L 14.4338741827423,87.6725096573656 L 14.4575278630501,87.5748180310349 L 14.4872689761939,87.4788044036885 L 14.5229801475877,87.3848476972491 L 14.5645204415527,87.2933187159123 L 14.6117259175267,87.2045786827519 L 14.6644102770621,87.1189778141372 L 14.7223655990611,87.0368539375893 M 16.2998101033372,17.571659601166 L 16.2005331737029,17.5873835221033 L 16.1004648312469,17.5968427654853 L 16.0,17.6000000000001 L 15.8995351687531,17.5968427654853 L 15.7994668262971,17.5873835221033 L 15.7001898966628,17.571659601166 L 15.6020961805362,17.5497330578059 L 15.5055728090001,17.5216904260723 L 15.4110007157045,17.4876423774213 L 15.3187531334959,17.4477232839457 L 15.2291941214373,17.4020906880703 L 15.1426771280336,17.3509246808033 L 15.059543596332,17.294427191 L 14.9801216164021,17.2328211884414 L 14.9047246305141,17.1663498038744 L 14.8336501961257,17.095275369486 L 14.7671788115587,17.019878383598 L 14.7055728090001,16.9404564036681 L 14.6490753191968,16.8573228719665 L 14.5979093119298,16.7708058785628 L 14.5522767160544,16.6812468665042 L 14.5123576225788,16.5889992842956 L 14.4783095739277,16.494427191 L 14.4502669421942,16.3979038194639 L 14.4283403988341,16.2998101033372 L 14.4126164778968,16.200533173703 L 14.4031572345148,16.100464831247 L 14.4,16.0000000000001 L 14.4031572345148,15.8995351687532 L 14.4126164778968,15.7994668262972 L 14.4283403988341,15.7001898966629 L 14.4502669421942,15.6020961805363 L 14.4783095739277,15.5055728090002 L 14.5123576225788,15.4110007157046 L 14.5522767160544,15.318753133496 L 14.5979093119298,15.2291941214374 L 14.6490753191968,15.1426771280337 L 14.7055728090001,15.0595435963321 L 14.7671788115587,14.9801216164022 L 14.8336501961257,14.9047246305142 L 14.9047246305141,14.8336501961258 L 14.9801216164021,14.7671788115588 L 15.059543596332,14.7055728090002 L 15.1426771280336,14.6490753191969 L 15.2291941214373,14.5979093119299 L 15.3187531334959,14.5522767160545 L 15.4110007157045,14.5123576225789 L 15.5055728090001,14.4783095739278 L 15.6020961805362,14.4502669421943 L 15.7001898966628,14.4283403988342 L 15.7994668262971,14.4126164778969 L 15.8995351687531,14.4031572345148 L 16.0,14.4000000000001 L 16.1004648312469,14.4031572345148 L 16.2005331737029,14.4126164778969 L 16.2998101033372,14.4283403988342 L 16.3979038194638,14.4502669421942 L 16.4944271909999,14.4783095739278 L 16.5889992842955,14.5123576225789 L 16.6812468665041,14.5522767160544 L 16.7708058785628,14.5979093119299 L 16.8573228719664,14.6490753191968 L 16.940456403668,14.7055728090002 L 17.0198783835979,14.7671788115588 L 17.0952753694859,14.8336501961258 L 17.1663498038743,14.9047246305142 L 17.2328211884413,14.9801216164022 L 17.2944271909999,15.0595435963321 L 17.3509246808032,15.1426771280337 L 17.4020906880702,15.2291941214373 L 17.4477232839456,15.318753133496 L 17.4876423774212,15.4110007157046 L 17.5216904260723,15.5055728090002 L 17.5497330578058,15.6020961805363 L 17.5716596011659,15.7001898966629 L 17.5873835221032,15.7994668262972 L 17.5968427654852,15.8995351687532 L 17.6,16.0000000000001 L 17.5968427654852,16.100464831247 L 17.5873835221032,16.200533173703 L 17.5716596011659,16.2998101033372 L 17.5497330578058,16.3979038194639 L 17.5216904260723,16.494427191 L 17.4876423774212,16.5889992842956 L 17.4477232839456,16.6812468665042 L 17.4020906880702,16.7708058785628 L 17.3509246808032,16.8573228719665 L 17.2944271909999,16.9404564036681 L 17.2328211884413,17.019878383598 L 17.1663498038743,17.095275369486 L 17.0952753694859,17.1663498038744 L 17.0198783835979,17.2328211884414 L 16.940456403668,17.294427191 L 16.8573228719664,17.3509246808033 L 16.7708058785628,17.4020906880703 L 16.6812468665041,17.4477232839457 L 16.5889992842955,17.4876423774213 L 16.4944271909999,17.5216904260723 L 16.3979038194638,17.5497330578059 L 16.2998101033372,17.571659601166 M 55.4,16.0000000000001 L 55.4031572345148,15.8995351687533 L 55.4126164778969,15.7994668262971 L 55.4283403988341,15.7001898966628 L 55.4502669421942,15.6020961805361 L 55.4783095739278,15.5055728090003 L 55.5123576225788,15.4110007157046 L 55.5522767160544,15.3187531334962 L 55.5979093119298,15.2291941214371 L 55.6490753191968,15.1426771280337 L 55.7055728090001,15.0595435963321 L 55.7671788115588,14.9801216164023 L 55.8336501961258,14.9047246305141 L 55.9047246305141,14.8336501961262 L 55.9801216164021,14.7671788115589 L 56.059543596332,14.705572809 L 56.1426771280336,14.6490753191972 L 56.2291941214373,14.5979093119296 L 56.3187531334959,14.5522767160548 L 56.4110007157045,14.5123576225788 L 56.5055728090001,14.4783095739284 L 56.6020961805362,14.4502669421939 L 56.7001898966628,14.4283403988352 L 56.7994668262971,14.4126164778974 L 56.8995351687531,14.4031572345146 L 57.0,14.4000000000004 L 57.1004648312469,14.4031572345149 L 57.2005331737029,14.4126164778969 L 57.2998101033372,14.4283403988339 L 57.3979038194638,14.450266942194 L 57.4944271909999,14.4783095739272 L 57.5889992842955,14.5123576225789 L 57.6812468665041,14.5522767160541 L 57.7708058785628,14.5979093119297 L 57.8573228719664,14.6490753191967 L 57.940456403668,14.7055728090002 L 58.0198783835979,14.7671788115591 L 58.0952753694859,14.8336501961257 L 58.1663498038743,14.904724630514 L 58.2328211884413,14.9801216164023 L 58.2944271909999,15.059543596332 L 58.3509246808032,15.1426771280337 L 58.4020906880702,15.2291941214371 L 58.4477232839456,15.3187531334959 L 58.4876423774212,15.4110007157045 L 58.5216904260722,15.5055728090003 L 58.5497330578058,15.6020961805361 L 58.5716596011659,15.7001898966629 L 58.5873835221032,15.7994668262971 L 58.5968427654852,15.8995351687532 L 58.6,16.0 L 58.5968427654853,16.1004648312469 L 58.5873835221032,16.2005331737031 L 58.5716596011659,16.2998101033372 L 58.5497330578058,16.3979038194638 L 58.5216904260723,16.494427191 L 58.4876423774212,16.5889992842955 L 58.4477232839456,16.6812468665041 L 58.4020906880702,16.7708058785628 L 58.3509246808032,16.8573228719665 L 58.2944271909999,16.940456403668 L 58.2328211884413,17.0198783835979 L 58.1663498038743,17.095275369486 L 58.0952753694859,17.1663498038743 L 58.0198783835979,17.2328211884413 L 57.940456403668,17.2944271909999 L 57.8573228719664,17.3509246808032 L 57.7708058785628,17.4020906880703 L 57.6812468665041,17.4477232839458 L 57.5889992842955,17.4876423774213 L 57.4944271909999,17.5216904260723 L 57.3979038194638,17.5497330578059 L 57.2998101033372,17.5716596011661 L 57.2005331737029,17.5873835221033 L 57.1004648312469,17.5968427654853 L 57.0,17.6 L 56.8995351687531,17.5968427654854 L 56.7994668262971,17.5873835221033 L 56.7001898966628,17.571659601166 L 56.6020961805362,17.549733057806 L 56.5055728090001,17.5216904260724 L 56.4110007157045,17.4876423774214 L 56.3187531334959,17.4477232839457 L 56.2291941214373,17.4020906880702 L 56.1426771280336,17.3509246808032 L 56.059543596332,17.294427191 L 55.9801216164021,17.2328211884413 L 55.9047246305141,17.1663498038743 L 55.8336501961258,17.0952753694861 L 55.7671788115588,17.019878383598 L 55.7055728090001,16.9404564036681 L 55.6490753191968,16.8573228719664 L 55.5979093119298,16.7708058785628 L 55.5522767160544,16.6812468665042 L 55.5123576225788,16.5889992842956 L 55.4783095739278,16.494427191 L 55.4502669421942,16.3979038194638 L 55.4283403988341,16.2998101033372 L 55.4126164778969,16.200533173703 L 55.4031572345148,16.1004648312471 L 55.4,16.0000000000001 M 55.7055728090001,87.0595435963321 L 55.7671788115588,86.9801216164022 L 55.8336501961258,86.9047246305142 L 55.9047246305141,86.8336501961258 L 55.9801216164021,86.7671788115588 L 56.059543596332,86.7055728090002 L 56.1426771280336,86.6490753191969 L 56.2291941214373,86.5979093119299 L 56.3187531334959,86.5522767160545 L 56.4110007157045,86.5123576225789 L 56.5055728090001,86.4783095739278 L 56.6020961805362,86.4502669421943 L 56.7001898966628,86.4283403988342 L 56.7994668262971,86.4126164778969 L 56.8995351687531,86.4031572345149 L 57.0,86.4000000000001 L 57.1004648312469,86.4031572345149 L 57.2005331737029,86.4126164778969 L 57.2998101033372,86.4283403988342 L 57.3979038194638,86.4502669421943 L 57.4944271909999,86.4783095739278 L 57.5889992842955,86.5123576225789 L 57.6812468665041,86.5522767160545 L 57.7708058785628,86.5979093119299 L 57.8573228719664,86.6490753191969 L 57.940456403668,86.7055728090002 L 58.0198783835979,86.7671788115588 L 58.0952753694859,86.8336501961258 L 58.1663498038743,86.9047246305142 L 58.2328211884413,86.9801216164022 L 58.2944271909999,87.0595435963321 L 58.3509246808032,87.1426771280337 L 58.4020906880702,87.2291941214373 L 58.4477232839456,87.318753133496 L 58.4876423774212,87.4110007157046 L 58.5216904260723,87.5055728090002 L 58.5497330578058,87.6020961805363 L 58.5716596011659,87.7001898966629 L 58.5873835221032,87.7994668262972 L 58.5968427654852,87.8995351687532 L 58.6,88.0000000000001 L 58.5968427654852,88.100464831247 L 58.5873835221032,88.200533173703 L 58.5716596011659,88.2998101033373 L 58.5497330578058,88.3979038194639 L 58.5216904260723,88.494427191 L 58.4876423774212,88.5889992842956 L 58.4477232839456,88.6812468665042 L 58.4020906880702,88.7708058785628 L 58.3509246808033,88.8573228719665 L 58.2944271909999,88.9404564036681 L 58.2328211884413,89.019878383598 L 58.1663498038743,89.095275369486 L 58.0952753694859,89.1663498038744 L 58.0198783835979,89.2328211884413 L 57.940456403668,89.294427191 L 57.8573228719664,89.3509246808033 L 57.7708058785628,89.4020906880703 L 57.6812468665041,89.4477232839457 L 57.5889992842955,89.4876423774213 L 57.4944271909999,89.5216904260723 L 57.3979038194638,89.5497330578059 L 57.2998101033372,89.571659601166 L 57.2005331737029,89.5873835221033 L 57.1004648312469,89.5968427654853 L 57.0,89.6000000000001 L 56.8995351687531,89.5968427654853 L 56.7994668262971,89.5873835221033 L 56.7001898966628,89.571659601166 L 56.6020961805362,89.5497330578059 L 56.5055728090001,89.5216904260723 L 56.4110007157045,89.4876423774213 L 56.3187531334959,89.4477232839457 L 56.2291941214373,89.4020906880703 L 56.1426771280336,89.3509246808033 L 56.059543596332,89.294427191 L 55.9801216164021,89.2328211884413 L 55.9047246305141,89.1663498038744 L 55.8336501961258,89.095275369486 L 55.7671788115588,89.019878383598 L 55.7055728090001,88.9404564036681 L 55.6490753191968,88.8573228719665 L 55.5979093119298,88.7708058785628 L 55.5522767160544,88.6812468665042 L 55.5123576225788,88.5889992842956 L 55.4783095739278,88.494427191 L 55.4502669421942,88.3979038194639 L 55.4283403988341,88.2998101033373 L 55.4126164778968,88.200533173703 L 55.4031572345148,88.100464831247 L 55.4,88.0000000000001 L 55.4031572345148,87.8995351687532 L 55.4126164778969,87.7994668262972 L 55.4283403988341,87.7001898966629 L 55.4502669421942,87.6020961805363 L 55.4783095739278,87.5055728090002 L 55.5123576225788,87.4110007157046 L 55.5522767160544,87.318753133496 L 55.5979093119298,87.2291941214374 L 55.6490753191968,87.1426771280337 L 55.7055728090001,87.0595435963321 "
  />
</svg>
