G75*
G70*
%OFA0B0*%
%FSLAX24Y24*%
%IPPOS*%
%LPD*%
%AMOC8*
5,1,8,0,0,1.08239X$1,22.5*
%
%ADD10C,0.0000*%
%ADD11R,0.0866X0.0236*%
%ADD12R,0.0236X0.0866*%
%ADD13R,0.1102X0.0512*%
%ADD14R,0.0400X0.0400*%
%ADD15C,0.0400*%
%ADD16R,0.0394X0.0433*%
%ADD17C,0.0394*%
%ADD18C,0.0250*%
%ADD19C,0.0060*%
%ADD20C,0.0160*%
%ADD21C,0.0120*%
D10*
X006993Y010471D02*
X015654Y010471D01*
X015024Y012046D02*
X015026Y012096D01*
X015032Y012146D01*
X015042Y012195D01*
X015056Y012243D01*
X015073Y012290D01*
X015094Y012335D01*
X015119Y012379D01*
X015147Y012420D01*
X015179Y012459D01*
X015213Y012496D01*
X015250Y012530D01*
X015290Y012560D01*
X015332Y012587D01*
X015376Y012611D01*
X015422Y012632D01*
X015469Y012648D01*
X015517Y012661D01*
X015567Y012670D01*
X015616Y012675D01*
X015667Y012676D01*
X015717Y012673D01*
X015766Y012666D01*
X015815Y012655D01*
X015863Y012640D01*
X015909Y012622D01*
X015954Y012600D01*
X015997Y012574D01*
X016038Y012545D01*
X016077Y012513D01*
X016113Y012478D01*
X016145Y012440D01*
X016175Y012400D01*
X016202Y012357D01*
X016225Y012313D01*
X016244Y012267D01*
X016260Y012219D01*
X016272Y012170D01*
X016280Y012121D01*
X016284Y012071D01*
X016284Y012021D01*
X016280Y011971D01*
X016272Y011922D01*
X016260Y011873D01*
X016244Y011825D01*
X016225Y011779D01*
X016202Y011735D01*
X016175Y011692D01*
X016145Y011652D01*
X016113Y011614D01*
X016077Y011579D01*
X016038Y011547D01*
X015997Y011518D01*
X015954Y011492D01*
X015909Y011470D01*
X015863Y011452D01*
X015815Y011437D01*
X015766Y011426D01*
X015717Y011419D01*
X015667Y011416D01*
X015616Y011417D01*
X015567Y011422D01*
X015517Y011431D01*
X015469Y011444D01*
X015422Y011460D01*
X015376Y011481D01*
X015332Y011505D01*
X015290Y011532D01*
X015250Y011562D01*
X015213Y011596D01*
X015179Y011633D01*
X015147Y011672D01*
X015119Y011713D01*
X015094Y011757D01*
X015073Y011802D01*
X015056Y011849D01*
X015042Y011897D01*
X015032Y011946D01*
X015026Y011996D01*
X015024Y012046D01*
X015654Y010471D02*
X015731Y010473D01*
X015808Y010479D01*
X015885Y010488D01*
X015961Y010501D01*
X016037Y010518D01*
X016111Y010539D01*
X016185Y010563D01*
X016257Y010591D01*
X016327Y010622D01*
X016396Y010657D01*
X016464Y010695D01*
X016529Y010736D01*
X016592Y010781D01*
X016653Y010829D01*
X016712Y010879D01*
X016768Y010932D01*
X016821Y010988D01*
X016871Y011047D01*
X016919Y011108D01*
X016964Y011171D01*
X017005Y011236D01*
X017043Y011304D01*
X017078Y011373D01*
X017109Y011443D01*
X017137Y011515D01*
X017161Y011589D01*
X017182Y011663D01*
X017199Y011739D01*
X017212Y011815D01*
X017221Y011892D01*
X017227Y011969D01*
X017229Y012046D01*
X017229Y013305D01*
X016404Y013305D01*
X016404Y019447D01*
X017229Y019447D01*
X017229Y020707D01*
X015024Y020707D02*
X015026Y020757D01*
X015032Y020807D01*
X015042Y020856D01*
X015056Y020904D01*
X015073Y020951D01*
X015094Y020996D01*
X015119Y021040D01*
X015147Y021081D01*
X015179Y021120D01*
X015213Y021157D01*
X015250Y021191D01*
X015290Y021221D01*
X015332Y021248D01*
X015376Y021272D01*
X015422Y021293D01*
X015469Y021309D01*
X015517Y021322D01*
X015567Y021331D01*
X015616Y021336D01*
X015667Y021337D01*
X015717Y021334D01*
X015766Y021327D01*
X015815Y021316D01*
X015863Y021301D01*
X015909Y021283D01*
X015954Y021261D01*
X015997Y021235D01*
X016038Y021206D01*
X016077Y021174D01*
X016113Y021139D01*
X016145Y021101D01*
X016175Y021061D01*
X016202Y021018D01*
X016225Y020974D01*
X016244Y020928D01*
X016260Y020880D01*
X016272Y020831D01*
X016280Y020782D01*
X016284Y020732D01*
X016284Y020682D01*
X016280Y020632D01*
X016272Y020583D01*
X016260Y020534D01*
X016244Y020486D01*
X016225Y020440D01*
X016202Y020396D01*
X016175Y020353D01*
X016145Y020313D01*
X016113Y020275D01*
X016077Y020240D01*
X016038Y020208D01*
X015997Y020179D01*
X015954Y020153D01*
X015909Y020131D01*
X015863Y020113D01*
X015815Y020098D01*
X015766Y020087D01*
X015717Y020080D01*
X015667Y020077D01*
X015616Y020078D01*
X015567Y020083D01*
X015517Y020092D01*
X015469Y020105D01*
X015422Y020121D01*
X015376Y020142D01*
X015332Y020166D01*
X015290Y020193D01*
X015250Y020223D01*
X015213Y020257D01*
X015179Y020294D01*
X015147Y020333D01*
X015119Y020374D01*
X015094Y020418D01*
X015073Y020463D01*
X015056Y020510D01*
X015042Y020558D01*
X015032Y020607D01*
X015026Y020657D01*
X015024Y020707D01*
X015654Y022282D02*
X015731Y022280D01*
X015808Y022274D01*
X015885Y022265D01*
X015961Y022252D01*
X016037Y022235D01*
X016111Y022214D01*
X016185Y022190D01*
X016257Y022162D01*
X016327Y022131D01*
X016396Y022096D01*
X016464Y022058D01*
X016529Y022017D01*
X016592Y021972D01*
X016653Y021924D01*
X016712Y021874D01*
X016768Y021821D01*
X016821Y021765D01*
X016871Y021706D01*
X016919Y021645D01*
X016964Y021582D01*
X017005Y021517D01*
X017043Y021449D01*
X017078Y021380D01*
X017109Y021310D01*
X017137Y021238D01*
X017161Y021164D01*
X017182Y021090D01*
X017199Y021014D01*
X017212Y020938D01*
X017221Y020861D01*
X017227Y020784D01*
X017229Y020707D01*
X015654Y022282D02*
X006993Y022282D01*
X006363Y020707D02*
X006365Y020757D01*
X006371Y020807D01*
X006381Y020856D01*
X006395Y020904D01*
X006412Y020951D01*
X006433Y020996D01*
X006458Y021040D01*
X006486Y021081D01*
X006518Y021120D01*
X006552Y021157D01*
X006589Y021191D01*
X006629Y021221D01*
X006671Y021248D01*
X006715Y021272D01*
X006761Y021293D01*
X006808Y021309D01*
X006856Y021322D01*
X006906Y021331D01*
X006955Y021336D01*
X007006Y021337D01*
X007056Y021334D01*
X007105Y021327D01*
X007154Y021316D01*
X007202Y021301D01*
X007248Y021283D01*
X007293Y021261D01*
X007336Y021235D01*
X007377Y021206D01*
X007416Y021174D01*
X007452Y021139D01*
X007484Y021101D01*
X007514Y021061D01*
X007541Y021018D01*
X007564Y020974D01*
X007583Y020928D01*
X007599Y020880D01*
X007611Y020831D01*
X007619Y020782D01*
X007623Y020732D01*
X007623Y020682D01*
X007619Y020632D01*
X007611Y020583D01*
X007599Y020534D01*
X007583Y020486D01*
X007564Y020440D01*
X007541Y020396D01*
X007514Y020353D01*
X007484Y020313D01*
X007452Y020275D01*
X007416Y020240D01*
X007377Y020208D01*
X007336Y020179D01*
X007293Y020153D01*
X007248Y020131D01*
X007202Y020113D01*
X007154Y020098D01*
X007105Y020087D01*
X007056Y020080D01*
X007006Y020077D01*
X006955Y020078D01*
X006906Y020083D01*
X006856Y020092D01*
X006808Y020105D01*
X006761Y020121D01*
X006715Y020142D01*
X006671Y020166D01*
X006629Y020193D01*
X006589Y020223D01*
X006552Y020257D01*
X006518Y020294D01*
X006486Y020333D01*
X006458Y020374D01*
X006433Y020418D01*
X006412Y020463D01*
X006395Y020510D01*
X006381Y020558D01*
X006371Y020607D01*
X006365Y020657D01*
X006363Y020707D01*
X005418Y020707D02*
X005420Y020784D01*
X005426Y020861D01*
X005435Y020938D01*
X005448Y021014D01*
X005465Y021090D01*
X005486Y021164D01*
X005510Y021238D01*
X005538Y021310D01*
X005569Y021380D01*
X005604Y021449D01*
X005642Y021517D01*
X005683Y021582D01*
X005728Y021645D01*
X005776Y021706D01*
X005826Y021765D01*
X005879Y021821D01*
X005935Y021874D01*
X005994Y021924D01*
X006055Y021972D01*
X006118Y022017D01*
X006183Y022058D01*
X006251Y022096D01*
X006320Y022131D01*
X006390Y022162D01*
X006462Y022190D01*
X006536Y022214D01*
X006610Y022235D01*
X006686Y022252D01*
X006762Y022265D01*
X006839Y022274D01*
X006916Y022280D01*
X006993Y022282D01*
X005418Y020707D02*
X005418Y012046D01*
X006363Y012046D02*
X006365Y012096D01*
X006371Y012146D01*
X006381Y012195D01*
X006395Y012243D01*
X006412Y012290D01*
X006433Y012335D01*
X006458Y012379D01*
X006486Y012420D01*
X006518Y012459D01*
X006552Y012496D01*
X006589Y012530D01*
X006629Y012560D01*
X006671Y012587D01*
X006715Y012611D01*
X006761Y012632D01*
X006808Y012648D01*
X006856Y012661D01*
X006906Y012670D01*
X006955Y012675D01*
X007006Y012676D01*
X007056Y012673D01*
X007105Y012666D01*
X007154Y012655D01*
X007202Y012640D01*
X007248Y012622D01*
X007293Y012600D01*
X007336Y012574D01*
X007377Y012545D01*
X007416Y012513D01*
X007452Y012478D01*
X007484Y012440D01*
X007514Y012400D01*
X007541Y012357D01*
X007564Y012313D01*
X007583Y012267D01*
X007599Y012219D01*
X007611Y012170D01*
X007619Y012121D01*
X007623Y012071D01*
X007623Y012021D01*
X007619Y011971D01*
X007611Y011922D01*
X007599Y011873D01*
X007583Y011825D01*
X007564Y011779D01*
X007541Y011735D01*
X007514Y011692D01*
X007484Y011652D01*
X007452Y011614D01*
X007416Y011579D01*
X007377Y011547D01*
X007336Y011518D01*
X007293Y011492D01*
X007248Y011470D01*
X007202Y011452D01*
X007154Y011437D01*
X007105Y011426D01*
X007056Y011419D01*
X007006Y011416D01*
X006955Y011417D01*
X006906Y011422D01*
X006856Y011431D01*
X006808Y011444D01*
X006761Y011460D01*
X006715Y011481D01*
X006671Y011505D01*
X006629Y011532D01*
X006589Y011562D01*
X006552Y011596D01*
X006518Y011633D01*
X006486Y011672D01*
X006458Y011713D01*
X006433Y011757D01*
X006412Y011802D01*
X006395Y011849D01*
X006381Y011897D01*
X006371Y011946D01*
X006365Y011996D01*
X006363Y012046D01*
X005418Y012046D02*
X005420Y011969D01*
X005426Y011892D01*
X005435Y011815D01*
X005448Y011739D01*
X005465Y011663D01*
X005486Y011589D01*
X005510Y011515D01*
X005538Y011443D01*
X005569Y011373D01*
X005604Y011304D01*
X005642Y011236D01*
X005683Y011171D01*
X005728Y011108D01*
X005776Y011047D01*
X005826Y010988D01*
X005879Y010932D01*
X005935Y010879D01*
X005994Y010829D01*
X006055Y010781D01*
X006118Y010736D01*
X006183Y010695D01*
X006251Y010657D01*
X006320Y010622D01*
X006390Y010591D01*
X006462Y010563D01*
X006536Y010539D01*
X006610Y010518D01*
X006686Y010501D01*
X006762Y010488D01*
X006839Y010479D01*
X006916Y010473D01*
X006993Y010471D01*
D11*
X009300Y011626D03*
X009300Y012126D03*
X009300Y012626D03*
X009300Y013126D03*
X011347Y013126D03*
X011347Y012626D03*
X011347Y012126D03*
X011347Y011626D03*
X011347Y019626D03*
X011347Y020126D03*
X011347Y020626D03*
X011347Y021126D03*
X009300Y021126D03*
X009300Y020626D03*
X009300Y020126D03*
X009300Y019626D03*
D12*
X009074Y018126D03*
X009574Y018126D03*
X010074Y018126D03*
X010574Y018126D03*
X011074Y018126D03*
X011574Y018126D03*
X012074Y018126D03*
X012574Y018126D03*
X012574Y014626D03*
X012074Y014626D03*
X011574Y014626D03*
X011074Y014626D03*
X010574Y014626D03*
X010074Y014626D03*
X009574Y014626D03*
X009074Y014626D03*
X008574Y014626D03*
X008074Y014626D03*
X008074Y018126D03*
X008574Y018126D03*
D13*
X015399Y017876D03*
X015399Y018876D03*
X015399Y016876D03*
X015399Y015876D03*
X015399Y014876D03*
X015399Y013876D03*
D14*
X013864Y013501D03*
D15*
X013784Y014001D03*
X013864Y014501D03*
X013784Y015001D03*
X013864Y015501D03*
D16*
X013449Y017542D03*
X013449Y018211D03*
X012574Y020292D03*
X012574Y020961D03*
X012574Y012461D03*
X012574Y011792D03*
D17*
X014074Y011751D03*
X007949Y019501D03*
D18*
X009574Y019251D03*
X010199Y019626D03*
X010199Y020126D03*
X011574Y019251D03*
X012324Y019251D03*
X012824Y019376D03*
X013699Y019376D03*
X014074Y019376D03*
X014074Y017626D03*
X012074Y016126D03*
X011449Y016501D03*
X011449Y016876D03*
X011824Y017251D03*
X010824Y016376D03*
X010949Y016001D03*
X011324Y016001D03*
X010449Y017251D03*
X009824Y017376D03*
X009574Y016876D03*
X008324Y017376D03*
X007699Y016626D03*
X007699Y016126D03*
X007324Y014501D03*
X006949Y014501D03*
X008074Y014001D03*
X009824Y013751D03*
X010324Y014001D03*
X010824Y013501D03*
X010074Y013126D03*
X010074Y012376D03*
X010574Y011376D03*
X010574Y010876D03*
X010074Y010876D03*
X009574Y010876D03*
X009074Y010876D03*
X008574Y010876D03*
X011074Y010876D03*
X011574Y010876D03*
X012074Y010876D03*
X012574Y010876D03*
X013074Y010876D03*
X013574Y010876D03*
X014074Y010876D03*
X013324Y011626D03*
X014324Y012626D03*
X014574Y012876D03*
X014824Y013126D03*
X015074Y013376D03*
X014074Y021876D03*
X013574Y021876D03*
X013074Y021876D03*
X012574Y021876D03*
X012074Y021876D03*
X011574Y021876D03*
X011074Y021876D03*
X010574Y021876D03*
X010074Y021876D03*
X009574Y021876D03*
X009074Y021876D03*
X008574Y021876D03*
D19*
X008824Y020626D02*
X009300Y020626D01*
X008824Y020626D02*
X008574Y020376D01*
X008574Y019251D01*
X008949Y018876D01*
X010824Y018876D01*
X011074Y018626D01*
X011074Y018126D01*
X011074Y017251D01*
X011449Y016876D01*
X011699Y016751D02*
X011449Y016501D01*
X011574Y016251D02*
X011324Y016251D01*
X011199Y016376D01*
X011199Y016626D01*
X010949Y016876D01*
X010949Y017376D01*
X010699Y017626D01*
X010574Y017626D01*
X010574Y018126D01*
X010074Y018126D02*
X010074Y017626D01*
X010199Y017501D01*
X010574Y017501D01*
X010824Y017251D01*
X010824Y016751D01*
X011074Y016501D01*
X011074Y016126D01*
X010949Y016001D01*
X009199Y016001D01*
X008324Y015126D01*
X008324Y014126D01*
X008449Y014001D01*
X009949Y014001D01*
X010199Y013751D01*
X011074Y013751D01*
X011347Y013478D01*
X011347Y013126D01*
X011347Y012626D02*
X010574Y012626D01*
X010074Y013126D01*
X010199Y012626D02*
X009300Y012626D01*
X009300Y012126D02*
X008824Y012126D01*
X008699Y012251D01*
X008699Y013001D01*
X007824Y013876D01*
X007824Y015126D01*
X009074Y016376D01*
X009824Y016376D01*
X010824Y016376D01*
X011324Y016001D02*
X011574Y016001D01*
X012074Y016501D01*
X012074Y018126D01*
X012074Y018626D01*
X011824Y018876D01*
X011574Y018876D01*
X011199Y019251D01*
X010949Y019251D01*
X010699Y019501D01*
X010699Y019751D01*
X010824Y019876D01*
X011824Y019876D01*
X011949Y020001D01*
X011949Y021001D01*
X011824Y021126D01*
X011347Y021126D01*
X011347Y020626D02*
X010824Y020626D01*
X010449Y020251D01*
X010449Y019501D01*
X010199Y019251D01*
X009574Y019251D01*
X009300Y019626D02*
X010199Y019626D01*
X010574Y019376D02*
X010824Y019126D01*
X011074Y019126D01*
X011449Y018751D01*
X011699Y018751D01*
X011824Y018626D01*
X011824Y017251D01*
X011824Y016501D01*
X011574Y016251D01*
X011699Y016751D02*
X011699Y017001D01*
X011574Y017126D01*
X011574Y018126D01*
X011574Y018626D01*
X011324Y018626D01*
X010949Y019001D01*
X009074Y019001D01*
X008699Y019376D01*
X008699Y020001D01*
X008824Y020126D01*
X009300Y020126D01*
X010574Y019876D02*
X010574Y019376D01*
X010574Y019876D02*
X010824Y020126D01*
X011347Y020126D01*
X011574Y019251D02*
X012324Y019251D01*
X010449Y017251D02*
X009949Y017251D01*
X009824Y017376D01*
X009574Y017251D02*
X009824Y017001D01*
X009824Y016376D01*
X009574Y016876D02*
X009074Y016876D01*
X007699Y015501D01*
X007699Y013751D01*
X008574Y012876D01*
X008574Y011626D01*
X008824Y011376D01*
X009824Y011376D01*
X010324Y011876D01*
X010324Y012501D01*
X010199Y012626D01*
X010074Y012376D02*
X010074Y011876D01*
X009824Y011626D01*
X009300Y011626D01*
X008699Y011251D02*
X010074Y011251D01*
X010949Y012126D01*
X011347Y012126D01*
X012074Y013126D02*
X011199Y014001D01*
X010699Y014001D01*
X010574Y014126D01*
X010574Y014626D01*
X010074Y014626D02*
X010074Y015126D01*
X010324Y015376D01*
X013074Y015376D01*
X013574Y015876D01*
X014074Y015876D01*
X014324Y015626D01*
X014324Y015251D01*
X014699Y014876D01*
X015399Y014876D01*
X015399Y015876D02*
X014449Y015876D01*
X014324Y016001D01*
X013449Y016001D01*
X012949Y015501D01*
X009949Y015501D01*
X009574Y015126D01*
X009574Y014626D01*
X009074Y014626D02*
X009074Y015126D01*
X009574Y015626D01*
X012824Y015626D01*
X013324Y016126D01*
X014074Y016126D01*
X014824Y016876D01*
X015399Y016876D01*
X014699Y017001D02*
X014699Y017751D01*
X014824Y017876D01*
X015399Y017876D01*
X014699Y017001D02*
X013949Y016251D01*
X013199Y016251D01*
X012699Y015751D01*
X009199Y015751D01*
X008574Y015126D01*
X008574Y014626D01*
X007574Y015626D02*
X007574Y013626D01*
X008449Y012751D01*
X008449Y011501D01*
X008699Y011251D01*
X010324Y014001D02*
X010324Y015126D01*
X010449Y015251D01*
X012449Y015251D01*
X012574Y015126D01*
X012574Y014626D01*
X012074Y014626D02*
X012074Y013876D01*
X012449Y013501D01*
X013199Y013501D01*
X013574Y013126D01*
X014199Y013126D01*
X014449Y013376D01*
X015074Y013376D01*
X014824Y013126D02*
X014449Y013126D01*
X014324Y013001D01*
X013449Y013001D01*
X013074Y013376D01*
X012324Y013376D01*
X011574Y014126D01*
X011574Y014626D01*
X011324Y014126D02*
X011074Y014126D01*
X011074Y014626D01*
X011324Y014126D02*
X012199Y013251D01*
X012949Y013251D01*
X013324Y012876D01*
X014574Y012876D01*
X014324Y012626D02*
X014199Y012751D01*
X013199Y012751D01*
X012824Y013126D01*
X012074Y013126D01*
X012574Y011792D02*
X013158Y011792D01*
X013324Y011626D01*
X009074Y016876D02*
X009074Y018126D01*
X009574Y018126D02*
X009574Y017251D01*
X008574Y017376D02*
X008574Y016626D01*
X007574Y015626D01*
X007699Y016126D02*
X007699Y016626D01*
X007324Y016876D02*
X008074Y017626D01*
X008074Y018126D01*
X008574Y018126D02*
X008574Y017376D01*
X008324Y017376D01*
X007324Y016876D02*
X007324Y014876D01*
X006949Y014501D01*
X006950Y014501D01*
D20*
X007214Y014497D02*
X007404Y014497D01*
X007404Y014339D02*
X007161Y014339D01*
X007173Y014351D02*
X007214Y014449D01*
X007214Y014526D01*
X007394Y014706D01*
X007404Y014716D01*
X007404Y013556D01*
X008279Y012681D01*
X008279Y011431D01*
X008529Y011181D01*
X008628Y011081D01*
X010144Y011081D01*
X010331Y011269D01*
X010349Y011226D01*
X010424Y011152D01*
X010521Y011111D01*
X010626Y011111D01*
X010724Y011152D01*
X010798Y011226D01*
X010839Y011324D01*
X010839Y011330D01*
X010877Y011368D01*
X011838Y011368D01*
X011876Y011406D01*
X012165Y011406D01*
X012256Y011498D01*
X012319Y011435D01*
X012828Y011435D01*
X012910Y011517D01*
X012910Y011622D01*
X013059Y011622D01*
X013059Y011574D01*
X013099Y011476D01*
X013174Y011402D01*
X013271Y011361D01*
X013376Y011361D01*
X013474Y011402D01*
X013548Y011476D01*
X013589Y011574D01*
X013589Y011679D01*
X013548Y011776D01*
X013474Y011851D01*
X013376Y011891D01*
X013299Y011891D01*
X013229Y011962D01*
X012910Y011962D01*
X012910Y012066D01*
X012878Y012099D01*
X012881Y012100D01*
X012915Y012134D01*
X012938Y012175D01*
X012950Y012221D01*
X012950Y012442D01*
X012592Y012442D01*
X012592Y012479D01*
X012950Y012479D01*
X012950Y012701D01*
X012938Y012747D01*
X012915Y012788D01*
X012881Y012821D01*
X012840Y012845D01*
X012794Y012857D01*
X012592Y012857D01*
X012592Y012479D01*
X012555Y012479D01*
X012555Y012442D01*
X012197Y012442D01*
X012197Y012221D01*
X012209Y012175D01*
X012233Y012134D01*
X012266Y012100D01*
X012269Y012099D01*
X012237Y012066D01*
X012237Y012012D01*
X012148Y012012D01*
X012019Y011883D01*
X011982Y011846D01*
X011876Y011846D01*
X011846Y011876D01*
X011920Y011950D01*
X011920Y012302D01*
X011846Y012376D01*
X011920Y012450D01*
X011920Y012802D01*
X011846Y012876D01*
X011920Y012950D01*
X011920Y013039D01*
X012003Y012956D01*
X012753Y012956D01*
X013128Y012581D01*
X014059Y012581D01*
X014059Y012574D01*
X014099Y012476D01*
X014174Y012402D01*
X014271Y012361D01*
X014376Y012361D01*
X014474Y012402D01*
X014548Y012476D01*
X014589Y012574D01*
X014589Y012611D01*
X014626Y012611D01*
X014724Y012652D01*
X014798Y012726D01*
X014839Y012824D01*
X014839Y012861D01*
X014876Y012861D01*
X014974Y012902D01*
X015048Y012976D01*
X015089Y013074D01*
X015089Y013111D01*
X015126Y013111D01*
X015224Y013152D01*
X015298Y013226D01*
X015339Y013324D01*
X015339Y013429D01*
X015334Y013440D01*
X015351Y013440D01*
X015351Y013828D01*
X014668Y013828D01*
X014668Y013597D01*
X014680Y013551D01*
X014683Y013546D01*
X014378Y013546D01*
X014204Y013372D01*
X014204Y013759D01*
X014122Y013841D01*
X014085Y013841D01*
X014124Y013934D01*
X014124Y014069D01*
X014075Y014186D01*
X014106Y014206D01*
X014159Y014259D01*
X014200Y014321D01*
X014229Y014390D01*
X014244Y014464D01*
X014244Y014501D01*
X013864Y014501D01*
X013864Y014501D01*
X014244Y014501D01*
X014244Y014539D01*
X014229Y014612D01*
X014200Y014681D01*
X014159Y014743D01*
X014106Y014796D01*
X014075Y014817D01*
X014124Y014934D01*
X014124Y015069D01*
X014072Y015194D01*
X014054Y015212D01*
X014056Y015213D01*
X014152Y015309D01*
X014154Y015313D01*
X014154Y015181D01*
X014253Y015081D01*
X014628Y014706D01*
X014708Y014706D01*
X014708Y014562D01*
X014790Y014480D01*
X016009Y014480D01*
X016091Y014562D01*
X016091Y015190D01*
X016009Y015272D01*
X014790Y015272D01*
X014708Y015190D01*
X014708Y015107D01*
X014494Y015322D01*
X014494Y015697D01*
X014484Y015706D01*
X014708Y015706D01*
X014708Y015562D01*
X014790Y015480D01*
X016009Y015480D01*
X016091Y015562D01*
X016091Y016190D01*
X016009Y016272D01*
X014790Y016272D01*
X014708Y016190D01*
X014708Y016046D01*
X014519Y016046D01*
X014494Y016072D01*
X014394Y016171D01*
X014359Y016171D01*
X014729Y016541D01*
X014790Y016480D01*
X016009Y016480D01*
X016091Y016562D01*
X016091Y017190D01*
X016009Y017272D01*
X014869Y017272D01*
X014869Y017480D01*
X016009Y017480D01*
X016091Y017562D01*
X016091Y018190D01*
X016009Y018272D01*
X014790Y018272D01*
X014708Y018190D01*
X014708Y018001D01*
X014628Y017921D01*
X014529Y017822D01*
X014529Y017072D01*
X013878Y016421D01*
X013128Y016421D01*
X012628Y015921D01*
X011734Y015921D01*
X011744Y015931D01*
X012244Y016431D01*
X012244Y017553D01*
X012250Y017553D01*
X012324Y017627D01*
X012398Y017553D01*
X012750Y017553D01*
X012832Y017635D01*
X012832Y017991D01*
X013112Y017991D01*
X013112Y017936D01*
X013144Y017904D01*
X013141Y017902D01*
X013108Y017869D01*
X013084Y017828D01*
X013072Y017782D01*
X013072Y017560D01*
X013430Y017560D01*
X013430Y017523D01*
X013467Y017523D01*
X013467Y017145D01*
X013669Y017145D01*
X013715Y017157D01*
X013756Y017181D01*
X013790Y017215D01*
X013813Y017256D01*
X013825Y017301D01*
X013825Y017523D01*
X013467Y017523D01*
X013467Y017560D01*
X013825Y017560D01*
X013825Y017782D01*
X013813Y017828D01*
X013790Y017869D01*
X013756Y017902D01*
X013753Y017904D01*
X013785Y017936D01*
X013785Y018485D01*
X013703Y018567D01*
X013669Y018567D01*
X013669Y018842D01*
X013540Y018971D01*
X013089Y019422D01*
X013089Y019429D01*
X013048Y019526D01*
X012974Y019601D01*
X012876Y019641D01*
X012870Y019641D01*
X012794Y019717D01*
X012794Y019935D01*
X012828Y019935D01*
X012910Y020017D01*
X012910Y020566D01*
X012878Y020599D01*
X012881Y020600D01*
X012915Y020634D01*
X012938Y020675D01*
X012950Y020721D01*
X012950Y020942D01*
X012592Y020942D01*
X012592Y020979D01*
X012950Y020979D01*
X012950Y021201D01*
X012938Y021247D01*
X012915Y021288D01*
X012881Y021321D01*
X012840Y021345D01*
X012794Y021357D01*
X012592Y021357D01*
X012592Y020979D01*
X012555Y020979D01*
X012555Y020942D01*
X012197Y020942D01*
X012197Y020721D01*
X012209Y020675D01*
X012233Y020634D01*
X012266Y020600D01*
X012269Y020599D01*
X012237Y020566D01*
X012237Y020017D01*
X012319Y019935D01*
X012354Y019935D01*
X012354Y019846D01*
X012034Y019846D01*
X012119Y019931D01*
X012119Y021072D01*
X011994Y021197D01*
X011920Y021270D01*
X011920Y021302D01*
X011838Y021384D01*
X010856Y021384D01*
X010774Y021302D01*
X010774Y020950D01*
X010848Y020876D01*
X010774Y020802D01*
X010774Y020796D01*
X010753Y020796D01*
X010378Y020421D01*
X010279Y020322D01*
X010279Y019880D01*
X010251Y019891D01*
X010146Y019891D01*
X010049Y019851D01*
X009994Y019796D01*
X009873Y019796D01*
X009873Y019802D01*
X009799Y019876D01*
X009873Y019950D01*
X009873Y020302D01*
X009799Y020376D01*
X009873Y020450D01*
X009873Y020802D01*
X009823Y020852D01*
X009844Y020864D01*
X009877Y020898D01*
X009901Y020939D01*
X009913Y020984D01*
X009913Y021126D01*
X009300Y021126D01*
X008687Y021126D01*
X008687Y020984D01*
X008699Y020939D01*
X008723Y020898D01*
X008756Y020864D01*
X008777Y020852D01*
X008727Y020802D01*
X008727Y020770D01*
X008654Y020697D01*
X008404Y020447D01*
X008404Y019181D01*
X008503Y019081D01*
X008878Y018706D01*
X010753Y018706D01*
X010829Y018631D01*
X010824Y018625D01*
X010750Y018699D01*
X010398Y018699D01*
X010324Y018625D01*
X010250Y018699D01*
X009898Y018699D01*
X009824Y018625D01*
X009750Y018699D01*
X009398Y018699D01*
X009324Y018625D01*
X009250Y018699D01*
X008898Y018699D01*
X008824Y018625D01*
X008750Y018699D01*
X008398Y018699D01*
X008324Y018625D01*
X008250Y018699D01*
X007898Y018699D01*
X007816Y018617D01*
X007816Y017635D01*
X007829Y017622D01*
X007154Y016947D01*
X007154Y014947D01*
X006973Y014766D01*
X006896Y014766D01*
X006799Y014726D01*
X006724Y014651D01*
X006684Y014554D01*
X006684Y014449D01*
X006724Y014351D01*
X006799Y014277D01*
X006896Y014236D01*
X007001Y014236D01*
X007099Y014277D01*
X007173Y014351D01*
X007404Y014180D02*
X005598Y014180D01*
X005598Y014022D02*
X007404Y014022D01*
X007404Y013863D02*
X005598Y013863D01*
X005598Y013705D02*
X007404Y013705D01*
X007413Y013546D02*
X005598Y013546D01*
X005598Y013388D02*
X007572Y013388D01*
X007730Y013229D02*
X005598Y013229D01*
X005598Y013110D02*
X005598Y019643D01*
X006963Y019643D01*
X006966Y019641D01*
X006996Y019643D01*
X007026Y019643D01*
X007028Y019645D01*
X007112Y019651D01*
X007118Y019648D01*
X007144Y019653D01*
X007172Y019655D01*
X007176Y019660D01*
X007261Y019679D01*
X007267Y019676D01*
X007293Y019686D01*
X007320Y019691D01*
X007323Y019697D01*
X007405Y019727D01*
X007411Y019726D01*
X007435Y019739D01*
X007461Y019748D01*
X007463Y019754D01*
X007540Y019796D01*
X007546Y019795D01*
X007568Y019811D01*
X007592Y019825D01*
X007594Y019831D01*
X007664Y019883D01*
X007671Y019883D01*
X007690Y019902D01*
X007712Y019919D01*
X007713Y019925D01*
X007775Y019987D01*
X007781Y019988D01*
X007797Y020010D01*
X007817Y020029D01*
X007817Y020036D01*
X007869Y020106D01*
X007875Y020107D01*
X007888Y020131D01*
X007905Y020153D01*
X007904Y020160D01*
X007946Y020236D01*
X007952Y020239D01*
X007961Y020265D01*
X007974Y020289D01*
X007972Y020295D01*
X008003Y020377D01*
X008008Y020380D01*
X008014Y020407D01*
X008024Y020433D01*
X008021Y020439D01*
X008040Y020524D01*
X008045Y020528D01*
X008047Y020555D01*
X008052Y020582D01*
X008049Y020588D01*
X008055Y020671D01*
X008057Y020674D01*
X008057Y020704D01*
X008059Y020734D01*
X008057Y020737D01*
X008057Y022102D01*
X014590Y022102D01*
X014590Y020737D01*
X014588Y020734D01*
X014590Y020704D01*
X014590Y020674D01*
X014592Y020671D01*
X014598Y020588D01*
X014595Y020582D01*
X014601Y020555D01*
X014603Y020528D01*
X014608Y020524D01*
X014626Y020439D01*
X014623Y020433D01*
X014633Y020407D01*
X014639Y020380D01*
X014644Y020377D01*
X014675Y020295D01*
X014673Y020289D01*
X014686Y020265D01*
X014696Y020239D01*
X014702Y020236D01*
X014743Y020160D01*
X014742Y020153D01*
X014759Y020131D01*
X014772Y020107D01*
X014778Y020106D01*
X014830Y020036D01*
X014830Y020029D01*
X014850Y020010D01*
X014866Y019988D01*
X014873Y019987D01*
X014934Y019925D01*
X014935Y019919D01*
X014957Y019902D01*
X014977Y019883D01*
X014983Y019883D01*
X015053Y019831D01*
X015055Y019825D01*
X015079Y019811D01*
X015101Y019795D01*
X015107Y019796D01*
X015184Y019754D01*
X015186Y019748D01*
X015212Y019739D01*
X015236Y019726D01*
X015242Y019727D01*
X015324Y019697D01*
X015328Y019691D01*
X015354Y019686D01*
X015380Y019676D01*
X015386Y019679D01*
X015471Y019660D01*
X015475Y019655D01*
X015503Y019653D01*
X015530Y019648D01*
X015535Y019651D01*
X015619Y019645D01*
X015621Y019643D01*
X015651Y019643D01*
X015682Y019641D01*
X015684Y019643D01*
X017049Y019643D01*
X017049Y019627D01*
X016330Y019627D01*
X016224Y019522D01*
X016224Y013231D01*
X016330Y013125D01*
X017049Y013125D01*
X017049Y013110D01*
X015684Y013110D01*
X015682Y013112D01*
X015651Y013110D01*
X015621Y013110D01*
X015619Y013107D01*
X015535Y013101D01*
X015530Y013105D01*
X015503Y013099D01*
X015475Y013097D01*
X015471Y013092D01*
X015386Y013074D01*
X015380Y013076D01*
X015354Y013067D01*
X015328Y013061D01*
X015324Y013056D01*
X015242Y013025D01*
X015236Y013027D01*
X015212Y013014D01*
X015186Y013004D01*
X015184Y012998D01*
X015107Y012957D01*
X015101Y012957D01*
X015079Y012941D01*
X015055Y012928D01*
X015053Y012922D01*
X014983Y012869D01*
X014977Y012869D01*
X014957Y012850D01*
X014935Y012834D01*
X014934Y012827D01*
X014873Y012765D01*
X014866Y012765D01*
X014850Y012743D01*
X014830Y012723D01*
X014830Y012717D01*
X014778Y012647D01*
X014772Y012645D01*
X014759Y012621D01*
X014742Y012599D01*
X014743Y012593D01*
X014702Y012516D01*
X014696Y012513D01*
X014686Y012488D01*
X014673Y012464D01*
X014675Y012457D01*
X014644Y012376D01*
X014639Y012372D01*
X014633Y012345D01*
X014623Y012320D01*
X014626Y012314D01*
X014608Y012229D01*
X014603Y012224D01*
X014601Y012197D01*
X014595Y012170D01*
X014598Y012165D01*
X014592Y012081D01*
X014590Y012079D01*
X014590Y012048D01*
X014588Y012018D01*
X014590Y012016D01*
X014590Y010651D01*
X008057Y010651D01*
X008057Y012016D01*
X008059Y012018D01*
X008057Y012048D01*
X008057Y012079D01*
X008055Y012081D01*
X008049Y012165D01*
X008052Y012170D01*
X008047Y012197D01*
X008045Y012224D01*
X008040Y012229D01*
X008021Y012314D01*
X008024Y012320D01*
X008014Y012345D01*
X008008Y012372D01*
X008003Y012376D01*
X007972Y012457D01*
X007974Y012464D01*
X007961Y012488D01*
X007952Y012513D01*
X007946Y012516D01*
X007904Y012593D01*
X007905Y012599D01*
X007888Y012621D01*
X007875Y012645D01*
X007869Y012647D01*
X007817Y012717D01*
X007817Y012723D01*
X007797Y012743D01*
X007781Y012765D01*
X007775Y012765D01*
X007713Y012827D01*
X007712Y012834D01*
X007690Y012850D01*
X007671Y012869D01*
X007664Y012869D01*
X007594Y012922D01*
X007592Y012928D01*
X007568Y012941D01*
X007546Y012957D01*
X007540Y012957D01*
X007463Y012998D01*
X007461Y013004D01*
X007435Y013014D01*
X007411Y013027D01*
X007405Y013025D01*
X007323Y013056D01*
X007320Y013061D01*
X007293Y013067D01*
X007267Y013076D01*
X007261Y013074D01*
X007176Y013092D01*
X007172Y013097D01*
X007144Y013099D01*
X007118Y013105D01*
X007112Y013101D01*
X007028Y013107D01*
X007026Y013110D01*
X006996Y013110D01*
X006966Y013112D01*
X006963Y013110D01*
X005598Y013110D01*
X005598Y014339D02*
X006736Y014339D01*
X006684Y014497D02*
X005598Y014497D01*
X005598Y014656D02*
X006728Y014656D01*
X007021Y014814D02*
X005598Y014814D01*
X005598Y014973D02*
X007154Y014973D01*
X007154Y015131D02*
X005598Y015131D01*
X005598Y015290D02*
X007154Y015290D01*
X007154Y015448D02*
X005598Y015448D01*
X005598Y015607D02*
X007154Y015607D01*
X007154Y015765D02*
X005598Y015765D01*
X005598Y015924D02*
X007154Y015924D01*
X007154Y016082D02*
X005598Y016082D01*
X005598Y016241D02*
X007154Y016241D01*
X007154Y016399D02*
X005598Y016399D01*
X005598Y016558D02*
X007154Y016558D01*
X007154Y016716D02*
X005598Y016716D01*
X005598Y016875D02*
X007154Y016875D01*
X007240Y017033D02*
X005598Y017033D01*
X005598Y017192D02*
X007399Y017192D01*
X007557Y017350D02*
X005598Y017350D01*
X005598Y017509D02*
X007716Y017509D01*
X007816Y017667D02*
X005598Y017667D01*
X005598Y017826D02*
X007816Y017826D01*
X007816Y017984D02*
X005598Y017984D01*
X005598Y018143D02*
X007816Y018143D01*
X007816Y018301D02*
X005598Y018301D01*
X005598Y018460D02*
X007816Y018460D01*
X007816Y018618D02*
X005598Y018618D01*
X005598Y018777D02*
X008808Y018777D01*
X008649Y018935D02*
X005598Y018935D01*
X005598Y019094D02*
X008491Y019094D01*
X008404Y019252D02*
X008176Y019252D01*
X008139Y019216D02*
X008234Y019310D01*
X008285Y019434D01*
X008285Y019568D01*
X008234Y019692D01*
X008139Y019787D01*
X008016Y019838D01*
X007882Y019838D01*
X007758Y019787D01*
X007663Y019692D01*
X007612Y019568D01*
X007612Y019434D01*
X007663Y019310D01*
X007758Y019216D01*
X007882Y019164D01*
X008016Y019164D01*
X008139Y019216D01*
X008276Y019411D02*
X008404Y019411D01*
X008404Y019569D02*
X008285Y019569D01*
X008198Y019728D02*
X008404Y019728D01*
X008404Y019886D02*
X007674Y019886D01*
X007699Y019728D02*
X007415Y019728D01*
X007612Y019569D02*
X005598Y019569D01*
X005598Y019411D02*
X007621Y019411D01*
X007721Y019252D02*
X005598Y019252D01*
X007823Y020045D02*
X008404Y020045D01*
X008404Y020203D02*
X007928Y020203D01*
X007997Y020362D02*
X008404Y020362D01*
X008477Y020520D02*
X008039Y020520D01*
X008057Y020679D02*
X008636Y020679D01*
X008762Y020837D02*
X008057Y020837D01*
X008057Y020996D02*
X008687Y020996D01*
X008687Y021126D02*
X009300Y021126D01*
X009300Y021126D01*
X009300Y021126D01*
X009913Y021126D01*
X009913Y021268D01*
X009901Y021314D01*
X009877Y021355D01*
X009844Y021388D01*
X009803Y021412D01*
X009757Y021424D01*
X009300Y021424D01*
X008843Y021424D01*
X008797Y021412D01*
X008756Y021388D01*
X008723Y021355D01*
X008699Y021314D01*
X008687Y021268D01*
X008687Y021126D01*
X008687Y021154D02*
X008057Y021154D01*
X008057Y021313D02*
X008699Y021313D01*
X008057Y021471D02*
X014590Y021471D01*
X014590Y021313D02*
X012890Y021313D01*
X012950Y021154D02*
X014590Y021154D01*
X014590Y020996D02*
X012950Y020996D01*
X012950Y020837D02*
X014590Y020837D01*
X014590Y020679D02*
X012939Y020679D01*
X012910Y020520D02*
X014608Y020520D01*
X014650Y020362D02*
X012910Y020362D01*
X012910Y020203D02*
X014720Y020203D01*
X014824Y020045D02*
X012910Y020045D01*
X012794Y019886D02*
X014973Y019886D01*
X015232Y019728D02*
X012794Y019728D01*
X012574Y019626D02*
X012824Y019376D01*
X013449Y018751D01*
X013449Y018211D01*
X012613Y018211D01*
X012574Y018250D01*
X012574Y018126D01*
X012832Y017984D02*
X013112Y017984D01*
X013084Y017826D02*
X012832Y017826D01*
X012832Y017667D02*
X013072Y017667D01*
X013072Y017523D02*
X013072Y017301D01*
X013084Y017256D01*
X013108Y017215D01*
X013141Y017181D01*
X013182Y017157D01*
X013228Y017145D01*
X013430Y017145D01*
X013430Y017523D01*
X013072Y017523D01*
X013072Y017509D02*
X012244Y017509D01*
X012244Y017350D02*
X013072Y017350D01*
X013131Y017192D02*
X012244Y017192D01*
X012244Y017033D02*
X014490Y017033D01*
X014529Y017192D02*
X013767Y017192D01*
X013825Y017350D02*
X014529Y017350D01*
X014529Y017509D02*
X013825Y017509D01*
X013825Y017667D02*
X014529Y017667D01*
X014533Y017826D02*
X013814Y017826D01*
X013785Y017984D02*
X014691Y017984D01*
X014708Y018143D02*
X013785Y018143D01*
X013785Y018301D02*
X016224Y018301D01*
X016224Y018143D02*
X016091Y018143D01*
X016091Y017984D02*
X016224Y017984D01*
X016224Y017826D02*
X016091Y017826D01*
X016091Y017667D02*
X016224Y017667D01*
X016224Y017509D02*
X016037Y017509D01*
X016224Y017350D02*
X014869Y017350D01*
X014332Y016875D02*
X012244Y016875D01*
X012244Y016716D02*
X014173Y016716D01*
X014015Y016558D02*
X012244Y016558D01*
X012212Y016399D02*
X013106Y016399D01*
X012948Y016241D02*
X012054Y016241D01*
X011895Y016082D02*
X012789Y016082D01*
X012631Y015924D02*
X011737Y015924D01*
X012734Y015206D02*
X013144Y015206D01*
X013244Y015306D01*
X013536Y015598D01*
X013524Y015569D01*
X013524Y015434D01*
X013575Y015309D01*
X013594Y015291D01*
X013591Y015289D01*
X013495Y015194D01*
X013444Y015069D01*
X013444Y014934D01*
X013495Y014809D01*
X013565Y014739D01*
X013527Y014681D01*
X013498Y014612D01*
X013484Y014539D01*
X013484Y014501D01*
X013484Y014464D01*
X013498Y014390D01*
X013527Y014321D01*
X013565Y014264D01*
X013495Y014194D01*
X013444Y014069D01*
X013444Y013934D01*
X013495Y013809D01*
X013534Y013770D01*
X013524Y013759D01*
X013524Y013417D01*
X013369Y013572D01*
X013269Y013671D01*
X012519Y013671D01*
X012244Y013947D01*
X012244Y014053D01*
X012250Y014053D01*
X012324Y014127D01*
X012398Y014053D01*
X012750Y014053D01*
X012832Y014135D01*
X012832Y015117D01*
X012750Y015199D01*
X012741Y015199D01*
X012734Y015206D01*
X012818Y015131D02*
X013469Y015131D01*
X013444Y014973D02*
X012832Y014973D01*
X012832Y014814D02*
X013493Y014814D01*
X013516Y014656D02*
X012832Y014656D01*
X012832Y014497D02*
X013484Y014497D01*
X013484Y014501D02*
X013864Y014501D01*
X013864Y014501D01*
X013484Y014501D01*
X013520Y014339D02*
X012832Y014339D01*
X012832Y014180D02*
X013490Y014180D01*
X013444Y014022D02*
X012244Y014022D01*
X012327Y013863D02*
X013473Y013863D01*
X013524Y013705D02*
X012486Y013705D01*
X012797Y012912D02*
X011882Y012912D01*
X011920Y012754D02*
X012213Y012754D01*
X012209Y012747D02*
X012197Y012701D01*
X012197Y012479D01*
X012555Y012479D01*
X012555Y012857D01*
X012353Y012857D01*
X012307Y012845D01*
X012266Y012821D01*
X012233Y012788D01*
X012209Y012747D01*
X012197Y012595D02*
X011920Y012595D01*
X011907Y012437D02*
X012197Y012437D01*
X012197Y012278D02*
X011920Y012278D01*
X011920Y012120D02*
X012247Y012120D01*
X012097Y011961D02*
X011920Y011961D01*
X012239Y011792D02*
X012074Y011626D01*
X011347Y011626D01*
X010824Y011626D01*
X010574Y011376D01*
X010741Y011169D02*
X014590Y011169D01*
X014590Y011327D02*
X010839Y011327D01*
X010406Y011169D02*
X010232Y011169D01*
X010644Y012796D02*
X010339Y013102D01*
X010339Y013179D01*
X010298Y013276D01*
X010224Y013351D01*
X010126Y013391D01*
X010021Y013391D01*
X009924Y013351D01*
X009896Y013323D01*
X009877Y013355D01*
X009844Y013388D01*
X010012Y013388D01*
X010135Y013388D02*
X011177Y013388D01*
X011177Y013384D02*
X010856Y013384D01*
X010774Y013302D01*
X010774Y012950D01*
X010848Y012876D01*
X010774Y012802D01*
X010774Y012796D01*
X010644Y012796D01*
X010528Y012912D02*
X010812Y012912D01*
X010774Y013071D02*
X010370Y013071D01*
X010318Y013229D02*
X010774Y013229D01*
X010824Y013501D02*
X010074Y013501D01*
X009824Y013751D01*
X009324Y013751D01*
X009324Y013126D01*
X009300Y013126D01*
X009809Y013126D01*
X009809Y013126D01*
X009300Y013126D01*
X009300Y013126D01*
X009300Y013424D01*
X008843Y013424D01*
X008797Y013412D01*
X008756Y013388D01*
X008553Y013388D01*
X008699Y013314D02*
X008687Y013268D01*
X008687Y013253D01*
X007994Y013947D01*
X007994Y014013D01*
X008074Y014013D01*
X008196Y014013D01*
X008279Y013931D01*
X008378Y013831D01*
X009878Y013831D01*
X010029Y013681D01*
X010128Y013581D01*
X011003Y013581D01*
X011177Y013407D01*
X011177Y013384D01*
X011038Y013546D02*
X008394Y013546D01*
X008324Y013751D02*
X008074Y014001D01*
X008074Y014626D01*
X008074Y014013D01*
X008074Y014626D01*
X008074Y014626D01*
X008074Y014497D02*
X008074Y014497D01*
X008074Y014339D02*
X008074Y014339D01*
X008074Y014180D02*
X008074Y014180D01*
X008074Y014022D02*
X008074Y014022D01*
X008077Y013863D02*
X008346Y013863D01*
X008324Y013751D02*
X009324Y013751D01*
X009300Y013424D02*
X009300Y013126D01*
X009300Y013126D01*
X009300Y013229D02*
X009300Y013229D01*
X009300Y013388D02*
X009300Y013388D01*
X009300Y013424D02*
X009757Y013424D01*
X009803Y013412D01*
X009844Y013388D01*
X010005Y013705D02*
X008236Y013705D01*
X008723Y013355D02*
X008699Y013314D01*
X008723Y013355D02*
X008756Y013388D01*
X008206Y012754D02*
X007789Y012754D01*
X007904Y012595D02*
X008279Y012595D01*
X008279Y012437D02*
X007980Y012437D01*
X008029Y012278D02*
X008279Y012278D01*
X008279Y012120D02*
X008052Y012120D01*
X008057Y011961D02*
X008279Y011961D01*
X008279Y011803D02*
X008057Y011803D01*
X008057Y011644D02*
X008279Y011644D01*
X008279Y011486D02*
X008057Y011486D01*
X008057Y011327D02*
X008382Y011327D01*
X008541Y011169D02*
X008057Y011169D01*
X008057Y011010D02*
X014590Y011010D01*
X014590Y010852D02*
X008057Y010852D01*
X008057Y010693D02*
X014590Y010693D01*
X014590Y011486D02*
X014285Y011486D01*
X014264Y011466D02*
X014359Y011560D01*
X014410Y011684D01*
X014410Y011818D01*
X014359Y011942D01*
X014264Y012037D01*
X014141Y012088D01*
X014007Y012088D01*
X013883Y012037D01*
X013788Y011942D01*
X013737Y011818D01*
X013737Y011684D01*
X013788Y011560D01*
X013883Y011466D01*
X014007Y011414D01*
X014141Y011414D01*
X014264Y011466D01*
X014394Y011644D02*
X014590Y011644D01*
X014590Y011803D02*
X014410Y011803D01*
X014340Y011961D02*
X014590Y011961D01*
X014595Y012120D02*
X012900Y012120D01*
X012950Y012278D02*
X014618Y012278D01*
X014667Y012437D02*
X014509Y012437D01*
X014589Y012595D02*
X014743Y012595D01*
X014810Y012754D02*
X014858Y012754D01*
X014984Y012912D02*
X015040Y012912D01*
X015087Y013071D02*
X015365Y013071D01*
X015300Y013229D02*
X016226Y013229D01*
X016224Y013388D02*
X015339Y013388D01*
X015447Y013440D02*
X015974Y013440D01*
X016020Y013453D01*
X016061Y013476D01*
X016095Y013510D01*
X016118Y013551D01*
X016131Y013597D01*
X016131Y013828D01*
X015447Y013828D01*
X015447Y013440D01*
X015447Y013546D02*
X015351Y013546D01*
X015351Y013705D02*
X015447Y013705D01*
X015447Y013828D02*
X015351Y013828D01*
X015351Y013924D01*
X014668Y013924D01*
X014668Y014156D01*
X014680Y014202D01*
X014704Y014243D01*
X014738Y014276D01*
X014779Y014300D01*
X014825Y014312D01*
X015351Y014312D01*
X015351Y013924D01*
X015447Y013924D01*
X015447Y014312D01*
X015974Y014312D01*
X016020Y014300D01*
X016061Y014276D01*
X016095Y014243D01*
X016118Y014202D01*
X016131Y014156D01*
X016131Y013924D01*
X015447Y013924D01*
X015447Y013828D01*
X015447Y013863D02*
X016224Y013863D01*
X016224Y013705D02*
X016131Y013705D01*
X016116Y013546D02*
X016224Y013546D01*
X016224Y014022D02*
X016131Y014022D01*
X016124Y014180D02*
X016224Y014180D01*
X016224Y014339D02*
X014208Y014339D01*
X014244Y014497D02*
X014773Y014497D01*
X014708Y014656D02*
X014211Y014656D01*
X014079Y014814D02*
X014520Y014814D01*
X014362Y014973D02*
X014124Y014973D01*
X014098Y015131D02*
X014203Y015131D01*
X014154Y015290D02*
X014133Y015290D01*
X014526Y015290D02*
X016224Y015290D01*
X016224Y015448D02*
X014494Y015448D01*
X014494Y015607D02*
X014708Y015607D01*
X014708Y016082D02*
X014483Y016082D01*
X014429Y016241D02*
X014759Y016241D01*
X014587Y016399D02*
X016224Y016399D01*
X016224Y016241D02*
X016040Y016241D01*
X016091Y016082D02*
X016224Y016082D01*
X016224Y015924D02*
X016091Y015924D01*
X016091Y015765D02*
X016224Y015765D01*
X016224Y015607D02*
X016091Y015607D01*
X016091Y015131D02*
X016224Y015131D01*
X016224Y014973D02*
X016091Y014973D01*
X016091Y014814D02*
X016224Y014814D01*
X016224Y014656D02*
X016091Y014656D01*
X016025Y014497D02*
X016224Y014497D01*
X015447Y014180D02*
X015351Y014180D01*
X015351Y014022D02*
X015447Y014022D01*
X015351Y013863D02*
X014094Y013863D01*
X014124Y014022D02*
X014668Y014022D01*
X014675Y014180D02*
X014077Y014180D01*
X014204Y013705D02*
X014668Y013705D01*
X014683Y013546D02*
X014204Y013546D01*
X014204Y013388D02*
X014220Y013388D01*
X013524Y013546D02*
X013394Y013546D01*
X012956Y012754D02*
X012934Y012754D01*
X012950Y012595D02*
X013114Y012595D01*
X012950Y012437D02*
X014138Y012437D01*
X013807Y011961D02*
X013229Y011961D01*
X013522Y011803D02*
X013737Y011803D01*
X013753Y011644D02*
X013589Y011644D01*
X013552Y011486D02*
X013863Y011486D01*
X013095Y011486D02*
X012879Y011486D01*
X012574Y011792D02*
X012239Y011792D01*
X012244Y011486D02*
X012268Y011486D01*
X012555Y012595D02*
X012592Y012595D01*
X012592Y012754D02*
X012555Y012754D01*
X014684Y015131D02*
X014708Y015131D01*
X013592Y015290D02*
X013228Y015290D01*
X013386Y015448D02*
X013524Y015448D01*
X013467Y017192D02*
X013430Y017192D01*
X013430Y017350D02*
X013467Y017350D01*
X013467Y017509D02*
X013430Y017509D01*
X013785Y018460D02*
X016224Y018460D01*
X016224Y018618D02*
X016091Y018618D01*
X016091Y018562D02*
X016091Y019190D01*
X016009Y019272D01*
X014790Y019272D01*
X014708Y019190D01*
X014708Y019096D01*
X014665Y019096D01*
X014339Y019422D01*
X014339Y019429D01*
X014298Y019526D01*
X014224Y019601D01*
X014126Y019641D01*
X014021Y019641D01*
X013924Y019601D01*
X013919Y019596D01*
X013853Y019596D01*
X013849Y019601D01*
X013751Y019641D01*
X013646Y019641D01*
X013549Y019601D01*
X013474Y019526D01*
X013434Y019429D01*
X013434Y019324D01*
X013474Y019226D01*
X013549Y019152D01*
X013646Y019111D01*
X013751Y019111D01*
X013849Y019152D01*
X013853Y019156D01*
X013919Y019156D01*
X013924Y019152D01*
X014021Y019111D01*
X014027Y019111D01*
X014354Y018785D01*
X014482Y018656D01*
X014708Y018656D01*
X014708Y018562D01*
X014790Y018480D01*
X016009Y018480D01*
X016091Y018562D01*
X016091Y018777D02*
X016224Y018777D01*
X016224Y018935D02*
X016091Y018935D01*
X016091Y019094D02*
X016224Y019094D01*
X016224Y019252D02*
X016028Y019252D01*
X016224Y019411D02*
X014350Y019411D01*
X014255Y019569D02*
X016272Y019569D01*
X015399Y018876D02*
X014574Y018876D01*
X014074Y019376D01*
X013699Y019376D01*
X013517Y019569D02*
X013005Y019569D01*
X013100Y019411D02*
X013434Y019411D01*
X013463Y019252D02*
X013259Y019252D01*
X013417Y019094D02*
X014045Y019094D01*
X014203Y018935D02*
X013576Y018935D01*
X013669Y018777D02*
X014362Y018777D01*
X014354Y018785D02*
X014354Y018785D01*
X014509Y019252D02*
X014770Y019252D01*
X014708Y018618D02*
X013669Y018618D01*
X012574Y019626D02*
X012574Y020292D01*
X012237Y020362D02*
X012119Y020362D01*
X012119Y020520D02*
X012237Y020520D01*
X012208Y020679D02*
X012119Y020679D01*
X012119Y020837D02*
X012197Y020837D01*
X012197Y020979D02*
X012197Y021201D01*
X012209Y021247D01*
X012233Y021288D01*
X012266Y021321D01*
X012307Y021345D01*
X012353Y021357D01*
X012555Y021357D01*
X012555Y020979D01*
X012197Y020979D01*
X012197Y020996D02*
X012119Y020996D01*
X012197Y021154D02*
X012036Y021154D01*
X011910Y021313D02*
X012258Y021313D01*
X012555Y021313D02*
X012592Y021313D01*
X012592Y021154D02*
X012555Y021154D01*
X012555Y020996D02*
X012592Y020996D01*
X012237Y020203D02*
X012119Y020203D01*
X012119Y020045D02*
X012237Y020045D01*
X012354Y019886D02*
X012074Y019886D01*
X012574Y019626D02*
X011347Y019626D01*
X010477Y020520D02*
X009873Y020520D01*
X009873Y020679D02*
X010636Y020679D01*
X010809Y020837D02*
X009838Y020837D01*
X009913Y020996D02*
X010774Y020996D01*
X010774Y021154D02*
X009913Y021154D01*
X009901Y021313D02*
X010785Y021313D01*
X010319Y020362D02*
X009814Y020362D01*
X009873Y020203D02*
X010279Y020203D01*
X010279Y020045D02*
X009873Y020045D01*
X009809Y019886D02*
X010134Y019886D01*
X010263Y019886D02*
X010279Y019886D01*
X009300Y021126D02*
X009300Y021126D01*
X009300Y021424D01*
X009300Y021126D01*
X009300Y021154D02*
X009300Y021154D01*
X009300Y021313D02*
X009300Y021313D01*
X008057Y021630D02*
X014590Y021630D01*
X014590Y021788D02*
X008057Y021788D01*
X008057Y021947D02*
X014590Y021947D01*
X016089Y017192D02*
X016224Y017192D01*
X016224Y017033D02*
X016091Y017033D01*
X016091Y016875D02*
X016224Y016875D01*
X016224Y016716D02*
X016091Y016716D01*
X016086Y016558D02*
X016224Y016558D01*
X008047Y012912D02*
X007607Y012912D01*
X007889Y013071D02*
X007282Y013071D01*
X007344Y014656D02*
X007404Y014656D01*
X007394Y014706D02*
X007394Y014706D01*
D21*
X015399Y018876D02*
X015824Y018876D01*
M02*
