%
M48
M72
T01C0.0130
T02C0.0230
T03C0.1260
%
T01
X8574Y10876
X9074Y10876
X9574Y10876
X10074Y10876
X10574Y10876
X10574Y11376
X11074Y10876
X11574Y10876
X12074Y10876
X12574Y10876
X13074Y10876
X13574Y10876
X14074Y10876
X13324Y11626
X14324Y12626
X14574Y12876
X14824Y13126
X15074Y13376
X12074Y16126
X11449Y16501
X11449Y16876
X11824Y17251
X10824Y16376
X10949Y16001
X11324Y16001
X10449Y17251
X9824Y17376
X9574Y16876
X8324Y17376
X7699Y16626
X7699Y16126
X7324Y14501
X6949Y14501
X8074Y14001
X9824Y13751
X10324Y14001
X10824Y13501
X10074Y13126
X10074Y12376
X14074Y17626
X14074Y19376
X12824Y19376
X12324Y19251
X11574Y19251
X10199Y19626
X10199Y20126
X9574Y19251
X9574Y21876
X10074Y21876
X10574Y21876
X11074Y21876
X11574Y21876
X12074Y21876
X12574Y21876
X13074Y21876
X13574Y21876
X14074Y21876
X9074Y21876
X8574Y21876
T02
X13844Y15501
X13804Y15001
X13844Y14501
X13804Y14001
X13844Y13501
T03
X15654Y12046
X15654Y20707
X6993Y20707
X6993Y12046
M30
