G75*
G70*
%OFA0B0*%
%FSLAX24Y24*%
%IPPOS*%
%LPD*%
%AMOC8*
5,1,8,0,0,1.08239X$1,22.5*
%
%ADD10C,0.0000*%
%ADD11C,0.1300*%
%ADD12R,0.0906X0.0276*%
%ADD13R,0.0276X0.0906*%
%ADD14R,0.1142X0.0552*%
%ADD15R,0.0440X0.0440*%
%ADD16C,0.0440*%
%ADD17R,0.0434X0.0473*%
%ADD18C,0.0434*%
D10*
X006993Y010471D02*
X015654Y010471D01*
X015024Y012046D02*
X015026Y012096D01*
X015032Y012146D01*
X015042Y012195D01*
X015056Y012243D01*
X015073Y012290D01*
X015094Y012335D01*
X015119Y012379D01*
X015147Y012420D01*
X015179Y012459D01*
X015213Y012496D01*
X015250Y012530D01*
X015290Y012560D01*
X015332Y012587D01*
X015376Y012611D01*
X015422Y012632D01*
X015469Y012648D01*
X015517Y012661D01*
X015567Y012670D01*
X015616Y012675D01*
X015667Y012676D01*
X015717Y012673D01*
X015766Y012666D01*
X015815Y012655D01*
X015863Y012640D01*
X015909Y012622D01*
X015954Y012600D01*
X015997Y012574D01*
X016038Y012545D01*
X016077Y012513D01*
X016113Y012478D01*
X016145Y012440D01*
X016175Y012400D01*
X016202Y012357D01*
X016225Y012313D01*
X016244Y012267D01*
X016260Y012219D01*
X016272Y012170D01*
X016280Y012121D01*
X016284Y012071D01*
X016284Y012021D01*
X016280Y011971D01*
X016272Y011922D01*
X016260Y011873D01*
X016244Y011825D01*
X016225Y011779D01*
X016202Y011735D01*
X016175Y011692D01*
X016145Y011652D01*
X016113Y011614D01*
X016077Y011579D01*
X016038Y011547D01*
X015997Y011518D01*
X015954Y011492D01*
X015909Y011470D01*
X015863Y011452D01*
X015815Y011437D01*
X015766Y011426D01*
X015717Y011419D01*
X015667Y011416D01*
X015616Y011417D01*
X015567Y011422D01*
X015517Y011431D01*
X015469Y011444D01*
X015422Y011460D01*
X015376Y011481D01*
X015332Y011505D01*
X015290Y011532D01*
X015250Y011562D01*
X015213Y011596D01*
X015179Y011633D01*
X015147Y011672D01*
X015119Y011713D01*
X015094Y011757D01*
X015073Y011802D01*
X015056Y011849D01*
X015042Y011897D01*
X015032Y011946D01*
X015026Y011996D01*
X015024Y012046D01*
X015654Y010471D02*
X015731Y010473D01*
X015808Y010479D01*
X015885Y010488D01*
X015961Y010501D01*
X016037Y010518D01*
X016111Y010539D01*
X016185Y010563D01*
X016257Y010591D01*
X016327Y010622D01*
X016396Y010657D01*
X016464Y010695D01*
X016529Y010736D01*
X016592Y010781D01*
X016653Y010829D01*
X016712Y010879D01*
X016768Y010932D01*
X016821Y010988D01*
X016871Y011047D01*
X016919Y011108D01*
X016964Y011171D01*
X017005Y011236D01*
X017043Y011304D01*
X017078Y011373D01*
X017109Y011443D01*
X017137Y011515D01*
X017161Y011589D01*
X017182Y011663D01*
X017199Y011739D01*
X017212Y011815D01*
X017221Y011892D01*
X017227Y011969D01*
X017229Y012046D01*
X017229Y013305D01*
X016404Y013305D01*
X016404Y019447D01*
X017229Y019447D01*
X017229Y020707D01*
X015024Y020707D02*
X015026Y020757D01*
X015032Y020807D01*
X015042Y020856D01*
X015056Y020904D01*
X015073Y020951D01*
X015094Y020996D01*
X015119Y021040D01*
X015147Y021081D01*
X015179Y021120D01*
X015213Y021157D01*
X015250Y021191D01*
X015290Y021221D01*
X015332Y021248D01*
X015376Y021272D01*
X015422Y021293D01*
X015469Y021309D01*
X015517Y021322D01*
X015567Y021331D01*
X015616Y021336D01*
X015667Y021337D01*
X015717Y021334D01*
X015766Y021327D01*
X015815Y021316D01*
X015863Y021301D01*
X015909Y021283D01*
X015954Y021261D01*
X015997Y021235D01*
X016038Y021206D01*
X016077Y021174D01*
X016113Y021139D01*
X016145Y021101D01*
X016175Y021061D01*
X016202Y021018D01*
X016225Y020974D01*
X016244Y020928D01*
X016260Y020880D01*
X016272Y020831D01*
X016280Y020782D01*
X016284Y020732D01*
X016284Y020682D01*
X016280Y020632D01*
X016272Y020583D01*
X016260Y020534D01*
X016244Y020486D01*
X016225Y020440D01*
X016202Y020396D01*
X016175Y020353D01*
X016145Y020313D01*
X016113Y020275D01*
X016077Y020240D01*
X016038Y020208D01*
X015997Y020179D01*
X015954Y020153D01*
X015909Y020131D01*
X015863Y020113D01*
X015815Y020098D01*
X015766Y020087D01*
X015717Y020080D01*
X015667Y020077D01*
X015616Y020078D01*
X015567Y020083D01*
X015517Y020092D01*
X015469Y020105D01*
X015422Y020121D01*
X015376Y020142D01*
X015332Y020166D01*
X015290Y020193D01*
X015250Y020223D01*
X015213Y020257D01*
X015179Y020294D01*
X015147Y020333D01*
X015119Y020374D01*
X015094Y020418D01*
X015073Y020463D01*
X015056Y020510D01*
X015042Y020558D01*
X015032Y020607D01*
X015026Y020657D01*
X015024Y020707D01*
X015654Y022282D02*
X015731Y022280D01*
X015808Y022274D01*
X015885Y022265D01*
X015961Y022252D01*
X016037Y022235D01*
X016111Y022214D01*
X016185Y022190D01*
X016257Y022162D01*
X016327Y022131D01*
X016396Y022096D01*
X016464Y022058D01*
X016529Y022017D01*
X016592Y021972D01*
X016653Y021924D01*
X016712Y021874D01*
X016768Y021821D01*
X016821Y021765D01*
X016871Y021706D01*
X016919Y021645D01*
X016964Y021582D01*
X017005Y021517D01*
X017043Y021449D01*
X017078Y021380D01*
X017109Y021310D01*
X017137Y021238D01*
X017161Y021164D01*
X017182Y021090D01*
X017199Y021014D01*
X017212Y020938D01*
X017221Y020861D01*
X017227Y020784D01*
X017229Y020707D01*
X015654Y022282D02*
X006993Y022282D01*
X006363Y020707D02*
X006365Y020757D01*
X006371Y020807D01*
X006381Y020856D01*
X006395Y020904D01*
X006412Y020951D01*
X006433Y020996D01*
X006458Y021040D01*
X006486Y021081D01*
X006518Y021120D01*
X006552Y021157D01*
X006589Y021191D01*
X006629Y021221D01*
X006671Y021248D01*
X006715Y021272D01*
X006761Y021293D01*
X006808Y021309D01*
X006856Y021322D01*
X006906Y021331D01*
X006955Y021336D01*
X007006Y021337D01*
X007056Y021334D01*
X007105Y021327D01*
X007154Y021316D01*
X007202Y021301D01*
X007248Y021283D01*
X007293Y021261D01*
X007336Y021235D01*
X007377Y021206D01*
X007416Y021174D01*
X007452Y021139D01*
X007484Y021101D01*
X007514Y021061D01*
X007541Y021018D01*
X007564Y020974D01*
X007583Y020928D01*
X007599Y020880D01*
X007611Y020831D01*
X007619Y020782D01*
X007623Y020732D01*
X007623Y020682D01*
X007619Y020632D01*
X007611Y020583D01*
X007599Y020534D01*
X007583Y020486D01*
X007564Y020440D01*
X007541Y020396D01*
X007514Y020353D01*
X007484Y020313D01*
X007452Y020275D01*
X007416Y020240D01*
X007377Y020208D01*
X007336Y020179D01*
X007293Y020153D01*
X007248Y020131D01*
X007202Y020113D01*
X007154Y020098D01*
X007105Y020087D01*
X007056Y020080D01*
X007006Y020077D01*
X006955Y020078D01*
X006906Y020083D01*
X006856Y020092D01*
X006808Y020105D01*
X006761Y020121D01*
X006715Y020142D01*
X006671Y020166D01*
X006629Y020193D01*
X006589Y020223D01*
X006552Y020257D01*
X006518Y020294D01*
X006486Y020333D01*
X006458Y020374D01*
X006433Y020418D01*
X006412Y020463D01*
X006395Y020510D01*
X006381Y020558D01*
X006371Y020607D01*
X006365Y020657D01*
X006363Y020707D01*
X005418Y020707D02*
X005420Y020784D01*
X005426Y020861D01*
X005435Y020938D01*
X005448Y021014D01*
X005465Y021090D01*
X005486Y021164D01*
X005510Y021238D01*
X005538Y021310D01*
X005569Y021380D01*
X005604Y021449D01*
X005642Y021517D01*
X005683Y021582D01*
X005728Y021645D01*
X005776Y021706D01*
X005826Y021765D01*
X005879Y021821D01*
X005935Y021874D01*
X005994Y021924D01*
X006055Y021972D01*
X006118Y022017D01*
X006183Y022058D01*
X006251Y022096D01*
X006320Y022131D01*
X006390Y022162D01*
X006462Y022190D01*
X006536Y022214D01*
X006610Y022235D01*
X006686Y022252D01*
X006762Y022265D01*
X006839Y022274D01*
X006916Y022280D01*
X006993Y022282D01*
X005418Y020707D02*
X005418Y012046D01*
X006363Y012046D02*
X006365Y012096D01*
X006371Y012146D01*
X006381Y012195D01*
X006395Y012243D01*
X006412Y012290D01*
X006433Y012335D01*
X006458Y012379D01*
X006486Y012420D01*
X006518Y012459D01*
X006552Y012496D01*
X006589Y012530D01*
X006629Y012560D01*
X006671Y012587D01*
X006715Y012611D01*
X006761Y012632D01*
X006808Y012648D01*
X006856Y012661D01*
X006906Y012670D01*
X006955Y012675D01*
X007006Y012676D01*
X007056Y012673D01*
X007105Y012666D01*
X007154Y012655D01*
X007202Y012640D01*
X007248Y012622D01*
X007293Y012600D01*
X007336Y012574D01*
X007377Y012545D01*
X007416Y012513D01*
X007452Y012478D01*
X007484Y012440D01*
X007514Y012400D01*
X007541Y012357D01*
X007564Y012313D01*
X007583Y012267D01*
X007599Y012219D01*
X007611Y012170D01*
X007619Y012121D01*
X007623Y012071D01*
X007623Y012021D01*
X007619Y011971D01*
X007611Y011922D01*
X007599Y011873D01*
X007583Y011825D01*
X007564Y011779D01*
X007541Y011735D01*
X007514Y011692D01*
X007484Y011652D01*
X007452Y011614D01*
X007416Y011579D01*
X007377Y011547D01*
X007336Y011518D01*
X007293Y011492D01*
X007248Y011470D01*
X007202Y011452D01*
X007154Y011437D01*
X007105Y011426D01*
X007056Y011419D01*
X007006Y011416D01*
X006955Y011417D01*
X006906Y011422D01*
X006856Y011431D01*
X006808Y011444D01*
X006761Y011460D01*
X006715Y011481D01*
X006671Y011505D01*
X006629Y011532D01*
X006589Y011562D01*
X006552Y011596D01*
X006518Y011633D01*
X006486Y011672D01*
X006458Y011713D01*
X006433Y011757D01*
X006412Y011802D01*
X006395Y011849D01*
X006381Y011897D01*
X006371Y011946D01*
X006365Y011996D01*
X006363Y012046D01*
X005418Y012046D02*
X005420Y011969D01*
X005426Y011892D01*
X005435Y011815D01*
X005448Y011739D01*
X005465Y011663D01*
X005486Y011589D01*
X005510Y011515D01*
X005538Y011443D01*
X005569Y011373D01*
X005604Y011304D01*
X005642Y011236D01*
X005683Y011171D01*
X005728Y011108D01*
X005776Y011047D01*
X005826Y010988D01*
X005879Y010932D01*
X005935Y010879D01*
X005994Y010829D01*
X006055Y010781D01*
X006118Y010736D01*
X006183Y010695D01*
X006251Y010657D01*
X006320Y010622D01*
X006390Y010591D01*
X006462Y010563D01*
X006536Y010539D01*
X006610Y010518D01*
X006686Y010501D01*
X006762Y010488D01*
X006839Y010479D01*
X006916Y010473D01*
X006993Y010471D01*
D11*
X006993Y012046D03*
X006993Y020707D03*
X015654Y020707D03*
X015654Y012046D03*
D12*
X011347Y012126D03*
X011347Y011626D03*
X011347Y012626D03*
X011347Y013126D03*
X009300Y013126D03*
X009300Y012626D03*
X009300Y012126D03*
X009300Y011626D03*
X009300Y019626D03*
X009300Y020126D03*
X009300Y020626D03*
X009300Y021126D03*
X011347Y021126D03*
X011347Y020626D03*
X011347Y020126D03*
X011347Y019626D03*
D13*
X011574Y018126D03*
X012074Y018126D03*
X012574Y018126D03*
X011074Y018126D03*
X010574Y018126D03*
X010074Y018126D03*
X009574Y018126D03*
X009074Y018126D03*
X008574Y018126D03*
X008074Y018126D03*
X008074Y014626D03*
X008574Y014626D03*
X009074Y014626D03*
X009574Y014626D03*
X010074Y014626D03*
X010574Y014626D03*
X011074Y014626D03*
X011574Y014626D03*
X012074Y014626D03*
X012574Y014626D03*
D14*
X015399Y014876D03*
X015399Y013876D03*
X015399Y015876D03*
X015399Y016876D03*
X015399Y017876D03*
X015399Y018876D03*
D15*
X013864Y013501D03*
D16*
X013784Y014001D03*
X013864Y014501D03*
X013784Y015001D03*
X013864Y015501D03*
D17*
X013449Y017542D03*
X013449Y018211D03*
X012574Y020292D03*
X012574Y020961D03*
X012574Y012461D03*
X012574Y011792D03*
D18*
X014074Y011751D03*
X007949Y019501D03*
M02*
