G75*
G70*
%OFA0B0*%
%FSLAX24Y24*%
%IPPOS*%
%LPD*%
%AMOC8*
5,1,8,0,0,1.08239X$1,22.5*
%
%ADD10C,0.0060*%
%ADD11C,0.0000*%
%ADD12C,0.0050*%
%ADD13C,0.0160*%
%ADD14C,0.0080*%
%ADD15C,0.0180*%
D10*
X009979Y011906D02*
X009979Y012133D01*
X009979Y012020D02*
X010319Y012020D01*
X010205Y011906D01*
X010354Y011906D02*
X010354Y012133D01*
X010410Y012275D02*
X010354Y012331D01*
X010354Y012445D01*
X010410Y012501D01*
X010467Y012501D01*
X010524Y012445D01*
X010524Y012388D01*
X010524Y012445D02*
X010580Y012501D01*
X010637Y012501D01*
X010694Y012445D01*
X010694Y012331D01*
X010637Y012275D01*
X010637Y012133D02*
X010694Y012076D01*
X010694Y011963D01*
X010637Y011906D01*
X010637Y012133D02*
X010580Y012133D01*
X010354Y011906D01*
X010262Y012275D02*
X010319Y012331D01*
X010319Y012445D01*
X010262Y012501D01*
X010035Y012275D01*
X009979Y012331D01*
X009979Y012445D01*
X010035Y012501D01*
X010262Y012501D01*
X010262Y012643D02*
X010319Y012700D01*
X010319Y012813D01*
X010262Y012870D01*
X010205Y012870D01*
X009979Y012643D01*
X009979Y012870D01*
X010149Y013011D02*
X010149Y013238D01*
X010319Y013181D02*
X010149Y013011D01*
X010354Y013068D02*
X010354Y013181D01*
X010410Y013238D01*
X010319Y013181D02*
X009979Y013181D01*
X010354Y013068D02*
X010410Y013011D01*
X010637Y013011D01*
X010694Y013068D01*
X010694Y013181D01*
X010637Y013238D01*
X010354Y012870D02*
X010354Y012643D01*
X010694Y012643D01*
X010262Y012275D02*
X010035Y012275D01*
X007574Y013251D02*
X006949Y013251D01*
X006949Y017251D01*
X007574Y017251D01*
X007574Y013251D01*
X007362Y013432D02*
X007419Y013489D01*
X007419Y013602D01*
X007362Y013659D01*
X007248Y013659D01*
X007192Y013602D01*
X007192Y013489D01*
X007248Y013432D01*
X007362Y013432D01*
X007419Y013791D02*
X007419Y013904D01*
X007419Y013847D02*
X007192Y013847D01*
X007192Y013904D01*
X007078Y013847D02*
X007022Y013847D01*
X007078Y014046D02*
X007419Y014046D01*
X007419Y014216D01*
X007362Y014273D01*
X007248Y014273D01*
X007192Y014216D01*
X007192Y014046D01*
X007192Y014414D02*
X007419Y014414D01*
X007419Y014584D01*
X007362Y014641D01*
X007192Y014641D01*
X007192Y014773D02*
X007192Y014886D01*
X007135Y014830D02*
X007362Y014830D01*
X007419Y014773D01*
X007362Y015028D02*
X007419Y015085D01*
X007419Y015198D01*
X007362Y015255D01*
X007248Y015198D02*
X007248Y015085D01*
X007305Y015028D01*
X007362Y015028D01*
X007248Y015198D02*
X007192Y015255D01*
X007135Y015255D01*
X007078Y015198D01*
X007078Y015085D01*
X007135Y015028D01*
X006782Y015023D02*
X006782Y015080D01*
X006782Y015023D02*
X006725Y014966D01*
X006442Y014966D01*
X006442Y014825D02*
X006442Y014655D01*
X006498Y014598D01*
X006612Y014598D01*
X006669Y014655D01*
X006669Y014825D01*
X006782Y014825D02*
X006442Y014825D01*
X006669Y014966D02*
X006669Y015137D01*
X006612Y015193D01*
X006442Y015193D01*
X006442Y015325D02*
X006442Y015439D01*
X006385Y015382D02*
X006612Y015382D01*
X006669Y015325D01*
X006612Y015580D02*
X006498Y015580D01*
X006442Y015637D01*
X006442Y015750D01*
X006498Y015807D01*
X006612Y015807D01*
X006669Y015750D01*
X006669Y015637D01*
X006612Y015580D01*
X006669Y015939D02*
X006612Y015996D01*
X006385Y015996D01*
X006442Y016053D02*
X006442Y015939D01*
X006498Y016194D02*
X006442Y016251D01*
X006442Y016364D01*
X006498Y016421D01*
X006612Y016421D01*
X006669Y016364D01*
X006669Y016251D01*
X006612Y016194D01*
X006498Y016194D01*
X006442Y016558D02*
X006442Y016615D01*
X006555Y016728D01*
X006442Y016728D02*
X006669Y016728D01*
X006498Y016869D02*
X006555Y016926D01*
X006555Y017096D01*
X006669Y017096D02*
X006328Y017096D01*
X006328Y016926D01*
X006385Y016869D01*
X006498Y016869D01*
X006949Y017251D02*
X005574Y017251D01*
X005574Y013251D01*
X006949Y013251D01*
X006612Y013861D02*
X006555Y013918D01*
X006555Y014032D01*
X006498Y014088D01*
X006442Y014032D01*
X006442Y013861D01*
X006612Y013861D02*
X006669Y013918D01*
X006669Y014088D01*
X006555Y014230D02*
X006555Y014457D01*
X006498Y014457D02*
X006442Y014400D01*
X006442Y014287D01*
X006498Y014230D01*
X006555Y014230D01*
X006669Y014287D02*
X006669Y014400D01*
X006612Y014457D01*
X006498Y014457D01*
X006044Y014523D02*
X006044Y014353D01*
X005817Y014353D01*
X005873Y014211D02*
X005817Y014154D01*
X005817Y013984D01*
X005930Y014041D02*
X005930Y014154D01*
X005873Y014211D01*
X006044Y014211D02*
X006044Y014041D01*
X005987Y013984D01*
X005930Y014041D01*
X006044Y014523D02*
X005987Y014579D01*
X005817Y014579D01*
X005873Y014721D02*
X005817Y014778D01*
X005817Y014891D01*
X005873Y014948D01*
X005987Y014948D01*
X006044Y014891D01*
X006044Y014778D01*
X005987Y014721D01*
X005873Y014721D01*
X005817Y015085D02*
X005817Y015141D01*
X005930Y015255D01*
X005817Y015255D02*
X006044Y015255D01*
X005930Y015396D02*
X005930Y015623D01*
X005873Y015623D02*
X005817Y015566D01*
X005817Y015453D01*
X005873Y015396D01*
X005930Y015396D01*
X006044Y015453D02*
X006044Y015566D01*
X005987Y015623D01*
X005873Y015623D01*
X005817Y015764D02*
X005817Y015935D01*
X005873Y015991D01*
X005987Y015991D01*
X006044Y015935D01*
X006044Y015764D01*
X006100Y015764D02*
X005817Y015764D01*
X006100Y015764D02*
X006157Y015821D01*
X006157Y015878D01*
X006044Y016133D02*
X005873Y016133D01*
X005817Y016189D01*
X005817Y016360D01*
X006044Y016360D01*
X006044Y016501D02*
X005873Y016501D01*
X005817Y016558D01*
X005817Y016671D01*
X005930Y016671D02*
X005930Y016501D01*
X006044Y016501D02*
X006044Y016671D01*
X005987Y016728D01*
X005930Y016671D01*
X005987Y016869D02*
X005760Y016869D01*
X005703Y016926D01*
X005703Y017096D01*
X006044Y017096D01*
X006044Y016926D01*
X005987Y016869D01*
X007078Y016926D02*
X007078Y017040D01*
X007135Y017096D01*
X007192Y017096D01*
X007248Y017040D01*
X007248Y016926D01*
X007305Y016869D01*
X007362Y016869D01*
X007419Y016926D01*
X007419Y017040D01*
X007362Y017096D01*
X007135Y016869D02*
X007078Y016926D01*
X007248Y016728D02*
X007192Y016671D01*
X007192Y016558D01*
X007248Y016501D01*
X007305Y016501D01*
X007305Y016728D01*
X007362Y016728D02*
X007248Y016728D01*
X007362Y016728D02*
X007419Y016671D01*
X007419Y016558D01*
X007362Y016360D02*
X007248Y016360D01*
X007192Y016303D01*
X007192Y016189D01*
X007248Y016133D01*
X007305Y016133D01*
X007305Y016360D01*
X007362Y016360D02*
X007419Y016303D01*
X007419Y016189D01*
X007362Y015991D02*
X007248Y015991D01*
X007192Y015935D01*
X007192Y015821D01*
X007248Y015764D01*
X007305Y015764D01*
X007305Y015991D01*
X007362Y015991D02*
X007419Y015935D01*
X007419Y015821D01*
X007362Y015623D02*
X007248Y015623D01*
X007192Y015566D01*
X007192Y015396D01*
X007078Y015396D02*
X007419Y015396D01*
X007419Y015566D01*
X007362Y015623D01*
X007892Y015226D02*
X012755Y015226D01*
X012755Y017503D01*
X007892Y017503D01*
X007892Y015226D01*
X009739Y016963D02*
X009795Y016906D01*
X009909Y016906D01*
X009965Y016963D01*
X009852Y017076D02*
X009795Y017076D01*
X009739Y017020D01*
X009739Y016963D01*
X009795Y017076D02*
X009739Y017133D01*
X009739Y017190D01*
X009795Y017247D01*
X009909Y017247D01*
X009965Y017190D01*
X010107Y017190D02*
X010334Y016963D01*
X010334Y016906D01*
X010475Y016963D02*
X010532Y016906D01*
X010645Y016906D01*
X010702Y016963D01*
X010702Y017076D02*
X010589Y017133D01*
X010532Y017133D01*
X010475Y017076D01*
X010475Y016963D01*
X010702Y017076D02*
X010702Y017247D01*
X010475Y017247D01*
X010334Y017247D02*
X010107Y017247D01*
X010107Y017190D01*
X010844Y017190D02*
X010900Y017247D01*
X011014Y017247D01*
X011070Y017190D01*
X011070Y016963D01*
X011014Y016906D01*
X010900Y016906D01*
X010844Y016963D01*
X011212Y017020D02*
X011212Y017247D01*
X011439Y017247D02*
X011439Y017020D01*
X011325Y016906D01*
X011212Y017020D01*
X011580Y016906D02*
X011807Y016906D01*
X011807Y017247D01*
X012005Y017247D02*
X012005Y016906D01*
X011948Y017076D02*
X012175Y017076D01*
X012005Y017247D01*
X012317Y017247D02*
X012317Y017190D01*
X012544Y016963D01*
X012544Y016906D01*
X012544Y017247D02*
X012317Y017247D01*
X013203Y017040D02*
X013203Y016926D01*
X013260Y016869D01*
X013487Y017096D01*
X013544Y017040D01*
X013544Y016926D01*
X013487Y016869D01*
X013260Y016869D01*
X013203Y017040D02*
X013260Y017096D01*
X013487Y017096D01*
X013487Y016728D02*
X013487Y016671D01*
X013544Y016671D01*
X013544Y016728D01*
X013487Y016728D01*
X013544Y016544D02*
X013544Y016317D01*
X013544Y016430D02*
X013203Y016430D01*
X013317Y016544D01*
X013317Y016175D02*
X013487Y016175D01*
X013544Y016119D01*
X013544Y015949D01*
X013317Y015949D01*
X014328Y015971D02*
X014328Y015744D01*
X014442Y015801D02*
X014498Y015744D01*
X014612Y015744D01*
X014669Y015801D01*
X014669Y015915D01*
X014612Y015971D01*
X014498Y015971D02*
X014442Y015858D01*
X014442Y015801D01*
X014498Y015971D02*
X014328Y015971D01*
X014328Y016744D02*
X014385Y016858D01*
X014498Y016971D01*
X014498Y016801D01*
X014555Y016744D01*
X014612Y016744D01*
X014669Y016801D01*
X014669Y016915D01*
X014612Y016971D01*
X014498Y016971D01*
X014385Y017744D02*
X014612Y017971D01*
X014669Y017971D01*
X014328Y017971D02*
X014328Y017744D01*
X014385Y017744D01*
X014328Y018699D02*
X014555Y018699D01*
X014669Y018812D01*
X014555Y018925D01*
X014328Y018925D01*
X014385Y019067D02*
X014442Y019067D01*
X014498Y019124D01*
X014555Y019067D01*
X014612Y019067D01*
X014669Y019124D01*
X014669Y019237D01*
X014612Y019294D01*
X014612Y019421D02*
X014669Y019421D01*
X014669Y019478D01*
X014612Y019478D01*
X014612Y019421D01*
X014612Y019619D02*
X014669Y019676D01*
X014669Y019790D01*
X014612Y019846D01*
X014498Y019733D02*
X014498Y019676D01*
X014555Y019619D01*
X014612Y019619D01*
X014498Y019676D02*
X014442Y019619D01*
X014385Y019619D01*
X014328Y019676D01*
X014328Y019790D01*
X014385Y019846D01*
X014385Y019294D02*
X014328Y019237D01*
X014328Y019124D01*
X014385Y019067D01*
X014498Y019124D02*
X014498Y019180D01*
X013294Y020074D02*
X013067Y020074D01*
X013067Y020300D02*
X013237Y020300D01*
X013294Y020244D01*
X013294Y020074D01*
X013294Y020442D02*
X013294Y020669D01*
X013294Y020555D02*
X012953Y020555D01*
X013067Y020669D01*
X013237Y020796D02*
X013294Y020796D01*
X013294Y020853D01*
X013237Y020853D01*
X013237Y020796D01*
X013237Y020994D02*
X013294Y021051D01*
X013294Y021165D01*
X013237Y021221D01*
X013010Y020994D01*
X013237Y020994D01*
X013010Y020994D02*
X012953Y021051D01*
X012953Y021165D01*
X013010Y021221D01*
X013237Y021221D01*
X010694Y021181D02*
X010694Y021068D01*
X010637Y021011D01*
X010410Y021011D01*
X010354Y021068D01*
X010354Y021181D01*
X010410Y021238D01*
X010319Y021181D02*
X010149Y021011D01*
X010149Y021238D01*
X009979Y021181D02*
X010319Y021181D01*
X010354Y020870D02*
X010354Y020643D01*
X010694Y020643D01*
X010637Y020501D02*
X010580Y020501D01*
X010524Y020445D01*
X010467Y020501D01*
X010410Y020501D01*
X010354Y020445D01*
X010354Y020331D01*
X010410Y020275D01*
X010319Y020331D02*
X010319Y020445D01*
X010262Y020501D01*
X010035Y020275D01*
X009979Y020331D01*
X009979Y020445D01*
X010035Y020501D01*
X010262Y020501D01*
X010262Y020643D02*
X010319Y020700D01*
X010319Y020813D01*
X010262Y020870D01*
X010205Y020870D01*
X009979Y020643D01*
X009979Y020870D01*
X010035Y020275D02*
X010262Y020275D01*
X010319Y020331D01*
X010354Y020133D02*
X010354Y019906D01*
X010580Y020133D01*
X010637Y020133D01*
X010694Y020076D01*
X010694Y019963D01*
X010637Y019906D01*
X010637Y020275D02*
X010694Y020331D01*
X010694Y020445D01*
X010637Y020501D01*
X010524Y020445D02*
X010524Y020388D01*
X010319Y020020D02*
X009979Y020020D01*
X009979Y020133D02*
X009979Y019906D01*
X010205Y019906D02*
X010319Y020020D01*
X010694Y021181D02*
X010637Y021238D01*
X012120Y015639D02*
X012122Y015669D01*
X012128Y015698D01*
X012138Y015726D01*
X012151Y015753D01*
X012168Y015777D01*
X012188Y015799D01*
X012211Y015819D01*
X012236Y015835D01*
X012263Y015847D01*
X012291Y015856D01*
X012321Y015861D01*
X012350Y015862D01*
X012380Y015859D01*
X012409Y015852D01*
X012437Y015841D01*
X012463Y015827D01*
X012487Y015809D01*
X012508Y015789D01*
X012527Y015765D01*
X012542Y015740D01*
X012554Y015712D01*
X012562Y015683D01*
X012566Y015654D01*
X012566Y015624D01*
X012562Y015595D01*
X012554Y015566D01*
X012542Y015538D01*
X012527Y015513D01*
X012508Y015489D01*
X012487Y015469D01*
X012463Y015451D01*
X012437Y015437D01*
X012409Y015426D01*
X012380Y015419D01*
X012350Y015416D01*
X012321Y015417D01*
X012291Y015422D01*
X012263Y015431D01*
X012236Y015443D01*
X012211Y015459D01*
X012188Y015479D01*
X012168Y015501D01*
X012151Y015525D01*
X012138Y015552D01*
X012128Y015580D01*
X012122Y015609D01*
X012120Y015639D01*
X014328Y014801D02*
X014498Y014971D01*
X014498Y014744D01*
X014328Y014801D02*
X014669Y014801D01*
X014612Y014096D02*
X014385Y014096D01*
X014328Y014040D01*
X014328Y013926D01*
X014385Y013869D01*
X014498Y013869D02*
X014498Y013983D01*
X014498Y013869D02*
X014612Y013869D01*
X014669Y013926D01*
X014669Y014040D01*
X014612Y014096D01*
X014669Y013728D02*
X014328Y013728D01*
X014669Y013501D01*
X014328Y013501D01*
X014328Y013360D02*
X014328Y013189D01*
X014385Y013133D01*
X014612Y013133D01*
X014669Y013189D01*
X014669Y013360D01*
X014328Y013360D01*
X013294Y012665D02*
X013294Y012551D01*
X013237Y012494D01*
X013010Y012494D01*
X013237Y012721D01*
X013294Y012665D01*
X013237Y012721D02*
X013010Y012721D01*
X012953Y012665D01*
X012953Y012551D01*
X013010Y012494D01*
X013237Y012353D02*
X013237Y012296D01*
X013294Y012296D01*
X013294Y012353D01*
X013237Y012353D01*
X013294Y012169D02*
X013294Y011942D01*
X013294Y012055D02*
X012953Y012055D01*
X013067Y012169D01*
X013067Y011800D02*
X013237Y011800D01*
X013294Y011744D01*
X013294Y011574D01*
X013067Y011574D01*
D11*
X015654Y010471D02*
X006993Y010471D01*
X006363Y012046D02*
X006365Y012096D01*
X006371Y012146D01*
X006381Y012195D01*
X006395Y012243D01*
X006412Y012290D01*
X006433Y012335D01*
X006458Y012379D01*
X006486Y012420D01*
X006518Y012459D01*
X006552Y012496D01*
X006589Y012530D01*
X006629Y012560D01*
X006671Y012587D01*
X006715Y012611D01*
X006761Y012632D01*
X006808Y012648D01*
X006856Y012661D01*
X006906Y012670D01*
X006955Y012675D01*
X007006Y012676D01*
X007056Y012673D01*
X007105Y012666D01*
X007154Y012655D01*
X007202Y012640D01*
X007248Y012622D01*
X007293Y012600D01*
X007336Y012574D01*
X007377Y012545D01*
X007416Y012513D01*
X007452Y012478D01*
X007484Y012440D01*
X007514Y012400D01*
X007541Y012357D01*
X007564Y012313D01*
X007583Y012267D01*
X007599Y012219D01*
X007611Y012170D01*
X007619Y012121D01*
X007623Y012071D01*
X007623Y012021D01*
X007619Y011971D01*
X007611Y011922D01*
X007599Y011873D01*
X007583Y011825D01*
X007564Y011779D01*
X007541Y011735D01*
X007514Y011692D01*
X007484Y011652D01*
X007452Y011614D01*
X007416Y011579D01*
X007377Y011547D01*
X007336Y011518D01*
X007293Y011492D01*
X007248Y011470D01*
X007202Y011452D01*
X007154Y011437D01*
X007105Y011426D01*
X007056Y011419D01*
X007006Y011416D01*
X006955Y011417D01*
X006906Y011422D01*
X006856Y011431D01*
X006808Y011444D01*
X006761Y011460D01*
X006715Y011481D01*
X006671Y011505D01*
X006629Y011532D01*
X006589Y011562D01*
X006552Y011596D01*
X006518Y011633D01*
X006486Y011672D01*
X006458Y011713D01*
X006433Y011757D01*
X006412Y011802D01*
X006395Y011849D01*
X006381Y011897D01*
X006371Y011946D01*
X006365Y011996D01*
X006363Y012046D01*
X005418Y012046D02*
X005420Y011969D01*
X005426Y011892D01*
X005435Y011815D01*
X005448Y011739D01*
X005465Y011663D01*
X005486Y011589D01*
X005510Y011515D01*
X005538Y011443D01*
X005569Y011373D01*
X005604Y011304D01*
X005642Y011236D01*
X005683Y011171D01*
X005728Y011108D01*
X005776Y011047D01*
X005826Y010988D01*
X005879Y010932D01*
X005935Y010879D01*
X005994Y010829D01*
X006055Y010781D01*
X006118Y010736D01*
X006183Y010695D01*
X006251Y010657D01*
X006320Y010622D01*
X006390Y010591D01*
X006462Y010563D01*
X006536Y010539D01*
X006610Y010518D01*
X006686Y010501D01*
X006762Y010488D01*
X006839Y010479D01*
X006916Y010473D01*
X006993Y010471D01*
X005418Y012046D02*
X005418Y020707D01*
X006363Y020707D02*
X006365Y020757D01*
X006371Y020807D01*
X006381Y020856D01*
X006395Y020904D01*
X006412Y020951D01*
X006433Y020996D01*
X006458Y021040D01*
X006486Y021081D01*
X006518Y021120D01*
X006552Y021157D01*
X006589Y021191D01*
X006629Y021221D01*
X006671Y021248D01*
X006715Y021272D01*
X006761Y021293D01*
X006808Y021309D01*
X006856Y021322D01*
X006906Y021331D01*
X006955Y021336D01*
X007006Y021337D01*
X007056Y021334D01*
X007105Y021327D01*
X007154Y021316D01*
X007202Y021301D01*
X007248Y021283D01*
X007293Y021261D01*
X007336Y021235D01*
X007377Y021206D01*
X007416Y021174D01*
X007452Y021139D01*
X007484Y021101D01*
X007514Y021061D01*
X007541Y021018D01*
X007564Y020974D01*
X007583Y020928D01*
X007599Y020880D01*
X007611Y020831D01*
X007619Y020782D01*
X007623Y020732D01*
X007623Y020682D01*
X007619Y020632D01*
X007611Y020583D01*
X007599Y020534D01*
X007583Y020486D01*
X007564Y020440D01*
X007541Y020396D01*
X007514Y020353D01*
X007484Y020313D01*
X007452Y020275D01*
X007416Y020240D01*
X007377Y020208D01*
X007336Y020179D01*
X007293Y020153D01*
X007248Y020131D01*
X007202Y020113D01*
X007154Y020098D01*
X007105Y020087D01*
X007056Y020080D01*
X007006Y020077D01*
X006955Y020078D01*
X006906Y020083D01*
X006856Y020092D01*
X006808Y020105D01*
X006761Y020121D01*
X006715Y020142D01*
X006671Y020166D01*
X006629Y020193D01*
X006589Y020223D01*
X006552Y020257D01*
X006518Y020294D01*
X006486Y020333D01*
X006458Y020374D01*
X006433Y020418D01*
X006412Y020463D01*
X006395Y020510D01*
X006381Y020558D01*
X006371Y020607D01*
X006365Y020657D01*
X006363Y020707D01*
X005418Y020707D02*
X005420Y020784D01*
X005426Y020861D01*
X005435Y020938D01*
X005448Y021014D01*
X005465Y021090D01*
X005486Y021164D01*
X005510Y021238D01*
X005538Y021310D01*
X005569Y021380D01*
X005604Y021449D01*
X005642Y021517D01*
X005683Y021582D01*
X005728Y021645D01*
X005776Y021706D01*
X005826Y021765D01*
X005879Y021821D01*
X005935Y021874D01*
X005994Y021924D01*
X006055Y021972D01*
X006118Y022017D01*
X006183Y022058D01*
X006251Y022096D01*
X006320Y022131D01*
X006390Y022162D01*
X006462Y022190D01*
X006536Y022214D01*
X006610Y022235D01*
X006686Y022252D01*
X006762Y022265D01*
X006839Y022274D01*
X006916Y022280D01*
X006993Y022282D01*
X015654Y022282D01*
X015024Y020707D02*
X015026Y020757D01*
X015032Y020807D01*
X015042Y020856D01*
X015056Y020904D01*
X015073Y020951D01*
X015094Y020996D01*
X015119Y021040D01*
X015147Y021081D01*
X015179Y021120D01*
X015213Y021157D01*
X015250Y021191D01*
X015290Y021221D01*
X015332Y021248D01*
X015376Y021272D01*
X015422Y021293D01*
X015469Y021309D01*
X015517Y021322D01*
X015567Y021331D01*
X015616Y021336D01*
X015667Y021337D01*
X015717Y021334D01*
X015766Y021327D01*
X015815Y021316D01*
X015863Y021301D01*
X015909Y021283D01*
X015954Y021261D01*
X015997Y021235D01*
X016038Y021206D01*
X016077Y021174D01*
X016113Y021139D01*
X016145Y021101D01*
X016175Y021061D01*
X016202Y021018D01*
X016225Y020974D01*
X016244Y020928D01*
X016260Y020880D01*
X016272Y020831D01*
X016280Y020782D01*
X016284Y020732D01*
X016284Y020682D01*
X016280Y020632D01*
X016272Y020583D01*
X016260Y020534D01*
X016244Y020486D01*
X016225Y020440D01*
X016202Y020396D01*
X016175Y020353D01*
X016145Y020313D01*
X016113Y020275D01*
X016077Y020240D01*
X016038Y020208D01*
X015997Y020179D01*
X015954Y020153D01*
X015909Y020131D01*
X015863Y020113D01*
X015815Y020098D01*
X015766Y020087D01*
X015717Y020080D01*
X015667Y020077D01*
X015616Y020078D01*
X015567Y020083D01*
X015517Y020092D01*
X015469Y020105D01*
X015422Y020121D01*
X015376Y020142D01*
X015332Y020166D01*
X015290Y020193D01*
X015250Y020223D01*
X015213Y020257D01*
X015179Y020294D01*
X015147Y020333D01*
X015119Y020374D01*
X015094Y020418D01*
X015073Y020463D01*
X015056Y020510D01*
X015042Y020558D01*
X015032Y020607D01*
X015026Y020657D01*
X015024Y020707D01*
X015654Y022282D02*
X015731Y022280D01*
X015808Y022274D01*
X015885Y022265D01*
X015961Y022252D01*
X016037Y022235D01*
X016111Y022214D01*
X016185Y022190D01*
X016257Y022162D01*
X016327Y022131D01*
X016396Y022096D01*
X016464Y022058D01*
X016529Y022017D01*
X016592Y021972D01*
X016653Y021924D01*
X016712Y021874D01*
X016768Y021821D01*
X016821Y021765D01*
X016871Y021706D01*
X016919Y021645D01*
X016964Y021582D01*
X017005Y021517D01*
X017043Y021449D01*
X017078Y021380D01*
X017109Y021310D01*
X017137Y021238D01*
X017161Y021164D01*
X017182Y021090D01*
X017199Y021014D01*
X017212Y020938D01*
X017221Y020861D01*
X017227Y020784D01*
X017229Y020707D01*
X017229Y019447D01*
X016404Y019447D01*
X016404Y013305D01*
X017229Y013305D01*
X017229Y012046D01*
X015024Y012046D02*
X015026Y012096D01*
X015032Y012146D01*
X015042Y012195D01*
X015056Y012243D01*
X015073Y012290D01*
X015094Y012335D01*
X015119Y012379D01*
X015147Y012420D01*
X015179Y012459D01*
X015213Y012496D01*
X015250Y012530D01*
X015290Y012560D01*
X015332Y012587D01*
X015376Y012611D01*
X015422Y012632D01*
X015469Y012648D01*
X015517Y012661D01*
X015567Y012670D01*
X015616Y012675D01*
X015667Y012676D01*
X015717Y012673D01*
X015766Y012666D01*
X015815Y012655D01*
X015863Y012640D01*
X015909Y012622D01*
X015954Y012600D01*
X015997Y012574D01*
X016038Y012545D01*
X016077Y012513D01*
X016113Y012478D01*
X016145Y012440D01*
X016175Y012400D01*
X016202Y012357D01*
X016225Y012313D01*
X016244Y012267D01*
X016260Y012219D01*
X016272Y012170D01*
X016280Y012121D01*
X016284Y012071D01*
X016284Y012021D01*
X016280Y011971D01*
X016272Y011922D01*
X016260Y011873D01*
X016244Y011825D01*
X016225Y011779D01*
X016202Y011735D01*
X016175Y011692D01*
X016145Y011652D01*
X016113Y011614D01*
X016077Y011579D01*
X016038Y011547D01*
X015997Y011518D01*
X015954Y011492D01*
X015909Y011470D01*
X015863Y011452D01*
X015815Y011437D01*
X015766Y011426D01*
X015717Y011419D01*
X015667Y011416D01*
X015616Y011417D01*
X015567Y011422D01*
X015517Y011431D01*
X015469Y011444D01*
X015422Y011460D01*
X015376Y011481D01*
X015332Y011505D01*
X015290Y011532D01*
X015250Y011562D01*
X015213Y011596D01*
X015179Y011633D01*
X015147Y011672D01*
X015119Y011713D01*
X015094Y011757D01*
X015073Y011802D01*
X015056Y011849D01*
X015042Y011897D01*
X015032Y011946D01*
X015026Y011996D01*
X015024Y012046D01*
X015654Y010471D02*
X015731Y010473D01*
X015808Y010479D01*
X015885Y010488D01*
X015961Y010501D01*
X016037Y010518D01*
X016111Y010539D01*
X016185Y010563D01*
X016257Y010591D01*
X016327Y010622D01*
X016396Y010657D01*
X016464Y010695D01*
X016529Y010736D01*
X016592Y010781D01*
X016653Y010829D01*
X016712Y010879D01*
X016768Y010932D01*
X016821Y010988D01*
X016871Y011047D01*
X016919Y011108D01*
X016964Y011171D01*
X017005Y011236D01*
X017043Y011304D01*
X017078Y011373D01*
X017109Y011443D01*
X017137Y011515D01*
X017161Y011589D01*
X017182Y011663D01*
X017199Y011739D01*
X017212Y011815D01*
X017221Y011892D01*
X017227Y011969D01*
X017229Y012046D01*
D12*
X010782Y011392D02*
X009876Y011392D01*
X009875Y011392D02*
X009875Y013321D01*
X009876Y013321D02*
X010782Y013321D01*
X010782Y011392D01*
X009987Y011612D02*
X009989Y011632D01*
X009994Y011652D01*
X010004Y011670D01*
X010016Y011687D01*
X010031Y011701D01*
X010049Y011711D01*
X010068Y011719D01*
X010088Y011723D01*
X010108Y011723D01*
X010128Y011719D01*
X010147Y011711D01*
X010165Y011701D01*
X010180Y011687D01*
X010192Y011670D01*
X010202Y011652D01*
X010207Y011632D01*
X010209Y011612D01*
X010207Y011592D01*
X010202Y011572D01*
X010192Y011554D01*
X010180Y011537D01*
X010165Y011523D01*
X010147Y011513D01*
X010128Y011505D01*
X010108Y011501D01*
X010088Y011501D01*
X010068Y011505D01*
X010049Y011513D01*
X010031Y011523D01*
X010016Y011537D01*
X010004Y011554D01*
X009994Y011572D01*
X009989Y011592D01*
X009987Y011612D01*
X009876Y019392D02*
X010782Y019392D01*
X010782Y021321D01*
X009876Y021321D01*
X009875Y021321D02*
X009875Y019392D01*
X009987Y019612D02*
X009989Y019632D01*
X009994Y019652D01*
X010004Y019670D01*
X010016Y019687D01*
X010031Y019701D01*
X010049Y019711D01*
X010068Y019719D01*
X010088Y019723D01*
X010108Y019723D01*
X010128Y019719D01*
X010147Y019711D01*
X010165Y019701D01*
X010180Y019687D01*
X010192Y019670D01*
X010202Y019652D01*
X010207Y019632D01*
X010209Y019612D01*
X010207Y019592D01*
X010202Y019572D01*
X010192Y019554D01*
X010180Y019537D01*
X010165Y019523D01*
X010147Y019513D01*
X010128Y019505D01*
X010108Y019501D01*
X010088Y019501D01*
X010068Y019505D01*
X010049Y019513D01*
X010031Y019523D01*
X010016Y019537D01*
X010004Y019554D01*
X009994Y019572D01*
X009989Y019592D01*
X009987Y019612D01*
D13*
X007449Y019126D02*
X007449Y017876D01*
X007447Y017845D01*
X007442Y017814D01*
X007433Y017784D01*
X007421Y017755D01*
X007405Y017728D01*
X007387Y017703D01*
X007365Y017680D01*
X007342Y017659D01*
X007315Y017642D01*
X007288Y017628D01*
X007258Y017617D01*
X007228Y017609D01*
X007197Y017606D01*
X007165Y017605D01*
X007134Y017609D01*
X007104Y017616D01*
X007074Y017626D01*
X005949Y018251D01*
X005948Y018251D02*
X005920Y018267D01*
X005894Y018286D01*
X005870Y018309D01*
X005849Y018334D01*
X005831Y018361D01*
X005816Y018390D01*
X005805Y018421D01*
X005797Y018452D01*
X005793Y018485D01*
X005793Y018517D01*
X005797Y018550D01*
X005805Y018581D01*
X005816Y018612D01*
X005831Y018641D01*
X005849Y018668D01*
X005870Y018693D01*
X005894Y018716D01*
X005920Y018735D01*
X005948Y018751D01*
X005949Y018751D02*
X007074Y019376D01*
X007103Y019388D01*
X007134Y019396D01*
X007165Y019400D01*
X007197Y019401D01*
X007229Y019397D01*
X007260Y019390D01*
X007290Y019379D01*
X007318Y019365D01*
X007344Y019347D01*
X007369Y019327D01*
X007390Y019303D01*
X007409Y019278D01*
X007424Y019250D01*
X007436Y019220D01*
X007444Y019189D01*
X007448Y019158D01*
X007449Y019126D01*
X007024Y018501D02*
X007026Y018514D01*
X007031Y018525D01*
X007040Y018535D01*
X007050Y018542D01*
X007063Y018546D01*
X007075Y018546D01*
X007088Y018542D01*
X007098Y018535D01*
X007107Y018525D01*
X007112Y018514D01*
X007114Y018501D01*
X007112Y018488D01*
X007107Y018477D01*
X007098Y018467D01*
X007088Y018460D01*
X007075Y018456D01*
X007063Y018456D01*
X007050Y018460D01*
X007040Y018467D01*
X007031Y018477D01*
X007026Y018488D01*
X007024Y018501D01*
D14*
X006829Y018501D02*
X006329Y018601D01*
X006310Y018604D01*
X006290Y018603D01*
X006271Y018598D01*
X006254Y018590D01*
X006238Y018578D01*
X006225Y018564D01*
X006214Y018548D01*
X006207Y018530D01*
X006203Y018511D01*
X006203Y018491D01*
X006207Y018472D01*
X006214Y018454D01*
X006225Y018438D01*
X006238Y018424D01*
X006254Y018412D01*
X006271Y018404D01*
X006290Y018399D01*
X006310Y018398D01*
X006329Y018401D01*
X006829Y018501D01*
D15*
X006549Y018501D02*
X006259Y018501D01*
M02*
