%
M48
M72
T01C0.0150
T02C0.0200
T03C0.0354
T04C0.0394
T05C0.0400
T06C0.1260
%
T01
X6026Y3352
X7526Y3352
X9026Y3352
X10526Y3352
X11376Y4302
X11976Y4552
X13026Y4352
X14026Y4352
X13826Y6552
X13426Y6952
X12626Y6852
X12026Y6852
X11658Y7752
X12476Y8252
X12226Y8652
X12926Y8052
X13176Y8752
X13626Y8752
X14126Y8702
X14776Y8652
X15526Y8652
X14426Y8152
X16026Y7652
X15626Y6952
X20126Y8952
X21376Y8452
X21026Y7952
X21026Y7452
X22526Y7452
X23226Y6502
X22826Y5902
X21026Y6152
X24626Y5452
X24926Y5852
X27126Y6452
X25576Y7802
X26326Y8152
X22626Y8752
X22126Y8952
X21326Y9852
X20126Y9752
X20726Y11052
X18726Y11252
X18676Y11702
X18126Y12852
X20526Y13152
X22526Y12752
X25026Y12152
X24826Y11352
X25426Y11352
X25526Y10652
X26726Y10352
X31876Y9902
X31876Y8402
X31876Y6902
X31876Y5402
X31376Y3902
X29876Y3902
X28376Y3902
X27376Y4902
X15626Y11052
X14976Y11402
X14326Y11052
X13526Y11352
X12926Y11452
X12276Y11052
X13226Y10652
X12176Y10502
X12276Y9452
X9826Y8302
X8876Y8352
X9976Y7502
X8926Y7152
X6876Y7252
X5026Y6352
X4026Y6352
X4026Y5352
X5026Y5352
X5776Y9452
X7476Y9352
X8476Y9352
X4026Y9852
X4026Y12852
X5026Y12852
X5026Y14352
X4026Y14352
X5876Y16402
X7376Y16402
X8876Y16402
X10376Y16402
X11876Y16402
X14376Y16402
X15876Y16402
X17376Y16402
X20876Y16402
X22376Y16402
X23876Y16402
X27376Y16402
X27376Y15402
X29376Y15402
X29376Y16402
X31376Y16402
X31376Y15402
X31876Y14402
X31876Y12902
X31876Y11402
X14726Y13652
X12776Y12802
X13326Y12452
X10076Y12052
T02
X8258Y12052
X15126Y8152
X16876Y8302
X7958Y7252
X7958Y5452
X18726Y13152
X19726Y15652
T03
X5658Y10618
X5658Y8886
T04
X28858Y9352
X29858Y9352
X29858Y10352
X28858Y10352
X28858Y11352
X29858Y11352
X29858Y12352
X28858Y12352
X28858Y13352
X29858Y13352
X29858Y14352
X28858Y14352
X28858Y8352
X29858Y8352
X29858Y7352
X28858Y7352
X28858Y6352
X29858Y6352
X29858Y5352
X28858Y5352
T05
X11126Y15352
X10126Y15352
X9126Y15352
X8126Y15352
X7126Y15352
T06
X4558Y15852
X26058Y15852
X32558Y15852
X32558Y3852
X26058Y3852
X4558Y3852
M30
