<?xml version="1.0" standalone="no"?>
<!DOCTYPE svg PUBLIC "-//W3C//DTD SVG 1.1//EN" "http://www.w3.org/Graphics/SVG/1.1/DTD/svg11.dtd">
<svg width="104.0mm" height="124.0mm"
 viewBox="0 0 104.0 124.0"
 xmlns="http://www.w3.org/2000/svg" version="1.1"
 xmlns:xlink="http://www.w3.org/1999/xlink">
<desc>Output from Flights of Ideas SVG Sketchup Plugin</desc>

<g id="text_annotations" font-size="10" stroke="rgb(255,0,0)" stroke-width="0">
</g>
  <path id="face0-cut"
 style="fill:none;stroke:rgb(0,0,255);stroke-width:0;stroke-miterlimit:4;stroke-dasharray:none;stroke-linejoin:round;stroke-linecap:round"
        d="M 94.0,110.0 L 94.0,85.2783239257321 L 77.3871610801459,85.2783239257321 L 77.3871610801459,38.2783239257323 L 94.0,38.2783239257323 L 94.0,14.0 L 93.9657794454953,13.4778952311198 L 93.8637033051563,12.9647238195899 L 93.6955181300452,12.4692662705396 L 93.4641016151378,12.0 L 93.173413361165,11.5649542839651 L 92.8284271247462,11.1715728752538 L 92.4350457160349,10.826586638835 L 92.0,10.5358983848622 L 91.5307337294604,10.3044818699549 L 91.0352761804101,10.1362966948437 L 90.5221047688803,10.0342205545048 L 90.0,10.0 L 14.0,10.0 L 13.4778952311198,10.0342205545047 L 12.9647238195899,10.1362966948437 L 12.4692662705396,10.3044818699549 L 12.0,10.5358983848622 L 11.5649542839651,10.826586638835 L 11.1715728752538,11.1715728752538 L 10.8265866388351,11.5649542839651 L 10.5358983848623,12.0 L 10.3044818699549,12.4692662705396 L 10.1362966948438,12.9647238195899 L 10.0342205545048,13.4778952311198 L 10.0,14.0 L 10.0,110.0 L 10.0342205545047,110.522104768879 L 10.1362966948437,111.03527618041 L 10.3044818699549,111.53073372946 L 10.5358983848622,112.0 L 10.8265866388351,112.435045716035 L 11.1715728752538,112.828427124746 L 11.5649542839651,113.173413361165 L 12.0,113.464101615138 L 12.4692662705396,113.695518130045 L 12.9647238195899,113.863703305156 L 13.4778952311198,113.965779445495 L 14.0,114.0 L 90.0,114.0 L 90.5221047688802,113.965779445495 L 91.0352761804101,113.863703305156 L 91.5307337294604,113.695518130045 L 92.0,113.464101615138 L 92.4350457160349,113.173413361165 L 92.8284271247462,112.828427124746 L 93.173413361165,112.435045716035 L 93.4641016151378,112.0 L 93.6955181300452,111.53073372946 L 93.8637033051563,111.03527618041 L 93.9657794454953,110.52210476888 L 94.0,110.0 M 86.55,93.45 L 86.55,104.55 L 75.45,104.55 L 75.45,93.45 L 86.55,93.45 M 38.6071834671179,30.2072384296008 L 38.2605422043146,30.423065403664 L 37.9010330710311,30.6167007075132 L 37.5300748855721,30.7873801510675 L 37.149131650421,30.9344301405395 L 36.7597067744906,31.0572703368012 L 36.3633371398548,31.1554159457184 L 35.9615870363775,31.2284796314113 L 35.556041988175,31.2761730448921 L 35.1483024962765,31.2983079620466 L 34.7399777221782,31.2947970264694 L 34.3326791372176,31.2656540942194 L 33.9280141628325,31.2109941791357 L 33.5275798268029,31.1310329989317 L 33.1329564605122,31.0260861238548 L 32.7457014621008,30.8965677312751 L 32.3673431501274,30.742988971117 L 31.9993747319939,30.5659559485833 L 31.643248410938,30.3661673321353 L 31.3003696548502,30.1444115961672 L 30.9720916495344,29.9015639092585 L 30.6597099583015,29.6385826802828 L 30.3644574089734,29.3565057760062 L 30.087499228474,29.0564464251012 L 29.8299284442118,28.7395888247417 L 29.5927615703992,28.4071834671179 L 29.376934596336,28.0605422043147 L 29.1832992924869,27.7010330710311 L 29.0126198489325,27.3300748855721 L 28.8655698594606,26.949131650421 L 28.7427296631989,26.5597067744906 L 28.6445840542816,26.1633371398549 L 28.5715203685886,25.7615870363775 L 28.523826955108,25.356041988175 L 28.5016920379534,24.9483024962765 L 28.5052029735306,24.5399777221782 L 28.5343459057806,24.1326791372177 L 28.5890058208642,23.7280141628325 L 28.6689670010683,23.327579826803 L 28.7739138761452,22.9329564605123 L 28.9034322687249,22.5457014621008 L 29.057011028883,22.1673431501274 L 29.2340440514167,21.7993747319939 L 29.4338326678647,21.443248410938 L 29.6555884038328,21.1003696548502 L 29.8984360907415,20.7720916495344 L 30.1614173197172,20.4597099583015 L 30.4434942239938,20.1644574089734 L 30.7435535748988,19.887499228474 L 31.0604111752583,19.6299284442118 L 31.3928165328821,19.3927615703992 L 31.7394577956853,19.176934596336 L 32.0989669289689,18.9832992924869 L 32.4699251144279,18.8126198489325 L 32.8508683495789,18.6655698594606 L 33.2402932255094,18.5427296631988 L 33.6366628601452,18.4445840542815 L 34.0384129636224,18.3715203685886 L 34.443958011825,18.3238269551079 L 34.8516975037235,18.3016920379534 L 35.2600222778218,18.3052029735305 L 35.6673208627824,18.3343459057806 L 36.0719858371675,18.3890058208642 L 36.4724201731971,18.4689670010683 L 36.8670435394878,18.5739138761452 L 37.2542985378992,18.7034322687249 L 37.6326568498726,18.857011028883 L 38.0006252680061,19.0340440514166 L 38.356751589062,19.2338326678648 L 38.6996303451498,19.4555884038328 L 39.0279083504656,19.6984360907415 L 39.3402900416985,19.9614173197171 L 39.6355425910266,20.2434942239938 L 39.912500771526,20.5435535748988 L 40.1700715557882,20.8604111752583 L 40.4072384296008,21.1928165328821 L 40.623065403664,21.5394577956853 L 40.8167007075131,21.8989669289689 L 40.9873801510675,22.2699251144279 L 41.1344301405394,22.650868349579 L 41.2572703368011,23.0402932255094 L 41.3554159457184,23.4366628601451 L 41.4284796314114,23.8384129636224 L 41.4761730448921,24.243958011825 L 41.4983079620466,24.6516975037235 L 41.4947970264695,25.0600222778218 L 41.4656540942194,25.4673208627824 L 41.4109941791357,25.8719858371675 L 41.3310329989317,26.272420173197 L 41.2260861238547,26.6670435394878 L 41.0965677312751,27.0542985378992 L 40.9429889711171,27.4326568498726 L 40.7659559485833,27.8006252680061 L 40.5661673321353,28.156751589062 L 40.3444115961672,28.4996303451498 L 40.1015639092585,28.8279083504656 L 39.8385826802828,29.1402900416985 L 39.5565057760062,29.4355425910266 L 39.2564464251012,29.712500771526 L 38.9395888247417,29.9700715557882 L 38.6071834671179,30.2072384296008 M 37.9084653861461,49.2129879664067 L 37.537725659654,49.384141415135 L 37.1569706893598,49.5316781915918 L 36.7677031411808,49.6550160355238 L 36.3714592762902,49.7536681888085 L 35.9698028881964,49.8272453164669 L 35.5643191311636,49.8754570431903 L 35.156608264333,49.8981130993191 L 34.7482793362307,49.8951240717504 L 34.3409438345879,49.8665017568104 L 33.936209326536,49.8123591137 L 33.5356731142724,49.7329098186959 L 33.1409159312396,49.6284674218688 L 32.7534957036914,49.4994441096437 L 32.3749414022705,49.3463490780887 L 32.0067470078597,49.169786523351 L 31.6503656155216,48.9704532571704 L 31.3072036997967,48.7491359568817 L 30.9786155639906,48.506708060759 L 30.6658979953575,48.2441263209535 L 30.370285147274,47.9624270276299 L 30.0929436685986,47.662721919203 L 29.8349680994425,47.3461937948133 L 29.5973765515193,47.01409184636 L 29.3811066901233,46.6677267285106 L 29.1870120335933,46.3084653861461 L 29.015858584865,45.937725659654 L 28.8683218084082,45.5569706893597 L 28.7449839644762,45.1677031411807 L 28.6463318111915,44.7714592762903 L 28.5727546835331,44.3698028881965 L 28.5245429568097,43.9643191311637 L 28.5018869006809,43.5566082643331 L 28.5048759282496,43.1482793362307 L 28.5334982431896,42.740943834588 L 28.5876408863,42.336209326536 L 28.6670901813041,41.9356731142725 L 28.7715325781312,41.5409159312396 L 28.9005558903563,41.1534957036914 L 29.0536509219113,40.7749414022705 L 29.230213476649,40.4067470078597 L 29.4295467428296,40.0503656155217 L 29.6508640431182,39.7072036997968 L 29.893291939241,39.3786155639906 L 30.1558736790465,39.0658979953576 L 30.43757297237,38.770285147274 L 30.737278080797,38.4929436685987 L 31.0538062051866,38.2349680994425 L 31.38590815364,37.9973765515193 L 31.7322732714894,37.7811066901233 L 32.0915346138538,37.5870120335933 L 32.462274340346,37.415858584865 L 32.8430293106402,37.2683218084082 L 33.2322968588192,37.1449839644762 L 33.6285407237097,37.0463318111915 L 34.0301971118035,36.9727546835331 L 34.4356808688363,36.9245429568097 L 34.8433917356669,36.9018869006809 L 35.2517206637693,36.9048759282496 L 35.659056165412,36.9334982431896 L 36.063790673464,36.9876408863 L 36.4643268857275,37.067090181304 L 36.8590840687604,37.1715325781312 L 37.2465042963086,37.3005558903563 L 37.6250585977294,37.4536509219113 L 37.9932529921403,37.6302134766489 L 38.3496343844783,37.8295467428296 L 38.6927963002033,38.0508640431182 L 39.0213844360094,38.293291939241 L 39.3341020046424,38.5558736790465 L 39.629714852726,38.83757297237 L 39.9070563314014,39.137278080797 L 40.1650319005575,39.4538062051866 L 40.4026234484807,39.78590815364 L 40.6188933098767,40.1322732714893 L 40.8129879664067,40.4915346138538 L 40.984141415135,40.862274340346 L 41.1316781915918,41.2430293106403 L 41.2550160355238,41.6322968588192 L 41.3536681888085,42.0285407237097 L 41.4272453164669,42.4301971118035 L 41.4754570431903,42.8356808688363 L 41.4981130993191,43.2433917356669 L 41.4951240717504,43.6517206637693 L 41.4665017568104,44.059056165412 L 41.4123591137,44.463790673464 L 41.332909818696,44.8643268857275 L 41.2284674218688,45.2590840687604 L 41.0994441096437,45.6465042963086 L 40.9463490780887,46.0250585977295 L 40.769786523351,46.3932529921403 L 40.5704532571704,46.7496343844783 L 40.3491359568817,47.0927963002033 L 40.106708060759,47.4213844360094 L 39.8441263209535,47.7341020046424 L 39.56242702763,48.029714852726 L 39.262721919203,48.3070563314014 L 38.9461937948133,48.5650319005575 L 38.61409184636,48.8026234484807 L 38.2677267285106,49.0188933098767 L 37.9084653861461,49.2129879664067 M 35.4081383769405,68.4871737347838 L 34.9999999999999,68.5 L 34.5918616230594,68.4871737347838 L 34.185333981832,68.4487455585441 L 33.7820214551928,68.3848671297365 L 33.3835157334284,68.2957905473361 L 32.9913895365628,68.1818673559185 L 32.6071904075496,68.0435471582736 L 32.232434604827,67.8813758410291 L 31.8686011183388,67.6959934202851 L 31.5171258326365,67.4881315157631 L 31.1793958600989,67.2586104634372 L 30.8567440666335,67.0083360780426 L 30.5504438114635,66.7382960782392 L 30.2617039217608,66.4495561885365 L 29.9916639219574,66.1432559333665 L 29.7413895365628,65.8206041399011 L 29.5118684842369,65.4828741673634 L 29.3040065797149,65.1313988816611 L 29.1186241589709,64.767565395173 L 28.9564528417264,64.3928095924504 L 28.8181326440815,64.0086104634372 L 28.7042094526639,63.6164842665716 L 28.6151328702635,63.2179785448072 L 28.5512544414559,62.814666018168 L 28.5128262652162,62.4081383769405 L 28.5,62.0 L 28.5128262652162,61.5918616230595 L 28.5512544414559,61.1853339818321 L 28.6151328702635,60.7820214551928 L 28.7042094526639,60.3835157334284 L 28.8181326440815,59.9913895365628 L 28.9564528417264,59.6071904075496 L 29.1186241589709,59.2324346048271 L 29.3040065797149,58.8686011183389 L 29.5118684842369,58.5171258326366 L 29.7413895365628,58.179395860099 L 29.9916639219573,57.8567440666336 L 30.2617039217608,57.5504438114635 L 30.5504438114635,57.2617039217608 L 30.8567440666335,56.9916639219574 L 31.1793958600989,56.7413895365628 L 31.5171258326365,56.5118684842369 L 31.8686011183388,56.3040065797149 L 32.232434604827,56.1186241589709 L 32.6071904075496,55.9564528417264 L 32.9913895365628,55.8181326440815 L 33.3835157334284,55.7042094526639 L 33.7820214551928,55.6151328702635 L 34.185333981832,55.5512544414559 L 34.5918616230594,55.5128262652162 L 35.0,55.5 L 35.4081383769405,55.5128262652163 L 35.814666018168,55.5512544414559 L 36.2179785448072,55.6151328702635 L 36.6164842665715,55.7042094526639 L 37.0086104634371,55.8181326440815 L 37.3928095924504,55.9564528417264 L 37.767565395173,56.1186241589709 L 38.1313988816611,56.3040065797149 L 38.4828741673635,56.5118684842369 L 38.8206041399011,56.7413895365628 L 39.1432559333665,56.9916639219574 L 39.4495561885365,57.2617039217608 L 39.7382960782392,57.5504438114635 L 40.0083360780426,57.8567440666335 L 40.2586104634371,58.1793958600989 L 40.4881315157631,58.5171258326365 L 40.6959934202851,58.8686011183389 L 40.8813758410291,59.232434604827 L 41.0435471582736,59.6071904075496 L 41.1818673559185,59.9913895365629 L 41.2957905473361,60.3835157334284 L 41.3848671297365,60.7820214551928 L 41.4487455585441,61.185333981832 L 41.4871737347838,61.5918616230595 L 41.5,62.0 L 41.4871737347838,62.4081383769405 L 41.4487455585441,62.814666018168 L 41.3848671297365,63.2179785448072 L 41.2957905473361,63.6164842665716 L 41.1818673559185,64.0086104634372 L 41.0435471582737,64.3928095924504 L 40.8813758410291,64.767565395173 L 40.6959934202851,65.1313988816611 L 40.4881315157631,65.4828741673635 L 40.2586104634372,65.8206041399011 L 40.0083360780426,66.1432559333665 L 39.7382960782392,66.4495561885365 L 39.4495561885365,66.7382960782392 L 39.1432559333665,67.0083360780426 L 38.8206041399011,67.2586104634372 L 38.4828741673635,67.4881315157631 L 38.1313988816612,67.6959934202851 L 37.767565395173,67.8813758410292 L 37.3928095924504,68.0435471582736 L 37.0086104634372,68.1818673559185 L 36.6164842665716,68.2957905473361 L 36.2179785448072,68.3848671297365 L 35.814666018168,68.4487455585441 L 35.4081383769405,68.4871737347838 M 38.5190889681515,86.0649805886421 L 38.1689958795538,86.2751621223866 L 37.806396211996,86.4629463839689 L 37.43272098071,86.6275922746992 L 37.0494449111175,86.7684500124662 L 36.6580806187632,86.8849636961308 L 36.2601726397117,86.9766734994135 L 35.8572913349693,87.043217485619 L 35.4510266929869,87.0843330360349 L 35.0429820547019,87.0998578863675 L 34.6347677858835,87.0897307671252 L 34.2279949217555,87.0539916454211 L 33.8242688089758,86.9927815672407 L 33.4251827700666,86.9063421007986 L 33.0323118152984,86.7950143831783 L 32.6472064268439,86.6592377740204 L 32.2713864397336,86.4995481215709 L 31.9063350437607,86.3165756479327 L 31.553492930009,86.111042461867 L 31.2142526051032,85.8837597089603 L 30.8899528956216,85.6356243704025 L 30.5818736643591,85.3676157230125 L 30.2912307592935,85.0807914744804 L 30.0191712151889,84.7762835890773 L 29.7667687267736,84.4552938203107 L 29.5350194113579,84.1190889681515 L 29.3248378776134,83.7689958795537 L 29.137053616031,83.4063962119959 L 28.9724077253008,83.0327209807099 L 28.8315499875338,82.6494449111175 L 28.7150363038692,82.2580806187632 L 28.6233265005865,81.8601726397116 L 28.556782514381,81.4572913349692 L 28.5156669639651,81.0510266929869 L 28.5001421136325,80.6429820547018 L 28.5102692328748,80.2347677858835 L 28.546008354579,79.8279949217555 L 28.6072184327593,79.4242688089758 L 28.6936578992014,79.0251827700666 L 28.8049856168217,78.6323118152984 L 28.9407622259796,78.2472064268439 L 29.1004518784291,77.8713864397336 L 29.2834243520673,77.5063350437607 L 29.4889575381329,77.153492930009 L 29.7162402910397,76.8142526051032 L 29.9643756295976,76.4899528956216 L 30.2323842769874,76.1818736643591 L 30.5192085255196,75.8912307592935 L 30.8237164109227,75.6191712151889 L 31.1447061796893,75.3667687267736 L 31.4809110318485,75.1350194113579 L 31.8310041204462,74.9248378776134 L 32.193603788004,74.7370536160311 L 32.56727901929,74.5724077253008 L 32.9505550888825,74.4315499875338 L 33.3419193812368,74.3150363038692 L 33.7398273602883,74.2233265005866 L 34.1427086650307,74.156782514381 L 34.5489733070131,74.1156669639651 L 34.9570179452981,74.1001421136325 L 35.3652322141165,74.1102692328748 L 35.7720050782444,74.146008354579 L 36.1757311910242,74.2072184327593 L 36.5748172299334,74.2936578992014 L 36.9676881847016,74.4049856168217 L 37.3527935731561,74.5407622259796 L 37.7286135602664,74.7004518784291 L 38.0936649562393,74.8834243520674 L 38.446507069991,75.0889575381329 L 38.7857473948968,75.3162402910397 L 39.1100471043783,75.5643756295975 L 39.4181263356408,75.8323842769874 L 39.7087692407065,76.1192085255196 L 39.9808287848112,76.4237164109227 L 40.2332312732263,76.7447061796893 L 40.4649805886421,77.0809110318485 L 40.6751621223866,77.4310041204462 L 40.8629463839689,77.793603788004 L 41.0275922746992,78.16727901929 L 41.1684500124662,78.5505550888825 L 41.2849636961308,78.9419193812368 L 41.3766734994135,79.3398273602883 L 41.443217485619,79.7427086650307 L 41.4843330360349,80.1489733070131 L 41.4998578863675,80.5570179452981 L 41.4897307671252,80.9652322141165 L 41.4539916454211,81.3720050782445 L 41.3927815672407,81.7757311910242 L 41.3063421007986,82.1748172299334 L 41.1950143831783,82.5676881847016 L 41.0592377740204,82.9527935731561 L 40.8995481215709,83.3286135602664 L 40.7165756479327,83.6936649562393 L 40.5110424618671,84.0465070699911 L 40.2837597089603,84.3857473948968 L 40.0356243704025,84.7100471043784 L 39.7676157230126,85.0181263356409 L 39.4807914744804,85.3087692407065 L 39.1762835890773,85.5808287848111 L 38.8552938203107,85.8332312732263 L 38.5190889681515,86.0649805886421 M 37.4010163096503,93.1597085599457 L 37.7755514900527,93.3223887568107 L 38.1391328367527,93.5082652000273 L 38.4903254602795,93.7166043201931 L 38.8277433637925,93.9465838979819 L 39.1500549129782,94.1972963090679 L 39.4559880914021,94.4677521061041 L 39.7443355205766,94.7568839236191 L 40.0139592249322,95.0635506904208 L 40.2637951228869,95.3865421328836 L 40.4928572262909,95.7245835513447 L 40.7002415316705,96.0763408507619 L 40.8851295879172,96.440425805777 L 41.0467917263404,96.8154015394072 L 41.1845899403361,97.199788193742 L 41.2979804033076,97.5920687702661 L 41.3865156149008,97.9906951167602 L 41.4498461670835,98.3940940371495 L 41.4877221230992,98.8006735001908 L 41.4999940038532,99.208828922492 L 41.4866133778388,99.6169495010696 L 41.4476330522739,100.023424570453 L 41.383206864695,100.426649959243 L 41.293589075831,100.825034321047 L 41.179133366152,101.217005414794 L 41.0402914400543,101.60101630965 L 40.8776112431894,101.975551490053 L 40.6917347999728,102.339132836753 L 40.4833956798069,102.690325460279 L 40.2534161020181,103.027743363792 L 40.0027036909321,103.350054912978 L 39.732247893896,103.655988091402 L 39.443116076381,103.944335520577 L 39.1364493095792,104.213959224932 L 38.8134578671164,104.463795122887 L 38.4754164486553,104.692857226291 L 38.1236591492382,104.90024153167 L 37.759574194223,105.085129587917 L 37.3845984605928,105.24679172634 L 37.0002118062581,105.384589940336 L 36.6079312297339,105.497980403308 L 36.2093048832399,105.586515614901 L 35.8059059628505,105.649846167083 L 35.3993264998092,105.687722123099 L 34.9911710775081,105.699994003853 L 34.5830504989305,105.686613377839 L 34.1765754295475,105.647633052274 L 33.7733500407572,105.583206864695 L 33.3749656789529,105.493589075831 L 32.9829945852063,105.379133366152 L 32.5989836903497,105.240291440054 L 32.2244485099474,105.077611243189 L 31.8608671632473,104.891734799973 L 31.5096745397206,104.683395679807 L 31.1722566362076,104.453416102018 L 30.8499450870219,104.202703690932 L 30.5440119085979,103.932247893896 L 30.2556644794234,103.643116076381 L 29.9860407750679,103.336449309579 L 29.7362048771131,103.013457867116 L 29.5071427737091,102.675416448655 L 29.2997584683295,102.323659149238 L 29.1148704120828,101.959574194223 L 28.9532082736596,101.584598460593 L 28.815410059664,101.200211806258 L 28.7020195966924,100.807931229734 L 28.6134843850992,100.40930488324 L 28.5501538329165,100.00590596285 L 28.5122778769009,99.5993264998092 L 28.5000059961468,99.1911710775081 L 28.5133866221612,98.7830504989305 L 28.5523669477261,98.3765754295475 L 28.616793135305,97.9733500407572 L 28.706410924169,97.5749656789529 L 28.820866633848,97.1829945852063 L 28.9597085599457,96.7989836903498 L 29.1223887568106,96.4244485099474 L 29.3082652000272,96.0608671632473 L 29.5166043201931,95.7096745397207 L 29.7465838979819,95.3722566362076 L 29.9972963090679,95.0499450870219 L 30.267752106104,94.7440119085979 L 30.556883923619,94.4556644794235 L 30.8635506904208,94.1860407750679 L 31.1865421328836,93.9362048771131 L 31.5245835513447,93.7071427737091 L 31.8763408507619,93.4997584683295 L 32.240425805777,93.3148704120829 L 32.6154015394072,93.1532082736596 L 32.9997881937419,93.015410059664 L 33.3920687702661,92.9020195966924 L 33.7906951167602,92.8134843850991 L 34.1940940371495,92.7501538329165 L 34.6006735001908,92.7122778769009 L 35.0088289224919,92.7000059961468 L 35.4169495010695,92.7133866221612 L 35.8234245704525,92.7523669477261 L 36.2266499592428,92.816793135305 L 36.6250343210471,92.906410924169 L 37.0170054147937,93.020866633848 L 37.4010163096503,93.1597085599457 M 16.2005331737029,17.5873835221031 L 16.1004648312469,17.5968427654852 L 16.0,17.6 L 15.8995351687531,17.5968427654852 L 15.7994668262971,17.5873835221032 L 15.7001898966628,17.5716596011659 L 15.6020961805362,17.5497330578058 L 15.5055728090001,17.5216904260722 L 15.4110007157045,17.4876423774212 L 15.3187531334959,17.4477232839456 L 15.2291941214372,17.4020906880702 L 15.1426771280336,17.3509246808032 L 15.0595435963321,17.2944271909999 L 14.9801216164021,17.2328211884412 L 14.9047246305141,17.1663498038742 L 14.8336501961257,17.0952753694859 L 14.7671788115587,17.0198783835979 L 14.7055728090001,16.940456403668 L 14.6490753191968,16.8573228719664 L 14.5979093119298,16.7708058785628 L 14.5522767160544,16.6812468665041 L 14.5123576225788,16.5889992842955 L 14.4783095739277,16.4944271909999 L 14.4502669421942,16.3979038194638 L 14.4283403988341,16.2998101033371 L 14.4126164778968,16.2005331737029 L 14.4031572345148,16.1004648312469 L 14.4,16.0 L 14.4031572345148,15.8995351687531 L 14.4126164778968,15.7994668262971 L 14.4283403988341,15.7001898966629 L 14.4502669421942,15.6020961805362 L 14.4783095739277,15.5055728090001 L 14.5123576225788,15.4110007157045 L 14.5522767160544,15.3187531334959 L 14.5979093119298,15.2291941214373 L 14.6490753191968,15.1426771280336 L 14.7055728090001,15.059543596332 L 14.7671788115587,14.9801216164021 L 14.8336501961257,14.9047246305141 L 14.9047246305141,14.8336501961257 L 14.9801216164021,14.7671788115588 L 15.059543596332,14.705572809 L 15.1426771280336,14.6490753191968 L 15.2291941214373,14.5979093119298 L 15.3187531334959,14.5522767160544 L 15.4110007157045,14.5123576225788 L 15.5055728090001,14.4783095739277 L 15.6020961805362,14.4502669421942 L 15.7001898966628,14.4283403988341 L 15.7994668262971,14.4126164778968 L 15.8995351687531,14.4031572345147 L 16.0,14.4 L 16.1004648312469,14.4031572345148 L 16.2005331737029,14.4126164778968 L 16.2998101033371,14.4283403988341 L 16.3979038194638,14.4502669421942 L 16.4944271909999,14.4783095739278 L 16.5889992842955,14.5123576225788 L 16.6812468665041,14.5522767160544 L 16.7708058785628,14.5979093119298 L 16.8573228719664,14.6490753191968 L 16.940456403668,14.7055728090001 L 17.0198783835979,14.7671788115587 L 17.0952753694859,14.8336501961257 L 17.1663498038743,14.9047246305141 L 17.2328211884413,14.9801216164021 L 17.2944271909999,15.059543596332 L 17.3509246808032,15.1426771280336 L 17.4020906880702,15.2291941214373 L 17.4477232839456,15.3187531334958 L 17.4876423774212,15.4110007157045 L 17.5216904260722,15.5055728090001 L 17.5497330578058,15.6020961805362 L 17.5716596011659,15.7001898966628 L 17.5873835221032,15.7994668262971 L 17.5968427654853,15.8995351687531 L 17.6,16.0 L 17.5968427654852,16.1004648312469 L 17.5873835221032,16.2005331737029 L 17.5716596011659,16.2998101033372 L 17.5497330578058,16.3979038194638 L 17.5216904260723,16.4944271909999 L 17.4876423774212,16.5889992842955 L 17.4477232839456,16.6812468665041 L 17.4020906880702,16.7708058785627 L 17.3509246808032,16.8573228719664 L 17.2944271909999,16.940456403668 L 17.2328211884413,17.0198783835979 L 17.1663498038743,17.0952753694859 L 17.0952753694859,17.1663498038742 L 17.0198783835979,17.2328211884413 L 16.9404564036679,17.2944271909999 L 16.8573228719664,17.3509246808032 L 16.7708058785627,17.4020906880702 L 16.6812468665041,17.4477232839456 L 16.5889992842955,17.4876423774212 L 16.4944271909999,17.5216904260722 L 16.3979038194638,17.5497330578058 L 16.2998101033372,17.5716596011659 L 16.2005331737029,17.5873835221031 M 17.6,108.0 L 17.5968427654852,108.100464831247 L 17.5873835221032,108.200533173702 L 17.5716596011659,108.299810103337 L 17.5497330578058,108.397903819463 L 17.5216904260722,108.494427191 L 17.4876423774212,108.588999284295 L 17.4477232839456,108.681246866504 L 17.4020906880702,108.770805878562 L 17.3509246808032,108.857322871967 L 17.2944271909999,108.940456403668 L 17.2328211884413,109.019878383599 L 17.1663498038743,109.095275369487 L 17.0952753694859,109.166349803874 L 17.0198783835979,109.232821188442 L 16.940456403668,109.294427191001 L 16.8573228719664,109.350924680803 L 16.7708058785628,109.402090688072 L 16.6812468665041,109.447723283946 L 16.5889992842955,109.487642377421 L 16.4944271909999,109.521690426071 L 16.3979038194638,109.549733057806 L 16.2998101033372,109.571659601166 L 16.2005331737029,109.587383522104 L 16.1004648312469,109.596842765487 L 16.0,109.600000000001 L 15.8995351687531,109.596842765488 L 15.7994668262971,109.587383522103 L 15.7001898966628,109.571659601166 L 15.6020961805362,109.549733057804 L 15.5055728090001,109.521690426071 L 15.4110007157045,109.487642377421 L 15.3187531334959,109.447723283946 L 15.2291941214373,109.402090688071 L 15.1426771280336,109.350924680804 L 15.059543596332,109.294427191 L 14.9801216164021,109.232821188441 L 14.9047246305141,109.166349803874 L 14.8336501961257,109.095275369486 L 14.7671788115587,109.019878383598 L 14.7055728090001,108.940456403668 L 14.6490753191968,108.857322871966 L 14.5979093119298,108.770805878563 L 14.5522767160544,108.681246866504 L 14.5123576225788,108.588999284295 L 14.4783095739278,108.494427190999 L 14.4502669421942,108.397903819463 L 14.4283403988341,108.299810103338 L 14.4126164778968,108.200533173703 L 14.4031572345148,108.100464831247 L 14.4,108.0 L 14.4031572345148,107.899535168753 L 14.4126164778968,107.799466826298 L 14.4283403988341,107.700189896663 L 14.4502669421942,107.602096180536 L 14.4783095739278,107.505572809 L 14.5123576225788,107.411000715705 L 14.5522767160544,107.318753133496 L 14.5979093119298,107.229194121437 L 14.6490753191968,107.142677128034 L 14.7055728090001,107.059543596332 L 14.7671788115587,106.980121616402 L 14.8336501961257,106.904724630514 L 14.9047246305141,106.833650196126 L 14.9801216164021,106.767178811559 L 15.059543596332,106.705572809 L 15.1426771280336,106.649075319197 L 15.2291941214373,106.59790931193 L 15.3187531334959,106.552276716054 L 15.4110007157045,106.512357622579 L 15.5055728090001,106.478309573928 L 15.6020961805362,106.450266942194 L 15.7001898966628,106.428340398834 L 15.7994668262971,106.412616477897 L 15.8995351687531,106.403157234515 L 16.0,106.4 L 16.1004648312469,106.403157234515 L 16.2005331737029,106.412616477897 L 16.2998101033372,106.428340398834 L 16.3979038194638,106.450266942194 L 16.4944271909999,106.478309573928 L 16.5889992842955,106.512357622579 L 16.6812468665041,106.552276716054 L 16.7708058785628,106.59790931193 L 16.8573228719664,106.649075319197 L 16.940456403668,106.705572809 L 17.0198783835979,106.767178811558 L 17.0952753694859,106.833650196126 L 17.1663498038743,106.904724630514 L 17.2328211884413,106.980121616402 L 17.2944271909999,107.059543596332 L 17.3509246808032,107.142677128034 L 17.4020906880702,107.229194121437 L 17.4477232839456,107.318753133496 L 17.4876423774212,107.411000715705 L 17.5216904260722,107.505572809 L 17.5497330578058,107.602096180536 L 17.5716596011659,107.700189896663 L 17.5873835221032,107.799466826298 L 17.5968427654852,107.899535168753 L 17.6,108.0 M 89.0952753694859,106.833650196126 L 89.1663498038743,106.904724630514 L 89.2328211884413,106.980121616402 L 89.2944271909999,107.059543596332 L 89.3509246808032,107.142677128034 L 89.4020906880702,107.229194121437 L 89.4477232839457,107.318753133496 L 89.4876423774212,107.411000715705 L 89.5216904260723,107.505572809 L 89.5497330578059,107.602096180536 L 89.5716596011659,107.700189896663 L 89.5873835221032,107.799466826297 L 89.5968427654853,107.899535168753 L 89.6,108.0 L 89.5968427654853,108.100464831247 L 89.5873835221032,108.200533173703 L 89.5716596011659,108.299810103337 L 89.5497330578059,108.397903819464 L 89.5216904260723,108.494427191 L 89.4876423774212,108.588999284296 L 89.4477232839457,108.681246866504 L 89.4020906880702,108.770805878563 L 89.3509246808032,108.857322871966 L 89.2944271909999,108.940456403668 L 89.2328211884413,109.019878383598 L 89.1663498038743,109.095275369486 L 89.0952753694859,109.166349803874 L 89.0198783835979,109.232821188441 L 88.940456403668,109.294427191 L 88.8573228719664,109.350924680803 L 88.7708058785628,109.40209068807 L 88.6812468665041,109.447723283946 L 88.5889992842955,109.487642377421 L 88.4944271909999,109.521690426072 L 88.3979038194638,109.549733057806 L 88.2998101033372,109.571659601166 L 88.2005331737029,109.587383522103 L 88.1004648312469,109.596842765485 L 88.0,109.6 L 87.8995351687531,109.596842765485 L 87.7994668262971,109.587383522103 L 87.7001898966629,109.571659601166 L 87.6020961805363,109.549733057806 L 87.5055728090001,109.521690426072 L 87.4110007157045,109.487642377421 L 87.3187531334959,109.447723283946 L 87.2291941214373,109.40209068807 L 87.1426771280336,109.350924680803 L 87.0595435963321,109.294427191 L 86.9801216164021,109.232821188441 L 86.9047246305141,109.166349803874 L 86.8336501961258,109.095275369486 L 86.7671788115588,109.019878383598 L 86.7055728090001,108.940456403668 L 86.6490753191968,108.857322871966 L 86.5979093119298,108.770805878563 L 86.5522767160544,108.681246866504 L 86.5123576225788,108.588999284296 L 86.4783095739278,108.494427191 L 86.4502669421942,108.397903819464 L 86.4283403988341,108.299810103337 L 86.4126164778969,108.200533173703 L 86.4031572345148,108.100464831247 L 86.4,108.0 L 86.4031572345148,107.899535168753 L 86.4126164778969,107.799466826297 L 86.4283403988341,107.700189896663 L 86.4502669421942,107.602096180536 L 86.4783095739278,107.505572809 L 86.5123576225788,107.411000715705 L 86.5522767160544,107.318753133496 L 86.5979093119298,107.229194121437 L 86.6490753191968,107.142677128034 L 86.7055728090001,107.059543596332 L 86.7671788115588,106.980121616402 L 86.8336501961258,106.904724630514 L 86.9047246305141,106.833650196126 L 86.9801216164021,106.767178811559 L 87.0595435963321,106.705572809 L 87.1426771280336,106.649075319197 L 87.2291941214373,106.59790931193 L 87.3187531334959,106.552276716054 L 87.4110007157045,106.512357622579 L 87.5055728090001,106.478309573928 L 87.6020961805363,106.450266942194 L 87.7001898966629,106.428340398834 L 87.7994668262971,106.412616477897 L 87.8995351687531,106.403157234515 L 88.0,106.4 L 88.1004648312469,106.403157234515 L 88.2005331737029,106.412616477897 L 88.2998101033372,106.428340398834 L 88.3979038194638,106.450266942194 L 88.4944271909999,106.478309573928 L 88.5889992842955,106.512357622579 L 88.6812468665041,106.552276716054 L 88.7708058785628,106.59790931193 L 88.8573228719664,106.649075319197 L 88.940456403668,106.705572809 L 89.0198783835979,106.767178811559 L 89.0952753694859,106.833650196126 M 88.1004648312469,17.5968427654852 L 88.0,17.6 L 87.8995351687531,17.5968427654852 L 87.7994668262971,17.5873835221032 L 87.7001898966629,17.5716596011659 L 87.6020961805363,17.5497330578058 L 87.5055728090001,17.5216904260722 L 87.4110007157046,17.4876423774212 L 87.3187531334959,17.4477232839456 L 87.2291941214373,17.4020906880702 L 87.1426771280336,17.3509246808032 L 87.0595435963321,17.2944271909999 L 86.9801216164021,17.2328211884413 L 86.9047246305141,17.1663498038742 L 86.8336501961258,17.0952753694859 L 86.7671788115588,17.0198783835979 L 86.7055728090001,16.940456403668 L 86.6490753191968,16.8573228719664 L 86.5979093119298,16.7708058785627 L 86.5522767160544,16.6812468665041 L 86.5123576225788,16.5889992842955 L 86.4783095739278,16.4944271909999 L 86.4502669421942,16.3979038194638 L 86.4283403988341,16.2998101033371 L 86.4126164778969,16.2005331737029 L 86.4031572345148,16.1004648312469 L 86.4,16.0 L 86.4031572345148,15.8995351687531 L 86.4126164778969,15.7994668262971 L 86.4283403988341,15.7001898966628 L 86.4502669421942,15.6020961805362 L 86.4783095739278,15.5055728090001 L 86.5123576225788,15.4110007157045 L 86.5522767160544,15.3187531334959 L 86.5979093119299,15.2291941214373 L 86.6490753191968,15.1426771280336 L 86.7055728090001,15.059543596332 L 86.7671788115588,14.9801216164021 L 86.8336501961258,14.9047246305141 L 86.9047246305141,14.8336501961257 L 86.9801216164021,14.7671788115587 L 87.0595435963321,14.7055728090001 L 87.1426771280336,14.6490753191968 L 87.2291941214373,14.5979093119298 L 87.3187531334959,14.5522767160544 L 87.4110007157045,14.5123576225788 L 87.5055728090001,14.4783095739277 L 87.6020961805363,14.4502669421942 L 87.7001898966629,14.4283403988341 L 87.7994668262972,14.4126164778968 L 87.8995351687531,14.4031572345148 L 88.0000000000001,14.4 L 88.1004648312469,14.4031572345148 L 88.2005331737029,14.4126164778968 L 88.2998101033372,14.4283403988341 L 88.3979038194638,14.4502669421942 L 88.4944271909999,14.4783095739277 L 88.5889992842955,14.5123576225788 L 88.6812468665041,14.5522767160544 L 88.7708058785628,14.5979093119298 L 88.8573228719664,14.6490753191968 L 88.940456403668,14.7055728090001 L 89.0198783835979,14.7671788115587 L 89.0952753694859,14.8336501961257 L 89.1663498038743,14.9047246305141 L 89.2328211884413,14.9801216164021 L 89.2944271909999,15.059543596332 L 89.3509246808033,15.1426771280336 L 89.4020906880702,15.2291941214373 L 89.4477232839456,15.3187531334959 L 89.4876423774212,15.4110007157045 L 89.5216904260723,15.5055728090001 L 89.5497330578058,15.6020961805362 L 89.5716596011659,15.7001898966628 L 89.5873835221032,15.7994668262971 L 89.5968427654853,15.8995351687531 L 89.6,16.0 L 89.5968427654852,16.1004648312469 L 89.5873835221032,16.2005331737029 L 89.5716596011659,16.2998101033371 L 89.5497330578058,16.3979038194638 L 89.5216904260723,16.4944271909999 L 89.4876423774212,16.5889992842955 L 89.4477232839456,16.6812468665041 L 89.4020906880702,16.7708058785627 L 89.3509246808032,16.8573228719664 L 89.2944271909999,16.940456403668 L 89.2328211884413,17.0198783835979 L 89.1663498038743,17.0952753694859 L 89.0952753694859,17.1663498038743 L 89.0198783835979,17.2328211884412 L 88.940456403668,17.2944271909999 L 88.8573228719664,17.3509246808032 L 88.7708058785628,17.4020906880702 L 88.6812468665041,17.4477232839456 L 88.5889992842955,17.4876423774212 L 88.4944271909999,17.5216904260722 L 88.3979038194638,17.5497330578058 L 88.2998101033372,17.5716596011659 L 88.2005331737029,17.5873835221031 L 88.1004648312469,17.5968427654852 "
  />
</svg>
