G75*
G70*
%OFA0B0*%
%FSLAX24Y24*%
%IPPOS*%
%LPD*%
%AMOC8*
5,1,8,0,0,1.08239X$1,22.5*
%
%ADD10C,0.0000*%
%ADD11R,0.0600X0.0600*%
%ADD12OC8,0.0600*%
%ADD13OC8,0.0520*%
%ADD14C,0.0520*%
%ADD15C,0.0600*%
%ADD16C,0.0560*%
%ADD17C,0.1300*%
%ADD18OC8,0.0630*%
%ADD19C,0.0700*%
%ADD20C,0.0669*%
%ADD21R,0.1000X0.1000*%
%ADD22C,0.1000*%
%ADD23R,0.0515X0.0515*%
%ADD24C,0.0705*%
%ADD25C,0.0700*%
%ADD26R,0.0700X0.0700*%
%ADD27C,0.0515*%
%ADD28R,0.0650X0.0650*%
%ADD29C,0.0650*%
%ADD30C,0.0450*%
%ADD31C,0.0500*%
%ADD32C,0.0100*%
%ADD33C,0.0320*%
%ADD34C,0.0160*%
%ADD35C,0.0240*%
D10*
X000353Y000353D02*
X000353Y031853D01*
X031753Y031853D01*
X031753Y000353D01*
X000353Y000353D01*
X001302Y001853D02*
X001304Y001900D01*
X001310Y001946D01*
X001320Y001992D01*
X001333Y002037D01*
X001351Y002080D01*
X001372Y002122D01*
X001396Y002162D01*
X001424Y002199D01*
X001455Y002234D01*
X001489Y002267D01*
X001525Y002296D01*
X001564Y002322D01*
X001605Y002345D01*
X001648Y002364D01*
X001692Y002380D01*
X001737Y002392D01*
X001783Y002400D01*
X001830Y002404D01*
X001876Y002404D01*
X001923Y002400D01*
X001969Y002392D01*
X002014Y002380D01*
X002058Y002364D01*
X002101Y002345D01*
X002142Y002322D01*
X002181Y002296D01*
X002217Y002267D01*
X002251Y002234D01*
X002282Y002199D01*
X002310Y002162D01*
X002334Y002122D01*
X002355Y002080D01*
X002373Y002037D01*
X002386Y001992D01*
X002396Y001946D01*
X002402Y001900D01*
X002404Y001853D01*
X002402Y001806D01*
X002396Y001760D01*
X002386Y001714D01*
X002373Y001669D01*
X002355Y001626D01*
X002334Y001584D01*
X002310Y001544D01*
X002282Y001507D01*
X002251Y001472D01*
X002217Y001439D01*
X002181Y001410D01*
X002142Y001384D01*
X002101Y001361D01*
X002058Y001342D01*
X002014Y001326D01*
X001969Y001314D01*
X001923Y001306D01*
X001876Y001302D01*
X001830Y001302D01*
X001783Y001306D01*
X001737Y001314D01*
X001692Y001326D01*
X001648Y001342D01*
X001605Y001361D01*
X001564Y001384D01*
X001525Y001410D01*
X001489Y001439D01*
X001455Y001472D01*
X001424Y001507D01*
X001396Y001544D01*
X001372Y001584D01*
X001351Y001626D01*
X001333Y001669D01*
X001320Y001714D01*
X001310Y001760D01*
X001304Y001806D01*
X001302Y001853D01*
X001302Y030353D02*
X001304Y030400D01*
X001310Y030446D01*
X001320Y030492D01*
X001333Y030537D01*
X001351Y030580D01*
X001372Y030622D01*
X001396Y030662D01*
X001424Y030699D01*
X001455Y030734D01*
X001489Y030767D01*
X001525Y030796D01*
X001564Y030822D01*
X001605Y030845D01*
X001648Y030864D01*
X001692Y030880D01*
X001737Y030892D01*
X001783Y030900D01*
X001830Y030904D01*
X001876Y030904D01*
X001923Y030900D01*
X001969Y030892D01*
X002014Y030880D01*
X002058Y030864D01*
X002101Y030845D01*
X002142Y030822D01*
X002181Y030796D01*
X002217Y030767D01*
X002251Y030734D01*
X002282Y030699D01*
X002310Y030662D01*
X002334Y030622D01*
X002355Y030580D01*
X002373Y030537D01*
X002386Y030492D01*
X002396Y030446D01*
X002402Y030400D01*
X002404Y030353D01*
X002402Y030306D01*
X002396Y030260D01*
X002386Y030214D01*
X002373Y030169D01*
X002355Y030126D01*
X002334Y030084D01*
X002310Y030044D01*
X002282Y030007D01*
X002251Y029972D01*
X002217Y029939D01*
X002181Y029910D01*
X002142Y029884D01*
X002101Y029861D01*
X002058Y029842D01*
X002014Y029826D01*
X001969Y029814D01*
X001923Y029806D01*
X001876Y029802D01*
X001830Y029802D01*
X001783Y029806D01*
X001737Y029814D01*
X001692Y029826D01*
X001648Y029842D01*
X001605Y029861D01*
X001564Y029884D01*
X001525Y029910D01*
X001489Y029939D01*
X001455Y029972D01*
X001424Y030007D01*
X001396Y030044D01*
X001372Y030084D01*
X001351Y030126D01*
X001333Y030169D01*
X001320Y030214D01*
X001310Y030260D01*
X001304Y030306D01*
X001302Y030353D01*
X029702Y030353D02*
X029704Y030400D01*
X029710Y030446D01*
X029720Y030492D01*
X029733Y030537D01*
X029751Y030580D01*
X029772Y030622D01*
X029796Y030662D01*
X029824Y030699D01*
X029855Y030734D01*
X029889Y030767D01*
X029925Y030796D01*
X029964Y030822D01*
X030005Y030845D01*
X030048Y030864D01*
X030092Y030880D01*
X030137Y030892D01*
X030183Y030900D01*
X030230Y030904D01*
X030276Y030904D01*
X030323Y030900D01*
X030369Y030892D01*
X030414Y030880D01*
X030458Y030864D01*
X030501Y030845D01*
X030542Y030822D01*
X030581Y030796D01*
X030617Y030767D01*
X030651Y030734D01*
X030682Y030699D01*
X030710Y030662D01*
X030734Y030622D01*
X030755Y030580D01*
X030773Y030537D01*
X030786Y030492D01*
X030796Y030446D01*
X030802Y030400D01*
X030804Y030353D01*
X030802Y030306D01*
X030796Y030260D01*
X030786Y030214D01*
X030773Y030169D01*
X030755Y030126D01*
X030734Y030084D01*
X030710Y030044D01*
X030682Y030007D01*
X030651Y029972D01*
X030617Y029939D01*
X030581Y029910D01*
X030542Y029884D01*
X030501Y029861D01*
X030458Y029842D01*
X030414Y029826D01*
X030369Y029814D01*
X030323Y029806D01*
X030276Y029802D01*
X030230Y029802D01*
X030183Y029806D01*
X030137Y029814D01*
X030092Y029826D01*
X030048Y029842D01*
X030005Y029861D01*
X029964Y029884D01*
X029925Y029910D01*
X029889Y029939D01*
X029855Y029972D01*
X029824Y030007D01*
X029796Y030044D01*
X029772Y030084D01*
X029751Y030126D01*
X029733Y030169D01*
X029720Y030214D01*
X029710Y030260D01*
X029704Y030306D01*
X029702Y030353D01*
X029652Y001853D02*
X029654Y001900D01*
X029660Y001946D01*
X029670Y001992D01*
X029683Y002037D01*
X029701Y002080D01*
X029722Y002122D01*
X029746Y002162D01*
X029774Y002199D01*
X029805Y002234D01*
X029839Y002267D01*
X029875Y002296D01*
X029914Y002322D01*
X029955Y002345D01*
X029998Y002364D01*
X030042Y002380D01*
X030087Y002392D01*
X030133Y002400D01*
X030180Y002404D01*
X030226Y002404D01*
X030273Y002400D01*
X030319Y002392D01*
X030364Y002380D01*
X030408Y002364D01*
X030451Y002345D01*
X030492Y002322D01*
X030531Y002296D01*
X030567Y002267D01*
X030601Y002234D01*
X030632Y002199D01*
X030660Y002162D01*
X030684Y002122D01*
X030705Y002080D01*
X030723Y002037D01*
X030736Y001992D01*
X030746Y001946D01*
X030752Y001900D01*
X030754Y001853D01*
X030752Y001806D01*
X030746Y001760D01*
X030736Y001714D01*
X030723Y001669D01*
X030705Y001626D01*
X030684Y001584D01*
X030660Y001544D01*
X030632Y001507D01*
X030601Y001472D01*
X030567Y001439D01*
X030531Y001410D01*
X030492Y001384D01*
X030451Y001361D01*
X030408Y001342D01*
X030364Y001326D01*
X030319Y001314D01*
X030273Y001306D01*
X030226Y001302D01*
X030180Y001302D01*
X030133Y001306D01*
X030087Y001314D01*
X030042Y001326D01*
X029998Y001342D01*
X029955Y001361D01*
X029914Y001384D01*
X029875Y001410D01*
X029839Y001439D01*
X029805Y001472D01*
X029774Y001507D01*
X029746Y001544D01*
X029722Y001584D01*
X029701Y001626D01*
X029683Y001669D01*
X029670Y001714D01*
X029660Y001760D01*
X029654Y001806D01*
X029652Y001853D01*
D11*
X004803Y029953D03*
D12*
X005803Y029953D03*
X006803Y029953D03*
X007803Y029953D03*
X008803Y029953D03*
X002853Y010353D03*
X002853Y009353D03*
X002853Y008353D03*
X002853Y007353D03*
X002853Y006353D03*
X002853Y005353D03*
X002853Y004353D03*
X001853Y004353D03*
X001853Y005353D03*
X001853Y006353D03*
X001853Y007353D03*
X001853Y008353D03*
X001853Y009353D03*
X001853Y010353D03*
D13*
X004153Y009353D03*
X004153Y008353D03*
X004153Y007353D03*
X004153Y006353D03*
X004153Y005353D03*
X004153Y004353D03*
X004853Y002853D03*
X005853Y001853D03*
X006853Y002353D03*
X007853Y002353D03*
X008853Y001353D03*
X009853Y001353D03*
X010853Y002353D03*
X011853Y002353D03*
X012453Y005303D03*
X014203Y007453D03*
X012453Y009303D03*
X015353Y010353D03*
X016353Y010353D03*
X017353Y010353D03*
X018353Y010353D03*
X019353Y010353D03*
X020353Y013303D03*
X021353Y013303D03*
X022403Y012103D03*
X019353Y014353D03*
X018353Y014353D03*
X017353Y014353D03*
X016353Y014353D03*
X015353Y014353D03*
X014453Y016853D03*
X014453Y020853D03*
X014203Y021653D03*
X012103Y021653D03*
X012103Y025653D03*
X014203Y025653D03*
X016853Y026753D03*
X016853Y027753D03*
X020853Y027753D03*
X020853Y026753D03*
X021553Y026353D03*
X021553Y022353D03*
X022603Y022353D03*
X022603Y018353D03*
X021353Y017303D03*
X020353Y017303D03*
X026703Y010853D03*
X026703Y009853D03*
X028303Y008703D03*
X030703Y009853D03*
X030703Y010853D03*
X028303Y004703D03*
X022403Y008103D03*
X020103Y006703D03*
X019603Y005953D03*
X019103Y006703D03*
X018203Y007453D03*
X009853Y005353D03*
X008853Y005353D03*
X008153Y005353D03*
X008153Y006353D03*
X008153Y007353D03*
X008153Y008353D03*
X008153Y009353D03*
X008153Y004353D03*
X004853Y000853D03*
X003153Y014453D03*
X003153Y018453D03*
X006903Y025103D03*
X005503Y027603D03*
X004503Y028603D03*
X003503Y027603D03*
X006903Y028103D03*
D14*
X007803Y027893D02*
X007803Y028413D01*
X007803Y025413D02*
X007803Y024893D01*
X007593Y023853D02*
X008113Y023853D01*
X008113Y022853D02*
X007593Y022853D01*
X007593Y021853D02*
X008113Y021853D01*
X008113Y020853D02*
X007593Y020853D01*
X007593Y019853D02*
X008113Y019853D01*
X008113Y018853D02*
X007593Y018853D01*
X007593Y017853D02*
X008113Y017853D01*
X008113Y016853D02*
X007593Y016853D01*
X007593Y015853D02*
X008113Y015853D01*
X008113Y014853D02*
X007593Y014853D01*
X007593Y013853D02*
X008113Y013853D01*
X008113Y012853D02*
X007593Y012853D01*
X007593Y011853D02*
X008113Y011853D01*
X008113Y010853D02*
X007593Y010853D01*
X010593Y010853D02*
X011113Y010853D01*
X011113Y011853D02*
X010593Y011853D01*
X010593Y012853D02*
X011113Y012853D01*
X011113Y013853D02*
X010593Y013853D01*
X010593Y014853D02*
X011113Y014853D01*
X011113Y015853D02*
X010593Y015853D01*
X010593Y016853D02*
X011113Y016853D01*
X011113Y017853D02*
X010593Y017853D01*
X010593Y018853D02*
X011113Y018853D01*
X011113Y019853D02*
X010593Y019853D01*
X010593Y020853D02*
X011113Y020853D01*
X011113Y021853D02*
X010593Y021853D01*
X010593Y022853D02*
X011113Y022853D01*
X011113Y023853D02*
X010593Y023853D01*
X015743Y024353D02*
X016263Y024353D01*
X017093Y024353D02*
X017613Y024353D01*
X017613Y023353D02*
X017093Y023353D01*
X016263Y023353D02*
X015743Y023353D01*
X017093Y022353D02*
X017613Y022353D01*
X017613Y021353D02*
X017093Y021353D01*
X017093Y020353D02*
X017613Y020353D01*
X017613Y019353D02*
X017093Y019353D01*
X017093Y018353D02*
X017613Y018353D01*
X020093Y018353D02*
X020613Y018353D01*
X020613Y019353D02*
X020093Y019353D01*
X020093Y020353D02*
X020613Y020353D01*
X020613Y021353D02*
X020093Y021353D01*
X020093Y022353D02*
X020613Y022353D01*
X020613Y023353D02*
X020093Y023353D01*
X020093Y024353D02*
X020613Y024353D01*
X016263Y025353D02*
X015743Y025353D01*
X026143Y012303D02*
X026663Y012303D01*
X030143Y012303D02*
X030663Y012303D01*
X026273Y007153D02*
X025753Y007153D01*
X025753Y006153D02*
X026273Y006153D01*
X026273Y005153D02*
X025753Y005153D01*
X022753Y005153D02*
X022233Y005153D01*
X022233Y006153D02*
X022753Y006153D01*
X022753Y007153D02*
X022233Y007153D01*
X020103Y008293D02*
X020103Y008813D01*
X019103Y008813D02*
X019103Y008293D01*
X018103Y008293D02*
X018103Y008813D01*
X020293Y010103D02*
X020813Y010103D01*
X020813Y011103D02*
X020293Y011103D01*
X020293Y012103D02*
X020813Y012103D01*
X003463Y012253D02*
X002943Y012253D01*
X002943Y013253D02*
X003463Y013253D01*
X002113Y012853D02*
X001593Y012853D01*
X001593Y013853D02*
X002113Y013853D01*
X002113Y014853D02*
X001593Y014853D01*
X001593Y015853D02*
X002113Y015853D01*
X002113Y016853D02*
X001593Y016853D01*
X001593Y017853D02*
X002113Y017853D01*
X002113Y018853D02*
X001593Y018853D01*
X001593Y019853D02*
X002113Y019853D01*
X002113Y020853D02*
X001593Y020853D01*
X001593Y021853D02*
X002113Y021853D01*
X002113Y022853D02*
X001593Y022853D01*
X001593Y023853D02*
X002113Y023853D01*
X002113Y024853D02*
X001593Y024853D01*
X001593Y025853D02*
X002113Y025853D01*
X002113Y026853D02*
X001593Y026853D01*
X001593Y027853D02*
X002113Y027853D01*
X002943Y011253D02*
X003463Y011253D01*
D15*
X010003Y009353D02*
X010603Y009353D01*
X010603Y008353D02*
X010003Y008353D01*
X010003Y007353D02*
X010603Y007353D01*
X010603Y006353D02*
X010003Y006353D01*
X006783Y021863D02*
X006183Y021863D01*
X006183Y023643D02*
X006783Y023643D01*
X004223Y023643D02*
X003623Y023643D01*
X003623Y021863D02*
X004223Y021863D01*
X029953Y007103D02*
X030553Y007103D01*
X030553Y006103D02*
X029953Y006103D01*
X029953Y005103D02*
X030553Y005103D01*
D16*
X013095Y027123D03*
X013095Y027903D03*
X012111Y027903D03*
X012111Y027123D03*
D17*
X010233Y028973D03*
X014973Y028973D03*
D18*
X016003Y027753D03*
X016003Y026753D03*
X019353Y025603D03*
X020353Y025603D03*
X022603Y024403D03*
X022603Y023403D03*
X021503Y021353D03*
X021503Y020353D03*
X021503Y019353D03*
X021503Y018353D03*
X019353Y016353D03*
X019353Y015353D03*
X017453Y015353D03*
X017453Y016353D03*
X016253Y016353D03*
X016253Y015353D03*
X012003Y015853D03*
X012003Y014853D03*
X006753Y011753D03*
X006753Y010653D03*
X005753Y010653D03*
X005753Y011753D03*
X004353Y013853D03*
X004353Y014853D03*
X004353Y015853D03*
X004353Y016853D03*
X004603Y025003D03*
X005603Y025003D03*
X024603Y018303D03*
X025603Y018303D03*
X026503Y013753D03*
X027503Y013753D03*
X029653Y008803D03*
X030653Y008803D03*
X025903Y024353D03*
X025903Y025353D03*
D19*
X025353Y016953D03*
X006103Y016303D03*
X006103Y014403D03*
D20*
X024303Y026953D03*
X024303Y027853D03*
X027303Y027853D03*
X028103Y027853D03*
X028103Y026953D03*
X027303Y026953D03*
X031103Y026953D03*
X031103Y027853D03*
X025903Y022603D03*
X024853Y022553D03*
X024853Y019553D03*
X025903Y019603D03*
D21*
X027603Y024353D03*
D22*
X029603Y024353D03*
D23*
X022753Y031103D03*
X021753Y031103D03*
X018353Y029353D03*
X017353Y025553D03*
X029103Y017003D03*
X029103Y015003D03*
X014353Y002353D03*
X013353Y002353D03*
D24*
X016369Y002000D02*
X016369Y002705D01*
X018337Y002705D02*
X018337Y002000D01*
X020869Y002000D02*
X020869Y002705D01*
X022837Y002705D02*
X022837Y002000D01*
X025869Y002000D02*
X025869Y002705D01*
X027837Y002705D02*
X027837Y002000D01*
X027837Y030000D02*
X027837Y030705D01*
X025869Y030705D02*
X025869Y030000D01*
D25*
X026853Y021603D02*
X027553Y021603D01*
X027553Y020603D02*
X026853Y020603D01*
X026853Y019603D02*
X027553Y019603D01*
X027553Y018603D02*
X026853Y018603D01*
X029853Y018603D02*
X030553Y018603D01*
X030553Y019603D02*
X029853Y019603D01*
X029853Y020603D02*
X030553Y020603D01*
X030553Y021603D02*
X029853Y021603D01*
D26*
X025353Y015953D03*
D27*
X017353Y029353D03*
X016353Y029353D03*
D28*
X015753Y021953D03*
X024553Y013203D03*
D29*
X024553Y014203D03*
X015753Y020953D03*
D30*
X022353Y019853D03*
X022853Y020353D03*
X022853Y019353D03*
X026253Y017003D03*
X024553Y015103D03*
X025403Y014503D03*
X027503Y014603D03*
X028253Y013803D03*
X027503Y012953D03*
X026603Y022603D03*
X025853Y023353D03*
X025903Y026103D03*
X026603Y027853D03*
X027553Y028503D03*
X028353Y028503D03*
X029103Y027853D03*
X029603Y025353D03*
X030603Y024353D03*
X029603Y023353D03*
X028603Y024353D03*
X008653Y020353D03*
X004503Y021103D03*
X003903Y019803D03*
X004003Y024603D03*
X006353Y030853D03*
X005753Y009353D03*
D31*
X005459Y009327D02*
X006173Y009327D01*
X006173Y009408D02*
X006173Y009197D01*
X006173Y002608D01*
X006173Y002480D01*
X006130Y002523D01*
X005575Y002523D01*
X005183Y002130D01*
X005183Y001575D01*
X005575Y001183D01*
X006130Y001183D01*
X006523Y001575D01*
X006523Y001735D01*
X006575Y001683D01*
X007130Y001683D01*
X007353Y001905D01*
X007575Y001683D01*
X008130Y001683D01*
X008523Y002075D01*
X008523Y002630D01*
X008130Y003023D01*
X007575Y003023D01*
X007353Y002800D01*
X007233Y002920D01*
X007233Y009083D01*
X007483Y009333D01*
X007483Y009075D01*
X007705Y008853D01*
X007483Y008630D01*
X007483Y008075D01*
X007705Y007853D01*
X007483Y007630D01*
X007483Y007075D01*
X007705Y006853D01*
X007483Y006630D01*
X007483Y006075D01*
X007705Y005853D01*
X007483Y005630D01*
X007483Y005075D01*
X007705Y004853D01*
X007483Y004630D01*
X007483Y004075D01*
X007875Y003683D01*
X008430Y003683D01*
X008823Y004075D01*
X008823Y004630D01*
X008770Y004683D01*
X009130Y004683D01*
X009353Y004905D01*
X009575Y004683D01*
X010130Y004683D01*
X010523Y005075D01*
X010523Y005630D01*
X010510Y005643D01*
X010744Y005643D01*
X011005Y005751D01*
X011205Y005951D01*
X011313Y006211D01*
X011313Y006494D01*
X011205Y006755D01*
X011064Y006895D01*
X011092Y006923D01*
X011144Y006991D01*
X011187Y007065D01*
X011220Y007143D01*
X011242Y007226D01*
X011253Y007310D01*
X011253Y007353D01*
X011253Y007395D01*
X011242Y007480D01*
X011220Y007562D01*
X011187Y007641D01*
X011144Y007715D01*
X011092Y007782D01*
X011064Y007810D01*
X011205Y007951D01*
X011313Y008211D01*
X011313Y008494D01*
X011205Y008755D01*
X011107Y008853D01*
X011205Y008951D01*
X011313Y009211D01*
X011313Y009494D01*
X011205Y009755D01*
X011005Y009955D01*
X010744Y010063D01*
X009861Y010063D01*
X009601Y009955D01*
X009401Y009755D01*
X009293Y009494D01*
X009293Y009211D01*
X009401Y008951D01*
X009499Y008853D01*
X009401Y008755D01*
X009293Y008494D01*
X009293Y008211D01*
X009401Y007951D01*
X009541Y007810D01*
X009513Y007782D01*
X009461Y007715D01*
X009419Y007641D01*
X009386Y007562D01*
X009364Y007480D01*
X009353Y007395D01*
X009353Y007353D01*
X010302Y007353D01*
X010302Y007353D01*
X009353Y007353D01*
X009353Y007310D01*
X009364Y007226D01*
X009386Y007143D01*
X009419Y007065D01*
X009461Y006991D01*
X009513Y006923D01*
X009541Y006895D01*
X009401Y006755D01*
X009293Y006494D01*
X009293Y006211D01*
X009401Y005951D01*
X009452Y005899D01*
X009353Y005800D01*
X009130Y006023D01*
X008770Y006023D01*
X008823Y006075D01*
X008823Y006630D01*
X008600Y006853D01*
X008823Y007075D01*
X008823Y007630D01*
X008600Y007853D01*
X008823Y008075D01*
X008823Y008630D01*
X008600Y008853D01*
X008823Y009075D01*
X008823Y009630D01*
X008751Y009702D01*
X008802Y009753D01*
X009402Y010353D01*
X009483Y010547D01*
X009483Y010758D01*
X009483Y011508D01*
X009402Y011703D01*
X009253Y011852D01*
X008803Y012302D01*
X008608Y012383D01*
X008590Y012383D01*
X008681Y012473D01*
X008783Y012719D01*
X008783Y012986D01*
X008681Y013232D01*
X008560Y013353D01*
X008570Y013363D01*
X009100Y013363D01*
X009280Y013437D01*
X009418Y013575D01*
X009989Y014146D01*
X009923Y013986D01*
X009923Y013719D01*
X010025Y013473D01*
X010145Y013353D01*
X010025Y013232D01*
X009923Y012986D01*
X009923Y012719D01*
X010025Y012473D01*
X010145Y012353D01*
X010025Y012232D01*
X009923Y011986D01*
X009923Y011719D01*
X010025Y011473D01*
X010145Y011353D01*
X010025Y011232D01*
X009923Y010986D01*
X009923Y010719D01*
X010025Y010473D01*
X010213Y010285D01*
X010459Y010183D01*
X011246Y010183D01*
X011492Y010285D01*
X011681Y010473D01*
X011783Y010719D01*
X011783Y010986D01*
X011681Y011232D01*
X011560Y011353D01*
X011681Y011473D01*
X011783Y011719D01*
X011783Y011986D01*
X011681Y012232D01*
X011560Y012353D01*
X011681Y012473D01*
X011783Y012719D01*
X011783Y012986D01*
X011681Y013232D01*
X011560Y013353D01*
X011681Y013473D01*
X011783Y013719D01*
X011783Y013986D01*
X011681Y014232D01*
X011518Y014395D01*
X011519Y014396D01*
X011727Y014188D01*
X012003Y014188D01*
X012278Y014188D01*
X012668Y014577D01*
X012668Y014853D01*
X012668Y015128D01*
X012486Y015310D01*
X012728Y015552D01*
X012728Y016153D01*
X012303Y016578D01*
X011724Y016578D01*
X011783Y016719D01*
X011783Y016986D01*
X011681Y017232D01*
X011560Y017353D01*
X011681Y017473D01*
X011783Y017719D01*
X011783Y017986D01*
X011681Y018232D01*
X011560Y018353D01*
X011681Y018473D01*
X011783Y018719D01*
X011783Y018986D01*
X011767Y019024D01*
X011818Y019075D01*
X012518Y019775D01*
X012593Y019955D01*
X012593Y020150D01*
X012593Y021195D01*
X012773Y021375D01*
X012773Y021930D01*
X012380Y022323D01*
X011825Y022323D01*
X011697Y022194D01*
X011681Y022232D01*
X011560Y022353D01*
X011681Y022473D01*
X011783Y022719D01*
X011783Y022986D01*
X011681Y023232D01*
X011560Y023353D01*
X011681Y023473D01*
X011783Y023719D01*
X011783Y023986D01*
X011681Y024232D01*
X011492Y024421D01*
X011246Y024523D01*
X010459Y024523D01*
X010213Y024421D01*
X010025Y024232D01*
X009979Y024122D01*
X009700Y023843D01*
X008783Y023843D01*
X008783Y023986D01*
X008681Y024232D01*
X008492Y024421D01*
X008341Y024483D01*
X008371Y024513D01*
X008473Y024759D01*
X008473Y025546D01*
X008371Y025792D01*
X008182Y025981D01*
X007936Y026083D01*
X007669Y026083D01*
X007423Y025981D01*
X007235Y025792D01*
X007213Y025740D01*
X007180Y025773D01*
X006625Y025773D01*
X006233Y025380D01*
X006233Y025313D01*
X005878Y025668D01*
X005603Y025668D01*
X005603Y025003D01*
X005603Y025003D01*
X005603Y025668D01*
X005327Y025668D01*
X005145Y025486D01*
X004903Y025728D01*
X004302Y025728D01*
X003878Y025303D01*
X003878Y024702D01*
X004228Y024353D01*
X003481Y024353D01*
X003221Y024245D01*
X003021Y024045D01*
X002913Y023784D01*
X002913Y023501D01*
X002999Y023292D01*
X002756Y023049D01*
X002681Y023232D01*
X002518Y023395D01*
X002578Y023455D01*
X002634Y023533D01*
X002678Y023619D01*
X002708Y023710D01*
X002723Y023805D01*
X002723Y023853D01*
X002723Y023901D01*
X002708Y023996D01*
X002678Y024087D01*
X002634Y024172D01*
X002578Y024250D01*
X002518Y024310D01*
X002681Y024473D01*
X002783Y024719D01*
X002783Y024986D01*
X002681Y025232D01*
X002560Y025353D01*
X002681Y025473D01*
X002783Y025719D01*
X002783Y025986D01*
X002681Y026232D01*
X002560Y026353D01*
X002681Y026473D01*
X002783Y026719D01*
X002783Y026986D01*
X002681Y027232D01*
X002518Y027395D01*
X002578Y027455D01*
X002634Y027533D01*
X002678Y027619D01*
X002708Y027710D01*
X002723Y027805D01*
X002723Y027853D01*
X002723Y027901D01*
X002708Y027996D01*
X002678Y028087D01*
X002634Y028172D01*
X002578Y028250D01*
X002510Y028318D01*
X002432Y028374D01*
X002347Y028418D01*
X002256Y028448D01*
X002161Y028463D01*
X001853Y028463D01*
X001853Y027853D01*
X001853Y027853D01*
X002723Y027853D01*
X001853Y027853D01*
X001853Y027853D01*
X001853Y028463D01*
X001545Y028463D01*
X001450Y028448D01*
X001359Y028418D01*
X001273Y028374D01*
X001195Y028318D01*
X001127Y028250D01*
X001071Y028172D01*
X001027Y028087D01*
X000998Y027996D01*
X000983Y027901D01*
X000983Y027853D01*
X001852Y027853D01*
X001852Y027853D01*
X000983Y027853D01*
X000983Y027805D01*
X000998Y027710D01*
X001027Y027619D01*
X001071Y027533D01*
X001127Y027455D01*
X001188Y027395D01*
X001025Y027232D01*
X000923Y026986D01*
X000923Y026719D01*
X001025Y026473D01*
X001145Y026353D01*
X001025Y026232D01*
X000923Y025986D01*
X000923Y025719D01*
X001025Y025473D01*
X001145Y025353D01*
X001025Y025232D01*
X000923Y024986D01*
X000923Y024719D01*
X001025Y024473D01*
X001188Y024310D01*
X001127Y024250D01*
X001071Y024172D01*
X001027Y024087D01*
X000998Y023996D01*
X000983Y023901D01*
X000983Y023853D01*
X001852Y023853D01*
X001852Y023853D01*
X000983Y023853D01*
X000983Y023805D01*
X000998Y023710D01*
X001027Y023619D01*
X001071Y023533D01*
X001127Y023455D01*
X001188Y023395D01*
X001025Y023232D01*
X000923Y022986D01*
X000923Y022719D01*
X001025Y022473D01*
X001188Y022310D01*
X001127Y022250D01*
X001071Y022172D01*
X001027Y022087D01*
X000998Y021996D01*
X000983Y021901D01*
X000983Y021853D01*
X001852Y021853D01*
X001852Y021853D01*
X000983Y021853D01*
X000983Y021805D01*
X000998Y021710D01*
X001027Y021619D01*
X001071Y021533D01*
X001127Y021455D01*
X001195Y021387D01*
X001243Y021353D01*
X001195Y021318D01*
X001127Y021250D01*
X001071Y021172D01*
X001027Y021087D01*
X000998Y020996D01*
X000983Y020901D01*
X000983Y020853D01*
X001852Y020853D01*
X001852Y020853D01*
X001853Y020853D02*
X001853Y021463D01*
X001853Y020853D01*
X001853Y020853D01*
X001853Y020852D02*
X001853Y020463D01*
X001853Y019853D01*
X001853Y019853D01*
X001853Y020463D01*
X001853Y020852D01*
X001853Y020852D01*
X001852Y020853D02*
X000983Y020853D01*
X000983Y020805D01*
X000998Y020710D01*
X001027Y020619D01*
X001071Y020533D01*
X001127Y020455D01*
X001195Y020387D01*
X001243Y020353D01*
X001195Y020318D01*
X001127Y020250D01*
X001071Y020172D01*
X001027Y020087D01*
X000998Y019996D01*
X000983Y019901D01*
X000983Y019853D01*
X001852Y019853D01*
X001852Y019853D01*
X000983Y019853D01*
X000983Y019805D01*
X000998Y019710D01*
X001027Y019619D01*
X001071Y019533D01*
X001127Y019455D01*
X001195Y019387D01*
X001243Y019353D01*
X001195Y019318D01*
X001127Y019250D01*
X001071Y019172D01*
X001027Y019087D01*
X000998Y018996D01*
X000983Y018901D01*
X000983Y018853D01*
X001852Y018853D01*
X001852Y018853D01*
X001853Y018853D02*
X001853Y019463D01*
X001853Y018853D01*
X001853Y018853D01*
X001852Y018853D02*
X000983Y018853D01*
X000983Y018805D01*
X000998Y018710D01*
X001027Y018619D01*
X001071Y018533D01*
X001127Y018455D01*
X001188Y018395D01*
X001025Y018232D01*
X000923Y017986D01*
X000923Y017719D01*
X001025Y017473D01*
X001145Y017353D01*
X001025Y017232D01*
X000923Y016986D01*
X000923Y016719D01*
X001025Y016473D01*
X001145Y016353D01*
X001025Y016232D01*
X000923Y015986D01*
X000923Y015719D01*
X001025Y015473D01*
X001145Y015353D01*
X001025Y015232D01*
X000923Y014986D01*
X000923Y014719D01*
X001025Y014473D01*
X001145Y014353D01*
X001025Y014232D01*
X000923Y013986D01*
X000923Y013719D01*
X001025Y013473D01*
X001145Y013353D01*
X001025Y013232D01*
X000923Y012986D01*
X000923Y012719D01*
X001025Y012473D01*
X001213Y012285D01*
X001459Y012183D01*
X002246Y012183D01*
X002273Y012194D01*
X002273Y012119D01*
X002375Y011873D01*
X002538Y011710D01*
X002477Y011650D01*
X002421Y011572D01*
X002377Y011487D01*
X002348Y011396D01*
X002333Y011301D01*
X002333Y011253D01*
X003202Y011253D01*
X003202Y011253D01*
X002333Y011253D01*
X002333Y011205D01*
X002348Y011110D01*
X002377Y011019D01*
X002421Y010933D01*
X002424Y010928D01*
X002310Y010814D01*
X002122Y011003D01*
X001853Y011003D01*
X001853Y010353D01*
X001853Y010353D01*
X001853Y011003D01*
X001584Y011003D01*
X001203Y010622D01*
X001203Y010353D01*
X001852Y010353D01*
X001852Y010353D01*
X001203Y010353D01*
X001203Y010084D01*
X001434Y009853D01*
X001203Y009622D01*
X001203Y009353D01*
X001852Y009353D01*
X001852Y009353D01*
X001853Y009353D02*
X001853Y009703D01*
X001853Y010352D01*
X001853Y010352D01*
X001853Y009703D01*
X001853Y009353D01*
X001853Y009353D01*
X001853Y009352D02*
X001853Y008703D01*
X001853Y008353D01*
X001853Y008353D01*
X001853Y008703D01*
X001853Y009352D01*
X001853Y009352D01*
X001852Y009353D02*
X001203Y009353D01*
X001203Y009084D01*
X001434Y008853D01*
X001203Y008622D01*
X001203Y008353D01*
X001852Y008353D01*
X001852Y008353D01*
X001203Y008353D01*
X001203Y008084D01*
X001434Y007853D01*
X001203Y007622D01*
X001203Y007353D01*
X001852Y007353D01*
X001852Y007353D01*
X001853Y007353D02*
X001853Y008003D01*
X001853Y008352D01*
X001853Y008352D01*
X001853Y008003D01*
X001853Y007353D01*
X001853Y007353D01*
X001853Y007352D02*
X001853Y006703D01*
X001853Y006353D01*
X001853Y006353D01*
X001853Y007003D01*
X001853Y007352D01*
X001853Y007352D01*
X001852Y007353D02*
X001203Y007353D01*
X001203Y007084D01*
X001434Y006853D01*
X001203Y006622D01*
X001203Y006353D01*
X001852Y006353D01*
X001852Y006353D01*
X001203Y006353D01*
X001203Y006084D01*
X001434Y005853D01*
X001203Y005622D01*
X001203Y005353D01*
X001852Y005353D01*
X001852Y005353D01*
X001853Y005353D02*
X001853Y005703D01*
X001853Y006352D01*
X001853Y006352D01*
X001853Y005703D01*
X001853Y005353D01*
X001853Y005353D01*
X001853Y005352D02*
X001853Y004703D01*
X001853Y004353D01*
X001853Y004353D01*
X001853Y004703D01*
X001853Y005352D01*
X001853Y005352D01*
X001852Y005353D02*
X001203Y005353D01*
X001203Y005084D01*
X001434Y004853D01*
X001203Y004622D01*
X001203Y004353D01*
X001852Y004353D01*
X001852Y004353D01*
X001203Y004353D01*
X001203Y004084D01*
X001584Y003703D01*
X001853Y003703D01*
X002122Y003703D01*
X002310Y003891D01*
X002559Y003643D01*
X003147Y003643D01*
X003531Y004027D01*
X003875Y003683D01*
X004430Y003683D01*
X004823Y004075D01*
X004823Y004630D01*
X004600Y004853D01*
X004823Y005075D01*
X004823Y005630D01*
X004600Y005853D01*
X004823Y006075D01*
X004823Y006630D01*
X004600Y006853D01*
X004653Y006905D01*
X004730Y006937D01*
X004868Y007075D01*
X005297Y007504D01*
X005365Y007571D01*
X005366Y007573D01*
X005368Y007575D01*
X005405Y007664D01*
X005442Y007750D01*
X005442Y007753D01*
X005443Y007755D01*
X005443Y007852D01*
X005467Y009998D01*
X005477Y009988D01*
X005753Y009988D01*
X006028Y009988D01*
X006210Y010170D01*
X006452Y009928D01*
X006578Y009928D01*
X006253Y009603D01*
X006173Y009408D01*
X006476Y009825D02*
X005465Y009825D01*
X005753Y009988D02*
X005753Y010652D01*
X005753Y009988D01*
X005753Y010324D02*
X005753Y010324D01*
X005753Y010652D02*
X005753Y010652D01*
X005753Y010653D02*
X005753Y010653D01*
X005753Y011318D01*
X005753Y011752D01*
X005753Y011752D01*
X005753Y011318D01*
X005753Y010653D01*
X005753Y010822D02*
X005753Y010822D01*
X005753Y011321D02*
X005753Y011321D01*
X004213Y011321D02*
X004070Y011321D01*
X004073Y011301D02*
X004058Y011396D01*
X004028Y011487D01*
X003984Y011572D01*
X003928Y011650D01*
X003868Y011710D01*
X004031Y011873D01*
X004133Y012119D01*
X004133Y012386D01*
X004031Y012632D01*
X003910Y012753D01*
X004020Y012863D01*
X004200Y012863D01*
X004213Y012850D01*
X004213Y010023D01*
X003875Y010023D01*
X003531Y009678D01*
X003357Y009853D01*
X003563Y010059D01*
X003563Y010647D01*
X003559Y010650D01*
X003606Y010658D01*
X003697Y010687D01*
X003782Y010731D01*
X003860Y010787D01*
X003928Y010855D01*
X003984Y010933D01*
X004028Y011019D01*
X004058Y011110D01*
X004073Y011205D01*
X004073Y011253D01*
X004073Y011301D01*
X004073Y011253D02*
X003203Y011253D01*
X003203Y011253D01*
X004073Y011253D01*
X003977Y011819D02*
X004213Y011819D01*
X004213Y012318D02*
X004133Y012318D01*
X004213Y012816D02*
X003974Y012816D01*
X004987Y013462D02*
X005078Y013552D01*
X005078Y014153D01*
X004836Y014395D01*
X005018Y014577D01*
X005018Y014853D01*
X005018Y015128D01*
X004793Y015353D01*
X005018Y015577D01*
X005018Y015853D01*
X005018Y016128D01*
X004836Y016310D01*
X005078Y016552D01*
X005078Y017153D01*
X004653Y017578D01*
X004052Y017578D01*
X003962Y017487D01*
X003548Y017900D01*
X003823Y018175D01*
X003823Y018730D01*
X003643Y018910D01*
X003643Y019650D01*
X003856Y019863D01*
X006923Y019863D01*
X006923Y019719D01*
X007025Y019473D01*
X007145Y019353D01*
X007025Y019232D01*
X006923Y018986D01*
X006923Y018719D01*
X007025Y018473D01*
X007145Y018353D01*
X007025Y018232D01*
X006923Y017986D01*
X006923Y017719D01*
X007025Y017473D01*
X007188Y017310D01*
X007127Y017250D01*
X007071Y017172D01*
X007027Y017087D01*
X006998Y016996D01*
X006983Y016901D01*
X006983Y016853D01*
X007852Y016853D01*
X007852Y016853D01*
X006983Y016853D01*
X006983Y016805D01*
X006998Y016710D01*
X007027Y016619D01*
X007071Y016533D01*
X007127Y016455D01*
X007188Y016395D01*
X007025Y016232D01*
X006923Y015986D01*
X006923Y015719D01*
X007025Y015473D01*
X007145Y015353D01*
X007025Y015232D01*
X006923Y014986D01*
X006923Y014829D01*
X006775Y014768D01*
X006774Y014767D01*
X006747Y014833D01*
X006533Y015047D01*
X006254Y015163D01*
X005952Y015163D01*
X005672Y015047D01*
X005458Y014833D01*
X005343Y014554D01*
X005343Y014252D01*
X005458Y013972D01*
X005672Y013758D01*
X005738Y013731D01*
X005182Y013175D01*
X005118Y013330D01*
X004987Y013462D01*
X005125Y013315D02*
X005322Y013315D01*
X005078Y013813D02*
X005617Y013813D01*
X005343Y014312D02*
X004919Y014312D01*
X005018Y014811D02*
X005449Y014811D01*
X005018Y014853D02*
X004353Y014853D01*
X004353Y014853D01*
X004353Y015518D01*
X004353Y015852D01*
X004353Y015852D01*
X004353Y015853D02*
X004353Y015853D01*
X005018Y015853D01*
X004353Y015853D01*
X004353Y015852D02*
X004353Y015518D01*
X004353Y014853D01*
X005018Y014853D01*
X004837Y015309D02*
X007102Y015309D01*
X006923Y015808D02*
X006682Y015808D01*
X006747Y015872D02*
X006533Y015658D01*
X006254Y015543D01*
X005952Y015543D01*
X005672Y015658D01*
X005458Y015872D01*
X005343Y016152D01*
X005343Y016454D01*
X005458Y016733D01*
X005672Y016947D01*
X005952Y017063D01*
X006254Y017063D01*
X006533Y016947D01*
X006747Y016733D01*
X006863Y016454D01*
X006863Y016152D01*
X006747Y015872D01*
X006863Y016306D02*
X007099Y016306D01*
X006983Y016805D02*
X006676Y016805D01*
X007181Y017303D02*
X004928Y017303D01*
X005078Y016805D02*
X005530Y016805D01*
X005343Y016306D02*
X004840Y016306D01*
X005018Y015808D02*
X005523Y015808D01*
X004353Y015808D02*
X004353Y015808D01*
X004353Y015309D02*
X004353Y015309D01*
X004353Y014853D02*
X004353Y014853D01*
X006756Y014811D02*
X006878Y014811D01*
X008598Y013315D02*
X010107Y013315D01*
X009923Y013813D02*
X009656Y013813D01*
X009923Y012816D02*
X008783Y012816D01*
X008765Y012318D02*
X010110Y012318D01*
X009923Y011819D02*
X009286Y011819D01*
X009483Y011321D02*
X010113Y011321D01*
X009923Y010822D02*
X009483Y010822D01*
X009373Y010324D02*
X010174Y010324D01*
X009471Y009825D02*
X008875Y009825D01*
X008823Y009327D02*
X009293Y009327D01*
X009474Y008828D02*
X008625Y008828D01*
X008823Y008329D02*
X009293Y008329D01*
X009520Y007831D02*
X008622Y007831D01*
X008823Y007332D02*
X009353Y007332D01*
X009480Y006834D02*
X008619Y006834D01*
X008823Y006335D02*
X009293Y006335D01*
X009316Y005837D02*
X009389Y005837D01*
X009418Y004840D02*
X009287Y004840D01*
X008823Y004341D02*
X012003Y004341D01*
X012003Y004805D02*
X012003Y002963D01*
X011853Y002963D01*
X011853Y002353D01*
X011853Y002353D01*
X011853Y002963D01*
X011600Y002963D01*
X011395Y002758D01*
X011130Y003023D01*
X010575Y003023D01*
X010183Y002630D01*
X010183Y002075D01*
X010575Y001683D01*
X011130Y001683D01*
X011395Y001948D01*
X011600Y001743D01*
X011853Y001743D01*
X012003Y001743D01*
X012003Y000763D01*
X010210Y000763D01*
X010523Y001075D01*
X010523Y001630D01*
X010130Y002023D01*
X009575Y002023D01*
X009353Y001800D01*
X009130Y002023D01*
X008575Y002023D01*
X008183Y001630D01*
X008183Y001075D01*
X008495Y000763D01*
X005523Y000763D01*
X005523Y001130D01*
X005130Y001523D01*
X004575Y001523D01*
X004183Y001130D01*
X004183Y000763D01*
X003279Y000763D01*
X003375Y000874D01*
X003375Y000874D01*
X003589Y001343D01*
X003663Y001853D01*
X003589Y002363D01*
X003375Y002831D01*
X003038Y003221D01*
X002605Y003499D01*
X002605Y003499D01*
X002110Y003644D01*
X001595Y003644D01*
X001101Y003499D01*
X000763Y003282D01*
X000763Y028924D01*
X001101Y028706D01*
X001595Y028561D01*
X001595Y028561D01*
X002110Y028561D01*
X002110Y028561D01*
X002605Y028706D01*
X003038Y028985D01*
X003375Y029374D01*
X003375Y029374D01*
X003589Y029843D01*
X003663Y030353D01*
X003589Y030863D01*
X003375Y031331D01*
X003279Y031443D01*
X013503Y031443D01*
X013503Y028471D01*
X013486Y028488D01*
X013232Y028593D01*
X012958Y028593D01*
X012704Y028488D01*
X012560Y028344D01*
X012521Y028383D01*
X012441Y028442D01*
X012352Y028487D01*
X012258Y028517D01*
X012160Y028533D01*
X012111Y028533D01*
X012111Y027903D01*
X012110Y027903D01*
X012110Y027903D01*
X011481Y027903D01*
X011481Y027952D01*
X011496Y028050D01*
X011527Y028145D01*
X011572Y028233D01*
X011630Y028313D01*
X011700Y028383D01*
X011780Y028442D01*
X011869Y028487D01*
X011963Y028517D01*
X012061Y028533D01*
X012110Y028533D01*
X012110Y027903D01*
X011481Y027903D01*
X011481Y027853D01*
X011496Y027755D01*
X011527Y027661D01*
X011572Y027573D01*
X011577Y027565D01*
X011526Y027514D01*
X011421Y027260D01*
X011421Y026985D01*
X011526Y026732D01*
X011720Y026538D01*
X011973Y026433D01*
X012248Y026433D01*
X012501Y026538D01*
X012603Y026639D01*
X012704Y026538D01*
X012958Y026433D01*
X013232Y026433D01*
X013486Y026538D01*
X013503Y026555D01*
X013503Y011253D01*
X012003Y011253D01*
X012003Y009800D01*
X011783Y009580D01*
X011783Y009025D01*
X012003Y008805D01*
X012003Y005800D01*
X011783Y005580D01*
X011783Y005025D01*
X012003Y004805D01*
X011968Y004840D02*
X010287Y004840D01*
X010523Y005338D02*
X011783Y005338D01*
X012003Y005837D02*
X011091Y005837D01*
X011313Y006335D02*
X012003Y006335D01*
X012003Y006834D02*
X011126Y006834D01*
X011253Y007332D02*
X012003Y007332D01*
X012003Y007831D02*
X011085Y007831D01*
X011253Y007353D02*
X010303Y007353D01*
X010303Y007353D01*
X011253Y007353D01*
X011313Y008329D02*
X012003Y008329D01*
X011980Y008828D02*
X011132Y008828D01*
X011313Y009327D02*
X011783Y009327D01*
X012003Y009825D02*
X011134Y009825D01*
X011531Y010324D02*
X012003Y010324D01*
X012003Y010822D02*
X011783Y010822D01*
X011592Y011321D02*
X013503Y011321D01*
X013503Y011819D02*
X011783Y011819D01*
X011595Y012318D02*
X013503Y012318D01*
X013503Y012816D02*
X011783Y012816D01*
X011598Y013315D02*
X013503Y013315D01*
X013503Y013813D02*
X011783Y013813D01*
X012003Y014188D02*
X012003Y014852D01*
X012003Y014188D01*
X012003Y014312D02*
X012003Y014312D01*
X012402Y014312D02*
X013503Y014312D01*
X013503Y014811D02*
X012668Y014811D01*
X012668Y014853D02*
X012003Y014853D01*
X012668Y014853D01*
X012487Y015309D02*
X013503Y015309D01*
X013503Y015808D02*
X012728Y015808D01*
X012575Y016306D02*
X013503Y016306D01*
X013503Y016805D02*
X011783Y016805D01*
X011610Y017303D02*
X013503Y017303D01*
X013503Y017802D02*
X011783Y017802D01*
X011613Y018300D02*
X013503Y018300D01*
X013503Y018799D02*
X011783Y018799D01*
X012040Y019297D02*
X013503Y019297D01*
X013503Y019796D02*
X012527Y019796D01*
X012593Y020294D02*
X013503Y020294D01*
X013503Y020793D02*
X012593Y020793D01*
X012689Y021292D02*
X013503Y021292D01*
X013503Y021790D02*
X012773Y021790D01*
X012414Y022289D02*
X013503Y022289D01*
X013503Y022787D02*
X011783Y022787D01*
X011627Y023286D02*
X013503Y023286D01*
X013503Y023784D02*
X011783Y023784D01*
X011630Y024283D02*
X013503Y024283D01*
X013503Y024781D02*
X008473Y024781D01*
X008473Y025280D02*
X011528Y025280D01*
X011433Y025375D02*
X011825Y024983D01*
X012380Y024983D01*
X012773Y025375D01*
X012773Y025930D01*
X012380Y026323D01*
X011825Y026323D01*
X011433Y025930D01*
X011433Y025375D01*
X011433Y025778D02*
X008376Y025778D01*
X007229Y025778D02*
X002783Y025778D01*
X002636Y026277D02*
X011780Y026277D01*
X011508Y026776D02*
X002783Y026776D01*
X003225Y026933D02*
X002833Y027325D01*
X002833Y027880D01*
X003225Y028273D01*
X003780Y028273D01*
X004173Y027880D01*
X004173Y027325D01*
X003780Y026933D01*
X003225Y026933D01*
X002884Y027274D02*
X002639Y027274D01*
X002718Y027773D02*
X002833Y027773D01*
X002557Y028271D02*
X003224Y028271D01*
X003782Y028271D02*
X003887Y028271D01*
X003833Y028325D02*
X004225Y027933D01*
X004780Y027933D01*
X005173Y028325D01*
X005173Y028880D01*
X004810Y029243D01*
X005184Y029243D01*
X005335Y029305D01*
X005391Y029361D01*
X005509Y029243D01*
X006097Y029243D01*
X006345Y029491D01*
X006534Y029303D01*
X006803Y029303D01*
X007072Y029303D01*
X007260Y029491D01*
X007509Y029243D01*
X008097Y029243D01*
X008303Y029449D01*
X008509Y029243D01*
X009097Y029243D01*
X009257Y029403D01*
X009245Y029382D01*
X009173Y029112D01*
X009173Y028833D01*
X009245Y028564D01*
X009385Y028322D01*
X009582Y028125D01*
X009824Y027985D01*
X010093Y027913D01*
X010372Y027913D01*
X010642Y027985D01*
X010884Y028125D01*
X011081Y028322D01*
X011220Y028564D01*
X011293Y028833D01*
X011293Y029112D01*
X011220Y029382D01*
X011081Y029624D01*
X010884Y029821D01*
X010642Y029960D01*
X010372Y030033D01*
X010093Y030033D01*
X009824Y029960D01*
X009582Y029821D01*
X009513Y029752D01*
X009513Y030247D01*
X009097Y030663D01*
X008509Y030663D01*
X008303Y030457D01*
X008097Y030663D01*
X007509Y030663D01*
X007260Y030414D01*
X007072Y030603D01*
X006803Y030603D01*
X006803Y029953D01*
X006803Y029953D01*
X006803Y030603D01*
X006534Y030603D01*
X006345Y030414D01*
X006097Y030663D01*
X005509Y030663D01*
X005391Y030545D01*
X005335Y030600D01*
X005184Y030663D01*
X004421Y030663D01*
X004271Y030600D01*
X004155Y030485D01*
X004093Y030334D01*
X004093Y029571D01*
X004155Y029421D01*
X004271Y029305D01*
X004349Y029273D01*
X004225Y029273D01*
X003833Y028880D01*
X003833Y028325D01*
X003833Y028770D02*
X002703Y028770D01*
X002605Y028706D02*
X002605Y028706D01*
X003038Y028985D02*
X003038Y028985D01*
X003038Y028985D01*
X003284Y029268D02*
X004221Y029268D01*
X004093Y029767D02*
X003555Y029767D01*
X003589Y029843D02*
X003589Y029843D01*
X003650Y030265D02*
X004093Y030265D01*
X003604Y030764D02*
X013503Y030764D01*
X013503Y031262D02*
X003407Y031262D01*
X003375Y031331D02*
X003375Y031331D01*
X003589Y030863D02*
X003589Y030863D01*
X005246Y029268D02*
X005483Y029268D01*
X005173Y028770D02*
X006622Y028770D01*
X006625Y028773D02*
X006233Y028380D01*
X006233Y027825D01*
X006625Y027433D01*
X007180Y027433D01*
X007248Y027500D01*
X007423Y027325D01*
X007669Y027223D01*
X007936Y027223D01*
X008182Y027325D01*
X008371Y027513D01*
X008473Y027759D01*
X008473Y028546D01*
X008371Y028792D01*
X008182Y028981D01*
X007936Y029083D01*
X007669Y029083D01*
X007423Y028981D01*
X007235Y028792D01*
X007213Y028740D01*
X007180Y028773D01*
X006625Y028773D01*
X006803Y029303D02*
X006803Y029952D01*
X006803Y029303D01*
X007183Y028770D02*
X007225Y028770D01*
X007483Y029268D02*
X006122Y029268D01*
X006803Y029767D02*
X006803Y029767D01*
X006803Y029952D02*
X006803Y029952D01*
X006803Y030265D02*
X006803Y030265D01*
X008122Y029268D02*
X008483Y029268D01*
X008380Y028770D02*
X009190Y028770D01*
X009215Y029268D02*
X009122Y029268D01*
X009513Y029767D02*
X009528Y029767D01*
X009494Y030265D02*
X013503Y030265D01*
X013503Y029767D02*
X010938Y029767D01*
X011251Y029268D02*
X013503Y029268D01*
X013503Y028770D02*
X011276Y028770D01*
X011030Y028271D02*
X011600Y028271D01*
X011493Y027773D02*
X008473Y027773D01*
X008473Y028271D02*
X009435Y028271D01*
X008060Y027274D02*
X011426Y027274D01*
X012110Y028271D02*
X012111Y028271D01*
X012426Y026277D02*
X013503Y026277D01*
X013503Y025778D02*
X012773Y025778D01*
X012677Y025280D02*
X013503Y025280D01*
X011791Y022289D02*
X011624Y022289D01*
X010075Y024283D02*
X008630Y024283D01*
X007294Y024454D02*
X007213Y024421D01*
X007080Y024288D01*
X006924Y024353D01*
X006041Y024353D01*
X005781Y024245D01*
X005581Y024045D01*
X005473Y023784D01*
X005473Y023501D01*
X005497Y023443D01*
X004908Y023443D01*
X004933Y023501D01*
X004933Y023784D01*
X004825Y024045D01*
X004625Y024245D01*
X004545Y024278D01*
X004903Y024278D01*
X005145Y024520D01*
X005327Y024338D01*
X005603Y024338D01*
X005878Y024338D01*
X006268Y024727D01*
X006268Y024790D01*
X006625Y024433D01*
X007180Y024433D01*
X007248Y024500D01*
X007294Y024454D01*
X006277Y024781D02*
X006268Y024781D01*
X005873Y024283D02*
X004908Y024283D01*
X004933Y023784D02*
X005473Y023784D01*
X005603Y024338D02*
X005603Y025002D01*
X005603Y024338D01*
X005603Y024781D02*
X005603Y024781D01*
X005603Y025002D02*
X005603Y025002D01*
X005603Y025280D02*
X005603Y025280D01*
X005503Y026993D02*
X005250Y026993D01*
X004893Y027350D01*
X004893Y027603D01*
X005502Y027603D01*
X005502Y027603D01*
X005503Y027603D02*
X005503Y028213D01*
X005755Y028213D01*
X006113Y027855D01*
X006113Y027603D01*
X005503Y027603D01*
X005503Y027603D01*
X005503Y027603D01*
X005503Y028213D01*
X005250Y028213D01*
X004893Y027855D01*
X004893Y027603D01*
X005502Y027603D01*
X005503Y027602D02*
X005503Y027602D01*
X005503Y026993D01*
X005755Y026993D01*
X006113Y027350D01*
X006113Y027603D01*
X005503Y027603D01*
X005503Y027602D02*
X005503Y026993D01*
X005503Y027274D02*
X005503Y027274D01*
X006037Y027274D02*
X007546Y027274D01*
X006285Y027773D02*
X006113Y027773D01*
X006233Y028271D02*
X005119Y028271D01*
X004893Y027773D02*
X004173Y027773D01*
X004122Y027274D02*
X004969Y027274D01*
X005503Y027773D02*
X005503Y027773D01*
X003878Y025280D02*
X002633Y025280D01*
X002783Y024781D02*
X003878Y024781D01*
X003313Y024283D02*
X002545Y024283D01*
X002723Y023853D02*
X001853Y023853D01*
X001853Y023853D01*
X002723Y023853D01*
X002719Y023784D02*
X002913Y023784D01*
X002993Y023286D02*
X002627Y023286D01*
X001853Y021852D02*
X001853Y021463D01*
X001853Y021852D01*
X001853Y021852D01*
X001853Y021790D02*
X001853Y021790D01*
X001853Y021292D02*
X001853Y021292D01*
X001853Y020793D02*
X001853Y020793D01*
X001853Y020294D02*
X001853Y020294D01*
X001853Y019852D02*
X001853Y019463D01*
X001853Y019852D01*
X001853Y019852D01*
X001853Y019796D02*
X001853Y019796D01*
X001853Y019297D02*
X001853Y019297D01*
X001175Y019297D02*
X000763Y019297D01*
X000763Y018799D02*
X000984Y018799D01*
X001093Y018300D02*
X000763Y018300D01*
X000763Y017802D02*
X000923Y017802D01*
X000763Y017303D02*
X001096Y017303D01*
X000923Y016805D02*
X000763Y016805D01*
X000763Y016306D02*
X001099Y016306D01*
X000923Y015808D02*
X000763Y015808D01*
X000763Y015309D02*
X001102Y015309D01*
X000923Y014811D02*
X000763Y014811D01*
X000763Y014312D02*
X001104Y014312D01*
X000923Y013813D02*
X000763Y013813D01*
X000763Y013315D02*
X001107Y013315D01*
X000923Y012816D02*
X000763Y012816D01*
X000763Y012318D02*
X001180Y012318D01*
X000763Y011819D02*
X002429Y011819D01*
X002336Y011321D02*
X000763Y011321D01*
X000763Y010822D02*
X001403Y010822D01*
X001853Y010822D02*
X001853Y010822D01*
X001853Y010324D02*
X001853Y010324D01*
X001853Y009825D02*
X001853Y009825D01*
X001406Y009825D02*
X000763Y009825D01*
X000763Y009327D02*
X001203Y009327D01*
X001409Y008828D02*
X000763Y008828D01*
X000763Y008329D02*
X001203Y008329D01*
X001412Y007831D02*
X000763Y007831D01*
X000763Y007332D02*
X001203Y007332D01*
X001415Y006834D02*
X000763Y006834D01*
X000763Y006335D02*
X001203Y006335D01*
X001418Y005837D02*
X000763Y005837D01*
X000763Y005338D02*
X001203Y005338D01*
X001420Y004840D02*
X000763Y004840D01*
X000763Y004341D02*
X001203Y004341D01*
X001444Y003843D02*
X000763Y003843D01*
X001101Y003499D02*
X001101Y003499D01*
X000859Y003344D02*
X000763Y003344D01*
X001595Y003644D02*
X001595Y003644D01*
X001853Y003703D02*
X001853Y004352D01*
X001853Y003703D01*
X001853Y003843D02*
X001853Y003843D01*
X002110Y003644D02*
X002110Y003644D01*
X002262Y003843D02*
X002359Y003843D01*
X002846Y003344D02*
X004397Y003344D01*
X004575Y003523D02*
X004183Y003130D01*
X004183Y002575D01*
X004575Y002183D01*
X005130Y002183D01*
X005523Y002575D01*
X005523Y003130D01*
X005130Y003523D01*
X004575Y003523D01*
X004590Y003843D02*
X006173Y003843D01*
X006173Y003344D02*
X005309Y003344D01*
X005523Y002845D02*
X006173Y002845D01*
X005399Y002347D02*
X005294Y002347D01*
X005183Y001848D02*
X003662Y001848D01*
X003590Y001350D02*
X004402Y001350D01*
X004183Y000851D02*
X003356Y000851D01*
X003589Y001343D02*
X003589Y001343D01*
X003592Y002347D02*
X004411Y002347D01*
X004183Y002845D02*
X003363Y002845D01*
X003375Y002831D02*
X003375Y002831D01*
X003589Y002363D02*
X003589Y002363D01*
X003038Y003221D02*
X003038Y003221D01*
X003347Y003843D02*
X003715Y003843D01*
X004613Y004840D02*
X006173Y004840D01*
X006173Y004341D02*
X004823Y004341D01*
X004823Y005338D02*
X006173Y005338D01*
X006173Y005837D02*
X004616Y005837D01*
X004823Y006335D02*
X006173Y006335D01*
X006173Y006834D02*
X004619Y006834D01*
X005125Y007332D02*
X006173Y007332D01*
X006173Y007831D02*
X005443Y007831D01*
X005448Y008329D02*
X006173Y008329D01*
X006173Y008828D02*
X005454Y008828D01*
X007233Y008828D02*
X007681Y008828D01*
X007483Y008329D02*
X007233Y008329D01*
X007233Y007831D02*
X007683Y007831D01*
X007483Y007332D02*
X007233Y007332D01*
X007233Y006834D02*
X007686Y006834D01*
X007483Y006335D02*
X007233Y006335D01*
X007233Y005837D02*
X007689Y005837D01*
X007483Y005338D02*
X007233Y005338D01*
X007233Y004840D02*
X007692Y004840D01*
X007483Y004341D02*
X007233Y004341D01*
X007233Y003843D02*
X007715Y003843D01*
X007233Y003344D02*
X012003Y003344D01*
X012003Y003843D02*
X008590Y003843D01*
X008307Y002845D02*
X010398Y002845D01*
X010183Y002347D02*
X008523Y002347D01*
X008401Y001848D02*
X008296Y001848D01*
X008183Y001350D02*
X006297Y001350D01*
X005523Y000851D02*
X008407Y000851D01*
X009305Y001848D02*
X009401Y001848D01*
X010305Y001848D02*
X010410Y001848D01*
X010523Y001350D02*
X012003Y001350D01*
X011853Y001743D02*
X011853Y002352D01*
X011853Y002352D01*
X011853Y001743D01*
X011853Y001848D02*
X011853Y001848D01*
X011494Y001848D02*
X011296Y001848D01*
X011853Y002347D02*
X011853Y002347D01*
X011853Y002845D02*
X011853Y002845D01*
X011483Y002845D02*
X011307Y002845D01*
X012003Y000851D02*
X010299Y000851D01*
X007410Y001848D02*
X007296Y001848D01*
X007307Y002845D02*
X007398Y002845D01*
X005408Y001350D02*
X005303Y001350D01*
X001853Y004341D02*
X001853Y004341D01*
X001853Y004352D02*
X001853Y004352D01*
X001853Y004840D02*
X001853Y004840D01*
X001853Y005338D02*
X001853Y005338D01*
X001853Y005837D02*
X001853Y005837D01*
X001853Y006335D02*
X001853Y006335D01*
X001853Y006834D02*
X001853Y006834D01*
X001853Y007332D02*
X001853Y007332D01*
X001853Y007831D02*
X001853Y007831D01*
X001853Y008329D02*
X001853Y008329D01*
X001853Y008828D02*
X001853Y008828D01*
X001853Y009327D02*
X001853Y009327D01*
X001203Y010324D02*
X000763Y010324D01*
X002303Y010822D02*
X002318Y010822D01*
X003384Y009825D02*
X003678Y009825D01*
X003563Y010324D02*
X004213Y010324D01*
X004213Y010822D02*
X003895Y010822D01*
X007476Y009327D02*
X007483Y009327D01*
X011601Y014312D02*
X011603Y014312D01*
X012003Y014811D02*
X012003Y014811D01*
X012003Y014852D02*
X012003Y014852D01*
X012003Y014853D02*
X012003Y014853D01*
X012002Y014853D02*
X012002Y014853D01*
X011338Y014853D01*
X010853Y014853D01*
X010853Y014853D01*
X011338Y014853D01*
X012002Y014853D01*
X007093Y018300D02*
X003823Y018300D01*
X003647Y017802D02*
X006923Y017802D01*
X006923Y018799D02*
X003754Y018799D01*
X003643Y019297D02*
X007090Y019297D01*
X006923Y019796D02*
X003789Y019796D01*
X003093Y020486D02*
X003237Y020630D01*
X003375Y020768D01*
X003555Y020843D01*
X006923Y020843D01*
X006923Y020986D01*
X007025Y021232D01*
X007071Y021279D01*
X007071Y021279D01*
X006992Y021246D01*
X006910Y021224D01*
X006825Y021213D01*
X006483Y021213D01*
X006483Y021862D01*
X006483Y021862D01*
X006483Y021213D01*
X006140Y021213D01*
X006056Y021224D01*
X005973Y021246D01*
X005895Y021279D01*
X005821Y021321D01*
X005753Y021373D01*
X005693Y021433D01*
X005641Y021501D01*
X005599Y021575D01*
X005566Y021653D01*
X005544Y021736D01*
X005533Y021820D01*
X005533Y021863D01*
X006482Y021863D01*
X006482Y021863D01*
X005533Y021863D01*
X005533Y021905D01*
X005544Y021990D01*
X005566Y022072D01*
X005599Y022151D01*
X005641Y022225D01*
X005693Y022292D01*
X005753Y022352D01*
X005821Y022404D01*
X005895Y022447D01*
X005933Y022463D01*
X004473Y022463D01*
X004511Y022447D01*
X004585Y022404D01*
X004652Y022352D01*
X004712Y022292D01*
X004764Y022225D01*
X004807Y022151D01*
X004840Y022072D01*
X004862Y021990D01*
X004873Y021905D01*
X004873Y021863D01*
X003923Y021863D01*
X003923Y021863D01*
X004873Y021863D01*
X004873Y021820D01*
X004862Y021736D01*
X004840Y021653D01*
X004807Y021575D01*
X004764Y021501D01*
X004712Y021433D01*
X004652Y021373D01*
X004585Y021321D01*
X004511Y021279D01*
X004432Y021246D01*
X004350Y021224D01*
X004265Y021213D01*
X003923Y021213D01*
X003923Y021862D01*
X003923Y021862D01*
X003923Y021213D01*
X003580Y021213D01*
X003496Y021224D01*
X003413Y021246D01*
X003335Y021279D01*
X003261Y021321D01*
X003193Y021373D01*
X003133Y021433D01*
X003093Y021486D01*
X003093Y020486D01*
X003093Y020793D02*
X003435Y020793D01*
X003312Y021292D02*
X003093Y021292D01*
X003923Y021292D02*
X003923Y021292D01*
X003923Y021790D02*
X003923Y021790D01*
X004533Y021292D02*
X005872Y021292D01*
X005537Y021790D02*
X004869Y021790D01*
X004715Y022289D02*
X005690Y022289D01*
X006483Y021790D02*
X006483Y021790D01*
X006483Y021292D02*
X006483Y021292D01*
X001169Y021292D02*
X000763Y021292D01*
X000763Y020793D02*
X000985Y020793D01*
X001172Y020294D02*
X000763Y020294D01*
X000763Y019796D02*
X000984Y019796D01*
X000985Y021790D02*
X000763Y021790D01*
X000763Y022289D02*
X001166Y022289D01*
X000923Y022787D02*
X000763Y022787D01*
X000763Y023286D02*
X001078Y023286D01*
X000986Y023784D02*
X000763Y023784D01*
X000763Y024283D02*
X001160Y024283D01*
X000923Y024781D02*
X000763Y024781D01*
X000763Y025280D02*
X001072Y025280D01*
X000923Y025778D02*
X000763Y025778D01*
X000763Y026277D02*
X001070Y026277D01*
X000923Y026776D02*
X000763Y026776D01*
X000763Y027274D02*
X001067Y027274D01*
X000988Y027773D02*
X000763Y027773D01*
X000763Y028271D02*
X001149Y028271D01*
X001101Y028706D02*
X001101Y028706D01*
X001002Y028770D02*
X000763Y028770D01*
X001853Y028271D02*
X001853Y028271D01*
X012703Y030853D02*
X014703Y030853D01*
X022853Y031103D02*
X024353Y031103D01*
X025853Y030337D02*
X025869Y030353D01*
X025853Y030337D02*
X025853Y029503D01*
X026203Y029153D01*
X028853Y029153D01*
X030203Y027803D01*
X030203Y026303D01*
X031353Y025153D01*
X031353Y004353D01*
X030853Y003853D01*
X026353Y003853D01*
X025853Y003353D01*
X025853Y002369D01*
X025869Y002353D01*
X025903Y002319D01*
D32*
X023353Y002324D02*
X022887Y002324D01*
X022887Y002303D02*
X022887Y002403D01*
X022787Y002403D01*
X022787Y003206D01*
X022719Y003195D01*
X022644Y003171D01*
X022574Y003135D01*
X022510Y003089D01*
X022454Y003033D01*
X022407Y002969D01*
X022371Y002898D01*
X022347Y002823D01*
X022334Y002745D01*
X022334Y002403D01*
X022787Y002403D01*
X022787Y002303D01*
X022334Y002303D01*
X022334Y001961D01*
X022347Y001883D01*
X022371Y001807D01*
X022407Y001737D01*
X022454Y001673D01*
X022510Y001617D01*
X022574Y001570D01*
X022644Y001535D01*
X022719Y001510D01*
X022787Y001499D01*
X022787Y002303D01*
X022887Y002303D01*
X023339Y002303D01*
X023339Y001961D01*
X023327Y001883D01*
X023303Y001807D01*
X023267Y001737D01*
X023220Y001673D01*
X023164Y001617D01*
X023100Y001570D01*
X023030Y001535D01*
X022955Y001510D01*
X022887Y001499D01*
X022887Y002303D01*
X022887Y002225D02*
X022787Y002225D01*
X022787Y002127D02*
X022887Y002127D01*
X022887Y002028D02*
X022787Y002028D01*
X022787Y001929D02*
X022887Y001929D01*
X022887Y001831D02*
X022787Y001831D01*
X022787Y001732D02*
X022887Y001732D01*
X022887Y001634D02*
X022787Y001634D01*
X022787Y001535D02*
X022887Y001535D01*
X023031Y001535D02*
X023353Y001535D01*
X023353Y001437D02*
X012997Y001437D01*
X012997Y001535D02*
X016038Y001535D01*
X016050Y001523D02*
X016257Y001438D01*
X016480Y001438D01*
X016687Y001523D01*
X016845Y001682D01*
X016931Y001888D01*
X016931Y002817D01*
X016845Y003024D01*
X016687Y003182D01*
X016480Y003268D01*
X016257Y003268D01*
X016050Y003182D01*
X015892Y003024D01*
X015806Y002817D01*
X015806Y001888D01*
X015892Y001682D01*
X016050Y001523D01*
X015939Y001634D02*
X012996Y001634D01*
X012996Y001732D02*
X015871Y001732D01*
X015830Y001831D02*
X012995Y001831D01*
X013008Y001885D02*
X013697Y001885D01*
X013820Y002008D01*
X013820Y002697D01*
X013697Y002820D01*
X013008Y002820D01*
X012990Y002802D01*
X012953Y010303D01*
X014403Y010303D01*
X014403Y016443D01*
X014423Y016443D01*
X014423Y016822D01*
X014483Y016822D01*
X014483Y016443D01*
X014623Y016443D01*
X014863Y016683D01*
X014863Y016823D01*
X014483Y016823D01*
X014483Y016883D01*
X014423Y016883D01*
X014423Y017263D01*
X014403Y017263D01*
X014403Y020383D01*
X014647Y020383D01*
X014923Y020658D01*
X014923Y021047D01*
X015287Y021047D01*
X015289Y021064D02*
X015278Y020990D01*
X015278Y020972D01*
X015734Y020972D01*
X015734Y020934D01*
X015278Y020934D01*
X015278Y020915D01*
X015289Y020841D01*
X015313Y020770D01*
X015346Y020704D01*
X015390Y020643D01*
X015443Y020590D01*
X015504Y020546D01*
X015570Y020513D01*
X015641Y020489D01*
X015715Y020478D01*
X015734Y020478D01*
X015734Y020934D01*
X015772Y020934D01*
X015772Y020972D01*
X016228Y020972D01*
X016228Y020990D01*
X016216Y021064D01*
X016193Y021135D01*
X016159Y021202D01*
X016115Y021262D01*
X016062Y021315D01*
X016002Y021359D01*
X015935Y021393D01*
X015864Y021416D01*
X015853Y021418D01*
X016165Y021418D01*
X016288Y021541D01*
X016288Y022365D01*
X016165Y022488D01*
X015341Y022488D01*
X015218Y022365D01*
X015218Y021541D01*
X015341Y021418D01*
X015653Y021418D01*
X015641Y021416D01*
X015570Y021393D01*
X015504Y021359D01*
X015443Y021315D01*
X015390Y021262D01*
X015346Y021202D01*
X015313Y021135D01*
X015289Y021064D01*
X015318Y021145D02*
X014825Y021145D01*
X014923Y021047D02*
X014647Y021323D01*
X014537Y021323D01*
X014673Y021458D01*
X014673Y021847D01*
X014403Y022117D01*
X014403Y025188D01*
X014673Y025458D01*
X014673Y025847D01*
X014403Y026117D01*
X014403Y028327D01*
X014486Y028244D01*
X014802Y028113D01*
X015144Y028113D01*
X015460Y028244D01*
X015702Y028486D01*
X015833Y028802D01*
X015833Y029144D01*
X015702Y029460D01*
X015460Y029702D01*
X015144Y029833D01*
X014802Y029833D01*
X014486Y029702D01*
X014403Y029619D01*
X014403Y031643D01*
X023353Y031643D01*
X023353Y000563D01*
X013002Y000563D01*
X012995Y001899D01*
X013008Y001885D01*
X012998Y001338D02*
X023353Y001338D01*
X023353Y001240D02*
X012998Y001240D01*
X012999Y001141D02*
X023353Y001141D01*
X023353Y001043D02*
X012999Y001043D01*
X013000Y000944D02*
X023353Y000944D01*
X023353Y000845D02*
X013000Y000845D01*
X013001Y000747D02*
X023353Y000747D01*
X023353Y000648D02*
X013001Y000648D01*
X013741Y001929D02*
X015806Y001929D01*
X015806Y002028D02*
X014745Y002028D01*
X014750Y002037D02*
X014760Y002076D01*
X014760Y002324D01*
X014382Y002324D01*
X014382Y002381D01*
X014760Y002381D01*
X014760Y002630D01*
X014750Y002668D01*
X014730Y002702D01*
X014702Y002730D01*
X014668Y002750D01*
X014630Y002760D01*
X014381Y002760D01*
X014381Y002382D01*
X014324Y002382D01*
X014324Y002760D01*
X014076Y002760D01*
X014037Y002750D01*
X014003Y002730D01*
X013975Y002702D01*
X013956Y002668D01*
X013945Y002630D01*
X013945Y002381D01*
X014324Y002381D01*
X014324Y002324D01*
X014381Y002324D01*
X014381Y001945D01*
X014630Y001945D01*
X014668Y001956D01*
X014702Y001975D01*
X014730Y002003D01*
X014750Y002037D01*
X014760Y002127D02*
X015806Y002127D01*
X015806Y002225D02*
X014760Y002225D01*
X014760Y002324D02*
X015806Y002324D01*
X015806Y002422D02*
X014760Y002422D01*
X014760Y002521D02*
X015806Y002521D01*
X015806Y002619D02*
X014760Y002619D01*
X014715Y002718D02*
X015806Y002718D01*
X015806Y002816D02*
X013701Y002816D01*
X013800Y002718D02*
X013991Y002718D01*
X013945Y002619D02*
X013820Y002619D01*
X013820Y002521D02*
X013945Y002521D01*
X013945Y002422D02*
X013820Y002422D01*
X013820Y002324D02*
X013945Y002324D01*
X013945Y002076D01*
X013956Y002037D01*
X013975Y002003D01*
X014003Y001975D01*
X014037Y001956D01*
X014076Y001945D01*
X014324Y001945D01*
X014324Y002324D01*
X013945Y002324D01*
X013945Y002225D02*
X013820Y002225D01*
X013820Y002127D02*
X013945Y002127D01*
X013961Y002028D02*
X013820Y002028D01*
X014324Y002028D02*
X014381Y002028D01*
X014381Y002127D02*
X014324Y002127D01*
X014324Y002225D02*
X014381Y002225D01*
X014381Y002324D02*
X014324Y002324D01*
X014324Y002422D02*
X014381Y002422D01*
X014381Y002521D02*
X014324Y002521D01*
X014324Y002619D02*
X014381Y002619D01*
X014381Y002718D02*
X014324Y002718D01*
X013004Y002816D02*
X012990Y002816D01*
X012990Y002915D02*
X015846Y002915D01*
X015887Y003013D02*
X012989Y003013D01*
X012989Y003112D02*
X015980Y003112D01*
X016118Y003211D02*
X012988Y003211D01*
X012988Y003309D02*
X023353Y003309D01*
X023353Y003211D02*
X021119Y003211D01*
X021187Y003182D02*
X020980Y003268D01*
X020757Y003268D01*
X020550Y003182D01*
X020392Y003024D01*
X020306Y002817D01*
X020306Y001888D01*
X020392Y001682D01*
X020550Y001523D01*
X020757Y001438D01*
X020980Y001438D01*
X021187Y001523D01*
X021345Y001682D01*
X021431Y001888D01*
X021431Y002817D01*
X021345Y003024D01*
X021187Y003182D01*
X021257Y003112D02*
X022542Y003112D01*
X022440Y003013D02*
X021350Y003013D01*
X021391Y002915D02*
X022380Y002915D01*
X022346Y002816D02*
X021431Y002816D01*
X021431Y002718D02*
X022334Y002718D01*
X022334Y002619D02*
X021431Y002619D01*
X021431Y002521D02*
X022334Y002521D01*
X022334Y002422D02*
X021431Y002422D01*
X021431Y002324D02*
X022787Y002324D01*
X022787Y002422D02*
X022887Y002422D01*
X022887Y002403D02*
X022887Y003206D01*
X022955Y003195D01*
X023030Y003171D01*
X023100Y003135D01*
X023164Y003089D01*
X023220Y003033D01*
X023267Y002969D01*
X023303Y002898D01*
X023327Y002823D01*
X023339Y002745D01*
X023339Y002403D01*
X022887Y002403D01*
X022887Y002521D02*
X022787Y002521D01*
X022787Y002619D02*
X022887Y002619D01*
X022887Y002718D02*
X022787Y002718D01*
X022787Y002816D02*
X022887Y002816D01*
X022887Y002915D02*
X022787Y002915D01*
X022787Y003013D02*
X022887Y003013D01*
X022887Y003112D02*
X022787Y003112D01*
X023132Y003112D02*
X023353Y003112D01*
X023353Y003013D02*
X023234Y003013D01*
X023294Y002915D02*
X023353Y002915D01*
X023353Y002816D02*
X023328Y002816D01*
X023339Y002718D02*
X023353Y002718D01*
X023339Y002619D02*
X023353Y002619D01*
X023339Y002521D02*
X023353Y002521D01*
X023339Y002422D02*
X023353Y002422D01*
X023339Y002225D02*
X023353Y002225D01*
X023339Y002127D02*
X023353Y002127D01*
X023339Y002028D02*
X023353Y002028D01*
X023353Y001929D02*
X023335Y001929D01*
X023353Y001831D02*
X023310Y001831D01*
X023353Y001732D02*
X023264Y001732D01*
X023181Y001634D02*
X023353Y001634D01*
X022643Y001535D02*
X021199Y001535D01*
X021298Y001634D02*
X022493Y001634D01*
X022410Y001732D02*
X021366Y001732D01*
X021407Y001831D02*
X022364Y001831D01*
X022339Y001929D02*
X021431Y001929D01*
X021431Y002028D02*
X022334Y002028D01*
X022334Y002127D02*
X021431Y002127D01*
X021431Y002225D02*
X022334Y002225D01*
X023353Y003408D02*
X012987Y003408D01*
X012987Y003506D02*
X023353Y003506D01*
X023353Y003605D02*
X012986Y003605D01*
X012986Y003703D02*
X023353Y003703D01*
X023353Y003802D02*
X012985Y003802D01*
X012985Y003900D02*
X023353Y003900D01*
X023353Y003999D02*
X012984Y003999D01*
X012984Y004097D02*
X023353Y004097D01*
X023353Y004196D02*
X012983Y004196D01*
X012983Y004294D02*
X023353Y004294D01*
X023353Y004393D02*
X012982Y004393D01*
X012982Y004492D02*
X023353Y004492D01*
X023353Y004590D02*
X012981Y004590D01*
X012981Y004689D02*
X022125Y004689D01*
X022139Y004683D02*
X021966Y004754D01*
X021834Y004886D01*
X021763Y005059D01*
X021763Y005246D01*
X021834Y005419D01*
X021966Y005551D01*
X022139Y005623D01*
X022846Y005623D01*
X023019Y005551D01*
X023151Y005419D01*
X023223Y005246D01*
X023223Y005059D01*
X023151Y004886D01*
X023019Y004754D01*
X022846Y004683D01*
X022139Y004683D01*
X021934Y004787D02*
X012980Y004787D01*
X012980Y004886D02*
X021835Y004886D01*
X021794Y004984D02*
X012979Y004984D01*
X012979Y005083D02*
X021763Y005083D01*
X021763Y005181D02*
X012979Y005181D01*
X012978Y005280D02*
X021777Y005280D01*
X021818Y005378D02*
X012978Y005378D01*
X012977Y005477D02*
X021892Y005477D01*
X022025Y005576D02*
X019890Y005576D01*
X019797Y005483D02*
X020073Y005758D01*
X020073Y006147D01*
X019987Y006233D01*
X020297Y006233D01*
X020573Y006508D01*
X020573Y006897D01*
X020297Y007173D01*
X019908Y007173D01*
X019633Y006897D01*
X019633Y006508D01*
X019718Y006423D01*
X019487Y006423D01*
X019573Y006508D01*
X019573Y006897D01*
X019297Y007173D01*
X018908Y007173D01*
X018633Y006897D01*
X018633Y006508D01*
X018908Y006233D01*
X019218Y006233D01*
X019133Y006147D01*
X019133Y005758D01*
X019408Y005483D01*
X019797Y005483D01*
X019989Y005674D02*
X023353Y005674D01*
X023353Y005576D02*
X022960Y005576D01*
X022846Y005683D02*
X023019Y005754D01*
X023151Y005886D01*
X023223Y006059D01*
X023223Y006246D01*
X023151Y006419D01*
X023019Y006551D01*
X022846Y006623D01*
X022139Y006623D01*
X021966Y006551D01*
X021834Y006419D01*
X021763Y006246D01*
X021763Y006059D01*
X021834Y005886D01*
X021966Y005754D01*
X022139Y005683D01*
X022846Y005683D01*
X023037Y005773D02*
X023353Y005773D01*
X023353Y005871D02*
X023136Y005871D01*
X023186Y005970D02*
X023353Y005970D01*
X023353Y006068D02*
X023223Y006068D01*
X023223Y006167D02*
X023353Y006167D01*
X023353Y006265D02*
X023215Y006265D01*
X023174Y006364D02*
X023353Y006364D01*
X023353Y006462D02*
X023108Y006462D01*
X022995Y006561D02*
X023353Y006561D01*
X023353Y006660D02*
X020573Y006660D01*
X020573Y006758D02*
X021963Y006758D01*
X021966Y006754D02*
X022139Y006683D01*
X022846Y006683D01*
X023019Y006754D01*
X023151Y006886D01*
X023223Y007059D01*
X023223Y007246D01*
X023151Y007419D01*
X023019Y007551D01*
X022846Y007623D01*
X022139Y007623D01*
X021966Y007551D01*
X021834Y007419D01*
X021763Y007246D01*
X021763Y007059D01*
X021834Y006886D01*
X021966Y006754D01*
X021864Y006857D02*
X020573Y006857D01*
X020515Y006955D02*
X021806Y006955D01*
X021765Y007054D02*
X020416Y007054D01*
X020318Y007152D02*
X021763Y007152D01*
X021765Y007251D02*
X018665Y007251D01*
X018673Y007258D02*
X018673Y007647D01*
X018397Y007923D01*
X018501Y008026D01*
X018573Y008199D01*
X018573Y008906D01*
X018501Y009079D01*
X018369Y009211D01*
X018196Y009283D01*
X018009Y009283D01*
X017836Y009211D01*
X017704Y009079D01*
X017633Y008906D01*
X017633Y008199D01*
X017704Y008026D01*
X017836Y007894D01*
X017938Y007852D01*
X017733Y007647D01*
X017733Y007258D01*
X018008Y006983D01*
X018397Y006983D01*
X018673Y007258D01*
X018673Y007349D02*
X021805Y007349D01*
X021863Y007448D02*
X018673Y007448D01*
X018673Y007546D02*
X021962Y007546D01*
X022097Y007744D02*
X018577Y007744D01*
X018673Y007645D02*
X022196Y007645D01*
X022208Y007633D02*
X022597Y007633D01*
X022873Y007908D01*
X022873Y008297D01*
X022597Y008573D01*
X022208Y008573D01*
X021933Y008297D01*
X021933Y007908D01*
X022208Y007633D01*
X021999Y007842D02*
X020243Y007842D01*
X020196Y007823D02*
X020369Y007894D01*
X020501Y008026D01*
X020573Y008199D01*
X020573Y008906D01*
X020501Y009079D01*
X020369Y009211D01*
X020196Y009283D01*
X020009Y009283D01*
X019836Y009211D01*
X019704Y009079D01*
X019633Y008906D01*
X019633Y008199D01*
X019704Y008026D01*
X019836Y007894D01*
X020009Y007823D01*
X020196Y007823D01*
X019963Y007842D02*
X019243Y007842D01*
X019196Y007823D02*
X019369Y007894D01*
X019501Y008026D01*
X019573Y008199D01*
X019573Y008906D01*
X019501Y009079D01*
X019369Y009211D01*
X019196Y009283D01*
X019009Y009283D01*
X018836Y009211D01*
X018704Y009079D01*
X018633Y008906D01*
X018633Y008199D01*
X018704Y008026D01*
X018836Y007894D01*
X019009Y007823D01*
X019196Y007823D01*
X018963Y007842D02*
X018478Y007842D01*
X018397Y007923D02*
X018397Y007923D01*
X018415Y007941D02*
X018790Y007941D01*
X018699Y008039D02*
X018506Y008039D01*
X018547Y008138D02*
X018658Y008138D01*
X018633Y008236D02*
X018573Y008236D01*
X018573Y008335D02*
X018633Y008335D01*
X018633Y008433D02*
X018573Y008433D01*
X018573Y008532D02*
X018633Y008532D01*
X018633Y008630D02*
X018573Y008630D01*
X018573Y008729D02*
X018633Y008729D01*
X018633Y008827D02*
X018573Y008827D01*
X018565Y008926D02*
X018641Y008926D01*
X018682Y009025D02*
X018524Y009025D01*
X018457Y009123D02*
X018748Y009123D01*
X018862Y009222D02*
X018344Y009222D01*
X017862Y009222D02*
X012958Y009222D01*
X012958Y009320D02*
X023353Y009320D01*
X023353Y009222D02*
X020344Y009222D01*
X020457Y009123D02*
X023353Y009123D01*
X023353Y009025D02*
X020524Y009025D01*
X020565Y008926D02*
X023353Y008926D01*
X023353Y008827D02*
X020573Y008827D01*
X020573Y008729D02*
X023353Y008729D01*
X023353Y008630D02*
X020573Y008630D01*
X020573Y008532D02*
X022167Y008532D01*
X022069Y008433D02*
X020573Y008433D01*
X020573Y008335D02*
X021970Y008335D01*
X021933Y008236D02*
X020573Y008236D01*
X020547Y008138D02*
X021933Y008138D01*
X021933Y008039D02*
X020506Y008039D01*
X020415Y007941D02*
X021933Y007941D01*
X022610Y007645D02*
X023353Y007645D01*
X023353Y007744D02*
X022708Y007744D01*
X022807Y007842D02*
X023353Y007842D01*
X023353Y007941D02*
X022873Y007941D01*
X022873Y008039D02*
X023353Y008039D01*
X023353Y008138D02*
X022873Y008138D01*
X022873Y008236D02*
X023353Y008236D01*
X023353Y008335D02*
X022835Y008335D01*
X022737Y008433D02*
X023353Y008433D01*
X023353Y008532D02*
X022638Y008532D01*
X023024Y007546D02*
X023353Y007546D01*
X023353Y007448D02*
X023122Y007448D01*
X023180Y007349D02*
X023353Y007349D01*
X023353Y007251D02*
X023221Y007251D01*
X023223Y007152D02*
X023353Y007152D01*
X023353Y007054D02*
X023220Y007054D01*
X023180Y006955D02*
X023353Y006955D01*
X023353Y006857D02*
X023121Y006857D01*
X023023Y006758D02*
X023353Y006758D01*
X023353Y005477D02*
X023093Y005477D01*
X023168Y005378D02*
X023353Y005378D01*
X023353Y005280D02*
X023209Y005280D01*
X023223Y005181D02*
X023353Y005181D01*
X023353Y005083D02*
X023223Y005083D01*
X023192Y004984D02*
X023353Y004984D01*
X023353Y004886D02*
X023150Y004886D01*
X023052Y004787D02*
X023353Y004787D01*
X023353Y004689D02*
X022860Y004689D01*
X021948Y005773D02*
X020073Y005773D01*
X020073Y005871D02*
X021850Y005871D01*
X021800Y005970D02*
X020073Y005970D01*
X020073Y006068D02*
X021763Y006068D01*
X021763Y006167D02*
X020053Y006167D01*
X020330Y006265D02*
X021771Y006265D01*
X021811Y006364D02*
X020429Y006364D01*
X020527Y006462D02*
X021878Y006462D01*
X021990Y006561D02*
X020573Y006561D01*
X019888Y007152D02*
X019318Y007152D01*
X019416Y007054D02*
X019789Y007054D01*
X019691Y006955D02*
X019515Y006955D01*
X019573Y006857D02*
X019633Y006857D01*
X019633Y006758D02*
X019573Y006758D01*
X019573Y006660D02*
X019633Y006660D01*
X019633Y006561D02*
X019573Y006561D01*
X019527Y006462D02*
X019678Y006462D01*
X019152Y006167D02*
X012974Y006167D01*
X012973Y006265D02*
X018875Y006265D01*
X018777Y006364D02*
X012973Y006364D01*
X012972Y006462D02*
X018678Y006462D01*
X018633Y006561D02*
X012972Y006561D01*
X012971Y006660D02*
X018633Y006660D01*
X018633Y006758D02*
X012971Y006758D01*
X012970Y006857D02*
X018633Y006857D01*
X018691Y006955D02*
X012970Y006955D01*
X012969Y007054D02*
X014022Y007054D01*
X014033Y007043D02*
X014173Y007043D01*
X014173Y007422D01*
X014233Y007422D01*
X014233Y007043D01*
X014373Y007043D01*
X014613Y007283D01*
X014613Y007423D01*
X014233Y007423D01*
X014233Y007483D01*
X014613Y007483D01*
X014613Y007623D01*
X014373Y007863D01*
X014233Y007863D01*
X014233Y007483D01*
X014173Y007483D01*
X014173Y007863D01*
X014033Y007863D01*
X013793Y007623D01*
X013793Y007483D01*
X014172Y007483D01*
X014172Y007423D01*
X013793Y007423D01*
X013793Y007283D01*
X014033Y007043D01*
X014173Y007054D02*
X014233Y007054D01*
X014233Y007152D02*
X014173Y007152D01*
X014173Y007251D02*
X014233Y007251D01*
X014233Y007349D02*
X014173Y007349D01*
X014172Y007448D02*
X012967Y007448D01*
X012967Y007546D02*
X013793Y007546D01*
X013815Y007645D02*
X012966Y007645D01*
X012966Y007744D02*
X013914Y007744D01*
X014012Y007842D02*
X012965Y007842D01*
X012965Y007941D02*
X017790Y007941D01*
X017699Y008039D02*
X012964Y008039D01*
X012964Y008138D02*
X017658Y008138D01*
X017633Y008236D02*
X012963Y008236D01*
X012963Y008335D02*
X017633Y008335D01*
X017633Y008433D02*
X012962Y008433D01*
X012962Y008532D02*
X017633Y008532D01*
X017633Y008630D02*
X012961Y008630D01*
X012961Y008729D02*
X017633Y008729D01*
X017633Y008827D02*
X012960Y008827D01*
X012960Y008926D02*
X017641Y008926D01*
X017682Y009025D02*
X012959Y009025D01*
X012959Y009123D02*
X017748Y009123D01*
X017547Y009883D02*
X017158Y009883D01*
X016883Y010158D01*
X016883Y010547D01*
X017158Y010823D01*
X017547Y010823D01*
X017823Y010547D01*
X017823Y010158D01*
X017547Y009883D01*
X017576Y009911D02*
X018129Y009911D01*
X018158Y009883D02*
X018547Y009883D01*
X018823Y010158D01*
X018823Y010547D01*
X018547Y010823D01*
X018158Y010823D01*
X017883Y010547D01*
X017883Y010158D01*
X018158Y009883D01*
X018031Y010010D02*
X017675Y010010D01*
X017773Y010109D02*
X017932Y010109D01*
X017883Y010207D02*
X017823Y010207D01*
X017823Y010306D02*
X017883Y010306D01*
X017883Y010404D02*
X017823Y010404D01*
X017823Y010503D02*
X017883Y010503D01*
X017937Y010601D02*
X017769Y010601D01*
X017670Y010700D02*
X018035Y010700D01*
X018134Y010798D02*
X017572Y010798D01*
X017134Y010798D02*
X015572Y010798D01*
X015547Y010823D02*
X015158Y010823D01*
X014883Y010547D01*
X014883Y010158D01*
X015158Y009883D01*
X015547Y009883D01*
X015823Y010158D01*
X015823Y010547D01*
X015547Y010823D01*
X015670Y010700D02*
X016120Y010700D01*
X016183Y010763D02*
X015943Y010523D01*
X015943Y010383D01*
X016322Y010383D01*
X016322Y010323D01*
X015943Y010323D01*
X015943Y010183D01*
X016183Y009943D01*
X016323Y009943D01*
X016323Y010322D01*
X016383Y010322D01*
X016383Y009943D01*
X016523Y009943D01*
X016763Y010183D01*
X016763Y010323D01*
X016383Y010323D01*
X016383Y010383D01*
X016323Y010383D01*
X016323Y010763D01*
X016183Y010763D01*
X016323Y010700D02*
X016383Y010700D01*
X016383Y010763D02*
X016383Y010383D01*
X016763Y010383D01*
X016763Y010523D01*
X016523Y010763D01*
X016383Y010763D01*
X016383Y010601D02*
X016323Y010601D01*
X016323Y010503D02*
X016383Y010503D01*
X016383Y010404D02*
X016323Y010404D01*
X016323Y010306D02*
X016383Y010306D01*
X016383Y010207D02*
X016323Y010207D01*
X016323Y010109D02*
X016383Y010109D01*
X016383Y010010D02*
X016323Y010010D01*
X016116Y010010D02*
X015675Y010010D01*
X015773Y010109D02*
X016017Y010109D01*
X015943Y010207D02*
X015823Y010207D01*
X015823Y010306D02*
X015943Y010306D01*
X015943Y010404D02*
X015823Y010404D01*
X015823Y010503D02*
X015943Y010503D01*
X016021Y010601D02*
X015769Y010601D01*
X015134Y010798D02*
X014403Y010798D01*
X014403Y010700D02*
X015035Y010700D01*
X014937Y010601D02*
X014403Y010601D01*
X014403Y010503D02*
X014883Y010503D01*
X014883Y010404D02*
X014403Y010404D01*
X014403Y010306D02*
X014883Y010306D01*
X014883Y010207D02*
X012953Y010207D01*
X012954Y010109D02*
X014932Y010109D01*
X015031Y010010D02*
X012954Y010010D01*
X012955Y009911D02*
X015129Y009911D01*
X015576Y009911D02*
X017129Y009911D01*
X017031Y010010D02*
X016590Y010010D01*
X016688Y010109D02*
X016932Y010109D01*
X016883Y010207D02*
X016763Y010207D01*
X016763Y010306D02*
X016883Y010306D01*
X016883Y010404D02*
X016763Y010404D01*
X016763Y010503D02*
X016883Y010503D01*
X016937Y010601D02*
X016684Y010601D01*
X016585Y010700D02*
X017035Y010700D01*
X018572Y010798D02*
X019134Y010798D01*
X019158Y010823D02*
X018883Y010547D01*
X018883Y010158D01*
X019158Y009883D01*
X019547Y009883D01*
X019823Y010158D01*
X019823Y010547D01*
X019547Y010823D01*
X019158Y010823D01*
X019035Y010700D02*
X018670Y010700D01*
X018769Y010601D02*
X018937Y010601D01*
X018883Y010503D02*
X018823Y010503D01*
X018823Y010404D02*
X018883Y010404D01*
X018883Y010306D02*
X018823Y010306D01*
X018823Y010207D02*
X018883Y010207D01*
X018932Y010109D02*
X018773Y010109D01*
X018675Y010010D02*
X019031Y010010D01*
X019129Y009911D02*
X018576Y009911D01*
X019576Y009911D02*
X019863Y009911D01*
X019894Y009836D02*
X020026Y009704D01*
X020199Y009633D01*
X020906Y009633D01*
X021079Y009704D01*
X021211Y009836D01*
X021283Y010009D01*
X021283Y010196D01*
X021211Y010369D01*
X021079Y010501D01*
X020906Y010573D01*
X020199Y010573D01*
X020026Y010501D01*
X019894Y010369D01*
X019823Y010196D01*
X019823Y010009D01*
X019894Y009836D01*
X019918Y009813D02*
X012955Y009813D01*
X012956Y009714D02*
X020016Y009714D01*
X019823Y010010D02*
X019675Y010010D01*
X019773Y010109D02*
X019823Y010109D01*
X019823Y010207D02*
X019827Y010207D01*
X019823Y010306D02*
X019868Y010306D01*
X019823Y010404D02*
X019929Y010404D01*
X020030Y010503D02*
X019823Y010503D01*
X019769Y010601D02*
X023353Y010601D01*
X023353Y010503D02*
X021075Y010503D01*
X021176Y010404D02*
X023353Y010404D01*
X023353Y010306D02*
X021237Y010306D01*
X021278Y010207D02*
X023353Y010207D01*
X023353Y010109D02*
X021283Y010109D01*
X021283Y010010D02*
X023353Y010010D01*
X023353Y009911D02*
X021242Y009911D01*
X021188Y009813D02*
X023353Y009813D01*
X023353Y009714D02*
X021089Y009714D01*
X020906Y010633D02*
X020199Y010633D01*
X020026Y010704D01*
X019894Y010836D01*
X019823Y011009D01*
X019823Y011196D01*
X019894Y011369D01*
X020026Y011501D01*
X020199Y011573D01*
X020906Y011573D01*
X021079Y011501D01*
X021211Y011369D01*
X021283Y011196D01*
X021283Y011009D01*
X021211Y010836D01*
X021079Y010704D01*
X020906Y010633D01*
X021068Y010700D02*
X023353Y010700D01*
X023353Y010798D02*
X021173Y010798D01*
X021236Y010897D02*
X023353Y010897D01*
X023353Y010995D02*
X021277Y010995D01*
X021283Y011094D02*
X023353Y011094D01*
X023353Y011193D02*
X021283Y011193D01*
X021243Y011291D02*
X023353Y011291D01*
X023353Y011390D02*
X021191Y011390D01*
X021092Y011488D02*
X023353Y011488D01*
X023353Y011587D02*
X014403Y011587D01*
X014403Y011685D02*
X020072Y011685D01*
X020026Y011704D02*
X020199Y011633D01*
X020906Y011633D01*
X021079Y011704D01*
X021211Y011836D01*
X021283Y012009D01*
X021283Y012196D01*
X021211Y012369D01*
X021079Y012501D01*
X020906Y012573D01*
X020199Y012573D01*
X020026Y012501D01*
X019894Y012369D01*
X019823Y012196D01*
X019823Y012009D01*
X019894Y011836D01*
X020026Y011704D01*
X019947Y011784D02*
X014403Y011784D01*
X014403Y011882D02*
X019875Y011882D01*
X019834Y011981D02*
X014403Y011981D01*
X014403Y012079D02*
X019823Y012079D01*
X019823Y012178D02*
X014403Y012178D01*
X014403Y012276D02*
X019856Y012276D01*
X019900Y012375D02*
X014403Y012375D01*
X014403Y012474D02*
X019999Y012474D01*
X020198Y012572D02*
X014403Y012572D01*
X014403Y012671D02*
X023353Y012671D01*
X023353Y012769D02*
X014403Y012769D01*
X014403Y012868D02*
X020123Y012868D01*
X020158Y012833D02*
X019883Y013108D01*
X019883Y013497D01*
X020158Y013773D01*
X020547Y013773D01*
X020823Y013497D01*
X020823Y013108D01*
X020547Y012833D01*
X020158Y012833D01*
X020025Y012966D02*
X014403Y012966D01*
X014403Y013065D02*
X019926Y013065D01*
X019883Y013163D02*
X014403Y013163D01*
X014403Y013262D02*
X019883Y013262D01*
X019883Y013360D02*
X014403Y013360D01*
X014403Y013459D02*
X019883Y013459D01*
X019943Y013558D02*
X014403Y013558D01*
X014403Y013656D02*
X020041Y013656D01*
X020140Y013755D02*
X014403Y013755D01*
X014403Y013853D02*
X023353Y013853D01*
X023353Y013755D02*
X021565Y013755D01*
X021547Y013773D02*
X021158Y013773D01*
X020883Y013497D01*
X020883Y013108D01*
X021158Y012833D01*
X021547Y012833D01*
X021823Y013108D01*
X021823Y013497D01*
X021547Y013773D01*
X021664Y013656D02*
X023353Y013656D01*
X023353Y013558D02*
X021763Y013558D01*
X021823Y013459D02*
X023353Y013459D01*
X023353Y013360D02*
X021823Y013360D01*
X021823Y013262D02*
X023353Y013262D01*
X023353Y013163D02*
X021823Y013163D01*
X021779Y013065D02*
X023353Y013065D01*
X023353Y012966D02*
X021681Y012966D01*
X021582Y012868D02*
X023353Y012868D01*
X023353Y012572D02*
X022598Y012572D01*
X022597Y012573D02*
X022208Y012573D01*
X021933Y012297D01*
X021933Y011908D01*
X022208Y011633D01*
X022597Y011633D01*
X022873Y011908D01*
X022873Y012297D01*
X022597Y012573D01*
X022697Y012474D02*
X023353Y012474D01*
X023353Y012375D02*
X022795Y012375D01*
X022873Y012276D02*
X023353Y012276D01*
X023353Y012178D02*
X022873Y012178D01*
X022873Y012079D02*
X023353Y012079D01*
X023353Y011981D02*
X022873Y011981D01*
X022847Y011882D02*
X023353Y011882D01*
X023353Y011784D02*
X022748Y011784D01*
X022650Y011685D02*
X023353Y011685D01*
X022156Y011685D02*
X021033Y011685D01*
X021158Y011784D02*
X022057Y011784D01*
X021959Y011882D02*
X021230Y011882D01*
X021271Y011981D02*
X021933Y011981D01*
X021933Y012079D02*
X021283Y012079D01*
X021283Y012178D02*
X021933Y012178D01*
X021933Y012276D02*
X021249Y012276D01*
X021205Y012375D02*
X022010Y012375D01*
X022109Y012474D02*
X021107Y012474D01*
X020908Y012572D02*
X022207Y012572D01*
X021140Y013755D02*
X020565Y013755D01*
X020664Y013656D02*
X021041Y013656D01*
X020943Y013558D02*
X020763Y013558D01*
X020823Y013459D02*
X020883Y013459D01*
X020883Y013360D02*
X020823Y013360D01*
X020823Y013262D02*
X020883Y013262D01*
X020883Y013163D02*
X020823Y013163D01*
X020779Y013065D02*
X020926Y013065D01*
X021025Y012966D02*
X020681Y012966D01*
X020582Y012868D02*
X021123Y012868D01*
X019823Y014158D02*
X019547Y013883D01*
X019158Y013883D01*
X018883Y014158D01*
X018883Y014547D01*
X019158Y014823D01*
X019547Y014823D01*
X019823Y014547D01*
X019823Y014158D01*
X019813Y014149D02*
X023353Y014149D01*
X023353Y014247D02*
X019823Y014247D01*
X019823Y014346D02*
X023353Y014346D01*
X023353Y014444D02*
X019823Y014444D01*
X019823Y014543D02*
X023353Y014543D01*
X023353Y014642D02*
X019729Y014642D01*
X019630Y014740D02*
X023353Y014740D01*
X023353Y014839D02*
X019581Y014839D01*
X019570Y014828D02*
X019878Y015135D01*
X019878Y015570D01*
X019570Y015878D01*
X019135Y015878D01*
X018828Y015570D01*
X018828Y015135D01*
X019135Y014828D01*
X019570Y014828D01*
X019680Y014937D02*
X023353Y014937D01*
X023353Y015036D02*
X019778Y015036D01*
X019877Y015134D02*
X023353Y015134D01*
X023353Y015233D02*
X019878Y015233D01*
X019878Y015331D02*
X023353Y015331D01*
X023353Y015430D02*
X019878Y015430D01*
X019878Y015528D02*
X023353Y015528D01*
X023353Y015627D02*
X019821Y015627D01*
X019722Y015726D02*
X023353Y015726D01*
X023353Y015824D02*
X019624Y015824D01*
X019545Y015888D02*
X019818Y016160D01*
X019818Y016323D01*
X019383Y016323D01*
X019383Y016383D01*
X019323Y016383D01*
X019323Y016818D01*
X019160Y016818D01*
X018888Y016545D01*
X018888Y016383D01*
X019322Y016383D01*
X019322Y016323D01*
X018888Y016323D01*
X018888Y016160D01*
X019160Y015888D01*
X019323Y015888D01*
X019323Y016322D01*
X019383Y016322D01*
X019383Y015888D01*
X019545Y015888D01*
X019580Y015923D02*
X023353Y015923D01*
X023353Y016021D02*
X019679Y016021D01*
X019777Y016120D02*
X023353Y016120D01*
X023353Y016218D02*
X019818Y016218D01*
X019818Y016317D02*
X023353Y016317D01*
X023353Y016415D02*
X019818Y016415D01*
X019818Y016383D02*
X019818Y016545D01*
X019545Y016818D01*
X019383Y016818D01*
X019383Y016383D01*
X019818Y016383D01*
X019818Y016514D02*
X023353Y016514D01*
X023353Y016612D02*
X019751Y016612D01*
X019652Y016711D02*
X023353Y016711D01*
X023353Y016809D02*
X019554Y016809D01*
X019383Y016809D02*
X019323Y016809D01*
X019323Y016711D02*
X019383Y016711D01*
X019383Y016612D02*
X019323Y016612D01*
X019323Y016514D02*
X019383Y016514D01*
X019383Y016415D02*
X019323Y016415D01*
X019323Y016317D02*
X019383Y016317D01*
X019383Y016218D02*
X019323Y016218D01*
X019323Y016120D02*
X019383Y016120D01*
X019383Y016021D02*
X019323Y016021D01*
X019323Y015923D02*
X019383Y015923D01*
X019125Y015923D02*
X017680Y015923D01*
X017670Y015878D02*
X017235Y015878D01*
X016928Y015570D01*
X016928Y015135D01*
X017235Y014828D01*
X017670Y014828D01*
X017978Y015135D01*
X017978Y015570D01*
X017670Y015878D01*
X017645Y015888D02*
X017918Y016160D01*
X017918Y016323D01*
X017483Y016323D01*
X017483Y016383D01*
X017423Y016383D01*
X017423Y016818D01*
X017260Y016818D01*
X016988Y016545D01*
X016988Y016383D01*
X017422Y016383D01*
X017422Y016323D01*
X016988Y016323D01*
X016988Y016160D01*
X017260Y015888D01*
X017423Y015888D01*
X017423Y016322D01*
X017483Y016322D01*
X017483Y015888D01*
X017645Y015888D01*
X017724Y015824D02*
X019082Y015824D01*
X018983Y015726D02*
X017822Y015726D01*
X017921Y015627D02*
X018885Y015627D01*
X018828Y015528D02*
X017978Y015528D01*
X017978Y015430D02*
X018828Y015430D01*
X018828Y015331D02*
X017978Y015331D01*
X017978Y015233D02*
X018828Y015233D01*
X018829Y015134D02*
X017977Y015134D01*
X017878Y015036D02*
X018927Y015036D01*
X019026Y014937D02*
X017780Y014937D01*
X017681Y014839D02*
X019124Y014839D01*
X019075Y014740D02*
X018630Y014740D01*
X018547Y014823D02*
X018823Y014547D01*
X018823Y014158D01*
X018547Y013883D01*
X018158Y013883D01*
X017883Y014158D01*
X017883Y014547D01*
X018158Y014823D01*
X018547Y014823D01*
X018729Y014642D02*
X018977Y014642D01*
X018883Y014543D02*
X018823Y014543D01*
X018823Y014444D02*
X018883Y014444D01*
X018883Y014346D02*
X018823Y014346D01*
X018823Y014247D02*
X018883Y014247D01*
X018892Y014149D02*
X018813Y014149D01*
X018715Y014050D02*
X018991Y014050D01*
X019089Y013952D02*
X018616Y013952D01*
X018089Y013952D02*
X017616Y013952D01*
X017547Y013883D02*
X017823Y014158D01*
X017823Y014547D01*
X017547Y014823D01*
X017158Y014823D01*
X016883Y014547D01*
X016883Y014158D01*
X017158Y013883D01*
X017547Y013883D01*
X017715Y014050D02*
X017991Y014050D01*
X017892Y014149D02*
X017813Y014149D01*
X017823Y014247D02*
X017883Y014247D01*
X017883Y014346D02*
X017823Y014346D01*
X017823Y014444D02*
X017883Y014444D01*
X017883Y014543D02*
X017823Y014543D01*
X017729Y014642D02*
X017977Y014642D01*
X018075Y014740D02*
X017630Y014740D01*
X017224Y014839D02*
X016481Y014839D01*
X016470Y014828D02*
X016035Y014828D01*
X015728Y015135D01*
X015728Y015570D01*
X016010Y015853D01*
X015728Y016135D01*
X015728Y016570D01*
X016035Y016878D01*
X016470Y016878D01*
X016778Y016570D01*
X016778Y016135D01*
X016495Y015853D01*
X016778Y015570D01*
X016778Y015135D01*
X016470Y014828D01*
X016547Y014823D02*
X016158Y014823D01*
X015883Y014547D01*
X015883Y014158D01*
X016158Y013883D01*
X016547Y013883D01*
X016823Y014158D01*
X016823Y014547D01*
X016547Y014823D01*
X016630Y014740D02*
X017075Y014740D01*
X016977Y014642D02*
X016729Y014642D01*
X016823Y014543D02*
X016883Y014543D01*
X016883Y014444D02*
X016823Y014444D01*
X016823Y014346D02*
X016883Y014346D01*
X016883Y014247D02*
X016823Y014247D01*
X016813Y014149D02*
X016892Y014149D01*
X016991Y014050D02*
X016715Y014050D01*
X016616Y013952D02*
X017089Y013952D01*
X017126Y014937D02*
X016580Y014937D01*
X016678Y015036D02*
X017027Y015036D01*
X016929Y015134D02*
X016777Y015134D01*
X016778Y015233D02*
X016928Y015233D01*
X016928Y015331D02*
X016778Y015331D01*
X016778Y015430D02*
X016928Y015430D01*
X016928Y015528D02*
X016778Y015528D01*
X016721Y015627D02*
X016985Y015627D01*
X017083Y015726D02*
X016622Y015726D01*
X016524Y015824D02*
X017182Y015824D01*
X017225Y015923D02*
X016565Y015923D01*
X016664Y016021D02*
X017127Y016021D01*
X017028Y016120D02*
X016762Y016120D01*
X016778Y016218D02*
X016988Y016218D01*
X016988Y016317D02*
X016778Y016317D01*
X016778Y016415D02*
X016988Y016415D01*
X016988Y016514D02*
X016778Y016514D01*
X016736Y016612D02*
X017055Y016612D01*
X017153Y016711D02*
X016637Y016711D01*
X016538Y016809D02*
X017252Y016809D01*
X017423Y016809D02*
X017483Y016809D01*
X017483Y016818D02*
X017483Y016383D01*
X017918Y016383D01*
X017918Y016545D01*
X017645Y016818D01*
X017483Y016818D01*
X017483Y016711D02*
X017423Y016711D01*
X017423Y016612D02*
X017483Y016612D01*
X017483Y016514D02*
X017423Y016514D01*
X017423Y016415D02*
X017483Y016415D01*
X017483Y016317D02*
X017423Y016317D01*
X017423Y016218D02*
X017483Y016218D01*
X017483Y016120D02*
X017423Y016120D01*
X017423Y016021D02*
X017483Y016021D01*
X017483Y015923D02*
X017423Y015923D01*
X017779Y016021D02*
X019027Y016021D01*
X018928Y016120D02*
X017877Y016120D01*
X017918Y016218D02*
X018888Y016218D01*
X018888Y016317D02*
X017918Y016317D01*
X017918Y016415D02*
X018888Y016415D01*
X018888Y016514D02*
X017918Y016514D01*
X017851Y016612D02*
X018955Y016612D01*
X019053Y016711D02*
X017752Y016711D01*
X017654Y016809D02*
X019152Y016809D01*
X019883Y017108D02*
X020158Y016833D01*
X020547Y016833D01*
X020823Y017108D01*
X020823Y017497D01*
X020547Y017773D01*
X020158Y017773D01*
X019883Y017497D01*
X019883Y017108D01*
X019886Y017105D02*
X014780Y017105D01*
X014863Y017023D02*
X014623Y017263D01*
X014483Y017263D01*
X014483Y016883D01*
X014863Y016883D01*
X014863Y017023D01*
X014863Y017007D02*
X019984Y017007D01*
X020083Y016908D02*
X014863Y016908D01*
X014863Y016809D02*
X015967Y016809D01*
X015869Y016711D02*
X014863Y016711D01*
X014792Y016612D02*
X015770Y016612D01*
X015728Y016514D02*
X014694Y016514D01*
X014483Y016514D02*
X014423Y016514D01*
X014423Y016612D02*
X014483Y016612D01*
X014483Y016711D02*
X014423Y016711D01*
X014423Y016809D02*
X014483Y016809D01*
X014483Y016908D02*
X014423Y016908D01*
X014423Y017007D02*
X014483Y017007D01*
X014483Y017105D02*
X014423Y017105D01*
X014423Y017204D02*
X014483Y017204D01*
X014403Y017302D02*
X019883Y017302D01*
X019883Y017204D02*
X014682Y017204D01*
X014403Y017401D02*
X019883Y017401D01*
X019885Y017499D02*
X014403Y017499D01*
X014403Y017598D02*
X019983Y017598D01*
X020082Y017696D02*
X014403Y017696D01*
X014403Y017795D02*
X023353Y017795D01*
X023353Y017893D02*
X022808Y017893D01*
X022797Y017883D02*
X023073Y018158D01*
X023073Y018547D01*
X022797Y018823D01*
X022408Y018823D01*
X022133Y018547D01*
X022133Y018158D01*
X022408Y017883D01*
X022797Y017883D01*
X022907Y017992D02*
X023353Y017992D01*
X023353Y018091D02*
X023005Y018091D01*
X023073Y018189D02*
X023353Y018189D01*
X023353Y018288D02*
X023073Y018288D01*
X023073Y018386D02*
X023353Y018386D01*
X023353Y018485D02*
X023073Y018485D01*
X023037Y018583D02*
X023353Y018583D01*
X023353Y018682D02*
X022938Y018682D01*
X022840Y018780D02*
X023353Y018780D01*
X023353Y018879D02*
X021771Y018879D01*
X021745Y018853D02*
X022028Y019135D01*
X022028Y019570D01*
X021720Y019878D01*
X021285Y019878D01*
X021016Y019608D01*
X021011Y019619D01*
X020879Y019751D01*
X020706Y019823D01*
X019999Y019823D01*
X019826Y019751D01*
X019694Y019619D01*
X019623Y019446D01*
X019623Y019259D01*
X019694Y019086D01*
X019826Y018954D01*
X019999Y018883D01*
X020706Y018883D01*
X020879Y018954D01*
X021011Y019086D01*
X021016Y019097D01*
X021260Y018853D01*
X021016Y018608D01*
X021011Y018619D01*
X020879Y018751D01*
X020706Y018823D01*
X019999Y018823D01*
X019826Y018751D01*
X019694Y018619D01*
X019623Y018446D01*
X019623Y018259D01*
X019694Y018086D01*
X019826Y017954D01*
X019999Y017883D01*
X020706Y017883D01*
X020879Y017954D01*
X021011Y018086D01*
X021016Y018097D01*
X021285Y017828D01*
X021720Y017828D01*
X022028Y018135D01*
X022028Y018570D01*
X021745Y018853D01*
X021818Y018780D02*
X022366Y018780D01*
X022267Y018682D02*
X021916Y018682D01*
X022015Y018583D02*
X022169Y018583D01*
X022133Y018485D02*
X022028Y018485D01*
X022028Y018386D02*
X022133Y018386D01*
X022133Y018288D02*
X022028Y018288D01*
X022028Y018189D02*
X022133Y018189D01*
X022200Y018091D02*
X021983Y018091D01*
X021884Y017992D02*
X022299Y017992D01*
X022397Y017893D02*
X021786Y017893D01*
X021624Y017696D02*
X023353Y017696D01*
X023353Y017598D02*
X021722Y017598D01*
X021821Y017499D02*
X023353Y017499D01*
X023353Y017401D02*
X021823Y017401D01*
X021823Y017497D02*
X021547Y017773D01*
X021158Y017773D01*
X020883Y017497D01*
X020883Y017108D01*
X021158Y016833D01*
X021547Y016833D01*
X021823Y017108D01*
X021823Y017497D01*
X021823Y017302D02*
X023353Y017302D01*
X023353Y017204D02*
X021823Y017204D01*
X021820Y017105D02*
X023353Y017105D01*
X023353Y017007D02*
X021721Y017007D01*
X021623Y016908D02*
X023353Y016908D01*
X023353Y018977D02*
X021870Y018977D01*
X021968Y019076D02*
X023353Y019076D01*
X023353Y019175D02*
X022028Y019175D01*
X022028Y019273D02*
X023353Y019273D01*
X023353Y019372D02*
X022028Y019372D01*
X022028Y019470D02*
X023353Y019470D01*
X023353Y019569D02*
X022028Y019569D01*
X021931Y019667D02*
X023353Y019667D01*
X023353Y019766D02*
X021832Y019766D01*
X021734Y019864D02*
X023353Y019864D01*
X023353Y019963D02*
X021770Y019963D01*
X021695Y019888D02*
X021968Y020160D01*
X021968Y020323D01*
X021533Y020323D01*
X021533Y020383D01*
X021473Y020383D01*
X021473Y020818D01*
X021310Y020818D01*
X021041Y020548D01*
X021011Y020619D01*
X020879Y020751D01*
X020706Y020823D01*
X019999Y020823D01*
X019826Y020751D01*
X019694Y020619D01*
X019623Y020446D01*
X019623Y020259D01*
X019694Y020086D01*
X019826Y019954D01*
X019999Y019883D01*
X020706Y019883D01*
X020879Y019954D01*
X021011Y020086D01*
X021041Y020157D01*
X021310Y019888D01*
X021473Y019888D01*
X021473Y020322D01*
X021533Y020322D01*
X021533Y019888D01*
X021695Y019888D01*
X021533Y019963D02*
X021473Y019963D01*
X021473Y020061D02*
X021533Y020061D01*
X021533Y020160D02*
X021473Y020160D01*
X021473Y020259D02*
X021533Y020259D01*
X021533Y020357D02*
X023353Y020357D01*
X023353Y020259D02*
X021968Y020259D01*
X021968Y020160D02*
X023353Y020160D01*
X023353Y020061D02*
X021869Y020061D01*
X021968Y020383D02*
X021533Y020383D01*
X021533Y020818D01*
X021695Y020818D01*
X021968Y020545D01*
X021968Y020383D01*
X021968Y020456D02*
X023353Y020456D01*
X023353Y020554D02*
X021959Y020554D01*
X021860Y020653D02*
X023353Y020653D01*
X023353Y020751D02*
X021762Y020751D01*
X021720Y020828D02*
X021285Y020828D01*
X021016Y021097D01*
X021011Y021086D01*
X020879Y020954D01*
X020706Y020883D01*
X019999Y020883D01*
X019826Y020954D01*
X019694Y021086D01*
X019623Y021259D01*
X019623Y021446D01*
X019694Y021619D01*
X019826Y021751D01*
X019999Y021823D01*
X020706Y021823D01*
X020879Y021751D01*
X021011Y021619D01*
X021016Y021608D01*
X021285Y021878D01*
X021720Y021878D01*
X022028Y021570D01*
X022028Y021135D01*
X021720Y020828D01*
X021742Y020850D02*
X023353Y020850D01*
X023353Y020948D02*
X021841Y020948D01*
X021939Y021047D02*
X023353Y021047D01*
X023353Y021145D02*
X022028Y021145D01*
X022028Y021244D02*
X023353Y021244D01*
X023353Y021342D02*
X022028Y021342D01*
X022028Y021441D02*
X023353Y021441D01*
X023353Y021540D02*
X022028Y021540D01*
X021960Y021638D02*
X023353Y021638D01*
X023353Y021737D02*
X021861Y021737D01*
X021763Y021835D02*
X023353Y021835D01*
X023353Y021934D02*
X022848Y021934D01*
X022797Y021883D02*
X023073Y022158D01*
X023073Y022547D01*
X022797Y022823D01*
X022408Y022823D01*
X022133Y022547D01*
X022133Y022158D01*
X022408Y021883D01*
X022797Y021883D01*
X022947Y022032D02*
X023353Y022032D01*
X023353Y022131D02*
X023045Y022131D01*
X023073Y022229D02*
X023353Y022229D01*
X023353Y022328D02*
X023073Y022328D01*
X023073Y022426D02*
X023353Y022426D01*
X023353Y022525D02*
X023073Y022525D01*
X022997Y022624D02*
X023353Y022624D01*
X023353Y022722D02*
X022898Y022722D01*
X022799Y022821D02*
X023353Y022821D01*
X023353Y022919D02*
X022862Y022919D01*
X022820Y022878D02*
X023128Y023185D01*
X023128Y023620D01*
X022820Y023928D01*
X022385Y023928D01*
X022078Y023620D01*
X022078Y023185D01*
X022385Y022878D01*
X022820Y022878D01*
X022960Y023018D02*
X023353Y023018D01*
X023353Y023116D02*
X023059Y023116D01*
X023128Y023215D02*
X023353Y023215D01*
X023353Y023313D02*
X023128Y023313D01*
X023128Y023412D02*
X023353Y023412D01*
X023353Y023510D02*
X023128Y023510D01*
X023128Y023609D02*
X023353Y023609D01*
X023353Y023708D02*
X023040Y023708D01*
X022942Y023806D02*
X023353Y023806D01*
X023353Y023905D02*
X022843Y023905D01*
X022795Y023938D02*
X023068Y024210D01*
X023068Y024373D01*
X022633Y024373D01*
X022633Y024433D01*
X022573Y024433D01*
X022573Y024868D01*
X022410Y024868D01*
X022138Y024595D01*
X022138Y024433D01*
X022572Y024433D01*
X022572Y024373D01*
X022138Y024373D01*
X022138Y024210D01*
X022410Y023938D01*
X022573Y023938D01*
X022573Y024372D01*
X022633Y024372D01*
X022633Y023938D01*
X022795Y023938D01*
X022861Y024003D02*
X023353Y024003D01*
X023353Y024102D02*
X022959Y024102D01*
X023058Y024200D02*
X023353Y024200D01*
X023353Y024299D02*
X023068Y024299D01*
X023068Y024433D02*
X023068Y024595D01*
X022795Y024868D01*
X022633Y024868D01*
X022633Y024433D01*
X023068Y024433D01*
X023068Y024496D02*
X023353Y024496D01*
X023353Y024594D02*
X023068Y024594D01*
X022970Y024693D02*
X023353Y024693D01*
X023353Y024791D02*
X022872Y024791D01*
X022633Y024791D02*
X022573Y024791D01*
X022573Y024693D02*
X022633Y024693D01*
X022633Y024594D02*
X022573Y024594D01*
X022573Y024496D02*
X022633Y024496D01*
X022633Y024397D02*
X023353Y024397D01*
X023353Y024890D02*
X016374Y024890D01*
X016356Y024883D02*
X016529Y024954D01*
X016661Y025086D01*
X016733Y025259D01*
X016733Y025446D01*
X016661Y025619D01*
X016529Y025751D01*
X016356Y025823D01*
X015649Y025823D01*
X015476Y025751D01*
X015344Y025619D01*
X015273Y025446D01*
X015273Y025259D01*
X015344Y025086D01*
X015476Y024954D01*
X015649Y024883D01*
X016356Y024883D01*
X016356Y024823D02*
X015649Y024823D01*
X015476Y024751D01*
X015344Y024619D01*
X015273Y024446D01*
X015273Y024259D01*
X015344Y024086D01*
X015476Y023954D01*
X015649Y023883D01*
X016356Y023883D01*
X016529Y023954D01*
X016661Y024086D01*
X016678Y024127D01*
X016694Y024086D01*
X016826Y023954D01*
X016999Y023883D01*
X017706Y023883D01*
X017879Y023954D01*
X018011Y024086D01*
X018083Y024259D01*
X018083Y024446D01*
X018011Y024619D01*
X017879Y024751D01*
X017706Y024823D01*
X016999Y024823D01*
X016826Y024751D01*
X016694Y024619D01*
X016678Y024579D01*
X016661Y024619D01*
X016529Y024751D01*
X016356Y024823D01*
X016432Y024791D02*
X016924Y024791D01*
X016768Y024693D02*
X016587Y024693D01*
X016671Y024594D02*
X016684Y024594D01*
X016563Y024989D02*
X023353Y024989D01*
X023353Y025087D02*
X020580Y025087D01*
X020570Y025078D02*
X020878Y025385D01*
X020878Y025820D01*
X020570Y026128D01*
X020135Y026128D01*
X019853Y025845D01*
X019570Y026128D01*
X019135Y026128D01*
X018828Y025820D01*
X018828Y025385D01*
X019135Y025078D01*
X019570Y025078D01*
X019853Y025360D01*
X020135Y025078D01*
X020570Y025078D01*
X020678Y025186D02*
X023353Y025186D01*
X023353Y025284D02*
X020777Y025284D01*
X020875Y025383D02*
X023353Y025383D01*
X023353Y025481D02*
X020878Y025481D01*
X020878Y025580D02*
X023353Y025580D01*
X023353Y025678D02*
X020878Y025678D01*
X020878Y025777D02*
X023353Y025777D01*
X023353Y025875D02*
X020822Y025875D01*
X020724Y025974D02*
X021352Y025974D01*
X021383Y025943D02*
X021143Y026183D01*
X021143Y026323D01*
X021522Y026323D01*
X021522Y026383D01*
X021147Y026383D01*
X021047Y026283D01*
X020658Y026283D01*
X020383Y026558D01*
X020383Y026947D01*
X020658Y027223D01*
X021047Y027223D01*
X021323Y026947D01*
X021323Y026702D01*
X021383Y026763D01*
X021523Y026763D01*
X021523Y026383D01*
X021583Y026383D01*
X021583Y026763D01*
X021723Y026763D01*
X021963Y026523D01*
X021963Y026383D01*
X021583Y026383D01*
X021583Y026323D01*
X021963Y026323D01*
X021963Y026183D01*
X021723Y025943D01*
X021583Y025943D01*
X021583Y026322D01*
X021523Y026322D01*
X021523Y025943D01*
X021383Y025943D01*
X021523Y025974D02*
X021583Y025974D01*
X021583Y026073D02*
X021523Y026073D01*
X021523Y026171D02*
X021583Y026171D01*
X021583Y026270D02*
X021523Y026270D01*
X021522Y026368D02*
X021133Y026368D01*
X021143Y026270D02*
X016262Y026270D01*
X016220Y026228D02*
X016467Y026474D01*
X016658Y026283D01*
X017047Y026283D01*
X017323Y026558D01*
X017323Y026947D01*
X017047Y027223D01*
X016658Y027223D01*
X016467Y027031D01*
X016220Y027278D01*
X015785Y027278D01*
X015478Y026970D01*
X015478Y026535D01*
X015785Y026228D01*
X016220Y026228D01*
X016361Y026368D02*
X016573Y026368D01*
X016474Y026467D02*
X016459Y026467D01*
X016440Y027058D02*
X016493Y027058D01*
X016592Y027157D02*
X016341Y027157D01*
X016243Y027255D02*
X023353Y027255D01*
X023353Y027157D02*
X021114Y027157D01*
X021212Y027058D02*
X023353Y027058D01*
X023353Y026959D02*
X021311Y026959D01*
X021323Y026861D02*
X023353Y026861D01*
X023353Y026762D02*
X021723Y026762D01*
X021821Y026664D02*
X023353Y026664D01*
X023353Y026565D02*
X021920Y026565D01*
X021963Y026467D02*
X023353Y026467D01*
X023353Y026368D02*
X021583Y026368D01*
X021583Y026467D02*
X021523Y026467D01*
X021523Y026565D02*
X021583Y026565D01*
X021583Y026664D02*
X021523Y026664D01*
X021523Y026762D02*
X021583Y026762D01*
X021383Y026762D02*
X021323Y026762D01*
X021047Y027283D02*
X021323Y027558D01*
X021323Y027947D01*
X021047Y028223D01*
X020658Y028223D01*
X020383Y027947D01*
X020383Y027558D01*
X020658Y027283D01*
X021047Y027283D01*
X021118Y027354D02*
X023353Y027354D01*
X023353Y027452D02*
X021217Y027452D01*
X021315Y027551D02*
X023353Y027551D01*
X023353Y027649D02*
X021323Y027649D01*
X021323Y027748D02*
X023353Y027748D01*
X023353Y027846D02*
X021323Y027846D01*
X021323Y027945D02*
X023353Y027945D01*
X023353Y028043D02*
X021227Y028043D01*
X021128Y028142D02*
X023353Y028142D01*
X023353Y028241D02*
X015452Y028241D01*
X015555Y028339D02*
X023353Y028339D01*
X023353Y028438D02*
X015654Y028438D01*
X015723Y028536D02*
X023353Y028536D01*
X023353Y028635D02*
X015764Y028635D01*
X015804Y028733D02*
X023353Y028733D01*
X023353Y028832D02*
X015833Y028832D01*
X015833Y028930D02*
X016151Y028930D01*
X016088Y028956D02*
X016260Y028885D01*
X016446Y028885D01*
X016618Y028956D01*
X016749Y029088D01*
X016820Y029260D01*
X016820Y029446D01*
X016749Y029618D01*
X016618Y029749D01*
X016446Y029820D01*
X016260Y029820D01*
X016088Y029749D01*
X015956Y029618D01*
X015885Y029446D01*
X015885Y029260D01*
X015956Y029088D01*
X016088Y028956D01*
X016016Y029029D02*
X015833Y029029D01*
X015833Y029127D02*
X015940Y029127D01*
X015899Y029226D02*
X015799Y029226D01*
X015758Y029324D02*
X015885Y029324D01*
X015885Y029423D02*
X015717Y029423D01*
X015640Y029522D02*
X015917Y029522D01*
X015959Y029620D02*
X015542Y029620D01*
X015419Y029719D02*
X016058Y029719D01*
X016253Y029817D02*
X015181Y029817D01*
X014764Y029817D02*
X014403Y029817D01*
X014403Y029719D02*
X014526Y029719D01*
X014403Y029620D02*
X014404Y029620D01*
X014403Y029916D02*
X023353Y029916D01*
X023353Y030014D02*
X014403Y030014D01*
X014403Y030113D02*
X023353Y030113D01*
X023353Y030211D02*
X014403Y030211D01*
X014403Y030310D02*
X023353Y030310D01*
X023353Y030408D02*
X014403Y030408D01*
X014403Y030507D02*
X023353Y030507D01*
X023353Y030606D02*
X014403Y030606D01*
X014403Y030704D02*
X021339Y030704D01*
X021285Y030758D02*
X021408Y030635D01*
X022097Y030635D01*
X022220Y030758D01*
X022220Y031447D01*
X022097Y031570D01*
X021408Y031570D01*
X021285Y031447D01*
X021285Y030758D01*
X021285Y030803D02*
X014403Y030803D01*
X014403Y030901D02*
X021285Y030901D01*
X021285Y031000D02*
X014403Y031000D01*
X014403Y031098D02*
X021285Y031098D01*
X021285Y031197D02*
X014403Y031197D01*
X014403Y031295D02*
X021285Y031295D01*
X021285Y031394D02*
X014403Y031394D01*
X014403Y031492D02*
X021331Y031492D01*
X022175Y031492D02*
X022424Y031492D01*
X022437Y031500D02*
X022403Y031480D01*
X022375Y031452D01*
X022356Y031418D01*
X022345Y031380D01*
X022345Y031131D01*
X022724Y031131D01*
X022724Y031074D01*
X022781Y031074D01*
X022781Y030695D01*
X023030Y030695D01*
X023068Y030706D01*
X023102Y030725D01*
X023130Y030753D01*
X023150Y030787D01*
X023160Y030826D01*
X023160Y031074D01*
X022782Y031074D01*
X022782Y031131D01*
X023160Y031131D01*
X023160Y031380D01*
X023150Y031418D01*
X023130Y031452D01*
X023102Y031480D01*
X023068Y031500D01*
X023030Y031510D01*
X022781Y031510D01*
X022781Y031132D01*
X022724Y031132D01*
X022724Y031510D01*
X022476Y031510D01*
X022437Y031500D01*
X022349Y031394D02*
X022220Y031394D01*
X022220Y031295D02*
X022345Y031295D01*
X022345Y031197D02*
X022220Y031197D01*
X022220Y031098D02*
X022724Y031098D01*
X022724Y031074D02*
X022345Y031074D01*
X022345Y030826D01*
X022356Y030787D01*
X022375Y030753D01*
X022403Y030725D01*
X022437Y030706D01*
X022476Y030695D01*
X022724Y030695D01*
X022724Y031074D01*
X022782Y031098D02*
X023353Y031098D01*
X023353Y031000D02*
X023160Y031000D01*
X023160Y030901D02*
X023353Y030901D01*
X023353Y030803D02*
X023154Y030803D01*
X023063Y030704D02*
X023353Y030704D01*
X023353Y031197D02*
X023160Y031197D01*
X023160Y031295D02*
X023353Y031295D01*
X023353Y031394D02*
X023156Y031394D01*
X023081Y031492D02*
X023353Y031492D01*
X023353Y031591D02*
X014403Y031591D01*
X016453Y029817D02*
X017253Y029817D01*
X017260Y029820D02*
X017088Y029749D01*
X016956Y029618D01*
X016885Y029446D01*
X016885Y029260D01*
X016956Y029088D01*
X017088Y028956D01*
X017260Y028885D01*
X017446Y028885D01*
X017618Y028956D01*
X017749Y029088D01*
X017820Y029260D01*
X017820Y029446D01*
X017749Y029618D01*
X017618Y029749D01*
X017446Y029820D01*
X017260Y029820D01*
X017453Y029817D02*
X018005Y029817D01*
X018008Y029820D02*
X017885Y029697D01*
X017885Y029008D01*
X018008Y028885D01*
X018697Y028885D01*
X018820Y029008D01*
X018820Y029697D01*
X018697Y029820D01*
X018008Y029820D01*
X017907Y029719D02*
X017648Y029719D01*
X017746Y029620D02*
X017885Y029620D01*
X017885Y029522D02*
X017789Y029522D01*
X017820Y029423D02*
X017885Y029423D01*
X017885Y029324D02*
X017820Y029324D01*
X017806Y029226D02*
X017885Y029226D01*
X017885Y029127D02*
X017765Y029127D01*
X017690Y029029D02*
X017885Y029029D01*
X017963Y028930D02*
X017554Y028930D01*
X017151Y028930D02*
X016554Y028930D01*
X016690Y029029D02*
X017016Y029029D01*
X016940Y029127D02*
X016765Y029127D01*
X016806Y029226D02*
X016899Y029226D01*
X016885Y029324D02*
X016820Y029324D01*
X016820Y029423D02*
X016885Y029423D01*
X016917Y029522D02*
X016789Y029522D01*
X016746Y029620D02*
X016959Y029620D01*
X017058Y029719D02*
X016648Y029719D01*
X016683Y028163D02*
X016467Y027946D01*
X016195Y028218D01*
X016033Y028218D01*
X016033Y027783D01*
X015973Y027783D01*
X015973Y028218D01*
X015810Y028218D01*
X015538Y027945D01*
X014403Y027945D01*
X014403Y028043D02*
X015636Y028043D01*
X015538Y027945D02*
X015538Y027783D01*
X015972Y027783D01*
X015972Y027723D01*
X015538Y027723D01*
X015538Y027560D01*
X015810Y027288D01*
X015973Y027288D01*
X015973Y027722D01*
X016033Y027722D01*
X016033Y027288D01*
X016195Y027288D01*
X016467Y027559D01*
X016683Y027343D01*
X016823Y027343D01*
X016823Y027722D01*
X016883Y027722D01*
X016883Y027343D01*
X017023Y027343D01*
X017263Y027583D01*
X017263Y027723D01*
X016883Y027723D01*
X016883Y027783D01*
X016823Y027783D01*
X016823Y028163D01*
X016683Y028163D01*
X016662Y028142D02*
X016271Y028142D01*
X016370Y028043D02*
X016564Y028043D01*
X016823Y028043D02*
X016883Y028043D01*
X016883Y027945D02*
X016823Y027945D01*
X016823Y027846D02*
X016883Y027846D01*
X016883Y027783D02*
X016883Y028163D01*
X017023Y028163D01*
X017263Y027923D01*
X017263Y027783D01*
X016883Y027783D01*
X016883Y027748D02*
X020383Y027748D01*
X020383Y027846D02*
X017263Y027846D01*
X017240Y027945D02*
X020383Y027945D01*
X020479Y028043D02*
X017142Y028043D01*
X017043Y028142D02*
X020577Y028142D01*
X020383Y027649D02*
X017263Y027649D01*
X017231Y027551D02*
X020390Y027551D01*
X020489Y027452D02*
X017132Y027452D01*
X017033Y027354D02*
X020587Y027354D01*
X020592Y027157D02*
X017114Y027157D01*
X017212Y027058D02*
X020493Y027058D01*
X020395Y026959D02*
X017311Y026959D01*
X017323Y026861D02*
X020383Y026861D01*
X020383Y026762D02*
X017323Y026762D01*
X017323Y026664D02*
X020383Y026664D01*
X020383Y026565D02*
X017323Y026565D01*
X017231Y026467D02*
X020474Y026467D01*
X020573Y026368D02*
X017133Y026368D01*
X017008Y026020D02*
X016885Y025897D01*
X016885Y025208D01*
X017008Y025085D01*
X017697Y025085D01*
X017820Y025208D01*
X017820Y025897D01*
X017697Y026020D01*
X017008Y026020D01*
X016962Y025974D02*
X014546Y025974D01*
X014448Y026073D02*
X019080Y026073D01*
X018982Y025974D02*
X017743Y025974D01*
X017820Y025875D02*
X018883Y025875D01*
X018828Y025777D02*
X017820Y025777D01*
X017820Y025678D02*
X018828Y025678D01*
X018828Y025580D02*
X017820Y025580D01*
X017820Y025481D02*
X018828Y025481D01*
X018830Y025383D02*
X017820Y025383D01*
X017820Y025284D02*
X018929Y025284D01*
X019027Y025186D02*
X017798Y025186D01*
X017699Y025087D02*
X019126Y025087D01*
X019580Y025087D02*
X020126Y025087D01*
X020027Y025186D02*
X019678Y025186D01*
X019777Y025284D02*
X019929Y025284D01*
X019999Y024823D02*
X019826Y024751D01*
X019694Y024619D01*
X019623Y024446D01*
X019623Y024259D01*
X019694Y024086D01*
X019826Y023954D01*
X019999Y023883D01*
X020706Y023883D01*
X020879Y023954D01*
X021011Y024086D01*
X021083Y024259D01*
X021083Y024446D01*
X021011Y024619D01*
X020879Y024751D01*
X020706Y024823D01*
X019999Y024823D01*
X019924Y024791D02*
X017782Y024791D01*
X017937Y024693D02*
X019768Y024693D01*
X019684Y024594D02*
X018021Y024594D01*
X018062Y024496D02*
X019643Y024496D01*
X019623Y024397D02*
X018083Y024397D01*
X018083Y024299D02*
X019623Y024299D01*
X019647Y024200D02*
X018058Y024200D01*
X018017Y024102D02*
X019688Y024102D01*
X019778Y024003D02*
X017928Y024003D01*
X017759Y023905D02*
X019946Y023905D01*
X019999Y023823D02*
X019826Y023751D01*
X019694Y023619D01*
X019623Y023446D01*
X019623Y023259D01*
X019694Y023086D01*
X019826Y022954D01*
X019999Y022883D01*
X020706Y022883D01*
X020879Y022954D01*
X021011Y023086D01*
X021083Y023259D01*
X021083Y023446D01*
X021011Y023619D01*
X020879Y023751D01*
X020706Y023823D01*
X019999Y023823D01*
X019959Y023806D02*
X017746Y023806D01*
X017706Y023823D02*
X016999Y023823D01*
X016826Y023751D01*
X016694Y023619D01*
X016678Y023579D01*
X016661Y023619D01*
X016529Y023751D01*
X016356Y023823D01*
X015649Y023823D01*
X015476Y023751D01*
X015344Y023619D01*
X015273Y023446D01*
X015273Y023259D01*
X015344Y023086D01*
X015476Y022954D01*
X015649Y022883D01*
X016356Y022883D01*
X016529Y022954D01*
X016661Y023086D01*
X016678Y023127D01*
X016694Y023086D01*
X016826Y022954D01*
X016999Y022883D01*
X017706Y022883D01*
X017879Y022954D01*
X018011Y023086D01*
X018083Y023259D01*
X018083Y023446D01*
X018011Y023619D01*
X017879Y023751D01*
X017706Y023823D01*
X017923Y023708D02*
X019783Y023708D01*
X019690Y023609D02*
X018015Y023609D01*
X018056Y023510D02*
X019649Y023510D01*
X019623Y023412D02*
X018083Y023412D01*
X018083Y023313D02*
X019623Y023313D01*
X019641Y023215D02*
X018064Y023215D01*
X018024Y023116D02*
X019682Y023116D01*
X019763Y023018D02*
X017942Y023018D01*
X017794Y022919D02*
X019911Y022919D01*
X019994Y022821D02*
X017711Y022821D01*
X017706Y022823D02*
X016999Y022823D01*
X016826Y022751D01*
X016694Y022619D01*
X016623Y022446D01*
X016623Y022259D01*
X016694Y022086D01*
X016826Y021954D01*
X016999Y021883D01*
X017706Y021883D01*
X017879Y021954D01*
X018011Y022086D01*
X018083Y022259D01*
X018083Y022446D01*
X018011Y022619D01*
X017879Y022751D01*
X017706Y022823D01*
X017908Y022722D02*
X019797Y022722D01*
X019826Y022751D02*
X019694Y022619D01*
X019623Y022446D01*
X019623Y022259D01*
X019694Y022086D01*
X019826Y021954D01*
X019999Y021883D01*
X020706Y021883D01*
X020879Y021954D01*
X021011Y022086D01*
X021083Y022259D01*
X021083Y022446D01*
X021011Y022619D01*
X020879Y022751D01*
X020706Y022823D01*
X019999Y022823D01*
X019826Y022751D01*
X019699Y022624D02*
X018007Y022624D01*
X018050Y022525D02*
X019655Y022525D01*
X019623Y022426D02*
X018083Y022426D01*
X018083Y022328D02*
X019623Y022328D01*
X019635Y022229D02*
X018070Y022229D01*
X018030Y022131D02*
X019676Y022131D01*
X019749Y022032D02*
X017957Y022032D01*
X017829Y021934D02*
X019876Y021934D01*
X019812Y021737D02*
X017758Y021737D01*
X017770Y021733D02*
X017709Y021753D01*
X017645Y021763D01*
X017383Y021763D01*
X017383Y021383D01*
X017323Y021383D01*
X017323Y021763D01*
X017060Y021763D01*
X016997Y021753D01*
X016935Y021733D01*
X016878Y021703D01*
X016826Y021665D01*
X016780Y021620D01*
X016742Y021568D01*
X016713Y021510D01*
X016693Y021449D01*
X016683Y021385D01*
X016683Y021383D01*
X017322Y021383D01*
X017322Y021323D01*
X016683Y021323D01*
X016683Y021320D01*
X016693Y021257D01*
X016713Y021195D01*
X016742Y021138D01*
X016780Y021086D01*
X016826Y021040D01*
X016878Y021002D01*
X016935Y020973D01*
X016997Y020953D01*
X017060Y020943D01*
X017323Y020943D01*
X017323Y021322D01*
X017383Y021322D01*
X017383Y020943D01*
X017645Y020943D01*
X017709Y020953D01*
X017770Y020973D01*
X017828Y021002D01*
X017880Y021040D01*
X017925Y021086D01*
X017963Y021138D01*
X017993Y021195D01*
X018013Y021257D01*
X018023Y021320D01*
X018023Y021323D01*
X017383Y021323D01*
X017383Y021383D01*
X018023Y021383D01*
X018023Y021385D01*
X018013Y021449D01*
X017993Y021510D01*
X017963Y021568D01*
X017925Y021620D01*
X017880Y021665D01*
X017828Y021703D01*
X017770Y021733D01*
X017907Y021638D02*
X019713Y021638D01*
X019661Y021540D02*
X017978Y021540D01*
X018014Y021441D02*
X019623Y021441D01*
X019623Y021342D02*
X017383Y021342D01*
X017322Y021342D02*
X016024Y021342D01*
X016128Y021244D02*
X016697Y021244D01*
X016738Y021145D02*
X016188Y021145D01*
X016219Y021047D02*
X016819Y021047D01*
X017025Y020948D02*
X015772Y020948D01*
X015772Y020934D02*
X016228Y020934D01*
X016228Y020915D01*
X016216Y020841D01*
X016193Y020770D01*
X016159Y020704D01*
X016115Y020643D01*
X016062Y020590D01*
X016002Y020546D01*
X015935Y020513D01*
X015864Y020489D01*
X015790Y020478D01*
X015772Y020478D01*
X015772Y020934D01*
X015734Y020948D02*
X014923Y020948D01*
X014923Y020850D02*
X015288Y020850D01*
X015322Y020751D02*
X014923Y020751D01*
X014917Y020653D02*
X015384Y020653D01*
X015493Y020554D02*
X014819Y020554D01*
X014720Y020456D02*
X016627Y020456D01*
X016623Y020446D02*
X016623Y020259D01*
X016694Y020086D01*
X016826Y019954D01*
X016999Y019883D01*
X017706Y019883D01*
X017879Y019954D01*
X018011Y020086D01*
X018083Y020259D01*
X018083Y020446D01*
X018011Y020619D01*
X017879Y020751D01*
X017706Y020823D01*
X016999Y020823D01*
X016826Y020751D01*
X016694Y020619D01*
X016623Y020446D01*
X016623Y020357D02*
X014403Y020357D01*
X014403Y020259D02*
X016623Y020259D01*
X016664Y020160D02*
X014403Y020160D01*
X014403Y020061D02*
X016719Y020061D01*
X016818Y019963D02*
X014403Y019963D01*
X014403Y019864D02*
X021272Y019864D01*
X021235Y019963D02*
X020888Y019963D01*
X020986Y020061D02*
X021136Y020061D01*
X021173Y019766D02*
X020844Y019766D01*
X020963Y019667D02*
X021075Y019667D01*
X021037Y019076D02*
X021001Y019076D01*
X020902Y018977D02*
X021136Y018977D01*
X021234Y018879D02*
X014403Y018879D01*
X014403Y018977D02*
X016803Y018977D01*
X016826Y018954D02*
X016999Y018883D01*
X017706Y018883D01*
X017879Y018954D01*
X018011Y019086D01*
X018083Y019259D01*
X018083Y019446D01*
X018011Y019619D01*
X017879Y019751D01*
X017706Y019823D01*
X016999Y019823D01*
X016826Y019751D01*
X016694Y019619D01*
X016623Y019446D01*
X016623Y019259D01*
X016694Y019086D01*
X016826Y018954D01*
X016705Y019076D02*
X014403Y019076D01*
X014403Y019175D02*
X016658Y019175D01*
X016623Y019273D02*
X014403Y019273D01*
X014403Y019372D02*
X016623Y019372D01*
X016633Y019470D02*
X014403Y019470D01*
X014403Y019569D02*
X016674Y019569D01*
X016743Y019667D02*
X014403Y019667D01*
X014403Y019766D02*
X016862Y019766D01*
X016999Y018823D02*
X016826Y018751D01*
X016694Y018619D01*
X016623Y018446D01*
X016623Y018259D01*
X016694Y018086D01*
X016826Y017954D01*
X016999Y017883D01*
X017706Y017883D01*
X017879Y017954D01*
X018011Y018086D01*
X018083Y018259D01*
X018083Y018446D01*
X018011Y018619D01*
X017879Y018751D01*
X017706Y018823D01*
X016999Y018823D01*
X016897Y018780D02*
X014403Y018780D01*
X014403Y018682D02*
X016757Y018682D01*
X016680Y018583D02*
X014403Y018583D01*
X014403Y018485D02*
X016639Y018485D01*
X016623Y018386D02*
X014403Y018386D01*
X014403Y018288D02*
X016623Y018288D01*
X016652Y018189D02*
X014403Y018189D01*
X014403Y018091D02*
X016693Y018091D01*
X016789Y017992D02*
X014403Y017992D01*
X014403Y017893D02*
X016973Y017893D01*
X017732Y017893D02*
X019973Y017893D01*
X019789Y017992D02*
X017917Y017992D01*
X018013Y018091D02*
X019693Y018091D01*
X019652Y018189D02*
X018054Y018189D01*
X018083Y018288D02*
X019623Y018288D01*
X019623Y018386D02*
X018083Y018386D01*
X018067Y018485D02*
X019639Y018485D01*
X019680Y018583D02*
X018026Y018583D01*
X017948Y018682D02*
X019757Y018682D01*
X019897Y018780D02*
X017809Y018780D01*
X017902Y018977D02*
X019803Y018977D01*
X019705Y019076D02*
X018001Y019076D01*
X018048Y019175D02*
X019658Y019175D01*
X019623Y019273D02*
X018083Y019273D01*
X018083Y019372D02*
X019623Y019372D01*
X019633Y019470D02*
X018073Y019470D01*
X018032Y019569D02*
X019674Y019569D01*
X019743Y019667D02*
X017963Y019667D01*
X017844Y019766D02*
X019862Y019766D01*
X019818Y019963D02*
X017888Y019963D01*
X017986Y020061D02*
X019719Y020061D01*
X019664Y020160D02*
X018042Y020160D01*
X018082Y020259D02*
X019623Y020259D01*
X019623Y020357D02*
X018083Y020357D01*
X018079Y020456D02*
X019627Y020456D01*
X019667Y020554D02*
X018038Y020554D01*
X017977Y020653D02*
X019728Y020653D01*
X019827Y020751D02*
X017879Y020751D01*
X017680Y020948D02*
X019841Y020948D01*
X019734Y021047D02*
X017887Y021047D01*
X017967Y021145D02*
X019670Y021145D01*
X019629Y021244D02*
X018008Y021244D01*
X017383Y021244D02*
X017323Y021244D01*
X017323Y021145D02*
X017383Y021145D01*
X017383Y021047D02*
X017323Y021047D01*
X017323Y020948D02*
X017383Y020948D01*
X017383Y021441D02*
X017323Y021441D01*
X017323Y021540D02*
X017383Y021540D01*
X017383Y021638D02*
X017323Y021638D01*
X017323Y021737D02*
X017383Y021737D01*
X016948Y021737D02*
X016288Y021737D01*
X016288Y021835D02*
X021243Y021835D01*
X021307Y021934D02*
X020829Y021934D01*
X020957Y022032D02*
X021209Y022032D01*
X021110Y022131D02*
X021030Y022131D01*
X021083Y022158D02*
X021358Y021883D01*
X021747Y021883D01*
X022023Y022158D01*
X022023Y022547D01*
X021747Y022823D01*
X021358Y022823D01*
X021083Y022547D01*
X021083Y022158D01*
X021083Y022229D02*
X021070Y022229D01*
X021083Y022328D02*
X021083Y022328D01*
X021083Y022426D02*
X021083Y022426D01*
X021083Y022525D02*
X021050Y022525D01*
X021007Y022624D02*
X021159Y022624D01*
X021257Y022722D02*
X020908Y022722D01*
X020711Y022821D02*
X021356Y022821D01*
X021749Y022821D02*
X022406Y022821D01*
X022344Y022919D02*
X020794Y022919D01*
X020942Y023018D02*
X022245Y023018D01*
X022147Y023116D02*
X021024Y023116D01*
X021064Y023215D02*
X022078Y023215D01*
X022078Y023313D02*
X021083Y023313D01*
X021083Y023412D02*
X022078Y023412D01*
X022078Y023510D02*
X021056Y023510D01*
X021015Y023609D02*
X022078Y023609D01*
X022165Y023708D02*
X020923Y023708D01*
X020746Y023806D02*
X022264Y023806D01*
X022362Y023905D02*
X020759Y023905D01*
X020928Y024003D02*
X022345Y024003D01*
X022246Y024102D02*
X021017Y024102D01*
X021058Y024200D02*
X022148Y024200D01*
X022138Y024299D02*
X021083Y024299D01*
X021083Y024397D02*
X022572Y024397D01*
X022573Y024299D02*
X022633Y024299D01*
X022633Y024200D02*
X022573Y024200D01*
X022573Y024102D02*
X022633Y024102D01*
X022633Y024003D02*
X022573Y024003D01*
X022138Y024496D02*
X021062Y024496D01*
X021021Y024594D02*
X022138Y024594D01*
X022235Y024693D02*
X020937Y024693D01*
X020782Y024791D02*
X022334Y024791D01*
X021754Y025974D02*
X023353Y025974D01*
X023353Y026073D02*
X021852Y026073D01*
X021951Y026171D02*
X023353Y026171D01*
X023353Y026270D02*
X021963Y026270D01*
X021253Y026073D02*
X020625Y026073D01*
X021155Y026171D02*
X014403Y026171D01*
X014403Y026270D02*
X015743Y026270D01*
X015645Y026368D02*
X014403Y026368D01*
X014403Y026467D02*
X015546Y026467D01*
X015478Y026565D02*
X014403Y026565D01*
X014403Y026664D02*
X015478Y026664D01*
X015478Y026762D02*
X014403Y026762D01*
X014403Y026861D02*
X015478Y026861D01*
X015478Y026959D02*
X014403Y026959D01*
X014403Y027058D02*
X015566Y027058D01*
X015664Y027157D02*
X014403Y027157D01*
X014403Y027255D02*
X015763Y027255D01*
X015744Y027354D02*
X014403Y027354D01*
X014403Y027452D02*
X015646Y027452D01*
X015547Y027551D02*
X014403Y027551D01*
X014403Y027649D02*
X015538Y027649D01*
X015538Y027846D02*
X014403Y027846D01*
X014403Y027748D02*
X015972Y027748D01*
X016033Y027748D02*
X016822Y027748D01*
X016822Y027723D02*
X016443Y027723D01*
X016033Y027723D01*
X016033Y027783D01*
X016443Y027783D01*
X016822Y027783D01*
X016822Y027723D01*
X016823Y027649D02*
X016883Y027649D01*
X016883Y027551D02*
X016823Y027551D01*
X016823Y027452D02*
X016883Y027452D01*
X016883Y027354D02*
X016823Y027354D01*
X016672Y027354D02*
X016261Y027354D01*
X016360Y027452D02*
X016574Y027452D01*
X016475Y027551D02*
X016458Y027551D01*
X016033Y027551D02*
X015973Y027551D01*
X015973Y027649D02*
X016033Y027649D01*
X016033Y027452D02*
X015973Y027452D01*
X015973Y027354D02*
X016033Y027354D01*
X016033Y027846D02*
X015973Y027846D01*
X015973Y027945D02*
X016033Y027945D01*
X016033Y028043D02*
X015973Y028043D01*
X015973Y028142D02*
X016033Y028142D01*
X015734Y028142D02*
X015214Y028142D01*
X014731Y028142D02*
X014403Y028142D01*
X014403Y028241D02*
X014493Y028241D01*
X016823Y028142D02*
X016883Y028142D01*
X018742Y028930D02*
X023353Y028930D01*
X023353Y029029D02*
X018820Y029029D01*
X018820Y029127D02*
X023353Y029127D01*
X023353Y029226D02*
X018820Y029226D01*
X018820Y029324D02*
X023353Y029324D01*
X023353Y029423D02*
X018820Y029423D01*
X018820Y029522D02*
X023353Y029522D01*
X023353Y029620D02*
X018820Y029620D01*
X018799Y029719D02*
X023353Y029719D01*
X023353Y029817D02*
X018700Y029817D01*
X022166Y030704D02*
X022443Y030704D01*
X022351Y030803D02*
X022220Y030803D01*
X022220Y030901D02*
X022345Y030901D01*
X022345Y031000D02*
X022220Y031000D01*
X022724Y031000D02*
X022781Y031000D01*
X022781Y030901D02*
X022724Y030901D01*
X022724Y030803D02*
X022781Y030803D01*
X022781Y030704D02*
X022724Y030704D01*
X022724Y031197D02*
X022781Y031197D01*
X022781Y031295D02*
X022724Y031295D01*
X022724Y031394D02*
X022781Y031394D01*
X022781Y031492D02*
X022724Y031492D01*
X020080Y026073D02*
X019625Y026073D01*
X019724Y025974D02*
X019982Y025974D01*
X019883Y025875D02*
X019822Y025875D01*
X017006Y025087D02*
X016661Y025087D01*
X016702Y025186D02*
X016908Y025186D01*
X016885Y025284D02*
X016733Y025284D01*
X016733Y025383D02*
X016885Y025383D01*
X016885Y025481D02*
X016718Y025481D01*
X016677Y025580D02*
X016885Y025580D01*
X016885Y025678D02*
X016602Y025678D01*
X016467Y025777D02*
X016885Y025777D01*
X016885Y025875D02*
X014645Y025875D01*
X014673Y025777D02*
X015539Y025777D01*
X015404Y025678D02*
X014673Y025678D01*
X014673Y025580D02*
X015328Y025580D01*
X015287Y025481D02*
X014673Y025481D01*
X014597Y025383D02*
X015273Y025383D01*
X015273Y025284D02*
X014499Y025284D01*
X014403Y025186D02*
X015303Y025186D01*
X015344Y025087D02*
X014403Y025087D01*
X014403Y024989D02*
X015442Y024989D01*
X015632Y024890D02*
X014403Y024890D01*
X014403Y024791D02*
X015574Y024791D01*
X015418Y024693D02*
X014403Y024693D01*
X014403Y024594D02*
X015334Y024594D01*
X015293Y024496D02*
X014403Y024496D01*
X014403Y024397D02*
X015273Y024397D01*
X015273Y024299D02*
X014403Y024299D01*
X014403Y024200D02*
X015297Y024200D01*
X015338Y024102D02*
X014403Y024102D01*
X014403Y024003D02*
X015428Y024003D01*
X015596Y023905D02*
X014403Y023905D01*
X014403Y023806D02*
X015609Y023806D01*
X015433Y023708D02*
X014403Y023708D01*
X014403Y023609D02*
X015340Y023609D01*
X015299Y023510D02*
X014403Y023510D01*
X014403Y023412D02*
X015273Y023412D01*
X015273Y023313D02*
X014403Y023313D01*
X014403Y023215D02*
X015291Y023215D01*
X015332Y023116D02*
X014403Y023116D01*
X014403Y023018D02*
X015413Y023018D01*
X015561Y022919D02*
X014403Y022919D01*
X014403Y022821D02*
X016994Y022821D01*
X016911Y022919D02*
X016444Y022919D01*
X016592Y023018D02*
X016763Y023018D01*
X016682Y023116D02*
X016673Y023116D01*
X016665Y023609D02*
X016690Y023609D01*
X016783Y023708D02*
X016573Y023708D01*
X016396Y023806D02*
X016959Y023806D01*
X016946Y023905D02*
X016409Y023905D01*
X016578Y024003D02*
X016778Y024003D01*
X016688Y024102D02*
X016667Y024102D01*
X016797Y022722D02*
X014403Y022722D01*
X014403Y022624D02*
X016699Y022624D01*
X016655Y022525D02*
X014403Y022525D01*
X014403Y022426D02*
X015279Y022426D01*
X015218Y022328D02*
X014403Y022328D01*
X014403Y022229D02*
X015218Y022229D01*
X015218Y022131D02*
X014403Y022131D01*
X014488Y022032D02*
X015218Y022032D01*
X015218Y021934D02*
X014586Y021934D01*
X014673Y021835D02*
X015218Y021835D01*
X015218Y021737D02*
X014673Y021737D01*
X014673Y021638D02*
X015218Y021638D01*
X015219Y021540D02*
X014673Y021540D01*
X014656Y021441D02*
X015317Y021441D01*
X015481Y021342D02*
X014557Y021342D01*
X014726Y021244D02*
X015377Y021244D01*
X015734Y020850D02*
X015772Y020850D01*
X015772Y020751D02*
X015734Y020751D01*
X015734Y020653D02*
X015772Y020653D01*
X015772Y020554D02*
X015734Y020554D01*
X016012Y020554D02*
X016667Y020554D01*
X016728Y020653D02*
X016122Y020653D01*
X016183Y020751D02*
X016827Y020751D01*
X016217Y020850D02*
X021263Y020850D01*
X021244Y020751D02*
X020879Y020751D01*
X020977Y020653D02*
X021145Y020653D01*
X021047Y020554D02*
X021038Y020554D01*
X021165Y020948D02*
X020864Y020948D01*
X020972Y021047D02*
X021066Y021047D01*
X021473Y020751D02*
X021533Y020751D01*
X021533Y020653D02*
X021473Y020653D01*
X021473Y020554D02*
X021533Y020554D01*
X021533Y020456D02*
X021473Y020456D01*
X021046Y021638D02*
X020992Y021638D01*
X020894Y021737D02*
X021144Y021737D01*
X021798Y021934D02*
X022357Y021934D01*
X022259Y022032D02*
X021897Y022032D01*
X021995Y022131D02*
X022160Y022131D01*
X022133Y022229D02*
X022023Y022229D01*
X022023Y022328D02*
X022133Y022328D01*
X022133Y022426D02*
X022023Y022426D01*
X022023Y022525D02*
X022133Y022525D01*
X022209Y022624D02*
X021947Y022624D01*
X021848Y022722D02*
X022307Y022722D01*
X021188Y018780D02*
X020809Y018780D01*
X020948Y018682D02*
X021089Y018682D01*
X021022Y018091D02*
X021013Y018091D01*
X020917Y017992D02*
X021121Y017992D01*
X021220Y017893D02*
X020732Y017893D01*
X020624Y017696D02*
X021082Y017696D01*
X020983Y017598D02*
X020722Y017598D01*
X020821Y017499D02*
X020885Y017499D01*
X020883Y017401D02*
X020823Y017401D01*
X020823Y017302D02*
X020883Y017302D01*
X020883Y017204D02*
X020823Y017204D01*
X020820Y017105D02*
X020886Y017105D01*
X020984Y017007D02*
X020721Y017007D01*
X020623Y016908D02*
X021083Y016908D01*
X019715Y014050D02*
X023353Y014050D01*
X023353Y013952D02*
X019616Y013952D01*
X020013Y011488D02*
X014403Y011488D01*
X014403Y011390D02*
X019915Y011390D01*
X019862Y011291D02*
X014403Y011291D01*
X014403Y011193D02*
X019823Y011193D01*
X019823Y011094D02*
X014403Y011094D01*
X014403Y010995D02*
X019828Y010995D01*
X019869Y010897D02*
X014403Y010897D01*
X012956Y009616D02*
X023353Y009616D01*
X023353Y009517D02*
X012957Y009517D01*
X012957Y009419D02*
X023353Y009419D01*
X019862Y009222D02*
X019344Y009222D01*
X019457Y009123D02*
X019748Y009123D01*
X019682Y009025D02*
X019524Y009025D01*
X019565Y008926D02*
X019641Y008926D01*
X019633Y008827D02*
X019573Y008827D01*
X019573Y008729D02*
X019633Y008729D01*
X019633Y008630D02*
X019573Y008630D01*
X019573Y008532D02*
X019633Y008532D01*
X019633Y008433D02*
X019573Y008433D01*
X019573Y008335D02*
X019633Y008335D01*
X019633Y008236D02*
X019573Y008236D01*
X019547Y008138D02*
X019658Y008138D01*
X019699Y008039D02*
X019506Y008039D01*
X019415Y007941D02*
X019790Y007941D01*
X018888Y007152D02*
X018567Y007152D01*
X018468Y007054D02*
X018789Y007054D01*
X017937Y007054D02*
X014384Y007054D01*
X014482Y007152D02*
X017839Y007152D01*
X017740Y007251D02*
X014581Y007251D01*
X014613Y007349D02*
X017733Y007349D01*
X017733Y007448D02*
X014233Y007448D01*
X014233Y007546D02*
X014173Y007546D01*
X014173Y007645D02*
X014233Y007645D01*
X014233Y007744D02*
X014173Y007744D01*
X014173Y007842D02*
X014233Y007842D01*
X014393Y007842D02*
X017927Y007842D01*
X017829Y007744D02*
X014492Y007744D01*
X014590Y007645D02*
X017733Y007645D01*
X017733Y007546D02*
X014613Y007546D01*
X013923Y007152D02*
X012969Y007152D01*
X012968Y007251D02*
X013825Y007251D01*
X013793Y007349D02*
X012968Y007349D01*
X012974Y006068D02*
X019133Y006068D01*
X019133Y005970D02*
X012975Y005970D01*
X012975Y005871D02*
X019133Y005871D01*
X019133Y005773D02*
X012976Y005773D01*
X012976Y005674D02*
X019217Y005674D01*
X019315Y005576D02*
X012977Y005576D01*
X016619Y003211D02*
X018087Y003211D01*
X018018Y003182D02*
X017860Y003024D01*
X017774Y002817D01*
X017774Y001888D01*
X017860Y001682D01*
X018018Y001523D01*
X018225Y001438D01*
X018449Y001438D01*
X018656Y001523D01*
X018814Y001682D01*
X018899Y001888D01*
X018899Y002817D01*
X018814Y003024D01*
X018656Y003182D01*
X018449Y003268D01*
X018225Y003268D01*
X018018Y003182D01*
X017948Y003112D02*
X016757Y003112D01*
X016850Y003013D02*
X017856Y003013D01*
X017815Y002915D02*
X016891Y002915D01*
X016931Y002816D02*
X017774Y002816D01*
X017774Y002718D02*
X016931Y002718D01*
X016931Y002619D02*
X017774Y002619D01*
X017774Y002521D02*
X016931Y002521D01*
X016931Y002422D02*
X017774Y002422D01*
X017774Y002324D02*
X016931Y002324D01*
X016931Y002225D02*
X017774Y002225D01*
X017774Y002127D02*
X016931Y002127D01*
X016931Y002028D02*
X017774Y002028D01*
X017774Y001929D02*
X016931Y001929D01*
X016907Y001831D02*
X017798Y001831D01*
X017839Y001732D02*
X016866Y001732D01*
X016798Y001634D02*
X017908Y001634D01*
X018006Y001535D02*
X016699Y001535D01*
X018668Y001535D02*
X020538Y001535D01*
X020439Y001634D02*
X018766Y001634D01*
X018835Y001732D02*
X020371Y001732D01*
X020330Y001831D02*
X018876Y001831D01*
X018899Y001929D02*
X020306Y001929D01*
X020306Y002028D02*
X018899Y002028D01*
X018899Y002127D02*
X020306Y002127D01*
X020306Y002225D02*
X018899Y002225D01*
X018899Y002324D02*
X020306Y002324D01*
X020306Y002422D02*
X018899Y002422D01*
X018899Y002521D02*
X020306Y002521D01*
X020306Y002619D02*
X018899Y002619D01*
X018899Y002718D02*
X020306Y002718D01*
X020306Y002816D02*
X018899Y002816D01*
X018859Y002915D02*
X020346Y002915D01*
X020387Y003013D02*
X018818Y003013D01*
X018726Y003112D02*
X020480Y003112D01*
X020618Y003211D02*
X018587Y003211D01*
X019670Y010700D02*
X020037Y010700D01*
X019932Y010798D02*
X019572Y010798D01*
X016089Y013952D02*
X015616Y013952D01*
X015547Y013883D02*
X015823Y014158D01*
X015823Y014547D01*
X015547Y014823D01*
X015158Y014823D01*
X014883Y014547D01*
X014883Y014158D01*
X015158Y013883D01*
X015547Y013883D01*
X015715Y014050D02*
X015991Y014050D01*
X015892Y014149D02*
X015813Y014149D01*
X015823Y014247D02*
X015883Y014247D01*
X015883Y014346D02*
X015823Y014346D01*
X015823Y014444D02*
X015883Y014444D01*
X015883Y014543D02*
X015823Y014543D01*
X015729Y014642D02*
X015977Y014642D01*
X016075Y014740D02*
X015630Y014740D01*
X015827Y015036D02*
X014403Y015036D01*
X014403Y015134D02*
X015729Y015134D01*
X015728Y015233D02*
X014403Y015233D01*
X014403Y015331D02*
X015728Y015331D01*
X015728Y015430D02*
X014403Y015430D01*
X014403Y015528D02*
X015728Y015528D01*
X015785Y015627D02*
X014403Y015627D01*
X014403Y015726D02*
X015883Y015726D01*
X015982Y015824D02*
X014403Y015824D01*
X014403Y015923D02*
X015940Y015923D01*
X015842Y016021D02*
X014403Y016021D01*
X014403Y016120D02*
X015743Y016120D01*
X015728Y016218D02*
X014403Y016218D01*
X014403Y016317D02*
X015728Y016317D01*
X015728Y016415D02*
X014403Y016415D01*
X014403Y014937D02*
X015926Y014937D01*
X016024Y014839D02*
X014403Y014839D01*
X014403Y014740D02*
X015075Y014740D01*
X014977Y014642D02*
X014403Y014642D01*
X014403Y014543D02*
X014883Y014543D01*
X014883Y014444D02*
X014403Y014444D01*
X014403Y014346D02*
X014883Y014346D01*
X014883Y014247D02*
X014403Y014247D01*
X014403Y014149D02*
X014892Y014149D01*
X014991Y014050D02*
X014403Y014050D01*
X014403Y013952D02*
X015089Y013952D01*
X016188Y021441D02*
X016692Y021441D01*
X016728Y021540D02*
X016287Y021540D01*
X016288Y021638D02*
X016798Y021638D01*
X016876Y021934D02*
X016288Y021934D01*
X016288Y022032D02*
X016749Y022032D01*
X016676Y022131D02*
X016288Y022131D01*
X016288Y022229D02*
X016635Y022229D01*
X016623Y022328D02*
X016288Y022328D01*
X016226Y022426D02*
X016623Y022426D01*
D33*
X024353Y022127D02*
X024353Y019979D01*
X024482Y020108D01*
X024723Y020207D01*
X024983Y020207D01*
X025224Y020108D01*
X025353Y019979D01*
X025532Y020158D01*
X025773Y020257D01*
X026033Y020257D01*
X026274Y020158D01*
X026367Y020064D01*
X026448Y020145D01*
X026387Y020205D01*
X026331Y020283D01*
X026287Y020369D01*
X026258Y020460D01*
X026243Y020555D01*
X026243Y020603D01*
X027202Y020603D01*
X027202Y020603D01*
X026243Y020603D01*
X026243Y020651D01*
X026258Y020746D01*
X026287Y020837D01*
X026331Y020922D01*
X026387Y021000D01*
X026448Y021060D01*
X026285Y021223D01*
X026183Y021469D01*
X026183Y021736D01*
X026285Y021982D01*
X026473Y022171D01*
X026719Y022273D01*
X027686Y022273D01*
X027932Y022171D01*
X028121Y021982D01*
X028223Y021736D01*
X028223Y021469D01*
X028121Y021223D01*
X027958Y021060D01*
X028018Y021000D01*
X028074Y020922D01*
X028118Y020837D01*
X028148Y020746D01*
X028163Y020651D01*
X028163Y020603D01*
X027203Y020603D01*
X027203Y020603D01*
X028163Y020603D01*
X028163Y020555D01*
X028148Y020460D01*
X028118Y020369D01*
X028074Y020283D01*
X028018Y020205D01*
X027958Y020145D01*
X028121Y019982D01*
X028223Y019736D01*
X028223Y019469D01*
X028121Y019223D01*
X027958Y019060D01*
X028018Y019000D01*
X028074Y018922D01*
X028118Y018837D01*
X028148Y018746D01*
X028163Y018651D01*
X028163Y018603D01*
X027203Y018603D01*
X027203Y018603D01*
X028163Y018603D01*
X028163Y018555D01*
X028148Y018460D01*
X028118Y018369D01*
X028074Y018283D01*
X028018Y018205D01*
X027950Y018137D01*
X027872Y018081D01*
X027787Y018037D01*
X027696Y018008D01*
X027601Y017993D01*
X027203Y017993D01*
X027203Y018602D01*
X027203Y018602D01*
X027203Y017993D01*
X026805Y017993D01*
X026710Y018008D01*
X026619Y018037D01*
X026533Y018081D01*
X026455Y018137D01*
X026387Y018205D01*
X026331Y018283D01*
X026287Y018369D01*
X026258Y018460D01*
X026243Y018555D01*
X026243Y018603D01*
X027202Y018603D01*
X027202Y018603D01*
X026243Y018603D01*
X026243Y018651D01*
X026258Y018746D01*
X026287Y018837D01*
X026331Y018922D01*
X026387Y019000D01*
X026448Y019060D01*
X026367Y019141D01*
X026274Y019048D01*
X026033Y018948D01*
X025773Y018948D01*
X025532Y019048D01*
X025403Y019177D01*
X025224Y018998D01*
X024983Y018898D01*
X024905Y018898D01*
X025145Y018658D01*
X025365Y018878D01*
X025603Y018878D01*
X025603Y018303D01*
X025603Y018303D01*
X026178Y018303D01*
X026178Y018541D01*
X025841Y018878D01*
X025603Y018878D01*
X025603Y018303D01*
X025603Y018303D01*
X026178Y018303D01*
X026178Y018065D01*
X025841Y017728D01*
X025603Y017728D01*
X025603Y018302D01*
X025603Y018302D01*
X025603Y017728D01*
X025365Y017728D01*
X025145Y017947D01*
X024866Y017668D01*
X024353Y017668D01*
X024353Y014753D01*
X024416Y014773D01*
X024507Y014788D01*
X024553Y014788D01*
X024553Y014203D01*
X024553Y014203D01*
X025138Y014203D01*
X025138Y014249D01*
X025123Y014340D01*
X025095Y014427D01*
X025053Y014509D01*
X024999Y014584D01*
X024934Y014649D01*
X024859Y014703D01*
X024777Y014745D01*
X024690Y014773D01*
X024599Y014788D01*
X024553Y014788D01*
X024553Y014203D01*
X024553Y014203D01*
X025138Y014203D01*
X025138Y014157D01*
X025123Y014066D01*
X025095Y013978D01*
X025053Y013896D01*
X025000Y013823D01*
X025059Y013799D01*
X025149Y013709D01*
X025198Y013591D01*
X025198Y012814D01*
X025149Y012696D01*
X025059Y012606D01*
X024941Y012558D01*
X024353Y012558D01*
X024353Y000673D01*
X028955Y000673D01*
X028942Y000683D01*
X028942Y000683D01*
X028942Y000683D01*
X028653Y001106D01*
X028653Y001106D01*
X028502Y001596D01*
X028502Y001596D01*
X028502Y001848D01*
X028407Y001619D01*
X028218Y001430D01*
X027971Y001328D01*
X027703Y001328D01*
X027456Y001430D01*
X027267Y001619D01*
X027164Y001866D01*
X027164Y002839D01*
X027267Y003086D01*
X027456Y003275D01*
X027474Y003283D01*
X026589Y003283D01*
X026423Y003117D01*
X026423Y003102D01*
X026439Y003086D01*
X026541Y002839D01*
X026541Y001866D01*
X026439Y001619D01*
X026249Y001430D01*
X026002Y001328D01*
X025735Y001328D01*
X025488Y001430D01*
X025298Y001619D01*
X025196Y001866D01*
X025196Y002839D01*
X025283Y003049D01*
X025283Y003466D01*
X025370Y003676D01*
X025530Y003836D01*
X026030Y004336D01*
X026239Y004423D01*
X026466Y004423D01*
X027763Y004423D01*
X027723Y004463D01*
X027723Y004943D01*
X028063Y005283D01*
X028543Y005283D01*
X028883Y004943D01*
X028883Y004463D01*
X028843Y004423D01*
X030617Y004423D01*
X030677Y004483D01*
X030676Y004483D01*
X029829Y004483D01*
X029602Y004577D01*
X029427Y004752D01*
X029333Y004979D01*
X029333Y005226D01*
X029427Y005454D01*
X029576Y005603D01*
X029427Y005752D01*
X029333Y005979D01*
X029333Y006226D01*
X029427Y006454D01*
X029576Y006603D01*
X029427Y006752D01*
X029333Y006979D01*
X029333Y007226D01*
X029427Y007454D01*
X029602Y007628D01*
X029829Y007723D01*
X030676Y007723D01*
X030783Y007679D01*
X030781Y007679D01*
X030783Y007679D02*
X030783Y008168D01*
X030390Y008168D01*
X030153Y008405D01*
X029916Y008168D01*
X029390Y008168D01*
X029018Y008540D01*
X029018Y009066D01*
X029390Y009438D01*
X029916Y009438D01*
X030153Y009201D01*
X030344Y009392D01*
X030123Y009613D01*
X030123Y010093D01*
X030383Y010353D01*
X030123Y010613D01*
X030123Y011093D01*
X030463Y011433D01*
X030783Y011433D01*
X030783Y011725D01*
X030778Y011723D01*
X030027Y011723D01*
X029814Y011811D01*
X029651Y011974D01*
X029563Y012187D01*
X029563Y012418D01*
X029651Y012631D01*
X029814Y012794D01*
X030027Y012883D01*
X030778Y012883D01*
X030783Y012881D01*
X030783Y017973D01*
X030686Y017933D01*
X029719Y017933D01*
X029473Y018035D01*
X029285Y018223D01*
X029183Y018469D01*
X029183Y018736D01*
X029285Y018982D01*
X029448Y019145D01*
X029387Y019205D01*
X029331Y019283D01*
X029287Y019369D01*
X029258Y019460D01*
X029243Y019555D01*
X029243Y019603D01*
X030202Y019603D01*
X030202Y019603D01*
X030203Y019603D02*
X030203Y019993D01*
X030203Y020602D01*
X030203Y020602D01*
X030203Y019993D01*
X030203Y019603D01*
X030203Y019603D01*
X030202Y019603D02*
X029243Y019603D01*
X029243Y019651D01*
X029258Y019746D01*
X029287Y019837D01*
X029331Y019922D01*
X029387Y020000D01*
X029455Y020068D01*
X029503Y020103D01*
X029455Y020137D01*
X029387Y020205D01*
X029331Y020283D01*
X029287Y020369D01*
X029258Y020460D01*
X029243Y020555D01*
X029243Y020603D01*
X030202Y020603D01*
X030202Y020603D01*
X030203Y020603D02*
X030203Y020993D01*
X030203Y021602D01*
X030203Y021602D01*
X030203Y020993D01*
X030203Y020603D01*
X030203Y020603D01*
X030202Y020603D02*
X029243Y020603D01*
X029243Y020651D01*
X029258Y020746D01*
X029287Y020837D01*
X029331Y020922D01*
X029387Y021000D01*
X029455Y021068D01*
X029503Y021103D01*
X029455Y021137D01*
X029387Y021205D01*
X029331Y021283D01*
X029287Y021369D01*
X029258Y021460D01*
X029243Y021555D01*
X029243Y021603D01*
X030202Y021603D01*
X030202Y021603D01*
X030203Y021603D02*
X030203Y022213D01*
X030203Y021603D01*
X030203Y021603D01*
X030202Y021603D02*
X029243Y021603D01*
X029243Y021651D01*
X029258Y021746D01*
X029287Y021837D01*
X029331Y021922D01*
X029387Y022000D01*
X029455Y022068D01*
X029533Y022124D01*
X029619Y022168D01*
X029710Y022198D01*
X029805Y022213D01*
X030203Y022213D01*
X030601Y022213D01*
X030696Y022198D01*
X030783Y022169D01*
X030783Y024917D01*
X029880Y025820D01*
X029720Y025980D01*
X029633Y026189D01*
X029633Y027567D01*
X028617Y028583D01*
X026316Y028583D01*
X026089Y028583D01*
X025880Y028670D01*
X025530Y029020D01*
X025370Y029180D01*
X025283Y029389D01*
X025283Y029657D01*
X025196Y029866D01*
X025196Y030839D01*
X025298Y031086D01*
X025488Y031275D01*
X025735Y031378D01*
X026002Y031378D01*
X026249Y031275D01*
X026439Y031086D01*
X026541Y030839D01*
X026541Y029866D01*
X026481Y029723D01*
X027224Y029723D01*
X027164Y029866D01*
X027164Y030839D01*
X027267Y031086D01*
X027456Y031275D01*
X027703Y031378D01*
X027971Y031378D01*
X028218Y031275D01*
X028407Y031086D01*
X028509Y030839D01*
X028509Y029866D01*
X028450Y029723D01*
X028667Y029723D01*
X028552Y030096D01*
X028552Y030096D01*
X028552Y030609D01*
X028552Y030609D01*
X028703Y031099D01*
X028703Y031099D01*
X028992Y031523D01*
X028992Y031523D01*
X029005Y031533D01*
X024353Y031533D01*
X024353Y028507D01*
X024433Y028507D01*
X024674Y028408D01*
X024858Y028224D01*
X024957Y027983D01*
X024957Y027723D01*
X024858Y027482D01*
X024779Y027403D01*
X024858Y027324D01*
X024957Y027083D01*
X024957Y026823D01*
X024858Y026582D01*
X024674Y026398D01*
X024433Y026298D01*
X024353Y026298D01*
X024353Y022979D01*
X024482Y023108D01*
X024723Y023207D01*
X024983Y023207D01*
X025224Y023108D01*
X025404Y022928D01*
X025449Y022990D01*
X025515Y023056D01*
X025591Y023111D01*
X025674Y023154D01*
X025763Y023183D01*
X025856Y023197D01*
X025903Y023197D01*
X025903Y022603D01*
X025903Y022603D01*
X026497Y022603D01*
X026497Y022650D01*
X026483Y022742D01*
X026454Y022831D01*
X026411Y022914D01*
X026356Y022990D01*
X026290Y023056D01*
X026214Y023111D01*
X026131Y023154D01*
X026042Y023183D01*
X025950Y023197D01*
X025903Y023197D01*
X025903Y022603D01*
X025903Y022603D01*
X026497Y022603D01*
X026497Y022556D01*
X026483Y022463D01*
X026454Y022374D01*
X026411Y022291D01*
X026356Y022215D01*
X026290Y022149D01*
X026214Y022094D01*
X026131Y022052D01*
X026042Y022023D01*
X025950Y022008D01*
X025903Y022008D01*
X025903Y022602D01*
X025903Y022602D01*
X025903Y022008D01*
X025856Y022008D01*
X025763Y022023D01*
X025674Y022052D01*
X025591Y022094D01*
X025515Y022149D01*
X025449Y022215D01*
X025432Y022240D01*
X025408Y022182D01*
X025224Y021998D01*
X024983Y021898D01*
X024723Y021898D01*
X024482Y021998D01*
X024353Y022127D01*
X024353Y022014D02*
X024466Y022014D01*
X024353Y021695D02*
X026183Y021695D01*
X026221Y021377D02*
X024353Y021377D01*
X024353Y021058D02*
X026445Y021058D01*
X026257Y020740D02*
X024353Y020740D01*
X024353Y020421D02*
X026270Y020421D01*
X026329Y020102D02*
X026405Y020102D01*
X025477Y020102D02*
X025229Y020102D01*
X024477Y020102D02*
X024353Y020102D01*
X025373Y019147D02*
X025433Y019147D01*
X025315Y018828D02*
X024975Y018828D01*
X025603Y018828D02*
X025603Y018828D01*
X025890Y018828D02*
X026285Y018828D01*
X026250Y018510D02*
X026178Y018510D01*
X026178Y018191D02*
X026402Y018191D01*
X025986Y017873D02*
X030783Y017873D01*
X030783Y017554D02*
X029487Y017554D01*
X029541Y017531D02*
X029424Y017580D01*
X028782Y017580D01*
X028664Y017531D01*
X028574Y017441D01*
X028525Y017324D01*
X028525Y016682D01*
X028574Y016564D01*
X028664Y016474D01*
X028782Y016425D01*
X029424Y016425D01*
X029541Y016474D01*
X029631Y016564D01*
X029680Y016682D01*
X029680Y017324D01*
X029631Y017441D01*
X029541Y017531D01*
X029680Y017236D02*
X030783Y017236D01*
X030783Y016917D02*
X029680Y016917D01*
X029646Y016598D02*
X030783Y016598D01*
X030783Y016280D02*
X026023Y016280D01*
X026023Y016366D02*
X025974Y016484D01*
X025884Y016574D01*
X025844Y016591D01*
X025874Y016633D01*
X025918Y016719D01*
X025948Y016810D01*
X025963Y016905D01*
X025963Y016953D01*
X025963Y017001D01*
X025948Y017096D01*
X025918Y017187D01*
X025874Y017272D01*
X025818Y017350D01*
X025750Y017418D01*
X025672Y017474D01*
X025587Y017518D01*
X025496Y017548D01*
X025401Y017563D01*
X025353Y017563D01*
X025353Y016953D01*
X025963Y016953D01*
X025353Y016953D01*
X025353Y016953D01*
X025353Y016953D01*
X025353Y017563D01*
X025305Y017563D01*
X025210Y017548D01*
X025119Y017518D01*
X025033Y017474D01*
X024955Y017418D01*
X024887Y017350D01*
X024831Y017272D01*
X024787Y017187D01*
X024758Y017096D01*
X024743Y017001D01*
X024743Y016953D01*
X025352Y016953D01*
X025352Y016953D01*
X024743Y016953D01*
X024743Y016905D01*
X024758Y016810D01*
X024787Y016719D01*
X024831Y016633D01*
X024862Y016591D01*
X024821Y016574D01*
X024731Y016484D01*
X024683Y016366D01*
X024683Y015539D01*
X024731Y015421D01*
X024821Y015331D01*
X024939Y015283D01*
X025766Y015283D01*
X025884Y015331D01*
X025974Y015421D01*
X026023Y015539D01*
X026023Y016366D01*
X025849Y016598D02*
X028560Y016598D01*
X028525Y016917D02*
X025963Y016917D01*
X025893Y017236D02*
X028525Y017236D01*
X028719Y017554D02*
X025455Y017554D01*
X025353Y017554D02*
X025353Y017554D01*
X025250Y017554D02*
X024353Y017554D01*
X024353Y017236D02*
X024812Y017236D01*
X024743Y016917D02*
X024353Y016917D01*
X024353Y016598D02*
X024856Y016598D01*
X024683Y016280D02*
X024353Y016280D01*
X024353Y015961D02*
X024683Y015961D01*
X024683Y015643D02*
X024353Y015643D01*
X024353Y015324D02*
X024839Y015324D01*
X024353Y015006D02*
X028525Y015006D01*
X028525Y015324D02*
X028525Y014682D01*
X028574Y014564D01*
X028664Y014474D01*
X028782Y014425D01*
X029424Y014425D01*
X029541Y014474D01*
X029631Y014564D01*
X029680Y014682D01*
X029680Y015324D01*
X029631Y015441D01*
X029541Y015531D01*
X029424Y015580D01*
X028782Y015580D01*
X028664Y015531D01*
X028574Y015441D01*
X028525Y015324D01*
X025867Y015324D01*
X026023Y015643D02*
X030783Y015643D01*
X030783Y015961D02*
X026023Y015961D01*
X025353Y017236D02*
X025353Y017236D01*
X025220Y017873D02*
X025071Y017873D01*
X025603Y017873D02*
X025603Y017873D01*
X025603Y018191D02*
X025603Y018191D01*
X025603Y018510D02*
X025603Y018510D01*
X027203Y018510D02*
X027203Y018510D01*
X027203Y018191D02*
X027203Y018191D01*
X028004Y018191D02*
X029317Y018191D01*
X029183Y018510D02*
X028156Y018510D01*
X028121Y018828D02*
X029221Y018828D01*
X029446Y019147D02*
X028044Y019147D01*
X028221Y019465D02*
X029257Y019465D01*
X029270Y019784D02*
X028203Y019784D01*
X028001Y020102D02*
X029503Y020102D01*
X029270Y020421D02*
X028135Y020421D01*
X028149Y020740D02*
X029257Y020740D01*
X029445Y021058D02*
X027960Y021058D01*
X028184Y021377D02*
X029285Y021377D01*
X029250Y021695D02*
X028223Y021695D01*
X028089Y022014D02*
X029401Y022014D01*
X030203Y022014D02*
X030203Y022014D01*
X030203Y021695D02*
X030203Y021695D01*
X030203Y021377D02*
X030203Y021377D01*
X030203Y021058D02*
X030203Y021058D01*
X030203Y020740D02*
X030203Y020740D01*
X030203Y020421D02*
X030203Y020421D01*
X030203Y020102D02*
X030203Y020102D01*
X030203Y019784D02*
X030203Y019784D01*
X030783Y022332D02*
X026432Y022332D01*
X026497Y022651D02*
X030783Y022651D01*
X030783Y022969D02*
X026371Y022969D01*
X025903Y022969D02*
X025903Y022969D01*
X025903Y022651D02*
X025903Y022651D01*
X025903Y022332D02*
X025903Y022332D01*
X025903Y022014D02*
X025903Y022014D01*
X025985Y022014D02*
X026316Y022014D01*
X025821Y022014D02*
X025239Y022014D01*
X025362Y022969D02*
X025434Y022969D01*
X025640Y023718D02*
X026166Y023718D01*
X026538Y024090D01*
X026538Y024616D01*
X026258Y024895D01*
X026478Y025115D01*
X026478Y025353D01*
X026478Y025591D01*
X026141Y025928D01*
X025903Y025928D01*
X025903Y025353D01*
X025903Y025353D01*
X026478Y025353D01*
X025903Y025353D01*
X025903Y025353D01*
X025903Y025928D01*
X025665Y025928D01*
X025328Y025591D01*
X025328Y025353D01*
X025902Y025353D01*
X025902Y025353D01*
X025328Y025353D01*
X025328Y025115D01*
X025547Y024895D01*
X025268Y024616D01*
X025268Y024090D01*
X025640Y023718D01*
X025433Y023925D02*
X024353Y023925D01*
X024353Y024244D02*
X025268Y024244D01*
X025268Y024562D02*
X024353Y024562D01*
X024353Y024881D02*
X025533Y024881D01*
X025328Y025199D02*
X024353Y025199D01*
X024353Y025518D02*
X025328Y025518D01*
X025573Y025836D02*
X024353Y025836D01*
X024353Y026155D02*
X029647Y026155D01*
X029633Y026473D02*
X028549Y026473D01*
X028474Y026398D02*
X028658Y026582D01*
X028757Y026823D01*
X028757Y027083D01*
X028658Y027324D01*
X028536Y027445D01*
X028556Y027465D01*
X028611Y027541D01*
X028654Y027624D01*
X028683Y027713D01*
X028697Y027806D01*
X028697Y027853D01*
X028697Y027900D01*
X028683Y027992D01*
X028654Y028081D01*
X028611Y028164D01*
X028556Y028240D01*
X028490Y028306D01*
X028414Y028361D01*
X028331Y028404D01*
X028242Y028433D01*
X028150Y028447D01*
X028103Y028447D01*
X028103Y027853D01*
X028697Y027853D01*
X028103Y027853D01*
X028103Y027853D01*
X028103Y027853D01*
X028103Y028447D01*
X028056Y028447D01*
X027963Y028433D01*
X027874Y028404D01*
X027791Y028361D01*
X027715Y028306D01*
X027703Y028294D01*
X027690Y028306D01*
X027614Y028361D01*
X027531Y028404D01*
X027442Y028433D01*
X027350Y028447D01*
X027303Y028447D01*
X027303Y027853D01*
X027303Y027853D01*
X027508Y027853D01*
X028102Y027853D01*
X028102Y027853D01*
X027508Y027853D01*
X027303Y027853D01*
X027303Y027853D01*
X027303Y028447D01*
X027256Y028447D01*
X027163Y028433D01*
X027074Y028404D01*
X026991Y028361D01*
X026915Y028306D01*
X026849Y028240D01*
X026794Y028164D01*
X026752Y028081D01*
X026723Y027992D01*
X026708Y027900D01*
X026708Y027853D01*
X027302Y027853D01*
X027302Y027853D01*
X026708Y027853D01*
X026708Y027806D01*
X026723Y027713D01*
X026752Y027624D01*
X026794Y027541D01*
X026849Y027465D01*
X026869Y027445D01*
X026748Y027324D01*
X026648Y027083D01*
X026648Y026823D01*
X026748Y026582D01*
X026932Y026398D01*
X027173Y026298D01*
X027433Y026298D01*
X027674Y026398D01*
X027703Y026427D01*
X027732Y026398D01*
X027973Y026298D01*
X028233Y026298D01*
X028474Y026398D01*
X028745Y026792D02*
X029633Y026792D01*
X029633Y027110D02*
X028746Y027110D01*
X028552Y027429D02*
X029633Y027429D01*
X029452Y027747D02*
X028688Y027747D01*
X028659Y028066D02*
X029133Y028066D01*
X028815Y028385D02*
X028369Y028385D01*
X028103Y028385D02*
X028103Y028385D01*
X027837Y028385D02*
X027569Y028385D01*
X027303Y028385D02*
X027303Y028385D01*
X027037Y028385D02*
X024697Y028385D01*
X024923Y028066D02*
X026747Y028066D01*
X026717Y027747D02*
X024957Y027747D01*
X024805Y027429D02*
X026853Y027429D01*
X026659Y027110D02*
X024946Y027110D01*
X024945Y026792D02*
X026661Y026792D01*
X026856Y026473D02*
X024749Y026473D01*
X025903Y025836D02*
X025903Y025836D01*
X025903Y025518D02*
X025903Y025518D01*
X026232Y025836D02*
X029863Y025836D01*
X030182Y025518D02*
X026478Y025518D01*
X026478Y025199D02*
X030500Y025199D01*
X030783Y024881D02*
X030150Y024881D01*
X030175Y024855D02*
X030105Y024925D01*
X030026Y024986D01*
X029940Y025036D01*
X029848Y025074D01*
X029751Y025100D01*
X029653Y025113D01*
X029603Y025113D01*
X029603Y024353D01*
X029603Y024353D01*
X030363Y024353D01*
X030363Y024403D01*
X030350Y024501D01*
X030324Y024598D01*
X030286Y024690D01*
X030236Y024776D01*
X030175Y024855D01*
X030333Y024562D02*
X030783Y024562D01*
X030783Y024244D02*
X030355Y024244D01*
X030350Y024204D02*
X030363Y024303D01*
X030363Y024353D01*
X029603Y024353D01*
X029603Y024353D01*
X029603Y025113D01*
X029553Y025113D01*
X029454Y025100D01*
X029358Y025074D01*
X029266Y025036D01*
X029180Y024986D01*
X029101Y024925D01*
X029030Y024855D01*
X028969Y024776D01*
X028920Y024690D01*
X028882Y024598D01*
X028856Y024501D01*
X028843Y024403D01*
X028843Y024353D01*
X029602Y024353D01*
X029602Y024353D01*
X028843Y024353D01*
X028843Y024303D01*
X028856Y024204D01*
X028882Y024108D01*
X028920Y024016D01*
X028969Y023930D01*
X029030Y023851D01*
X029101Y023780D01*
X029180Y023719D01*
X029266Y023670D01*
X029358Y023632D01*
X029454Y023606D01*
X029553Y023593D01*
X029603Y023593D01*
X029653Y023593D01*
X029751Y023606D01*
X029848Y023632D01*
X029940Y023670D01*
X030026Y023719D01*
X030105Y023780D01*
X030175Y023851D01*
X030236Y023930D01*
X030286Y024016D01*
X030324Y024108D01*
X030350Y024204D01*
X030232Y023925D02*
X030783Y023925D01*
X030783Y023606D02*
X029754Y023606D01*
X029603Y023606D02*
X029603Y023606D01*
X029603Y023593D02*
X029603Y024352D01*
X029603Y024352D01*
X029603Y023593D01*
X029452Y023606D02*
X028309Y023606D01*
X028284Y023581D02*
X028374Y023671D01*
X028423Y023789D01*
X028423Y024916D01*
X028374Y025034D01*
X028284Y025124D01*
X028166Y025173D01*
X027039Y025173D01*
X026921Y025124D01*
X026831Y025034D01*
X026783Y024916D01*
X026783Y023789D01*
X026831Y023671D01*
X026921Y023581D01*
X027039Y023533D01*
X028166Y023533D01*
X028284Y023581D01*
X028423Y023925D02*
X028973Y023925D01*
X028851Y024244D02*
X028423Y024244D01*
X028423Y024562D02*
X028872Y024562D01*
X029056Y024881D02*
X028423Y024881D01*
X029603Y024881D02*
X029603Y024881D01*
X029603Y024562D02*
X029603Y024562D01*
X029603Y024244D02*
X029603Y024244D01*
X029603Y023925D02*
X029603Y023925D01*
X030783Y023288D02*
X024353Y023288D01*
X024353Y023606D02*
X026896Y023606D01*
X026783Y023925D02*
X026373Y023925D01*
X026538Y024244D02*
X026783Y024244D01*
X026783Y024562D02*
X026538Y024562D01*
X026783Y024881D02*
X026273Y024881D01*
X027303Y028066D02*
X027303Y028066D01*
X028103Y028066D02*
X028103Y028066D01*
X028509Y029977D02*
X028589Y029977D01*
X028552Y030296D02*
X028509Y030296D01*
X028509Y030614D02*
X028554Y030614D01*
X028471Y030933D02*
X028652Y030933D01*
X028807Y031251D02*
X028242Y031251D01*
X027432Y031251D02*
X026273Y031251D01*
X026502Y030933D02*
X027203Y030933D01*
X027164Y030614D02*
X026541Y030614D01*
X026541Y030296D02*
X027164Y030296D01*
X027164Y029977D02*
X026541Y029977D01*
X025303Y029340D02*
X024353Y029340D01*
X024353Y029022D02*
X025528Y029022D01*
X025846Y028703D02*
X024353Y028703D01*
X024353Y029659D02*
X025282Y029659D01*
X025196Y029977D02*
X024353Y029977D01*
X024353Y030296D02*
X025196Y030296D01*
X025196Y030614D02*
X024353Y030614D01*
X024353Y030933D02*
X025235Y030933D01*
X025464Y031251D02*
X024353Y031251D01*
X029680Y015324D02*
X030783Y015324D01*
X030783Y015006D02*
X029680Y015006D01*
X029680Y014687D02*
X030783Y014687D01*
X030783Y014369D02*
X026785Y014369D01*
X026766Y014388D02*
X026240Y014388D01*
X025868Y014016D01*
X025868Y013490D01*
X026240Y013118D01*
X026766Y013118D01*
X027045Y013397D01*
X027265Y013178D01*
X027503Y013178D01*
X027741Y013178D01*
X028078Y013515D01*
X028078Y013753D01*
X028078Y013991D01*
X027741Y014328D01*
X027503Y014328D01*
X027503Y013753D01*
X028078Y013753D01*
X027503Y013753D01*
X027503Y013753D01*
X027503Y013753D01*
X027503Y014328D01*
X027265Y014328D01*
X027045Y014108D01*
X026766Y014388D01*
X026221Y014369D02*
X025114Y014369D01*
X025118Y014050D02*
X025902Y014050D01*
X025868Y013732D02*
X025126Y013732D01*
X025198Y013413D02*
X025944Y013413D01*
X026027Y012883D02*
X025814Y012794D01*
X025651Y012631D01*
X025563Y012418D01*
X025563Y012187D01*
X025651Y011974D01*
X025814Y011811D01*
X026027Y011723D01*
X026778Y011723D01*
X026991Y011811D01*
X027154Y011974D01*
X027243Y012187D01*
X027243Y012418D01*
X027154Y012631D01*
X026991Y012794D01*
X026778Y012883D01*
X026027Y012883D01*
X025796Y012776D02*
X025182Y012776D01*
X025198Y013094D02*
X030783Y013094D01*
X030783Y013413D02*
X027976Y013413D01*
X028078Y013732D02*
X030783Y013732D01*
X030783Y014050D02*
X028019Y014050D01*
X027503Y014050D02*
X027503Y014050D01*
X027503Y013752D02*
X027503Y013178D01*
X027503Y013752D01*
X027503Y013752D01*
X027503Y013732D02*
X027503Y013732D01*
X027503Y013413D02*
X027503Y013413D01*
X027010Y012776D02*
X029796Y012776D01*
X029579Y012457D02*
X027226Y012457D01*
X027223Y012139D02*
X029583Y012139D01*
X029805Y011820D02*
X027001Y011820D01*
X026943Y011433D02*
X026463Y011433D01*
X026123Y011093D01*
X026123Y010613D01*
X026383Y010353D01*
X026123Y010093D01*
X026123Y009613D01*
X026463Y009273D01*
X026943Y009273D01*
X027283Y009613D01*
X027283Y010093D01*
X027023Y010353D01*
X027283Y010613D01*
X027283Y011093D01*
X026943Y011433D01*
X027192Y011183D02*
X030213Y011183D01*
X030123Y010865D02*
X027283Y010865D01*
X027216Y010546D02*
X030189Y010546D01*
X030257Y010228D02*
X027148Y010228D01*
X027283Y009909D02*
X030123Y009909D01*
X030145Y009591D02*
X027261Y009591D01*
X027733Y008953D02*
X024353Y008953D01*
X024353Y008635D02*
X027723Y008635D01*
X027723Y008463D02*
X028063Y008123D01*
X028543Y008123D01*
X028883Y008463D01*
X028883Y008943D01*
X028543Y009283D01*
X028063Y009283D01*
X027723Y008943D01*
X027723Y008463D01*
X027869Y008316D02*
X024353Y008316D01*
X024353Y007998D02*
X030783Y007998D01*
X030241Y008316D02*
X030064Y008316D01*
X029724Y007679D02*
X026517Y007679D01*
X026601Y007644D02*
X026388Y007733D01*
X025637Y007733D01*
X025424Y007644D01*
X025261Y007481D01*
X025173Y007268D01*
X025173Y007037D01*
X025261Y006824D01*
X025424Y006661D01*
X025444Y006653D01*
X025424Y006644D01*
X025261Y006481D01*
X025173Y006268D01*
X025173Y006037D01*
X025261Y005824D01*
X025424Y005661D01*
X025444Y005653D01*
X025424Y005644D01*
X025261Y005481D01*
X025173Y005268D01*
X025173Y005037D01*
X025261Y004824D01*
X025424Y004661D01*
X025637Y004573D01*
X026388Y004573D01*
X026601Y004661D01*
X026764Y004824D01*
X026853Y005037D01*
X026853Y005268D01*
X026764Y005481D01*
X026601Y005644D01*
X026581Y005653D01*
X026601Y005661D01*
X026764Y005824D01*
X026853Y006037D01*
X026853Y006268D01*
X026764Y006481D01*
X026601Y006644D01*
X026581Y006653D01*
X026601Y006661D01*
X026764Y006824D01*
X026853Y007037D01*
X026853Y007268D01*
X026764Y007481D01*
X026601Y007644D01*
X026814Y007361D02*
X029389Y007361D01*
X029333Y007042D02*
X026853Y007042D01*
X026664Y006724D02*
X029455Y006724D01*
X029407Y006405D02*
X026796Y006405D01*
X026853Y006087D02*
X029333Y006087D01*
X029420Y005768D02*
X026708Y005768D01*
X026778Y005449D02*
X029425Y005449D01*
X029333Y005131D02*
X028695Y005131D01*
X028883Y004812D02*
X029402Y004812D01*
X029803Y004494D02*
X028883Y004494D01*
X027911Y005131D02*
X026853Y005131D01*
X026753Y004812D02*
X027723Y004812D01*
X027723Y004494D02*
X024353Y004494D01*
X024353Y004812D02*
X025273Y004812D01*
X025173Y005131D02*
X024353Y005131D01*
X024353Y005449D02*
X025248Y005449D01*
X025317Y005768D02*
X024353Y005768D01*
X024353Y006087D02*
X025173Y006087D01*
X025230Y006405D02*
X024353Y006405D01*
X024353Y006724D02*
X025362Y006724D01*
X025173Y007042D02*
X024353Y007042D01*
X024353Y007361D02*
X025211Y007361D01*
X025508Y007679D02*
X024353Y007679D01*
X024353Y009272D02*
X028052Y009272D01*
X028554Y009272D02*
X029224Y009272D01*
X029018Y008953D02*
X028872Y008953D01*
X028883Y008635D02*
X029018Y008635D01*
X029241Y008316D02*
X028737Y008316D01*
X030081Y009272D02*
X030224Y009272D01*
X030783Y011502D02*
X024353Y011502D01*
X024353Y011820D02*
X025805Y011820D01*
X025583Y012139D02*
X024353Y012139D01*
X024353Y012457D02*
X025579Y012457D01*
X026213Y011183D02*
X024353Y011183D01*
X024353Y010865D02*
X026123Y010865D01*
X026189Y010546D02*
X024353Y010546D01*
X024353Y010228D02*
X026257Y010228D01*
X026123Y009909D02*
X024353Y009909D01*
X024353Y009591D02*
X026145Y009591D01*
X024553Y014369D02*
X024553Y014369D01*
X024553Y014687D02*
X024553Y014687D01*
X024881Y014687D02*
X028525Y014687D01*
X025869Y004175D02*
X024353Y004175D01*
X024353Y003857D02*
X025551Y003857D01*
X025313Y003538D02*
X024353Y003538D01*
X024353Y003220D02*
X025283Y003220D01*
X025222Y002901D02*
X024353Y002901D01*
X024353Y002583D02*
X025196Y002583D01*
X025196Y002264D02*
X024353Y002264D01*
X024353Y001945D02*
X025196Y001945D01*
X025295Y001627D02*
X024353Y001627D01*
X024353Y001308D02*
X028591Y001308D01*
X028502Y001627D02*
X028410Y001627D01*
X028733Y000990D02*
X024353Y000990D01*
X026442Y001627D02*
X027264Y001627D01*
X027164Y001945D02*
X026541Y001945D01*
X026541Y002264D02*
X027164Y002264D01*
X027164Y002583D02*
X026541Y002583D01*
X026515Y002901D02*
X027190Y002901D01*
X027400Y003220D02*
X026526Y003220D01*
D34*
X011403Y019353D02*
X010003Y019353D01*
X009653Y019003D01*
X009653Y014503D01*
X009003Y013853D01*
X007853Y013853D01*
X008303Y014353D02*
X009153Y015203D01*
X009153Y022003D01*
X010003Y022853D01*
X010853Y022853D01*
X010853Y023853D02*
X010403Y023853D01*
X009903Y023353D01*
X007353Y023353D01*
X006953Y022953D01*
X003353Y022953D01*
X002603Y022203D01*
X002603Y018153D01*
X003803Y016953D01*
X003803Y013653D01*
X004103Y013353D01*
X004403Y013353D01*
X004703Y013053D01*
X004703Y008803D01*
X004253Y008353D01*
X004153Y008353D01*
X004953Y007853D02*
X004453Y007353D01*
X004153Y007353D01*
X004953Y007853D02*
X005003Y012303D01*
X007053Y014353D01*
X008303Y014353D01*
X011403Y019353D02*
X012103Y020053D01*
X012103Y021653D01*
X008653Y020353D02*
X003653Y020353D01*
X003153Y019853D01*
X003153Y018453D01*
D35*
X007853Y011853D02*
X008503Y011853D01*
X008953Y011403D01*
X008953Y010653D01*
X008353Y010053D01*
X007453Y010053D01*
X006703Y009303D01*
X006703Y002503D01*
X006853Y002353D01*
M02*
