%
M48
M72
T01C0.0276
T02C0.0300
T03C0.0315
T04C0.0320
T05C0.0360
T06C0.0394
T07C0.0400
T08C0.0433
T09C0.0470
T10C0.0900
T11C0.1102
%
T01
X15753Y20953
X15753Y21953
X24553Y14203
X24553Y13203
T02
X25403Y14503
X24553Y15103
X26253Y17003
X27503Y14603
X28253Y13803
X27503Y12953
X22853Y19353
X22353Y19853
X22853Y20353
X25853Y23353
X26603Y22603
X28603Y24353
X29603Y25353
X30603Y24353
X29603Y23353
X25903Y26103
X26603Y27853
X27553Y28503
X28353Y28503
X29103Y27853
X8653Y20353
X4503Y21103
X3903Y19803
X4003Y24603
X6353Y30853
X5753Y9353
T03
X13353Y2353
X14353Y2353
X25353Y15953
X25353Y16953
X29103Y17003
X29103Y15003
X17353Y25553
X17353Y29353
X18353Y29353
X16353Y29353
X21753Y31103
X22753Y31103
T04
X20853Y27753
X20853Y26753
X21553Y26353
X20353Y25603
X19353Y25603
X20353Y24353
X20353Y23353
X20353Y22353
X20353Y21353
X20353Y20353
X20353Y19353
X20353Y18353
X20353Y17303
X21353Y17303
X21503Y18353
X21503Y19353
X21503Y20353
X21503Y21353
X21553Y22353
X22603Y22353
X22603Y23403
X22603Y24403
X25903Y24353
X25903Y25353
X27203Y21603
X27203Y20603
X27203Y19603
X27203Y18603
X25603Y18303
X24603Y18303
X22603Y18353
X19353Y16353
X19353Y15353
X19353Y14353
X18353Y14353
X17353Y14353
X16353Y14353
X16253Y15353
X16253Y16353
X17453Y16353
X17453Y15353
X15353Y14353
X14453Y16853
X12003Y15853
X12003Y14853
X10853Y14853
X10853Y15853
X10853Y16853
X10853Y17853
X10853Y18853
X10853Y19853
X10853Y20853
X10853Y21853
X10853Y22853
X10853Y23853
X12103Y25653
X14203Y25653
X16003Y25353
X16003Y24353
X16003Y23353
X17353Y23353
X17353Y24353
X17353Y22353
X17353Y21353
X17353Y20353
X17353Y19353
X17353Y18353
X14453Y20853
X14203Y21653
X12103Y21653
X7853Y21853
X7853Y22853
X7853Y23853
X7803Y25153
X6903Y25103
X5603Y25003
X4603Y25003
X5503Y27603
X4503Y28603
X3503Y27603
X1853Y27853
X1853Y26853
X1853Y25853
X1853Y24853
X1853Y23853
X1853Y22853
X1853Y21853
X1853Y20853
X1853Y19853
X1853Y18853
X1853Y17853
X1853Y16853
X1853Y15853
X1853Y14853
X1853Y13853
X1853Y12853
X3203Y13253
X3203Y12253
X3203Y11253
X4153Y9353
X4153Y8353
X4153Y7353
X4153Y6353
X4153Y5353
X4153Y4353
X4853Y2853
X5853Y1853
X6853Y2353
X7853Y2353
X8853Y1353
X9853Y1353
X10853Y2353
X11853Y2353
X12453Y5303
X14203Y7453
X12453Y9303
X10853Y10853
X10853Y11853
X10853Y12853
X10853Y13853
X7853Y13853
X7853Y14853
X7853Y15853
X7853Y16853
X7853Y17853
X7853Y18853
X7853Y19853
X7853Y20853
X4353Y16853
X4353Y15853
X4353Y14853
X4353Y13853
X3153Y14453
X5753Y11753
X5753Y10653
X6753Y10653
X6753Y11753
X7853Y11853
X7853Y12853
X7853Y10853
X8153Y9353
X8153Y8353
X8153Y7353
X8153Y6353
X8153Y5353
X8853Y5353
X9853Y5353
X8153Y4353
X4853Y853
X15353Y10353
X16353Y10353
X17353Y10353
X18353Y10353
X19353Y10353
X20553Y10103
X20553Y11103
X20553Y12103
X20353Y13303
X21353Y13303
X22403Y12103
X20103Y8553
X19103Y8553
X18103Y8553
X18203Y7453
X19103Y6703
X19603Y5953
X20103Y6703
X22403Y8103
X22753Y7153
X22753Y6153
X22753Y5153
X25753Y5153
X25753Y6153
X25753Y7153
X26703Y9853
X26703Y10853
X26403Y12303
X26503Y13753
X27503Y13753
X30403Y12303
X30703Y10853
X30703Y9853
X30653Y8803
X29653Y8803
X28303Y8703
X28303Y4703
X30203Y18603
X30203Y19603
X30203Y20603
X30203Y21603
X16853Y26753
X16003Y26753
X16003Y27753
X16853Y27753
X7803Y28153
X6903Y28103
X3153Y18453
T05
X12111Y27123
X12111Y27903
X13095Y27903
X13095Y27123
T06
X6103Y16303
X6103Y14403
T07
X2853Y10353
X2853Y9353
X2853Y8353
X2853Y7353
X2853Y6353
X2853Y5353
X2853Y4353
X1853Y4353
X1853Y5353
X1853Y6353
X1853Y7353
X1853Y8353
X1853Y9353
X1853Y10353
X10303Y9353
X10303Y8353
X10303Y7353
X10303Y6353
X6483Y21863
X6483Y23643
X3923Y23643
X3923Y21863
X4803Y29953
X5803Y29953
X6803Y29953
X7803Y29953
X8803Y29953
X30253Y7103
X30253Y6103
X30253Y5103
T08
X25903Y19603
X24853Y19553
X24853Y22553
X25903Y22603
X27603Y24353
X29603Y24353
X31103Y26953
X31103Y27853
X28103Y27853
X27303Y27853
X27303Y26953
X28103Y26953
X24303Y26953
X24303Y27853
T09
X25869Y30353
X27837Y30353
X27837Y2353
X25869Y2353
X22837Y2353
X20869Y2353
X18337Y2353
X16369Y2353
T10
X14973Y28973
X10233Y28973
T11
X1853Y1853
X1853Y30353
X30253Y30353
X30203Y1853
M30
